<!--?xml version="1.0"?-->
<svg width="86" height="86" xmlns="http://www.w3.org/2000/svg" style="">
    <path fill="white" width="86" height="86" d="M0 0 L86 0 L86 86 L0 86 Z" class="BhnlMPwt_0"></path>
    <path stroke="black" stroke-width="3" d="M8,46L43,46" class="BhnlMPwt_1"></path>
    <path stroke="black" stroke-width="3" fill="transparent" d="M9,46A37,37 0,1,1 83,46A37,37 0,1,1 9,46" class="BhnlMPwt_2"></path>
    <path stroke="black" stroke-width="3" fill="transparent" d="M13,46A33,33 0,1,1 79,46A33,33 0,1,1 13,46" class="BhnlMPwt_3"></path>
    <path stroke="black" stroke-width="3" fill="transparent" d="M17,46A29,29 0,1,1 75,46A29,29 0,1,1 17,46" class="BhnlMPwt_4"></path>
    <path stroke="black" stroke-width="3" fill="transparent" d="M21,46A25,25 0,1,1 71,46A25,25 0,1,1 21,46" class="BhnlMPwt_5"></path>
    <path stroke="black" stroke-width="3" fill="transparent" d="M25,46A21,21 0,1,1 67,46A21,21 0,1,1 25,46" class="BhnlMPwt_6"></path>
    <path stroke="black" stroke-width="3" fill="transparent" d="M29,46A17,17 0,1,1 63,46A17,17 0,1,1 29,46" class="BhnlMPwt_7"></path>
    <path stroke="black" stroke-width="3" fill="transparent" d="M33,46A13,13 0,1,1 59,46A13,13 0,1,1 33,46" class="BhnlMPwt_8"></path>
    <path stroke="black" stroke-width="3" fill="transparent" d="M37,46A9,9 0,1,1 55,46A9,9 0,1,1 37,46" class="BhnlMPwt_9"></path>
    <path stroke="black" stroke-width="3" fill="transparent" d="M41,46A5,5 0,1,1 51,46A5,5 0,1,1 41,46" class="BhnlMPwt_10"></path>
    <path stroke="white" stroke-width="5" fill="transparent" d="M9,46A37,37 0,1,1 83,46A37,37 0,1,1 9,46" class="BhnlMPwt_11"></path>
    <path stroke="white" stroke-width="5" fill="transparent" d="M13,46A33,33 0,1,1 79,46A33,33 0,1,1 13,46" class="BhnlMPwt_12"></path>
    <path stroke="white" stroke-width="5" fill="transparent" d="M17,46A29,29 0,1,1 75,46A29,29 0,1,1 17,46" class="BhnlMPwt_13"></path>
    <path stroke="white" stroke-width="5" fill="transparent" d="M21,46A25,25 0,1,1 71,46A25,25 0,1,1 21,46" class="BhnlMPwt_14"></path>
    <path stroke="white" stroke-width="5" fill="transparent" d="M25,46A21,21 0,1,1 67,46A21,21 0,1,1 25,46" class="BhnlMPwt_15"></path>
    <path stroke="white" stroke-width="5" fill="transparent" d="M29,46A17,17 0,1,1 63,46A17,17 0,1,1 29,46" class="BhnlMPwt_16"></path>
    <path stroke="white" stroke-width="5" fill="transparent" d="M33,46A13,13 0,1,1 59,46A13,13 0,1,1 33,46" class="BhnlMPwt_17"></path>
    <path stroke="white" stroke-width="5" fill="transparent" d="M37,46A9,9 0,1,1 55,46A9,9 0,1,1 37,46" class="BhnlMPwt_18"></path>
    <path stroke="white" stroke-width="5" fill="transparent" d="M41,46A5,5 0,1,1 51,46A5,5 0,1,1 41,46" class="BhnlMPwt_19"></path>
    <path stroke="white" stroke-width="5" d="M8,46L43,46" class="BhnlMPwt_20"></path>
<style data-made-with="vivus-instant">.BhnlMPwt_0{stroke-dasharray:344 346;stroke-dashoffset:345;animation:BhnlMPwt_draw 5000ms ease 0ms forwards;}.BhnlMPwt_1{stroke-dasharray:35 37;stroke-dashoffset:36;animation:BhnlMPwt_draw 1000ms ease 250ms forwards;}.BhnlMPwt_2{stroke-dasharray:233 235;stroke-dashoffset:234;animation:BhnlMPwt_draw 5000ms ease 500ms forwards;}.BhnlMPwt_3{stroke-dasharray:208 210;stroke-dashoffset:209;animation:BhnlMPwt_draw 5000ms ease 750ms forwards;}.BhnlMPwt_4{stroke-dasharray:183 185;stroke-dashoffset:184;animation:BhnlMPwt_draw 5000ms ease 1000ms forwards;}.BhnlMPwt_5{stroke-dasharray:158 160;stroke-dashoffset:159;animation:BhnlMPwt_draw 5000ms ease 1250ms forwards;}.BhnlMPwt_6{stroke-dasharray:132 134;stroke-dashoffset:133;animation:BhnlMPwt_draw 5000ms ease 1500ms forwards;}.BhnlMPwt_7{stroke-dasharray:107 109;stroke-dashoffset:108;animation:BhnlMPwt_draw 5000ms ease 1750ms forwards;}.BhnlMPwt_8{stroke-dasharray:82 84;stroke-dashoffset:83;animation:BhnlMPwt_draw 5000ms ease 2000ms forwards;}.BhnlMPwt_9{stroke-dasharray:57 59;stroke-dashoffset:58;animation:BhnlMPwt_draw 5000ms ease 2250ms forwards;}.BhnlMPwt_10{stroke-dasharray:32 34;stroke-dashoffset:33;animation:BhnlMPwt_draw 5000ms ease 2500ms forwards;}.BhnlMPwt_11{stroke-dasharray:233 235;stroke-dashoffset:234;animation:BhnlMPwt_draw 5000ms ease 2750ms forwards;}.BhnlMPwt_12{stroke-dasharray:208 210;stroke-dashoffset:209;animation:BhnlMPwt_draw 5000ms ease 3000ms forwards;}.BhnlMPwt_13{stroke-dasharray:183 185;stroke-dashoffset:184;animation:BhnlMPwt_draw 5000ms ease 3250ms forwards;}.BhnlMPwt_14{stroke-dasharray:158 160;stroke-dashoffset:159;animation:BhnlMPwt_draw 5000ms ease 3500ms forwards;}.BhnlMPwt_15{stroke-dasharray:132 134;stroke-dashoffset:133;animation:BhnlMPwt_draw 5000ms ease 3750ms forwards;}.BhnlMPwt_16{stroke-dasharray:107 109;stroke-dashoffset:108;animation:BhnlMPwt_draw 5000ms ease 4000ms forwards;}.BhnlMPwt_17{stroke-dasharray:82 84;stroke-dashoffset:83;animation:BhnlMPwt_draw 5000ms ease 4250ms forwards;}.BhnlMPwt_18{stroke-dasharray:57 59;stroke-dashoffset:58;animation:BhnlMPwt_draw 5000ms ease 4500ms forwards;}.BhnlMPwt_19{stroke-dasharray:32 34;stroke-dashoffset:33;animation:BhnlMPwt_draw 5000ms ease 4750ms forwards;}.BhnlMPwt_20{stroke-dasharray:35 37;stroke-dashoffset:36;animation:BhnlMPwt_draw 20000ms ease 5000ms forwards;}@keyframes BhnlMPwt_draw{100%{stroke-dashoffset:0;}}@keyframes BhnlMPwt_fade{0%{stroke-opacity:1;}100%{stroke-opacity:1;}100%{stroke-opacity:0;}}</style></svg>
