<?xml version="1.0" encoding="UTF-8" standalone="no"?>
<svg xmlns:rdf="http://www.w3.org/1999/02/22-rdf-syntax-ns#" xmlns="http://www.w3.org/2000/svg" height="73.965mm" width="69.249mm" version="1.1" xmlns:cc="http://creativecommons.org/ns#" xmlns:dc="http://purl.org/dc/elements/1.1/" viewBox="0 0 245.36959 262.08147">
<path style="color:#000000" fill="#fff" d="m133.94-0.00019836s-16.524 8.6543-20.032 27.195c-33.526 0.064-73.036 0.567-81.924 1.342-10.701 6.355-31.784 30.58-31.986 36.934v10.516c0 13.331 12.46 25.047 23.772 25.047 13.584 0 24.903-11.26 24.904-24.621 0 13.361 10.928 24.621 24.514 24.621 13.585 0 24.164-11.26 24.164-24.621 0 13.361 11.622 24.621 25.207 24.621 0.0403 0 0.0808-0.002 0.12109-0.002h0.006c0.0402 0.0002 0.0807 0.002 0.1211 0.002 13.585 0 25.207-11.26 25.207-24.621 0.00001 13.361 10.579 24.621 24.164 24.621s24.514-11.26 24.514-24.621c0.001 13.361 11.32 24.621 24.904 24.621 11.313 0 23.772-11.715 23.772-25.047v-10.516c-0.2019-6.3543-21.287-30.58-31.988-36.934-30.539-1.072-50.946-1.3175-80.933-1.3496 1.0637-13.659 13.159-16.289 13.159-16.289s-6.7549-0.4607-9.2109-2.3027c-4.8627-3.647-2.457-8.5957-2.457-8.5957zm-36.756 94.754c-1.2934 2.2706-2.9163 4.331-4.7812 6.1543-5.1278 5.0145-12.155 8.1231-19.904 8.1231-7.7522 0-14.822-3.1077-19.949-8.125-1.8581-1.8192-3.269-3.7662-4.5625-6.0313l-0.006 0.004c-1.2934 2.2706-3.0928 4.2132-4.9551 6.0352-5.1278 5.0146-12.199 8.1211-19.947 8.1211-0.93451 0-1.9076-0.25966-2.6934-0.52929-1.0924 11.372-1.551 22.239-1.7148 30.164-0.0003 0.0145-0.0039 0.0323-0.0039 0.0469-0.021 4.0235-0.03849 7.3329-0.05859 11.93 0.21007 23.86-2.3634 77.334 10.52 90.473 19.964 4.6549 56.699 6.7763 93.555 6.7891h0.006c36.855-0.0128 73.59-2.1342 93.555-6.7891 12.883-13.14 10.31-66.613 10.52-90.473-0.0201-4.5967-0.0377-7.9061-0.0586-11.93 0-0.0146-0.002-0.0324-0.002-0.0469-0.16381-7.9253-0.62441-18.792-1.7168-30.164-0.78587 0.26963-1.7569 0.52932-2.6914 0.52929-7.748 0-14.821-3.1066-19.949-8.1211-1.8623-1.822-3.6616-3.7646-4.9551-6.0352l-0.006-0.004c-1.2934 2.2652-2.7044 4.212-4.5625 6.0313-5.1264 5.0173-12.195 8.125-19.947 8.125-7.7481 0-14.778-3.1086-19.906-8.1231-1.865-1.8233-3.4879-3.8837-4.7813-6.1543-1.292 2.2652-2.8749 4.335-4.7344 6.1543-5.1278 5.0173-12.199 8.125-19.951 8.125-0.27271 0-0.54157-0.0139-0.8125-0.0215-0.002-0.00006-0.004 0.00006-0.006 0-0.27093 0.008-0.53979 0.0215-0.8125 0.0215-7.7522 0-14.821-3.1077-19.949-8.125-1.8595-1.8193-3.4442-3.8891-4.7363-6.1543zm-24.682 21.074 34.328 10.139c0.44129 2.9966 0.22645 6.069-0.62891 8.9942-0.29248 0.96148-0.65282 1.9008-1.0781 2.8105-1.05-0.80149-2.2365-1.4063-3.502-1.7852-5.7974-1.7138-11.886 1.597-13.6 7.3945-0.61149 2.0807-0.5911 4.2961 0.0586 6.3652-2.2699 0.15512-4.5417-0.0906-6.7168-0.72656-10.507-3.1027-16.424-14.429-13.215-25.299 0.86962-2.92 2.3568-5.6161 4.3535-7.8926zm96.029 3.1484c1.1298 2.2678 1.843 4.7303 2.1035 7.2617 1.1326 11.277-6.7862 21.307-17.688 22.402-0.0521 0.003-0.10416 0.005-0.15625 0.008 0.95837-1.8696 1.3584-3.9756 1.1523-6.0664-0.60305-6.0164-5.9702-10.404-11.986-9.7988-3.4756 0.35402-6.5735 2.346-8.3379 5.3613-1.3361-2.449-2.1743-5.1518-2.4629-7.9414-0.25306-2.5311-0.0491-5.0855 0.60157-7.5332zm-48.621 30.719 0.004 0.002v0.002s15.153 13.917 17.875 18.861l-9.9141-0.3965v8.6446c0 0.40468-3.9796 0.24045-7.961 0.0566-0.001-0.00007-0.003 0.00007-0.004 0-3.9816 0.18384-7.959 0.34805-7.959-0.0566v-8.6446l-9.9141 0.3965c2.7216-4.945 17.859-18.848 17.873-18.861zm80.305 1.2969s-7.6336 50.651-41.408 73.25l0.10742-11.674c-8.0383 5.2479-15.795 6.7418-23.26 5.1124v16.05c-4.3436 0.82262-8.9621 1.2442-13.883 1.1758-65.673-0.9121-76.617-82.092-76.617-82.092 11.57 11.453 22.716 19.926 33.365 26.022l0.1543 16.621c14.216-9.6862 14.367 2.7383 21.664 2.7383v-9.8008c60.35 18.265 99.877-37.402 99.877-37.402z"/>
</svg>
