<?xml version="1.0" encoding="UTF-8" standalone="no"?>
<svg xmlns:rdf="http://www.w3.org/1999/02/22-rdf-syntax-ns#" xmlns="http://www.w3.org/2000/svg" height="247.91" width="785.77" version="1.1" xmlns:cc="http://creativecommons.org/ns#" xmlns:dc="http://purl.org/dc/elements/1.1/" viewBox="0 0 785.76565 247.90388">
<path d="m264.95 211.33v-103.17h34.81v103.17h-34.81zm17.61-111.56q-8.808 0-13.63-4.404-4.614-4.403-4.614-11.743 0-6.92 4.613-11.743 4.823-4.823 13.63-4.823 8.808 0 13.422 4.823 4.823 4.823 4.823 11.743 0 7.34-4.823 11.743-4.613 4.404-13.42 4.404zm69.136 113.66q-15.1 0-22.86-7.97-7.548-8.177-7.548-22.647v-48.86h-13.84v-25.795h13.84v-25.164h34.81v25.166h22.65v25.79h-22.652v43.828q0 4.824 1.888 6.92 2.097 1.888 6.29 1.888 5.663 0 12.373-5.033l7.97 22.858q-6.08 4.2-13.84 6.71-7.76 2.31-19.08 2.31zm85.62 0q-23.907 0-37.747-13.63-13.63-13.632-13.63-39.635 0-18.873 7.758-31.665 7.97-13.21 19.93-17.825 12.58-4.823 23.28-4.823 13.42 0 22.44 5.452 9.02 5.243 13.21 11.534 4.41 6.29 6.29 9.856l-24.11 15.518q-3.35-6.92-7.34-10.905-3.98-3.984-9.64-3.984-7.97 0-12.58 6.29-4.61 6.292-4.61 19.084 0 13.84 5.45 20.34 5.45 6.502 15.52 6.502 7.97 0 13.21-2.94 5.45-2.94 10.277-7.55l11.115 26q-5.034 4.19-14.89 8.39-9.856 3.98-23.906 3.98zm50.65-2.1v-140.08h35.02v42.57q4.403-3.146 10.694-5.452 6.29-2.517 15.1-2.517 18.453 0 27.47 10.49 9.227 10.49 9.227 29.57v65.43h-35.02v-61.24q0-8.8-3.35-12.79-3.35-4.19-8.81-4.19-4.61 0-8.6 2.1-3.98 2.1-6.71 4.41v71.72h-35.02zm124.4 2.1q-8.39 0-13.212-4.823-4.823-4.823-4.823-12.372 0-7.55 4.823-12.582 4.823-5.033 13.21-5.033 7.97 0 12.793 5.033 4.83 5.033 4.83 12.582 0 7.55-4.82 12.372-4.61 4.823-12.79 4.823zm25.75-2.1v-103.17h34.81v103.17h-34.81zm17.61-111.54q-8.81 0-13.632-4.404-4.613-4.404-4.613-11.743 0-6.92 4.613-11.743 4.823-4.823 13.63-4.823 8.808 0 13.422 4.823 4.823 4.823 4.823 11.743 0 7.34-4.823 11.743-4.613 4.404-13.42 4.404zm78.67 113.64q-12.164 0-21.6-3.984-9.437-4.194-16.147-11.324-6.5-7.34-10.066-17.196-3.355-10.066-3.355-21.81 0-17.404 7.55-30.406 7.758-12.792 19.292-17.825 11.743-5.033 24.325-5.033 18.03 0 29.77 8.388 11.95 8.388 16.78 20.97 4.82 12.582 4.82 23.906 0 11.743-3.57 21.81-3.35 9.855-10.07 17.195-6.5 7.13-16.15 11.33-9.435 3.99-21.6 3.99zm0-26.842q8.807 0 12.79-7.34 3.985-7.55 3.985-20.13 0-11.954-4.194-19.084-4.19-7.13-12.58-7.13-8.18 0-12.37 7.13t-4.19 19.083q0 12.582 3.99 20.13 4.2 7.34 12.58 7.34z" fill="#fff"/>
<path style="color:#000000" fill="#fff" d="m133.94-0.0018082s-16.524 8.6543-20.032 27.195c-33.524 0.0634-73.033 0.56659-81.921 1.3418-10.705 6.356-31.788 30.58-31.99 36.934v10.516c0 13.331 12.459 25.047 23.771 25.047 13.584 0 24.903-11.26 24.904-24.621 0 13.361 10.928 24.621 24.514 24.621 13.585 0 24.164-11.26 24.164-24.621 0 13.361 11.622 24.621 25.207 24.621 0.0403 0 0.0808-0.002 0.12109-0.002h0.006c0.0402 0.0002 0.0807 0.002 0.1211 0.002 13.585 0 25.207-11.26 25.207-24.621 0.00001 13.361 10.579 24.621 24.164 24.621s24.514-11.26 24.514-24.621c0.001 13.361 11.32 24.621 24.904 24.621 11.313 0 23.771-11.715 23.771-25.047v-10.516c-0.2019-6.3543-21.287-30.579-31.988-36.933-30.539-1.072-50.946-1.3175-80.932-1.3496 1.0637-13.659 13.159-16.289 13.159-16.289s-6.7548-0.4607-9.2109-2.3027c-4.8627-3.647-2.457-8.5957-2.457-8.5957zm-36.757 94.754c-1.2934 2.2706-2.9162 4.331-4.7812 6.1543-5.1278 5.0145-12.155 8.123-19.904 8.123-7.7522 0-14.822-3.1077-19.949-8.125-1.8581-1.8192-3.269-3.7661-4.5625-6.0312l-0.006 0.004c-1.2934 2.2706-3.0928 4.2132-4.9551 6.0351-5.1278 5.0146-12.199 8.1211-19.947 8.1211-0.9345 0-1.9076-0.25966-2.6934-0.52929-1.0924 11.372-1.551 22.239-1.7148 30.164-0.0003 0.0145-0.004 0.0323-0.004 0.0469-0.021 4.0235-0.0385 7.3329-0.0586 11.93 0.21006 23.86-2.3633 77.333 10.519 90.472 19.964 4.6549 56.699 6.7762 93.554 6.789h0.006c36.855-0.0128 73.589-2.1342 93.554-6.789 12.883-13.14 10.31-66.612 10.52-90.472-0.0201-4.5967-0.0377-7.9061-0.0586-11.93 0-0.0146-0.002-0.0324-0.002-0.0469-0.16381-7.9253-0.62441-18.792-1.7168-30.164-0.78586 0.26963-1.7569 0.52932-2.6914 0.52929-7.748 0-14.821-3.1066-19.949-8.1211-1.8623-1.822-3.6616-3.7645-4.9551-6.0351l-0.006-0.004c-1.2934 2.2652-2.7044 4.212-4.5625 6.0312-5.1264 5.0173-12.195 8.125-19.947 8.125-7.7481 0-14.778-3.1085-19.906-8.123-1.865-1.8233-3.4878-3.8837-4.7812-6.1543-1.292 2.2652-2.8749 4.335-4.7344 6.1543-5.1278 5.0173-12.199 8.125-19.951 8.125-0.27271 0-0.54157-0.0139-0.8125-0.0215-0.002-0.00006-0.004 0.00006-0.006 0-0.27093 0.008-0.53979 0.0215-0.8125 0.0215-7.7522 0-14.821-3.1077-19.949-8.125-1.8595-1.8193-3.4442-3.8891-4.7363-6.1543zm-24.682 21.074 34.328 10.139c0.4413 2.9966 0.22646 6.069-0.6289 8.9941-0.29248 0.96147-0.65282 1.9008-1.0781 2.8105-1.05-0.80149-2.2365-1.4063-3.5019-1.7852-5.7974-1.7138-11.886 1.597-13.6 7.3945-0.61148 2.0807-0.59109 4.2961 0.0586 6.3652-2.2699 0.15512-4.5417-0.0906-6.7168-0.72656-10.507-3.1027-16.423-14.429-13.215-25.299 0.86962-2.92 2.3568-5.6161 4.3535-7.8926zm96.029 3.1484c1.1297 2.2678 1.843 4.7303 2.1035 7.2617 1.1326 11.277-6.7862 21.307-17.687 22.402-0.0521 0.003-0.10416 0.005-0.15625 0.008 0.95836-1.8696 1.3584-3.9756 1.1523-6.0664-0.60305-6.0163-5.9702-10.404-11.986-9.7988-3.4756 0.35402-6.5735 2.346-8.3379 5.3613-1.3361-2.449-2.1743-5.1518-2.4629-7.9414-0.25306-2.531-0.0491-5.0855 0.60157-7.5332zm-48.621 30.719 0.004 0.002v0.002s15.153 13.917 17.875 18.861l-9.914-0.3965v8.6445c0 0.40468-3.9796 0.24045-7.9609 0.0566-0.001-0.00007-0.003 0.00007-0.004 0-3.9816 0.18384-7.959 0.34805-7.959-0.0566v-8.6445l-9.914 0.3965c2.7216-4.945 17.859-18.847 17.873-18.861zm80.304 1.2969s-7.6336 50.651-41.408 73.25l0.10742-11.674c-8.0383 5.2479-15.794 6.7418-23.26 5.1123v16.05c-4.3436 0.82262-8.962 1.2442-13.883 1.1758-65.672-0.91208-76.617-82.092-76.617-82.092 11.57 11.453 22.716 19.926 33.365 26.021l0.1543 16.621c14.216-9.6861 14.367 2.7383 21.664 2.7383v-9.8008c60.35 18.265 99.877-37.402 99.877-37.402z"/>
</svg>
