<svg xmlns:xlink="http://www.w3.org/1999/xlink" xmlns="http://www.w3.org/2000/svg" version="1.1" viewBox="0.0 0.0 960.0 540.0" fill="none" stroke="none" stroke-linecap="square" stroke-miterlimit="10"><clipPath id="g64163215f9_0_103.0"><path d="m0 0l960.0 0l0 540.0l-960.0 0l0 -540.0z" clip-rule="nonzero"/></clipPath><g clip-path="url(#g64163215f9_0_103.0)"><path fill="#ffffff" d="m0 0l960.0 0l0 540.0l-960.0 0z" fill-rule="evenodd"/><path fill="#cccccc" d="m-22.73991 280.8498l1012.50397 -225.22835l-7.0236206 -31.622046l-1012.50397 225.22835z" fill-rule="evenodd"/><path stroke="#cccccc" stroke-width="1.0" stroke-linejoin="round" stroke-linecap="butt" d="m-22.73991 280.8498l1012.50397 -225.22835l-7.0236206 -31.622046l-1012.50397 225.22835z" fill-rule="evenodd"/><path fill="#cccccc" d="m-22.74141 516.0008l1012.5039 -225.22833l-7.0236206 -31.62204l-1012.5039 225.22836z" fill-rule="evenodd"/><path stroke="#cccccc" stroke-width="1.0" stroke-linejoin="round" stroke-linecap="butt" d="m-22.74141 516.0008l1012.5039 -225.22833l-7.0236206 -31.62204l-1012.5039 225.22836z" fill-rule="evenodd"/><path fill="#000000" fill-opacity="0.0" d="m950.30347 211.46457l-960.0 0l0 117.07086l960.0 0z" fill-rule="evenodd"/><path fill="#000000" d="m279.1316 205.79999l2.8125 0l4.96875 18.171875l-3.640625 1.015625q-2.921875 -6.296875 -4.453125 -8.4375q-2.5 -3.484375 -6.234375 -5.515625q-3.71875 -2.03125 -8.21875 -2.03125q-5.265625 0 -9.70314 2.84375q-4.4375 2.828125 -7.1875 8.296875q-2.75 5.46875 -2.75 12.296875q0 7.03125 2.78125 12.546875q2.796875 5.5 7.5625 8.46875q4.7656403 2.96875 10.281265 2.96875q5.1875 0 10.609375 -2.96875q5.4375 -2.96875 9.421875 -8.3125l3.125 2.140625q-2.421875 3.59375 -5.234375 6.09375q-4.453125 4.03125 -9.265625 5.953125q-4.796875 1.90625 -10.53125 1.90625q-12.70314 0 -20.625015 -9.421875q-6.5625 -7.8125 -6.5625 -18.59375q0 -7.921875 3.625 -14.34375q3.640625 -6.4375 10.015625 -10.21875q6.3906403 -3.796875 13.781265 -3.796875q3.9375 0 7.3125 1.078125q3.390625 1.078125 6.859375 3.453125l1.25 -3.59375zm14.8828125 3.828125l0 -3.359375q3.796875 -0.5 5.90625 -1.1875q2.109375 -0.6875 4.40625 -2.09375l3.046875 0l0 25.828125q4.421875 -3.71875 8.359375 -5.4375q3.953125 -1.71875 7.546875 -1.71875q5.234375 0 8.625 3.125q3.359375 3.125 3.359375 7.625l0 19.171875q0 2.859375 0.453125 3.734375q0.453125 0.875 1.5 1.296875q1.0625 0.40625 4.734375 0.40625l0 3.28125l-20.15625 0l0 -3.28125l1.484375 0q2.84375 0 3.734375 -0.453125q0.90625 -0.453125 1.3125 -1.484375q0.421875 -1.03125 0.421875 -4.28125l0 -13.3125q0 -4.421875 -0.3125 -5.75q-0.59375 -2.265625 -2.4375 -3.625q-1.828125 -1.375 -4.671875 -1.375q-3.203125 0 -6.703125 1.59375q-3.5 1.578125 -7.25 4.734375l0 19.578125q0 2.1875 0.390625 2.9375q0.390625 0.734375 1.28125 1.09375q0.90625 0.34375 3.609375 0.34375l1.59375 0l0 3.28125l-20.234375 0l0 -3.28125l1.21875 0q2.84375 0 4.140625 -0.703125q0.703125 -0.359375 1.015625 -1.375q0.3125 -1.015625 0.3125 -5.625l0 -39.6875l-6.6875 0zm80.90625 28.046875l0 -4.25q0 -4.34375 -2.421875 -6.1875q-2.421875 -1.859375 -6.84375 -1.859375q-2.1875 0 -3.828125 0.53125q-1.640625 0.515625 -2.640625 1.4375q-0.984375 0.921875 -1.453125 2.09375q-0.203125 0.421875 -0.9375 3.3125q-0.90625 3.515625 -3.640625 3.515625q-1.5625 0 -2.515625 -1.03125q-0.953125 -1.03125 -0.953125 -2.796875q0 -2.578125 1.90625 -5.046875q1.921875 -2.484375 5.84375 -4.109375q3.921875 -1.625 9.28125 -1.625q5.0 0 8.546875 1.546875q3.5625 1.546875 5.234375 4.4375q1.171875 1.984375 1.171875 7.265625l0 15.03125q0 3.203125 0.203125 4.1875q0.421875 1.671875 1.5 2.515625q1.078125 0.84375 2.796875 0.84375q1.796875 0 4.296875 -0.859375l0 3.390625q-3.25 0.953125 -5.828125 0.953125q-2.765625 0 -4.671875 -0.78125q-1.890625 -0.796875 -3.109375 -2.296875q-1.203125 -1.5 -1.546875 -3.578125q-4.6875 3.671875 -8.484375 5.171875q-3.78125 1.484375 -7.65625 1.484375q-5.390625 0 -8.75 -2.9375q-3.359375 -2.9375 -3.359375 -6.875q0 -2.390625 1.234375 -4.53125q1.234375 -2.15625 3.75 -3.796875q2.515625 -1.640625 7.90625 -2.890625q5.390625 -1.25 14.96875 -2.265625zm0 3.40625q-9.0625 1.328125 -11.21875 1.828125q-4.25 0.984375 -6.09375 2.15625q-1.828125 1.171875 -2.609375 2.515625q-0.78125 1.34375 -0.78125 2.875q0 1.515625 0.875 2.953125q0.875 1.421875 2.46875 2.25q1.609375 0.8125 3.40625 0.8125q2.546875 0 5.75 -1.203125q3.203125 -1.21875 8.203125 -4.734375l0 -9.453125zm17.890625 -31.609375l0 -3.203125q5.3125 -0.390625 10.34375 -3.28125l2.890625 0l0 48.09375q0 3.046875 0.390625 3.828125q0.515625 1.09375 1.484375 1.609375q0.984375 0.5 3.75 0.5l1.25 0l0 3.28125l-20.109375 0l0 -3.28125l2.03125 0q1.90625 0 2.859375 -0.578125q0.96875 -0.59375 1.375 -1.609375q0.40625 -1.015625 0.40625 -4.0625l0 -41.296875l-6.671875 0zm23.859375 0l0 -3.203125q5.0 -0.390625 10.359375 -3.28125l3.0 0l0 38.984375l14.34375 -11.40625q3.4375 -2.734375 3.4375 -3.625q0 -0.546875 -0.75 -0.859375q-0.46875 -0.203125 -2.296875 -0.203125l-2.078125 0l0 -3.28125l19.8125 0l0 3.28125q-3.328125 0 -5.328125 0.6875q-1.984375 0.6875 -4.59375 2.671875l-11.328125 8.640625l13.359375 14.609375q1.90625 2.109375 3.109375 2.96875q1.21875 0.859375 2.421875 1.1875q1.21875 0.328125 3.796875 0.375l0 3.28125l-20.78125 0l0 -3.28125l1.609375 0q2.375 0 3.0 -0.375q0.625 -0.375 0.625 -1.0q0 -0.625 -1.171875 -1.796875q-0.1875 -0.1875 -0.421875 -0.46875l-10.390625 -11.953125l-6.375 4.890625l0 5.109375q0 2.859375 0.421875 3.765625q0.4375 0.890625 1.359375 1.359375q0.921875 0.46875 3.53125 0.46875l1.453125 0l0 3.28125l-20.125 0l0 -3.28125q3.40625 -0.046875 4.1875 -0.28125q1.359375 -0.421875 1.96875 -1.515625q0.609375 -1.09375 0.609375 -4.21875l0 -41.53125l-6.765625 0zm76.02344 -3.671875l20.859375 0l0 3.328125l-1.609375 0q-2.265625 0 -3.28125 0.625q-1.015625 0.625 -1.484375 1.78125q-0.46875 1.140625 -0.46875 4.46875l0 35.109375q0 2.65625 0.5 3.78125q0.515625 1.109375 1.4375 1.625q0.921875 0.5 3.296875 0.5l1.609375 0l0 3.28125l-20.859375 0l0 -3.28125l1.71875 0q2.296875 0 3.25 -0.53125q0.96875 -0.53125 1.390625 -1.515625q0.4375 -1.0 0.4375 -3.859375l0 -35.9375q0 -3.0 -0.4375 -4.03125q-0.421875 -1.046875 -1.390625 -1.53125q-0.953125 -0.484375 -3.25 -0.484375l-1.71875 0l0 -3.328125zm37.1875 3.515625l2.765625 0l0 13.28125l11.609375 0l0 3.90625l-11.609375 0l0 23.5625q0 3.0 0.53125 4.296875q0.53125 1.28125 1.796875 2.109375q1.265625 0.8125 2.828125 0.8125q3.71875 0 8.203125 -3.3125l0 3.78125q-5.109375 3.484375 -10.34375 3.484375q-2.96875 0 -5.375 -1.328125q-2.40625 -1.328125 -3.28125 -3.125q-0.875 -1.796875 -0.875 -6.25l0 -24.03125l-6.84375 0l0 -3.28125q3.28125 -0.734375 5.296875 -2.296875q2.015625 -1.5625 3.265625 -4.0625q1.25 -2.5 2.03125 -7.546875zm45.851562 -3.515625l21.0625 0l0 3.328125l-1.40625 0q-2.578125 0 -3.671875 0.5q-0.859375 0.390625 -1.296875 1.328125q-0.421875 0.9375 -0.421875 3.75l0 24.53125q0 6.5625 1.578125 9.734375q1.578125 3.15625 5.265625 5.3125q3.703125 2.140625 8.109375 2.140625q4.453125 0 8.4375 -2.296875q3.984375 -2.3125 5.578125 -5.46875q1.609375 -3.171875 1.609375 -10.0l0 -23.59375q0 -2.578125 -0.515625 -3.703125q-0.5 -1.140625 -1.53125 -1.6875q-1.03125 -0.546875 -3.21875 -0.546875l-1.53125 0l0 -3.328125l18.25 0l0 3.328125l-1.25 0q-3.09375 0 -4.25 1.171875q-1.140625 1.171875 -1.140625 4.40625l0 25.125q0 6.875 -2.578125 11.46875q-2.578125 4.578125 -7.5 7.265625q-4.921875 2.671875 -11.453125 2.671875q-6.171875 0 -11.296875 -2.734375q-5.109375 -2.734375 -7.515625 -6.8125q-2.390625 -4.09375 -2.390625 -10.265625l0 -26.71875q0 -2.578125 -0.46875 -3.609375q-0.46875 -1.03125 -1.375 -1.5q-0.890625 -0.46875 -3.125 -0.46875l-1.953125 0l0 -3.328125zm61.835938 22.390625l0 -3.203125q2.9375 0 5.203125 -0.734375q2.265625 -0.75 4.953125 -2.59375l3.09375 0l0 6.53125q4.875 -3.875 8.109375 -5.203125q3.25 -1.328125 6.5 -1.328125q6.671875 0 11.375 5.234375q4.71875 5.234375 4.71875 13.640625q0 9.296875 -5.359375 15.234375q-4.875 5.46875 -12.578125 5.46875q-3.828125 0 -7.1875 -1.453125q-2.421875 -1.015625 -5.578125 -3.625l0 12.859375q0 2.890625 0.15625 3.390625q0.1875 0.75 0.765625 1.25q0.59375 0.515625 1.5 0.671875q0.65625 0.109375 4.453125 0.109375l0 3.28125l-20.125 0l0 -3.28125l1.765625 0q2.6875 0 3.484375 -0.40625q0.8125 -0.40625 1.203125 -1.265625q0.234375 -0.671875 0.234375 -4.0625l0 -40.515625l-6.6875 0zm13.25 4.015625l0 13.4375q0 2.65625 0.3125 3.953125q0.46875 1.984375 1.8125 3.59375q1.34375 1.59375 3.671875 2.734375q2.328125 1.125 4.859375 1.125q5.078125 0 8.8125 -3.828125q3.734375 -3.828125 3.734375 -11.59375q0 -7.265625 -3.09375 -11.234375q-3.078125 -3.96875 -7.296875 -3.96875q-2.734375 0 -5.9375 1.453125q-3.203125 1.4375 -6.875 4.328125zm44.171875 15.0l-2.96875 -34.921875q-0.15625 -1.484375 -0.15625 -1.875q0 -2.84375 1.25 -4.1875q1.25 -1.359375 3.671875 -1.359375q2.109375 0 3.421875 1.296875q1.3125 1.28125 1.3125 3.46875q0 0.703125 -0.203125 2.34375l-3.125 35.234375l-3.203125 0zm1.6875 3.984375q2.0625 0 3.484375 1.4375q1.4375 1.421875 1.4375 3.453125q0 2.03125 -1.453125 3.46875q-1.4375 1.421875 -3.46875 1.421875q-2.0 0 -3.453125 -1.421875q-1.4375 -1.4375 -1.4375 -3.46875q0 -2.03125 1.421875 -3.453125q1.4375 -1.4375 3.46875 -1.4375z" fill-rule="nonzero"/><path fill="#000000" d="m226.17845 297.34625l2.25 0l3.34375 13.4375l-2.875 0.875q-2.75 -5.65625 -7.3125 -8.90625q-3.75 -2.71875 -8.3125 -2.71875q-2.75 0 -4.9375 0.984375q-2.1875 0.984375 -3.28125 2.546875q-1.09375 1.5625 -1.09375 3.1875q0 1.46875 0.84375 2.84375q0.84375 1.375 2.5625 2.421875q1.71875 1.046875 5.625 2.203125l8.15625 2.40625q1.5 0.4375 4.359375 1.6875q2.859375 1.25 4.453125 2.640625q1.59375 1.390625 2.5 3.40625q0.90625 2.015625 0.90625 4.359375q0 5.1875 -4.546875 9.078125q-4.546875 3.890625 -11.765625 3.890625q-3.71875 0 -6.65625 -1.078125q-2.9375 -1.078125 -6.34375 -3.828125l-1.4375 4.15625l-2.1875 0l-2.90625 -15.65625l2.90625 -0.59375q1.59375 4.34375 4.234375 7.375q2.640625 3.03125 5.84375 4.578125q3.203125 1.546875 6.515625 1.546875q4.5 0 7.875 -2.71875q2.8125 -2.28125 2.8125 -5.375q0 -2.84375 -2.03125 -4.65625q-2.0625 -1.8125 -7.375 -3.375l-7.8125 -2.25q-6.5625 -1.90625 -9.25 -4.875q-2.6875 -2.96875 -2.6875 -6.8125q0 -3.0 1.75 -5.546875q1.75 -2.546875 5.375 -4.265625q3.625 -1.71875 7.9375 -1.71875q3.625 0 6.9375 1.25q2.34375 0.875 4.3125 2.5l1.3125 -3.0zm34.656265 25.5l0 -3.40625q0 -3.46875 -1.9375 -4.953125q-1.9375 -1.484375 -5.4687653 -1.484375q-1.75 0 -3.0625 0.421875q-1.3125 0.421875 -2.109375 1.15625q-0.796875 0.734375 -1.171875 1.671875q-0.15625 0.34375 -0.75 2.65625q-0.71875 2.8125 -2.90625 2.8125q-1.25 0 -2.015625 -0.828125q-0.765625 -0.828125 -0.765625 -2.234375q0 -2.0625 1.53125 -4.046875q1.53125 -1.984375 4.671875 -3.28125q3.140625 -1.296875 7.421875 -1.296875q4.0000153 0 6.8437653 1.234375q2.84375 1.234375 4.1875 3.546875q0.9375 1.59375 0.9375 5.8125l0 12.03125q0 2.5625 0.15625 3.34375q0.34375 1.34375 1.203125 2.015625q0.859375 0.671875 2.234375 0.671875q1.4375 0 3.4375 -0.6875l0 2.71875q-2.59375 0.75 -4.65625 0.75q-2.21875 0 -3.734375 -0.625q-1.515625 -0.625 -2.484375 -1.828125q-0.96875 -1.203125 -1.25 -2.859375q-3.75 2.9375 -6.7812653 4.125q-3.03125 1.1875 -6.125 1.1875q-4.3125 0 -7.0 -2.34375q-2.6875 -2.34375 -2.6875 -5.5q0 -1.90625 0.984375 -3.625q0.984375 -1.71875 3.0 -3.03125q2.015625 -1.3125 6.328125 -2.3125q4.3125 -1.0 11.968765 -1.8125zm0 2.71875q-7.2500153 1.0625 -8.968765 1.46875q-3.40625 0.78125 -4.875 1.71875q-1.46875 0.9375 -2.09375 2.015625q-0.625 1.078125 -0.625 2.296875q0 1.21875 0.703125 2.359375q0.703125 1.140625 1.984375 1.796875q1.28125 0.65625 2.71875 0.65625q2.03125 0 4.59375 -0.96875q2.5625153 -0.96875 6.5625153 -3.78125l0 -7.5625zm42.28125 6.65625l2.0 1.625q-5.875 7.84375 -14.09375 7.84375q-6.40625 0 -10.8125 -4.5625q-4.40625 -4.5625 -4.40625 -11.34375q0 -4.53125 2.046875 -8.140625q2.046875 -3.609375 5.6875 -5.609375q3.640625 -2.0 8.359375 -2.0q5.375 0 8.96875 2.640625q3.59375 2.640625 3.59375 5.328125q0 1.4375 -0.84375 2.21875q-0.84375 0.78125 -1.90625 0.78125q-0.5625 0 -1.09375 -0.28125q-0.53125 -0.28125 -1.09375 -0.90625q-0.25 -0.28125 -0.90625 -1.75q-0.84375 -1.8125 -1.3125 -2.4375q-0.96875 -1.25 -2.390625 -1.96875q-1.421875 -0.71875 -3.171875 -0.71875q-2.65625 0 -4.921875 1.46875q-2.265625 1.46875 -3.59375 4.328125q-1.328125 2.859375 -1.328125 6.828125q0 6.15625 3.28125 9.78125q2.84375 3.125 6.78125 3.125q1.8125 0 3.671875 -0.609375q1.859375 -0.609375 3.515625 -1.796875q1.21875 -0.84375 3.96875 -3.84375zm5.59375 -16.96875l0 -2.5625q2.28125 -0.1875 4.0625 -0.765625q1.78125 -0.578125 4.0625 -1.890625l2.34375 0l0 5.90625q2.21875 -2.71875 5.15625 -4.3125q2.9375 -1.59375 5.28125 -1.59375q2.3125 0 3.65625 1.09375q1.34375 1.09375 1.34375 2.65625q0 1.125 -0.890625 1.984375q-0.890625 0.859375 -2.140625 0.859375q-0.5625 0 -0.96875 -0.15625q-0.40625 -0.15625 -1.1875 -0.6875q-1.71875 -1.125 -2.875 -1.125q-1.5625 0 -3.4375 1.3125q-2.375 1.6875 -3.71875 3.3125l0 14.40625q0 1.875 0.203125 2.546875q0.203125 0.671875 0.671875 1.15625q0.46875 0.484375 1.15625 0.703125q0.6875 0.21875 2.40625 0.21875l1.03125 0l0 2.625l-16.15625 0l0 -2.625l1.34375 0q1.90625 0 2.5 -0.34375q0.8125 -0.46875 1.203125 -1.296875q0.390625 -0.828125 0.390625 -2.984375l0 -18.4375l-5.4375 0zm50.6875 7.59375l0 -3.40625q0 -3.46875 -1.9375 -4.953125q-1.9375 -1.484375 -5.46875 -1.484375q-1.75 0 -3.0625 0.421875q-1.3125 0.421875 -2.109375 1.15625q-0.796875 0.734375 -1.171875 1.671875q-0.15625 0.34375 -0.75 2.65625q-0.71875 2.8125 -2.90625 2.8125q-1.25 0 -2.015625 -0.828125q-0.765625 -0.828125 -0.765625 -2.234375q0 -2.0625 1.53125 -4.046875q1.53125 -1.984375 4.671875 -3.28125q3.140625 -1.296875 7.421875 -1.296875q4.0 0 6.84375 1.234375q2.84375 1.234375 4.1875 3.546875q0.9375 1.59375 0.9375 5.8125l0 12.03125q0 2.5625 0.15625 3.34375q0.34375 1.34375 1.203125 2.015625q0.859375 0.671875 2.234375 0.671875q1.4375 0 3.4375 -0.6875l0 2.71875q-2.59375 0.75 -4.65625 0.75q-2.21875 0 -3.734375 -0.625q-1.515625 -0.625 -2.484375 -1.828125q-0.96875 -1.203125 -1.25 -2.859375q-3.75 2.9375 -6.78125 4.125q-3.03125 1.1875 -6.125 1.1875q-4.3125 0 -7.0 -2.34375q-2.6875 -2.34375 -2.6875 -5.5q0 -1.90625 0.984375 -3.625q0.984375 -1.71875 3.0 -3.03125q2.015625 -1.3125 6.328125 -2.3125q4.3125 -1.0 11.96875 -1.8125zm0 2.71875q-7.25 1.0625 -8.96875 1.46875q-3.40625 0.78125 -4.875 1.71875q-1.46875 0.9375 -2.09375 2.015625q-0.625 1.078125 -0.625 2.296875q0 1.21875 0.703125 2.359375q0.703125 1.140625 1.984375 1.796875q1.28125 0.65625 2.71875 0.65625q2.03125 0 4.59375 -0.96875q2.5625 -0.96875 6.5625 -3.78125l0 -7.5625zm14.59375 -10.28125l0 -2.65625q2.34375 -0.21875 4.09375 -0.765625q1.75 -0.546875 4.0 -1.828125l2.3125 0l0 5.25q3.5625 -2.8125 5.5625 -3.78125q3.0625 -1.46875 5.84375 -1.46875q1.90625 0 3.734375 0.703125q1.828125 0.703125 2.9375 1.734375q1.109375 1.03125 1.890625 2.8125q3.28125 -2.90625 6.078125 -4.078125q2.796875 -1.171875 5.671875 -1.171875q2.75 0 4.859375 1.140625q2.109375 1.140625 3.0625 2.859375q0.953125 1.71875 0.953125 5.03125l0 14.5q0 2.28125 0.09375 2.65625q0.15625 0.59375 0.671875 1.125q0.515625 0.53125 1.171875 0.75q0.65625 0.21875 2.4375 0.21875l1.0 0l0 2.625l-15.71875 0l0 -2.625q2.6875 -0.03125 3.484375 -0.390625q0.796875 -0.359375 1.1875 -1.171875q0.390625 -0.8125 0.390625 -3.1875l0 -13.78125q0 -2.625 -0.46875 -3.625q-0.46875 -1.0 -1.671875 -1.671875q-1.203125 -0.671875 -2.984375 -0.671875q-2.21875 0 -4.65625 1.1875q-3.25 1.625 -5.125 3.65625l0 14.90625q0 2.15625 0.203125 2.828125q0.203125 0.671875 0.6875 1.125q0.484375 0.453125 1.125 0.625q0.640625 0.171875 3.109375 0.171875l0 2.625l-15.40625 0l0 -2.625l0.875 0q1.84375 0 2.609375 -0.4375q0.765625 -0.4375 1.203125 -1.34375q0.3125 -0.71875 0.3125 -2.96875l0 -13.3125q0 -2.9375 -0.453125 -3.96875q-0.453125 -1.03125 -1.734375 -1.75q-1.28125 -0.71875 -3.0 -0.71875q-2.03125 0 -4.09375 1.0q-3.0625 1.46875 -5.625 3.84375l0 16.0625q0 1.4375 0.390625 2.109375q0.390625 0.671875 1.234375 1.078125q0.84375 0.40625 2.3125 0.40625l1.15625 0l0 2.625l-15.71875 0l0 -2.625l0.84375 0q2.15625 0 2.84375 -0.34375q1.0 -0.46875 1.4375 -1.5q0.25 -0.5625 0.25 -2.90625l0 -18.28125l-5.375 0zm86.96875 17.59375l2.0 1.625q-2.28125 2.71875 -4.421875 4.3125q-2.140625 1.59375 -4.046875 2.234375q-1.90625 0.640625 -4.46875 0.640625q-4.59375 0 -7.8125 -1.875q-3.6875 -2.15625 -5.65625 -5.625q-1.96875 -3.46875 -1.96875 -8.1875q0 -4.9375 1.90625 -8.4375q1.90625 -3.5 5.328125 -5.515625q3.421875 -2.015625 7.921875 -2.015625q3.34375 0 5.8125 1.046875q2.46875 1.046875 4.1875 3.15625q1.71875 2.109375 2.5 4.828125q0.4375 1.59375 0.5 4.125l-22.09375 0q-0.09375 1.53125 -0.09375 2.28125q0 3.9375 1.375 7.015625q1.375 3.078125 3.640625 4.53125q2.265625 1.453125 5.140625 1.453125q2.4375 0 4.71875 -1.140625q2.28125 -1.140625 5.53125 -4.453125zm-4.0 -12.625q-0.46875 -2.875 -1.328125 -4.25q-0.859375 -1.375 -2.4375 -2.1875q-1.578125 -0.8125 -3.546875 -0.8125q-1.96875 0 -3.6875 0.8125q-1.71875 0.8125 -2.859375 2.25q-1.140625 1.4375 -1.984375 4.1875l15.84375 0zm10.5625 -4.96875l0 -2.625q2.78125 -0.3125 4.15625 -0.75q1.375 -0.4375 3.96875 -1.875l2.25 0l0 5.9375q4.125 -3.46875 7.046875 -4.703125q2.921875 -1.234375 5.921875 -1.234375q2.5625 0 4.53125 0.859375q1.96875 0.859375 3.203125 2.328125q1.234375 1.46875 1.640625 3.34375q0.25 1.15625 0.25 3.5l0 13.75q0 2.46875 0.359375 3.171875q0.359375 0.703125 1.140625 1.015625q0.78125 0.3125 3.84375 0.3125l0 2.625l-16.09375 0l0 -2.625l0.875 0q2.25 0 3.0625 -0.40625q0.8125 -0.40625 1.171875 -1.1875q0.359375 -0.78125 0.359375 -3.1875l0 -11.5q0 -3.5625 -0.578125 -4.9375q-0.578125 -1.375 -1.96875 -2.234375q-1.390625 -0.859375 -3.515625 -0.859375q-2.53125 0 -5.40625 1.296875q-2.875 1.296875 -5.5625 3.828125l0 14.40625q0 2.4375 0.359375 3.25q0.359375 0.8125 1.171875 1.21875q0.5625 0.3125 3.0 0.3125l0.90625 0l0 2.625l-16.09375 0l0 -2.625l0.78125 0q2.3125 0 3.15625 -0.390625q0.84375 -0.390625 1.1875 -1.390625q0.1875 -0.5 0.1875 -3.4375l0 -17.8125l-5.3125 0zm50.4375 -15.125l2.21875 0l0 10.625l9.28125 0l0 3.125l-9.28125 0l0 18.84375q0 2.40625 0.421875 3.4375q0.421875 1.03125 1.4375 1.6875q1.015625 0.65625 2.265625 0.65625q2.96875 0 6.5625 -2.65625l0 3.03125q-4.09375 2.78125 -8.28125 2.78125q-2.375 0 -4.296875 -1.0625q-1.921875 -1.0625 -2.625 -2.5q-0.703125 -1.4375 -0.703125 -5.0l0 -19.21875l-5.46875 0l0 -2.625q2.625 -0.59375 4.234375 -1.84375q1.609375 -1.25 2.609375 -3.25q1.0 -2.0 1.625 -6.03125zm31.875 9.875q4.59375 0 7.953125 1.90625q3.359375 1.90625 5.296875 5.5625q1.9375 3.65625 1.9375 8.34375q0 4.6875 -1.984375 8.34375q-1.984375 3.65625 -5.40625 5.578125q-3.421875 1.921875 -8.171875 1.921875q-7.5625 0 -11.359375 -4.71875q-3.796875 -4.71875 -3.796875 -11.09375q0 -4.65625 1.96875 -8.265625q1.96875 -3.609375 5.515625 -5.59375q3.546875 -1.984375 8.046875 -1.984375zm-0.25 3.03125q-3.5625 0 -6.03125 2.8125q-3.125 3.5 -3.125 10.1875q0 6.4375 2.65625 9.8125q2.40625 3.0 6.53125 3.0q2.65625 0 4.734375 -1.40625q2.078125 -1.40625 3.359375 -4.484375q1.28125 -3.078125 1.28125 -7.234375q0 -4.0625 -1.375 -7.28125q-1.0625 -2.5625 -3.203125 -3.984375q-2.140625 -1.421875 -4.828125 -1.421875zm45.71875 0.71875l-3.03125 0.375q-0.25 -2.21875 -0.25 -3.625q0 -3.6875 2.0 -6.96875q2.0 -3.28125 5.578125 -5.125q3.578125 -1.84375 8.203125 -1.84375q4.46875 0 7.84375 1.734375q3.375 1.734375 5.171875 4.75q1.796875 3.015625 1.796875 6.890625q0 3.28125 -1.171875 6.078125q-1.171875 2.796875 -3.765625 5.640625q-1.9375 2.125 -7.84375 6.5q-7.4375 5.5625 -11.40625 8.0625l16.25 0q2.875 0 3.75 -0.53125q1.21875 -0.6875 1.65625 -3.1875l0.28125 -1.78125l2.65625 0l-2.125 11.75l-2.0 0l-0.34375 -1.5625l-27.3125 0l0 -2.625l5.0 -3.78125q5.6875 -4.21875 8.34375 -6.46875q5.03125 -4.25 7.578125 -7.265625q2.546875 -3.015625 3.5 -5.4375q0.953125 -2.421875 0.953125 -5.078125q0 -4.40625 -2.828125 -7.21875q-2.828125 -2.8125 -7.359375 -2.8125q-3.25 0 -5.796875 1.40625q-2.546875 1.40625 -4.015625 3.9375q-1.46875 2.53125 -1.46875 5.46875q0 1.09375 0.15625 2.71875zm52.375 -17.1875q4.8125 0 8.40625 2.453125q3.59375 2.453125 5.84375 7.703125q2.25 5.25 2.25 12.71875q0 11.0625 -5.53125 17.21875q-4.5 5.0 -11.375 5.0q-4.65625 0 -8.25 -2.484375q-3.59375 -2.484375 -5.8125 -7.453125q-2.21875 -4.96875 -2.21875 -12.625q0 -7.71875 2.171875 -12.59375q2.171875 -4.875 5.921875 -7.40625q3.75 -2.53125 8.59375 -2.53125zm-0.15625 3.09375q-3.25 0 -5.71875 2.375q-2.15625 2.0625 -3.40625 6.5q-1.4375 5.0625 -1.4375 11.1875q0 4.75 0.890625 8.609375q0.890625 3.859375 2.359375 6.0q1.46875 2.140625 3.328125 3.171875q1.859375 1.03125 3.921875 1.03125q3.09375 0 5.78125 -2.40625q2.15625 -1.96875 3.40625 -5.875q1.5 -4.75 1.5 -11.15625q0 -6.625 -1.53125 -11.25q-1.53125 -4.625 -3.765625 -6.40625q-2.234375 -1.78125 -5.328125 -1.78125zm41.40625 -2.34375l2.34375 0l0 36.1875q0 2.5625 0.328125 3.296875q0.328125 0.734375 1.078125 1.109375q0.75 0.375 2.96875 0.375l3.0625 0l0 2.625l-20.59375 0l0 -2.625l3.40625 0q2.21875 0 2.953125 -0.390625q0.734375 -0.390625 1.140625 -1.25q0.40625 -0.859375 0.40625 -3.140625l0 -29.75l-7.90625 0l0 -2.6875q6.46875 -0.90625 10.8125 -3.75zm25.53125 44.34375l0 -2.90625q7.75 -0.09375 12.515625 -2.234375q4.765625 -2.140625 7.0 -6.453125q2.234375 -4.3125 2.515625 -10.5625q-1.59375 2.4375 -3.265625 3.78125q-1.671875 1.34375 -3.90625 2.09375q-2.234375 0.75 -4.859375 0.75q-4.25 0 -7.578125 -1.875q-3.328125 -1.875 -5.171875 -5.0625q-1.84375 -3.1875 -1.84375 -7.5q0 -6.875 4.15625 -10.8125q4.59375 -4.3125 11.9375 -4.3125q5.28125 0 8.90625 2.1875q3.625 2.1875 5.75 6.6875q2.125 4.5 2.125 11.0625q0 6.5625 -2.21875 11.71875q-2.21875 5.15625 -6.203125 8.265625q-3.984375 3.109375 -8.765625 4.140625q-4.78125 1.03125 -8.65625 1.03125l-2.4375 0zm11.4375 -18.875q4.46875 0 7.359375 -3.390625q2.890625 -3.390625 2.890625 -8.171875q0 -3.375 -1.40625 -6.234375q-1.40625 -2.859375 -3.609375 -4.25q-2.203125 -1.390625 -5.015625 -1.390625q-4.28125 0 -7.15625 3.265625q-2.875 3.265625 -2.875 8.765625q0 5.25 2.796875 8.328125q2.796875 3.078125 7.015625 3.078125z" fill-rule="nonzero"/><path fill="#000000" d="m-0.0010044619 175.93045l0 364.06296l96.0 0l0 -364.06296z" fill-rule="evenodd"/><path stroke="#000000" stroke-width="1.0" stroke-linejoin="round" stroke-linecap="butt" d="m-0.0010044619 175.93045l0 364.06296l96.0 0l0 -364.06296z" fill-rule="evenodd"/><path fill="#000000" d="m863.999 0.0065616798l0 364.063l96.0 0l0 -364.063z" fill-rule="evenodd"/><path stroke="#000000" stroke-width="1.0" stroke-linejoin="round" stroke-linecap="butt" d="m863.999 0.0065616798l0 364.063l96.0 0l0 -364.063z" fill-rule="evenodd"/><path xmlns="http://www.w3.org/2000/svg" fill="#000000" d="m959.9995 414.33612l-150.04724 0.06298828l0 32.37796l150.04724 -0.06298828z" fill-rule="evenodd" style="animation-name:alternateLeft;animation-duration:1s;animation-iteration-count:infinite;animation-timing-function:ease-in-out;animation-delay:0.5s;"/><path xmlns="http://www.w3.org/2000/svg" stroke="#000000" stroke-width="1.0" stroke-linejoin="round" stroke-linecap="butt" d="m959.9995 414.33612l-150.04724 0.06298828l0 32.37796l150.04724 -0.06298828z" fill-rule="evenodd" style="animation-name:alternateLeft;animation-duration:1s;animation-iteration-count:infinite;animation-timing-function:ease-in-out;animation-delay:0.5s;"/><path xmlns="http://www.w3.org/2000/svg" fill="#000000" d="m959.5216 483.5977l-79.433044 0.03149414l0 32.37796l79.433044 -0.03149414z" fill-rule="evenodd" style="animation-name:alternateLeft;animation-duration:1s;animation-iteration-count:infinite;animation-timing-function:ease-in-out;"/><path xmlns="http://www.w3.org/2000/svg" stroke="#000000" stroke-width="1.0" stroke-linejoin="round" stroke-linecap="butt" d="m959.5216 483.5977l-79.433044 0.03149414l0 32.37796l79.433044 -0.03149414z" fill-rule="evenodd" style="animation-name:alternateLeft;animation-duration:1s;animation-iteration-count:infinite;animation-timing-function:ease-in-out;"/><path xmlns="http://www.w3.org/2000/svg" fill="#000000" d="m-5.028871E-4 24.005407l150.04724 0.062992096l0 32.377953l-150.04724 -0.062992096z" fill-rule="evenodd" style="animation-name:alternateRight;animation-duration:1s;animation-iteration-count:infinite;animation-timing-function:ease-in-out;"/><path xmlns="http://www.w3.org/2000/svg" stroke="#000000" stroke-width="1.0" stroke-linejoin="round" stroke-linecap="butt" d="m-5.028871E-4 24.005407l150.04724 0.062992096l0 32.377953l-150.04724 -0.062992096z" fill-rule="evenodd" style="animation-name:alternateRight;animation-duration:1s;animation-iteration-count:infinite;animation-timing-function:ease-in-out;"/><path xmlns="http://www.w3.org/2000/svg" fill="#000000" d="m0.47737455 93.26698l79.433075 0.03149414l0 32.377953l-79.433075 -0.03149414z" fill-rule="evenodd" style="animation-name:alternateRight;animation-duration:1s;animation-iteration-count:infinite;animation-timing-function:ease-in-out;animation-delay:0.5s;"/><path xmlns="http://www.w3.org/2000/svg" stroke="#000000" stroke-width="1.0" stroke-linejoin="round" stroke-linecap="butt" d="m0.47737455 93.26698l79.433075 0.03149414l0 32.377953l-79.433075 -0.03149414z" fill-rule="evenodd" style="animation-name:alternateRight;animation-duration:1s;animation-iteration-count:infinite;animation-timing-function:ease-in-out;animation-delay:0.5s;"/></g>
<style xmlns="http://www.w3.org/2000/svg">
    @keyframes alternateUp {
        50% {transform:translateY(20px);}
    }
    @keyframes alternateDown {
        50% {transform:translateY(-20px);}
    }
    @keyframes alternateLeft {
        50% {transform:translateX(20px);}
    }
    @keyframes alternateRight {
        50% {transform:translateX(-20px);}
    }
</style>
</svg>