<svg xmlns:xlink="http://www.w3.org/1999/xlink" xmlns="http://www.w3.org/2000/svg" version="1.1" viewBox="0.0 0.0 960.0 540.0" fill="none" stroke="none" stroke-linecap="square" stroke-miterlimit="10"><clipPath id="g63cf9909f2_0_20.0"><path d="m0 0l960.0 0l0 540.0l-960.0 0l0 -540.0z" clip-rule="nonzero"/></clipPath><g clip-path="url(#g63cf9909f2_0_20.0)"><path fill="#ffffff" d="m0 0l960.0 0l0 540.0l-960.0 0z" fill-rule="evenodd"/><path fill="#cccccc" d="m1027.1864 82.59594l-353.9212 639.81104l-28.409485 -15.685059l353.92126 -639.81104z" fill-rule="evenodd"/><path stroke="#cccccc" stroke-width="1.0" stroke-linejoin="round" stroke-linecap="butt" d="m1027.1864 82.59594l-353.9212 639.81104l-28.409485 -15.685059l353.92126 -639.81104z" fill-rule="evenodd"/><path fill="#cccccc" d="m1079.9712 120.66681l-353.92126 639.81104l-28.409424 -15.685059l353.92126 -639.81104z" fill-rule="evenodd"/><path stroke="#cccccc" stroke-width="1.0" stroke-linejoin="round" stroke-linecap="butt" d="m1079.9712 120.66681l-353.92126 639.81104l-28.409424 -15.685059l353.92126 -639.81104z" fill-rule="evenodd"/><path fill="#000000" fill-opacity="0.0" d="m0 0l288.37796 0l0 117.07087l-288.37796 0z" fill-rule="evenodd"/><path fill="#000000" d="m85.45851 32.835426l21.140625 0l0 3.328125l-1.953125 0q-2.265625 0 -3.203125 0.4375q-0.9375 0.421875 -1.375 1.25q-0.421875 0.8125 -0.421875 2.921875l0 38.0q0 2.625 0.1875 3.125q0.234375 0.703125 1.015625 1.015625q0.546875 0.234375 3.171875 0.234375l2.921875 0q5.046875 0 8.75 -1.453125q3.71875 -1.46875 6.40625 -4.265625q2.703125 -2.796875 5.203125 -8.34375l3.46875 1.171875l-6.09375 17.078125l-39.21875 0l0 -3.28125l1.71875 0q2.5 0 3.359375 -0.421875q0.859375 -0.4375 1.328125 -1.4375q0.46875 -1.0 0.46875 -3.421875l0 -37.0625q0 -2.8125 -0.4375 -3.765625q-0.421875 -0.96875 -1.25 -1.375q-0.8125 -0.40625 -3.46875 -0.40625l-1.71875 0l0 -3.328125zm49.226562 -1.828125l2.734375 0l0.390625 1.828125l33.4375 0l0.3125 -1.828125l2.84375 0l5.75 16.015625l-3.515625 1.25q-2.546875 -6.40625 -6.03125 -9.0q-3.46875 -2.609375 -8.890625 -2.609375q-2.265625 0 -2.703125 0.1875q-0.421875 0.171875 -0.609375 0.609375q-0.171875 0.421875 -0.171875 2.71875l0 37.8125q0 2.703125 0.296875 3.640625q0.296875 0.9375 0.84375 1.453125q0.546875 0.5 1.5 0.71875q0.953125 0.203125 4.28125 0.25l0 3.28125l-21.015625 0l0 -3.28125q3.46875 -0.046875 4.25 -0.234375q1.375 -0.390625 1.953125 -1.484375q0.59375 -1.09375 0.59375 -4.03125l0 -38.625q0 -1.796875 -0.1875 -2.1875q-0.171875 -0.390625 -0.65625 -0.609375q-0.484375 -0.21875 -2.015625 -0.21875q-4.25 0 -6.8125 1.09375q-2.5625 1.09375 -4.828125 3.71875q-2.265625 2.609375 -3.859375 6.796875l-3.53125 -1.25l5.640625 -16.015625zm47.890625 1.828125l20.859375 0l0 3.328125l-1.609375 0q-2.265625 0 -3.28125 0.625q-1.015625 0.625 -1.484375 1.78125q-0.46875 1.140625 -0.46875 4.46875l0 35.109375q0 2.65625 0.5 3.78125q0.515625 1.109375 1.4375 1.625q0.921875 0.5 3.296875 0.5l1.609375 0l0 3.28125l-20.859375 0l0 -3.28125l1.71875 0q2.296875 0 3.25 -0.53125q0.96875 -0.53125 1.390625 -1.515625q0.4375 -1.0 0.4375 -3.859375l0 -35.9375q0 -3.0 -0.4375 -4.03125q-0.421875 -1.046875 -1.390625 -1.53125q-0.953125 -0.484375 -3.25 -0.484375l-1.71875 0l0 -3.328125z" fill-rule="nonzero"/><path fill="#000000" d="m0 117.07087l480.0 0l0 38.92913l-480.0 0z" fill-rule="evenodd"/><path stroke="#000000" stroke-width="1.0" stroke-linejoin="round" stroke-linecap="butt" d="m0 117.07087l480.0 0l0 38.92913l-480.0 0z" fill-rule="evenodd"/><path fill="#000000" d="m288.39108 0l671.3071 0l0 38.929134l-671.3071 0z" fill-rule="evenodd"/><path stroke="#000000" stroke-width="1.0" stroke-linejoin="round" stroke-linecap="butt" d="m288.39108 0l671.3071 0l0 38.929134l-671.3071 0z" fill-rule="evenodd"/><path fill="#000000" fill-opacity="0.0" d="m479.68503 38.929134l480.00003 0l0 223.811l-480.00003 0z" fill-rule="evenodd"/><path fill="#000000" d="m557.73193 113.98464l10.671875 0l-0.359375 1.65625l-0.84375 0q-1.375 0 -1.921875 0.234375q-0.53125 0.234375 -0.890625 0.828125q-0.359375 0.578125 -0.734375 2.25l-4.203125 18.609383q-0.171875 0.734375 -0.171875 0.875q0 0.375 0.265625 0.5625q0.28125 0.1875 1.15625 0.1875l1.65625 0q2.71875 0 4.671875 -0.734375q1.96875 -0.734375 3.40625 -2.09375q1.453125 -1.375 3.140625 -4.40625l1.703125 0.75l-4.171875 8.53125l-19.53125 0l0.359375 -1.640625l0.84375 0q1.328125 0 1.796875 -0.21875q0.59375 -0.296875 0.96875 -0.84375q0.390625 -0.5625 0.71875 -1.96875l4.03125 -17.843758q0.21875 -0.9375 0.21875 -1.625q0 -0.515625 -0.234375 -0.828125q-0.21875 -0.328125 -0.640625 -0.46875q-0.40625 -0.15625 -1.5 -0.15625l-0.78125 0l0.375 -1.65625zm35.921875 22.093758l1.09375 1.234375q-2.46875 2.1875 -5.125 3.296875q-2.65625 1.09375 -5.1875 1.09375q-3.421875 0 -5.515625 -2.09375q-2.078125 -2.109375 -2.078125 -5.578125q0 -3.109375 1.71875 -5.90625q1.734375 -2.8125076 4.828125 -4.5000076q3.09375 -1.703125 6.625 -1.703125q2.8125 0 4.390625 1.296875q1.59375 1.28125 1.59375 3.03125q0 1.03125 -0.703125 2.1875076q-0.6875 1.140625 -2.328125 2.125q-1.640625 0.96875 -4.75 1.609375q-3.09375 0.640625 -7.625 0.875q-0.109375 0.765625 -0.109375 1.15625q0 1.546875 0.65625 2.765625q0.65625 1.203125 1.859375 1.921875q1.203125 0.703125 2.515625 0.703125q1.65625 0 3.875 -0.890625q2.21875 -0.90625 4.265625 -2.625zm-12.828125 -4.578125q4.421875 -0.484375 6.421875 -0.953125q3.203125 -0.765625 4.375 -1.84375q1.171875 -1.0781326 1.171875 -2.3750076q0 -1.09375 -0.875 -1.828125q-0.859375 -0.75 -2.46875 -0.75q-1.671875 0 -3.546875 1.0q-1.875 1.0 -3.1875 2.71875q-1.3125 1.7187576 -1.890625 4.0312576zm35.757812 -9.109383l2.421875 0l-3.296875 14.609383q-0.1875 0.75 -0.1875 1.296875q0 0.65625 0.34375 1.03125q0.359375 0.359375 0.890625 0.359375q0.640625 0 1.296875 -0.421875q0.96875 -0.625 2.234375 -2.09375l1.234375 1.09375q-1.890625 1.96875 -2.65625 2.421875q-1.4375 0.875 -3.03125 0.875q-1.0625 0 -1.828125 -0.390625q-0.75 -0.390625 -1.1875 -1.140625q-0.4375 -0.765625 -0.4375 -1.59375q0 -0.625 0.390625 -2.375q-1.546875 2.203125 -2.921875 3.375q-1.359375 1.171875 -2.78125 1.71875q-1.421875 0.546875 -2.890625 0.546875q-2.5625 0 -4.09375 -1.765625q-1.75 -1.953125 -1.75 -5.09375q0 -3.4375 1.625 -6.515625q1.640625 -3.0781326 4.28125 -4.7343826q2.65625 -1.671875 5.484375 -1.671875q1.8125 0 3.3125 0.625q1.5 0.625 2.671875 1.890625l0.875 -2.046875zm-1.546875 3.625q-1.015625 -1.0 -2.3125 -1.546875q-1.296875 -0.546875 -2.53125 -0.546875q-1.9375 0 -3.78125 1.328125q-1.84375 1.3125 -3.1875 4.2343826q-1.328125 2.90625 -1.328125 5.875q0 1.328125 0.421875 2.296875q0.4375 0.953125 1.171875 1.453125q0.75 0.484375 1.609375 0.484375q1.59375 0 3.375 -1.296875q2.25 -1.59375 4.015625 -4.84375q1.78125 -3.25 2.546875 -7.4375076zm16.335938 -4.09375l-1.4375 6.1250076q1.140625 -2.1093826 2.46875 -3.4843826q1.34375 -1.390625 2.75 -2.125q1.015625 -0.515625 2.046875 -0.515625q1.046875 0 1.6875 0.59375q0.65625 0.59375 0.65625 1.453125q0 0.734375 -0.53125 1.3125q-0.53125 0.578125 -1.140625 0.578125q-0.40625 0 -1.15625 -0.265625q-0.765625 -0.296875 -1.203125 -0.296875q-1.640625 0 -3.46875 2.421875q-2.46875 3.2812576 -4.03125 10.000008l-0.828125 3.515625l-3.203125 0l3.609375 -16.078133l-3.609375 0l0.390625 -1.59375q1.8125 -0.234375 3.046875 -0.59375q1.234375 -0.375 2.515625 -1.046875l1.4375 0zm15.886719 0l-1.375 6.1250076q0.953125 -1.5937576 1.84375 -2.5312576q1.703125 -1.828125 3.484375 -2.703125q1.78125 -0.890625 3.4375 -0.890625q1.3125 0 2.28125 0.5q0.984375 0.484375 1.5625 1.40625q0.59375 0.921875 0.59375 1.859375q0 0.796875 -0.421875 2.5312576l-1.84375 8.328125q-0.28125 1.1875 -0.28125 1.703125q0 0.578125 0.359375 0.953125q0.359375 0.375 0.890625 0.375q1.375 0 3.515625 -2.609375l1.234375 1.15625q-1.71875 2.0 -3.0 2.71875q-1.28125 0.71875 -2.671875 0.71875q-1.046875 0 -1.828125 -0.40625q-0.765625 -0.40625 -1.21875 -1.171875q-0.4375 -0.78125 -0.4375 -1.640625q0 -0.765625 0.265625 -1.96875l1.921875 -8.656258q0.25 -1.109375 0.25 -1.71875q0 -0.859375 -0.5625 -1.359375q-0.546875 -0.5 -1.46875 -0.5q-1.0625 0 -2.21875 0.578125q-1.15625 0.5625 -2.46875 1.875q-1.3125 1.296875 -2.40625 3.2343826q-1.078125 1.9375 -1.96875 4.609375q-0.4375 1.234375 -0.953125 3.6875l-0.671875 3.109375l-3.21875 0l3.609375 -16.093758l-3.609375 0l0.390625 -1.609375q1.875 -0.265625 2.921875 -0.578125q1.0625 -0.3125 2.6875 -1.03125l1.375 0zm24.539062 -9.34375q0.84375 0 1.390625 0.5625q0.5625 0.546875 0.5625 1.453125q0 1.015625 -0.71875 1.75q-0.703125 0.734375 -1.640625 0.734375q-0.859375 0 -1.46875 -0.59375q-0.609375 -0.609375 -0.609375 -1.4375q0 -1.0 0.734375 -1.734375q0.75 -0.734375 1.75 -0.734375zm0.1875 9.34375l-3.78125 14.968758q-0.234375 0.921875 -0.234375 1.453125q0 0.625 0.328125 0.984375q0.328125 0.359375 0.875 0.359375q0.65625 0 1.234375 -0.390625q0.921875 -0.578125 2.328125 -2.125l1.25 1.09375q-1.1875 1.5625 -2.75 2.4375q-1.546875 0.859375 -2.9375 0.859375q-1.5 0 -2.5 -0.921875q-1.0 -0.9375 -1.0 -2.15625q0 -0.859375 0.34375 -2.171875l2.8125 -11.218758l-3.578125 0l0.34375 -1.609375q1.484375 -0.078125 2.71875 -0.40625q1.25 -0.34375 3.03125 -1.15625l1.515625 0zm11.269531 0l-1.375 6.1250076q0.953125 -1.5937576 1.84375 -2.5312576q1.703125 -1.828125 3.484375 -2.703125q1.78125 -0.890625 3.4375 -0.890625q1.3125 0 2.28125 0.5q0.984375 0.484375 1.5625 1.40625q0.59375 0.921875 0.59375 1.859375q0 0.796875 -0.421875 2.5312576l-1.84375 8.328125q-0.28125 1.1875 -0.28125 1.703125q0 0.578125 0.359375 0.953125q0.359375 0.375 0.890625 0.375q1.375 0 3.515625 -2.609375l1.234375 1.15625q-1.71875 2.0 -3.0 2.71875q-1.28125 0.71875 -2.671875 0.71875q-1.046875 0 -1.828125 -0.40625q-0.765625 -0.40625 -1.21875 -1.171875q-0.4375 -0.78125 -0.4375 -1.640625q0 -0.765625 0.265625 -1.96875l1.921875 -8.656258q0.25 -1.109375 0.25 -1.71875q0 -0.859375 -0.5625 -1.359375q-0.546875 -0.5 -1.46875 -0.5q-1.0625 0 -2.21875 0.578125q-1.15625 0.5625 -2.46875 1.875q-1.3125 1.296875 -2.40625 3.2343826q-1.078125 1.9375 -1.96875 4.609375q-0.4375 1.234375 -0.953125 3.6875l-0.671875 3.109375l-3.21875 0l3.609375 -16.093758l-3.609375 0l0.390625 -1.609375q1.875 -0.265625 2.921875 -0.578125q1.0625 -0.3125 2.6875 -1.03125l1.375 0zm37.148438 0.46875l-3.9375 18.062508q-0.765625 3.59375 -2.265625 5.625q-1.484375 2.046875 -3.84375 3.203125q-2.34375 1.171875 -5.296875 1.171875q-3.140625 0 -5.0 -1.265625q-1.859375 -1.265625 -1.859375 -2.625q0 -0.703125 0.46875 -1.21875q0.46875 -0.5 1.078125 -0.5q0.390625 0 0.75 0.15625q0.359375 0.15625 0.765625 0.53125q0.296875 0.28125 0.96875 1.171875q0.640625 0.90625 0.9375 1.109375q0.484375 0.375 1.140625 0.578125q0.671875 0.203125 1.4375 0.203125q1.65625 0 3.1875 -0.90625q1.53125 -0.90625 2.609375 -2.671875q1.09375 -1.75 1.8125 -5.078125l0.859375 -3.953125q-0.875 1.484375 -1.734375 2.375q-1.625 1.65625 -3.421875 2.5q-1.796875 0.84375 -3.453125 0.84375q-2.546875 0 -4.0625 -1.734375q-1.765625 -2.0 -1.765625 -5.109375q0 -3.359375 1.640625 -6.484375q1.640625 -3.1406326 4.25 -4.7968826q2.625 -1.65625 5.46875 -1.65625q1.203125 0 2.375 0.328125q1.1875 0.3125 2.125 0.890625q0.734375 0.4375 1.4375 1.3125l0.9375 -2.0625l2.390625 0zm-3.9375 3.59375q-1.140625 -1.0625 -2.3125 -1.578125q-1.171875 -0.515625 -2.375 -0.515625q-1.921875 0 -3.84375 1.375q-1.921875 1.375 -3.265625 4.2500076q-1.34375 2.875 -1.34375 5.875q0 1.953125 0.90625 3.078125q0.90625 1.109375 2.171875 1.109375q1.640625 0 3.21875 -1.125q2.390625 -1.71875 4.078125 -4.65625q1.6875 -2.953125 2.765625 -7.8125076zm42.30078 -12.859375l1.015625 8.09375l-1.875 0.359375q-0.390625 -2.265625 -1.1875 -3.5q-0.796875 -1.234375 -1.921875 -1.78125q-1.125 -0.546875 -3.453125 -0.546875q-0.640625 0 -0.875 0.1875q-0.21875 0.171875 -0.375 0.875l-4.53125 20.031258q-0.15625 0.75 -0.15625 1.25q0 0.5 0.28125 0.890625q0.28125 0.375 0.78125 0.5q0.5 0.109375 2.125 0.109375l-0.359375 1.640625l-10.75 0l0.390625 -1.640625q1.375 -0.015625 2.03125 -0.109375q0.671875 -0.109375 1.03125 -0.375q0.375 -0.265625 0.609375 -0.75q0.390625 -0.8125 0.484375 -1.265625l4.484375 -19.968758q0.140625 -0.59375 0.140625 -0.890625q0 -0.25 -0.203125 -0.359375q-0.203125 -0.125 -0.90625 -0.125q-1.953125 0 -3.328125 0.609375q-1.375 0.609375 -2.84375 2.15625q-0.9375 0.984375 -2.46875 3.328125l-1.59375 -0.921875l4.203125 -7.796875l1.34375 0l0 0.859375l16.109375 0l0.359375 -0.859375l1.4375 0zm9.613281 -0.546875l-3.40625 15.328125q1.375 -2.125 2.859375 -3.4375q1.5 -1.328125 2.984375 -1.9375q1.5 -0.609375 2.96875 -0.609375q1.875 0 3.125 1.125q1.25 1.109375 1.25 2.546875q0 0.875 -0.265625 2.0625l-2.0625 8.906258q-0.234375 1.0625 -0.234375 1.65625q0 0.65625 0.34375 1.046875q0.359375 0.390625 0.890625 0.390625q0.6875 0 1.390625 -0.46875q1.109375 -0.765625 2.09375 -2.078125l1.25 1.078125q-2.609375 3.375 -5.734375 3.375q-1.453125 0 -2.421875 -0.90625q-0.96875 -0.90625 -0.96875 -2.125q0 -0.8125 0.25 -1.96875l2.078125 -9.218758q0.171875 -0.84375 0.171875 -1.46875q0 -0.75 -0.59375 -1.265625q-0.578125 -0.53125 -1.4375 -0.53125q-1.296875 0 -2.625 0.78125q-1.90625 1.15625 -3.5625 3.3906326q-1.640625 2.234375 -2.578125 4.859375q-0.9375 2.609375 -1.40625 4.75l-0.75 3.375l-3.15625 0l5.671875 -25.375008l-3.625 0l0.375 -1.640625q2.984375 -0.3125 5.65625 -1.640625l1.46875 0zm22.992188 9.34375l-1.4375 6.1250076q1.140625 -2.1093826 2.46875 -3.4843826q1.34375 -1.390625 2.75 -2.125q1.015625 -0.515625 2.046875 -0.515625q1.046875 0 1.6875 0.59375q0.65625 0.59375 0.65625 1.453125q0 0.734375 -0.53125 1.3125q-0.53125 0.578125 -1.140625 0.578125q-0.40625 0 -1.15625 -0.265625q-0.765625 -0.296875 -1.203125 -0.296875q-1.640625 0 -3.46875 2.421875q-2.46875 3.2812576 -4.03125 10.000008l-0.828125 3.515625l-3.203125 0l3.609375 -16.078133l-3.609375 0l0.390625 -1.59375q1.8125 -0.234375 3.046875 -0.59375q1.234375 -0.375 2.515625 -1.046875l1.4375 0zm19.011719 0q3.328125 0 5.46875 2.15625q2.15625 2.15625 2.15625 5.4531326q0 3.328125 -1.53125 6.25q-1.53125 2.90625 -4.015625 4.421875q-2.46875 1.5 -5.453125 1.5q-2.5 0 -4.15625 -0.921875q-1.640625 -0.921875 -2.6875 -2.796875q-1.046875 -1.875 -1.046875 -4.078125q0 -3.140625 1.59375 -6.0312576q1.59375 -2.90625 4.125 -4.421875q2.546875 -1.53125 5.546875 -1.53125zm-0.171875 1.890625q-1.875 0 -3.515625 1.1875q-1.640625 1.171875 -2.8125 3.7968826q-1.171875 2.609375 -1.171875 5.515625q0 2.375 1.125 3.984375q1.125 1.59375 3.25 1.59375q1.78125 0 3.375 -1.1875q1.59375 -1.1875 2.78125 -3.875q1.1875 -2.703125 1.1875 -5.453125q0 -1.6718826 -0.578125 -2.9843826q-0.578125 -1.328125 -1.53125 -1.953125q-0.953125 -0.625 -2.109375 -0.625zm27.835938 -1.421875l3.203125 0l-3.203125 14.140633q-0.21875 0.953125 -0.21875 1.875q0 0.578125 0.34375 0.921875q0.34375 0.34375 0.84375 0.34375q0.59375 0 1.28125 -0.453125q1.203125 -0.796875 2.265625 -2.09375l1.25 1.078125q-1.5625 1.859375 -2.90625 2.609375q-1.34375 0.75 -2.75 0.75q-1.578125 0 -2.53125 -0.875q-0.953125 -0.875 -0.953125 -2.171875q0 -0.8125 0.34375 -2.5625q-0.875 1.46875 -1.71875 2.34375q-1.625 1.703125 -3.421875 2.5625q-1.796875 0.84375 -3.40625 0.84375q-1.3125 0 -2.28125 -0.46875q-0.96875 -0.46875 -1.515625 -1.34375q-0.546875 -0.890625 -0.546875 -1.796875q0 -0.921875 0.375 -2.625l2.265625 -10.265633l-3.59375 0l0.375 -1.671875q1.484375 -0.125 2.65625 -0.453125q1.1875 -0.34375 3.015625 -1.15625l1.453125 0l-3.1875 14.312508q-0.1875 0.9375 -0.1875 1.34375q0 0.921875 0.515625 1.484375q0.53125 0.546875 1.359375 0.546875q1.796875 0 3.703125 -1.5q2.4375 -1.921875 3.9375 -4.9375q1.5 -3.015625 2.21875 -6.2500076l1.015625 -4.53125zm27.960938 0l-3.9375 18.062508q-0.765625 3.59375 -2.265625 5.625q-1.484375 2.046875 -3.84375 3.203125q-2.34375 1.171875 -5.296875 1.171875q-3.140625 0 -5.0 -1.265625q-1.859375 -1.265625 -1.859375 -2.625q0 -0.703125 0.46875 -1.21875q0.46875 -0.5 1.078125 -0.5q0.390625 0 0.75 0.15625q0.359375 0.15625 0.765625 0.53125q0.296875 0.28125 0.96875 1.171875q0.640625 0.90625 0.9375 1.109375q0.484375 0.375 1.140625 0.578125q0.671875 0.203125 1.4375 0.203125q1.65625 0 3.1875 -0.90625q1.53125 -0.90625 2.609375 -2.671875q1.09375 -1.75 1.8125 -5.078125l0.859375 -3.953125q-0.875 1.484375 -1.734375 2.375q-1.625 1.65625 -3.421875 2.5q-1.796875 0.84375 -3.453125 0.84375q-2.546875 0 -4.0625 -1.734375q-1.765625 -2.0 -1.765625 -5.109375q0 -3.359375 1.640625 -6.484375q1.640625 -3.1406326 4.25 -4.7968826q2.625 -1.65625 5.46875 -1.65625q1.203125 0 2.375 0.328125q1.1875 0.3125 2.125 0.890625q0.734375 0.4375 1.4375 1.3125l0.9375 -2.0625l2.390625 0zm-3.9375 3.59375q-1.140625 -1.0625 -2.3125 -1.578125q-1.171875 -0.515625 -2.375 -0.515625q-1.921875 0 -3.84375 1.375q-1.921875 1.375 -3.265625 4.2500076q-1.34375 2.875 -1.34375 5.875q0 1.953125 0.90625 3.078125q0.90625 1.109375 2.171875 1.109375q1.640625 0 3.21875 -1.125q2.390625 -1.71875 4.078125 -4.65625q1.6875 -2.953125 2.765625 -7.8125076zm15.917969 -13.40625l-3.40625 15.328125q1.375 -2.125 2.859375 -3.4375q1.5 -1.328125 2.984375 -1.9375q1.5 -0.609375 2.96875 -0.609375q1.875 0 3.125 1.125q1.25 1.109375 1.25 2.546875q0 0.875 -0.265625 2.0625l-2.0625 8.906258q-0.234375 1.0625 -0.234375 1.65625q0 0.65625 0.34375 1.046875q0.359375 0.390625 0.890625 0.390625q0.6875 0 1.390625 -0.46875q1.109375 -0.765625 2.09375 -2.078125l1.25 1.078125q-2.609375 3.375 -5.734375 3.375q-1.453125 0 -2.421875 -0.90625q-0.96875 -0.90625 -0.96875 -2.125q0 -0.8125 0.25 -1.96875l2.078125 -9.218758q0.171875 -0.84375 0.171875 -1.46875q0 -0.75 -0.59375 -1.265625q-0.578125 -0.53125 -1.4375 -0.53125q-1.296875 0 -2.625 0.78125q-1.90625 1.15625 -3.5625 3.3906326q-1.640625 2.234375 -2.578125 4.859375q-0.9375 2.609375 -1.40625 4.75l-0.75 3.375l-3.15625 0l5.671875 -25.375008l-3.625 0l0.375 -1.640625q2.984375 -0.3125 5.65625 -1.640625l1.46875 0z" fill-rule="nonzero"/><path fill="#000000" d="m618.4585 161.98465l10.765625 0l-0.375 1.65625l-0.625 0q-1.46875 0 -2.0625 0.25q-0.578125 0.25 -0.9375 0.78125q-0.359375 0.53125 -0.71875 2.046875l-4.015625 17.703125q-0.28125 1.25 -0.28125 1.703125q0 0.75 0.625 1.171875q0.4375 0.296875 1.6875 0.296875l0.921875 0l-0.421875 1.640625l-10.734375 0l0.375 -1.640625l0.78125 0q1.296875 0 1.890625 -0.265625q0.609375 -0.265625 0.9375 -0.765625q0.34375 -0.5 0.6875 -1.90625l4.109375 -18.140625q0.21875 -0.9375 0.21875 -1.359375q0 -0.53125 -0.234375 -0.875q-0.234375 -0.34375 -0.671875 -0.484375q-0.421875 -0.15625 -1.578125 -0.15625l-0.671875 0l0.328125 -1.65625zm17.199219 7.9375l-1.375 6.125q0.953125 -1.59375 1.84375 -2.53125q1.703125 -1.828125 3.484375 -2.703125q1.78125 -0.890625 3.4375 -0.890625q1.3125 0 2.28125 0.5q0.984375 0.484375 1.5625 1.40625q0.59375 0.921875 0.59375 1.859375q0 0.796875 -0.421875 2.53125l-1.84375 8.328125q-0.28125 1.1875 -0.28125 1.703125q0 0.578125 0.359375 0.953125q0.359375 0.375 0.890625 0.375q1.375 0 3.515625 -2.609375l1.234375 1.15625q-1.71875 2.0 -3.0 2.71875q-1.28125 0.71875 -2.671875 0.71875q-1.046875 0 -1.828125 -0.40625q-0.765625 -0.40625 -1.21875 -1.171875q-0.4375 -0.78125 -0.4375 -1.640625q0 -0.765625 0.265625 -1.96875l1.921875 -8.65625q0.25 -1.109375 0.25 -1.71875q0 -0.859375 -0.5625 -1.359375q-0.546875 -0.5 -1.46875 -0.5q-1.0625 0 -2.21875 0.578125q-1.15625 0.5625 -2.46875 1.875q-1.3125 1.296875 -2.40625 3.234375q-1.078125 1.9375 -1.96875 4.609375q-0.4375 1.234375 -0.953125 3.6875l-0.671875 3.109375l-3.21875 0l3.609375 -16.09375l-3.609375 0l0.390625 -1.609375q1.875 -0.265625 2.921875 -0.578125q1.0625 -0.3125 2.6875 -1.03125l1.375 0zm25.867188 -6.140625l-1.46875 6.609375l5.171875 0l-0.4375 1.984375l-5.1875 0l-2.59375 11.484375q-0.265625 1.265625 -0.265625 1.953125q0 0.828125 0.453125 1.3125q0.453125 0.46875 1.1875 0.46875q0.515625 0 1.046875 -0.203125q0.703125 -0.265625 1.40625 -0.8125q0.375 -0.296875 1.8125 -1.796875l1.3125 1.09375q-1.890625 2.21875 -3.34375 3.03125q-1.453125 0.796875 -3.0 0.796875q-1.765625 0 -2.90625 -1.046875q-1.140625 -1.046875 -1.140625 -2.46875q0 -0.921875 0.25 -2.015625l2.65625 -11.796875l-3.5625 0l0.34375 -1.5q1.734375 -0.453125 2.8125 -1.1875q1.09375 -0.75 2.078125 -2.140625q0.984375 -1.40625 1.90625 -3.765625l1.46875 0zm21.328125 20.296875l1.09375 1.234375q-2.46875 2.1875 -5.125 3.296875q-2.65625 1.09375 -5.1875 1.09375q-3.421875 0 -5.515625 -2.09375q-2.078125 -2.109375 -2.078125 -5.578125q0 -3.109375 1.71875 -5.90625q1.734375 -2.8125 4.828125 -4.5q3.09375 -1.703125 6.625 -1.703125q2.8125 0 4.390625 1.296875q1.59375 1.28125 1.59375 3.03125q0 1.03125 -0.703125 2.1875q-0.6875 1.140625 -2.328125 2.125q-1.640625 0.96875 -4.75 1.609375q-3.09375 0.640625 -7.625 0.875q-0.109375 0.765625 -0.109375 1.15625q0 1.546875 0.65625 2.765625q0.65625 1.203125 1.859375 1.921875q1.203125 0.703125 2.515625 0.703125q1.65625 0 3.875 -0.890625q2.21875 -0.90625 4.265625 -2.625zm-12.828125 -4.578125q4.421875 -0.484375 6.421875 -0.953125q3.203125 -0.765625 4.375 -1.84375q1.171875 -1.078125 1.171875 -2.375q0 -1.09375 -0.875 -1.828125q-0.859375 -0.75 -2.46875 -0.75q-1.671875 0 -3.546875 1.0q-1.875 1.0 -3.1875 2.71875q-1.3125 1.71875 -1.890625 4.03125zm25.742188 -9.578125l-1.4375 6.125q1.140625 -2.109375 2.46875 -3.484375q1.34375 -1.390625 2.75 -2.125q1.015625 -0.515625 2.046875 -0.515625q1.046875 0 1.6875 0.59375q0.65625 0.59375 0.65625 1.453125q0 0.734375 -0.53125 1.3125q-0.53125 0.578125 -1.140625 0.578125q-0.40625 0 -1.15625 -0.265625q-0.765625 -0.296875 -1.203125 -0.296875q-1.640625 0 -3.46875 2.421875q-2.46875 3.28125 -4.03125 10.0l-0.828125 3.515625l-3.203125 0l3.609375 -16.078125l-3.609375 0l0.390625 -1.59375q1.8125 -0.234375 3.046875 -0.59375q1.234375 -0.375 2.515625 -1.046875l1.4375 0zm15.886719 0l-1.375 6.125q0.953125 -1.59375 1.84375 -2.53125q1.703125 -1.828125 3.484375 -2.703125q1.78125 -0.890625 3.4375 -0.890625q1.3125 0 2.28125 0.5q0.984375 0.484375 1.5625 1.40625q0.59375 0.921875 0.59375 1.859375q0 0.796875 -0.421875 2.53125l-1.84375 8.328125q-0.28125 1.1875 -0.28125 1.703125q0 0.578125 0.359375 0.953125q0.359375 0.375 0.890625 0.375q1.375 0 3.515625 -2.609375l1.234375 1.15625q-1.71875 2.0 -3.0 2.71875q-1.28125 0.71875 -2.671875 0.71875q-1.046875 0 -1.828125 -0.40625q-0.765625 -0.40625 -1.21875 -1.171875q-0.4375 -0.78125 -0.4375 -1.640625q0 -0.765625 0.265625 -1.96875l1.921875 -8.65625q0.25 -1.109375 0.25 -1.71875q0 -0.859375 -0.5625 -1.359375q-0.546875 -0.5 -1.46875 -0.5q-1.0625 0 -2.21875 0.578125q-1.15625 0.5625 -2.46875 1.875q-1.3125 1.296875 -2.40625 3.234375q-1.078125 1.9375 -1.96875 4.609375q-0.4375 1.234375 -0.953125 3.6875l-0.671875 3.109375l-3.21875 0l3.609375 -16.09375l-3.609375 0l0.390625 -1.609375q1.875 -0.265625 2.921875 -0.578125q1.0625 -0.3125 2.6875 -1.03125l1.375 0zm25.554688 7.515625l3.453125 1.1875q0.546875 0.203125 1.90625 0.859375q1.375 0.640625 1.9375 1.15625q0.734375 0.640625 1.140625 1.546875q0.421875 0.890625 0.421875 1.8125q0 1.421875 -0.96875 2.78125q-0.953125 1.34375 -2.828125 2.140625q-1.859375 0.78125 -4.59375 0.78125q-2.96875 0 -5.34375 -0.859375q-2.359375 -0.875 -3.4375 -2.09375q-1.0625 -1.234375 -1.0625 -2.21875q0 -0.671875 0.453125 -1.109375q0.46875 -0.453125 1.171875 -0.453125q0.421875 0 0.78125 0.15625q0.359375 0.15625 0.734375 0.546875q0.25 0.265625 0.828125 1.25q0.5 0.859375 0.65625 1.03125q0.453125 0.53125 1.203125 1.015625q0.765625 0.484375 1.71875 0.734375q0.953125 0.234375 2.21875 0.234375q1.828125 0 3.046875 -0.453125q1.234375 -0.453125 1.828125 -1.21875q0.59375 -0.765625 0.59375 -1.546875q0 -1.09375 -1.09375 -1.96875q-1.09375 -0.859375 -3.1875 -1.484375q-0.171875 -0.0625 -0.375 -0.140625l-2.734375 -0.953125q-2.5 -0.875 -3.59375 -2.171875q-1.109375 -1.265625 -1.109375 -2.796875q0 -1.328125 0.890625 -2.578125q0.90625 -1.25 2.65625 -1.96875q1.75 -0.734375 4.328125 -0.734375q3.9375 0 6.484375 1.578125q1.890625 1.1875 1.890625 2.6875q0 0.671875 -0.453125 1.140625q-0.4375 0.46875 -1.109375 0.46875q-0.625 0 -1.1875 -0.453125q-0.390625 -0.3125 -1.15625 -1.390625q-0.78125 -1.109375 -1.90625 -1.65625q-1.125 -0.546875 -2.765625 -0.546875q-2.21875 0 -3.4375 0.859375q-1.21875 0.859375 -1.21875 1.9375q0 0.859375 0.65625 1.5625q0.671875 0.6875 2.5625 1.328125zm22.773438 -16.859375l-3.40625 15.328125q1.375 -2.125 2.859375 -3.4375q1.5 -1.328125 2.984375 -1.9375q1.5 -0.609375 2.96875 -0.609375q1.875 0 3.125 1.125q1.25 1.109375 1.25 2.546875q0 0.875 -0.265625 2.0625l-2.0625 8.90625q-0.234375 1.0625 -0.234375 1.65625q0 0.65625 0.34375 1.046875q0.359375 0.390625 0.890625 0.390625q0.6875 0 1.390625 -0.46875q1.109375 -0.765625 2.09375 -2.078125l1.25 1.078125q-2.609375 3.375 -5.734375 3.375q-1.453125 0 -2.421875 -0.90625q-0.96875 -0.90625 -0.96875 -2.125q0 -0.8125 0.25 -1.96875l2.078125 -9.21875q0.171875 -0.84375 0.171875 -1.46875q0 -0.75 -0.59375 -1.265625q-0.578125 -0.53125 -1.4375 -0.53125q-1.296875 0 -2.625 0.78125q-1.90625 1.15625 -3.5625 3.390625q-1.640625 2.234375 -2.578125 4.859375q-0.9375 2.609375 -1.40625 4.75l-0.75 3.375l-3.15625 0l5.671875 -25.375l-3.625 0l0.375 -1.640625q2.984375 -0.3125 5.65625 -1.640625l1.46875 0zm22.617188 0q0.84375 0 1.390625 0.5625q0.5625 0.546875 0.5625 1.453125q0 1.015625 -0.71875 1.75q-0.703125 0.734375 -1.640625 0.734375q-0.859375 0 -1.46875 -0.59375q-0.609375 -0.609375 -0.609375 -1.4375q0 -1.0 0.734375 -1.734375q0.75 -0.734375 1.75 -0.734375zm0.1875 9.34375l-3.78125 14.96875q-0.234375 0.921875 -0.234375 1.453125q0 0.625 0.328125 0.984375q0.328125 0.359375 0.875 0.359375q0.65625 0 1.234375 -0.390625q0.921875 -0.578125 2.328125 -2.125l1.25 1.09375q-1.1875 1.5625 -2.75 2.4375q-1.546875 0.859375 -2.9375 0.859375q-1.5 0 -2.5 -0.921875q-1.0 -0.9375 -1.0 -2.15625q0 -0.859375 0.34375 -2.171875l2.8125 -11.21875l-3.578125 0l0.34375 -1.609375q1.484375 -0.078125 2.71875 -0.40625q1.25 -0.34375 3.03125 -1.15625l1.515625 0zm11.238281 0l-1.453125 6.25q1.453125 -2.296875 2.90625 -3.625q1.46875 -1.328125 3.015625 -1.96875q1.5625 -0.65625 3.0625 -0.65625q2.5625 0 4.1875 1.78125q1.640625 1.78125 1.640625 4.90625q0 3.40625 -1.65625 6.546875q-1.640625 3.125 -4.359375 4.84375q-2.71875 1.703125 -5.546875 1.703125q-3.28125 0 -5.546875 -2.109375l-1.390625 5.765625q-0.21875 0.9375 -0.21875 1.5q0 0.453125 0.25 0.765625q0.25 0.328125 0.734375 0.5q0.5 0.1875 1.5 0.1875l1.21875 0l-0.359375 1.640625l-10.9375 0l0.375 -1.640625q1.40625 0.015625 1.953125 -0.109375q0.734375 -0.125 1.15625 -0.46875q0.421875 -0.34375 0.734375 -1.015625q0.234375 -0.46875 0.515625 -1.65625l4.46875 -19.90625l-3.578125 0l0.375 -1.640625q2.765625 -0.21875 5.5 -1.59375l1.453125 0zm-3.40625 15.859375q1.078125 0.984375 2.328125 1.515625q1.25 0.515625 2.359375 0.515625q1.875 0 3.796875 -1.375q1.9375 -1.390625 3.3125 -4.296875q1.375 -2.921875 1.375 -5.84375q0 -1.890625 -0.921875 -2.984375q-0.921875 -1.109375 -2.28125 -1.109375q-1.234375 0 -2.53125 0.6875q-1.296875 0.671875 -2.90625 2.546875q-1.59375 1.859375 -2.734375 4.359375q-1.125 2.484375 -1.796875 5.984375zm28.191406 -8.34375l3.453125 1.1875q0.546875 0.203125 1.90625 0.859375q1.375 0.640625 1.9375 1.15625q0.734375 0.640625 1.140625 1.546875q0.421875 0.890625 0.421875 1.8125q0 1.421875 -0.96875 2.78125q-0.953125 1.34375 -2.828125 2.140625q-1.859375 0.78125 -4.59375 0.78125q-2.96875 0 -5.34375 -0.859375q-2.359375 -0.875 -3.4375 -2.09375q-1.0625 -1.234375 -1.0625 -2.21875q0 -0.671875 0.453125 -1.109375q0.46875 -0.453125 1.171875 -0.453125q0.421875 0 0.78125 0.15625q0.359375 0.15625 0.734375 0.546875q0.25 0.265625 0.828125 1.25q0.5 0.859375 0.65625 1.03125q0.453125 0.53125 1.203125 1.015625q0.765625 0.484375 1.71875 0.734375q0.953125 0.234375 2.21875 0.234375q1.828125 0 3.046875 -0.453125q1.234375 -0.453125 1.828125 -1.21875q0.59375 -0.765625 0.59375 -1.546875q0 -1.09375 -1.09375 -1.96875q-1.09375 -0.859375 -3.1875 -1.484375q-0.171875 -0.0625 -0.375 -0.140625l-2.734375 -0.953125q-2.5 -0.875 -3.59375 -2.171875q-1.109375 -1.265625 -1.109375 -2.796875q0 -1.328125 0.890625 -2.578125q0.90625 -1.25 2.65625 -1.96875q1.75 -0.734375 4.328125 -0.734375q3.9375 0 6.484375 1.578125q1.890625 1.1875 1.890625 2.6875q0 0.671875 -0.453125 1.140625q-0.4375 0.46875 -1.109375 0.46875q-0.625 0 -1.1875 -0.453125q-0.390625 -0.3125 -1.15625 -1.390625q-0.78125 -1.109375 -1.90625 -1.65625q-1.125 -0.546875 -2.765625 -0.546875q-2.21875 0 -3.4375 0.859375q-1.21875 0.859375 -1.21875 1.9375q0 0.859375 0.65625 1.5625q0.671875 0.6875 2.5625 1.328125z" fill-rule="nonzero"/><path xmlns="http://www.w3.org/2000/svg" fill="#000000" d="m97.338585 539.99963l-25.007874 0l0 -77.29132l25.007874 0z" fill-rule="evenodd" style="animation-name:alternateUp;animation-duration:1s;animation-iteration-count:infinite;animation-timing-function:ease-in-out;animation-delay:0.5s;"/><path xmlns="http://www.w3.org/2000/svg" stroke="#000000" stroke-width="1.0" stroke-linejoin="round" stroke-linecap="butt" d="m97.338585 539.99963l-25.007874 0l0 -77.29132l25.007874 0z" fill-rule="evenodd" style="animation-name:alternateUp;animation-duration:1s;animation-iteration-count:infinite;animation-timing-function:ease-in-out;animation-delay:0.5s;"/><path xmlns="http://www.w3.org/2000/svg" fill="#000000" d="m49.007874 540.0l-25.007874 0l0 -115.590546l25.007874 0z" fill-rule="evenodd" style="animation-name:alternateUp;animation-duration:1s;animation-iteration-count:infinite;animation-timing-function:ease-in-out;"/><path xmlns="http://www.w3.org/2000/svg" stroke="#000000" stroke-width="1.0" stroke-linejoin="round" stroke-linecap="butt" d="m49.007874 540.0l-25.007874 0l0 -115.590546l25.007874 0z" fill-rule="evenodd" style="animation-name:alternateUp;animation-duration:1s;animation-iteration-count:infinite;animation-timing-function:ease-in-out;"/><path fill="#000000" fill-opacity="0.0" d="m1.4698163 155.99475l372.8819 0l0 106.74014l-372.8819 0z" fill-rule="evenodd"/><path fill="#000000" d="m13.891691 175.22287l2.578125 0l0.265625 0.921875l15.375002 0l0.328125 -0.921875l2.609375 0l3.375 9.5625l-3.640625 1.265625q-1.203125 -2.390625 -1.734375 -3.109375q-1.03125 -1.421875 -2.375002 -2.25q-1.015625 -0.625 -2.015625 -0.625q-0.46875 0 -0.65625 0.234375q-0.171875 0.21875 -0.171875 1.015625l0 15.671875q0 1.390625 0.09375 1.75q0.109375 0.34375 0.34375 0.546875q0.234375 0.203125 0.640625 0.28125q0.40625 0.0625 2.1875 0.0625l0 3.765625l-13.28125 0l0 -3.765625l0.796875 0q1.328125 0 1.703125 -0.171875q0.375 -0.171875 0.5625 -0.578125q0.203125 -0.421875 0.203125 -1.75l0 -16.015625q0 -0.6875 -0.15625 -0.859375q-0.15625 -0.1875 -0.671875 -0.1875q-1.015625 0 -2.265625 0.765625q-1.25 0.765625 -2.21875 2.15625q-0.390625 0.546875 -1.65625 3.0625l-3.578125 -1.265625l3.359375 -9.5625zm36.929688 8.203125q3.34375 0 5.8125 1.3125q2.484375 1.3125 3.828125 3.578125q1.34375 2.25 1.34375 5.265625q0 4.578125 -2.96875 7.4375q-2.96875 2.84375 -7.9375 2.84375q-5.0625 0 -8.046875 -2.875q-2.890625 -2.734375 -2.890625 -7.40625q0 -3.0625 1.3125 -5.265625q1.328125 -2.203125 3.828125 -3.546875q2.5 -1.34375 5.71875 -1.34375zm0.078125 4.28125q-1.109375 0 -2.09375 0.671875q-0.96875 0.65625 -1.515625 1.953125q-0.53125 1.28125 -0.53125 3.28125q0 2.046875 0.53125 3.390625q0.53125 1.34375 1.453125 2.0q0.921875 0.640625 2.046875 0.640625q1.71875 0 2.9375 -1.453125q1.234375 -1.453125 1.234375 -4.53125q0 -2.96875 -1.140625 -4.453125q-1.140625 -1.5 -2.921875 -1.5zm22.304688 -4.28125l0 2.171875q2.234375 -1.359375 3.40625 -1.765625q1.1875 -0.40625 2.53125 -0.40625q3.421875 0 5.5625 2.53125q2.46875 2.890625 2.46875 7.375q0 4.296875 -2.15625 7.1875q-2.453125 3.34375 -6.59375 3.34375q-1.328125 0 -2.328125 -0.3125q-1.0 -0.296875 -2.171875 -1.09375l0 3.921875q0 1.171875 0.125 1.40625q0.140625 0.296875 0.4375 0.421875q0.296875 0.125 1.515625 0.125l0.921875 0l0 3.78125l-12.15625 0l0 -3.78125l0.671875 0q1.34375 0 1.625 -0.109375q0.28125 -0.09375 0.4375 -0.4375q0.171875 -0.34375 0.171875 -1.40625l0 -17.5l-2.90625 0l0 -3.78125q2.109375 -0.265625 3.59375 -0.625q1.484375 -0.375 3.015625 -1.046875l1.828125 0zm0.71875 6.09375l0 6.375q0 1.5 0.28125 2.140625q0.296875 0.625 0.984375 1.03125q0.6875 0.40625 1.59375 0.40625q1.578125 0 2.625 -1.46875q1.046875 -1.46875 1.046875 -4.453125q0 -2.78125 -0.90625 -4.109375q-0.90625 -1.34375 -2.234375 -1.34375q-1.53125 0 -3.390625 1.421875zm22.464844 -14.796875q1.484375 0 2.53125 1.046875q1.046875 1.046875 1.046875 2.53125q0 1.5 -1.046875 2.546875q-1.046875 1.046875 -2.53125 1.046875q-1.484375 0 -2.53125 -1.046875q-1.046875 -1.046875 -1.046875 -2.53125q0 -1.46875 1.078125 -2.53125q1.078125 -1.0625 2.5 -1.0625zm3.171875 8.703125l0 14.4375q0 1.03125 0.109375 1.265625q0.125 0.234375 0.421875 0.375q0.296875 0.125 1.359375 0.125l1.046875 0l0 3.765625l-12.0625 0l0 -3.765625l1.03125 0q1.015625 0 1.296875 -0.109375q0.28125 -0.109375 0.421875 -0.359375q0.140625 -0.265625 0.140625 -1.015625l0 -9.328125l-2.890625 0l0 -3.671875q1.546875 -0.078125 2.953125 -0.328125q1.421875 -0.25 2.53125 -0.609375q0.71875 -0.234375 1.78125 -0.78125l1.859375 0zm23.019531 12.578125l2.875 2.53125q-2.3125 2.78125 -4.796875 4.0625q-2.46875 1.265625 -5.296875 1.265625q-4.53125 0 -7.578125 -2.953125q-3.03125 -2.953125 -3.03125 -7.1875q0 -2.875 1.40625 -5.25q1.421875 -2.390625 3.890625 -3.71875q2.46875 -1.328125 5.828125 -1.328125q4.03125 0 6.578125 1.875q2.546875 1.859375 2.546875 3.9375q0 0.875 -0.40625 1.578125q-0.390625 0.6875 -1.21875 1.125q-0.8125 0.421875 -1.734375 0.421875q-0.734375 0 -1.328125 -0.296875q-0.578125 -0.296875 -0.96875 -0.75q-0.1875 -0.1875 -0.6875 -1.203125q-0.640625 -1.265625 -1.0 -1.671875q-0.34375 -0.421875 -0.84375 -0.640625q-0.484375 -0.234375 -1.109375 -0.234375q-1.015625 0 -1.953125 0.65625q-0.921875 0.65625 -1.515625 1.984375q-0.59375 1.328125 -0.59375 2.96875q0 1.796875 0.703125 3.234375q0.703125 1.4375 1.875 2.1875q1.1875 0.734375 2.625 0.734375q1.359375 0 2.75 -0.734375q1.390625 -0.75 2.984375 -2.59375zm18.65625 -12.109375l2.5625 0l1.578125 5.4375l-3.6875 1.484375q-1.0625 -1.703125 -2.65625 -2.671875q-1.59375 -0.96875 -3.15625 -0.96875q-1.03125 0 -1.546875 0.359375q-0.5 0.34375 -0.5 0.84375q0 0.40625 0.359375 0.765625q0.359375 0.34375 1.5 0.734375l5.375 1.90625q1.421875 0.515625 2.71875 1.28125q1.3125 0.75 1.96875 1.859375q0.65625 1.109375 0.65625 2.59375q0 2.65625 -2.03125 4.34375q-2.375 2.0 -5.9375 2.0q-3.046875 0 -5.3125 -1.546875l-0.546875 1.078125l-2.59375 0l-2.40625 -6.40625l3.6875 -1.5625q1.390625 2.171875 3.421875 3.40625q2.03125 1.234375 3.734375 1.234375q1.046875 0 1.78125 -0.484375q0.546875 -0.390625 0.546875 -0.921875q0 -0.4375 -0.4375 -0.859375q-0.421875 -0.40625 -1.890625 -0.90625l-4.21875 -1.46875q-3.5 -1.234375 -4.765625 -2.625q-1.25 -1.40625 -1.25 -3.3125q0 -2.46875 1.96875 -4.140625q2.25 -1.921875 5.546875 -1.921875q2.9375 0 5.015625 1.328125l0.515625 -0.859375zm12.863281 -0.46875q1.484375 0 2.5625 1.078125q1.078125 1.078125 1.078125 2.578125q0 1.53125 -1.0625 2.609375q-1.0625 1.0625 -2.59375 1.0625q-1.5 0 -2.5625 -1.0625q-1.0625 -1.078125 -1.0625 -2.59375q0 -1.5 1.078125 -2.578125q1.078125 -1.09375 2.5625 -1.09375zm0 13.015625q1.515625 0 2.578125 1.0625q1.0625 1.0625 1.0625 2.5625q0 1.515625 -1.0625 2.578125q-1.0625 1.0625 -2.578125 1.0625q-1.515625 0 -2.578125 -1.0625q-1.0625 -1.0625 -1.0625 -2.578125q0 -1.5 1.0625 -2.5625q1.0625 -1.0625 2.578125 -1.0625z" fill-rule="nonzero"/><path fill="#000000" d="m24.813566 227.8085q1.71875 0 3.375 0.890625q1.65625 0.890625 2.578125 2.546875q0.921875 1.65625 0.921875 3.4375q0 2.859375 -2.015625 4.875q-2.015625 2.015625 -4.859375 2.015625q-2.859375 0 -4.875 -2.015625q-2.015625 -2.015625 -2.015625 -4.875q0 -1.796875 0.921875 -3.4375q0.921875 -1.65625 2.578125 -2.546875q1.65625 -0.890625 3.390625 -0.890625z" fill-rule="nonzero"/><path fill="#000000" d="m58.87607 221.91788l7.8125 0l0 1.328125l-0.828125 0q-0.8125 0 -1.109375 0.15625q-0.453125 0.25 -0.453125 0.75q0 0.359375 0.25 1.140625l4.46875 14.53125l3.875 -11.9375l-0.90625 -2.890625q-0.328125 -1.03125 -1.0 -1.484375q-0.40625 -0.265625 -1.421875 -0.265625l0 -1.328125l7.75 0l0 1.328125l-0.734375 0q-0.953125 0 -1.28125 0.234375q-0.328125 0.234375 -0.328125 0.640625q0 0.34375 0.25 1.171875l4.484375 14.625l4.515625 -14.625q0.234375 -0.765625 0.234375 -1.15625q0 -0.453125 -0.3125 -0.671875q-0.3125 -0.21875 -1.234375 -0.21875l-0.78125 0l0 -1.328125l6.65625 0l0 1.328125q-0.84375 -0.015625 -1.265625 0.171875q-0.40625 0.171875 -0.671875 0.515625q-0.265625 0.328125 -0.578125 1.359375l-6.015625 18.421875l-2.265625 0l-4.203125 -13.03125l-4.21875 13.03125l-2.25 0l-5.90625 -18.421875q-0.421875 -1.328125 -1.046875 -1.75q-0.46875 -0.296875 -1.484375 -0.296875l0 -1.328125zm31.46875 1.53125l0 -1.34375q1.515625 -0.203125 2.359375 -0.46875q0.84375 -0.28125 1.765625 -0.84375l1.21875 0l0 10.328125q1.765625 -1.484375 3.34375 -2.171875q1.578125 -0.6875 3.015625 -0.6875q2.09375 0 3.453125 1.25q1.34375 1.25 1.34375 3.046875l0 7.671875q0 1.140625 0.171875 1.5q0.1875 0.34375 0.609375 0.515625q0.421875 0.15625 1.890625 0.15625l0 1.3125l-8.0625 0l0 -1.3125l0.59375 0q1.140625 0 1.5 -0.171875q0.359375 -0.1875 0.515625 -0.59375q0.171875 -0.421875 0.171875 -1.71875l0 -5.328125q0 -1.765625 -0.125 -2.296875q-0.234375 -0.90625 -0.96875 -1.453125q-0.734375 -0.546875 -1.875 -0.546875q-1.28125 0 -2.6875 0.640625q-1.390625 0.625 -2.890625 1.890625l0 7.828125q0 0.875 0.15625 1.171875q0.15625 0.296875 0.515625 0.4375q0.359375 0.140625 1.4375 0.140625l0.640625 0l0 1.3125l-8.09375 0l0 -1.3125l0.484375 0q1.140625 0 1.65625 -0.28125q0.28125 -0.140625 0.40625 -0.546875q0.125 -0.40625 0.125 -2.25l0 -15.875l-2.671875 0zm32.359375 11.21875l0 -1.703125q0 -1.734375 -0.96875 -2.46875q-0.96875 -0.75 -2.734375 -0.75q-0.875 0 -1.53125 0.21875q-0.65625 0.203125 -1.0625 0.578125q-0.390625 0.359375 -0.578125 0.828125q-0.078125 0.171875 -0.375 1.328125q-0.359375 1.40625 -1.453125 1.40625q-0.625 0 -1.015625 -0.40625q-0.375 -0.421875 -0.375 -1.125q0 -1.03125 0.765625 -2.015625q0.765625 -1.0 2.328125 -1.640625q1.578125 -0.65625 3.71875 -0.65625q2.0 0 3.421875 0.625q1.421875 0.609375 2.09375 1.765625q0.46875 0.796875 0.46875 2.90625l0 6.015625q0 1.28125 0.078125 1.671875q0.171875 0.671875 0.59375 1.015625q0.4375 0.328125 1.125 0.328125q0.71875 0 1.71875 -0.34375l0 1.359375q-1.296875 0.375 -2.328125 0.375q-1.109375 0 -1.875 -0.3125q-0.75 -0.3125 -1.234375 -0.90625q-0.484375 -0.609375 -0.625 -1.4375q-1.875 1.46875 -3.390625 2.0625q-1.515625 0.59375 -3.0625 0.59375q-2.15625 0 -3.5 -1.171875q-1.34375 -1.171875 -1.34375 -2.75q0 -0.953125 0.484375 -1.8125q0.5 -0.859375 1.5 -1.515625q1.015625 -0.65625 3.171875 -1.15625q2.15625 -0.5 5.984375 -0.90625zm0 1.359375q-3.625 0.53125 -4.484375 0.734375q-1.703125 0.390625 -2.4375 0.859375q-0.734375 0.46875 -1.046875 1.015625q-0.3125 0.53125 -0.3125 1.140625q0 0.609375 0.34375 1.1875q0.359375 0.5625 1.0 0.890625q0.640625 0.328125 1.359375 0.328125q1.015625 0 2.296875 -0.484375q1.28125 -0.484375 3.28125 -1.890625l0 -3.78125zm11.4375 -12.703125l1.109375 0l0 5.3125l4.640625 0l0 1.5625l-4.640625 0l0 9.421875q0 1.203125 0.203125 1.71875q0.21875 0.515625 0.71875 0.84375q0.515625 0.328125 1.140625 0.328125q1.484375 0 3.28125 -1.328125l0 1.515625q-2.046875 1.390625 -4.140625 1.390625q-1.1875 0 -2.15625 -0.53125q-0.953125 -0.53125 -1.3125 -1.25q-0.34375 -0.71875 -0.34375 -2.5l0 -9.609375l-2.734375 0l0 -1.3125q1.3125 -0.296875 2.109375 -0.921875q0.8125 -0.625 1.3125 -1.625q0.5 -1.0 0.8125 -3.015625zm18.390625 -1.40625l8.34375 0l0 1.328125l-0.640625 0q-0.90625 0 -1.3125 0.25q-0.40625 0.25 -0.59375 0.71875q-0.1875 0.453125 -0.1875 1.78125l0 14.046875q0 1.0625 0.203125 1.515625q0.203125 0.4375 0.5625 0.640625q0.375 0.203125 1.328125 0.203125l0.640625 0l0 1.3125l-8.34375 0l0 -1.3125l0.6875 0q0.921875 0 1.296875 -0.203125q0.390625 -0.21875 0.5625 -0.609375q0.171875 -0.40625 0.171875 -1.546875l0 -14.375q0 -1.203125 -0.171875 -1.609375q-0.171875 -0.421875 -0.5625 -0.609375q-0.375 -0.203125 -1.296875 -0.203125l-0.6875 0l0 -1.328125zm19.828125 6.71875l7.1875 0l0 1.3125l-0.5 0q-0.921875 0 -1.21875 0.140625q-0.46875 0.21875 -0.46875 0.6875q0 0.4375 0.359375 1.40625l3.234375 8.546875l3.15625 -7.9375l-0.28125 -0.734375q-0.484375 -1.265625 -1.125 -1.75q-0.421875 -0.3125 -1.25 -0.359375l0 -1.3125l7.15625 0l0 1.3125l-0.609375 0q-0.859375 0 -1.109375 0.140625q-0.4375 0.25 -0.4375 0.796875q0 0.46875 0.328125 1.296875l3.234375 8.546875l3.15625 -8.671875q0.25 -0.703125 0.265625 -0.796875q0.046875 -0.171875 0.046875 -0.359375q0 -0.4375 -0.34375 -0.6875q-0.34375 -0.265625 -1.265625 -0.265625l-0.578125 0l0 -1.3125l6.0625 0l0 1.3125q-0.671875 0.03125 -1.09375 0.234375q-0.421875 0.203125 -0.671875 0.53125q-0.25 0.328125 -0.703125 1.46875l-4.5625 11.53125l-1.875 0l-3.609375 -9.0l-3.5625 9.0l-1.859375 0l-4.609375 -11.53125q-0.4375 -1.109375 -0.71875 -1.46875q-0.28125 -0.359375 -0.703125 -0.5625q-0.40625 -0.203125 -1.03125 -0.203125l0 -1.3125zm37.359375 6.03125l0 -1.703125q0 -1.734375 -0.96875 -2.46875q-0.96875 -0.75 -2.734375 -0.75q-0.875 0 -1.53125 0.21875q-0.65625 0.203125 -1.0625 0.578125q-0.390625 0.359375 -0.578125 0.828125q-0.078125 0.171875 -0.375 1.328125q-0.359375 1.40625 -1.453125 1.40625q-0.625 0 -1.015625 -0.40625q-0.375 -0.421875 -0.375 -1.125q0 -1.03125 0.765625 -2.015625q0.765625 -1.0 2.328125 -1.640625q1.578125 -0.65625 3.71875 -0.65625q2.0 0 3.421875 0.625q1.421875 0.609375 2.09375 1.765625q0.46875 0.796875 0.46875 2.90625l0 6.015625q0 1.28125 0.078125 1.671875q0.171875 0.671875 0.59375 1.015625q0.4375 0.328125 1.125 0.328125q0.71875 0 1.71875 -0.34375l0 1.359375q-1.296875 0.375 -2.328125 0.375q-1.109375 0 -1.875 -0.3125q-0.75 -0.3125 -1.234375 -0.90625q-0.484375 -0.609375 -0.625 -1.4375q-1.875 1.46875 -3.390625 2.0625q-1.515625 0.59375 -3.0625 0.59375q-2.15625 0 -3.5 -1.171875q-1.34375 -1.171875 -1.34375 -2.75q0 -0.953125 0.484375 -1.8125q0.5 -0.859375 1.5 -1.515625q1.015625 -0.65625 3.171875 -1.15625q2.15625 -0.5 5.984375 -0.90625zm0 1.359375q-3.625 0.53125 -4.484375 0.734375q-1.703125 0.390625 -2.4375 0.859375q-0.734375 0.46875 -1.046875 1.015625q-0.3125 0.53125 -0.3125 1.140625q0 0.609375 0.34375 1.1875q0.359375 0.5625 1.0 0.890625q0.640625 0.328125 1.359375 0.328125q1.015625 0 2.296875 -0.484375q1.28125 -0.484375 3.28125 -1.890625l0 -3.78125zm7.34375 -5.140625l0 -1.3125q1.390625 -0.15625 2.078125 -0.375q0.6875 -0.21875 1.984375 -0.9375l1.125 0l0 2.96875q2.0625 -1.734375 3.515625 -2.34375q1.46875 -0.625 2.96875 -0.625q1.28125 0 2.265625 0.4375q0.984375 0.421875 1.59375 1.15625q0.625 0.734375 0.828125 1.671875q0.125 0.578125 0.125 1.75l0 6.875q0 1.234375 0.171875 1.59375q0.1875 0.34375 0.578125 0.5q0.390625 0.15625 1.921875 0.15625l0 1.3125l-8.046875 0l0 -1.3125l0.4375 0q1.125 0 1.53125 -0.203125q0.40625 -0.203125 0.578125 -0.59375q0.1875 -0.390625 0.1875 -1.59375l0 -5.75q0 -1.78125 -0.296875 -2.46875q-0.28125 -0.6875 -0.984375 -1.109375q-0.6875 -0.4375 -1.75 -0.4375q-1.265625 0 -2.703125 0.65625q-1.4375 0.640625 -2.78125 1.90625l0 7.203125q0 1.21875 0.171875 1.625q0.1875 0.40625 0.59375 0.609375q0.28125 0.15625 1.5 0.15625l0.453125 0l0 1.3125l-8.046875 0l0 -1.3125l0.390625 0q1.15625 0 1.578125 -0.1875q0.421875 -0.203125 0.59375 -0.703125q0.09375 -0.25 0.09375 -1.71875l0 -8.90625l-2.65625 0zm25.21875 -7.5625l1.109375 0l0 5.3125l4.640625 0l0 1.5625l-4.640625 0l0 9.421875q0 1.203125 0.203125 1.71875q0.21875 0.515625 0.71875 0.84375q0.515625 0.328125 1.140625 0.328125q1.484375 0 3.28125 -1.328125l0 1.515625q-2.046875 1.390625 -4.140625 1.390625q-1.1875 0 -2.15625 -0.53125q-0.953125 -0.53125 -1.3125 -1.25q-0.34375 -0.71875 -0.34375 -2.5l0 -9.609375l-2.734375 0l0 -1.3125q1.3125 -0.296875 2.109375 -0.921875q0.8125 -0.625 1.3125 -1.625q0.5 -1.0 0.8125 -3.015625zm21.421875 16.359375l1.0 0.8125q-1.140625 1.359375 -2.21875 2.15625q-1.0625 0.796875 -2.015625 1.109375q-0.953125 0.328125 -2.234375 0.328125q-2.296875 0 -3.90625 -0.9375q-1.84375 -1.078125 -2.828125 -2.8125q-0.984375 -1.734375 -0.984375 -4.09375q0 -2.46875 0.953125 -4.21875q0.953125 -1.75 2.65625 -2.75q1.71875 -1.015625 3.96875 -1.015625q1.671875 0 2.90625 0.53125q1.234375 0.515625 2.09375 1.578125q0.859375 1.046875 1.25 2.40625q0.21875 0.796875 0.25 2.0625l-11.046875 0q-0.046875 0.765625 -0.046875 1.140625q0 1.96875 0.6875 3.515625q0.6875 1.53125 1.8125 2.265625q1.140625 0.71875 2.578125 0.71875q1.21875 0 2.359375 -0.5625q1.140625 -0.578125 2.765625 -2.234375zm-2.0 -6.3125q-0.234375 -1.4375 -0.671875 -2.125q-0.421875 -0.6875 -1.21875 -1.09375q-0.78125 -0.40625 -1.765625 -0.40625q-0.984375 0 -1.84375 0.40625q-0.859375 0.40625 -1.4375 1.125q-0.5625 0.71875 -0.984375 2.09375l7.921875 0zm15.0 -9.9375l0 -1.328125q1.0625 -0.09375 1.9375 -0.359375q0.890625 -0.28125 2.21875 -0.953125l1.171875 0l0 18.953125q0 1.3125 0.0625 1.59375q0.15625 0.59375 0.53125 0.828125q0.375 0.234375 1.453125 0.234375l0.671875 0l0 1.3125l-5.421875 0.25l0 -2.484375q-1.5625 1.421875 -2.9375 2.015625q-1.359375 0.59375 -2.734375 0.59375q-2.828125 0 -4.703125 -2.265625q-1.859375 -2.28125 -1.859375 -5.484375q0 -2.28125 0.984375 -4.171875q1.0 -1.90625 2.625 -2.90625q1.625 -1.0 3.5625 -1.0q1.484375 0 2.75 0.515625q1.265625 0.515625 2.3125 1.546875l0 -6.890625l-2.625 0zm2.625 16.5l0 -5.90625q0 -1.265625 -0.484375 -2.0625q-0.46875 -0.8125 -1.5625 -1.40625q-1.078125 -0.59375 -2.21875 -0.59375q-1.359375 0 -2.515625 0.75q-1.140625 0.734375 -1.796875 2.140625q-0.640625 1.390625 -0.640625 3.375q0 1.875 0.59375 3.25q0.609375 1.359375 1.625 2.078125q1.015625 0.703125 2.078125 0.703125q1.046875 0 2.375 -0.59375q1.328125 -0.609375 2.546875 -1.734375z" fill-rule="nonzero"/><path fill="#000000" d="m24.813566 265.8085q1.71875 0 3.375 0.890625q1.65625 0.890625 2.578125 2.546875q0.921875 1.65625 0.921875 3.4375q0 2.859375 -2.015625 4.875q-2.015625 2.015625 -4.859375 2.015625q-2.859375 0 -4.875 -2.015625q-2.015625 -2.015625 -2.015625 -4.875q0 -1.796875 0.921875 -3.4375q0.921875 -1.65625 2.578125 -2.546875q1.65625 -0.890625 3.390625 -0.890625z" fill-rule="nonzero"/><path fill="#000000" d="m58.87607 259.91788l7.8125 0l0 1.328125l-0.828125 0q-0.8125 0 -1.109375 0.15625q-0.453125 0.25 -0.453125 0.75q0 0.359375 0.25 1.140625l4.46875 14.53125l3.875 -11.9375l-0.90625 -2.890625q-0.328125 -1.03125 -1.0 -1.484375q-0.40625 -0.265625 -1.421875 -0.265625l0 -1.328125l7.75 0l0 1.328125l-0.734375 0q-0.953125 0 -1.28125 0.234375q-0.328125 0.234375 -0.328125 0.640625q0 0.34375 0.25 1.171875l4.484375 14.625l4.515625 -14.625q0.234375 -0.765625 0.234375 -1.15625q0 -0.453125 -0.3125 -0.671875q-0.3125 -0.21875 -1.234375 -0.21875l-0.78125 0l0 -1.328125l6.65625 0l0 1.328125q-0.84375 -0.015625 -1.265625 0.171875q-0.40625 0.171875 -0.671875 0.515625q-0.265625 0.328125 -0.578125 1.359375l-6.015625 18.421875l-2.265625 0l-4.203125 -13.03125l-4.21875 13.03125l-2.25 0l-5.90625 -18.421875q-0.421875 -1.328125 -1.046875 -1.75q-0.46875 -0.296875 -1.484375 -0.296875l0 -1.328125zm31.46875 1.53125l0 -1.34375q1.515625 -0.203125 2.359375 -0.46875q0.84375 -0.28125 1.765625 -0.84375l1.21875 0l0 10.328125q1.765625 -1.484375 3.34375 -2.171875q1.578125 -0.6875 3.015625 -0.6875q2.09375 0 3.453125 1.25q1.34375 1.25 1.34375 3.046875l0 7.671875q0 1.140625 0.171875 1.5q0.1875 0.34375 0.609375 0.515625q0.421875 0.15625 1.890625 0.15625l0 1.3125l-8.0625 0l0 -1.3125l0.59375 0q1.140625 0 1.5 -0.171875q0.359375 -0.1875 0.515625 -0.59375q0.171875 -0.421875 0.171875 -1.71875l0 -5.328125q0 -1.765625 -0.125 -2.296875q-0.234375 -0.90625 -0.96875 -1.453125q-0.734375 -0.546875 -1.875 -0.546875q-1.28125 0 -2.6875 0.640625q-1.390625 0.625 -2.890625 1.890625l0 7.828125q0 0.875 0.15625 1.171875q0.15625 0.296875 0.515625 0.4375q0.359375 0.140625 1.4375 0.140625l0.640625 0l0 1.3125l-8.09375 0l0 -1.3125l0.484375 0q1.140625 0 1.65625 -0.28125q0.28125 -0.140625 0.40625 -0.546875q0.125 -0.40625 0.125 -2.25l0 -15.875l-2.671875 0zm32.359375 11.21875l0 -1.703125q0 -1.734375 -0.96875 -2.46875q-0.96875 -0.75 -2.734375 -0.75q-0.875 0 -1.53125 0.21875q-0.65625 0.203125 -1.0625 0.578125q-0.390625 0.359375 -0.578125 0.828125q-0.078125 0.171875 -0.375 1.328125q-0.359375 1.40625 -1.453125 1.40625q-0.625 0 -1.015625 -0.40625q-0.375 -0.421875 -0.375 -1.125q0 -1.03125 0.765625 -2.015625q0.765625 -1.0 2.328125 -1.640625q1.578125 -0.65625 3.71875 -0.65625q2.0 0 3.421875 0.625q1.421875 0.609375 2.09375 1.765625q0.46875 0.796875 0.46875 2.90625l0 6.015625q0 1.28125 0.078125 1.671875q0.171875 0.671875 0.59375 1.015625q0.4375 0.328125 1.125 0.328125q0.71875 0 1.71875 -0.34375l0 1.359375q-1.296875 0.375 -2.328125 0.375q-1.109375 0 -1.875 -0.3125q-0.75 -0.3125 -1.234375 -0.90625q-0.484375 -0.609375 -0.625 -1.4375q-1.875 1.46875 -3.390625 2.0625q-1.515625 0.59375 -3.0625 0.59375q-2.15625 0 -3.5 -1.171875q-1.34375 -1.171875 -1.34375 -2.75q0 -0.953125 0.484375 -1.8125q0.5 -0.859375 1.5 -1.515625q1.015625 -0.65625 3.171875 -1.15625q2.15625 -0.5 5.984375 -0.90625zm0 1.359375q-3.625 0.53125 -4.484375 0.734375q-1.703125 0.390625 -2.4375 0.859375q-0.734375 0.46875 -1.046875 1.015625q-0.3125 0.53125 -0.3125 1.140625q0 0.609375 0.34375 1.1875q0.359375 0.5625 1.0 0.890625q0.640625 0.328125 1.359375 0.328125q1.015625 0 2.296875 -0.484375q1.28125 -0.484375 3.28125 -1.890625l0 -3.78125zm11.4375 -12.703125l1.109375 0l0 5.3125l4.640625 0l0 1.5625l-4.640625 0l0 9.421875q0 1.203125 0.203125 1.71875q0.21875 0.515625 0.71875 0.84375q0.515625 0.328125 1.140625 0.328125q1.484375 0 3.28125 -1.328125l0 1.515625q-2.046875 1.390625 -4.140625 1.390625q-1.1875 0 -2.15625 -0.53125q-0.953125 -0.53125 -1.3125 -1.25q-0.34375 -0.71875 -0.34375 -2.5l0 -9.609375l-2.734375 0l0 -1.3125q1.3125 -0.296875 2.109375 -0.921875q0.8125 -0.625 1.3125 -1.625q0.5 -1.0 0.8125 -3.015625zm18.390625 -1.40625l8.34375 0l0 1.328125l-0.640625 0q-0.90625 0 -1.3125 0.25q-0.40625 0.25 -0.59375 0.71875q-0.1875 0.453125 -0.1875 1.78125l0 14.046875q0 1.0625 0.203125 1.515625q0.203125 0.4375 0.5625 0.640625q0.375 0.203125 1.328125 0.203125l0.640625 0l0 1.3125l-8.34375 0l0 -1.3125l0.6875 0q0.921875 0 1.296875 -0.203125q0.390625 -0.21875 0.5625 -0.609375q0.171875 -0.40625 0.171875 -1.546875l0 -14.375q0 -1.203125 -0.171875 -1.609375q-0.171875 -0.421875 -0.5625 -0.609375q-0.375 -0.203125 -1.296875 -0.203125l-0.6875 0l0 -1.328125zm33.078125 7.953125q0.703125 -0.828125 1.421875 -1.21875q0.734375 -0.390625 1.34375 -0.390625q0.5625 0 0.9375 0.34375q0.390625 0.328125 0.390625 0.8125q0 0.5 -0.34375 0.84375q-0.34375 0.34375 -0.875 0.34375q-0.21875 0 -0.59375 -0.078125q-0.4375 -0.109375 -0.734375 -0.109375q-0.390625 0 -0.8125 0.359375q0.96875 1.171875 0.96875 2.75q0 2.15625 -1.8125 3.734375q-1.8125 1.578125 -4.578125 1.578125q-1.53125 0 -3.078125 -0.640625q-1.03125 0.734375 -1.171875 0.90625q-0.21875 0.265625 -0.21875 0.5625q0 0.453125 0.46875 0.75q0.59375 0.390625 2.34375 0.65625l4.515625 0.671875q1.5 0.234375 3.015625 0.78125q1.515625 0.546875 2.1875 1.421875q0.6875 0.875 0.6875 2.09375q0 2.0625 -1.90625 3.296875q-2.421875 1.578125 -7.1875 1.578125q-2.5 0 -4.0625 -0.53125q-1.5625 -0.53125 -2.421875 -1.5q-0.625 -0.703125 -0.625 -1.453125q0 -0.96875 0.625 -1.890625q0.640625 -0.921875 2.9375 -2.625q-1.484375 -0.375 -2.125 -0.875q-0.8125 -0.640625 -0.8125 -1.453125q0 -0.40625 0.140625 -0.75q0.15625 -0.359375 0.484375 -0.703125q0.34375 -0.359375 1.234375 -0.984375q0.5625 -0.390625 0.796875 -0.578125q-1.140625 -0.8125 -1.71875 -1.8125q-0.578125 -1.015625 -0.578125 -2.21875q0 -1.984375 1.53125 -3.46875q1.859375 -1.8125 5.015625 -1.8125q1.40625 0 2.453125 0.359375q1.046875 0.34375 2.15625 1.25zm-4.75 -0.15625q-1.53125 0 -2.59375 1.109375q-1.0625 1.109375 -1.0625 2.75q0 1.09375 0.484375 1.984375q0.484375 0.875 1.359375 1.390625q0.875 0.5 1.84375 0.5q0.96875 0 1.84375 -0.515625q0.890625 -0.515625 1.359375 -1.390625q0.484375 -0.875 0.484375 -1.96875q0 -1.71875 -1.046875 -2.78125q-1.03125 -1.078125 -2.671875 -1.078125zm-2.484375 13.5625q-1.5 1.28125 -2.0 2.078125q-0.484375 0.796875 -0.484375 1.53125q0 0.625 0.484375 1.203125q0.5 0.59375 1.6875 0.96875q1.1875 0.375 2.984375 0.375q2.125 0 3.640625 -0.46875q1.53125 -0.453125 2.1875 -1.171875q0.484375 -0.5625 0.484375 -1.328125q0 -0.65625 -0.40625 -1.109375q-0.390625 -0.453125 -1.5 -0.796875q-1.09375 -0.328125 -2.046875 -0.484375l-5.03125 -0.796875zm20.328125 -15.015625q2.296875 0 3.96875 0.953125q1.6875 0.953125 2.65625 2.78125q0.96875 1.828125 0.96875 4.171875q0 2.34375 -1.0 4.171875q-0.984375 1.828125 -2.703125 2.796875q-1.703125 0.953125 -4.078125 0.953125q-3.78125 0 -5.6875 -2.359375q-1.890625 -2.359375 -1.890625 -5.546875q0 -2.328125 0.984375 -4.125q0.984375 -1.8125 2.75 -2.796875q1.78125 -1.0 4.03125 -1.0zm-0.125 1.515625q-1.78125 0 -3.015625 1.40625q-1.5625 1.75 -1.5625 5.09375q0 3.21875 1.328125 4.90625q1.203125 1.5 3.265625 1.5q1.328125 0 2.359375 -0.703125q1.046875 -0.703125 1.6875 -2.234375q0.640625 -1.546875 0.640625 -3.625q0 -2.03125 -0.6875 -3.640625q-0.53125 -1.28125 -1.609375 -1.984375q-1.0625 -0.71875 -2.40625 -0.71875zm14.265625 -6.453125l1.109375 0l0 5.3125l4.640625 0l0 1.5625l-4.640625 0l0 9.421875q0 1.203125 0.203125 1.71875q0.21875 0.515625 0.71875 0.84375q0.515625 0.328125 1.140625 0.328125q1.484375 0 3.28125 -1.328125l0 1.515625q-2.046875 1.390625 -4.140625 1.390625q-1.1875 0 -2.15625 -0.53125q-0.953125 -0.53125 -1.3125 -1.25q-0.34375 -0.71875 -0.34375 -2.5l0 -9.609375l-2.734375 0l0 -1.3125q1.3125 -0.296875 2.109375 -0.921875q0.8125 -0.625 1.3125 -1.625q0.5 -1.0 0.8125 -3.015625z" fill-rule="nonzero"/><path fill="#000000" d="m24.813566 303.8085q1.71875 0 3.375 0.890625q1.65625 0.890625 2.578125 2.546875q0.921875 1.65625 0.921875 3.4375q0 2.859375 -2.015625 4.875q-2.015625 2.015625 -4.859375 2.015625q-2.859375 0 -4.875 -2.015625q-2.015625 -2.015625 -2.015625 -4.875q0 -1.796875 0.921875 -3.4375q0.921875 -1.65625 2.578125 -2.546875q1.65625 -0.890625 3.390625 -0.890625z" fill-rule="nonzero"/><path fill="#000000" d="m58.87607 297.91788l7.8125 0l0 1.328125l-0.828125 0q-0.8125 0 -1.109375 0.15625q-0.453125 0.25 -0.453125 0.75q0 0.359375 0.25 1.140625l4.46875 14.53125l3.875 -11.9375l-0.90625 -2.890625q-0.328125 -1.03125 -1.0 -1.484375q-0.40625 -0.265625 -1.421875 -0.265625l0 -1.328125l7.75 0l0 1.328125l-0.734375 0q-0.953125 0 -1.28125 0.234375q-0.328125 0.234375 -0.328125 0.640625q0 0.34375 0.25 1.171875l4.484375 14.625l4.515625 -14.625q0.234375 -0.765625 0.234375 -1.15625q0 -0.453125 -0.3125 -0.671875q-0.3125 -0.21875 -1.234375 -0.21875l-0.78125 0l0 -1.328125l6.65625 0l0 1.328125q-0.84375 -0.015625 -1.265625 0.171875q-0.40625 0.171875 -0.671875 0.515625q-0.265625 0.328125 -0.578125 1.359375l-6.015625 18.421875l-2.265625 0l-4.203125 -13.03125l-4.21875 13.03125l-2.25 0l-5.90625 -18.421875q-0.421875 -1.328125 -1.046875 -1.75q-0.46875 -0.296875 -1.484375 -0.296875l0 -1.328125zm31.46875 1.53125l0 -1.34375q1.515625 -0.203125 2.359375 -0.46875q0.84375 -0.28125 1.765625 -0.84375l1.21875 0l0 10.328125q1.765625 -1.484375 3.34375 -2.171875q1.578125 -0.6875 3.015625 -0.6875q2.09375 0 3.453125 1.25q1.34375 1.25 1.34375 3.046875l0 7.671875q0 1.140625 0.171875 1.5q0.1875 0.34375 0.609375 0.515625q0.421875 0.15625 1.890625 0.15625l0 1.3125l-8.0625 0l0 -1.3125l0.59375 0q1.140625 0 1.5 -0.171875q0.359375 -0.1875 0.515625 -0.59375q0.171875 -0.421875 0.171875 -1.71875l0 -5.328125q0 -1.765625 -0.125 -2.296875q-0.234375 -0.90625 -0.96875 -1.453125q-0.734375 -0.546875 -1.875 -0.546875q-1.28125 0 -2.6875 0.640625q-1.390625 0.625 -2.890625 1.890625l0 7.828125q0 0.875 0.15625 1.171875q0.15625 0.296875 0.515625 0.4375q0.359375 0.140625 1.4375 0.140625l0.640625 0l0 1.3125l-8.09375 0l0 -1.3125l0.484375 0q1.140625 0 1.65625 -0.28125q0.28125 -0.140625 0.40625 -0.546875q0.125 -0.40625 0.125 -2.25l0 -15.875l-2.671875 0zm29.015625 4.8125q2.296875 0 3.96875 0.953125q1.6875 0.953125 2.65625 2.78125q0.96875 1.828125 0.96875 4.171875q0 2.34375 -1.0 4.171875q-0.984375 1.828125 -2.703125 2.796875q-1.703125 0.953125 -4.078125 0.953125q-3.78125 0 -5.6875 -2.359375q-1.890625 -2.359375 -1.890625 -5.546875q0 -2.328125 0.984375 -4.125q0.984375 -1.8125 2.75 -2.796875q1.78125 -1.0 4.03125 -1.0zm-0.125 1.515625q-1.78125 0 -3.015625 1.40625q-1.5625 1.75 -1.5625 5.09375q0 3.21875 1.328125 4.90625q1.203125 1.5 3.265625 1.5q1.328125 0 2.359375 -0.703125q1.046875 -0.703125 1.6875 -2.234375q0.640625 -1.546875 0.640625 -3.625q0 -2.03125 -0.6875 -3.640625q-0.53125 -1.28125 -1.609375 -1.984375q-1.0625 -0.71875 -2.40625 -0.71875zm20.5 -7.859375l8.34375 0l0 1.328125l-0.640625 0q-0.90625 0 -1.3125 0.25q-0.40625 0.25 -0.59375 0.71875q-0.1875 0.453125 -0.1875 1.78125l0 14.046875q0 1.0625 0.203125 1.515625q0.203125 0.4375 0.5625 0.640625q0.375 0.203125 1.328125 0.203125l0.640625 0l0 1.3125l-8.34375 0l0 -1.3125l0.6875 0q0.921875 0 1.296875 -0.203125q0.390625 -0.21875 0.5625 -0.609375q0.171875 -0.40625 0.171875 -1.546875l0 -14.375q0 -1.203125 -0.171875 -1.609375q-0.171875 -0.421875 -0.5625 -0.609375q-0.375 -0.203125 -1.296875 -0.203125l-0.6875 0l0 -1.328125zm32.234375 12.75l0 -1.703125q0 -1.734375 -0.96875 -2.46875q-0.96875 -0.75 -2.734375 -0.75q-0.875 0 -1.53125 0.21875q-0.65625 0.203125 -1.0625 0.578125q-0.390625 0.359375 -0.578125 0.828125q-0.078125 0.171875 -0.375 1.328125q-0.359375 1.40625 -1.453125 1.40625q-0.625 0 -1.015625 -0.40625q-0.375 -0.421875 -0.375 -1.125q0 -1.03125 0.765625 -2.015625q0.765625 -1.0 2.328125 -1.640625q1.578125 -0.65625 3.71875 -0.65625q2.0 0 3.421875 0.625q1.421875 0.609375 2.09375 1.765625q0.46875 0.796875 0.46875 2.90625l0 6.015625q0 1.28125 0.078125 1.671875q0.171875 0.671875 0.59375 1.015625q0.4375 0.328125 1.125 0.328125q0.71875 0 1.71875 -0.34375l0 1.359375q-1.296875 0.375 -2.328125 0.375q-1.109375 0 -1.875 -0.3125q-0.75 -0.3125 -1.234375 -0.90625q-0.484375 -0.609375 -0.625 -1.4375q-1.875 1.46875 -3.390625 2.0625q-1.515625 0.59375 -3.0625 0.59375q-2.15625 0 -3.5 -1.171875q-1.34375 -1.171875 -1.34375 -2.75q0 -0.953125 0.484375 -1.8125q0.5 -0.859375 1.5 -1.515625q1.015625 -0.65625 3.171875 -1.15625q2.15625 -0.5 5.984375 -0.90625zm0 1.359375q-3.625 0.53125 -4.484375 0.734375q-1.703125 0.390625 -2.4375 0.859375q-0.734375 0.46875 -1.046875 1.015625q-0.3125 0.53125 -0.3125 1.140625q0 0.609375 0.34375 1.1875q0.359375 0.5625 1.0 0.890625q0.640625 0.328125 1.359375 0.328125q1.015625 0 2.296875 -0.484375q1.28125 -0.484375 3.28125 -1.890625l0 -3.78125zm7.296875 -5.140625l0 -1.328125q1.171875 -0.109375 2.046875 -0.375q0.875 -0.28125 2.0 -0.921875l1.15625 0l0 2.625q1.78125 -1.40625 2.78125 -1.890625q1.53125 -0.734375 2.921875 -0.734375q0.953125 0 1.859375 0.359375q0.921875 0.34375 1.46875 0.859375q0.5625 0.515625 0.953125 1.40625q1.640625 -1.453125 3.03125 -2.03125q1.40625 -0.59375 2.84375 -0.59375q1.375 0 2.421875 0.578125q1.0625 0.5625 1.53125 1.421875q0.484375 0.859375 0.484375 2.515625l0 7.25q0 1.140625 0.046875 1.328125q0.078125 0.296875 0.328125 0.5625q0.265625 0.265625 0.59375 0.375q0.328125 0.109375 1.21875 0.109375l0.5 0l0 1.3125l-7.859375 0l0 -1.3125q1.34375 -0.015625 1.734375 -0.1875q0.40625 -0.1875 0.59375 -0.59375q0.203125 -0.40625 0.203125 -1.59375l0 -6.890625q0 -1.3125 -0.234375 -1.8125q-0.234375 -0.5 -0.84375 -0.828125q-0.59375 -0.34375 -1.484375 -0.34375q-1.109375 0 -2.328125 0.59375q-1.625 0.8125 -2.5625 1.828125l0 7.453125q0 1.078125 0.09375 1.421875q0.109375 0.328125 0.34375 0.5625q0.25 0.21875 0.5625 0.3125q0.328125 0.078125 1.5625 0.078125l0 1.3125l-7.703125 0l0 -1.3125l0.4375 0q0.921875 0 1.296875 -0.21875q0.390625 -0.21875 0.609375 -0.671875q0.15625 -0.359375 0.15625 -1.484375l0 -6.65625q0 -1.46875 -0.234375 -1.984375q-0.21875 -0.515625 -0.859375 -0.875q-0.640625 -0.359375 -1.5 -0.359375q-1.015625 0 -2.046875 0.5q-1.53125 0.734375 -2.8125 1.921875l0 8.03125q0 0.71875 0.1875 1.0625q0.203125 0.328125 0.625 0.53125q0.421875 0.203125 1.15625 0.203125l0.578125 0l0 1.3125l-7.859375 0l0 -1.3125l0.421875 0q1.078125 0 1.421875 -0.171875q0.5 -0.234375 0.71875 -0.75q0.125 -0.28125 0.125 -1.453125l0 -9.140625l-2.6875 0zm39.171875 -2.25l7.1875 0l0 1.3125l-0.5 0q-0.921875 0 -1.21875 0.140625q-0.46875 0.21875 -0.46875 0.6875q0 0.4375 0.359375 1.40625l3.234375 8.546875l3.15625 -7.9375l-0.28125 -0.734375q-0.484375 -1.265625 -1.125 -1.75q-0.421875 -0.3125 -1.25 -0.359375l0 -1.3125l7.15625 0l0 1.3125l-0.609375 0q-0.859375 0 -1.109375 0.140625q-0.4375 0.25 -0.4375 0.796875q0 0.46875 0.328125 1.296875l3.234375 8.546875l3.15625 -8.671875q0.25 -0.703125 0.265625 -0.796875q0.046875 -0.171875 0.046875 -0.359375q0 -0.4375 -0.34375 -0.6875q-0.34375 -0.265625 -1.265625 -0.265625l-0.578125 0l0 -1.3125l6.0625 0l0 1.3125q-0.671875 0.03125 -1.09375 0.234375q-0.421875 0.203125 -0.671875 0.53125q-0.25 0.328125 -0.703125 1.46875l-4.5625 11.53125l-1.875 0l-3.609375 -9.0l-3.5625 9.0l-1.859375 0l-4.609375 -11.53125q-0.4375 -1.109375 -0.71875 -1.46875q-0.28125 -0.359375 -0.703125 -0.5625q-0.40625 -0.203125 -1.03125 -0.203125l0 -1.3125zm29.984375 -7.421875q0.75 0 1.28125 0.53125q0.53125 0.515625 0.53125 1.265625q0 0.75 -0.53125 1.28125q-0.53125 0.53125 -1.28125 0.53125q-0.75 0 -1.28125 -0.53125q-0.53125 -0.53125 -0.53125 -1.28125q0 -0.75 0.53125 -1.265625q0.53125 -0.53125 1.28125 -0.53125zm-3.984375 9.671875l0 -1.296875q1.296875 -0.15625 2.171875 -0.4375q0.890625 -0.28125 2.015625 -0.890625l1.140625 0l0 12.53125q0 0.65625 0.1875 0.984375q0.1875 0.328125 0.515625 0.484375q0.34375 0.140625 1.234375 0.140625l0.734375 0l0 1.3125l-8.0 0l0 -1.3125l0.640625 0q1.046875 0 1.40625 -0.1875q0.359375 -0.1875 0.5 -0.53125q0.15625 -0.34375 0.15625 -1.609375l0 -9.1875l-2.703125 0zm13.828125 -7.5625l1.109375 0l0 5.3125l4.640625 0l0 1.5625l-4.640625 0l0 9.421875q0 1.203125 0.203125 1.71875q0.21875 0.515625 0.71875 0.84375q0.515625 0.328125 1.140625 0.328125q1.484375 0 3.28125 -1.328125l0 1.515625q-2.046875 1.390625 -4.140625 1.390625q-1.1875 0 -2.15625 -0.53125q-0.953125 -0.53125 -1.3125 -1.25q-0.34375 -0.71875 -0.34375 -2.5l0 -9.609375l-2.734375 0l0 -1.3125q1.3125 -0.296875 2.109375 -0.921875q0.8125 -0.625 1.3125 -1.625q0.5 -1.0 0.8125 -3.015625zm8.046875 0.125l0 -1.34375q1.515625 -0.203125 2.359375 -0.46875q0.84375 -0.28125 1.765625 -0.84375l1.21875 0l0 10.328125q1.765625 -1.484375 3.34375 -2.171875q1.578125 -0.6875 3.015625 -0.6875q2.09375 0 3.453125 1.25q1.34375 1.25 1.34375 3.046875l0 7.671875q0 1.140625 0.171875 1.5q0.1875 0.34375 0.609375 0.515625q0.421875 0.15625 1.890625 0.15625l0 1.3125l-8.0625 0l0 -1.3125l0.59375 0q1.140625 0 1.5 -0.171875q0.359375 -0.1875 0.515625 -0.59375q0.171875 -0.421875 0.171875 -1.71875l0 -5.328125q0 -1.765625 -0.125 -2.296875q-0.234375 -0.90625 -0.96875 -1.453125q-0.734375 -0.546875 -1.875 -0.546875q-1.28125 0 -2.6875 0.640625q-1.390625 0.625 -2.890625 1.890625l0 7.828125q0 0.875 0.15625 1.171875q0.15625 0.296875 0.515625 0.4375q0.359375 0.140625 1.4375 0.140625l0.640625 0l0 1.3125l-8.09375 0l0 -1.3125l0.484375 0q1.140625 0 1.65625 -0.28125q0.28125 -0.140625 0.40625 -0.546875q0.125 -0.40625 0.125 -2.25l0 -15.875l-2.671875 0z" fill-rule="nonzero"/><path fill="#000000" d="m24.813566 341.8085q1.71875 0 3.375 0.890625q1.65625 0.890625 2.578125 2.546875q0.921875 1.65625 0.921875 3.4375q0 2.859375 -2.015625 4.875q-2.015625 2.015625 -4.859375 2.015625q-2.859375 0 -4.875 -2.015625q-2.015625 -2.015625 -2.015625 -4.875q0 -1.796875 0.921875 -3.4375q0.921875 -1.65625 2.578125 -2.546875q1.65625 -0.890625 3.390625 -0.890625z" fill-rule="nonzero"/><path fill="#000000" d="m59.96982 335.91788l6.890625 0l6.4375 17.265625l6.265625 -17.265625l6.65625 0l0 1.328125l-0.5625 0q-1.015625 0 -1.375 0.171875q-0.34375 0.171875 -0.546875 0.609375q-0.203125 0.421875 -0.203125 1.40625l0 14.375q0 1.359375 0.15625 1.765625q0.171875 0.40625 0.546875 0.625q0.390625 0.203125 1.421875 0.203125l0.5625 0l0 1.3125l-8.328125 0l0 -1.3125l0.59375 0q0.796875 0 1.15625 -0.125q0.375 -0.125 0.609375 -0.40625q0.25 -0.296875 0.28125 -0.609375q0.078125 -0.640625 0.078125 -1.0l0 -16.046875l-7.109375 19.5l-1.546875 0l-7.171875 -19.21875l0 15.453125q0 1.171875 0.203125 1.59375q0.203125 0.40625 0.625 0.640625q0.4375 0.21875 1.546875 0.21875l0.5 0l0 1.3125l-7.6875 0l0 -1.3125l0.4375 0q1.109375 0 1.578125 -0.234375q0.484375 -0.234375 0.6875 -0.65625q0.203125 -0.4375 0.203125 -1.703125l0 -14.234375q0 -1.1875 -0.171875 -1.5625q-0.171875 -0.390625 -0.578125 -0.578125q-0.390625 -0.1875 -1.40625 -0.1875l-0.75 0l0 -1.328125zm27.765625 6.71875l7.59375 0l0 1.3125l-0.625 0q-0.890625 0 -1.0625 0.046875q-0.203125 0.0625 -0.34375 0.265625q-0.140625 0.1875 -0.140625 0.484375q0 0.421875 0.421875 1.421875l3.625 8.515625l3.359375 -8.140625q0.59375 -1.4375 0.59375 -1.90625q0 -0.359375 -0.265625 -0.515625q-0.265625 -0.171875 -1.203125 -0.171875l-0.734375 0l0 -1.3125l6.390625 0l0 1.3125l-0.375 0q-0.9375 0 -1.21875 0.125q-0.28125 0.125 -0.546875 0.515625q-0.265625 0.375 -0.84375 1.734375l-5.734375 13.359375q-0.625 1.4375 -1.390625 2.65625q-0.765625 1.234375 -1.921875 1.90625q-1.15625 0.671875 -2.546875 0.671875q-1.609375 0 -2.578125 -0.734375q-0.828125 -0.625 -0.828125 -1.5625q0 -0.578125 0.359375 -0.96875q0.359375 -0.375 0.84375 -0.375q0.375 0 0.703125 0.15625q0.203125 0.078125 0.84375 0.65625q0.78125 0.6875 1.09375 0.84375q0.328125 0.15625 0.640625 0.15625q0.640625 0 1.265625 -0.4375q0.625 -0.4375 1.0625 -1.234375q0.625 -1.140625 1.03125 -2.140625l0.640625 -1.5625l-5.15625 -11.546875q-0.546875 -1.21875 -0.921875 -1.640625q-0.375 -0.421875 -0.75 -0.515625q-0.203125 -0.0625 -1.28125 -0.0625l0 -1.3125zm42.21875 11.046875l1.0 0.8125q-1.140625 1.359375 -2.21875 2.15625q-1.0625 0.796875 -2.015625 1.109375q-0.953125 0.328125 -2.234375 0.328125q-2.296875 0 -3.90625 -0.9375q-1.84375 -1.078125 -2.828125 -2.8125q-0.984375 -1.734375 -0.984375 -4.09375q0 -2.46875 0.953125 -4.21875q0.953125 -1.75 2.65625 -2.75q1.71875 -1.015625 3.96875 -1.015625q1.671875 0 2.90625 0.53125q1.234375 0.515625 2.09375 1.578125q0.859375 1.046875 1.25 2.40625q0.21875 0.796875 0.25 2.0625l-11.046875 0q-0.046875 0.765625 -0.046875 1.140625q0 1.96875 0.6875 3.515625q0.6875 1.53125 1.8125 2.265625q1.140625 0.71875 2.578125 0.71875q1.21875 0 2.359375 -0.5625q1.140625 -0.578125 2.765625 -2.234375zm-2.0 -6.3125q-0.234375 -1.4375 -0.671875 -2.125q-0.421875 -0.6875 -1.21875 -1.09375q-0.78125 -0.40625 -1.765625 -0.40625q-0.984375 0 -1.84375 0.40625q-0.859375 0.40625 -1.4375 1.125q-0.5625 0.71875 -0.984375 2.09375l7.921875 0zm4.6875 -4.734375l7.859375 0l0 1.3125l-0.546875 0q-0.46875 0 -0.859375 0.109375q-0.234375 0.0625 -0.390625 0.25q-0.140625 0.171875 -0.140625 0.328125q0 0.359375 0.59375 1.078125l2.234375 2.8125l2.609375 -2.8125q0.71875 -0.78125 0.71875 -1.171875q0 -0.28125 -0.25 -0.4375q-0.25 -0.15625 -1.078125 -0.15625l-0.59375 0l0 -1.3125l6.671875 0l0 1.3125q-0.984375 0.046875 -1.703125 0.40625q-0.703125 0.359375 -1.671875 1.359375l-3.578125 3.71875l4.453125 5.078125l0.171875 0.21875q0.65625 0.84375 1.46875 1.359375q0.453125 0.296875 1.40625 0.3125l0 1.3125l-7.671875 0l0 -1.3125l0.65625 0q0.75 0 0.953125 -0.09375q0.34375 -0.15625 0.34375 -0.53125q0 -0.34375 -0.75 -1.265625l-2.84375 -3.484375l-3.171875 3.484375l-0.3125 0.375l-0.171875 0.1875q-0.390625 0.421875 -0.390625 0.75q0 0.296875 0.234375 0.4375q0.25 0.140625 1.09375 0.140625l0.625 0l0 1.3125l-6.578125 0l0 -1.3125q0.765625 -0.015625 1.203125 -0.15625q0.4375 -0.15625 0.84375 -0.46875q0.703125 -0.5625 1.015625 -0.890625l4.578125 -4.703125l-3.890625 -4.46875q-0.734375 -0.828125 -1.171875 -1.15625q-0.421875 -0.34375 -0.828125 -0.46875q-0.40625 -0.140625 -1.140625 -0.140625l0 -1.3125zm18.34375 2.234375l0 -1.28125q1.171875 0 2.078125 -0.296875q0.90625 -0.296875 1.984375 -1.03125l1.234375 0l0 2.609375q1.953125 -1.546875 3.25 -2.078125q1.296875 -0.53125 2.59375 -0.53125q2.671875 0 4.546875 2.09375q1.890625 2.09375 1.890625 5.453125q0 3.71875 -2.140625 6.09375q-1.953125 2.1875 -5.03125 2.1875q-1.53125 0 -2.875 -0.578125q-0.96875 -0.40625 -2.234375 -1.453125l0 5.140625q0 1.15625 0.0625 1.359375q0.078125 0.296875 0.3125 0.5q0.234375 0.203125 0.59375 0.265625q0.265625 0.046875 1.78125 0.046875l0 1.3125l-8.046875 0l0 -1.3125l0.703125 0q1.078125 0 1.390625 -0.171875q0.328125 -0.15625 0.484375 -0.5q0.09375 -0.265625 0.09375 -1.625l0 -16.203125l-2.671875 0zm5.296875 1.609375l0 5.375q0 1.0625 0.125 1.578125q0.1875 0.796875 0.71875 1.4375q0.546875 0.640625 1.46875 1.09375q0.9375 0.453125 1.953125 0.453125q2.03125 0 3.515625 -1.53125q1.5 -1.53125 1.5 -4.640625q0 -2.90625 -1.234375 -4.484375q-1.234375 -1.59375 -2.921875 -1.59375q-1.09375 0 -2.375 0.578125q-1.28125 0.578125 -2.75 1.734375zm28.078125 7.203125l1.0 0.8125q-1.140625 1.359375 -2.21875 2.15625q-1.0625 0.796875 -2.015625 1.109375q-0.953125 0.328125 -2.234375 0.328125q-2.296875 0 -3.90625 -0.9375q-1.84375 -1.078125 -2.828125 -2.8125q-0.984375 -1.734375 -0.984375 -4.09375q0 -2.46875 0.953125 -4.21875q0.953125 -1.75 2.65625 -2.75q1.71875 -1.015625 3.96875 -1.015625q1.671875 0 2.90625 0.53125q1.234375 0.515625 2.09375 1.578125q0.859375 1.046875 1.25 2.40625q0.21875 0.796875 0.25 2.0625l-11.046875 0q-0.046875 0.765625 -0.046875 1.140625q0 1.96875 0.6875 3.515625q0.6875 1.53125 1.8125 2.265625q1.140625 0.71875 2.578125 0.71875q1.21875 0 2.359375 -0.5625q1.140625 -0.578125 2.765625 -2.234375zm-2.0 -6.3125q-0.234375 -1.4375 -0.671875 -2.125q-0.421875 -0.6875 -1.21875 -1.09375q-0.78125 -0.40625 -1.765625 -0.40625q-0.984375 0 -1.84375 0.40625q-0.859375 0.40625 -1.4375 1.125q-0.5625 0.71875 -0.984375 2.09375l7.921875 0zm5.234375 -2.5l0 -1.28125q1.140625 -0.09375 2.03125 -0.375q0.890625 -0.296875 2.03125 -0.953125l1.171875 0l0 2.953125q1.109375 -1.359375 2.578125 -2.15625q1.46875 -0.796875 2.640625 -0.796875q1.15625 0 1.828125 0.546875q0.671875 0.546875 0.671875 1.328125q0 0.5625 -0.453125 1.0q-0.4375 0.421875 -1.0625 0.421875q-0.28125 0 -0.484375 -0.078125q-0.203125 -0.078125 -0.59375 -0.34375q-0.859375 -0.5625 -1.4375 -0.5625q-0.78125 0 -1.71875 0.65625q-1.1875 0.84375 -1.859375 1.65625l0 7.203125q0 0.9375 0.09375 1.28125q0.109375 0.328125 0.34375 0.578125q0.234375 0.234375 0.578125 0.34375q0.34375 0.109375 1.203125 0.109375l0.515625 0l0 1.3125l-8.078125 0l0 -1.3125l0.671875 0q0.953125 0 1.25 -0.171875q0.40625 -0.234375 0.59375 -0.640625q0.203125 -0.421875 0.203125 -1.5l0 -9.21875l-2.71875 0zm17.96875 -9.65625q0.75 0 1.28125 0.53125q0.53125 0.515625 0.53125 1.265625q0 0.75 -0.53125 1.28125q-0.53125 0.53125 -1.28125 0.53125q-0.75 0 -1.28125 -0.53125q-0.53125 -0.53125 -0.53125 -1.28125q0 -0.75 0.53125 -1.265625q0.53125 -0.53125 1.28125 -0.53125zm-3.984375 9.671875l0 -1.296875q1.296875 -0.15625 2.171875 -0.4375q0.890625 -0.28125 2.015625 -0.890625l1.140625 0l0 12.53125q0 0.65625 0.1875 0.984375q0.1875 0.328125 0.515625 0.484375q0.34375 0.140625 1.234375 0.140625l0.734375 0l0 1.3125l-8.0 0l0 -1.3125l0.640625 0q1.046875 0 1.40625 -0.1875q0.359375 -0.1875 0.5 -0.53125q0.15625 -0.34375 0.15625 -1.609375l0 -9.1875l-2.703125 0zm23.09375 8.796875l1.0 0.8125q-1.140625 1.359375 -2.21875 2.15625q-1.0625 0.796875 -2.015625 1.109375q-0.953125 0.328125 -2.234375 0.328125q-2.296875 0 -3.90625 -0.9375q-1.84375 -1.078125 -2.828125 -2.8125q-0.984375 -1.734375 -0.984375 -4.09375q0 -2.46875 0.953125 -4.21875q0.953125 -1.75 2.65625 -2.75q1.71875 -1.015625 3.96875 -1.015625q1.671875 0 2.90625 0.53125q1.234375 0.515625 2.09375 1.578125q0.859375 1.046875 1.25 2.40625q0.21875 0.796875 0.25 2.0625l-11.046875 0q-0.046875 0.765625 -0.046875 1.140625q0 1.96875 0.6875 3.515625q0.6875 1.53125 1.8125 2.265625q1.140625 0.71875 2.578125 0.71875q1.21875 0 2.359375 -0.5625q1.140625 -0.578125 2.765625 -2.234375zm-2.0 -6.3125q-0.234375 -1.4375 -0.671875 -2.125q-0.421875 -0.6875 -1.21875 -1.09375q-0.78125 -0.40625 -1.765625 -0.40625q-0.984375 0 -1.84375 0.40625q-0.859375 0.40625 -1.4375 1.125q-0.5625 0.71875 -0.984375 2.09375l7.921875 0zm5.28125 -2.484375l0 -1.3125q1.390625 -0.15625 2.078125 -0.375q0.6875 -0.21875 1.984375 -0.9375l1.125 0l0 2.96875q2.0625 -1.734375 3.515625 -2.34375q1.46875 -0.625 2.96875 -0.625q1.28125 0 2.265625 0.4375q0.984375 0.421875 1.59375 1.15625q0.625 0.734375 0.828125 1.671875q0.125 0.578125 0.125 1.75l0 6.875q0 1.234375 0.171875 1.59375q0.1875 0.34375 0.578125 0.5q0.390625 0.15625 1.921875 0.15625l0 1.3125l-8.046875 0l0 -1.3125l0.4375 0q1.125 0 1.53125 -0.203125q0.40625 -0.203125 0.578125 -0.59375q0.1875 -0.390625 0.1875 -1.59375l0 -5.75q0 -1.78125 -0.296875 -2.46875q-0.28125 -0.6875 -0.984375 -1.109375q-0.6875 -0.4375 -1.75 -0.4375q-1.265625 0 -2.703125 0.65625q-1.4375 0.640625 -2.78125 1.90625l0 7.203125q0 1.21875 0.171875 1.625q0.1875 0.40625 0.59375 0.609375q0.28125 0.15625 1.5 0.15625l0.453125 0l0 1.3125l-8.046875 0l0 -1.3125l0.390625 0q1.15625 0 1.578125 -0.1875q0.421875 -0.203125 0.59375 -0.703125q0.09375 -0.25 0.09375 -1.71875l0 -8.90625l-2.65625 0zm34.921875 8.46875l1.0 0.8125q-2.9375 3.921875 -7.046875 3.921875q-3.203125 0 -5.40625 -2.28125q-2.203125 -2.28125 -2.203125 -5.671875q0 -2.265625 1.015625 -4.0625q1.03125 -1.8125 2.84375 -2.8125q1.828125 -1.0 4.1875 -1.0q2.6875 0 4.484375 1.328125q1.796875 1.3125 1.796875 2.65625q0 0.71875 -0.421875 1.109375q-0.421875 0.390625 -0.953125 0.390625q-0.28125 0 -0.546875 -0.140625q-0.265625 -0.140625 -0.546875 -0.453125q-0.125 -0.140625 -0.453125 -0.875q-0.421875 -0.90625 -0.65625 -1.21875q-0.484375 -0.625 -1.203125 -0.984375q-0.703125 -0.359375 -1.578125 -0.359375q-1.328125 0 -2.46875 0.734375q-1.125 0.734375 -1.796875 2.171875q-0.65625 1.421875 -0.65625 3.40625q0 3.078125 1.640625 4.890625q1.421875 1.5625 3.390625 1.5625q0.90625 0 1.828125 -0.296875q0.9375 -0.3125 1.765625 -0.90625q0.609375 -0.421875 1.984375 -1.921875zm16.203125 0.328125l1.0 0.8125q-1.140625 1.359375 -2.21875 2.15625q-1.0625 0.796875 -2.015625 1.109375q-0.953125 0.328125 -2.234375 0.328125q-2.296875 0 -3.90625 -0.9375q-1.84375 -1.078125 -2.828125 -2.8125q-0.984375 -1.734375 -0.984375 -4.09375q0 -2.46875 0.953125 -4.21875q0.953125 -1.75 2.65625 -2.75q1.71875 -1.015625 3.96875 -1.015625q1.671875 0 2.90625 0.53125q1.234375 0.515625 2.09375 1.578125q0.859375 1.046875 1.25 2.40625q0.21875 0.796875 0.25 2.0625l-11.046875 0q-0.046875 0.765625 -0.046875 1.140625q0 1.96875 0.6875 3.515625q0.6875 1.53125 1.8125 2.265625q1.140625 0.71875 2.578125 0.71875q1.21875 0 2.359375 -0.5625q1.140625 -0.578125 2.765625 -2.234375zm-2.0 -6.3125q-0.234375 -1.4375 -0.671875 -2.125q-0.421875 -0.6875 -1.21875 -1.09375q-0.78125 -0.40625 -1.765625 -0.40625q-0.984375 0 -1.84375 0.40625q-0.859375 0.40625 -1.4375 1.125q-0.5625 0.71875 -0.984375 2.09375l7.921875 0z" fill-rule="nonzero"/><path fill="#000000" d="m24.813566 379.8085q1.71875 0 3.375 0.890625q1.65625 0.890625 2.578125 2.546875q0.921875 1.65625 0.921875 3.4375q0 2.859375 -2.015625 4.875q-2.015625 2.015625 -4.859375 2.015625q-2.859375 0 -4.875 -2.015625q-2.015625 -2.015625 -2.015625 -4.875q0 -1.796875 0.921875 -3.4375q0.921875 -1.65625 2.578125 -2.546875q1.65625 -0.890625 3.390625 -0.890625z" fill-rule="nonzero"/><path fill="#000000" d="m59.96982 373.91788l6.890625 0l6.4375 17.265625l6.265625 -17.265625l6.65625 0l0 1.328125l-0.5625 0q-1.015625 0 -1.375 0.171875q-0.34375 0.171875 -0.546875 0.609375q-0.203125 0.421875 -0.203125 1.40625l0 14.375q0 1.359375 0.15625 1.765625q0.171875 0.40625 0.546875 0.625q0.390625 0.203125 1.421875 0.203125l0.5625 0l0 1.3125l-8.328125 0l0 -1.3125l0.59375 0q0.796875 0 1.15625 -0.125q0.375 -0.125 0.609375 -0.40625q0.25 -0.296875 0.28125 -0.609375q0.078125 -0.640625 0.078125 -1.0l0 -16.046875l-7.109375 19.5l-1.546875 0l-7.171875 -19.21875l0 15.453125q0 1.171875 0.203125 1.59375q0.203125 0.40625 0.625 0.640625q0.4375 0.21875 1.546875 0.21875l0.5 0l0 1.3125l-7.6875 0l0 -1.3125l0.4375 0q1.109375 0 1.578125 -0.234375q0.484375 -0.234375 0.6875 -0.65625q0.203125 -0.4375 0.203125 -1.703125l0 -14.234375q0 -1.1875 -0.171875 -1.5625q-0.171875 -0.390625 -0.578125 -0.578125q-0.390625 -0.1875 -1.40625 -0.1875l-0.75 0l0 -1.328125zm27.765625 6.71875l7.59375 0l0 1.3125l-0.625 0q-0.890625 0 -1.0625 0.046875q-0.203125 0.0625 -0.34375 0.265625q-0.140625 0.1875 -0.140625 0.484375q0 0.421875 0.421875 1.421875l3.625 8.515625l3.359375 -8.140625q0.59375 -1.4375 0.59375 -1.90625q0 -0.359375 -0.265625 -0.515625q-0.265625 -0.171875 -1.203125 -0.171875l-0.734375 0l0 -1.3125l6.390625 0l0 1.3125l-0.375 0q-0.9375 0 -1.21875 0.125q-0.28125 0.125 -0.546875 0.515625q-0.265625 0.375 -0.84375 1.734375l-5.734375 13.359375q-0.625 1.4375 -1.390625 2.65625q-0.765625 1.234375 -1.921875 1.90625q-1.15625 0.671875 -2.546875 0.671875q-1.609375 0 -2.578125 -0.734375q-0.828125 -0.625 -0.828125 -1.5625q0 -0.578125 0.359375 -0.96875q0.359375 -0.375 0.84375 -0.375q0.375 0 0.703125 0.15625q0.203125 0.078125 0.84375 0.65625q0.78125 0.6875 1.09375 0.84375q0.328125 0.15625 0.640625 0.15625q0.640625 0 1.265625 -0.4375q0.625 -0.4375 1.0625 -1.234375q0.625 -1.140625 1.03125 -2.140625l0.640625 -1.5625l-5.15625 -11.546875q-0.546875 -1.21875 -0.921875 -1.640625q-0.375 -0.421875 -0.75 -0.515625q-0.203125 -0.0625 -1.28125 -0.0625l0 -1.3125zm32.953125 -5.3125l1.109375 0l0 5.3125l4.640625 0l0 1.5625l-4.640625 0l0 9.421875q0 1.203125 0.203125 1.71875q0.21875 0.515625 0.71875 0.84375q0.515625 0.328125 1.140625 0.328125q1.484375 0 3.28125 -1.328125l0 1.515625q-2.046875 1.390625 -4.140625 1.390625q-1.1875 0 -2.15625 -0.53125q-0.953125 -0.53125 -1.3125 -1.25q-0.34375 -0.71875 -0.34375 -2.5l0 -9.609375l-2.734375 0l0 -1.3125q1.3125 -0.296875 2.109375 -0.921875q0.8125 -0.625 1.3125 -1.625q0.5 -1.0 0.8125 -3.015625zm8.046875 0.125l0 -1.34375q1.515625 -0.203125 2.359375 -0.46875q0.84375 -0.28125 1.765625 -0.84375l1.21875 0l0 10.328125q1.765625 -1.484375 3.34375 -2.171875q1.578125 -0.6875 3.015625 -0.6875q2.09375 0 3.453125 1.25q1.34375 1.25 1.34375 3.046875l0 7.671875q0 1.140625 0.171875 1.5q0.1875 0.34375 0.609375 0.515625q0.421875 0.15625 1.890625 0.15625l0 1.3125l-8.0625 0l0 -1.3125l0.59375 0q1.140625 0 1.5 -0.171875q0.359375 -0.1875 0.515625 -0.59375q0.171875 -0.421875 0.171875 -1.71875l0 -5.328125q0 -1.765625 -0.125 -2.296875q-0.234375 -0.90625 -0.96875 -1.453125q-0.734375 -0.546875 -1.875 -0.546875q-1.28125 0 -2.6875 0.640625q-1.390625 0.625 -2.890625 1.890625l0 7.828125q0 0.875 0.15625 1.171875q0.15625 0.296875 0.515625 0.4375q0.359375 0.140625 1.4375 0.140625l0.640625 0l0 1.3125l-8.09375 0l0 -1.3125l0.484375 0q1.140625 0 1.65625 -0.28125q0.28125 -0.140625 0.40625 -0.546875q0.125 -0.40625 0.125 -2.25l0 -15.875l-2.671875 0zm29.015625 4.8125q2.296875 0 3.96875 0.953125q1.6875 0.953125 2.65625 2.78125q0.96875 1.828125 0.96875 4.171875q0 2.34375 -1.0 4.171875q-0.984375 1.828125 -2.703125 2.796875q-1.703125 0.953125 -4.078125 0.953125q-3.78125 0 -5.6875 -2.359375q-1.890625 -2.359375 -1.890625 -5.546875q0 -2.328125 0.984375 -4.125q0.984375 -1.8125 2.75 -2.796875q1.78125 -1.0 4.03125 -1.0zm-0.125 1.515625q-1.78125 0 -3.015625 1.40625q-1.5625 1.75 -1.5625 5.09375q0 3.21875 1.328125 4.90625q1.203125 1.5 3.265625 1.5q1.328125 0 2.359375 -0.703125q1.046875 -0.703125 1.6875 -2.234375q0.640625 -1.546875 0.640625 -3.625q0 -2.03125 -0.6875 -3.640625q-0.53125 -1.28125 -1.609375 -1.984375q-1.0625 -0.71875 -2.40625 -0.71875zm9.3125 -1.140625l5.921875 -0.234375l0 10.0625q0 1.328125 0.359375 2.109375q0.375 0.78125 1.125 1.21875q0.765625 0.421875 1.78125 0.421875q1.25 0 2.828125 -0.671875q1.59375 -0.671875 3.171875 -2.0l0 -7.28125q0 -1.15625 -0.171875 -1.515625q-0.171875 -0.359375 -0.609375 -0.578125q-0.4375 -0.21875 -1.375 -0.21875l-1.140625 0l0 -1.3125l5.921875 -0.234375l0 11.65625q0 1.125 0.1875 1.5625q0.1875 0.421875 0.546875 0.609375q0.375 0.171875 1.484375 0.171875l0.484375 0l0 1.3125l-5.1875 0.265625l0 -2.890625q-2.140625 1.703125 -3.734375 2.359375q-1.59375 0.640625 -3.234375 0.640625q-1.21875 0 -2.125 -0.328125q-0.890625 -0.328125 -1.578125 -0.984375q-0.671875 -0.65625 -1.03125 -1.578125q-0.359375 -0.921875 -0.359375 -1.96875l0 -7.109375q0 -0.953125 -0.171875 -1.328125q-0.171875 -0.390625 -0.578125 -0.609375q-0.390625 -0.234375 -1.078125 -0.234375l-1.4375 0l0 -1.3125zm34.6875 1.234375q0.703125 -0.828125 1.421875 -1.21875q0.734375 -0.390625 1.34375 -0.390625q0.5625 0 0.9375 0.34375q0.390625 0.328125 0.390625 0.8125q0 0.5 -0.34375 0.84375q-0.34375 0.34375 -0.875 0.34375q-0.21875 0 -0.59375 -0.078125q-0.4375 -0.109375 -0.734375 -0.109375q-0.390625 0 -0.8125 0.359375q0.96875 1.171875 0.96875 2.75q0 2.15625 -1.8125 3.734375q-1.8125 1.578125 -4.578125 1.578125q-1.53125 0 -3.078125 -0.640625q-1.03125 0.734375 -1.171875 0.90625q-0.21875 0.265625 -0.21875 0.5625q0 0.453125 0.46875 0.75q0.59375 0.390625 2.34375 0.65625l4.515625 0.671875q1.5 0.234375 3.015625 0.78125q1.515625 0.546875 2.1875 1.421875q0.6875 0.875 0.6875 2.09375q0 2.0625 -1.90625 3.296875q-2.421875 1.578125 -7.1875 1.578125q-2.5 0 -4.0625 -0.53125q-1.5625 -0.53125 -2.421875 -1.5q-0.625 -0.703125 -0.625 -1.453125q0 -0.96875 0.625 -1.890625q0.640625 -0.921875 2.9375 -2.625q-1.484375 -0.375 -2.125 -0.875q-0.8125 -0.640625 -0.8125 -1.453125q0 -0.40625 0.140625 -0.75q0.15625 -0.359375 0.484375 -0.703125q0.34375 -0.359375 1.234375 -0.984375q0.5625 -0.390625 0.796875 -0.578125q-1.140625 -0.8125 -1.71875 -1.8125q-0.578125 -1.015625 -0.578125 -2.21875q0 -1.984375 1.53125 -3.46875q1.859375 -1.8125 5.015625 -1.8125q1.40625 0 2.453125 0.359375q1.046875 0.34375 2.15625 1.25zm-4.75 -0.15625q-1.53125 0 -2.59375 1.109375q-1.0625 1.109375 -1.0625 2.75q0 1.09375 0.484375 1.984375q0.484375 0.875 1.359375 1.390625q0.875 0.5 1.84375 0.5q0.96875 0 1.84375 -0.515625q0.890625 -0.515625 1.359375 -1.390625q0.484375 -0.875 0.484375 -1.96875q0 -1.71875 -1.046875 -2.78125q-1.03125 -1.078125 -2.671875 -1.078125zm-2.484375 13.5625q-1.5 1.28125 -2.0 2.078125q-0.484375 0.796875 -0.484375 1.53125q0 0.625 0.484375 1.203125q0.5 0.59375 1.6875 0.96875q1.1875 0.375 2.984375 0.375q2.125 0 3.640625 -0.46875q1.53125 -0.453125 2.1875 -1.171875q0.484375 -0.5625 0.484375 -1.328125q0 -0.65625 -0.40625 -1.109375q-0.390625 -0.453125 -1.5 -0.796875q-1.09375 -0.328125 -2.046875 -0.484375l-5.03125 -0.796875zm12.4375 -19.828125l0 -1.34375q1.515625 -0.203125 2.359375 -0.46875q0.84375 -0.28125 1.765625 -0.84375l1.21875 0l0 10.328125q1.765625 -1.484375 3.34375 -2.171875q1.578125 -0.6875 3.015625 -0.6875q2.09375 0 3.453125 1.25q1.34375 1.25 1.34375 3.046875l0 7.671875q0 1.140625 0.171875 1.5q0.1875 0.34375 0.609375 0.515625q0.421875 0.15625 1.890625 0.15625l0 1.3125l-8.0625 0l0 -1.3125l0.59375 0q1.140625 0 1.5 -0.171875q0.359375 -0.1875 0.515625 -0.59375q0.171875 -0.421875 0.171875 -1.71875l0 -5.328125q0 -1.765625 -0.125 -2.296875q-0.234375 -0.90625 -0.96875 -1.453125q-0.734375 -0.546875 -1.875 -0.546875q-1.28125 0 -2.6875 0.640625q-1.390625 0.625 -2.890625 1.890625l0 7.828125q0 0.875 0.15625 1.171875q0.15625 0.296875 0.515625 0.4375q0.359375 0.140625 1.4375 0.140625l0.640625 0l0 1.3125l-8.09375 0l0 -1.3125l0.484375 0q1.140625 0 1.65625 -0.28125q0.28125 -0.140625 0.40625 -0.546875q0.125 -0.40625 0.125 -2.25l0 -15.875l-2.671875 0zm25.234375 -0.125l1.109375 0l0 5.3125l4.640625 0l0 1.5625l-4.640625 0l0 9.421875q0 1.203125 0.203125 1.71875q0.21875 0.515625 0.71875 0.84375q0.515625 0.328125 1.140625 0.328125q1.484375 0 3.28125 -1.328125l0 1.515625q-2.046875 1.390625 -4.140625 1.390625q-1.1875 0 -2.15625 -0.53125q-0.953125 -0.53125 -1.3125 -1.25q-0.34375 -0.71875 -0.34375 -2.5l0 -9.609375l-2.734375 0l0 -1.3125q1.3125 -0.296875 2.109375 -0.921875q0.8125 -0.625 1.3125 -1.625q0.5 -1.0 0.8125 -3.015625zm18.625 5.3125l1.09375 0l1.40625 4.78125l-1.40625 0.46875q-0.84375 -1.921875 -2.375 -3.015625q-1.515625 -1.109375 -3.078125 -1.109375q-1.203125 0 -1.953125 0.59375q-0.75 0.578125 -0.75 1.34375q0 0.71875 0.546875 1.234375q0.53125 0.53125 2.390625 1.203125l3.046875 1.078125q2.578125 0.921875 3.515625 1.96875q0.921875 1.0625 0.921875 2.40625q0 1.140625 -0.6875 2.203125q-0.6875 1.046875 -2.0 1.671875q-1.296875 0.625 -2.984375 0.625q-2.625 0 -4.5 -1.5l-0.328125 1.125l-1.109375 0l-1.953125 -5.109375l1.421875 -0.5625q1.421875 2.25 2.6875 3.1875q1.765625 1.328125 3.8125 1.328125q1.359375 0 2.234375 -0.71875q0.875 -0.734375 0.875 -1.625q0 -0.734375 -0.546875 -1.34375q-0.5625 -0.59375 -2.15625 -1.15625l-3.609375 -1.3125q-2.328125 -0.84375 -3.234375 -1.84375q-0.90625 -1.0 -0.90625 -2.296875q0 -1.578125 1.46875 -2.78125q1.484375 -1.21875 3.765625 -1.21875q1.1875 0 2.125 0.3125q0.9375 0.296875 1.84375 1.0l0.421875 -0.9375z" fill-rule="nonzero"/><path xmlns="http://www.w3.org/2000/svg" fill="#000000" d="m406.6614 156.00034l25.007874 0l0 77.291336l-25.007874 0z" fill-rule="evenodd" style="animation-name:alternateDown;animation-duration:1s;animation-iteration-count:infinite;animation-timing-function:ease-in-out;"/><path xmlns="http://www.w3.org/2000/svg" stroke="#000000" stroke-width="1.0" stroke-linejoin="round" stroke-linecap="butt" d="m406.6614 156.00034l25.007874 0l0 77.291336l-25.007874 0z" fill-rule="evenodd" style="animation-name:alternateDown;animation-duration:1s;animation-iteration-count:infinite;animation-timing-function:ease-in-out;"/><path xmlns="http://www.w3.org/2000/svg" fill="#000000" d="m454.99213 156.0l25.007874 0l0 115.590546l-25.007874 0z" fill-rule="evenodd" style="animation-name:alternateDown;animation-duration:1s;animation-iteration-count:infinite;animation-timing-function:ease-in-out;animation-delay:0.5s;"/><path xmlns="http://www.w3.org/2000/svg" stroke="#000000" stroke-width="1.0" stroke-linejoin="round" stroke-linecap="butt" d="m454.99213 156.0l25.007874 0l0 115.590546l-25.007874 0z" fill-rule="evenodd" style="animation-name:alternateDown;animation-duration:1s;animation-iteration-count:infinite;animation-timing-function:ease-in-out;animation-delay:0.5s;"/></g>
<style xmlns="http://www.w3.org/2000/svg">
    @keyframes alternateUp {
        50% {transform:translateY(20px);}
    }
    @keyframes alternateDown {
        50% {transform:translateY(-20px);}
    }
    @keyframes alternateLeft {
        50% {transform:translateX(20px);}
    }
    @keyframes alternateRight {
        50% {transform:translateX(-20px);}
    }
</style>
</svg>