<svg xmlns:xlink="http://www.w3.org/1999/xlink" xmlns="http://www.w3.org/2000/svg" version="1.1" viewBox="0.0 0.0 960.0 540.0" fill="none" stroke="none" stroke-linecap="square" stroke-miterlimit="10"><clipPath id="g65373394ca_0_39.0"><path d="m0 0l960.0 0l0 540.0l-960.0 0l0 -540.0z" clip-rule="nonzero"/></clipPath><g clip-path="url(#g65373394ca_0_39.0)"><path fill="#ffffff" d="m0 0l960.0 0l0 540.0l-960.0 0z" fill-rule="evenodd"/><path xmlns="http://www.w3.org/2000/svg" fill="#000000" d="m720.9767 222.7874l0 -25.007874l77.29138 0l0 25.007874z" fill-rule="evenodd" style="animation-name:alternateRight;animation-duration:1s;animation-iteration-count:infinite;animation-timing-function:ease-in-out;animation-delay:0.5s;"/><path xmlns="http://www.w3.org/2000/svg" stroke="#000000" stroke-width="1.0" stroke-linejoin="round" stroke-linecap="butt" d="m720.9767 222.7874l0 -25.007874l77.29138 0l0 25.007874z" fill-rule="evenodd" style="animation-name:alternateRight;animation-duration:1s;animation-iteration-count:infinite;animation-timing-function:ease-in-out;animation-delay:0.5s;"/><path xmlns="http://www.w3.org/2000/svg" fill="#000000" d="m720.9764 174.4567l0 -25.007874l115.590576 0l0 25.007874z" fill-rule="evenodd" style="animation-name:alternateRight;animation-duration:1s;animation-iteration-count:infinite;animation-timing-function:ease-in-out;"/><path xmlns="http://www.w3.org/2000/svg" stroke="#000000" stroke-width="1.0" stroke-linejoin="round" stroke-linecap="butt" d="m720.9764 174.4567l0 -25.007874l115.590576 0l0 25.007874z" fill-rule="evenodd" style="animation-name:alternateRight;animation-duration:1s;animation-iteration-count:infinite;animation-timing-function:ease-in-out;"/><path fill="#000000" fill-opacity="0.0" d="m0 0l960.0 0l0 117.07087l-960.0 0z" fill-rule="evenodd"/><path fill="#000000" d="m82.21484 32.835426l21.015625 0l0 3.328125l-1.453125 0q-2.5 0 -3.578125 0.46875q-1.0625 0.46875 -1.5 1.640625q-0.34375 0.859375 -0.34375 3.625l0 15.203125l28.234375 0l0 -14.8125q0 -3.0 -0.1875 -3.625q-0.3125 -1.25 -1.359375 -1.875q-1.03125 -0.625 -3.140625 -0.625l-2.140625 0l0 -3.328125l20.859375 0l0 3.328125l-1.875 0q-2.1875 0 -3.109375 0.484375q-0.921875 0.484375 -1.296875 1.328125q-0.359375 0.84375 -0.359375 3.609375l0 37.109375q0 3.09375 0.390625 3.9375q0.390625 0.828125 1.5625 1.1875q0.703125 0.234375 4.6875 0.234375l0 3.28125l-20.859375 0l0 -3.28125l1.515625 0q2.890625 0 3.84375 -0.390625q0.96875 -0.390625 1.234375 -1.25q0.234375 -0.671875 0.234375 -4.1875l0 -16.90625l-28.234375 0l0 17.375q0 3.09375 0.40625 3.953125q0.40625 0.859375 1.578125 1.171875q0.859375 0.234375 4.890625 0.234375l0 3.28125l-21.015625 0l0 -3.28125l1.328125 0q3.046875 0 3.796875 -0.328125q0.765625 -0.34375 1.21875 -1.28125q0.453125 -0.9375 0.453125 -3.3125l0 -37.546875q0 -2.53125 -0.421875 -3.5q-0.40625 -0.984375 -1.28125 -1.453125q-0.875 -0.46875 -2.90625 -0.46875l-2.1875 0l0 -3.328125zm96.515625 44.421875l2.5 2.03125q-2.84375 3.390625 -5.53125 5.390625q-2.671875 1.984375 -5.0625 2.78125q-2.375 0.8125 -5.578125 0.8125q-5.734375 0 -9.765625 -2.34375q-4.609375 -2.703125 -7.078125 -7.03125q-2.453125 -4.34375 -2.453125 -10.234375q0 -6.171875 2.375 -10.546875q2.390625 -4.375 6.671875 -6.890625q4.28125 -2.53125 9.90625 -2.53125q4.171875 0 7.25 1.3125q3.09375 1.3125 5.234375 3.953125q2.15625 2.625 3.140625 6.03125q0.546875 1.984375 0.625 5.15625l-27.625 0q-0.109375 1.90625 -0.109375 2.84375q0 4.921875 1.71875 8.78125q1.71875 3.84375 4.546875 5.65625q2.828125 1.8125 6.421875 1.8125q3.046875 0 5.890625 -1.421875q2.859375 -1.421875 6.921875 -5.5625zm-5.0 -15.78125q-0.578125 -3.59375 -1.65625 -5.3125q-1.078125 -1.71875 -3.046875 -2.734375q-1.96875 -1.015625 -4.4375 -1.015625q-2.453125 0 -4.609375 1.015625q-2.140625 1.015625 -3.578125 2.8125q-1.421875 1.796875 -2.46875 5.234375l19.796875 0zm41.257812 3.234375l0 -4.25q0 -4.34375 -2.421875 -6.1875q-2.421875 -1.859375 -6.84375 -1.859375q-2.1875 0 -3.828125 0.53125q-1.640625 0.515625 -2.640625 1.4375q-0.984375 0.921875 -1.453125 2.09375q-0.203125 0.421875 -0.9375 3.3125q-0.90625 3.515625 -3.640625 3.515625q-1.5625 0 -2.515625 -1.03125q-0.953125 -1.03125 -0.953125 -2.796875q0 -2.578125 1.90625 -5.046875q1.921875 -2.484375 5.84375 -4.109375q3.921875 -1.625 9.28125 -1.625q5.0 0 8.546875 1.546875q3.5625 1.546875 5.234375 4.4375q1.171875 1.984375 1.171875 7.265625l0 15.03125q0 3.203125 0.203125 4.1875q0.421875 1.671875 1.5 2.515625q1.078125 0.84375 2.796875 0.84375q1.796875 0 4.296875 -0.859375l0 3.390625q-3.25 0.953125 -5.828125 0.953125q-2.765625 0 -4.671875 -0.78125q-1.890625 -0.796875 -3.109375 -2.296875q-1.203125 -1.5 -1.546875 -3.578125q-4.6875 3.671875 -8.484375 5.171875q-3.78125 1.484375 -7.65625 1.484375q-5.390625 0 -8.75 -2.9375q-3.359375 -2.9375 -3.359375 -6.875q0 -2.390625 1.234375 -4.53125q1.234375 -2.15625 3.75 -3.796875q2.515625 -1.640625 7.90625 -2.890625q5.390625 -1.25 14.96875 -2.265625zm0 3.40625q-9.0625 1.328125 -11.21875 1.828125q-4.25 0.984375 -6.09375 2.15625q-1.828125 1.171875 -2.609375 2.515625q-0.78125 1.34375 -0.78125 2.875q0 1.515625 0.875 2.953125q0.875 1.421875 2.46875 2.25q1.609375 0.8125 3.40625 0.8125q2.546875 0 5.75 -1.203125q3.203125 -1.21875 8.203125 -4.734375l0 -9.453125zm17.890625 -31.609375l0 -3.203125q5.3125 -0.390625 10.34375 -3.28125l2.890625 0l0 48.09375q0 3.046875 0.390625 3.828125q0.515625 1.09375 1.484375 1.609375q0.984375 0.5 3.75 0.5l1.25 0l0 3.28125l-20.109375 0l0 -3.28125l2.03125 0q1.90625 0 2.859375 -0.578125q0.96875 -0.59375 1.375 -1.609375q0.40625 -1.015625 0.40625 -4.0625l0 -41.296875l-6.671875 0zm34.6875 -0.15625l2.765625 0l0 13.28125l11.609375 0l0 3.90625l-11.609375 0l0 23.5625q0 3.0 0.53125 4.296875q0.53125 1.28125 1.796875 2.109375q1.265625 0.8125 2.828125 0.8125q3.71875 0 8.203125 -3.3125l0 3.78125q-5.109375 3.484375 -10.34375 3.484375q-2.96875 0 -5.375 -1.328125q-2.40625 -1.328125 -3.28125 -3.125q-0.875 -1.796875 -0.875 -6.25l0 -24.03125l-6.84375 0l0 -3.28125q3.28125 -0.734375 5.296875 -2.296875q2.015625 -1.5625 3.265625 -4.0625q1.25 -2.5 2.03125 -7.546875zm20.109375 0.3125l0 -3.359375q3.796875 -0.5 5.90625 -1.1875q2.109375 -0.6875 4.40625 -2.09375l3.046875 0l0 25.828125q4.421875 -3.71875 8.359375 -5.4375q3.953125 -1.71875 7.546875 -1.71875q5.234375 0 8.625 3.125q3.359375 3.125 3.359375 7.625l0 19.171875q0 2.859375 0.453125 3.734375q0.453125 0.875 1.5 1.296875q1.0625 0.40625 4.734375 0.40625l0 3.28125l-20.15625 0l0 -3.28125l1.484375 0q2.84375 0 3.734375 -0.453125q0.90625 -0.453125 1.3125 -1.484375q0.421875 -1.03125 0.421875 -4.28125l0 -13.3125q0 -4.421875 -0.3125 -5.75q-0.59375 -2.265625 -2.4375 -3.625q-1.828125 -1.375 -4.671875 -1.375q-3.203125 0 -6.703125 1.59375q-3.5 1.578125 -7.25 4.734375l0 19.578125q0 2.1875 0.390625 2.9375q0.390625 0.734375 1.28125 1.09375q0.90625 0.34375 3.609375 0.34375l1.59375 0l0 3.28125l-20.234375 0l0 -3.28125l1.21875 0q2.84375 0 4.140625 -0.703125q0.703125 -0.359375 1.015625 -1.375q0.3125 -1.015625 0.3125 -5.625l0 -39.6875l-6.6875 0zm106.49219 28.046875l0 -4.25q0 -4.34375 -2.421875 -6.1875q-2.421875 -1.859375 -6.84375 -1.859375q-2.1875 0 -3.828125 0.53125q-1.640625 0.515625 -2.640625 1.4375q-0.984375 0.921875 -1.453125 2.09375q-0.203125 0.421875 -0.9375 3.3125q-0.90625 3.515625 -3.640625 3.515625q-1.5625 0 -2.515625 -1.03125q-0.953125 -1.03125 -0.953125 -2.796875q0 -2.578125 1.90625 -5.046875q1.921875 -2.484375 5.84375 -4.109375q3.921875 -1.625 9.28125 -1.625q5.0 0 8.546875 1.546875q3.5625 1.546875 5.234375 4.4375q1.171875 1.984375 1.171875 7.265625l0 15.03125q0 3.203125 0.203125 4.1875q0.421875 1.671875 1.5 2.515625q1.078125 0.84375 2.796875 0.84375q1.796875 0 4.296875 -0.859375l0 3.390625q-3.25 0.953125 -5.828125 0.953125q-2.765625 0 -4.671875 -0.78125q-1.890625 -0.796875 -3.109375 -2.296875q-1.203125 -1.5 -1.546875 -3.578125q-4.6875 3.671875 -8.484375 5.171875q-3.78125 1.484375 -7.65625 1.484375q-5.390625 0 -8.75 -2.9375q-3.359375 -2.9375 -3.359375 -6.875q0 -2.390625 1.234375 -4.53125q1.234375 -2.15625 3.75 -3.796875q2.515625 -1.640625 7.90625 -2.890625q5.390625 -1.25 14.96875 -2.265625zm0 3.40625q-9.0625 1.328125 -11.21875 1.828125q-4.25 0.984375 -6.09375 2.15625q-1.828125 1.171875 -2.609375 2.515625q-0.78125 1.34375 -0.78125 2.875q0 1.515625 0.875 2.953125q0.875 1.421875 2.46875 2.25q1.609375 0.8125 3.40625 0.8125q2.546875 0 5.75 -1.203125q3.203125 -1.21875 8.203125 -4.734375l0 -9.453125zm18.359375 -12.859375l0 -3.28125q3.46875 -0.390625 5.1875 -0.9375q1.71875 -0.546875 4.96875 -2.34375l2.8125 0l0 7.421875q5.15625 -4.328125 8.796875 -5.875q3.65625 -1.546875 7.40625 -1.546875q3.203125 0 5.65625 1.078125q2.46875 1.078125 4.015625 2.921875q1.546875 1.828125 2.046875 4.171875q0.3125 1.4375 0.3125 4.375l0 17.1875q0 3.078125 0.453125 3.96875q0.453125 0.875 1.421875 1.265625q0.984375 0.390625 4.8125 0.390625l0 3.28125l-20.125 0l0 -3.28125l1.09375 0q2.8125 0 3.828125 -0.5q1.015625 -0.515625 1.46875 -1.484375q0.453125 -0.984375 0.453125 -4.0l0 -14.375q0 -4.453125 -0.734375 -6.171875q-0.71875 -1.71875 -2.453125 -2.78125q-1.734375 -1.078125 -4.390625 -1.078125q-3.171875 0 -6.765625 1.625q-3.59375 1.609375 -6.953125 4.78125l0 18.0q0 3.046875 0.453125 4.0625q0.453125 1.015625 1.46875 1.53125q0.703125 0.390625 3.75 0.390625l1.125 0l0 3.28125l-20.109375 0l0 -3.28125l0.96875 0q2.890625 0 3.9375 -0.484375q1.0625 -0.5 1.5 -1.75q0.234375 -0.625 0.234375 -4.296875l0 -22.265625l-6.640625 0zm77.109375 -18.625l0 -3.328125q2.65625 -0.234375 4.859375 -0.90625q2.203125 -0.6875 5.53125 -2.375l2.921875 0l0 47.390625q0 3.28125 0.15625 3.984375q0.390625 1.484375 1.328125 2.078125q0.9375 0.578125 3.640625 0.578125l1.671875 0l0 3.28125l-13.546875 0.625l0 -6.21875q-3.90625 3.5625 -7.328125 5.046875q-3.421875 1.484375 -6.859375 1.484375q-7.0625 0 -11.734375 -5.6875q-4.671875 -5.6875 -4.671875 -13.6875q0 -5.703125 2.484375 -10.453125q2.484375 -4.75 6.546875 -7.25q4.0625 -2.5 8.90625 -2.5q3.703125 0 6.859375 1.296875q3.171875 1.28125 5.796875 3.859375l0 -17.21875l-6.5625 0zm6.5625 41.25l0 -14.765625q0 -3.171875 -1.203125 -5.171875q-1.1875 -2.015625 -3.90625 -3.5q-2.703125 -1.484375 -5.5625 -1.484375q-3.390625 0 -6.265625 1.859375q-2.875 1.84375 -4.5 5.34375q-1.609375 3.5 -1.609375 8.453125q0 4.6875 1.5 8.109375q1.5 3.421875 4.03125 5.203125q2.546875 1.765625 5.203125 1.765625q2.625 0 5.9375 -1.5q3.328125 -1.5 6.375 -4.3125zm42.414062 -45.046875l19.53125 0l0 3.328125l-2.0625 0q-2.03125 0 -2.78125 0.390625q-1.125 0.625 -1.125 1.875q0 0.890625 0.625 2.84375l11.171875 36.328125l9.6875 -29.84375l-2.265625 -7.21875q-0.828125 -2.578125 -2.5 -3.71875q-1.015625 -0.65625 -3.5625 -0.65625l0 -3.328125l19.375 0l0 3.328125l-1.828125 0q-2.390625 0 -3.21875 0.59375q-0.8125 0.578125 -0.8125 1.59375q0 0.859375 0.625 2.921875l11.21875 36.5625l11.28125 -36.5625q0.59375 -1.90625 0.59375 -2.890625q0 -1.125 -0.78125 -1.671875q-0.78125 -0.546875 -3.09375 -0.546875l-1.953125 0l0 -3.328125l16.640625 0l0 3.328125q-2.109375 -0.046875 -3.140625 0.40625q-1.03125 0.453125 -1.703125 1.296875q-0.65625 0.828125 -1.4375 3.40625l-15.046875 46.0625l-5.65625 0l-10.515625 -32.578125l-10.546875 32.578125l-5.625 0l-14.765625 -46.0625q-1.046875 -3.3125 -2.609375 -4.375q-1.171875 -0.734375 -3.71875 -0.734375l0 -3.328125zm112.109375 44.421875l2.5 2.03125q-2.84375 3.390625 -5.53125 5.390625q-2.671875 1.984375 -5.0625 2.78125q-2.375 0.8125 -5.578125 0.8125q-5.734375 0 -9.765625 -2.34375q-4.609375 -2.703125 -7.078125 -7.03125q-2.453125 -4.34375 -2.453125 -10.234375q0 -6.171875 2.375 -10.546875q2.390625 -4.375 6.671875 -6.890625q4.28125 -2.53125 9.90625 -2.53125q4.171875 0 7.25 1.3125q3.09375 1.3125 5.234375 3.953125q2.15625 2.625 3.140625 6.03125q0.546875 1.984375 0.625 5.15625l-27.625 0q-0.109375 1.90625 -0.109375 2.84375q0 4.921875 1.71875 8.78125q1.71875 3.84375 4.546875 5.65625q2.828125 1.8125 6.421875 1.8125q3.046875 0 5.890625 -1.421875q2.859375 -1.421875 6.921875 -5.5625zm-5.0 -15.78125q-0.578125 -3.59375 -1.65625 -5.3125q-1.078125 -1.71875 -3.046875 -2.734375q-1.96875 -1.015625 -4.4375 -1.015625q-2.453125 0 -4.609375 1.015625q-2.140625 1.015625 -3.578125 2.8125q-1.421875 1.796875 -2.46875 5.234375l19.796875 0zm12.7421875 -24.96875l0 -3.203125q5.3125 -0.390625 10.34375 -3.28125l2.890625 0l0 48.09375q0 3.046875 0.390625 3.828125q0.515625 1.09375 1.484375 1.609375q0.984375 0.5 3.75 0.5l1.25 0l0 3.28125l-20.109375 0l0 -3.28125l2.03125 0q1.90625 0 2.859375 -0.578125q0.96875 -0.59375 1.375 -1.609375q0.40625 -1.015625 0.40625 -4.0625l0 -41.296875l-6.671875 0zm23.984375 0l0 -3.203125q5.3125 -0.390625 10.34375 -3.28125l2.890625 0l0 48.09375q0 3.046875 0.390625 3.828125q0.515625 1.09375 1.484375 1.609375q0.984375 0.5 3.75 0.5l1.25 0l0 3.28125l-20.109375 0l0 -3.28125l2.03125 0q1.90625 0 2.859375 -0.578125q0.96875 -0.59375 1.375 -1.609375q0.40625 -1.015625 0.40625 -4.0625l0 -41.296875l-6.671875 0zm24.453125 18.75l0 -3.28125q3.46875 -0.390625 5.1875 -0.9375q1.71875 -0.546875 4.96875 -2.34375l2.8125 0l0 7.421875q5.15625 -4.328125 8.796875 -5.875q3.65625 -1.546875 7.40625 -1.546875q3.203125 0 5.65625 1.078125q2.46875 1.078125 4.015625 2.921875q1.546875 1.828125 2.046875 4.171875q0.3125 1.4375 0.3125 4.375l0 17.1875q0 3.078125 0.453125 3.96875q0.453125 0.875 1.421875 1.265625q0.984375 0.390625 4.8125 0.390625l0 3.28125l-20.125 0l0 -3.28125l1.09375 0q2.8125 0 3.828125 -0.5q1.015625 -0.515625 1.46875 -1.484375q0.453125 -0.984375 0.453125 -4.0l0 -14.375q0 -4.453125 -0.734375 -6.171875q-0.71875 -1.71875 -2.453125 -2.78125q-1.734375 -1.078125 -4.390625 -1.078125q-3.171875 0 -6.765625 1.625q-3.59375 1.609375 -6.953125 4.78125l0 18.0q0 3.046875 0.453125 4.0625q0.453125 1.015625 1.46875 1.53125q0.703125 0.390625 3.75 0.390625l1.125 0l0 3.28125l-20.109375 0l0 -3.28125l0.96875 0q2.890625 0 3.9375 -0.484375q1.0625 -0.5 1.5 -1.75q0.234375 -0.625 0.234375 -4.296875l0 -22.265625l-6.640625 0zm86.203125 22.0l2.5 2.03125q-2.84375 3.390625 -5.53125 5.390625q-2.671875 1.984375 -5.0625 2.78125q-2.375 0.8125 -5.578125 0.8125q-5.734375 0 -9.765625 -2.34375q-4.609375 -2.703125 -7.078125 -7.03125q-2.453125 -4.34375 -2.453125 -10.234375q0 -6.171875 2.375 -10.546875q2.390625 -4.375 6.671875 -6.890625q4.28125 -2.53125 9.90625 -2.53125q4.171875 0 7.25 1.3125q3.09375 1.3125 5.234375 3.953125q2.15625 2.625 3.140625 6.03125q0.546875 1.984375 0.625 5.15625l-27.625 0q-0.109375 1.90625 -0.109375 2.84375q0 4.921875 1.71875 8.78125q1.71875 3.84375 4.546875 5.65625q2.828125 1.8125 6.421875 1.8125q3.046875 0 5.890625 -1.421875q2.859375 -1.421875 6.921875 -5.5625zm-5.0 -15.78125q-0.578125 -3.59375 -1.65625 -5.3125q-1.078125 -1.71875 -3.046875 -2.734375q-1.96875 -1.015625 -4.4375 -1.015625q-2.453125 0 -4.609375 1.015625q-2.140625 1.015625 -3.578125 2.8125q-1.421875 1.796875 -2.46875 5.234375l19.796875 0zm39.617188 -11.84375l2.734375 0l3.515625 11.953125l-3.515625 1.171875q-2.109375 -4.796875 -5.921875 -7.546875q-3.8125 -2.765625 -7.71875 -2.765625q-3.0 0 -4.875 1.46875q-1.875 1.46875 -1.875 3.375q0 1.796875 1.359375 3.09375q1.328125 1.328125 5.984375 3.0l7.609375 2.703125q6.453125 2.296875 8.796875 4.921875q2.296875 2.65625 2.296875 6.015625q0 2.84375 -1.71875 5.484375q-1.71875 2.640625 -4.984375 4.203125q-3.25 1.5625 -7.46875 1.5625q-6.5625 0 -11.25 -3.75l-0.828125 2.8125l-2.765625 0l-4.890625 -12.78125l3.5625 -1.40625q3.546875 5.625 6.71875 7.96875q4.40625 3.328125 9.53125 3.328125q3.390625 0 5.578125 -1.8125q2.1875 -1.828125 2.1875 -4.046875q0 -1.84375 -1.359375 -3.359375q-1.40625 -1.484375 -5.390625 -2.890625l-9.03125 -3.28125q-5.8125 -2.109375 -8.078125 -4.609375q-2.265625 -2.5 -2.265625 -5.75q0 -3.9375 3.6875 -6.96875q3.6875 -3.03125 9.390625 -3.03125q2.96875 0 5.3125 0.765625q2.34375 0.765625 4.609375 2.515625l1.0625 -2.34375zm41.601562 0l2.734375 0l3.515625 11.953125l-3.515625 1.171875q-2.109375 -4.796875 -5.921875 -7.546875q-3.8125 -2.765625 -7.71875 -2.765625q-3.0 0 -4.875 1.46875q-1.875 1.46875 -1.875 3.375q0 1.796875 1.359375 3.09375q1.328125 1.328125 5.984375 3.0l7.609375 2.703125q6.453125 2.296875 8.796875 4.921875q2.296875 2.65625 2.296875 6.015625q0 2.84375 -1.71875 5.484375q-1.71875 2.640625 -4.984375 4.203125q-3.25 1.5625 -7.46875 1.5625q-6.5625 0 -11.25 -3.75l-0.828125 2.8125l-2.765625 0l-4.890625 -12.78125l3.5625 -1.40625q3.546875 5.625 6.71875 7.96875q4.40625 3.328125 9.53125 3.328125q3.390625 0 5.578125 -1.8125q2.1875 -1.828125 2.1875 -4.046875q0 -1.84375 -1.359375 -3.359375q-1.40625 -1.484375 -5.390625 -2.890625l-9.03125 -3.28125q-5.8125 -2.109375 -8.078125 -4.609375q-2.265625 -2.5 -2.265625 -5.75q0 -3.9375 3.6875 -6.96875q3.6875 -3.03125 9.390625 -3.03125q2.96875 0 5.3125 0.765625q2.34375 0.765625 4.609375 2.515625l1.0625 -2.34375z" fill-rule="nonzero"/><path fill="#ffffff" d="m573.8268 147.59055l114.77167 0l0 117.07086l-114.77167 0z" fill-rule="evenodd"/><path stroke="#ffffff" stroke-width="1.0" stroke-linejoin="round" stroke-linecap="butt" d="m573.8268 147.59055l114.77167 0l0 117.07086l-114.77167 0z" fill-rule="evenodd"/><path fill="#000000" d="m0 117.07087l720.9764 0l0 32.377953l-720.9764 0z" fill-rule="evenodd"/><path stroke="#000000" stroke-width="1.0" stroke-linejoin="round" stroke-linecap="butt" d="m0 117.07087l720.9764 0l0 32.377953l-720.9764 0z" fill-rule="evenodd"/><path fill="#000000" d="m720.9764 149.44882l0 391.3701l-32.37793 0l0 -391.3701z" fill-rule="evenodd"/><path stroke="#000000" stroke-width="1.0" stroke-linejoin="round" stroke-linecap="butt" d="m720.9764 149.44882l0 391.3701l-32.37793 0l0 -391.3701z" fill-rule="evenodd"/><path xmlns="http://www.w3.org/2000/svg" fill="#000000" d="m68.149605 389.92126l0 150.07874l-32.377953 0l0 -150.07874z" fill-rule="evenodd" style="animation-name:alternateUp;animation-duration:1s;animation-iteration-count:infinite;animation-timing-function:ease-in-out;"/><path xmlns="http://www.w3.org/2000/svg" stroke="#000000" stroke-width="1.0" stroke-linejoin="round" stroke-linecap="butt" d="m68.149605 389.92126l0 150.07874l-32.377953 0l0 -150.07874z" fill-rule="evenodd" style="animation-name:alternateUp;animation-duration:1s;animation-iteration-count:infinite;animation-timing-function:ease-in-out;"/><path xmlns="http://www.w3.org/2000/svg" fill="#000000" d="m137.12335 460.56693l0 79.433075l-32.377945 0l0 -79.433075z" fill-rule="evenodd" style="animation-name:alternateUp;animation-duration:1s;animation-iteration-count:infinite;animation-timing-function:ease-in-out;animation-delay:0.5s;"/><path xmlns="http://www.w3.org/2000/svg" stroke="#000000" stroke-width="1.0" stroke-linejoin="round" stroke-linecap="butt" d="m137.12335 460.56693l0 79.433075l-32.377945 0l0 -79.433075z" fill-rule="evenodd" style="animation-name:alternateUp;animation-duration:1s;animation-iteration-count:infinite;animation-timing-function:ease-in-out;animation-delay:0.5s;"/><path fill="#000000" fill-opacity="0.0" d="m0 151.74803l688.59845 0l0 150.07875l-688.59845 0z" fill-rule="evenodd"/><path fill="#000000" d="m241.0961 167.63365l16.8125 0l0 2.65625l-1.15625 0q-2.0 0 -2.859375 0.375q-0.859375 0.375 -1.203125 1.3125q-0.28125 0.6875 -0.28125 2.90625l0 12.15625l22.59375 0l0 -11.84375q0 -2.40625 -0.15625 -2.90625q-0.25 -1.0 -1.078125 -1.5q-0.828125 -0.5 -2.515625 -0.5l-1.71875 0l0 -2.65625l16.6875 0l0 2.65625l-1.5 0q-1.75 0 -2.484375 0.390625q-0.734375 0.390625 -1.03125 1.0625q-0.296875 0.671875 -0.296875 2.890625l0 29.6875q0 2.46875 0.3125 3.140625q0.3125 0.671875 1.25 0.953125q0.5625 0.1875 3.75 0.1875l0 2.625l-16.6875 0l0 -2.625l1.21875 0q2.3125 0 3.078125 -0.3125q0.765625 -0.3125 0.984375 -1.0q0.1875 -0.53125 0.1875 -3.34375l0 -13.53125l-22.59375 0l0 13.90625q0 2.46875 0.328125 3.15625q0.328125 0.6875 1.265625 0.9375q0.6875 0.1875 3.90625 0.1875l0 2.625l-16.8125 0l0 -2.625l1.0625 0q2.4375 0 3.046875 -0.265625q0.609375 -0.265625 0.96875 -1.015625q0.359375 -0.75 0.359375 -2.65625l0 -30.03125q0 -2.03125 -0.328125 -2.8125q-0.328125 -0.78125 -1.03125 -1.15625q-0.703125 -0.375 -2.328125 -0.375l-1.75 0l0 -2.65625zm66.25 12.6875q4.59375 0 7.953125 1.90625q3.359375 1.90625 5.296875 5.5625q1.9375 3.65625 1.9375 8.34375q0 4.6875 -1.984375 8.34375q-1.984375 3.65625 -5.40625 5.578125q-3.421875 1.921875 -8.171875 1.921875q-7.5625 0 -11.359375 -4.71875q-3.796875 -4.71875 -3.796875 -11.09375q0 -4.65625 1.96875 -8.265625q1.96875 -3.609375 5.515625 -5.59375q3.546875 -1.984375 8.046875 -1.984375zm-0.25 3.03125q-3.5625 0 -6.03125 2.8125q-3.125 3.5 -3.125 10.1875q0 6.4375 2.65625 9.8125q2.40625 3.0 6.53125 3.0q2.65625 0 4.734375 -1.40625q2.078125 -1.40625 3.359375 -4.484375q1.28125 -3.078125 1.28125 -7.234375q0 -4.0625 -1.375 -7.28125q-1.0625 -2.5625 -3.203125 -3.984375q-2.140625 -1.421875 -4.828125 -1.421875zm18.625 -2.28125l11.84375 -0.46875l0 20.125q0 2.65625 0.734375 4.21875q0.734375 1.5625 2.25 2.421875q1.515625 0.859375 3.546875 0.859375q2.5 0 5.671875 -1.34375q3.171875 -1.34375 6.328125 -4.0l0 -14.5625q0 -2.3125 -0.34375 -3.03125q-0.34375 -0.71875 -1.21875 -1.15625q-0.875 -0.4375 -2.75 -0.4375l-2.28125 0l0 -2.625l11.84375 -0.46875l0 23.3125q0 2.25 0.375 3.109375q0.375 0.859375 1.109375 1.21875q0.734375 0.359375 2.953125 0.359375l0.96875 0l0 2.625l-10.375 0.53125l0 -5.78125q-4.28125 3.40625 -7.46875 4.703125q-3.1875 1.296875 -6.46875 1.296875q-2.4375 0 -4.234375 -0.65625q-1.796875 -0.65625 -3.15625 -1.96875q-1.359375 -1.3125 -2.078125 -3.15625q-0.71875 -1.84375 -0.71875 -3.9375l0 -14.21875q0 -1.90625 -0.34375 -2.671875q-0.34375 -0.765625 -1.140625 -1.21875q-0.796875 -0.453125 -2.171875 -0.453125l-2.875 0l0 -2.625zm45.15625 4.46875l0 -2.5625q2.28125 -0.1875 4.0625 -0.765625q1.78125 -0.578125 4.0625 -1.890625l2.34375 0l0 5.90625q2.21875 -2.71875 5.15625 -4.3125q2.9375 -1.59375 5.28125 -1.59375q2.3125 0 3.65625 1.09375q1.34375 1.09375 1.34375 2.65625q0 1.125 -0.890625 1.984375q-0.890625 0.859375 -2.140625 0.859375q-0.5625 0 -0.96875 -0.15625q-0.40625 -0.15625 -1.1875 -0.6875q-1.71875 -1.125 -2.875 -1.125q-1.5625 0 -3.4375 1.3125q-2.375 1.6875 -3.71875 3.3125l0 14.40625q0 1.875 0.203125 2.546875q0.203125 0.671875 0.671875 1.15625q0.46875 0.484375 1.15625 0.703125q0.6875 0.21875 2.40625 0.21875l1.03125 0l0 2.625l-16.15625 0l0 -2.625l1.34375 0q1.90625 0 2.5 -0.34375q0.8125 -0.46875 1.203125 -1.296875q0.390625 -0.828125 0.390625 -2.984375l0 -18.4375l-5.4375 0zm49.375 -4.46875l2.1875 0l2.8125 9.5625l-2.8125 0.9375q-1.6875 -3.84375 -4.734375 -6.046875q-3.046875 -2.203125 -6.171875 -2.203125q-2.40625 0 -3.90625 1.171875q-1.5 1.171875 -1.5 2.703125q0 1.4375 1.09375 2.46875q1.0625 1.0625 4.78125 2.40625l6.09375 2.15625q5.15625 1.84375 7.03125 3.9375q1.84375 2.125 1.84375 4.8125q0 2.28125 -1.375 4.390625q-1.375 2.109375 -3.984375 3.359375q-2.609375 1.25 -5.984375 1.25q-5.25 0 -9.0 -3.0l-0.65625 2.25l-2.21875 0l-3.90625 -10.21875l2.84375 -1.125q2.84375 4.5 5.375 6.375q3.53125 2.65625 7.625 2.65625q2.71875 0 4.46875 -1.453125q1.75 -1.453125 1.75 -3.234375q0 -1.46875 -1.09375 -2.6875q-1.125 -1.1875 -4.3125 -2.3125l-7.21875 -2.625q-4.65625 -1.6875 -6.46875 -3.6875q-1.8125 -2.0 -1.8125 -4.59375q0 -3.15625 2.953125 -5.578125q2.953125 -2.421875 7.515625 -2.421875q2.375 0 4.25 0.609375q1.875 0.609375 3.6875 2.015625l0.84375 -1.875zm20.03125 -0.75q1.625 0 2.78125 1.15625q1.15625 1.15625 1.15625 2.78125q0 1.65625 -1.15625 2.8125q-1.15625 1.15625 -2.78125 1.15625q-1.59375 0 -2.75 -1.140625q-1.15625 -1.140625 -1.15625 -2.765625q0 -1.625 1.1875 -2.8125q1.1875 -1.1875 2.71875 -1.1875zm0 23.625q1.65625 0 2.796875 1.140625q1.140625 1.140625 1.140625 2.765625q0 1.625 -1.15625 2.765625q-1.15625 1.140625 -2.78125 1.140625q-1.59375 0 -2.75 -1.140625q-1.15625 -1.140625 -1.15625 -2.765625q0 -1.625 1.140625 -2.765625q1.140625 -1.140625 2.765625 -1.140625z" fill-rule="nonzero"/><path fill="#000000" d="m285.50235 243.88365q4.8125 0 8.40625 2.453125q3.59375 2.453125 5.84375 7.703125q2.25 5.2499847 2.25 12.718735q0 11.0625 -5.53125 17.21875q-4.5 5.0 -11.375 5.0q-4.65625 0 -8.25 -2.484375q-3.59375 -2.484375 -5.8125 -7.453125q-2.21875 -4.96875 -2.21875 -12.625q0 -7.71875 2.171875 -12.593735q2.171875 -4.875 5.921875 -7.40625q3.75 -2.53125 8.59375 -2.53125zm-0.15625 3.09375q-3.25 0 -5.71875 2.375q-2.15625 2.0625 -3.40625 6.5q-1.4375 5.0624847 -1.4375 11.187485q0 4.75 0.890625 8.609375q0.890625 3.859375 2.359375 6.0q1.46875 2.140625 3.328125 3.171875q1.859375 1.03125 3.921875 1.03125q3.09375 0 5.78125 -2.40625q2.15625 -1.96875 3.40625 -5.875q1.5 -4.75 1.5 -11.15625q0 -6.625 -1.53125 -11.249985q-1.53125 -4.625 -3.765625 -6.40625q-2.234375 -1.78125 -5.328125 -1.78125zm51.1875 -4.59375l-21.34375 59.781235l-4.625 0l21.21875 -59.781235l4.75 0zm14.375 18.687485l-3.03125 0.375q-0.25 -2.21875 -0.25 -3.625q0 -3.6874847 2.0 -6.9687347q2.0 -3.28125 5.578125 -5.125q3.578125 -1.84375 8.203125 -1.84375q4.46875 0 7.84375 1.734375q3.375 1.734375 5.171875 4.75q1.796875 3.015625 1.796875 6.8906097q0 3.28125 -1.171875 6.078125q-1.171875 2.796875 -3.765625 5.640625q-1.9375 2.125 -7.84375 6.5q-7.4375 5.5625 -11.40625 8.0625l16.25 0q2.875 0 3.75 -0.53125q1.21875 -0.6875 1.65625 -3.1875l0.28125 -1.78125l2.65625 0l-2.125 11.75l-2.0 0l-0.34375 -1.5625l-27.3125 0l0 -2.625l5.0 -3.78125q5.6875 -4.21875 8.34375 -6.46875q5.03125 -4.25 7.578125 -7.265625q2.546875 -3.015625 3.5 -5.4375q0.953125 -2.421875 0.953125 -5.078125q0 -4.4062347 -2.828125 -7.2187347q-2.828125 -2.8125 -7.359375 -2.8125q-3.25 0 -5.796875 1.40625q-2.546875 1.40625 -4.015625 3.9375q-1.46875 2.53125 -1.46875 5.4687347q0 1.09375 0.15625 2.71875zm52.375 -17.187485q4.8125 0 8.40625 2.453125q3.59375 2.453125 5.84375 7.703125q2.25 5.2499847 2.25 12.718735q0 11.0625 -5.53125 17.21875q-4.5 5.0 -11.375 5.0q-4.65625 0 -8.25 -2.484375q-3.59375 -2.484375 -5.8125 -7.453125q-2.21875 -4.96875 -2.21875 -12.625q0 -7.71875 2.171875 -12.593735q2.171875 -4.875 5.921875 -7.40625q3.75 -2.53125 8.59375 -2.53125zm-0.15625 3.09375q-3.25 0 -5.71875 2.375q-2.15625 2.0625 -3.40625 6.5q-1.4375 5.0624847 -1.4375 11.187485q0 4.75 0.890625 8.609375q0.890625 3.859375 2.359375 6.0q1.46875 2.140625 3.328125 3.171875q1.859375 1.03125 3.921875 1.03125q3.09375 0 5.78125 -2.40625q2.15625 -1.96875 3.40625 -5.875q1.5 -4.75 1.5 -11.15625q0 -6.625 -1.53125 -11.249985q-1.53125 -4.625 -3.765625 -6.40625q-2.234375 -1.78125 -5.328125 -1.78125z" fill-rule="nonzero"/></g>
<style xmlns="http://www.w3.org/2000/svg">
    @keyframes alternateUp {
        50% {transform:translateY(20px);}
    }
    @keyframes alternateDown {
        50% {transform:translateY(-20px);}
    }
    @keyframes alternateLeft {
        50% {transform:translateX(20px);}
    }
    @keyframes alternateRight {
        50% {transform:translateX(-20px);}
    }
</style>
</svg>