<svg xmlns:xlink="http://www.w3.org/1999/xlink" xmlns="http://www.w3.org/2000/svg" version="1.1" viewBox="0.0 0.0 960.0 540.0" fill="none" stroke="none" stroke-linecap="square" stroke-miterlimit="10"><clipPath id="g6f5a830e83_0_39.0"><path d="m0 0l960.0 0l0 540.0l-960.0 0l0 -540.0z" clip-rule="nonzero"/></clipPath><g clip-path="url(#g6f5a830e83_0_39.0)"><path fill="#ffffff" d="m0 0l960.0 0l0 540.0l-960.0 0z" fill-rule="evenodd"/><path xmlns="http://www.w3.org/2000/svg" fill="#cccccc" d="m515.49554 589.68463l-118.58267 -183.3386l-27.118103 17.669312l118.58267 183.3386z" fill-rule="evenodd" style="animation-name:alternateRight;animation-duration:1s;animation-iteration-count:infinite;animation-timing-function:ease-in-out;"/><path xmlns="http://www.w3.org/2000/svg" stroke="#cccccc" stroke-width="1.0" stroke-linejoin="round" stroke-linecap="butt" d="m515.49554 589.68463l-118.58267 -183.3386l-27.118103 17.669312l118.58267 183.3386z" fill-rule="evenodd" style="animation-name:alternateRight;animation-duration:1s;animation-iteration-count:infinite;animation-timing-function:ease-in-out;"/><path xmlns="http://www.w3.org/2000/svg" fill="#cccccc" d="m206.42036 115.16663l-118.58268 -183.33858l-27.11811 17.669289l118.58267 183.33858z" fill-rule="evenodd" style="animation-name:alternateRight;animation-duration:1s;animation-iteration-count:infinite;animation-timing-function:ease-in-out;"/><path xmlns="http://www.w3.org/2000/svg" stroke="#cccccc" stroke-width="1.0" stroke-linejoin="round" stroke-linecap="butt" d="m206.42036 115.16663l-118.58268 -183.33858l-27.11811 17.669289l118.58267 183.33858z" fill-rule="evenodd" style="animation-name:alternateRight;animation-duration:1s;animation-iteration-count:infinite;animation-timing-function:ease-in-out;"/><path xmlns="http://www.w3.org/2000/svg" fill="#cccccc" d="m899.38794 589.68463l-118.5827 -183.3386l-27.118103 17.669312l118.5827 183.3386z" fill-rule="evenodd" style="animation-name:alternateLeft;animation-duration:1s;animation-iteration-count:infinite;animation-timing-function:ease-in-out;"/><path xmlns="http://www.w3.org/2000/svg" stroke="#cccccc" stroke-width="1.0" stroke-linejoin="round" stroke-linecap="butt" d="m899.38794 589.68463l-118.5827 -183.3386l-27.118103 17.669312l118.5827 183.3386z" fill-rule="evenodd" style="animation-name:alternateLeft;animation-duration:1s;animation-iteration-count:infinite;animation-timing-function:ease-in-out;"/><path xmlns="http://www.w3.org/2000/svg" fill="#cccccc" d="m590.31274 115.16663l-118.58267 -183.33858l-27.118103 17.669289l118.58267 183.33858z" fill-rule="evenodd" style="animation-name:alternateLeft;animation-duration:1s;animation-iteration-count:infinite;animation-timing-function:ease-in-out;"/><path xmlns="http://www.w3.org/2000/svg" stroke="#cccccc" stroke-width="1.0" stroke-linejoin="round" stroke-linecap="butt" d="m590.31274 115.16663l-118.58267 -183.33858l-27.118103 17.669289l118.58267 183.33858z" fill-rule="evenodd" style="animation-name:alternateLeft;animation-duration:1s;animation-iteration-count:infinite;animation-timing-function:ease-in-out;"/><path xmlns="http://www.w3.org/2000/svg" fill="#000000" d="m0 256.01575l95.65354 0l0 27.968506l-95.65354 0z" fill-rule="evenodd" style="animation-name:alternateRight;animation-duration:1s;animation-iteration-count:infinite;animation-timing-function:ease-in-out;"/><path xmlns="http://www.w3.org/2000/svg" stroke="#000000" stroke-width="1.0" stroke-linejoin="round" stroke-linecap="butt" d="m0 256.01575l95.65354 0l0 27.968506l-95.65354 0z" fill-rule="evenodd" style="animation-name:alternateRight;animation-duration:1s;animation-iteration-count:infinite;animation-timing-function:ease-in-out;"/><path xmlns="http://www.w3.org/2000/svg" fill="#000000" d="m96.10761 270.40945l0 0c0 -106.03868 85.96133 -192.0 192.0 -192.0l0 0c50.92157 0 99.75754 20.228516 135.7645 56.235497c36.00699 36.00699 56.235504 84.84294 56.235504 135.76451l0 0c0 106.038666 -85.961334 192.0 -192.0 192.0l0 0c-106.038666 0 -192.0 -85.961334 -192.0 -192.0zm33.83808 0l0 0c0 87.3504 70.81151 158.16193 158.16191 158.16193c87.35043 0 158.16193 -70.81152 158.16193 -158.16193l0 0c0 -87.35042 -70.81149 -158.16193 -158.16193 -158.16193l0 0c-87.3504 0 -158.16191 70.81151 -158.16191 158.16193z" fill-rule="evenodd" style="animation-name:alternateRight;animation-duration:1s;animation-iteration-count:infinite;animation-timing-function:ease-in-out;"/><path xmlns="http://www.w3.org/2000/svg" stroke="#000000" stroke-width="1.0" stroke-linejoin="round" stroke-linecap="butt" d="m96.10761 270.40945l0 0c0 -106.03868 85.96133 -192.0 192.0 -192.0l0 0c50.92157 0 99.75754 20.228516 135.7645 56.235497c36.00699 36.00699 56.235504 84.84294 56.235504 135.76451l0 0c0 106.038666 -85.961334 192.0 -192.0 192.0l0 0c-106.038666 0 -192.0 -85.961334 -192.0 -192.0zm33.83808 0l0 0c0 87.3504 70.81151 158.16193 158.16191 158.16193c87.35043 0 158.16193 -70.81152 158.16193 -158.16193l0 0c0 -87.35042 -70.81149 -158.16193 -158.16193 -158.16193l0 0c-87.3504 0 -158.16191 70.81151 -158.16191 158.16193z" fill-rule="evenodd" style="animation-name:alternateRight;animation-duration:1s;animation-iteration-count:infinite;animation-timing-function:ease-in-out;"/><path fill="#000000" fill-opacity="0.0" d="m480.0 78.40945l384.0 0l0 384.0l-384.0 0z" fill-rule="evenodd"/><path xmlns="http://www.w3.org/2000/svg" fill="#000000" d="m585.59375 182.2557l21.3125 0l0 6.03125l-1.875 0q-1.5625 0 -1.96875 0.15625q-0.75 0.3125 -1.09375 0.953125q-0.34375 0.640625 -0.34375 2.046875l0 24.90625q0 1.5 0.140625 1.84375q0.140625 0.34375 0.578125 0.546875q0.4375 0.203125 1.6875 0.203125q4.1875 0 6.734375 -1.09375q2.546875 -1.09375 4.59375 -3.515625q2.046875 -2.421875 3.515625 -6.578125l5.75 1.96875l-5.75 16.125l-33.28125 0l0 -6.03125l2.09375 0q1.28125 0 1.9375 -0.34375q0.65625 -0.34375 0.953125 -0.921875q0.296875 -0.578125 0.296875 -2.015625l0 -24.6875q0 -1.5625 -0.296875 -2.25q-0.296875 -0.6875 -0.84375 -1.0q-0.546875 -0.3125 -1.828125 -0.3125l-2.3125 0l0 -6.03125zm69.0625 32.03125l4.28125 4.3125q-3.6875 4.21875 -7.515625 6.109375q-3.828125 1.890625 -8.265625 1.890625q-7.125 0 -12.0 -4.828125q-4.875 -4.828125 -4.875 -11.671875q0 -4.5 2.1875 -8.234375q2.1875 -3.734375 6.0625 -5.84375q3.875 -2.109375 8.78125 -2.109375q3.125 0 5.6875 0.90625q2.5625 0.90625 4.484375 2.59375q1.921875 1.6875 3.09375 4.078125q1.171875 2.390625 1.609375 4.953125q0.1875 1.28125 0.1875 4.0625l-21.03125 0q0.0625 3.96875 2.328125 6.421875q2.265625 2.453125 5.546875 2.453125q2.09375 0 4.5625 -1.265625q2.46875 -1.265625 4.875 -3.828125zm-6.25 -9.03125q-0.21875 -1.875 -0.890625 -2.953125q-0.671875 -1.078125 -1.8125 -1.71875q-1.140625 -0.640625 -2.390625 -0.640625q-1.3125 0 -2.53125 0.65625q-1.21875 0.65625 -1.953125 1.78125q-0.734375 1.125 -0.953125 2.875l10.53125 0zm34.0 1.6875l0 -2.3125q0 -2.0625 -0.34375 -2.84375q-0.34375 -0.78125 -1.25 -1.296875q-0.90625 -0.515625 -2.25 -0.515625q-1.03125 0 -1.875 0.34375q-0.84375 0.34375 -1.34375 0.875q-0.5 0.53125 -1.15625 2.0625q-0.84375 1.9375 -2.015625 2.78125q-1.171875 0.84375 -2.765625 0.84375q-2.0 0 -3.28125 -1.25q-1.28125 -1.25 -1.28125 -3.09375q0 -2.09375 1.3125 -3.71875q1.75 -2.15625 5.21875 -3.53125q3.46875 -1.375 7.8125 -1.375q4.34375 0 7.390625 1.40625q3.046875 1.40625 4.25 3.359375q1.203125 1.953125 1.203125 5.953125l0 11.1875q0 2.0625 0.21875 2.640625q0.21875 0.578125 0.9375 1.015625q0.71875 0.4375 1.59375 0.4375q0.875 0 2.34375 -0.5l0 6.09375q-2.65625 0.84375 -5.09375 0.84375q-2.875 0 -4.90625 -0.9375q-2.03125 -0.9375 -3.40625 -2.8125q-3.125 2.03125 -5.671875 2.890625q-2.546875 0.859375 -4.921875 0.859375q-4.46875 0 -7.21875 -2.515625q-2.75 -2.515625 -2.75 -6.203125q0 -2.09375 0.953125 -3.84375q0.953125 -1.75 2.84375 -3.0625q1.890625 -1.3125 5.84375 -2.328125q3.953125 -1.015625 9.609375 -1.453125zm0 5.1875q-4.09375 0.59375 -5.78125 1.203125q-1.6875 0.609375 -2.40625 1.53125q-0.71875 0.921875 -0.71875 1.890625q0 1.25 0.9375 2.09375q0.9375 0.84375 2.53125 0.84375q1.03125 0 2.390625 -0.53125q1.359375 -0.53125 3.046875 -1.5625l0 -5.46875zm39.4375 -17.46875l4.09375 0l2.53125 8.6875l-5.90625 2.375q-1.6875 -2.71875 -4.234375 -4.265625q-2.546875 -1.546875 -5.046875 -1.546875q-1.65625 0 -2.46875 0.5625q-0.8125 0.5625 -0.8125 1.34375q0 0.65625 0.578125 1.21875q0.578125 0.5625 2.390625 1.1875l8.59375 3.0625q2.28125 0.8125 4.375 2.03125q2.09375 1.21875 3.140625 2.984375q1.046875 1.765625 1.046875 4.140625q0 4.25 -3.25 6.96875q-3.8125 3.1875 -9.5 3.1875q-4.875 0 -8.5 -2.46875l-0.875 1.71875l-4.15625 0l-3.84375 -10.25l5.90625 -2.5q2.21875 3.46875 5.46875 5.453125q3.25 1.984375 5.96875 1.984375q1.6875 0 2.84375 -0.78125q0.875 -0.625 0.875 -1.46875q0 -0.71875 -0.6875 -1.375q-0.6875 -0.65625 -3.03125 -1.46875l-6.75 -2.34375q-5.59375 -1.96875 -7.609375 -4.203125q-2.015625 -2.234375 -2.015625 -5.296875q0 -3.9375 3.15625 -6.625q3.59375 -3.0625 8.875 -3.0625q4.6875 0 8.03125 2.125l0.8125 -1.375zm26.125 -10.71875l0 10.71875l10.0625 0l0 6.65625l-10.0625 0l0 10.875q0 3.6875 0.390625 4.734375q0.390625 1.046875 1.453125 1.671875q1.40625 0.84375 3.21875 0.84375q3.21875 0 6.40625 -2.09375l0 6.6875q-2.71875 1.28125 -4.921875 1.796875q-2.203125 0.515625 -4.765625 0.515625q-2.90625 0 -5.140625 -0.734375q-2.234375 -0.734375 -3.8125 -2.09375q-1.578125 -1.359375 -2.1875 -2.890625q-0.609375 -1.53125 -0.609375 -4.4375l0 -14.875l-4.6875 0l0 -6.0q2.5 -0.8125 4.28125 -2.328125q1.78125 -1.515625 2.859375 -3.640625q1.078125 -2.125 1.484375 -5.40625l6.03125 0z" fill-rule="nonzero" style="animation-name:alternateLeft;animation-duration:1s;animation-iteration-count:infinite;animation-timing-function:ease-in-out;"/><path xmlns="http://www.w3.org/2000/svg" fill="#000000" d="m566.3906 259.2557l23.03125 0q4.375 0 7.265625 0.890625q2.890625 0.890625 4.96875 2.703125q2.078125 1.8125 3.203125 4.296875q1.125 2.484375 1.125 5.265625q0 5.59375 -4.296875 9.375q-4.296875 3.78125 -11.859375 3.78125l-7.4375 0l0 8.15625q0 1.53125 0.21875 1.9375q0.28125 0.59375 0.859375 0.875q0.578125 0.28125 1.953125 0.28125l2.21875 0l0 6.03125l-21.25 0l0 -6.03125l1.46875 0q1.9375 0 2.5625 -0.28125q0.625 -0.28125 0.90625 -0.890625q0.28125 -0.609375 0.28125 -2.515625l0 -23.96875q0 -2.0 -0.25 -2.640625q-0.25 -0.640625 -0.796875 -0.9375q-0.546875 -0.296875 -2.078125 -0.296875l-2.09375 0l0 -6.03125zm16.0 7.125l0 12.375l3.71875 0q3.40625 0 5.0 -0.703125q1.59375 -0.703125 2.5625 -2.15625q0.96875 -1.453125 0.96875 -3.453125q0 -3.0 -2.3125 -4.75q-1.71875 -1.3125 -5.09375 -1.3125l-4.84375 0zm39.9375 4.53125l0 4.53125q2.5 -2.625 4.328125 -3.578125q1.828125 -0.953125 3.515625 -0.953125q1.53125 0 2.734375 0.703125q1.203125 0.703125 1.90625 2.015625q0.703125 1.3125 0.703125 2.8125q0 1.96875 -1.296875 3.5625q-1.296875 1.59375 -3.640625 1.59375q-0.625 0 -1.109375 -0.09375q-0.484375 -0.09375 -2.046875 -0.625q-0.8125 -0.25 -1.34375 -0.25q-0.8125 0 -2.6875 1.03125l0 12.21875q0 1.5625 0.234375 2.03125q0.234375 0.46875 0.765625 0.6875q0.53125 0.21875 2.3125 0.21875l1.375 0l0 6.03125l-19.28125 0l0 -6.03125l1.59375 0q1.71875 0 2.140625 -0.1875q0.421875 -0.1875 0.640625 -0.65625q0.21875 -0.46875 0.21875 -2.09375l0 -14.34375l-4.59375 0l0 -6.0q5.09375 -0.3125 10.59375 -2.625l2.9375 0zm32.9375 0q5.34375 0 9.3125 2.09375q3.96875 2.09375 6.109375 5.703125q2.140625 3.609375 2.140625 8.453125q0 7.3125 -4.75 11.875q-4.75 4.5625 -12.6875 4.5625q-8.09375 0 -12.875 -4.59375q-4.625 -4.375 -4.625 -11.84375q0 -4.90625 2.109375 -8.4375q2.109375 -3.53125 6.109375 -5.671875q4.0 -2.140625 9.15625 -2.140625zm0.125 6.84375q-1.78125 0 -3.34375 1.0625q-1.5625 1.0625 -2.421875 3.125q-0.859375 2.0625 -0.859375 5.25q0 3.28125 0.84375 5.4375q0.84375 2.15625 2.328125 3.1875q1.484375 1.03125 3.265625 1.03125q2.75 0 4.71875 -2.328125q1.96875 -2.328125 1.96875 -7.234375q0 -4.75 -1.828125 -7.140625q-1.828125 -2.390625 -4.671875 -2.390625zm21.46875 -6.09375l14.59375 -0.28125l0 20.28125q0 2.15625 0.265625 2.875q0.265625 0.71875 0.96875 1.171875q0.703125 0.453125 1.765625 0.453125q1.5625 0 3.3125 -0.75q0.6875 -0.3125 3.65625 -2.21875l0 -12.1875q0 -1.59375 -0.25 -2.1875q-0.25 -0.59375 -0.71875 -0.859375q-0.46875 -0.265625 -1.8125 -0.265625l-1.8125 0l0 -6.03125l14.625 -0.28125l0 22.375q0 1.75 0.203125 2.203125q0.203125 0.453125 0.65625 0.65625q0.453125 0.203125 2.171875 0.203125l1.65625 0l0 6.03125l-13.71875 0.375l0 -3.6875q-2.75 2.03125 -5.53125 3.046875q-2.78125 1.015625 -5.59375 1.015625q-2.25 0 -4.140625 -0.734375q-1.890625 -0.734375 -3.171875 -1.96875q-1.28125 -1.234375 -1.90625 -2.890625q-0.625 -1.65625 -0.625 -4.25l0 -12.875q0 -1.78125 -0.203125 -2.25q-0.203125 -0.46875 -0.671875 -0.703125q-0.46875 -0.234375 -2.0 -0.234375l-1.71875 0l0 -6.03125zm75.375 -14.6875l0 36.34375q0 2.15625 0.1875 2.609375q0.1875 0.453125 0.640625 0.671875q0.453125 0.21875 2.390625 0.21875l1.46875 0l0 6.03125l-13.5625 0.46875l0 -3.21875q-2.9375 1.96875 -5.15625 2.734375q-2.21875 0.765625 -4.4375 0.765625q-3.59375 0 -6.609375 -1.953125q-3.015625 -1.953125 -4.9375 -5.796875q-1.921875 -3.84375 -1.921875 -8.53125q0 -4.75 1.953125 -8.609375q1.953125 -3.859375 5.09375 -5.828125q3.140625 -1.96875 7.015625 -1.96875q2.0 0 3.828125 0.484375q1.828125 0.484375 4.046875 1.703125l0 -7.40625l-4.5625 0l0 -6.0625q3.875 -0.375 6.296875 -0.953125q2.421875 -0.578125 5.234375 -1.703125l3.03125 0zm-10.0 36.9375l0 -10.46875q0 -1.96875 -0.28125 -2.78125q-0.375 -1.15625 -1.703125 -2.03125q-1.328125 -0.875 -2.953125 -0.875q-1.6875 0 -3.125 1.015625q-1.4375 1.015625 -2.28125 3.109375q-0.84375 2.09375 -0.84375 5.21875q0 4.34375 1.90625 6.96875q1.46875 2.0625 3.90625 2.0625q1.0625 0 2.03125 -0.359375q0.96875 -0.359375 3.34375 -1.859375zm27.09375 -23.0q2.375 0 4.09375 1.71875q1.71875 1.71875 1.71875 4.125q0 2.4375 -1.703125 4.15625q-1.703125 1.71875 -4.140625 1.71875q-2.40625 0 -4.109375 -1.71875q-1.703125 -1.71875 -1.703125 -4.125q0 -2.40625 1.734375 -4.140625q1.734375 -1.734375 4.109375 -1.734375zm0 20.8125q2.40625 0 4.109375 1.703125q1.703125 1.703125 1.703125 4.109375q0 2.40625 -1.703125 4.109375q-1.703125 1.703125 -4.109375 1.703125q-2.4375 0 -4.140625 -1.703125q-1.703125 -1.703125 -1.703125 -4.109375q0 -2.40625 1.703125 -4.109375q1.703125 -1.703125 4.140625 -1.703125z" fill-rule="nonzero" style="animation-name:alternateLeft;animation-duration:1s;animation-iteration-count:infinite;animation-timing-function:ease-in-out;"/><path xmlns="http://www.w3.org/2000/svg" fill="#000000" d="m585.4922 331.78632l26.578125 0l3.078125 8.609375l-2.0625 0.765625q-0.78125 -2.109375 -1.703125 -3.3125q-0.90625 -1.203125 -2.1875 -2.046875q-1.265625 -0.84375 -2.578125 -1.125q-1.296875 -0.28125 -4.6875 -0.28125l-7.921875 0l0 11.96875l3.9375 0q2.171875 0 3.28125 -0.734375q1.125 -0.734375 1.546875 -1.84375q0.328125 -0.8125 0.328125 -2.859375l0 -0.53125l2.296875 0l0 14.34375l-2.296875 0l0 -1.25q0 -1.640625 -0.25 -2.359375q-0.25 -0.734375 -0.90625 -1.375q-0.65625 -0.640625 -1.421875 -0.875q-0.75 -0.234375 -2.578125 -0.234375l-3.9375 0l0 10.640625q0 1.65625 0.140625 2.03125q0.15625 0.359375 0.5 0.53125q0.359375 0.15625 1.9375 0.15625l4.890625 0q4.109375 0 6.40625 -0.984375q2.3125 -0.984375 4.078125 -3.03125q1.375 -1.59375 2.640625 -4.5l2.140625 0.75l-3.65625 10.25l-27.59375 0l0 -1.96875l0.9375 0q1.640625 0 2.046875 -0.21875q0.609375 -0.296875 0.9375 -0.984375q0.234375 -0.46875 0.234375 -2.03125l0 -22.5q0 -1.53125 -0.3125 -2.046875q-0.296875 -0.515625 -1.046875 -0.796875q-0.40625 -0.15625 -2.796875 -0.15625l0 -2.0zm34.039062 13.453125l0 -1.96875q2.078125 -0.234375 3.109375 -0.5625q1.03125 -0.328125 2.984375 -1.40625l1.6875 0l0 4.453125q3.09375 -2.59375 5.28125 -3.515625q2.1875 -0.9375 4.4375 -0.9375q1.921875 0 3.390625 0.65625q1.484375 0.640625 2.40625 1.75q0.9375 1.09375 1.234375 2.5q0.1875 0.859375 0.1875 2.625l0 10.3125q0 1.84375 0.265625 2.375q0.28125 0.53125 0.859375 0.765625q0.59375 0.234375 2.890625 0.234375l0 1.96875l-12.078125 0l0 -1.96875l0.65625 0q1.6875 0 2.296875 -0.296875q0.609375 -0.3125 0.875 -0.890625q0.28125 -0.59375 0.28125 -2.40625l0 -8.625q0 -2.671875 -0.4375 -3.703125q-0.4375 -1.03125 -1.484375 -1.671875q-1.03125 -0.640625 -2.625 -0.640625q-1.90625 0 -4.0625 0.96875q-2.15625 0.96875 -4.171875 2.875l0 10.796875q0 1.828125 0.265625 2.4375q0.28125 0.609375 0.890625 0.921875q0.421875 0.234375 2.25 0.234375l0.671875 0l0 1.96875l-12.0625 0l0 -1.96875l0.578125 0q1.734375 0 2.359375 -0.296875q0.640625 -0.296875 0.90625 -1.046875q0.140625 -0.375 0.140625 -2.578125l0 -13.359375l-3.984375 0zm49.78125 -1.515625q1.046875 -1.25 2.140625 -1.828125q1.09375 -0.59375 2.0 -0.59375q0.84375 0 1.421875 0.515625q0.578125 0.5 0.578125 1.21875q0 0.75 -0.515625 1.265625q-0.515625 0.515625 -1.3125 0.515625q-0.328125 0 -0.890625 -0.109375q-0.65625 -0.171875 -1.109375 -0.171875q-0.578125 0 -1.21875 0.546875q1.453125 1.75 1.453125 4.125q0 3.234375 -2.71875 5.609375q-2.71875 2.359375 -6.859375 2.359375q-2.296875 0 -4.625 -0.96875q-1.546875 1.109375 -1.75 1.359375q-0.328125 0.40625 -0.328125 0.84375q0 0.6875 0.703125 1.125q0.890625 0.59375 3.515625 0.984375l6.765625 1.015625q2.25 0.34375 4.515625 1.171875q2.28125 0.8125 3.296875 2.125q1.03125 1.328125 1.03125 3.15625q0 3.09375 -2.859375 4.9375q-3.640625 2.375 -10.78125 2.375q-3.75 0 -6.09375 -0.796875q-2.34375 -0.796875 -3.640625 -2.25q-0.9375 -1.0625 -0.9375 -2.1875q0 -1.453125 0.953125 -2.84375q0.953125 -1.375 4.390625 -3.9375q-2.21875 -0.5625 -3.1875 -1.3125q-1.21875 -0.953125 -1.21875 -2.171875q0 -0.609375 0.21875 -1.140625q0.234375 -0.53125 0.734375 -1.046875q0.5 -0.53125 1.84375 -1.46875q0.84375 -0.59375 1.1875 -0.875q-1.703125 -1.21875 -2.578125 -2.71875q-0.859375 -1.515625 -0.859375 -3.328125q0 -2.96875 2.296875 -5.203125q2.78125 -2.71875 7.515625 -2.71875q2.109375 0 3.671875 0.53125q1.578125 0.53125 3.25 1.890625zm-7.125 -0.234375q-2.296875 0 -3.890625 1.671875q-1.59375 1.65625 -1.59375 4.109375q0 1.640625 0.71875 2.96875q0.734375 1.328125 2.046875 2.09375q1.3125 0.75 2.765625 0.75q1.453125 0 2.765625 -0.765625q1.328125 -0.78125 2.046875 -2.09375q0.71875 -1.3125 0.71875 -2.953125q0 -2.578125 -1.5625 -4.171875q-1.5625 -1.609375 -4.015625 -1.609375zm-3.734375 20.34375q-2.25 1.921875 -2.984375 3.109375q-0.734375 1.203125 -0.734375 2.3125q0 0.9375 0.734375 1.8125q0.734375 0.875 2.515625 1.4375q1.78125 0.5625 4.484375 0.5625q3.1875 0 5.46875 -0.6875q2.28125 -0.6875 3.265625 -1.765625q0.734375 -0.84375 0.734375 -2.0q0 -0.984375 -0.609375 -1.671875q-0.59375 -0.671875 -2.25 -1.171875q-1.640625 -0.5 -3.078125 -0.734375l-7.546875 -1.203125zm18.40625 -29.84375l0 -1.921875q3.1875 -0.234375 6.203125 -1.96875l1.734375 0l0 28.859375q0 1.828125 0.234375 2.296875q0.3125 0.65625 0.890625 0.96875q0.59375 0.296875 2.25 0.296875l0.75 0l0 1.96875l-12.0625 0l0 -1.96875l1.21875 0q1.140625 0 1.71875 -0.34375q0.578125 -0.359375 0.8125 -0.96875q0.25 -0.609375 0.25 -2.4375l0 -24.78125l-4.0 0zm20.4375 -3.25q1.125 0 1.921875 0.78125q0.796875 0.78125 0.796875 1.90625q0 1.125 -0.796875 1.921875q-0.796875 0.796875 -1.921875 0.796875q-1.125 0 -1.921875 -0.796875q-0.796875 -0.796875 -0.796875 -1.921875q0 -1.125 0.796875 -1.90625q0.796875 -0.78125 1.921875 -0.78125zm-5.984375 14.5l0 -1.9375q1.953125 -0.234375 3.265625 -0.65625q1.328125 -0.421875 3.015625 -1.34375l1.71875 0l0 18.796875q0 0.984375 0.28125 1.484375q0.28125 0.484375 0.78125 0.71875q0.5 0.21875 1.84375 0.21875l1.09375 0l0 1.96875l-12.0 0l0 -1.96875l0.96875 0q1.5625 0 2.09375 -0.28125q0.546875 -0.28125 0.765625 -0.796875q0.234375 -0.515625 0.234375 -2.421875l0 -13.78125l-4.0625 0zm30.453125 -3.375l1.640625 0l2.109375 7.171875l-2.109375 0.703125q-1.265625 -2.875 -3.5625 -4.53125q-2.28125 -1.65625 -4.625 -1.65625q-1.796875 0 -2.921875 0.890625q-1.125 0.875 -1.125 2.015625q0 1.078125 0.8125 1.859375q0.796875 0.796875 3.59375 1.796875l4.5625 1.625q3.875 1.375 5.28125 2.953125q1.375 1.59375 1.375 3.609375q0 1.703125 -1.03125 3.296875q-1.03125 1.578125 -2.984375 2.515625q-1.953125 0.9375 -4.484375 0.9375q-3.9375 0 -6.75 -2.25l-0.5 1.6875l-1.65625 0l-2.9375 -7.671875l2.140625 -0.84375q2.125 3.375 4.03125 4.78125q2.640625 2.0 5.71875 2.0q2.03125 0 3.34375 -1.09375q1.3125 -1.09375 1.3125 -2.421875q0 -1.109375 -0.8125 -2.015625q-0.84375 -0.890625 -3.234375 -1.734375l-5.421875 -1.96875q-3.484375 -1.265625 -4.84375 -2.765625q-1.359375 -1.5 -1.359375 -3.453125q0 -2.359375 2.203125 -4.171875q2.21875 -1.828125 5.640625 -1.828125q1.78125 0 3.1875 0.46875q1.40625 0.453125 2.765625 1.5l0.640625 -1.40625zm9.0859375 -7.78125l0 -2.015625q2.28125 -0.296875 3.546875 -0.703125q1.265625 -0.421875 2.640625 -1.265625l1.828125 0l0 15.5q2.65625 -2.234375 5.015625 -3.265625q2.375 -1.03125 4.53125 -1.03125q3.140625 0 5.171875 1.875q2.015625 1.875 2.015625 4.578125l0 11.5q0 1.71875 0.265625 2.25q0.28125 0.515625 0.90625 0.765625q0.640625 0.25 2.84375 0.25l0 1.96875l-12.09375 0l0 -1.96875l0.890625 0q1.703125 0 2.234375 -0.265625q0.546875 -0.28125 0.796875 -0.890625q0.25 -0.625 0.25 -2.578125l0 -7.984375q0 -2.65625 -0.1875 -3.453125q-0.359375 -1.359375 -1.46875 -2.171875q-1.09375 -0.828125 -2.796875 -0.828125q-1.921875 0 -4.03125 0.953125q-2.09375 0.953125 -4.34375 2.84375l0 11.75q0 1.3125 0.234375 1.765625q0.234375 0.4375 0.765625 0.65625q0.546875 0.203125 2.171875 0.203125l0.953125 0l0 1.96875l-12.140625 0l0 -1.96875l0.734375 0q1.703125 0 2.484375 -0.421875q0.421875 -0.21875 0.609375 -0.828125q0.1875 -0.609375 0.1875 -3.375l0 -23.8125l-4.015625 0z" fill-rule="nonzero" style="animation-name:alternateLeft;animation-duration:1s;animation-iteration-count:infinite;animation-timing-function:ease-in-out;"/><path xmlns="http://www.w3.org/2000/svg" fill="#000000" d="m864.34644 255.6063l95.653564 0l0 27.968506l-95.653564 0z" fill-rule="evenodd" style="animation-name:alternateLeft;animation-duration:1s;animation-iteration-count:infinite;animation-timing-function:ease-in-out;"/><path xmlns="http://www.w3.org/2000/svg" stroke="#000000" stroke-width="1.0" stroke-linejoin="round" stroke-linecap="butt" d="m864.34644 255.6063l95.653564 0l0 27.968506l-95.653564 0z" fill-rule="evenodd" style="animation-name:alternateLeft;animation-duration:1s;animation-iteration-count:infinite;animation-timing-function:ease-in-out;"/><path xmlns="http://www.w3.org/2000/svg" fill="#000000" d="m480.0 269.59055l0 0c0 -106.038666 85.9613 -192.0 192.0 -192.0l0 0c50.92157 0 99.75751 20.228508 135.76453 56.235497c36.006958 36.00699 56.235474 84.84294 56.235474 135.7645l0 0c0 106.038666 -85.9613 192.0 -192.0 192.0l0 0c-106.0387 0 -192.0 -85.961334 -192.0 -192.0zm33.838074 0l0 0c0 87.35043 70.81152 158.16193 158.16193 158.16193c87.3504 0 158.16193 -70.81149 158.16193 -158.16193l0 0c0 -87.35042 -70.81152 -158.16191 -158.16193 -158.16191l0 0c-87.3504 0 -158.16193 70.81149 -158.16193 158.16191z" fill-rule="evenodd" style="animation-name:alternateLeft;animation-duration:1s;animation-iteration-count:infinite;animation-timing-function:ease-in-out;"/><path xmlns="http://www.w3.org/2000/svg" stroke="#000000" stroke-width="1.0" stroke-linejoin="round" stroke-linecap="butt" d="m480.0 269.59055l0 0c0 -106.038666 85.9613 -192.0 192.0 -192.0l0 0c50.92157 0 99.75751 20.228508 135.76453 56.235497c36.006958 36.00699 56.235474 84.84294 56.235474 135.7645l0 0c0 106.038666 -85.9613 192.0 -192.0 192.0l0 0c-106.0387 0 -192.0 -85.961334 -192.0 -192.0zm33.838074 0l0 0c0 87.35043 70.81152 158.16193 158.16193 158.16193c87.3504 0 158.16193 -70.81149 158.16193 -158.16193l0 0c0 -87.35042 -70.81152 -158.16191 -158.16193 -158.16191l0 0c-87.3504 0 -158.16193 70.81149 -158.16193 158.16191z" fill-rule="evenodd" style="animation-name:alternateLeft;animation-duration:1s;animation-iteration-count:infinite;animation-timing-function:ease-in-out;"/><path fill="#000000" fill-opacity="0.0" d="m96.10761 78.40945l384.0 0l0 384.0l-384.0 0z" fill-rule="evenodd"/><path xmlns="http://www.w3.org/2000/svg" fill="#000000" d="m209.32635 182.2557l19.71875 0l7.5625 26.53125l7.84375 -26.53125l20.0625 0l0 6.03125l-2.15625 0q-1.75 0 -2.421875 0.734375q-0.671875 0.734375 -0.671875 2.765625l0 24.75q0 1.625 0.1875 2.03125q0.28125 0.625 0.78125 0.875q0.6875 0.375 1.8125 0.375l2.46875 0l0 6.03125l-20.96875 0l0 -6.03125l1.625 0q1.78125 0 2.40625 -0.28125q0.625 -0.28125 0.921875 -0.859375q0.296875 -0.578125 0.296875 -2.140625l0 -26.8125l-10.625 36.125l-6.03125 0l-10.28125 -34.96875l0 26.5q0 0.90625 0.328125 1.40625q0.328125 0.5 0.9375 0.765625q0.609375 0.265625 1.953125 0.265625l2.09375 0l0 6.03125l-17.84375 0l0 -6.03125l1.75 0q1.65625 0 2.265625 -0.296875q0.609375 -0.296875 0.90625 -0.9375q0.296875 -0.640625 0.296875 -2.359375l0 -24.4375q0 -1.6875 -0.21875 -2.1875q-0.28125 -0.6875 -0.84375 -1.0q-0.5625 -0.3125 -1.78125 -0.3125l-2.375 0l0 -6.03125zm77.40625 11.65625q5.34375 0 9.3125 2.09375q3.96875 2.09375 6.109375 5.703125q2.140625 3.609375 2.140625 8.453125q0 7.3125 -4.75 11.875q-4.75 4.5625 -12.6875 4.5625q-8.09375 0 -12.875 -4.59375q-4.625 -4.375 -4.625 -11.84375q0 -4.90625 2.109375 -8.4375q2.109375 -3.53125 6.109375 -5.671875q4.0 -2.140625 9.15625 -2.140625zm0.125 6.84375q-1.78125 0 -3.34375 1.0625q-1.5625 1.0625 -2.421875 3.125q-0.859375 2.0625 -0.859375 5.25q0 3.28125 0.84375 5.4375q0.84375 2.15625 2.328125 3.1875q1.484375 1.03125 3.265625 1.03125q2.75 0 4.71875 -2.328125q1.96875 -2.328125 1.96875 -7.234375q0 -4.75 -1.828125 -7.140625q-1.828125 -2.390625 -4.671875 -2.390625zm43.40625 -6.09375l4.09375 0l2.53125 8.6875l-5.90625 2.375q-1.6875 -2.71875 -4.234375 -4.265625q-2.546875 -1.546875 -5.046875 -1.546875q-1.65625 0 -2.46875 0.5625q-0.8125 0.5625 -0.8125 1.34375q0 0.65625 0.578125 1.21875q0.578125 0.5625 2.390625 1.1875l8.59375 3.0625q2.28125 0.8125 4.375 2.03125q2.09375 1.21875 3.140625 2.984375q1.046875 1.765625 1.046875 4.140625q0 4.25 -3.25 6.96875q-3.8125 3.1875 -9.5 3.1875q-4.875 0 -8.5 -2.46875l-0.875 1.71875l-4.15625 0l-3.84375 -10.25l5.90625 -2.5q2.21875 3.46875 5.46875 5.453125q3.25 1.984375 5.96875 1.984375q1.6875 0 2.84375 -0.78125q0.875 -0.625 0.875 -1.46875q0 -0.71875 -0.6875 -1.375q-0.6875 -0.65625 -3.03125 -1.46875l-6.75 -2.34375q-5.59375 -1.96875 -7.609375 -4.203125q-2.015625 -2.234375 -2.015625 -5.296875q0 -3.9375 3.15625 -6.625q3.59375 -3.0625 8.875 -3.0625q4.6875 0 8.03125 2.125l0.8125 -1.375zm26.125 -10.71875l0 10.71875l10.0625 0l0 6.65625l-10.0625 0l0 10.875q0 3.6875 0.390625 4.734375q0.390625 1.046875 1.453125 1.671875q1.40625 0.84375 3.21875 0.84375q3.21875 0 6.40625 -2.09375l0 6.6875q-2.71875 1.28125 -4.921875 1.796875q-2.203125 0.515625 -4.765625 0.515625q-2.90625 0 -5.140625 -0.734375q-2.234375 -0.734375 -3.8125 -2.09375q-1.578125 -1.359375 -2.1875 -2.890625q-0.609375 -1.53125 -0.609375 -4.4375l0 -14.875l-4.6875 0l0 -6.0q2.5 -0.8125 4.28125 -2.328125q1.78125 -1.515625 2.859375 -3.640625q1.078125 -2.125 1.484375 -5.40625l6.03125 0z" fill-rule="nonzero" style="animation-name:alternateRight;animation-duration:1s;animation-iteration-count:infinite;animation-timing-function:ease-in-out;"/><path xmlns="http://www.w3.org/2000/svg" fill="#000000" d="m182.49823 259.2557l23.03125 0q4.375 0 7.265625 0.890625q2.890625 0.890625 4.96875 2.703125q2.078125 1.8125 3.203125 4.296875q1.125 2.484375 1.125 5.265625q0 5.59375 -4.296875 9.375q-4.296875 3.78125 -11.859375 3.78125l-7.4375 0l0 8.15625q0 1.53125 0.21875 1.9375q0.28125 0.59375 0.859375 0.875q0.578125 0.28125 1.953125 0.28125l2.21875 0l0 6.03125l-21.25 0l0 -6.03125l1.46875 0q1.9375 0 2.5625 -0.28125q0.625 -0.28125 0.90625 -0.890625q0.28125 -0.609375 0.28125 -2.515625l0 -23.96875q0 -2.0 -0.25 -2.640625q-0.25 -0.640625 -0.796875 -0.9375q-0.546875 -0.296875 -2.078125 -0.296875l-2.09375 0l0 -6.03125zm16.0 7.125l0 12.375l3.71875 0q3.40625 0 5.0 -0.703125q1.59375 -0.703125 2.5625 -2.15625q0.96875 -1.453125 0.96875 -3.453125q0 -3.0 -2.3125 -4.75q-1.71875 -1.3125 -5.09375 -1.3125l-4.84375 0zm39.9375 4.53125l0 4.53125q2.5 -2.625 4.328125 -3.578125q1.828125 -0.953125 3.515625 -0.953125q1.53125 0 2.734375 0.703125q1.203125 0.703125 1.90625 2.015625q0.703125 1.3125 0.703125 2.8125q0 1.96875 -1.296875 3.5625q-1.296875 1.59375 -3.640625 1.59375q-0.625 0 -1.109375 -0.09375q-0.484375 -0.09375 -2.046875 -0.625q-0.8125 -0.25 -1.34375 -0.25q-0.8125 0 -2.6875 1.03125l0 12.21875q0 1.5625 0.234375 2.03125q0.234375 0.46875 0.765625 0.6875q0.53125 0.21875 2.3125 0.21875l1.375 0l0 6.03125l-19.28125 0l0 -6.03125l1.59375 0q1.71875 0 2.140625 -0.1875q0.421875 -0.1875 0.640625 -0.65625q0.21875 -0.46875 0.21875 -2.09375l0 -14.34375l-4.59375 0l0 -6.0q5.09375 -0.3125 10.59375 -2.625l2.9375 0zm32.9375 0q5.34375 0 9.3125 2.09375q3.96875 2.09375 6.109375 5.703125q2.140625 3.609375 2.140625 8.453125q0 7.3125 -4.75 11.875q-4.75 4.5625 -12.6875 4.5625q-8.09375 0 -12.875 -4.59375q-4.625 -4.375 -4.625 -11.84375q0 -4.90625 2.109375 -8.4375q2.109375 -3.53125 6.109375 -5.671875q4.0 -2.140625 9.15625 -2.140625zm0.125 6.84375q-1.78125 0 -3.34375 1.0625q-1.5625 1.0625 -2.421875 3.125q-0.859375 2.0625 -0.859375 5.25q0 3.28125 0.84375 5.4375q0.84375 2.15625 2.328125 3.1875q1.484375 1.03125 3.265625 1.03125q2.75 0 4.71875 -2.328125q1.96875 -2.328125 1.96875 -7.234375q0 -4.75 -1.828125 -7.140625q-1.828125 -2.390625 -4.671875 -2.390625zm21.46875 -6.09375l14.59375 -0.28125l0 20.28125q0 2.15625 0.265625 2.875q0.265625 0.71875 0.96875 1.171875q0.703125 0.453125 1.765625 0.453125q1.5625 0 3.3125 -0.75q0.6875 -0.3125 3.65625 -2.21875l0 -12.1875q0 -1.59375 -0.25 -2.1875q-0.25 -0.59375 -0.71875 -0.859375q-0.46875 -0.265625 -1.8125 -0.265625l-1.8125 0l0 -6.03125l14.625 -0.28125l0 22.375q0 1.75 0.203125 2.203125q0.203125 0.453125 0.65625 0.65625q0.453125 0.203125 2.171875 0.203125l1.65625 0l0 6.03125l-13.71875 0.375l0 -3.6875q-2.75 2.03125 -5.53125 3.046875q-2.78125 1.015625 -5.59375 1.015625q-2.25 0 -4.140625 -0.734375q-1.890625 -0.734375 -3.171875 -1.96875q-1.28125 -1.234375 -1.90625 -2.890625q-0.625 -1.65625 -0.625 -4.25l0 -12.875q0 -1.78125 -0.203125 -2.25q-0.203125 -0.46875 -0.671875 -0.703125q-0.46875 -0.234375 -2.0 -0.234375l-1.71875 0l0 -6.03125zm75.375 -14.6875l0 36.34375q0 2.15625 0.1875 2.609375q0.1875 0.453125 0.640625 0.671875q0.453125 0.21875 2.390625 0.21875l1.46875 0l0 6.03125l-13.5625 0.46875l0 -3.21875q-2.9375 1.96875 -5.15625 2.734375q-2.21875 0.765625 -4.4375 0.765625q-3.59375 0 -6.609375 -1.953125q-3.015625 -1.953125 -4.9375 -5.796875q-1.921875 -3.84375 -1.921875 -8.53125q0 -4.75 1.953125 -8.609375q1.953125 -3.859375 5.09375 -5.828125q3.140625 -1.96875 7.015625 -1.96875q2.0 0 3.828125 0.484375q1.828125 0.484375 4.046875 1.703125l0 -7.40625l-4.5625 0l0 -6.0625q3.875 -0.375 6.296875 -0.953125q2.421875 -0.578125 5.234375 -1.703125l3.03125 0zm-10.0 36.9375l0 -10.46875q0 -1.96875 -0.28125 -2.78125q-0.375 -1.15625 -1.703125 -2.03125q-1.328125 -0.875 -2.953125 -0.875q-1.6875 0 -3.125 1.015625q-1.4375 1.015625 -2.28125 3.109375q-0.84375 2.09375 -0.84375 5.21875q0 4.34375 1.90625 6.96875q1.46875 2.0625 3.90625 2.0625q1.0625 0 2.03125 -0.359375q0.96875 -0.359375 3.34375 -1.859375zm27.09375 -23.0q2.375 0 4.09375 1.71875q1.71875 1.71875 1.71875 4.125q0 2.4375 -1.703125 4.15625q-1.703125 1.71875 -4.140625 1.71875q-2.40625 0 -4.109375 -1.71875q-1.703125 -1.71875 -1.703125 -4.125q0 -2.40625 1.734375 -4.140625q1.734375 -1.734375 4.109375 -1.734375zm0 20.8125q2.40625 0 4.109375 1.703125q1.703125 1.703125 1.703125 4.109375q0 2.40625 -1.703125 4.109375q-1.703125 1.703125 -4.109375 1.703125q-2.4375 0 -4.140625 -1.703125q-1.703125 -1.703125 -1.703125 -4.109375q0 -2.40625 1.703125 -4.109375q1.703125 -1.703125 4.140625 -1.703125z" fill-rule="nonzero" style="animation-name:alternateRight;animation-duration:1s;animation-iteration-count:infinite;animation-timing-function:ease-in-out;"/><path xmlns="http://www.w3.org/2000/svg" fill="#000000" d="m229.39667 331.78632l10.34375 0l9.65625 25.90625l9.390625 -25.90625l9.984375 0l0 2.0l-0.84375 0q-1.515625 0 -2.046875 0.265625q-0.53125 0.25 -0.84375 0.890625q-0.296875 0.640625 -0.296875 2.125l0 21.5625q0 2.03125 0.25 2.640625q0.25 0.609375 0.8125 0.9375q0.578125 0.3125 2.125 0.3125l0.84375 0l0 1.96875l-12.484375 0l0 -1.96875l0.890625 0q1.1875 0 1.734375 -0.1875q0.5625 -0.1875 0.921875 -0.625q0.359375 -0.4375 0.40625 -0.90625q0.125 -0.953125 0.125 -1.5l0 -24.0625l-10.671875 29.25l-2.3125 0l-10.765625 -28.828125l0 23.171875q0 1.765625 0.296875 2.390625q0.3125 0.609375 0.953125 0.953125q0.65625 0.34375 2.3125 0.34375l0.75 0l0 1.96875l-11.53125 0l0 -1.96875l0.65625 0q1.671875 0 2.375 -0.34375q0.71875 -0.359375 1.015625 -1.0q0.3125 -0.65625 0.3125 -2.546875l0 -21.359375q0 -1.78125 -0.265625 -2.34375q-0.25 -0.578125 -0.84375 -0.859375q-0.59375 -0.28125 -2.125 -0.28125l-1.125 0l0 -2.0zm60.5 19.125l0 -2.546875q0 -2.609375 -1.453125 -3.71875q-1.453125 -1.109375 -4.109375 -1.109375q-1.3125 0 -2.296875 0.3125q-0.984375 0.3125 -1.578125 0.875q-0.59375 0.546875 -0.875 1.25q-0.125 0.25 -0.5625 1.984375q-0.546875 2.109375 -2.1875 2.109375q-0.9375 0 -1.515625 -0.609375q-0.5625 -0.625 -0.5625 -1.6875q0 -1.546875 1.140625 -3.03125q1.15625 -1.484375 3.5 -2.453125q2.359375 -0.984375 5.578125 -0.984375q3.0 0 5.125 0.9375q2.140625 0.921875 3.140625 2.65625q0.703125 1.1875 0.703125 4.359375l0 9.015625q0 1.921875 0.125 2.515625q0.25 1.0 0.890625 1.515625q0.65625 0.5 1.6875 0.5q1.078125 0 2.578125 -0.515625l0 2.03125q-1.953125 0.578125 -3.5 0.578125q-1.65625 0 -2.796875 -0.46875q-1.140625 -0.484375 -1.875 -1.375q-0.71875 -0.90625 -0.921875 -2.15625q-2.8125 2.203125 -5.09375 3.109375q-2.265625 0.890625 -4.59375 0.890625q-3.234375 0 -5.25 -1.765625q-2.015625 -1.765625 -2.015625 -4.125q0 -1.4375 0.734375 -2.71875q0.75 -1.296875 2.25 -2.28125q1.515625 -0.984375 4.75 -1.734375q3.234375 -0.75 8.984375 -1.359375zm0 2.046875q-5.4375 0.796875 -6.734375 1.09375q-2.546875 0.59375 -3.65625 1.296875q-1.09375 0.703125 -1.5625 1.515625q-0.46875 0.796875 -0.46875 1.71875q0 0.90625 0.515625 1.765625q0.53125 0.859375 1.484375 1.359375q0.96875 0.484375 2.046875 0.484375q1.53125 0 3.453125 -0.71875q1.921875 -0.734375 4.921875 -2.84375l0 -5.671875zm17.15625 -19.0625l1.65625 0l0 7.96875l6.96875 0l0 2.34375l-6.96875 0l0 14.140625q0 1.796875 0.3125 2.578125q0.328125 0.765625 1.078125 1.265625q0.765625 0.484375 1.703125 0.484375q2.234375 0 4.921875 -1.984375l0 2.265625q-3.0625 2.09375 -6.203125 2.09375q-1.78125 0 -3.234375 -0.796875q-1.4375 -0.796875 -1.96875 -1.875q-0.515625 -1.078125 -0.515625 -3.75l0 -14.421875l-4.109375 0l0 -1.96875q1.96875 -0.4375 3.171875 -1.375q1.21875 -0.9375 1.96875 -2.4375q0.75 -1.5 1.21875 -4.53125zm12.0625 0.1875l0 -2.015625q2.28125 -0.296875 3.546875 -0.703125q1.265625 -0.421875 2.640625 -1.265625l1.828125 0l0 15.5q2.65625 -2.234375 5.015625 -3.265625q2.375 -1.03125 4.53125 -1.03125q3.140625 0 5.171875 1.875q2.015625 1.875 2.015625 4.578125l0 11.5q0 1.71875 0.265625 2.25q0.28125 0.515625 0.90625 0.765625q0.640625 0.25 2.84375 0.25l0 1.96875l-12.09375 0l0 -1.96875l0.890625 0q1.703125 0 2.234375 -0.265625q0.546875 -0.28125 0.796875 -0.890625q0.25 -0.625 0.25 -2.578125l0 -7.984375q0 -2.65625 -0.1875 -3.453125q-0.359375 -1.359375 -1.46875 -2.171875q-1.09375 -0.828125 -2.796875 -0.828125q-1.921875 0 -4.03125 0.953125q-2.09375 0.953125 -4.34375 2.84375l0 11.75q0 1.3125 0.234375 1.765625q0.234375 0.4375 0.765625 0.65625q0.546875 0.203125 2.171875 0.203125l0.953125 0l0 1.96875l-12.140625 0l0 -1.96875l0.734375 0q1.703125 0 2.484375 -0.421875q0.421875 -0.21875 0.609375 -0.828125q0.1875 -0.609375 0.1875 -3.375l0 -23.8125l-4.015625 0z" fill-rule="nonzero" style="animation-name:alternateRight;animation-duration:1s;animation-iteration-count:infinite;animation-timing-function:ease-in-out;"/></g>
<style xmlns="http://www.w3.org/2000/svg">
    @keyframes alternateUp {
        50% {transform:translateY(20px);}
    }
    @keyframes alternateDown {
        50% {transform:translateY(-20px);}
    }
    @keyframes alternateLeft {
        50% {transform:translateX(20px);}
    }
    @keyframes alternateRight {
        50% {transform:translateX(-20px);}
    }
</style>
</svg>