<svg xmlns:xlink="http://www.w3.org/1999/xlink" xmlns="http://www.w3.org/2000/svg" version="1.1" viewBox="0.0 0.0 960.0 540.0" fill="none" stroke="none" stroke-linecap="square" stroke-miterlimit="10"><clipPath id="g63cf9909f2_0_0.0"><path d="m0 0l960.0 0l0 540.0l-960.0 0l0 -540.0z" clip-rule="nonzero"/></clipPath><g clip-path="url(#g63cf9909f2_0_0.0)"><path fill="#ffffff" d="m0 0l960.0 0l0 540.0l-960.0 0z" fill-rule="evenodd"/><path fill="#cccccc" d="m977.8911 280.8498l-1012.5039 -225.22835l7.0236225 -31.622046l1012.5039 225.22835z" fill-rule="evenodd"/><path stroke="#cccccc" stroke-width="1.0" stroke-linejoin="round" stroke-linecap="butt" d="m977.8911 280.8498l-1012.5039 -225.22835l7.0236225 -31.622046l1012.5039 225.22835z" fill-rule="evenodd"/><path fill="#cccccc" d="m977.89264 516.0008l-1012.50397 -225.22833l7.0236225 -31.62204l1012.50397 225.22836z" fill-rule="evenodd"/><path stroke="#cccccc" stroke-width="1.0" stroke-linejoin="round" stroke-linecap="butt" d="m977.89264 516.0008l-1012.50397 -225.22833l7.0236225 -31.62204l1012.50397 225.22836z" fill-rule="evenodd"/><path fill="#000000" fill-opacity="0.0" d="m240.06561 192.0l479.68506 0l0 156.0l-479.68506 0z" fill-rule="evenodd"/><path fill="#000000" d="m323.65814 244.29999l17.234375 0l16.09375 43.171875l15.65625 -43.171875l16.640625 0l0 3.328125l-1.40625 0q-2.53125 0 -3.421875 0.4375q-0.875 0.421875 -1.390625 1.5q-0.5 1.0625 -0.5 3.53125l0 35.9375q0 3.390625 0.40625 4.40625q0.421875 1.015625 1.375 1.546875q0.953125 0.53125 3.53125 0.53125l1.40625 0l0 3.28125l-20.8125 0l0 -3.28125l1.484375 0q1.984375 0 2.90625 -0.3125q0.921875 -0.3125 1.515625 -1.03125q0.609375 -0.734375 0.6875 -1.515625q0.203125 -1.59375 0.203125 -2.5l0 -40.109375l-17.78125 48.75l-3.859375 0l-17.9375 -48.046875l0 38.625q0 2.9375 0.5 3.96875q0.515625 1.03125 1.59375 1.609375q1.078125 0.5625 3.84375 0.5625l1.25 0l0 3.28125l-19.21875 0l0 -3.28125l1.09375 0q2.78125 0 3.96875 -0.578125q1.1875 -0.59375 1.6875 -1.671875q0.515625 -1.078125 0.515625 -4.234375l0 -35.59375q0 -2.96875 -0.4375 -3.921875q-0.421875 -0.953125 -1.421875 -1.421875q-0.984375 -0.46875 -3.53125 -0.46875l-1.875 0l0 -3.328125zm106.171875 44.421875l2.5 2.03125q-2.84375 3.390625 -5.53125 5.390625q-2.671875 1.984375 -5.0625 2.78125q-2.375 0.8125 -5.578125 0.8125q-5.734375 0 -9.765625 -2.34375q-4.609375 -2.703125 -7.078125 -7.03125q-2.453125 -4.34375 -2.453125 -10.234375q0 -6.171875 2.375 -10.546875q2.390625 -4.375 6.671875 -6.890625q4.28125 -2.53125 9.90625 -2.53125q4.171875 0 7.25 1.3125q3.09375 1.3125 5.234375 3.953125q2.15625 2.625 3.140625 6.03125q0.546875 1.984375 0.625 5.15625l-27.625 0q-0.109375 1.90625 -0.109375 2.84375q0 4.921875 1.71875 8.78125q1.71875 3.84375 4.546875 5.65625q2.828125 1.8125 6.421875 1.8125q3.046875 0 5.890625 -1.421875q2.859375 -1.421875 6.921875 -5.5625zm-5.0 -15.78125q-0.578125 -3.59375 -1.65625 -5.3125q-1.078125 -1.71875 -3.046875 -2.734375q-1.96875 -1.015625 -4.4375 -1.015625q-2.453125 0 -4.609375 1.015625q-2.140625 1.015625 -3.578125 2.8125q-1.421875 1.796875 -2.46875 5.234375l19.796875 0zm23.445312 -25.125l2.765625 0l0 13.28125l11.609375 0l0 3.90625l-11.609375 0l0 23.5625q0 3.0 0.53125 4.296875q0.53125 1.28125 1.796875 2.109375q1.265625 0.8125 2.828125 0.8125q3.71875 0 8.203125 -3.3125l0 3.78125q-5.109375 3.484375 -10.34375 3.484375q-2.96875 0 -5.375 -1.328125q-2.40625 -1.328125 -3.28125 -3.125q-0.875 -1.796875 -0.875 -6.25l0 -24.03125l-6.84375 0l0 -3.28125q3.28125 -0.734375 5.296875 -2.296875q2.015625 -1.5625 3.265625 -4.0625q1.25 -2.5 2.03125 -7.546875zm69.67969 -3.515625l2.9375 0l0 45.234375q0 3.203125 0.40625 4.125q0.40625 0.921875 1.34375 1.390625q0.9375 0.46875 3.71875 0.46875l3.828125 0l0 3.28125l-25.75 0l0 -3.28125l4.265625 0q2.765625 0 3.6875 -0.484375q0.921875 -0.5 1.421875 -1.5625q0.515625 -1.078125 0.515625 -3.9375l0 -37.1875l-9.890625 0l0 -3.359375q8.09375 -1.125 13.515625 -4.6875zm47.65625 -0.9375q6.015625 0 10.5 3.078125q4.5 3.0625 7.3125 9.625q2.8125 6.5625 2.8125 15.890625q0 13.828125 -6.90625 21.53125q-5.625 6.25 -14.21875 6.25q-5.828125 0 -10.328125 -3.109375q-4.484375 -3.109375 -7.265625 -9.3125q-2.765625 -6.21875 -2.765625 -15.78125q0 -9.65625 2.71875 -15.75q2.71875 -6.09375 7.40625 -9.25q4.6875 -3.171875 10.734375 -3.171875zm-0.1875 3.875q-4.0625 0 -7.15625 2.96875q-2.6875 2.578125 -4.25 8.125q-1.796875 6.328125 -1.796875 13.984375q0 5.9375 1.109375 10.765625q1.109375 4.8125 2.9375 7.5q1.84375 2.671875 4.171875 3.96875q2.328125 1.28125 4.90625 1.28125q3.859375 0 7.21875 -3.015625q2.703125 -2.453125 4.265625 -7.34375q1.875 -5.9375 1.875 -13.9375q0 -8.28125 -1.921875 -14.0625q-1.90625 -5.78125 -4.703125 -8.0q-2.796875 -2.234375 -6.65625 -2.234375zm51.75 -2.9375l2.9375 0l0 45.234375q0 3.203125 0.40625 4.125q0.40625 0.921875 1.34375 1.390625q0.9375 0.46875 3.71875 0.46875l3.828125 0l0 3.28125l-25.75 0l0 -3.28125l4.265625 0q2.765625 0 3.6875 -0.484375q0.921875 -0.5 1.421875 -1.5625q0.515625 -1.078125 0.515625 -3.9375l0 -37.1875l-9.890625 0l0 -3.359375q8.09375 -1.125 13.515625 -4.6875z" fill-rule="nonzero"/><path xmlns="http://www.w3.org/2000/svg" fill="#000000" d="m313.4042 539.99963l-25.007874 0l0 -77.29132l25.007874 0z" fill-rule="evenodd" style="animation-name:alternateUp;animation-duration:1s;animation-iteration-count:infinite;animation-timing-function:ease-in-out;"/><path xmlns="http://www.w3.org/2000/svg" stroke="#000000" stroke-width="1.0" stroke-linejoin="round" stroke-linecap="butt" d="m313.4042 539.99963l-25.007874 0l0 -77.29132l25.007874 0z" fill-rule="evenodd" style="animation-name:alternateUp;animation-duration:1s;animation-iteration-count:infinite;animation-timing-function:ease-in-out;"/><path xmlns="http://www.w3.org/2000/svg" fill="#000000" d="m265.0735 540.0l-25.007874 0l0 -115.590546l25.007874 0z" fill-rule="evenodd" style="animation-name:alternateUp;animation-duration:1s;animation-iteration-count:infinite;animation-timing-function:ease-in-out;animation-delay:0.5s;"/><path xmlns="http://www.w3.org/2000/svg" stroke="#000000" stroke-width="1.0" stroke-linejoin="round" stroke-linecap="butt" d="m265.0735 540.0l-25.007874 0l0 -115.590546l25.007874 0z" fill-rule="evenodd" style="animation-name:alternateUp;animation-duration:1s;animation-iteration-count:infinite;animation-timing-function:ease-in-out;animation-delay:0.5s;"/><path xmlns="http://www.w3.org/2000/svg" fill="#000000" d="m646.41205 3.3569554E-4l25.007874 0l0 77.291336l-25.007874 0z" fill-rule="evenodd" style="animation-name:alternateDown;animation-duration:1s;animation-iteration-count:infinite;animation-timing-function:ease-in-out;animation-delay:0.5s;"/><path xmlns="http://www.w3.org/2000/svg" stroke="#000000" stroke-width="1.0" stroke-linejoin="round" stroke-linecap="butt" d="m646.41205 3.3569554E-4l25.007874 0l0 77.291336l-25.007874 0z" fill-rule="evenodd" style="animation-name:alternateDown;animation-duration:1s;animation-iteration-count:infinite;animation-timing-function:ease-in-out;animation-delay:0.5s;"/><path xmlns="http://www.w3.org/2000/svg" fill="#000000" d="m694.7428 0l25.007874 0l0 115.59055l-25.007874 0z" fill-rule="evenodd" style="animation-name:alternateDown;animation-duration:1s;animation-iteration-count:infinite;animation-timing-function:ease-in-out;"/><path xmlns="http://www.w3.org/2000/svg" stroke="#000000" stroke-width="1.0" stroke-linejoin="round" stroke-linecap="butt" d="m694.7428 0l25.007874 0l0 115.59055l-25.007874 0z" fill-rule="evenodd" style="animation-name:alternateDown;animation-duration:1s;animation-iteration-count:infinite;animation-timing-function:ease-in-out;"/><path fill="#000000" d="m384.0 444.0l576.0 0l0 96.0l-576.0 0z" fill-rule="evenodd"/><path stroke="#000000" stroke-width="1.0" stroke-linejoin="round" stroke-linecap="butt" d="m384.0 444.0l576.0 0l0 96.0l-576.0 0z" fill-rule="evenodd"/><path fill="#000000" d="m-6.102362 0l576.0 0l0 96.0l-576.0 0z" fill-rule="evenodd"/><path stroke="#000000" stroke-width="1.0" stroke-linejoin="round" stroke-linecap="butt" d="m-6.102362 0l576.0 0l0 96.0l-576.0 0z" fill-rule="evenodd"/></g>
<style xmlns="http://www.w3.org/2000/svg">
    @keyframes alternateUp {
        50% {transform:translateY(20px);}
    }
    @keyframes alternateDown {
        50% {transform:translateY(-20px);}
    }
    @keyframes alternateLeft {
        50% {transform:translateX(20px);}
    }
    @keyframes alternateRight {
        50% {transform:translateX(-20px);}
    }
</style>
</svg>