<svg version="1.1" viewBox="0.0 0.0 960.0 540.0" fill="none" stroke="none" stroke-linecap="square" stroke-miterlimit="10" xmlns:xlink="http://www.w3.org/1999/xlink" xmlns="http://www.w3.org/2000/svg"><clipPath id="g6415e53f0f_0_0.0"><path d="m0 0l960.0 0l0 540.0l-960.0 0l0 -540.0z" clip-rule="nonzero"/></clipPath><g clip-path="url(#g6415e53f0f_0_0.0)"><path fill="#ffffff" d="m0 0l960.0 0l0 540.0l-960.0 0z" fill-rule="evenodd"/><path fill="#cccccc" d="m350.55142 -232.47206l289.98428 995.874l-31.086609 9.070862l-289.98428 -995.874z" fill-rule="evenodd"/><path stroke="#cccccc" stroke-width="1.0" stroke-linejoin="round" stroke-linecap="butt" d="m350.55142 -232.47206l289.98428 995.874l-31.086609 9.070862l-289.98428 -995.874z" fill-rule="evenodd"/><path fill="#000000" d="m-1.8372704E-6 540.0l0 -96.0l450.33072 0l0 96.0z" fill-rule="evenodd"/><path stroke="#000000" stroke-width="1.0" stroke-linejoin="round" stroke-linecap="butt" d="m-1.8372704E-6 540.0l0 -96.0l450.33072 0l0 96.0z" fill-rule="evenodd"/><path fill="#000000" d="m771.0236 759.1181l-320.6929 -220.70874l0 -94.40936l320.6929 220.70874z" fill-rule="evenodd"/><path stroke="#000000" stroke-width="1.0" stroke-linejoin="round" stroke-linecap="butt" d="m771.0236 759.1181l-320.6929 -220.70874l0 -94.40936l320.6929 220.70874z" fill-rule="evenodd"/><path fill="#000000" d="m960.0 0l0 96.0l-450.33072 0l0 -96.0z" fill-rule="evenodd"/><path stroke="#000000" stroke-width="1.0" stroke-linejoin="round" stroke-linecap="butt" d="m960.0 0l0 96.0l-450.33072 0l0 -96.0z" fill-rule="evenodd"/><path fill="#000000" d="m188.97638 -219.1181l320.6929 220.70871l0 94.409386l-320.6929 -220.70872z" fill-rule="evenodd"/><path stroke="#000000" stroke-width="1.0" stroke-linejoin="round" stroke-linecap="butt" d="m188.97638 -219.1181l320.6929 220.70871l0 94.409386l-320.6929 -220.70872z" fill-rule="evenodd"/></g></svg>