<svg xmlns:xlink="http://www.w3.org/1999/xlink" xmlns="http://www.w3.org/2000/svg" version="1.1" viewBox="0.0 0.0 960.0 540.0" fill="none" stroke="none" stroke-linecap="square" stroke-miterlimit="10"><clipPath id="g64163215f9_0_64.0"><path d="m0 0l960.0 0l0 540.0l-960.0 0l0 -540.0z" clip-rule="nonzero"/></clipPath><g clip-path="url(#g64163215f9_0_64.0)"><path fill="#ffffff" d="m0 0l960.0 0l0 540.0l-960.0 0z" fill-rule="evenodd"/><path fill="#cccccc" d="m252.60672 591.3592l118.58267 -183.3386l27.118103 17.669281l-118.58267 183.33856z" fill-rule="evenodd"/><path stroke="#cccccc" stroke-width="1.0" stroke-linejoin="round" stroke-linecap="butt" d="m252.60672 591.3592l118.58267 -183.3386l27.118103 17.669281l-118.58267 183.33856z" fill-rule="evenodd"/><path fill="#cccccc" d="m561.6819 116.84118l118.5827 -183.3386l27.118103 17.669292l-118.5827 183.33858z" fill-rule="evenodd"/><path stroke="#cccccc" stroke-width="1.0" stroke-linejoin="round" stroke-linecap="butt" d="m561.6819 116.84118l118.5827 -183.3386l27.118103 17.669292l-118.5827 183.33858z" fill-rule="evenodd"/><path fill="#000000" d="m-141.64568 2.2047243l0 0c0 -79.52901 64.471 -144.0 144.0 -144.0l0 0c38.191174 0 74.81814 15.171379 101.82337 42.17662c27.005249 27.005241 42.17662 63.632202 42.17662 101.82338l0 0c0 79.529 -64.47099 144.0 -144.0 144.0l0 0c-79.52901 0 -144.0 -64.471 -144.0 -144.0zm34.188484 0l0 0c0 60.64723 49.164295 109.811516 109.81152 109.811516c60.64723 0 109.811516 -49.16429 109.811516 -109.811516l0 0c0 -60.64723 -49.164288 -109.81152 -109.811516 -109.81152l0 0c-60.64723 0 -109.81152 49.16429 -109.81152 109.81152z" fill-rule="evenodd"/><path stroke="#000000" stroke-width="1.0" stroke-linejoin="round" stroke-linecap="butt" d="m-141.64568 2.2047243l0 0c0 -79.52901 64.471 -144.0 144.0 -144.0l0 0c38.191174 0 74.81814 15.171379 101.82337 42.17662c27.005249 27.005241 42.17662 63.632202 42.17662 101.82338l0 0c0 79.529 -64.47099 144.0 -144.0 144.0l0 0c-79.52901 0 -144.0 -64.471 -144.0 -144.0zm34.188484 0l0 0c0 60.64723 49.164295 109.811516 109.81152 109.811516c60.64723 0 109.811516 -49.16429 109.811516 -109.811516l0 0c0 -60.64723 -49.164288 -109.81152 -109.811516 -109.81152l0 0c-60.64723 0 -109.81152 49.16429 -109.81152 109.81152z" fill-rule="evenodd"/><path fill="#000000" d="m288.0 270.0l0 0c0 -106.038666 85.961334 -192.0 192.0 -192.0l0 0c50.92157 0 99.75751 20.228516 135.76453 56.235504c36.006958 36.006973 56.235474 84.842926 56.235474 135.7645l0 0c0 106.038666 -85.9613 192.0 -192.0 192.0l0 0c-106.038666 0 -192.0 -85.961334 -192.0 -192.0zm33.838074 0l0 0c0 87.3504 70.81152 158.16193 158.16193 158.16193c87.3504 0 158.16193 -70.81152 158.16193 -158.16193l0 0c0 -87.35042 -70.81152 -158.16193 -158.16193 -158.16193l0 0c-87.3504 0 -158.16193 70.8115 -158.16193 158.16193z" fill-rule="evenodd"/><path stroke="#000000" stroke-width="1.0" stroke-linejoin="round" stroke-linecap="butt" d="m288.0 270.0l0 0c0 -106.038666 85.961334 -192.0 192.0 -192.0l0 0c50.92157 0 99.75751 20.228516 135.76453 56.235504c36.006958 36.006973 56.235474 84.842926 56.235474 135.7645l0 0c0 106.038666 -85.9613 192.0 -192.0 192.0l0 0c-106.038666 0 -192.0 -85.961334 -192.0 -192.0zm33.838074 0l0 0c0 87.3504 70.81152 158.16193 158.16193 158.16193c87.3504 0 158.16193 -70.81152 158.16193 -158.16193l0 0c0 -87.35042 -70.81152 -158.16193 -158.16193 -158.16193l0 0c-87.3504 0 -158.16193 70.8115 -158.16193 158.16193z" fill-rule="evenodd"/><path fill="#000000" d="m0 0l960.0 0l0 32.755905l-960.0 0z" fill-rule="evenodd"/><path stroke="#000000" stroke-width="1.0" stroke-linejoin="round" stroke-linecap="butt" d="m0 0l960.0 0l0 32.755905l-960.0 0z" fill-rule="evenodd"/><path fill="#000000" d="m0 507.24408l960.0 0l0 32.75592l-960.0 0z" fill-rule="evenodd"/><path stroke="#000000" stroke-width="1.0" stroke-linejoin="round" stroke-linecap="butt" d="m0 507.24408l960.0 0l0 32.75592l-960.0 0z" fill-rule="evenodd"/><path fill="#000000" d="m814.5722 540.3412l0 0c0 -79.52899 64.47095 -143.99997 144.0 -143.99997l0 0c38.191162 0 74.818054 15.171387 101.8233 42.176605c27.005249 27.005249 42.176636 63.632202 42.176636 101.823364l0 0c0 79.52905 -64.47095 144.0 -143.99994 144.0l0 0c-79.52905 0 -144.0 -64.47095 -144.0 -144.0zm34.188477 0l0 0c0 60.647278 49.164246 109.81152 109.81152 109.81152c60.647217 0 109.81146 -49.164246 109.81146 -109.81152l0 0c0 -60.647217 -49.164246 -109.81149 -109.81146 -109.81149l0 0c-60.647278 0 -109.81152 49.164276 -109.81152 109.81149z" fill-rule="evenodd"/><path stroke="#000000" stroke-width="1.0" stroke-linejoin="round" stroke-linecap="butt" d="m814.5722 540.3412l0 0c0 -79.52899 64.47095 -143.99997 144.0 -143.99997l0 0c38.191162 0 74.818054 15.171387 101.8233 42.176605c27.005249 27.005249 42.176636 63.632202 42.176636 101.823364l0 0c0 79.52905 -64.47095 144.0 -143.99994 144.0l0 0c-79.52905 0 -144.0 -64.47095 -144.0 -144.0zm34.188477 0l0 0c0 60.647278 49.164246 109.81152 109.81152 109.81152c60.647217 0 109.81146 -49.164246 109.81146 -109.81152l0 0c0 -60.647217 -49.164246 -109.81149 -109.81146 -109.81149l0 0c-60.647278 0 -109.81152 49.164276 -109.81152 109.81149z" fill-rule="evenodd"/><path fill="#000000" fill-opacity="0.0" d="m286.57217 78.0l387.7795 0l0 384.0l-387.7795 0z" fill-rule="evenodd"/><path xmlns="http://www.w3.org/2000/svg" fill="#000000" d="m335.53604 252.87187l13.03125 0l0 2.21875l-1.390625 0q-1.34375 0 -1.84375 0.265625q-0.75 0.40625 -0.75 1.2500153q0 0.59375 0.40625 1.890625l7.453125 24.21872l6.453125 -19.890594l-1.5 -4.8125q-0.546875 -1.71875 -1.671875 -2.4843903q-0.671875 -0.4375 -2.375 -0.4375l0 -2.21875l12.921875 0l0 2.21875l-1.234375 0q-1.578125 0 -2.125 0.390625q-0.546875 0.390625 -0.546875 1.0625153q0 0.578125 0.40625 1.953125l7.484375 24.37497l7.515625 -24.37497q0.390625 -1.265625 0.390625 -1.921875q0 -0.75001526 -0.515625 -1.1093903q-0.515625 -0.375 -2.0625 -0.375l-1.296875 0l0 -2.21875l11.09375 0l0 2.21875q-1.40625 -0.03125 -2.09375 0.28125q-0.6875 0.296875 -1.140625 0.85939026q-0.4375 0.546875 -0.953125 2.265625l-10.03125 30.703094l-3.78125 0l-7.0 -21.71872l-7.03125 21.71872l-3.75 0l-9.84375 -30.703094q-0.703125 -2.203125 -1.734375 -2.9062653q-0.78125 -0.5 -2.484375 -0.5l0 -2.21875zm65.59918 10.57814q3.828125 0 6.625 1.59375q2.796875 1.578125 4.40625 4.625q1.625 3.0468445 1.625 6.9530945q0 3.90625 -1.65625 6.953125q-1.65625 3.046875 -4.515625 4.65625q-2.84375 1.59375 -6.796875 1.59375q-6.296875 0 -9.46875 -3.921875q-3.15625 -3.9375 -3.15625 -9.25q0 -3.890625 1.640625 -6.8905945q1.640625 -3.015625 4.59375 -4.65625q2.953125 -1.65625 6.703125 -1.65625zm-0.203125 2.515625q-2.96875 0 -5.03125 2.34375q-2.609375 2.9218445 -2.609375 8.4999695q0 5.359375 2.21875 8.171875q2.0 2.5 5.4375 2.5q2.21875 0 3.953125 -1.171875q1.734375 -1.171875 2.796875 -3.734375q1.0625 -2.5625 1.0625 -6.03125q0 -3.390625 -1.140625 -6.0625q-0.890625 -2.1405945 -2.671875 -3.3280945q-1.78125 -1.1875 -4.015625 -1.1875zm16.866882 1.828125l0 -2.140625q1.90625 -0.15625 3.390625 -0.625q1.484375 -0.484375 3.375 -1.578125l1.953125 0l0 4.921875q1.859375 -2.265625 4.296875 -3.59375q2.453125 -1.328125 4.40625 -1.328125q1.921875 0 3.046875 0.90625q1.125 0.90625 1.125 2.21875q0 0.9375 -0.75 1.65625q-0.734375 0.703125 -1.78125 0.703125q-0.46875 0 -0.8125 -0.125q-0.328125 -0.125 -0.984375 -0.578125q-1.4375 -0.9375 -2.390625 -0.9375q-1.3125 0 -2.875 1.09375q-1.96875 1.40625 -3.09375 2.7655945l0 12.0q0 1.5625 0.171875 2.125q0.171875 0.5625 0.5625 0.96875q0.390625 0.40625 0.953125 0.59375q0.578125 0.171875 2.015625 0.171875l0.859375 0l0 2.1875l-13.46875 0l0 -2.1875l1.125 0q1.578125 0 2.078125 -0.28125q0.671875 -0.390625 1.0 -1.078125q0.328125 -0.703125 0.328125 -2.5l0 -15.3593445l-4.53125 0zm23.148743 -12.468765l0 -2.140625q3.328125 -0.25 6.90625 -2.1875l2.0 0l0 25.98436l9.5625 -7.5937195q2.28125 -1.828125 2.28125 -2.421875q0 -0.375 -0.484375 -0.578125q-0.3125 -0.125 -1.546875 -0.125l-1.375 0l0 -2.1875l13.203125 0l0 2.1875q-2.21875 0 -3.546875 0.453125q-1.328125 0.453125 -3.0625 1.78125l-7.5625 5.7499695l8.90625 9.75q1.28125 1.40625 2.078125 1.984375q0.8125 0.5625 1.609375 0.78125q0.8125 0.21875 2.53125 0.25l0 2.1875l-13.84375 0l0 -2.1875l1.0625 0q1.59375 0 2.0 -0.25q0.421875 -0.25 0.421875 -0.65625q0 -0.421875 -0.78125 -1.203125q-0.125 -0.125 -0.28125 -0.3125l-6.921875 -7.96875l-4.25 3.25l0 3.421875q0 1.890625 0.28125 2.5q0.296875 0.59375 0.90625 0.90625q0.609375 0.3125 2.359375 0.3125l0.953125 0l0 2.1875l-13.40625 0l0 -2.1875q2.265625 -0.03125 2.78125 -0.1875q0.921875 -0.28125 1.3125 -1.0q0.40625 -0.734375 0.40625 -2.828125l0 -27.67186l-4.5 0zm51.069702 8.750015l1.8125 0l2.34375 7.9687195l-2.34375 0.78125q-1.40625 -3.2030945 -3.953125 -5.0312195q-2.53125 -1.84375 -5.125 -1.84375q-2.015625 0 -3.265625 0.984375q-1.25 0.96875 -1.25 2.234375q0 1.2030945 0.921875 2.0624695q0.875 0.890625 3.984375 2.0l5.078125 1.796875q4.296875 1.546875 5.859375 3.28125q1.53125 1.78125 1.53125 4.015625q0 1.90625 -1.15625 3.671875q-1.140625 1.75 -3.3125 2.796875q-2.171875 1.03125 -4.984375 1.03125q-4.375 0 -7.5 -2.5l-0.546875 1.875l-1.84375 0l-3.265625 -8.515625l2.375 -0.9375q2.375 3.75 4.484375 5.3125q2.9375 2.21875 6.34375 2.21875q2.265625 0 3.71875 -1.203125q1.46875 -1.21875 1.46875 -2.703125q0 -1.234375 -0.90625 -2.25q-0.9375 -0.984375 -3.59375 -1.921875l-6.015625 -2.1875q-3.890625 -1.40625 -5.390625 -3.078125q-1.515625 -1.65625 -1.515625 -3.828125q0 -2.6249695 2.453125 -4.6405945q2.46875 -2.015625 6.265625 -2.015625q1.984375 0 3.546875 0.515625q1.5625 0.5 3.078125 1.671875l0.703125 -1.5625zm10.091034 -8.64064l0 -2.25q2.53125 -0.328125 3.9375 -0.78125q1.40625 -0.46875 2.9375 -1.40625l2.03125 0l0 17.218765q2.953125 -2.484375 5.578125 -3.625q2.625 -1.140625 5.03125 -1.140625q3.484375 0 5.75 2.078125q2.234375 2.078125 2.234375 5.0780945l0 12.78125q0 1.90625 0.296875 2.5q0.296875 0.578125 1.0 0.859375q0.703125 0.265625 3.15625 0.265625l0 2.1875l-13.4375 0l0 -2.1875l1.0 0q1.890625 0 2.484375 -0.296875q0.609375 -0.296875 0.875 -0.984375q0.28125 -0.703125 0.28125 -2.859375l0 -8.875q0 -2.953125 -0.203125 -3.828125q-0.390625 -1.5155945 -1.625 -2.4218445q-1.21875 -0.921875 -3.125 -0.921875q-2.125 0 -4.46875 1.0625q-2.328125 1.046875 -4.828125 3.1562195l0 13.046875q0 1.46875 0.265625 1.96875q0.265625 0.484375 0.859375 0.71875q0.59375 0.234375 2.390625 0.234375l1.078125 0l0 2.1875l-13.5 0l0 -2.1875l0.8125 0q1.90625 0 2.765625 -0.46875q0.46875 -0.234375 0.671875 -0.90625q0.203125 -0.6875 0.203125 -3.75l0 -26.45311l-4.453125 0zm48.361145 8.01564q3.828125 0 6.625 1.59375q2.796875 1.578125 4.40625 4.625q1.625 3.0468445 1.625 6.9530945q0 3.90625 -1.65625 6.953125q-1.65625 3.046875 -4.515625 4.65625q-2.84375 1.59375 -6.796875 1.59375q-6.296875 0 -9.46875 -3.921875q-3.15625 -3.9375 -3.15625 -9.25q0 -3.890625 1.640625 -6.8905945q1.640625 -3.015625 4.59375 -4.65625q2.953125 -1.65625 6.703125 -1.65625zm-0.203125 2.515625q-2.96875 0 -5.03125 2.34375q-2.609375 2.9218445 -2.609375 8.4999695q0 5.359375 2.21875 8.171875q2.0 2.5 5.4375 2.5q2.21875 0 3.953125 -1.171875q1.734375 -1.171875 2.796875 -3.734375q1.0625 -2.5625 1.0625 -6.03125q0 -3.390625 -1.140625 -6.0625q-0.890625 -2.1405945 -2.671875 -3.3280945q-1.78125 -1.1875 -4.015625 -1.1875zm16.663757 1.828125l0 -2.140625q1.953125 0 3.453125 -0.484375q1.515625 -0.5 3.3125 -1.71875l2.0625 0l0 4.34375q3.25 -2.578125 5.40625 -3.453125q2.171875 -0.890625 4.328125 -0.890625q4.453125 0 7.578125 3.484375q3.140625 3.4843445 3.140625 9.0937195q0 6.1875 -3.5625 10.15625q-3.25 3.640625 -8.375 3.640625q-2.5625 0 -4.796875 -0.96875q-1.609375 -0.671875 -3.71875 -2.421875l0 8.578125q0 1.921875 0.09375 2.265625q0.140625 0.484375 0.53125 0.828125q0.390625 0.34375 0.984375 0.4375q0.4375 0.078125 2.96875 0.078125l0 2.1875l-13.40625 0l0 -2.1875l1.171875 0q1.796875 0 2.328125 -0.28125q0.53125 -0.265625 0.796875 -0.828125q0.15625 -0.453125 0.15625 -2.71875l0 -26.99997l-4.453125 0zm8.828125 2.6874695l0 8.953125q0 1.765625 0.203125 2.625q0.3125 1.328125 1.203125 2.40625q0.90625 1.0625 2.453125 1.828125q1.546875 0.75 3.25 0.75q3.375 0 5.859375 -2.546875q2.5 -2.5625 2.5 -7.75q0 -4.84375 -2.0625 -7.4843445q-2.0625 -2.640625 -4.875 -2.640625q-1.8125 0 -3.953125 0.96875q-2.140625 0.953125 -4.578125 2.8905945zm42.132202 -6.4062195l1.8125 0l2.34375 7.9687195l-2.34375 0.78125q-1.40625 -3.2030945 -3.953125 -5.0312195q-2.53125 -1.84375 -5.125 -1.84375q-2.015625 0 -3.265625 0.984375q-1.25 0.96875 -1.25 2.234375q0 1.2030945 0.921875 2.0624695q0.875 0.890625 3.984375 2.0l5.078125 1.796875q4.296875 1.546875 5.859375 3.28125q1.53125 1.78125 1.53125 4.015625q0 1.90625 -1.15625 3.671875q-1.140625 1.75 -3.3125 2.796875q-2.171875 1.03125 -4.984375 1.03125q-4.375 0 -7.5 -2.5l-0.546875 1.875l-1.84375 0l-3.265625 -8.515625l2.375 -0.9375q2.375 3.75 4.484375 5.3125q2.9375 2.21875 6.34375 2.21875q2.265625 0 3.71875 -1.203125q1.46875 -1.21875 1.46875 -2.703125q0 -1.234375 -0.90625 -2.25q-0.9375 -0.984375 -3.59375 -1.921875l-6.015625 -2.1875q-3.890625 -1.40625 -5.390625 -3.078125q-1.515625 -1.65625 -1.515625 -3.828125q0 -2.6249695 2.453125 -4.6405945q2.46875 -2.015625 6.265625 -2.015625q1.984375 0 3.546875 0.515625q1.5625 0.5 3.078125 1.671875l0.703125 -1.5625z" fill-rule="nonzero" style="animation-name:alternateRotate;animation-duration:1s;animation-iteration-count:infinite;animation-timing-function:ease-in-out;transform-origin: 50%;"/></g>
<style xmlns="http://www.w3.org/2000/svg">
    @keyframes alternateRotate {
        0% {transform:rotate(-10deg);}
        50% {transform:rotate(10deg);}
        100% {transform:rotate(-10deg);}
    }
</style>
</svg>