<svg xmlns:xlink="http://www.w3.org/1999/xlink" xmlns="http://www.w3.org/2000/svg" version="1.1" viewBox="0.0 0.0 960.0 540.0" fill="none" stroke="none" stroke-linecap="square" stroke-miterlimit="10"><clipPath id="g64163215f9_0_22.0"><path d="m0 0l960.0 0l0 540.0l-960.0 0l0 -540.0z" clip-rule="nonzero"/></clipPath><g clip-path="url(#g64163215f9_0_22.0)"><path fill="#ffffff" d="m0 0l960.0 0l0 540.0l-960.0 0z" fill-rule="evenodd"/><path fill="#cccccc" d="m-24.388453 388.39105l1001.95276 -268.47244l8.37793 31.275597l-1001.95276 268.47244z" fill-rule="evenodd"/><path stroke="#cccccc" stroke-width="1.0" stroke-linejoin="round" stroke-linecap="butt" d="m-24.388453 388.39105l1001.95276 -268.47244l8.37793 31.275597l-1001.95276 268.47244z" fill-rule="evenodd"/><path fill="#000000" d="m408.0 348.0l96.0 0l0 192.0l-96.0 0z" fill-rule="evenodd"/><path stroke="#000000" stroke-width="1.0" stroke-linejoin="round" stroke-linecap="butt" d="m408.0 348.0l96.0 0l0 192.0l-96.0 0z" fill-rule="evenodd"/><path fill="#000000" d="m456.0 0l96.0 0l0 192.0l-96.0 0z" fill-rule="evenodd"/><path stroke="#000000" stroke-width="1.0" stroke-linejoin="round" stroke-linecap="butt" d="m456.0 0l96.0 0l0 192.0l-96.0 0z" fill-rule="evenodd"/><path fill="#000000" d="m408.0 348.0l47.671204 -156.0l96.3288 0l-47.671204 156.0z" fill-rule="evenodd"/><path stroke="#000000" stroke-width="1.0" stroke-linejoin="round" stroke-linecap="butt" d="m408.0 348.0l47.671204 -156.0l96.3288 0l-47.671204 156.0z" fill-rule="evenodd"/><path fill="#000000" fill-opacity="0.0" d="m0 0l456.0 0l0 178.07874l-456.0 0z" fill-rule="evenodd"/><path fill="#000000" d="m16.222656 63.33937l19.53125 0l0 3.328125l-2.0625 0q-2.03125 0 -2.78125 0.390625q-1.125 0.625 -1.125 1.875q0 0.890625 0.625 2.84375l11.171875 36.328125l9.6875 -29.84375l-2.265625 -7.21875q-0.828125 -2.578125 -2.5 -3.71875q-1.015625 -0.65625 -3.5625 -0.65625l0 -3.328125l19.375 0l0 3.328125l-1.828125 0q-2.390625 0 -3.21875 0.59375q-0.8125 0.578125 -0.8125 1.59375q0 0.859375 0.625 2.921875l11.21875 36.5625l11.28125 -36.5625q0.59375 -1.90625 0.59375 -2.890625q0 -1.125 -0.78125 -1.671875q-0.78125 -0.546875 -3.09375 -0.546875l-1.953125 0l0 -3.328125l16.640625 0l0 3.328125q-2.109375 -0.046875 -3.140625 0.40625q-1.03125 0.453125 -1.703125 1.296875q-0.65625 0.828125 -1.4375 3.40625l-15.046875 46.0625l-5.65625 0l-10.515625 -32.578125l-10.546875 32.578125l-5.625 0l-14.765625 -46.0625q-1.046875 -3.3125 -2.609375 -4.375q-1.171875 -0.734375 -3.71875 -0.734375l0 -3.328125zm78.671875 3.828125l0 -3.359375q3.796875 -0.5 5.90625 -1.1875q2.109375 -0.6875 4.40625 -2.09375l3.046875 0l0 25.828125q4.421875 -3.71875 8.359375 -5.4375q3.953125 -1.71875 7.546875 -1.71875q5.234375 0 8.625 3.125q3.359375 3.125 3.359375 7.625l0 19.171875q0 2.859375 0.453125 3.734375q0.453125 0.875 1.5 1.296875q1.0625 0.40625 4.734375 0.40625l0 3.28125l-20.15625 0l0 -3.28125l1.484375 0q2.84375 0 3.734375 -0.453125q0.90625 -0.453125 1.3125 -1.484375q0.421875 -1.03125 0.421875 -4.28125l0 -13.3125q0 -4.421875 -0.3125 -5.75q-0.59375 -2.265625 -2.4375 -3.625q-1.828125 -1.375 -4.671875 -1.375q-3.203125 0 -6.703125 1.59375q-3.5 1.578125 -7.25 4.734375l0 19.578125q0 2.1875 0.390625 2.9375q0.390625 0.734375 1.28125 1.09375q0.90625 0.34375 3.609375 0.34375l1.59375 0l0 3.28125l-20.234375 0l0 -3.28125l1.21875 0q2.84375 0 4.140625 -0.703125q0.703125 -0.359375 1.015625 -1.375q0.3125 -1.015625 0.3125 -5.625l0 -39.6875l-6.6875 0zm72.546875 12.03125q5.734375 0 9.9375 2.390625q4.203125 2.375 6.625 6.953125q2.421875 4.5625 2.421875 10.421875q0 5.859375 -2.484375 10.4375q-2.484375 4.5625 -6.765625 6.96875q-4.265625 2.40625 -10.203125 2.40625q-9.453125 0 -14.203125 -5.890625q-4.75 -5.90625 -4.75 -13.875q0 -5.828125 2.453125 -10.328125q2.46875 -4.515625 6.90625 -7.0q4.4375 -2.484375 10.0625 -2.484375zm-0.3125 3.796875q-4.453125 0 -7.546875 3.515625q-3.90625 4.375 -3.90625 12.734375q0 8.046875 3.328125 12.265625q3.0 3.75 8.15625 3.75q3.328125 0 5.921875 -1.75q2.59375 -1.765625 4.1875 -5.609375q1.609375 -3.859375 1.609375 -9.046875q0 -5.078125 -1.71875 -9.109375q-1.328125 -3.203125 -4.0 -4.96875q-2.671875 -1.78125 -6.03125 -1.78125zm72.140625 -19.65625l6.453125 0l16.90625 45.546875q1.25 3.4375 2.515625 4.5625q1.28125 1.109375 3.421875 1.109375l0.859375 0l0 3.28125l-19.40625 0l0 -3.28125q0.9375 -0.078125 1.828125 -0.078125q1.875 0 2.46875 -0.390625q1.125 -0.75 1.125 -1.875q0 -0.828125 -1.09375 -4.03125l-3.59375 -10.546875l-19.765625 0l-4.21875 11.796875q-0.65625 1.84375 -0.65625 2.546875q0 0.78125 0.40625 1.375q0.40625 0.578125 1.109375 0.875q0.703125 0.28125 2.265625 0.28125q1.0625 0 1.71875 0.046875l0 3.28125l-16.28125 0l0 -3.28125q2.265625 0 3.25 -0.453125q1.0 -0.453125 1.734375 -1.4375q0.75 -1.0 1.96875 -4.203125l16.984375 -45.125zm-6.828125 30.46875l16.828125 0l-8.4375 -23.4375l-8.390625 23.4375zm39.992188 -8.046875l0 -3.3125q2.9375 -0.28125 5.125 -0.953125q2.1875 -0.6875 5.0 -2.296875l2.890625 0l0 6.5625q4.453125 -3.515625 6.953125 -4.71875q3.828125 -1.84375 7.296875 -1.84375q2.390625 0 4.671875 0.890625q2.28125 0.875 3.671875 2.171875q1.390625 1.28125 2.359375 3.5q4.109375 -3.625 7.59375 -5.09375q3.5 -1.46875 7.09375 -1.46875q3.4375 0 6.078125 1.4375q2.640625 1.421875 3.828125 3.578125q1.1875 2.140625 1.1875 6.28125l0 18.125q0 2.84375 0.125 3.3125q0.1875 0.75 0.828125 1.421875q0.65625 0.65625 1.46875 0.9375q0.828125 0.265625 3.046875 0.265625l1.25 0l0 3.28125l-19.640625 0l0 -3.28125q3.359375 -0.046875 4.34375 -0.484375q1.0 -0.453125 1.484375 -1.46875q0.5 -1.015625 0.5 -3.984375l0 -17.234375q0 -3.28125 -0.59375 -4.53125q-0.578125 -1.25 -2.09375 -2.078125q-1.5 -0.84375 -3.71875 -0.84375q-2.78125 0 -5.828125 1.484375q-4.0625 2.03125 -6.40625 4.5625l0 18.640625q0 2.6875 0.25 3.53125q0.265625 0.84375 0.859375 1.40625q0.609375 0.5625 1.40625 0.78125q0.8125 0.21875 3.890625 0.21875l0 3.28125l-19.25 0l0 -3.28125l1.09375 0q2.296875 0 3.25 -0.546875q0.96875 -0.546875 1.515625 -1.6875q0.390625 -0.890625 0.390625 -3.703125l0 -16.640625q0 -3.671875 -0.578125 -4.953125q-0.5625 -1.296875 -2.171875 -2.1875q-1.59375 -0.90625 -3.734375 -0.90625q-2.546875 0 -5.125 1.25q-3.828125 1.828125 -7.03125 4.796875l0 20.078125q0 1.796875 0.484375 2.640625q0.5 0.84375 1.546875 1.359375q1.0625 0.5 2.890625 0.5l1.453125 0l0 3.28125l-19.65625 0l0 -3.28125l1.0625 0q2.6875 0 3.546875 -0.4375q1.25 -0.578125 1.796875 -1.875q0.3125 -0.703125 0.3125 -3.625l0 -22.859375l-6.71875 0zm101.140625 -22.421875l20.859375 0l0 3.328125l-1.609375 0q-2.265625 0 -3.28125 0.625q-1.015625 0.625 -1.484375 1.78125q-0.46875 1.140625 -0.46875 4.46875l0 35.109375q0 2.65625 0.5 3.78125q0.515625 1.109375 1.4375 1.625q0.921875 0.5 3.296875 0.5l1.609375 0l0 3.28125l-20.859375 0l0 -3.28125l1.71875 0q2.296875 0 3.25 -0.53125q0.96875 -0.53125 1.390625 -1.515625q0.4375 -1.0 0.4375 -3.859375l0 -35.9375q0 -3.0 -0.4375 -4.03125q-0.421875 -1.046875 -1.390625 -1.53125q-0.953125 -0.484375 -3.25 -0.484375l-1.71875 0l0 -3.328125zm37.890625 41.40625l0 -13.859375q7.765625 0.078125 11.578125 -1.28125q3.8125 -1.375 5.8125 -4.203125q2.015625 -2.84375 2.015625 -6.359375q0 -3.203125 -1.78125 -6.296875q-1.765625 -3.109375 -4.703125 -4.828125q-2.921875 -1.71875 -6.25 -1.71875q-2.65625 0 -4.578125 1.0q-1.90625 0.984375 -3.578125 3.375q-1.640625 2.375 -2.34375 2.921875q-1.375 1.0625 -2.734375 1.0625q-0.9375 0 -1.859375 -0.484375q-0.921875 -0.5 -1.265625 -1.125q-0.515625 -0.9375 -0.515625 -1.875q0 -3.078125 3.59375 -5.421875q5.0 -3.25 12.03125 -3.25q6.328125 0 11.171875 2.375q4.84375 2.359375 7.34375 6.265625q2.5 3.90625 2.5 8.828125q0 7.6875 -6.109375 11.953125q-6.109375 4.25 -16.265625 4.296875l0 8.625l-4.0625 0zm1.984375 3.984375q2.03125 0 3.453125 1.4375q1.4375 1.421875 1.4375 3.453125q0 2.03125 -1.453125 3.46875q-1.4375 1.421875 -3.4375 1.421875q-2.03125 0 -3.484375 -1.421875q-1.4375 -1.4375 -1.4375 -3.46875q0 -2.03125 1.421875 -3.453125q1.4375 -1.4375 3.5 -1.4375z" fill-rule="nonzero"/><path fill="#000000" fill-opacity="0.0" d="m504.0 361.92126l456.0 0l0 178.07874l-456.0 0z" fill-rule="evenodd"/><path fill="#000000" d="m583.1953 406.3375l12.515625 0l0 2.0l-1.234375 0q-1.265625 0 -1.796875 0.265625q-0.53125 0.25 -0.8125 0.8125q-0.28125 0.5625 -0.28125 1.6875l0 17.265625q0 3.921875 -1.265625 6.140625q-1.265625 2.203125 -4.046875 3.65625q-2.765625 1.4375 -6.515625 1.4375q-5.0 0 -8.046875 -2.640625q-3.03125 -2.65625 -3.03125 -6.171875q0 -1.765625 0.796875 -2.71875q0.8125 -0.96875 2.0 -0.96875q0.9375 0 1.5625 0.703125q0.625 0.703125 0.625 1.828125q0 0.328125 -0.1875 1.34375q-0.21875 1.046875 -0.21875 1.46875q0 1.734375 1.765625 3.15625q1.78125 1.421875 4.59375 1.421875q2.3125 0 4.15625 -1.03125q1.859375 -1.03125 2.671875 -2.578125q0.8125 -1.546875 0.8125 -4.484375l0 -17.078125q0 -1.734375 -0.28125 -2.328125q-0.265625 -0.609375 -0.859375 -0.890625q-0.578125 -0.296875 -2.140625 -0.296875l-0.78125 0l0 -2.0zm27.992188 9.515625q3.4375 0 5.953125 1.4375q2.53125 1.421875 3.984375 4.171875q1.453125 2.734375 1.453125 6.25q0 3.515625 -1.5 6.265625q-1.484375 2.734375 -4.046875 4.1875q-2.5625 1.4375 -6.125 1.4375q-5.671875 0 -8.53125 -3.53125q-2.84375 -3.546875 -2.84375 -8.328125q0 -3.5 1.46875 -6.203125q1.484375 -2.703125 4.140625 -4.1875q2.671875 -1.5 6.046875 -1.5zm-0.1875 2.28125q-2.671875 0 -4.53125 2.109375q-2.34375 2.625 -2.34375 7.640625q0 4.828125 2.0 7.359375q1.796875 2.25 4.890625 2.25q2.0 0 3.546875 -1.046875q1.5625 -1.0625 2.515625 -3.375q0.96875 -2.3125 0.96875 -5.421875q0 -3.046875 -1.03125 -5.46875q-0.796875 -1.921875 -2.40625 -2.984375q-1.59375 -1.0625 -3.609375 -1.0625zm31.101562 -1.71875l1.640625 0l2.109375 7.171875l-2.109375 0.703125q-1.265625 -2.875 -3.5625 -4.53125q-2.28125 -1.65625 -4.625 -1.65625q-1.796875 0 -2.921875 0.890625q-1.125 0.875 -1.125 2.015625q0 1.078125 0.8125 1.859375q0.796875 0.796875 3.59375 1.796875l4.5625 1.625q3.875 1.375 5.28125 2.953125q1.375 1.59375 1.375 3.609375q0 1.703125 -1.03125 3.296875q-1.03125 1.578125 -2.984375 2.515625q-1.953125 0.9375 -4.484375 0.9375q-3.9375 0 -6.75 -2.25l-0.5 1.6875l-1.65625 0l-2.9375 -7.671875l2.140625 -0.84375q2.125 3.375 4.03125 4.78125q2.640625 2.0 5.71875 2.0q2.03125 0 3.34375 -1.09375q1.3125 -1.09375 1.3125 -2.421875q0 -1.109375 -0.8125 -2.015625q-0.84375 -0.890625 -3.234375 -1.734375l-5.421875 -1.96875q-3.484375 -1.265625 -4.84375 -2.765625q-1.359375 -1.5 -1.359375 -3.453125q0 -2.359375 2.203125 -4.171875q2.21875 -1.828125 5.640625 -1.828125q1.78125 0 3.1875 0.46875q1.40625 0.453125 2.765625 1.5l0.640625 -1.40625zm9.0859375 -7.78125l0 -2.015625q2.28125 -0.296875 3.546875 -0.703125q1.265625 -0.421875 2.640625 -1.265625l1.828125 0l0 15.5q2.65625 -2.234375 5.015625 -3.265625q2.375 -1.03125 4.53125 -1.03125q3.140625 0 5.171875 1.875q2.015625 1.875 2.015625 4.578125l0 11.5q0 1.71875 0.265625 2.25q0.28125 0.515625 0.90625 0.765625q0.640625 0.25 2.84375 0.25l0 1.96875l-12.09375 0l0 -1.96875l0.890625 0q1.703125 0 2.234375 -0.265625q0.546875 -0.28125 0.796875 -0.890625q0.25 -0.625 0.25 -2.578125l0 -7.984375q0 -2.65625 -0.1875 -3.453125q-0.359375 -1.359375 -1.46875 -2.171875q-1.09375 -0.828125 -2.796875 -0.828125q-1.921875 0 -4.03125 0.953125q-2.09375 0.953125 -4.34375 2.84375l0 11.75q0 1.3125 0.234375 1.765625q0.234375 0.4375 0.765625 0.65625q0.546875 0.203125 2.171875 0.203125l0.953125 0l0 1.96875l-12.140625 0l0 -1.96875l0.734375 0q1.703125 0 2.484375 -0.421875q0.421875 -0.21875 0.609375 -0.828125q0.1875 -0.609375 0.1875 -3.375l0 -23.8125l-4.015625 0zm30.421875 7.78125l8.890625 -0.34375l0 15.09375q0 1.984375 0.546875 3.15625q0.546875 1.171875 1.6875 1.828125q1.140625 0.640625 2.65625 0.640625q1.875 0 4.25 -1.0q2.390625 -1.015625 4.75 -3.015625l0 -10.921875q0 -1.734375 -0.265625 -2.265625q-0.25 -0.546875 -0.90625 -0.875q-0.65625 -0.328125 -2.0625 -0.328125l-1.703125 0l0 -1.96875l8.875 -0.34375l0 17.484375q0 1.6875 0.28125 2.328125q0.28125 0.640625 0.828125 0.921875q0.5625 0.265625 2.21875 0.265625l0.734375 0l0 1.96875l-7.78125 0.40625l0 -4.34375q-3.21875 2.546875 -5.609375 3.53125q-2.390625 0.96875 -4.84375 0.96875q-1.828125 0 -3.1875 -0.5q-1.34375 -0.484375 -2.359375 -1.46875q-1.015625 -0.984375 -1.5625 -2.359375q-0.53125 -1.390625 -0.53125 -2.96875l0 -10.65625q0 -1.4375 -0.265625 -2.0q-0.25 -0.578125 -0.859375 -0.921875q-0.59375 -0.34375 -1.625 -0.34375l-2.15625 0l0 -1.96875zm50.773438 9.046875l0 -2.546875q0 -2.609375 -1.453125 -3.71875q-1.453125 -1.109375 -4.109375 -1.109375q-1.3125 0 -2.296875 0.3125q-0.984375 0.3125 -1.578125 0.875q-0.59375 0.546875 -0.875 1.25q-0.125 0.25 -0.5625 1.984375q-0.546875 2.109375 -2.1875 2.109375q-0.9375 0 -1.515625 -0.609375q-0.5625 -0.625 -0.5625 -1.6875q0 -1.546875 1.140625 -3.03125q1.15625 -1.484375 3.5 -2.453125q2.359375 -0.984375 5.578125 -0.984375q3.0 0 5.125 0.9375q2.140625 0.921875 3.140625 2.65625q0.703125 1.1875 0.703125 4.359375l0 9.015625q0 1.921875 0.125 2.515625q0.25 1.0 0.890625 1.515625q0.65625 0.5 1.6875 0.5q1.078125 0 2.578125 -0.515625l0 2.03125q-1.953125 0.578125 -3.5 0.578125q-1.65625 0 -2.796875 -0.46875q-1.140625 -0.484375 -1.875 -1.375q-0.71875 -0.90625 -0.921875 -2.15625q-2.8125 2.203125 -5.09375 3.109375q-2.265625 0.890625 -4.59375 0.890625q-3.234375 0 -5.25 -1.765625q-2.015625 -1.765625 -2.015625 -4.125q0 -1.4375 0.734375 -2.71875q0.75 -1.296875 2.25 -2.28125q1.515625 -0.984375 4.75 -1.734375q3.234375 -0.75 8.984375 -1.359375zm0 2.046875q-5.4375 0.796875 -6.734375 1.09375q-2.546875 0.59375 -3.65625 1.296875q-1.09375 0.703125 -1.5625 1.515625q-0.46875 0.796875 -0.46875 1.71875q0 0.90625 0.515625 1.765625q0.53125 0.859375 1.484375 1.359375q0.96875 0.484375 2.046875 0.484375q1.53125 0 3.453125 -0.71875q1.921875 -0.734375 4.921875 -2.84375l0 -5.671875zm44.273438 -21.734375q4.46875 0 8.078125 2.15625q3.921875 2.328125 6.015625 6.03125q2.09375 3.703125 2.09375 8.578125q0 7.546875 -4.6875 12.3125q-4.6875 4.75 -11.953125 4.75q-8.109375 0 -12.84375 -5.71875q-3.859375 -4.671875 -3.859375 -11.15625q0 -4.828125 2.171875 -8.65625q2.1875 -3.84375 6.1875 -6.0625q4.015625 -2.234375 8.796875 -2.234375zm0 2.53125q-3.65625 0 -6.28125 1.6875q-2.625 1.671875 -4.21875 4.9375q-1.578125 3.25 -1.578125 8.03125q0 4.5625 1.5625 7.75q1.5625 3.171875 4.1875 4.859375q2.625 1.6875 5.90625 1.6875q3.25 0 5.75 -1.65625q2.515625 -1.65625 4.15625 -5.203125q1.640625 -3.546875 1.640625 -7.890625q0 -4.40625 -1.640625 -8.0625q-1.40625 -3.140625 -3.734375 -4.640625q-2.3125 -1.5 -5.75 -1.5zm20.203125 0.234375l0 -1.921875q3.1875 -0.234375 6.203125 -1.96875l1.734375 0l0 28.859375q0 1.828125 0.234375 2.296875q0.3125 0.65625 0.890625 0.96875q0.59375 0.296875 2.25 0.296875l0.75 0l0 1.96875l-12.0625 0l0 -1.96875l1.21875 0q1.140625 0 1.71875 -0.34375q0.578125 -0.359375 0.8125 -0.96875q0.25 -0.609375 0.25 -2.4375l0 -24.78125l-4.0 0zm20.4375 -3.25q1.125 0 1.921875 0.78125q0.796875 0.78125 0.796875 1.90625q0 1.125 -0.796875 1.921875q-0.796875 0.796875 -1.921875 0.796875q-1.125 0 -1.921875 -0.796875q-0.796875 -0.796875 -0.796875 -1.921875q0 -1.125 0.796875 -1.90625q0.796875 -0.78125 1.921875 -0.78125zm-5.984375 14.5l0 -1.9375q1.953125 -0.234375 3.265625 -0.65625q1.328125 -0.421875 3.015625 -1.34375l1.71875 0l0 18.796875q0 0.984375 0.28125 1.484375q0.28125 0.484375 0.78125 0.71875q0.5 0.21875 1.84375 0.21875l1.09375 0l0 1.96875l-12.0 0l0 -1.96875l0.96875 0q1.5625 0 2.09375 -0.28125q0.546875 -0.28125 0.765625 -0.796875q0.234375 -0.515625 0.234375 -2.421875l0 -13.78125l-4.0625 0zm12.84375 -3.375l10.734375 0l0 1.96875l-0.65625 0q-1.328125 0 -1.65625 0.09375q-0.46875 0.140625 -0.703125 0.453125q-0.234375 0.296875 -0.234375 0.71875q0 0.59375 0.515625 1.90625l5.34375 13.328125l5.171875 -13.328125q0.5 -1.296875 0.5 -1.875q0 -0.609375 -0.46875 -0.953125q-0.46875 -0.34375 -1.6875 -0.34375l-1.125 0l0 -1.96875l9.25 0l0 1.96875q-0.953125 0.03125 -1.609375 0.3125q-0.640625 0.28125 -1.0 0.734375q-0.359375 0.4375 -1.09375 2.125l-7.46875 17.484375l-2.8125 0l-7.53125 -17.890625q-0.46875 -1.09375 -1.03125 -1.796875q-0.375 -0.453125 -1.0 -0.703125q-0.609375 -0.265625 -1.4375 -0.265625l0 -1.96875zm46.757812 16.578125l1.5 1.21875q-1.703125 2.03125 -3.3125 3.234375q-1.609375 1.1875 -3.046875 1.671875q-1.421875 0.484375 -3.34375 0.484375q-3.4375 0 -5.859375 -1.40625q-2.765625 -1.625 -4.25 -4.21875q-1.46875 -2.609375 -1.46875 -6.140625q0 -3.703125 1.421875 -6.328125q1.4375 -2.625 4.0 -4.140625q2.578125 -1.515625 5.953125 -1.515625q2.5 0 4.34375 0.796875q1.859375 0.78125 3.140625 2.359375q1.296875 1.578125 1.890625 3.625q0.328125 1.1875 0.375 3.09375l-16.578125 0q-0.0625 1.140625 -0.0625 1.703125q0 2.953125 1.03125 5.265625q1.03125 2.3125 2.71875 3.40625q1.703125 1.078125 3.859375 1.078125q1.828125 0 3.53125 -0.84375q1.71875 -0.859375 4.15625 -3.34375zm-3.0 -9.46875q-0.34375 -2.15625 -1.0 -3.1875q-0.640625 -1.03125 -1.828125 -1.640625q-1.171875 -0.609375 -2.65625 -0.609375q-1.46875 0 -2.765625 0.609375q-1.28125 0.609375 -2.140625 1.6875q-0.859375 1.078125 -1.484375 3.140625l11.875 0zm7.8515625 -3.75l0 -1.921875q1.71875 -0.140625 3.046875 -0.578125q1.34375 -0.4375 3.046875 -1.421875l1.765625 0l0 4.4375q1.65625 -2.046875 3.859375 -3.234375q2.203125 -1.203125 3.96875 -1.203125q1.734375 0 2.734375 0.828125q1.015625 0.8125 1.015625 1.984375q0 0.84375 -0.671875 1.5q-0.671875 0.640625 -1.609375 0.640625q-0.421875 0 -0.734375 -0.109375q-0.296875 -0.125 -0.875 -0.53125q-1.296875 -0.84375 -2.15625 -0.84375q-1.171875 0 -2.578125 0.984375q-1.78125 1.265625 -2.796875 2.484375l0 10.8125q0 1.40625 0.15625 1.90625q0.15625 0.5 0.5 0.875q0.359375 0.359375 0.875 0.53125q0.515625 0.15625 1.796875 0.15625l0.78125 0l0 1.96875l-12.125 0l0 -1.96875l1.015625 0q1.421875 0 1.875 -0.265625q0.609375 -0.34375 0.890625 -0.96875q0.296875 -0.625 0.296875 -2.234375l0 -13.828125l-4.078125 0z" fill-rule="nonzero"/><path fill="#000000" d="m576.9375 464.3375l12.515625 0l0 2.0l-1.234375 0q-1.265625 0 -1.796875 0.265625q-0.53125 0.25 -0.8125 0.8125q-0.28125 0.5625 -0.28125 1.6875l0 17.265625q0 3.921875 -1.265625 6.140625q-1.265625 2.203125 -4.046875 3.65625q-2.765625 1.4375 -6.515625 1.4375q-5.0 0 -8.046875 -2.640625q-3.03125 -2.65625 -3.03125 -6.171875q0 -1.765625 0.796875 -2.71875q0.8125 -0.96875 2.0 -0.96875q0.9375 0 1.5625 0.703125q0.625 0.703125 0.625 1.828125q0 0.328125 -0.1875 1.34375q-0.21875 1.046875 -0.21875 1.46875q0 1.734375 1.765625 3.15625q1.78125 1.421875 4.59375 1.421875q2.3125 0 4.15625 -1.03125q1.859375 -1.03125 2.671875 -2.578125q0.8125 -1.546875 0.8125 -4.484375l0 -17.078125q0 -1.734375 -0.28125 -2.328125q-0.265625 -0.609375 -0.859375 -0.890625q-0.578125 -0.296875 -2.140625 -0.296875l-0.78125 0l0 -2.0zm27.992188 9.515625q3.4375 0 5.953125 1.4375q2.53125 1.421875 3.984375 4.171875q1.453125 2.734375 1.453125 6.25q0 3.515625 -1.5 6.265625q-1.484375 2.734375 -4.046875 4.1875q-2.5625 1.4375 -6.125 1.4375q-5.671875 0 -8.53125 -3.53125q-2.84375 -3.546875 -2.84375 -8.328125q0 -3.5 1.46875 -6.203125q1.484375 -2.703125 4.140625 -4.1875q2.671875 -1.5 6.046875 -1.5zm-0.1875 2.28125q-2.671875 0 -4.53125 2.109375q-2.34375 2.625 -2.34375 7.640625q0 4.828125 2.0 7.359375q1.796875 2.25 4.890625 2.25q2.0 0 3.546875 -1.046875q1.5625 -1.0625 2.515625 -3.375q0.96875 -2.3125 0.96875 -5.421875q0 -3.046875 -1.03125 -5.46875q-0.796875 -1.921875 -2.40625 -2.984375q-1.59375 -1.0625 -3.609375 -1.0625zm15.2578125 1.65625l0 -1.96875q2.078125 -0.234375 3.109375 -0.5625q1.03125 -0.328125 2.984375 -1.40625l1.6875 0l0 4.453125q3.09375 -2.59375 5.28125 -3.515625q2.1875 -0.9375 4.4375 -0.9375q1.921875 0 3.390625 0.65625q1.484375 0.640625 2.40625 1.75q0.9375 1.09375 1.234375 2.5q0.1875 0.859375 0.1875 2.625l0 10.3125q0 1.84375 0.265625 2.375q0.28125 0.53125 0.859375 0.765625q0.59375 0.234375 2.890625 0.234375l0 1.96875l-12.078125 0l0 -1.96875l0.65625 0q1.6875 0 2.296875 -0.296875q0.609375 -0.3125 0.875 -0.890625q0.28125 -0.59375 0.28125 -2.40625l0 -8.625q0 -2.671875 -0.4375 -3.703125q-0.4375 -1.03125 -1.484375 -1.671875q-1.03125 -0.640625 -2.625 -0.640625q-1.90625 0 -4.0625 0.96875q-2.15625 0.96875 -4.171875 2.875l0 10.796875q0 1.828125 0.265625 2.4375q0.28125 0.609375 0.890625 0.921875q0.421875 0.234375 2.25 0.234375l0.671875 0l0 1.96875l-12.0625 0l0 -1.96875l0.578125 0q1.734375 0 2.359375 -0.296875q0.640625 -0.296875 0.90625 -1.046875q0.140625 -0.375 0.140625 -2.578125l0 -13.359375l-3.984375 0zm35.109375 -1.328125l-1.265625 -1.546875q4.796875 -3.921875 4.796875 -6.546875q0 -0.296875 -0.046875 -0.75q-0.390625 0.171875 -0.765625 0.265625q-0.375 0.09375 -0.703125 0.09375q-1.125 0 -1.8125 -0.71875q-0.671875 -0.734375 -0.671875 -1.859375q0 -1.109375 0.8125 -1.921875q0.828125 -0.828125 1.96875 -0.828125q1.59375 0 2.734375 1.28125q1.140625 1.28125 1.140625 3.296875q0 1.3125 -0.546875 2.75q-0.53125 1.4375 -1.5625 2.671875q-1.03125 1.234375 -4.078125 3.8125zm22.992188 -2.046875l1.640625 0l2.109375 7.171875l-2.109375 0.703125q-1.265625 -2.875 -3.5625 -4.53125q-2.28125 -1.65625 -4.625 -1.65625q-1.796875 0 -2.921875 0.890625q-1.125 0.875 -1.125 2.015625q0 1.078125 0.8125 1.859375q0.796875 0.796875 3.59375 1.796875l4.5625 1.625q3.875 1.375 5.28125 2.953125q1.375 1.59375 1.375 3.609375q0 1.703125 -1.03125 3.296875q-1.03125 1.578125 -2.984375 2.515625q-1.953125 0.9375 -4.484375 0.9375q-3.9375 0 -6.75 -2.25l-0.5 1.6875l-1.65625 0l-2.9375 -7.671875l2.140625 -0.84375q2.125 3.375 4.03125 4.78125q2.640625 2.0 5.71875 2.0q2.03125 0 3.34375 -1.09375q1.3125 -1.09375 1.3125 -2.421875q0 -1.109375 -0.8125 -2.015625q-0.84375 -0.890625 -3.234375 -1.734375l-5.421875 -1.96875q-3.484375 -1.265625 -4.84375 -2.765625q-1.359375 -1.5 -1.359375 -3.453125q0 -2.359375 2.203125 -4.171875q2.21875 -1.828125 5.640625 -1.828125q1.78125 0 3.1875 0.46875q1.40625 0.453125 2.765625 1.5l0.640625 -1.40625zm37.140625 -10.078125l3.875 0l10.140625 27.328125q0.75 2.0625 1.515625 2.734375q0.765625 0.671875 2.046875 0.671875l0.515625 0l0 1.96875l-11.640625 0l0 -1.96875q0.5625 -0.046875 1.09375 -0.046875q1.125 0 1.484375 -0.234375q0.671875 -0.453125 0.671875 -1.125q0 -0.5 -0.65625 -2.421875l-2.15625 -6.328125l-11.859375 0l-2.53125 7.078125q-0.390625 1.109375 -0.390625 1.53125q0 0.46875 0.234375 0.828125q0.25 0.34375 0.671875 0.515625q0.421875 0.171875 1.359375 0.171875q0.640625 0 1.03125 0.03125l0 1.96875l-9.765625 0l0 -1.96875q1.359375 0 1.953125 -0.265625q0.59375 -0.28125 1.03125 -0.875q0.453125 -0.59375 1.1875 -2.515625l10.1875 -27.078125zm-4.09375 18.28125l10.09375 0l-5.0625 -14.0625l-5.03125 14.0625zm38.648438 -16.0l0 -2.0q1.59375 -0.140625 2.90625 -0.546875q1.328125 -0.40625 3.328125 -1.421875l1.75 0l0 28.4375q0 1.96875 0.09375 2.390625q0.234375 0.890625 0.796875 1.25q0.5625 0.34375 2.1875 0.34375l1.0 0l0 1.96875l-8.125 0.375l0 -3.734375q-2.34375 2.140625 -4.40625 3.03125q-2.046875 0.890625 -4.109375 0.890625q-4.234375 0 -7.046875 -3.40625q-2.796875 -3.421875 -2.796875 -8.21875q0 -3.421875 1.484375 -6.265625q1.5 -2.859375 3.9375 -4.359375q2.4375 -1.5 5.34375 -1.5q2.21875 0 4.109375 0.78125q1.90625 0.765625 3.484375 2.3125l0 -10.328125l-3.9375 0zm3.9375 24.75l0 -8.859375q0 -1.90625 -0.71875 -3.109375q-0.71875 -1.203125 -2.34375 -2.09375q-1.625 -0.890625 -3.34375 -0.890625q-2.03125 0 -3.765625 1.109375q-1.71875 1.109375 -2.6875 3.21875q-0.96875 2.09375 -0.96875 5.0625q0 2.8125 0.890625 4.875q0.90625 2.046875 2.421875 3.109375q1.53125 1.0625 3.125 1.0625q1.578125 0 3.5625 -0.890625q2.0 -0.90625 3.828125 -2.59375zm9.484375 -16.953125l10.734375 0l0 1.96875l-0.65625 0q-1.328125 0 -1.65625 0.09375q-0.46875 0.140625 -0.703125 0.453125q-0.234375 0.296875 -0.234375 0.71875q0 0.59375 0.515625 1.90625l5.34375 13.328125l5.171875 -13.328125q0.5 -1.296875 0.5 -1.875q0 -0.609375 -0.46875 -0.953125q-0.46875 -0.34375 -1.6875 -0.34375l-1.125 0l0 -1.96875l9.25 0l0 1.96875q-0.953125 0.03125 -1.609375 0.3125q-0.640625 0.28125 -1.0 0.734375q-0.359375 0.4375 -1.09375 2.125l-7.46875 17.484375l-2.8125 0l-7.53125 -17.890625q-0.46875 -1.09375 -1.03125 -1.796875q-0.375 -0.453125 -1.0 -0.703125q-0.609375 -0.265625 -1.4375 -0.265625l0 -1.96875zm32.492188 -11.125q1.125 0 1.921875 0.78125q0.796875 0.78125 0.796875 1.90625q0 1.125 -0.796875 1.921875q-0.796875 0.796875 -1.921875 0.796875q-1.125 0 -1.921875 -0.796875q-0.796875 -0.796875 -0.796875 -1.921875q0 -1.125 0.796875 -1.90625q0.796875 -0.78125 1.921875 -0.78125zm-5.984375 14.5l0 -1.9375q1.953125 -0.234375 3.265625 -0.65625q1.328125 -0.421875 3.015625 -1.34375l1.71875 0l0 18.796875q0 0.984375 0.28125 1.484375q0.28125 0.484375 0.78125 0.71875q0.5 0.21875 1.84375 0.21875l1.09375 0l0 1.96875l-12.0 0l0 -1.96875l0.96875 0q1.5625 0 2.09375 -0.28125q0.546875 -0.28125 0.765625 -0.796875q0.234375 -0.515625 0.234375 -2.421875l0 -13.78125l-4.0625 0zm30.453125 -3.375l1.640625 0l2.109375 7.171875l-2.109375 0.703125q-1.265625 -2.875 -3.5625 -4.53125q-2.28125 -1.65625 -4.625 -1.65625q-1.796875 0 -2.921875 0.890625q-1.125 0.875 -1.125 2.015625q0 1.078125 0.8125 1.859375q0.796875 0.796875 3.59375 1.796875l4.5625 1.625q3.875 1.375 5.28125 2.953125q1.375 1.59375 1.375 3.609375q0 1.703125 -1.03125 3.296875q-1.03125 1.578125 -2.984375 2.515625q-1.953125 0.9375 -4.484375 0.9375q-3.9375 0 -6.75 -2.25l-0.5 1.6875l-1.65625 0l-2.9375 -7.671875l2.140625 -0.84375q2.125 3.375 4.03125 4.78125q2.640625 2.0 5.71875 2.0q2.03125 0 3.34375 -1.09375q1.3125 -1.09375 1.3125 -2.421875q0 -1.109375 -0.8125 -2.015625q-0.84375 -0.890625 -3.234375 -1.734375l-5.421875 -1.96875q-3.484375 -1.265625 -4.84375 -2.765625q-1.359375 -1.5 -1.359375 -3.453125q0 -2.359375 2.203125 -4.171875q2.21875 -1.828125 5.640625 -1.828125q1.78125 0 3.1875 0.46875q1.40625 0.453125 2.765625 1.5l0.640625 -1.40625zm20.929688 -0.5625q3.4375 0 5.953125 1.4375q2.53125 1.421875 3.984375 4.171875q1.453125 2.734375 1.453125 6.25q0 3.515625 -1.5 6.265625q-1.484375 2.734375 -4.046875 4.1875q-2.5625 1.4375 -6.125 1.4375q-5.671875 0 -8.53125 -3.53125q-2.84375 -3.546875 -2.84375 -8.328125q0 -3.5 1.46875 -6.203125q1.484375 -2.703125 4.140625 -4.1875q2.671875 -1.5 6.046875 -1.5zm-0.1875 2.28125q-2.671875 0 -4.53125 2.109375q-2.34375 2.625 -2.34375 7.640625q0 4.828125 2.0 7.359375q1.796875 2.25 4.890625 2.25q2.0 0 3.546875 -1.046875q1.5625 -1.0625 2.515625 -3.375q0.96875 -2.3125 0.96875 -5.421875q0 -3.046875 -1.03125 -5.46875q-0.796875 -1.921875 -2.40625 -2.984375q-1.59375 -1.0625 -3.609375 -1.0625zm15.1796875 1.640625l0 -1.921875q1.71875 -0.140625 3.046875 -0.578125q1.34375 -0.4375 3.046875 -1.421875l1.765625 0l0 4.4375q1.65625 -2.046875 3.859375 -3.234375q2.203125 -1.203125 3.96875 -1.203125q1.734375 0 2.734375 0.828125q1.015625 0.8125 1.015625 1.984375q0 0.84375 -0.671875 1.5q-0.671875 0.640625 -1.609375 0.640625q-0.421875 0 -0.734375 -0.109375q-0.296875 -0.125 -0.875 -0.53125q-1.296875 -0.84375 -2.15625 -0.84375q-1.171875 0 -2.578125 0.984375q-1.78125 1.265625 -2.796875 2.484375l0 10.8125q0 1.40625 0.15625 1.90625q0.15625 0.5 0.5 0.875q0.359375 0.359375 0.875 0.53125q0.515625 0.15625 1.796875 0.15625l0.78125 0l0 1.96875l-12.125 0l0 -1.96875l1.015625 0q1.421875 0 1.875 -0.265625q0.609375 -0.34375 0.890625 -0.96875q0.296875 -0.625 0.296875 -2.234375l0 -13.828125l-4.078125 0zm19.164062 -3.359375l11.40625 0l0 1.96875l-0.9375 0q-1.34375 0 -1.59375 0.078125q-0.3125 0.09375 -0.53125 0.390625q-0.203125 0.28125 -0.203125 0.734375q0 0.625 0.640625 2.125l5.4375 12.78125l5.03125 -12.21875q0.890625 -2.15625 0.890625 -2.859375q0 -0.53125 -0.40625 -0.78125q-0.390625 -0.25 -1.796875 -0.25l-1.09375 0l0 -1.96875l9.578125 0l0 1.96875l-0.5625 0q-1.40625 0 -1.828125 0.1875q-0.421875 0.1875 -0.828125 0.765625q-0.390625 0.578125 -1.25 2.609375l-8.609375 20.046875q-0.9375 2.15625 -2.09375 4.0q-1.140625 1.84375 -2.875 2.84375q-1.734375 1.015625 -3.8125 1.015625q-2.421875 0 -3.875 -1.109375q-1.25 -0.9375 -1.25 -2.34375q0 -0.859375 0.546875 -1.4375q0.546875 -0.578125 1.265625 -0.578125q0.5625 0 1.0625 0.234375q0.296875 0.125 1.265625 0.984375q1.171875 1.03125 1.640625 1.265625q0.484375 0.234375 0.953125 0.234375q0.96875 0 1.90625 -0.65625q0.9375 -0.65625 1.59375 -1.84375q0.9375 -1.71875 1.546875 -3.21875l0.953125 -2.34375l-7.734375 -17.328125q-0.8125 -1.828125 -1.375 -2.453125q-0.5625 -0.640625 -1.125 -0.78125q-0.3125 -0.09375 -1.9375 -0.09375l0 -1.96875z" fill-rule="nonzero"/><path xmlns="http://www.w3.org/2000/svg" fill="#000000" d="m30.89239 389.92126l25.007872 0l0 150.07874l-25.007872 0z" fill-rule="evenodd" style="animation-name:alternateUp;animation-duration:1s;animation-iteration-count:infinite;animation-timing-function:ease-in-out;"/><path xmlns="http://www.w3.org/2000/svg" stroke="#000000" stroke-width="1.0" stroke-linejoin="round" stroke-linecap="butt" d="m30.89239 389.92126l25.007872 0l0 150.07874l-25.007872 0z" fill-rule="evenodd" style="animation-name:alternateUp;animation-duration:1s;animation-iteration-count:infinite;animation-timing-function:ease-in-out;"/><path xmlns="http://www.w3.org/2000/svg" fill="#000000" d="m83.67716 348.0l25.007874 0l0 192.0l-25.007874 0z" fill-rule="evenodd" style="animation-name:alternateUp;animation-duration:1s;animation-iteration-count:infinite;animation-timing-function:ease-in-out;animation-delay:0.5s;"/><path xmlns="http://www.w3.org/2000/svg" stroke="#000000" stroke-width="1.0" stroke-linejoin="round" stroke-linecap="butt" d="m83.67716 348.0l25.007874 0l0 192.0l-25.007874 0z" fill-rule="evenodd" style="animation-name:alternateUp;animation-duration:1s;animation-iteration-count:infinite;animation-timing-function:ease-in-out;animation-delay:0.5s;"/><path xmlns="http://www.w3.org/2000/svg" fill="#000000" d="m136.46194 439.32547l25.007874 0l0 100.66141l-25.007874 0z" fill-rule="evenodd" style="animation-name:alternateUp;animation-duration:1s;animation-iteration-count:infinite;animation-timing-function:ease-in-out;"/><path xmlns="http://www.w3.org/2000/svg" stroke="#000000" stroke-width="1.0" stroke-linejoin="round" stroke-linecap="butt" d="m136.46194 439.32547l25.007874 0l0 100.66141l-25.007874 0z" fill-rule="evenodd" style="animation-name:alternateUp;animation-duration:1s;animation-iteration-count:infinite;animation-timing-function:ease-in-out;"/><path xmlns="http://www.w3.org/2000/svg" fill="#000000" d="m929.2887 150.07874l-25.007874 0l0 -150.07874l25.007874 0z" fill-rule="evenodd" style="animation-name:alternateDown;animation-duration:1s;animation-iteration-count:infinite;animation-timing-function:ease-in-out;"/><path xmlns="http://www.w3.org/2000/svg" stroke="#000000" stroke-width="1.0" stroke-linejoin="round" stroke-linecap="butt" d="m929.2887 150.07874l-25.007874 0l0 -150.07874l25.007874 0z" fill-rule="evenodd" style="animation-name:alternateDown;animation-duration:1s;animation-iteration-count:infinite;animation-timing-function:ease-in-out;"/><path xmlns="http://www.w3.org/2000/svg" fill="#000000" d="m876.50397 192.0l-25.007935 0l0 -192.0l25.007935 0z" fill-rule="evenodd" style="animation-name:alternateDown;animation-duration:1s;animation-iteration-count:infinite;animation-timing-function:ease-in-out;animation-delay:0.5s;"/><path xmlns="http://www.w3.org/2000/svg" stroke="#000000" stroke-width="1.0" stroke-linejoin="round" stroke-linecap="butt" d="m876.50397 192.0l-25.007935 0l0 -192.0l25.007935 0z" fill-rule="evenodd" style="animation-name:alternateDown;animation-duration:1s;animation-iteration-count:infinite;animation-timing-function:ease-in-out;animation-delay:0.5s;"/><path xmlns="http://www.w3.org/2000/svg" fill="#000000" d="m823.7192 100.67454l-25.007874 0l0 -100.661415l25.007874 0z" fill-rule="evenodd" style="animation-name:alternateDown;animation-duration:1s;animation-iteration-count:infinite;animation-timing-function:ease-in-out;"/><path xmlns="http://www.w3.org/2000/svg" stroke="#000000" stroke-width="1.0" stroke-linejoin="round" stroke-linecap="butt" d="m823.7192 100.67454l-25.007874 0l0 -100.661415l25.007874 0z" fill-rule="evenodd" style="animation-name:alternateDown;animation-duration:1s;animation-iteration-count:infinite;animation-timing-function:ease-in-out;"/></g>
<style xmlns="http://www.w3.org/2000/svg">
    @keyframes alternateUp {
        50% {transform:translateY(20px);}
    }
    @keyframes alternateDown {
        50% {transform:translateY(-20px);}
    }
    @keyframes alternateLeft {
        50% {transform:translateX(20px);}
    }
    @keyframes alternateRight {
        50% {transform:translateX(-20px);}
    }
</style>
</svg>