<svg version="1.1" viewBox="0.0 0.0 960.0 540.0" fill="none" stroke="none" stroke-linecap="square" stroke-miterlimit="10" xmlns:xlink="http://www.w3.org/1999/xlink" xmlns="http://www.w3.org/2000/svg"><clipPath id="g6f5a830e83_0_4.0"><path d="m0 0l960.0 0l0 540.0l-960.0 0l0 -540.0z" clip-rule="nonzero"/></clipPath><g clip-path="url(#g6f5a830e83_0_4.0)"><path fill="#ffffff" d="m0 0l960.0 0l0 540.0l-960.0 0z" fill-rule="evenodd"/><path fill="#000000" d="m-55.12598 -10.779162l1002.1102 -176.56693l49.385803 280.78738l-1002.1102 176.56693z" fill-rule="evenodd"/><path stroke="#000000" stroke-width="1.0" stroke-linejoin="round" stroke-linecap="butt" d="m-55.12598 -10.779162l1002.1102 -176.56693l49.385803 280.78738l-1002.1102 176.56693z" fill-rule="evenodd"/><path fill="#000000" d="m-38.900253 447.01843l1004.66144 -177.00787l52.503906 298.5512l-1004.6614 177.00787z" fill-rule="evenodd"/><path stroke="#000000" stroke-width="1.0" stroke-linejoin="round" stroke-linecap="butt" d="m-38.900253 447.01843l1004.66144 -177.00787l52.503906 298.5512l-1004.6614 177.00787z" fill-rule="evenodd"/><path fill="#000000" fill-opacity="0.0" d="m178.84251 239.09218l608.5669 -107.3071l29.291382 166.20473l-608.56696 107.3071z" fill-rule="evenodd"/><path fill="#000000" d="m308.05188 275.89734l27.697723 -4.8838806q7.8784485 -1.3891907 12.200195 -0.45355225q4.334381 0.917511 7.0491333 3.6279297q2.730133 2.707672 3.4487915 6.785431q0.74035645 4.200897 -0.8109131 7.822174q-1.5359192 3.6185608 -5.19046 6.1986084q-3.6572266 2.5646667 -10.214203 3.800171l17.20752 14.8151245q2.1030579 1.8504333 2.728424 2.2478638q1.5656433 0.9614868 3.1513062 1.3165283q1.5856934 0.3550415 3.4322205 0.029449463l0.9694214 -0.17092896l0.5694885 3.2314453l-12.233154 2.1570435l-24.211456 -22.147797l-6.8936768 1.2155151l2.9153137 16.541962q0.48812866 2.769806 0.8102112 3.427002q0.6459656 1.2347107 1.6795349 1.6077576q1.0489502 0.37036133 3.7725525 -0.1098938l1.3848877 -0.24417114l0.56951904 3.2314453l-20.573273 3.6276245l-0.5694885 -3.2314453l1.8465271 -0.32559204q2.077301 -0.3663025 2.7390442 -0.75268555q0.6590271 -0.40179443 1.0936584 -1.1765442q0.4500122 -0.7774658 0.499115 -1.8491516q0.0010070801 -0.4444275 -0.57839966 -3.9121094l-6.196686 -35.161255q-0.40679932 -2.308197 -1.0446777 -3.2269897q-0.63790894 -0.91882324 -1.5447693 -1.2031555q-0.89419556 -0.30245972 -2.9407654 0.058410645l-2.185028 0.38528442l-0.5776367 -3.2776184zm14.69693 1.7399597l3.558014 20.188873l11.048309 -1.9481201q5.6164856 -0.99035645 7.7564087 -2.0816345q3.068695 -1.4930725 4.496704 -4.2834473q1.4433899 -2.7930603 0.77352905 -6.593872q-0.5694885 -3.2314453 -2.3141174 -5.2085266q-1.729248 -1.9797974 -4.2607117 -2.659912q-2.5160522 -0.6828308 -7.1323547 0.13113403l-13.925781 2.4555054zm81.714935 26.367126l2.8145752 1.5663147q-2.2120667 3.8329773 -4.5115967 6.269287q-2.2868958 2.4182434 -4.502899 3.6181335q-2.197876 1.2125854 -5.352356 1.7688293q-5.6472473 0.99575806 -10.024048 -0.61239624q-5.008484 -1.8616943 -8.1909485 -5.6954346q-3.1697693 -3.8518372 -4.1921387 -9.653076q-1.0711975 -6.078186 0.50839233 -10.799225q1.5949707 -4.7237244 5.374542 -7.9446106q3.776886 -3.236267 9.316437 -4.213043q4.10849 -0.72442627 7.3676453 0.03363037q3.2745667 0.7553711 5.840973 2.984192q2.5791016 2.2107239 4.1397095 5.394348q0.8829651 1.859314 1.510437 4.9694824l-27.205322 4.7970276q0.22314453 1.8963013 0.38586426 2.81958q0.85424805 4.847168 3.2167053 8.349518q2.3597717 3.486969 5.459503 4.7808533q3.099762 1.2938843 6.638916 0.6698303q3.0005798 -0.52908325 5.554352 -2.4231873q2.5691528 -1.8968201 5.8512573 -6.6800537zm-7.6630554 -14.673492q-1.1930847 -3.4388123 -2.553131 -4.944275q-1.3600464 -1.5054321 -3.4751587 -2.1637878q-2.1151123 -0.6583252 -4.546356 -0.22964478q-2.415863 0.42599487 -4.363098 1.8006287q-1.9318237 1.3719177 -3.035614 3.3911438q-1.0884094 2.01651 -1.5227661 5.5836487l19.496124 -3.4377136zm10.677643 -13.90921l6.585907 -1.1612854l-1.0169678 -5.770447q-1.0494995 -5.9551086 2.2225952 -10.43512q3.2693787 -4.4953766 9.624481 -5.615967q4.231598 -0.7461395 6.897766 0.6083374q2.681549 1.3517609 3.0476685 3.4291077q0.24407959 1.3849182 -0.5264282 2.504486q-0.7732239 1.1041565 -2.2042847 1.3565063q-1.2617798 0.22247314 -2.266388 -0.07635498q-1.0046082 -0.29885864 -3.2535095 -1.8062439q-2.3855286 -1.5626221 -4.2320557 -1.23703q-1.2617798 0.22250366 -2.1544495 1.1890564q-0.8772583 0.9638672 -1.1627502 2.5849304q-0.28546143 1.6210938 0.2704773 4.7756042l1.2935791 7.3399963l7.2321777 -1.275238l0.6915283 3.9239197l-7.2321777 1.275238l4.401428 24.974487q0.45288086 2.5697632 0.992157 3.3790588q0.53656006 0.7938843 1.3683167 1.012146q0.8290405 0.20285034 3.6295776 -0.2909546l1.5849304 -0.27947998l0.5694885 3.2314758l-19.819244 3.4946594l-0.56951904 -3.2314453l1.2002563 -0.2116394q3.0313416 -0.5345154 3.7944946 -1.0657043q0.76312256 -0.5312195 0.96517944 -1.4553528q0.21472168 -0.9422302 -0.35842896 -4.014374l-4.2983704 -24.38974l-6.585907 1.1612549l-0.6915283 -3.9238892zm22.734558 -17.336212l-0.5559387 -3.1545105q5.1640015 -1.3072052 9.617126 -5.0276337l2.8467102 -0.5019531l8.347229 47.363846q0.5288086 3.0006104 1.0491028 3.702179q0.69763184 0.98760986 1.7411499 1.327179q1.0562134 0.3215027 3.7798157 -0.15875244l1.2310181 -0.21707153l0.5694885 3.2314453l-19.803864 3.4919739l-0.56951904 -3.2314453l2.0003967 -0.35272217q1.8772888 -0.33102417 2.7156067 -1.0658875q0.85098267 -0.7529602 1.0747681 -1.8237q0.22381592 -1.0707703 -0.30499268 -4.071411l-7.167572 -40.670105l-6.570526 1.1585693zm64.03763 30.087036l2.8145752 1.5663147q-2.2120667 3.8329773 -4.511627 6.269287q-2.2868652 2.4182434 -4.5028687 3.6181335q-2.1979065 1.2125854 -5.352356 1.7688293q-5.6472473 0.99575806 -10.024048 -0.61239624q-5.0085144 -1.8616943 -8.1909485 -5.6954346q-3.1697693 -3.8518372 -4.192169 -9.653076q-1.0711975 -6.078186 0.50839233 -10.799225q1.5949707 -4.7237244 5.3745728 -7.94458q3.776886 -3.236267 9.316406 -4.213043q4.1085205 -0.7244568 7.367676 0.033599854q3.2745361 0.7553711 5.840973 2.984192q2.579071 2.2107544 4.139679 5.394348q0.8829956 1.859314 1.510437 4.9694824l-27.205292 4.7970276q0.22311401 1.8963318 0.38583374 2.81958q0.85424805 4.8471985 3.2167358 8.349518q2.3597717 3.486969 5.459503 4.7808533q3.0997314 1.2938843 6.6388855 0.6698303q3.0005798 -0.52908325 5.554352 -2.4231873q2.5691528 -1.8968201 5.851288 -6.6800537zm-7.6630554 -14.673492q-1.1930847 -3.4388123 -2.553131 -4.9442444q-1.3600769 -1.5054626 -3.4751892 -2.1638184q-2.1151123 -0.6583252 -4.546356 -0.22964478q-2.415863 0.42599487 -4.3630676 1.8006287q-1.9318237 1.3719482 -3.035614 3.3911743q-1.0884094 2.01651 -1.5227661 5.583618l19.496124 -3.4377136zm49.56598 6.4439697l2.8145752 1.5662842q-5.529114 10.938812 -15.638794 12.721436q-7.893799 1.3919067 -14.315491 -3.2669067q-6.4062805 -4.661499 -7.878845 -13.01709q-0.98172 -5.570404 0.7581177 -10.462463q1.7398071 -4.89209 5.783722 -8.143707q4.0438843 -3.2516174 9.860382 -4.2772217q6.616699 -1.1667023 11.607849 1.3168335q5.003845 2.4654236 5.586914 5.7738037q0.31188965 1.7695923 -0.56359863 2.923523q-0.862854 1.1358337 -2.1708374 1.3664856q-0.69244385 0.12210083 -1.4137573 -0.09976196q-0.70861816 -0.23999023 -1.5366821 -0.88726807q-0.3701172 -0.2996521 -1.5029297 -1.9562378q-1.4242554 -2.0494385 -2.1445312 -2.7157288q-1.4560547 -1.3298645 -3.3648071 -1.8976746q-1.911499 -0.5831909 -4.065735 -0.20333862q-3.262207 0.57522583 -5.742737 2.8847961q-2.467865 2.2914734 -3.4779358 6.1029053q-1.0127869 3.796051 -0.15039062 8.689392q1.334259 7.5708313 6.152252 11.322418q4.1863403 3.2283325 9.033447 2.3736572q2.2312012 -0.3934021 4.378418 -1.5335999q2.159851 -1.1582642 3.9487915 -2.9809875q1.3081665 -1.3095398 4.0426025 -5.5995483zm10.131958 -42.48294l2.7235718 -0.48025513l2.3051147 13.079681l11.433044 -2.0159454l0.6779785 3.8469543l-11.433044 2.0159607l4.0895386 23.20488q0.5206909 2.9544678 1.2689819 4.139435q0.74554443 1.1695251 2.1356812 1.7653198q1.3873901 0.5803833 2.9261475 0.30908203q3.6622925 -0.64575195 7.503601 -4.6867065l0.65631104 3.723877q-4.427002 4.3187256 -9.581848 5.227661q-2.923706 0.51553345 -5.5238647 -0.37460327q-2.6002197 -0.8901367 -3.7738037 -2.507782q-1.173584 -1.6176758 -1.9464722 -6.0032043l-4.1708984 -23.666534l-6.739746 1.1884155l-0.56951904 -3.2314606q3.1039429 -1.2929993 4.817749 -3.1818085q1.7138062 -1.888794 2.5109253 -4.567917q0.79711914 -2.6791077 0.69055176 -7.7850494zm28.399475 -10.354477q1.8464966 -0.32559204 3.3822632 0.73635864q1.53302 1.0465698 1.8584595 2.8931122q0.32543945 1.8465424 -0.75201416 3.385147q-1.0773926 1.5385895 -2.9239502 1.8641815q-1.8464966 0.32559204 -3.3849487 -0.75175476q-1.5384521 -1.0773315 -1.8638916 -2.923874q-0.32543945 -1.8465424 0.7574463 -3.35437q1.0801392 -1.5232086 2.9266357 -1.8488007zm-5.6220093 25.536087l-0.56134033 -3.1852875q3.1328125 -0.94906616 5.18042 -2.0240784q2.0476685 -1.0750275 4.5516357 -3.0714264l2.815979 -0.496521l5.437317 30.852661q0.28479004 1.6157227 0.8901367 2.349884q0.60266113 0.71875 1.4832764 0.9442749q0.8959961 0.22277832 3.0964355 -0.16522217l1.800354 -0.31744385l0.56951904 3.2314453l-19.696167 3.472992l-0.56951904 -3.2314453l1.5849609 -0.27947998q2.5697021 -0.453125 3.3654785 -1.069397q0.8110962 -0.61901855 1.03125 -1.5304565q0.22015381 -0.9114685 -0.3303833 -4.035187l-3.9865112 -22.620163l-6.662842 1.1748505zm42.223328 -14.108871q5.647278 -0.9957733 10.201477 0.6287079q4.5514526 1.6090851 7.73114 5.697174q3.176941 4.072693 4.1939087 9.84314q1.0169678 5.770447 -0.6350708 10.71051q-1.6547852 4.924652 -5.453369 8.037811q-3.783142 3.1104736 -9.630432 4.14151q-9.309509 1.64151 -15.009766 -3.3348694q-5.702942 -4.991791 -7.0859985 -12.8396q-1.0115356 -5.73967 0.623291 -10.597351q1.647522 -4.8757935 5.586426 -8.093033q3.9388428 -3.2172241 9.478394 -4.1940002zm0.35125732 3.793518q-4.385498 0.77326965 -6.8220215 4.772766q-3.0875854 4.986923 -1.6367188 13.219437q1.3966064 7.9247437 5.406372 11.501526q3.6052856 3.1721497 8.683228 2.276764q3.2775269 -0.5779114 5.528137 -2.75177q2.2479248 -2.189209 3.1503296 -6.2513733q0.9151001 -4.0802917 0.014770508 -9.189056q-0.8814087 -5.001053 -3.2736816 -8.672653q-1.8638916 -2.9238892 -4.8016357 -4.1987457q-2.9404297 -1.2902527 -6.2487793 -0.7068939zm25.523376 -1.6921844l-0.56951904 -3.2314453q3.3482666 -0.9870453 4.945984 -1.8240814q1.5977173 -0.83703613 4.48645 -3.17099l2.7697754 -0.48838806l1.288147 7.3092346q4.326721 -5.1578217 7.6435547 -7.3134003q3.3322144 -2.15831 7.0252686 -2.809494q3.15448 -0.5562134 5.7574463 0.079559326q2.6183472 0.6330719 4.461731 2.1802216q1.8406982 1.5317688 2.7398682 3.753128q0.557251 1.3614197 1.0670776 4.2543335l2.9830933 16.926636q0.5342407 3.031433 1.1350708 3.829834q0.5980835 0.78305054 1.6199341 0.9995117q1.0372314 0.21377563 4.80719 -0.45098877l0.56951904 3.2314453l-19.819275 3.49469l-0.56951904 -3.2314453l1.0771484 -0.1899414q2.7697754 -0.4883728 3.6831665 -1.157135q0.91070557 -0.6841736 1.1888428 -1.716919q0.27539062 -1.0480957 -0.24804688 -4.017975l-2.494934 -14.156815q-0.7728882 -4.385544 -1.7944336 -5.9506836q-1.0061035 -1.5678558 -2.8985596 -2.3130646q-1.8951416 -0.7605896 -4.5110474 -0.29933167q-3.1236572 0.5507965 -6.3807983 2.775177q-3.2598267 2.2089996 -6.017639 5.916092l3.1240845 17.726807q0.5288696 3.0006409 1.1513672 3.9221497q0.62249756 0.9215393 1.7122192 1.2529907q0.7601929 0.26257324 3.7608032 -0.26651l1.1079102 -0.19534302l0.56951904 3.2314453l-19.803894 3.4919739l-0.56951904 -3.2314453l0.9540405 -0.16824341q2.8467407 -0.5019531 3.7936401 -1.1607666q0.9595947 -0.6769104 1.1734619 -1.9838867q0.12237549 -0.6562195 -0.5149536 -4.2723694l-3.864441 -21.927704l-6.539734 1.1531372z" fill-rule="nonzero"/></g></svg>