<svg xmlns:xlink="http://www.w3.org/1999/xlink" xmlns="http://www.w3.org/2000/svg" version="1.1" viewBox="0.0 0.0 960.0 540.0" fill="none" stroke="none" stroke-linecap="square" stroke-miterlimit="10"><clipPath id="g64dfe0b81a_0_0.0"><path d="m0 0l960.0 0l0 540.0l-960.0 0l0 -540.0z" clip-rule="nonzero"/></clipPath><g clip-path="url(#g64dfe0b81a_0_0.0)"><path fill="#ffffff" d="m0 0l960.0 0l0 540.0l-960.0 0z" fill-rule="evenodd"/><path fill="#000000" fill-opacity="0.0" d="m300.1286 357.25986l425.22833 0l0 35.18109l-425.22833 0z" fill-rule="evenodd"/><path fill="#000000" d="m452.7662 364.77353l1.125 0l1.671875 6.71875l-1.4375 0.4375q-1.375 -2.828125 -3.65625 -4.453125q-1.875 -1.359375 -4.15625 -1.359375q-1.375 0 -2.46875 0.5q-1.09375 0.484375 -1.640625 1.265625q-0.546875 0.78125 -0.546875 1.59375q0 0.734375 0.421875 1.421875q0.421875 0.6875 1.28125 1.21875q0.859375 0.515625 2.8125 1.09375l4.078125 1.203125q0.75 0.21875 2.171875 0.84375q1.4375 0.625 2.234375 1.328125q0.796875 0.6875 1.25 1.703125q0.453125 1.0 0.453125 2.171875q0 2.59375 -2.28125 4.546875q-2.265625 1.9375 -5.875 1.9375q-1.859375 0 -3.328125 -0.53125q-1.46875 -0.546875 -3.171875 -1.921875l-0.71875 2.078125l-1.09375 0l-1.453125 -7.828125l1.453125 -0.296875q0.796875 2.171875 2.109375 3.6875q1.328125 1.515625 2.921875 2.296875q1.609375 0.765625 3.265625 0.765625q2.25 0 3.9375 -1.359375q1.40625 -1.140625 1.40625 -2.6875q0 -1.421875 -1.015625 -2.328125q-1.03125 -0.90625 -3.6875 -1.6875l-3.90625 -1.125q-3.28125 -0.953125 -4.625 -2.4375q-1.34375 -1.484375 -1.34375 -3.40625q0 -1.5 0.875 -2.765625q0.875 -1.28125 2.6875 -2.140625q1.8125 -0.859375 3.96875 -0.859375q1.8125 0 3.46875 0.625q1.171875 0.4375 2.15625 1.25l0.65625 -1.5zm10.203125 1.40625l1.109375 0l0 5.3125l4.640625 0l0 1.5625l-4.640625 0l0 9.421875q0 1.203125 0.203125 1.71875q0.21875 0.515625 0.71875 0.84375q0.515625 0.328125 1.140625 0.328125q1.484375 0 3.28125 -1.328125l0 1.515625q-2.046875 1.390625 -4.140625 1.390625q-1.1875 0 -2.15625 -0.53125q-0.953125 -0.53125 -1.3125 -1.25q-0.34375 -0.71875 -0.34375 -2.5l0 -9.609375l-2.734375 0l0 -1.3125q1.3125 -0.296875 2.109375 -0.921875q0.8125 -0.625 1.3125 -1.625q0.5 -1.0 0.8125 -3.015625zm8.015625 7.546875l0 -1.28125q1.140625 -0.09375 2.03125 -0.375q0.890625 -0.296875 2.03125 -0.953125l1.171875 0l0 2.953125q1.109375 -1.359375 2.578125 -2.15625q1.46875 -0.796875 2.640625 -0.796875q1.15625 0 1.828125 0.546875q0.671875 0.546875 0.671875 1.328125q0 0.5625 -0.453125 1.0q-0.4375 0.421875 -1.0625 0.421875q-0.28125 0 -0.484375 -0.078125q-0.203125 -0.078125 -0.59375 -0.34375q-0.859375 -0.5625 -1.4375 -0.5625q-0.78125 0 -1.71875 0.65625q-1.1875 0.84375 -1.859375 1.65625l0 7.203125q0 0.9375 0.09375 1.28125q0.109375 0.328125 0.34375 0.578125q0.234375 0.234375 0.578125 0.34375q0.34375 0.109375 1.203125 0.109375l0.515625 0l0 1.3125l-8.078125 0l0 -1.3125l0.671875 0q0.953125 0 1.25 -0.171875q0.40625 -0.234375 0.59375 -0.640625q0.203125 -0.421875 0.203125 -1.5l0 -9.21875l-2.71875 0zm27.484375 8.8125l1.0 0.8125q-1.140625 1.359375 -2.21875 2.15625q-1.0625 0.796875 -2.015625 1.109375q-0.953125 0.328125 -2.234375 0.328125q-2.296875 0 -3.90625 -0.9375q-1.84375 -1.078125 -2.828125 -2.8125q-0.984375 -1.734375 -0.984375 -4.09375q0 -2.46875 0.953125 -4.21875q0.953125 -1.75 2.65625 -2.75q1.71875 -1.015625 3.96875 -1.015625q1.671875 0 2.90625 0.53125q1.234375 0.515625 2.09375 1.578125q0.859375 1.046875 1.25 2.40625q0.21875 0.796875 0.25 2.0625l-11.046875 0q-0.046875 0.765625 -0.046875 1.140625q0 1.96875 0.6875 3.515625q0.6875 1.53125 1.8125 2.265625q1.140625 0.71875 2.578125 0.71875q1.21875 0 2.359375 -0.5625q1.140625 -0.578125 2.765625 -2.234375zm-2.0 -6.3125q-0.234375 -1.4375 -0.671875 -2.125q-0.421875 -0.6875 -1.21875 -1.09375q-0.78125 -0.40625 -1.765625 -0.40625q-0.984375 0 -1.84375 0.40625q-0.859375 0.40625 -1.4375 1.125q-0.5625 0.71875 -0.984375 2.09375l7.921875 0zm5.28125 -2.484375l0 -1.3125q1.390625 -0.15625 2.078125 -0.375q0.6875 -0.21875 1.984375 -0.9375l1.125 0l0 2.96875q2.0625 -1.734375 3.515625 -2.34375q1.46875 -0.625 2.9687805 -0.625q1.28125 0 2.265625 0.4375q0.984375 0.421875 1.59375 1.15625q0.625 0.734375 0.828125 1.671875q0.125 0.578125 0.125 1.75l0 6.875q0 1.234375 0.171875 1.59375q0.1875 0.34375 0.578125 0.5q0.390625 0.15625 1.921875 0.15625l0 1.3125l-8.046875 0l0 -1.3125l0.4375 0q1.125 0 1.53125 -0.203125q0.40625 -0.203125 0.578125 -0.59375q0.1875 -0.390625 0.1875 -1.59375l0 -5.75q0 -1.78125 -0.296875 -2.46875q-0.28125 -0.6875 -0.984375 -1.109375q-0.6875 -0.4375 -1.75 -0.4375q-1.2656555 0 -2.7031555 0.65625q-1.4375 0.640625 -2.78125 1.90625l0 7.203125q0 1.21875 0.171875 1.625q0.1875 0.40625 0.59375 0.609375q0.28125 0.15625 1.5 0.15625l0.453125 0l0 1.3125l-8.046875 0l0 -1.3125l0.390625 0q1.15625 0 1.578125 -0.1875q0.421875 -0.203125 0.59375 -0.703125q0.09375 -0.25 0.09375 -1.71875l0 -8.90625l-2.65625 0zm33.18753 -1.015625q0.703125 -0.828125 1.421875 -1.21875q0.734375 -0.390625 1.34375 -0.390625q0.5625 0 0.9375 0.34375q0.390625 0.328125 0.390625 0.8125q0 0.5 -0.34375 0.84375q-0.34375 0.34375 -0.875 0.34375q-0.21875 0 -0.59375 -0.078125q-0.4375 -0.109375 -0.734375 -0.109375q-0.390625 0 -0.8125 0.359375q0.96875 1.171875 0.96875 2.75q0 2.15625 -1.8125 3.734375q-1.8125 1.578125 -4.578125 1.578125q-1.53125 0 -3.078125 -0.640625q-1.03125 0.734375 -1.171875 0.90625q-0.21875 0.265625 -0.21875 0.5625q0 0.453125 0.46875 0.75q0.59375 0.390625 2.34375 0.65625l4.515625 0.671875q1.5 0.234375 3.015625 0.78125q1.515625 0.546875 2.1875 1.421875q0.6875 0.875 0.6875 2.09375q0 2.0625 -1.90625 3.296875q-2.421875 1.578125 -7.1875 1.578125q-2.5 0 -4.0625 -0.53125q-1.5625 -0.53125 -2.421875 -1.5q-0.625 -0.703125 -0.625 -1.453125q0 -0.96875 0.625 -1.890625q0.640625 -0.921875 2.9375 -2.625q-1.484375 -0.375 -2.125 -0.875q-0.8125 -0.640625 -0.8125 -1.453125q0 -0.40625 0.140625 -0.75q0.15625 -0.359375 0.484375 -0.703125q0.34375 -0.359375 1.234375 -0.984375q0.5625 -0.390625 0.796875 -0.578125q-1.140625 -0.8125 -1.71875 -1.8125q-0.578125 -1.015625 -0.578125 -2.21875q0 -1.984375 1.53125 -3.46875q1.859375 -1.8125 5.015625 -1.8125q1.40625 0 2.453125 0.359375q1.046875 0.34375 2.15625 1.25zm-4.75 -0.15625q-1.53125 0 -2.59375 1.109375q-1.0625 1.109375 -1.0625 2.75q0 1.09375 0.484375 1.984375q0.484375 0.875 1.359375 1.390625q0.875 0.5 1.84375 0.5q0.96875 0 1.84375 -0.515625q0.890625 -0.515625 1.359375 -1.390625q0.484375 -0.875 0.484375 -1.96875q0 -1.71875 -1.046875 -2.78125q-1.03125 -1.078125 -2.671875 -1.078125zm-2.484375 13.5625q-1.5 1.28125 -2.0 2.078125q-0.484375 0.796875 -0.484375 1.53125q0 0.625 0.484375 1.203125q0.5 0.59375 1.6875 0.96875q1.1875 0.375 2.984375 0.375q2.125 0 3.640625 -0.46875q1.53125 -0.453125 2.1875 -1.171875q0.484375 -0.5625 0.484375 -1.328125q0 -0.65625 -0.40625 -1.109375q-0.390625 -0.453125 -1.5 -0.796875q-1.09375 -0.328125 -2.046875 -0.484375l-5.03125 -0.796875zm16.546875 -19.953125l1.109375 0l0 5.3125l4.640625 0l0 1.5625l-4.640625 0l0 9.421875q0 1.203125 0.203125 1.71875q0.21875 0.515625 0.71875 0.84375q0.515625 0.328125 1.140625 0.328125q1.484375 0 3.28125 -1.328125l0 1.515625q-2.046875 1.390625 -4.140625 1.390625q-1.1875 0 -2.15625 -0.53125q-0.953125 -0.53125 -1.3125 -1.25q-0.34375 -0.71875 -0.34375 -2.5l0 -9.609375l-2.734375 0l0 -1.3125q1.3125 -0.296875 2.109375 -0.921875q0.8125 -0.625 1.3125 -1.625q0.5 -1.0 0.8125 -3.015625zm8.046875 0.125l0 -1.34375q1.515625 -0.203125 2.359375 -0.46875q0.84375 -0.28125 1.765625 -0.84375l1.21875 0l0 10.328125q1.765625 -1.484375 3.34375 -2.171875q1.578125 -0.6875 3.015625 -0.6875q2.09375 0 3.453125 1.25q1.34375 1.25 1.34375 3.046875l0 7.671875q0 1.140625 0.171875 1.5q0.1875 0.34375 0.609375 0.515625q0.421875 0.15625 1.890625 0.15625l0 1.3125l-8.0625 0l0 -1.3125l0.59375 0q1.140625 0 1.5 -0.171875q0.359375 -0.1875 0.515625 -0.59375q0.171875 -0.421875 0.171875 -1.71875l0 -5.328125q0 -1.765625 -0.125 -2.296875q-0.234375 -0.90625 -0.96875 -1.453125q-0.734375 -0.546875 -1.875 -0.546875q-1.28125 0 -2.6875 0.640625q-1.390625 0.625 -2.890625 1.890625l0 7.828125q0 0.875 0.15625 1.171875q0.15625 0.296875 0.515625 0.4375q0.359375 0.140625 1.4375 0.140625l0.640625 0l0 1.3125l-8.09375 0l0 -1.3125l0.484375 0q1.140625 0 1.65625 -0.28125q0.28125 -0.140625 0.40625 -0.546875q0.125 -0.40625 0.125 -2.25l0 -15.875l-2.671875 0zm31.703125 5.1875l1.09375 0l1.40625 4.78125l-1.40625 0.46875q-0.84375 -1.921875 -2.375 -3.015625q-1.515625 -1.109375 -3.078125 -1.109375q-1.203125 0 -1.953125 0.59375q-0.75 0.578125 -0.75 1.34375q0 0.71875 0.546875 1.234375q0.53125 0.53125 2.390625 1.203125l3.046875 1.078125q2.578125 0.921875 3.515625 1.96875q0.921875 1.0625 0.921875 2.40625q0 1.140625 -0.6875 2.203125q-0.6875 1.046875 -2.0 1.671875q-1.296875 0.625 -2.984375 0.625q-2.625 0 -4.5 -1.5l-0.328125 1.125l-1.109375 0l-1.953125 -5.109375l1.421875 -0.5625q1.421875 2.25 2.6875 3.1875q1.765625 1.328125 3.8125 1.328125q1.359375 0 2.234375 -0.71875q0.875 -0.734375 0.875 -1.625q0 -0.734375 -0.546875 -1.34375q-0.5625 -0.59375 -2.15625 -1.15625l-3.609375 -1.3125q-2.328125 -0.84375 -3.234375 -1.84375q-0.90625 -1.0 -0.90625 -2.296875q0 -1.578125 1.46875 -2.78125q1.484375 -1.21875 3.765625 -1.21875q1.1875 0 2.125 0.3125q0.9375 0.296875 1.84375 1.0l0.421875 -0.9375z" fill-rule="nonzero"/><path fill="#cccccc" d="m1513.5709 614.0036l-971.685 -363.0551l-11.338623 30.330688l971.6851 363.0551z" fill-rule="evenodd"/><path stroke="#cccccc" stroke-width="1.0" stroke-linejoin="round" stroke-linecap="butt" d="m1513.5709 614.0036l-971.685 -363.0551l-11.338623 30.330688l971.6851 363.0551z" fill-rule="evenodd"/><path fill="#cccccc" d="m764.8203 568.5758l-971.68506 -363.05515l-11.338577 30.330704l971.685 363.0551z" fill-rule="evenodd"/><path stroke="#cccccc" stroke-width="1.0" stroke-linejoin="round" stroke-linecap="butt" d="m764.8203 568.5758l-971.68506 -363.05515l-11.338577 30.330704l971.685 363.0551z" fill-rule="evenodd"/><path fill="#000000" d="m618.6667 322.07874l0 -96.0l341.3228 0l0 96.0z" fill-rule="evenodd"/><path stroke="#000000" stroke-width="1.0" stroke-linejoin="round" stroke-linecap="butt" d="m618.6667 322.07874l0 -96.0l341.3228 0l0 96.0z" fill-rule="evenodd"/><path fill="#000000" d="m0 274.07874l0 -96.0l341.32285 0l0 96.0z" fill-rule="evenodd"/><path stroke="#000000" stroke-width="1.0" stroke-linejoin="round" stroke-linecap="butt" d="m0 274.07874l0 -96.0l341.32285 0l0 96.0z" fill-rule="evenodd"/><path fill="#000000" d="m618.6562 322.07874l-277.32285 -47.671204l0 -96.3288l277.32285 47.671204z" fill-rule="evenodd"/><path stroke="#000000" stroke-width="1.0" stroke-linejoin="round" stroke-linecap="butt" d="m618.6562 322.07874l-277.32285 -47.671204l0 -96.3288l277.32285 47.671204z" fill-rule="evenodd"/><path fill="#000000" fill-opacity="0.0" d="m0 0l798.7087 0l0 178.07874l-798.7087 0z" fill-rule="evenodd"/><path fill="#000000" d="m64.93146 67.63312l16.28125 0l0 2.765625l-1.734375 0q-1.6875 0 -2.3125 0.328125q-0.9375 0.515625 -0.9375 1.5625q0 0.75 0.515625 2.375l9.3125 30.265625l8.078125 -24.859375l-1.890625 -6.015625q-0.6875 -2.15625 -2.09375 -3.09375q-0.84375 -0.5625 -2.953125 -0.5625l0 -2.765625l16.140625 0l0 2.765625l-1.53125 0q-1.984375 0 -2.671875 0.5q-0.671875 0.484375 -0.671875 1.328125q0 0.71875 0.515625 2.4375l9.34375 30.46875l9.40625 -30.46875q0.484375 -1.59375 0.484375 -2.40625q0 -0.9375 -0.65625 -1.390625q-0.640625 -0.46875 -2.5625 -0.46875l-1.625 0l0 -2.765625l13.859375 0l0 2.765625q-1.75 -0.03125 -2.625 0.34375q-0.859375 0.375 -1.421875 1.078125q-0.546875 0.703125 -1.1875 2.84375l-12.53125 38.375l-4.71875 0l-8.765625 -27.140625l-8.78125 27.140625l-4.6875 0l-12.296875 -38.375q-0.890625 -2.765625 -2.1875 -3.640625q-0.96875 -0.625 -3.09375 -0.625l0 -2.765625zm65.5499 3.1875l0 -2.796875q3.15625 -0.421875 4.90625 -0.984375q1.765625 -0.578125 3.6875 -1.75l2.546875 0l0 21.515625q3.671875 -3.09375 6.953125 -4.515625q3.296875 -1.4375 6.28125 -1.4375q4.359375 0 7.203125 2.609375q2.796875 2.59375 2.796875 6.34375l0 15.96875q0 2.390625 0.375 3.125q0.375 0.71875 1.25 1.0625q0.875 0.34375 3.9375 0.34375l0 2.734375l-16.796875 0l0 -2.734375l1.234375 0q2.375 0 3.125 -0.375q0.75 -0.375 1.09375 -1.234375q0.34375 -0.859375 0.34375 -3.5625l0 -11.09375q0 -3.6875 -0.265625 -4.796875q-0.484375 -1.875 -2.015625 -3.015625q-1.53125 -1.140625 -3.90625 -1.140625q-2.671875 0 -5.578125 1.3125q-2.90625 1.3125 -6.03125 3.953125l0 16.3125q0 1.8125 0.3125 2.4375q0.328125 0.625 1.078125 0.921875q0.75 0.28125 3.0 0.28125l1.328125 0l0 2.734375l-16.859375 0l0 -2.734375l1.015625 0q2.375 0 3.453125 -0.578125q0.578125 -0.296875 0.828125 -1.140625q0.265625 -0.859375 0.265625 -4.6875l0 -33.078125l-5.5625 0zm60.44104 10.03125q4.78125 0 8.28125 1.984375q3.5 1.984375 5.515625 5.796875q2.015625 3.796875 2.015625 8.6875q0 4.875 -2.0625 8.6875q-2.0625 3.8125 -5.625 5.8125q-3.5625 2.0 -8.515625 2.0q-7.875 0 -11.828125 -4.90625q-3.953125 -4.921875 -3.953125 -11.5625q0 -4.84375 2.046875 -8.609375q2.046875 -3.765625 5.734375 -5.828125q3.703125 -2.0625 8.390625 -2.0625zm-0.265625 3.15625q-3.703125 0 -6.28125 2.921875q-3.25 3.65625 -3.25 10.609375q0 6.71875 2.765625 10.234375q2.515625 3.125 6.796875 3.125q2.78125 0 4.9375 -1.46875q2.171875 -1.46875 3.5 -4.671875q1.328125 -3.203125 1.328125 -7.53125q0 -4.234375 -1.421875 -7.59375q-1.109375 -2.65625 -3.34375 -4.140625q-2.21875 -1.484375 -5.03125 -1.484375zm60.11844 -16.375l5.375 0l14.09375 37.953125q1.03125 2.859375 2.09375 3.796875q1.0625 0.921875 2.84375 0.921875l0.71875 0l0 2.734375l-16.171875 0l0 -2.734375q0.78125 -0.0625 1.53125 -0.0625q1.5625 0 2.046875 -0.328125q0.9375 -0.625 0.9375 -1.5625q0 -0.6875 -0.90625 -3.359375l-2.984375 -8.78125l-16.46875 0l-3.515625 9.828125q-0.5625 1.53125 -0.5625 2.125q0 0.640625 0.34375 1.140625q0.34375 0.484375 0.921875 0.734375q0.59375 0.234375 1.890625 0.234375q0.875 0 1.4375 0.03125l0 2.734375l-13.578125 0l0 -2.734375q1.890625 0 2.71875 -0.375q0.828125 -0.375 1.4375 -1.203125q0.625 -0.828125 1.640625 -3.5l14.15625 -37.59375zm-5.6875 25.390625l14.015625 0l-7.03125 -19.53125l-6.984375 19.53125zm33.322327 -6.703125l0 -2.765625q2.4375 -0.234375 4.25 -0.796875q1.828125 -0.578125 4.171875 -1.90625l2.421875 0l0 5.46875q3.703125 -2.9375 5.78125 -3.9375q3.203125 -1.53125 6.09375 -1.53125q1.984375 0 3.890625 0.734375q1.90625 0.734375 3.0625 1.8125q1.15625 1.0625 1.96875 2.921875q3.40625 -3.03125 6.3125 -4.25q2.921875 -1.21875 5.921875 -1.21875q2.859375 0 5.046875 1.1875q2.203125 1.1875 3.1875 2.984375q1.0 1.78125 1.0 5.234375l0 15.09375q0 2.375 0.109375 2.765625q0.15625 0.625 0.6875 1.1875q0.546875 0.546875 1.21875 0.78125q0.6875 0.21875 2.546875 0.21875l1.046875 0l0 2.734375l-16.375 0l0 -2.734375q2.796875 -0.03125 3.625 -0.40625q0.828125 -0.375 1.234375 -1.21875q0.40625 -0.84375 0.40625 -3.328125l0 -14.34375q0 -2.734375 -0.484375 -3.765625q-0.484375 -1.046875 -1.734375 -1.75q-1.25 -0.703125 -3.109375 -0.703125q-2.3125 0 -4.859375 1.234375q-3.375 1.6875 -5.328125 3.8125l0 15.515625q0 2.25 0.203125 2.953125q0.21875 0.703125 0.71875 1.171875q0.5 0.46875 1.171875 0.65625q0.671875 0.171875 3.234375 0.171875l0 2.734375l-16.03125 0l0 -2.734375l0.90625 0q1.921875 0 2.71875 -0.453125q0.796875 -0.453125 1.25 -1.40625q0.328125 -0.75 0.328125 -3.09375l0 -13.859375q0 -3.0625 -0.484375 -4.125q-0.46875 -1.078125 -1.796875 -1.828125q-1.328125 -0.75 -3.125 -0.75q-2.109375 0 -4.265625 1.046875q-3.1875 1.53125 -5.859375 4.0l0 16.71875q0 1.5 0.40625 2.203125q0.40625 0.703125 1.28125 1.125q0.890625 0.421875 2.421875 0.421875l1.203125 0l0 2.734375l-16.375 0l0 -2.734375l0.875 0q2.25 0 2.96875 -0.359375q1.03125 -0.484375 1.5 -1.5625q0.25 -0.578125 0.25 -3.03125l0 -19.03125l-5.59375 0zm84.26813 -18.6875l17.375 0l0 2.765625l-1.328125 0q-1.890625 0 -2.734375 0.53125q-0.84375 0.515625 -1.234375 1.484375q-0.390625 0.953125 -0.390625 3.71875l0 29.25q0 2.21875 0.421875 3.15625q0.421875 0.921875 1.1875 1.34375q0.765625 0.421875 2.75 0.421875l1.328125 0l0 2.734375l-17.375 0l0 -2.734375l1.421875 0q1.921875 0 2.71875 -0.4375q0.796875 -0.4375 1.15625 -1.265625q0.359375 -0.828125 0.359375 -3.21875l0 -29.9375q0 -2.5 -0.359375 -3.359375q-0.359375 -0.875 -1.15625 -1.28125q-0.796875 -0.40625 -2.71875 -0.40625l-1.421875 0l0 -2.765625zm31.55896 34.5l0 -11.546875q6.484375 0.0625 9.65625 -1.078125q3.171875 -1.140625 4.84375 -3.5q1.6875 -2.359375 1.6875 -5.28125q0 -2.671875 -1.484375 -5.25q-1.484375 -2.59375 -3.921875 -4.03125q-2.4375 -1.4375 -5.203125 -1.4375q-2.21875 0 -3.8125 0.828125q-1.59375 0.828125 -3.0 2.828125q-1.359375 1.984375 -1.953125 2.4375q-1.140625 0.875 -2.265625 0.875q-0.78125 0 -1.546875 -0.40625q-0.765625 -0.40625 -1.0625 -0.921875q-0.421875 -0.78125 -0.421875 -1.5625q0 -2.578125 2.984375 -4.53125q4.171875 -2.703125 10.03125 -2.703125q5.265625 0 9.296875 1.96875q4.046875 1.96875 6.125 5.234375q2.09375 3.25 2.09375 7.34375q0 6.421875 -5.09375 9.96875q-5.09375 3.546875 -13.5625 3.578125l0 7.1875l-3.390625 0zm1.671875 3.328125q1.6875 0 2.875 1.1875q1.1875 1.1875 1.1875 2.875q0 1.6875 -1.203125 2.875q-1.203125 1.1875 -2.859375 1.1875q-1.703125 0 -2.90625 -1.1875q-1.203125 -1.1875 -1.203125 -2.875q0 -1.6875 1.1875 -2.875q1.1875 -1.1875 2.921875 -1.1875zm83.409 -37.828125l2.34375 0l4.140625 15.140625l-3.03125 0.84375q-2.4375 -5.234375 -3.703125 -7.03125q-2.09375 -2.890625 -5.203125 -4.578125q-3.109375 -1.703125 -6.84375 -1.703125q-4.390625 0 -8.09375 2.359375q-3.6875 2.359375 -5.984375 6.921875q-2.296875 4.546875 -2.296875 10.25q0 5.859375 2.328125 10.453125q2.328125 4.578125 6.296875 7.0625q3.96875 2.46875 8.5625 2.46875q4.328125 0 8.84375 -2.46875q4.53125 -2.484375 7.859375 -6.9375l2.59375 1.78125q-2.015625 3.0 -4.359375 5.078125q-3.703125 3.359375 -7.71875 4.953125q-4.0 1.59375 -8.78125 1.59375q-10.578125 0 -17.1875 -7.84375q-5.46875 -6.515625 -5.46875 -15.5q0 -6.59375 3.03125 -11.953125q3.03125 -5.359375 8.34375 -8.515625q5.328125 -3.15625 11.46875 -3.15625q3.296875 0 6.109375 0.90625q2.8125 0.890625 5.71875 2.875l1.03125 -3.0zm28.839966 13.21875q4.78125 0 8.28125 1.984375q3.5 1.984375 5.515625 5.796875q2.015625 3.796875 2.015625 8.6875q0 4.875 -2.0625 8.6875q-2.0625 3.8125 -5.625 5.8125q-3.5625 2.0 -8.515625 2.0q-7.875 0 -11.828125 -4.90625q-3.953125 -4.921875 -3.953125 -11.5625q0 -4.84375 2.046875 -8.609375q2.046875 -3.765625 5.734375 -5.828125q3.703125 -2.0625 8.390625 -2.0625zm-0.265625 3.15625q-3.703125 0 -6.28125 2.921875q-3.25 3.65625 -3.25 10.609375q0 6.71875 2.765625 10.234375q2.515625 3.125 6.796875 3.125q2.78125 0 4.9375 -1.46875q2.171875 -1.46875 3.5 -4.671875q1.328125 -3.203125 1.328125 -7.53125q0 -4.234375 -1.421875 -7.59375q-1.109375 -2.65625 -3.34375 -4.140625q-2.21875 -1.484375 -5.03125 -1.484375zm21.190796 2.3125l0 -2.734375q2.90625 -0.328125 4.328125 -0.78125q1.4375 -0.453125 4.140625 -1.953125l2.34375 0l0 6.1875q4.296875 -3.625 7.328125 -4.90625q3.046875 -1.28125 6.171875 -1.28125q2.671875 0 4.71875 0.890625q2.046875 0.890625 3.328125 2.421875q1.296875 1.53125 1.71875 3.484375q0.265625 1.203125 0.265625 3.65625l0 14.3125q0 2.578125 0.375 3.3125q0.375 0.71875 1.1875 1.046875q0.8125 0.328125 4.0 0.328125l0 2.734375l-16.765625 0l0 -2.734375l0.921875 0q2.34375 0 3.1875 -0.421875q0.84375 -0.421875 1.21875 -1.234375q0.375 -0.8125 0.375 -3.328125l0 -11.96875q0 -3.71875 -0.609375 -5.140625q-0.59375 -1.4375 -2.046875 -2.328125q-1.453125 -0.90625 -3.65625 -0.90625q-2.640625 0 -5.640625 1.359375q-2.984375 1.34375 -5.78125 3.984375l0 15.0q0 2.546875 0.359375 3.390625q0.375 0.84375 1.234375 1.265625q0.578125 0.328125 3.125 0.328125l0.9375 0l0 2.734375l-16.765625 0l0 -2.734375l0.8125 0q2.40625 0 3.28125 -0.40625q0.890625 -0.40625 1.25 -1.453125q0.1875 -0.515625 0.1875 -3.578125l0 -18.546875l-5.53125 0zm52.53479 -15.75l2.3125 0l0 11.0625l9.671875 0l0 3.25l-9.671875 0l0 19.625q0 2.515625 0.4375 3.59375q0.4375 1.0625 1.5 1.75q1.0625 0.6875 2.359375 0.6875q3.09375 0 6.828125 -2.765625l0 3.15625q-4.265625 2.890625 -8.625 2.890625q-2.46875 0 -4.46875 -1.109375q-2.0 -1.109375 -2.734375 -2.59375q-0.734375 -1.5 -0.734375 -5.21875l0 -20.015625l-5.703125 0l0 -2.734375q2.734375 -0.609375 4.40625 -1.90625q1.6875 -1.3125 2.71875 -3.390625q1.046875 -2.09375 1.703125 -6.28125zm44.61847 34.078125l2.09375 1.6875q-2.390625 2.828125 -4.625 4.5q-2.21875 1.65625 -4.203125 2.3125q-1.984375 0.671875 -4.65625 0.671875q-4.78125 0 -8.140625 -1.953125q-3.828125 -2.25 -5.890625 -5.859375q-2.046875 -3.609375 -2.046875 -8.53125q0 -5.140625 1.984375 -8.78125q1.984375 -3.640625 5.546875 -5.734375q3.5625 -2.109375 8.25 -2.109375q3.484375 0 6.046875 1.09375q2.578125 1.078125 4.375 3.28125q1.796875 2.203125 2.609375 5.03125q0.453125 1.65625 0.515625 4.296875l-23.015625 0q-0.09375 1.59375 -0.09375 2.375q0 4.09375 1.421875 7.3125q1.4375 3.203125 3.796875 4.71875q2.359375 1.5 5.359375 1.5q2.53125 0 4.90625 -1.1875q2.390625 -1.1875 5.765625 -4.625zm-4.15625 -13.15625q-0.5 -3.0 -1.390625 -4.421875q-0.890625 -1.4375 -2.546875 -2.28125q-1.640625 -0.84375 -3.6875 -0.84375q-2.046875 0 -3.84375 0.84375q-1.78125 0.84375 -2.96875 2.34375q-1.1875 1.5 -2.078125 4.359375l16.515625 0zm10.990662 -5.171875l0 -2.734375q2.90625 -0.328125 4.328125 -0.78125q1.4375 -0.453125 4.140625 -1.953125l2.34375 0l0 6.1875q4.296875 -3.625 7.328125 -4.90625q3.046875 -1.28125 6.171875 -1.28125q2.671875 0 4.71875 0.890625q2.046875 0.890625 3.328125 2.421875q1.296875 1.53125 1.71875 3.484375q0.265625 1.203125 0.265625 3.65625l0 14.3125q0 2.578125 0.375 3.3125q0.375 0.71875 1.1875 1.046875q0.8125 0.328125 4.0 0.328125l0 2.734375l-16.765625 0l0 -2.734375l0.921875 0q2.34375 0 3.1875 -0.421875q0.84375 -0.421875 1.21875 -1.234375q0.375 -0.8125 0.375 -3.328125l0 -11.96875q0 -3.71875 -0.609375 -5.140625q-0.59375 -1.4375 -2.046875 -2.328125q-1.453125 -0.90625 -3.65625 -0.90625q-2.640625 0 -5.640625 1.359375q-2.984375 1.34375 -5.78125 3.984375l0 15.0q0 2.546875 0.359375 3.390625q0.375 0.84375 1.234375 1.265625q0.578125 0.328125 3.125 0.328125l0.9375 0l0 2.734375l-16.765625 0l0 -2.734375l0.8125 0q2.40625 0 3.28125 -0.40625q0.890625 -0.40625 1.25 -1.453125q0.1875 -0.515625 0.1875 -3.578125l0 -18.546875l-5.53125 0zm52.53479 -15.75l2.3125 0l0 11.0625l9.671875 0l0 3.25l-9.671875 0l0 19.625q0 2.515625 0.4375 3.59375q0.4375 1.0625 1.5 1.75q1.0625 0.6875 2.359375 0.6875q3.09375 0 6.828125 -2.765625l0 3.15625q-4.265625 2.890625 -8.625 2.890625q-2.46875 0 -4.46875 -1.109375q-2.0 -1.109375 -2.734375 -2.59375q-0.734375 -1.5 -0.734375 -5.21875l0 -20.015625l-5.703125 0l0 -2.734375q2.734375 -0.609375 4.40625 -1.90625q1.6875 -1.3125 2.71875 -3.390625q1.046875 -2.09375 1.703125 -6.28125zm38.790344 11.0625l2.28125 0l2.9375 9.953125l-2.9375 0.984375q-1.75 -4.0 -4.9375 -6.296875q-3.171875 -2.296875 -6.421875 -2.296875q-2.5 0 -4.0625 1.21875q-1.5625 1.21875 -1.5625 2.8125q0 1.5 1.140625 2.578125q1.109375 1.109375 4.96875 2.5l6.359375 2.25q5.359375 1.921875 7.3125 4.09375q1.921875 2.21875 1.921875 5.015625q0 2.375 -1.4375 4.578125q-1.421875 2.1875 -4.140625 3.5q-2.71875 1.296875 -6.234375 1.296875q-5.46875 0 -9.375 -3.125l-0.6875 2.34375l-2.296875 0l-4.078125 -10.640625l2.96875 -1.171875q2.953125 4.6875 5.59375 6.640625q3.671875 2.765625 7.9375 2.765625q2.828125 0 4.65625 -1.515625q1.828125 -1.515625 1.828125 -3.375q0 -1.515625 -1.140625 -2.796875q-1.171875 -1.234375 -4.5 -2.40625l-7.515625 -2.734375q-4.84375 -1.75 -6.734375 -3.84375q-1.890625 -2.078125 -1.890625 -4.78125q0 -3.28125 3.078125 -5.796875q3.078125 -2.53125 7.828125 -2.53125q2.46875 0 4.421875 0.640625q1.953125 0.625 3.84375 2.09375l0.875 -1.953125z" fill-rule="nonzero"/><path xmlns="http://www.w3.org/2000/svg" fill="#000000" d="m929.2887 150.07874l-25.007874 0l0 -150.07874l25.007874 0z" fill-rule="evenodd" style="animation-name:alternateDown;animation-duration:1s;animation-iteration-count:infinite;animation-timing-function:ease-in-out;"/><path xmlns="http://www.w3.org/2000/svg" stroke="#000000" stroke-width="1.0" stroke-linejoin="round" stroke-linecap="butt" d="m929.2887 150.07874l-25.007874 0l0 -150.07874l25.007874 0z" fill-rule="evenodd" style="animation-name:alternateDown;animation-duration:1s;animation-iteration-count:infinite;animation-timing-function:ease-in-out;"/><path xmlns="http://www.w3.org/2000/svg" fill="#000000" d="m876.50397 192.0l-25.007935 0l0 -192.0l25.007935 0z" fill-rule="evenodd" style="animation-name:alternateDown;animation-duration:1s;animation-iteration-count:infinite;animation-timing-function:ease-in-out;animation-delay:0.5s;"/><path xmlns="http://www.w3.org/2000/svg" stroke="#000000" stroke-width="1.0" stroke-linejoin="round" stroke-linecap="butt" d="m876.50397 192.0l-25.007935 0l0 -192.0l25.007935 0z" fill-rule="evenodd" style="animation-name:alternateDown;animation-duration:1s;animation-iteration-count:infinite;animation-timing-function:ease-in-out;animation-delay:0.5s;"/><path xmlns="http://www.w3.org/2000/svg" fill="#000000" d="m823.7192 100.67454l-25.007874 0l0 -100.661415l25.007874 0z" fill-rule="evenodd" style="animation-name:alternateDown;animation-duration:1s;animation-iteration-count:infinite;animation-timing-function:ease-in-out;"/><path xmlns="http://www.w3.org/2000/svg" stroke="#000000" stroke-width="1.0" stroke-linejoin="round" stroke-linecap="butt" d="m823.7192 100.67454l-25.007874 0l0 -100.661415l25.007874 0z" fill-rule="evenodd" style="animation-name:alternateDown;animation-duration:1s;animation-iteration-count:infinite;animation-timing-function:ease-in-out;"/><path fill="#000000" fill-opacity="0.0" d="m208.71654 322.07874l425.22833 0l0 35.18112l-425.22833 0z" fill-rule="evenodd"/><path fill="#000000" d="m395.87756 329.5924l1.140625 0l1.78125 6.71875l-1.40625 0.484375q-1.40625 -3.1875 -3.234375 -4.546875q-1.828125 -1.359375 -4.140625 -1.359375q-3.328125 0 -5.578125 2.765625q-2.25 2.765625 -2.25 6.59375q0 2.75 1.140625 5.046875q1.15625 2.296875 3.078125 3.5q1.921875 1.203125 4.078125 1.203125q1.390625 0 2.640625 -0.5q1.265625 -0.515625 2.046875 -1.21875q0.578125 -0.53125 0.78125 -1.171875q0.203125 -0.640625 0.1875 -1.78125l0 -1.03125q0 -1.234375 -0.296875 -1.75q-0.28125 -0.515625 -0.8125 -0.734375q-0.40625 -0.171875 -2.1875 -0.171875l0 -1.3125l8.84375 0l0 1.3125l-0.71875 0q-0.921875 0 -1.265625 0.1875q-0.328125 0.171875 -0.484375 0.546875q-0.15625 0.375 -0.15625 1.46875l0 7.546875l-1.546875 0l-0.828125 -1.90625q-1.3125 0.953125 -2.796875 1.484375q-2.21875 0.796875 -4.390625 0.796875q-4.390625 0 -7.53125 -3.21875q-3.125 -3.234375 -3.125 -8.046875q0 -4.78125 3.171875 -8.03125q3.171875 -3.25 7.59375 -3.25q1.109375 0 2.1875 0.21875q1.078125 0.21875 1.96875 0.625q0.671875 0.296875 1.5625 0.96875l0.546875 -1.4375zm15.9375 6.34375q2.296875 0 3.96875 0.953125q1.6875 0.953125 2.65625 2.78125q0.96875 1.828125 0.96875 4.171875q0 2.34375 -1.0 4.171875q-0.984375 1.828125 -2.703125 2.796875q-1.703125 0.953125 -4.078125 0.953125q-3.78125 0 -5.6875 -2.359375q-1.890625 -2.359375 -1.890625 -5.546875q0 -2.328125 0.984375 -4.125q0.984375 -1.8125 2.75 -2.796875q1.78125 -1.0 4.03125 -1.0zm-0.125 1.515625q-1.78125 0 -3.015625 1.40625q-1.5625 1.75 -1.5625 5.09375q0 3.21875 1.328125 4.90625q1.203125 1.5 3.265625 1.5q1.328125 0 2.359375 -0.703125q1.046875 -0.703125 1.6875 -2.234375q0.640625 -1.546875 0.640625 -3.625q0 -2.03125 -0.6875 -3.640625q-0.53125 -1.28125 -1.609375 -1.984375q-1.0625 -0.71875 -2.40625 -0.71875zm21.390625 4.890625l0 -1.703125q0 -1.734375 -0.96875 -2.46875q-0.96875 -0.75 -2.734375 -0.75q-0.875 0 -1.53125 0.21875q-0.65625 0.203125 -1.0625 0.578125q-0.390625 0.359375 -0.578125 0.828125q-0.078125 0.171875 -0.375 1.328125q-0.359375 1.40625 -1.453125 1.40625q-0.625 0 -1.015625 -0.40625q-0.375 -0.421875 -0.375 -1.125q0 -1.03125 0.765625 -2.015625q0.765625 -1.0 2.328125 -1.640625q1.578125 -0.65625 3.71875 -0.65625q2.0 0 3.421875 0.625q1.421875 0.609375 2.09375 1.765625q0.46875 0.796875 0.46875 2.90625l0 6.015625q0 1.28125 0.078125 1.671875q0.171875 0.671875 0.59375 1.015625q0.4375 0.328125 1.125 0.328125q0.71875 0 1.71875 -0.34375l0 1.359375q-1.296875 0.375 -2.328125 0.375q-1.109375 0 -1.875 -0.3125q-0.75 -0.3125 -1.234375 -0.90625q-0.484375 -0.609375 -0.625 -1.4375q-1.875 1.46875 -3.390625 2.0625q-1.515625 0.59375 -3.0625 0.59375q-2.15625 0 -3.5 -1.171875q-1.34375 -1.171875 -1.34375 -2.75q0 -0.953125 0.484375 -1.8125q0.5 -0.859375 1.5 -1.515625q1.015625 -0.65625 3.171875 -1.15625q2.15625 -0.5 5.984375 -0.90625zm0 1.359375q-3.625 0.53125 -4.484375 0.734375q-1.703125 0.390625 -2.4375 0.859375q-0.734375 0.46875 -1.046875 1.015625q-0.3125 0.53125 -0.3125 1.140625q0 0.609375 0.34375 1.1875q0.359375 0.5625 1.0 0.890625q0.640625 0.328125 1.359375 0.328125q1.015625 0 2.296875 -0.484375q1.28125 -0.484375 3.28125 -1.890625l0 -3.78125zm7.15625 -12.640625l0 -1.28125q2.125 -0.15625 4.140625 -1.3125l1.15625 0l0 19.234375q0 1.21875 0.15625 1.53125q0.203125 0.4375 0.59375 0.640625q0.390625 0.203125 1.5 0.203125l0.5 0l0 1.3125l-8.046875 0l0 -1.3125l0.8125 0q0.765625 0 1.140625 -0.234375q0.390625 -0.234375 0.546875 -0.640625q0.171875 -0.40625 0.171875 -1.625l0 -16.515625l-2.671875 0zm20.34375 5.25l1.09375 0l1.40625 4.78125l-1.40625 0.46875q-0.84375 -1.921875 -2.375 -3.015625q-1.515625 -1.109375 -3.078125 -1.109375q-1.203125 0 -1.953125 0.59375q-0.75 0.578125 -0.75 1.34375q0 0.71875 0.546875 1.234375q0.53125 0.53125 2.390625 1.203125l3.046875 1.078125q2.578125 0.921875 3.515625 1.96875q0.921875 1.0625 0.921875 2.40625q0 1.140625 -0.6875 2.203125q-0.6875 1.046875 -2.0 1.671875q-1.296875 0.625 -2.984375 0.625q-2.625 0 -4.5 -1.5l-0.328125 1.125l-1.109375 0l-1.953125 -5.109375l1.421875 -0.5625q1.421875 2.25 2.6875 3.1875q1.765625 1.328125 3.8125 1.328125q1.359375 0 2.234375 -0.71875q0.875 -0.734375 0.875 -1.625q0 -0.734375 -0.546875 -1.34375q-0.5625 -0.59375 -2.15625 -1.15625l-3.609375 -1.3125q-2.328125 -0.84375 -3.234375 -1.84375q-0.90625 -1.0 -0.90625 -2.296875q0 -1.578125 1.46875 -2.78125q1.484375 -1.21875 3.765625 -1.21875q1.1875 0 2.125 0.3125q0.9375 0.296875 1.84375 1.0l0.421875 -0.9375z" fill-rule="nonzero"/><path fill="#000000" fill-opacity="0.0" d="m399.75592 392.44095l425.22833 0l0 35.18109l-425.22833 0z" fill-rule="evenodd"/><path fill="#000000" d="m561.2763 399.95462l16.671875 0l2.015625 5.71875l-1.359375 0.515625q-0.859375 -2.0 -1.6875 -2.875q-0.828125 -0.875 -1.921875 -1.25q-1.09375 -0.375 -3.4375 -0.375l-4.703125 0l0 8.375l2.140625 0q1.6875 0 2.421875 -0.328125q0.734375 -0.328125 1.125 -1.03125q0.390625 -0.71875 0.390625 -2.03125l0 -0.578125l1.53125 0l0 9.5625l-1.53125 0l0 -0.84375q0 -1.234375 -0.375 -1.921875q-0.375 -0.6875 -1.03125 -0.984375q-0.640625 -0.3125 -2.296875 -0.3125l-2.375 0l0 6.78125q0 0.9375 0.1875 1.3125q0.203125 0.359375 0.578125 0.5625q0.390625 0.1875 1.375 0.1875l0.578125 0l0 1.3125l-8.296875 0l0 -1.3125l0.53125 0q1.0 0 1.375 -0.1875q0.390625 -0.1875 0.5625 -0.578125q0.1875 -0.40625 0.1875 -1.453125l0 -14.828125q0 -0.96875 -0.171875 -1.359375q-0.171875 -0.390625 -0.53125 -0.5625q-0.34375 -0.1875 -1.21875 -0.1875l-0.734375 0l0 -1.328125zm31.171875 12.75l0 -1.703125q0 -1.734375 -0.96875 -2.46875q-0.96875 -0.75 -2.734375 -0.75q-0.875 0 -1.53125 0.21875q-0.65625 0.203125 -1.0625 0.578125q-0.390625 0.359375 -0.578125 0.828125q-0.078125 0.171875 -0.375 1.328125q-0.359375 1.40625 -1.453125 1.40625q-0.625 0 -1.015625 -0.40625q-0.375 -0.421875 -0.375 -1.125q0 -1.03125 0.765625 -2.015625q0.765625 -1.0 2.328125 -1.640625q1.578125 -0.65625 3.71875 -0.65625q2.0 0 3.421875 0.625q1.421875 0.609375 2.09375 1.765625q0.46875 0.796875 0.46875 2.90625l0 6.015625q0 1.28125 0.078125 1.671875q0.171875 0.671875 0.59375 1.015625q0.4375 0.328125 1.125 0.328125q0.71875 0 1.71875 -0.34375l0 1.359375q-1.296875 0.375 -2.328125 0.375q-1.109375 0 -1.875 -0.3125q-0.75 -0.3125 -1.234375 -0.90625q-0.484375 -0.609375 -0.625 -1.4375q-1.875 1.46875 -3.390625 2.0625q-1.515625 0.59375 -3.0625 0.59375q-2.15625 0 -3.5 -1.171875q-1.34375 -1.171875 -1.34375 -2.75q0 -0.953125 0.484375 -1.8125q0.5 -0.859375 1.5 -1.515625q1.015625 -0.65625 3.171875 -1.15625q2.15625 -0.5 5.984375 -0.90625zm0 1.359375q-3.625 0.53125 -4.484375 0.734375q-1.703125 0.390625 -2.4375 0.859375q-0.734375 0.46875 -1.046875 1.015625q-0.3125 0.53125 -0.3125 1.140625q0 0.609375 0.34375 1.1875q0.359375 0.5625 1.0 0.890625q0.640625 0.328125 1.359375 0.328125q1.015625 0 2.296875 -0.484375q1.28125 -0.484375 3.28125 -1.890625l0 -3.78125zm7.296875 -5.140625l0 -1.328125q1.171875 -0.109375 2.046875 -0.375q0.875 -0.28125 2.0 -0.921875l1.15625 0l0 2.625q1.78125 -1.40625 2.78125 -1.890625q1.53125 -0.734375 2.921875 -0.734375q0.953125 0 1.859375 0.359375q0.921875 0.34375 1.46875 0.859375q0.5625 0.515625 0.953125 1.40625q1.640625 -1.453125 3.03125 -2.03125q1.40625 -0.59375 2.84375 -0.59375q1.375 0 2.421875 0.578125q1.0625 0.5625 1.53125 1.421875q0.484375 0.859375 0.484375 2.515625l0 7.25q0 1.140625 0.046875 1.328125q0.078125 0.296875 0.328125 0.5625q0.265625 0.265625 0.59375 0.375q0.328125 0.109375 1.21875 0.109375l0.5 0l0 1.3125l-7.859375 0l0 -1.3125q1.34375 -0.015625 1.734375 -0.1875q0.40625 -0.1875 0.59375 -0.59375q0.203125 -0.40625 0.203125 -1.59375l0 -6.890625q0 -1.3125 -0.234375 -1.8125q-0.234375 -0.5 -0.84375 -0.828125q-0.59375 -0.34375 -1.484375 -0.34375q-1.109375 0 -2.328125 0.59375q-1.625 0.8125 -2.5625 1.828125l0 7.453125q0 1.078125 0.09375 1.421875q0.109375 0.328125 0.34375 0.5625q0.25 0.21875 0.5625 0.3125q0.328125 0.078125 1.5625 0.078125l0 1.3125l-7.703125 0l0 -1.3125l0.4375 0q0.921875 0 1.296875 -0.21875q0.390625 -0.21875 0.609375 -0.671875q0.15625 -0.359375 0.15625 -1.484375l0 -6.65625q0 -1.46875 -0.234375 -1.984375q-0.21875 -0.515625 -0.859375 -0.875q-0.640625 -0.359375 -1.5 -0.359375q-1.015625 0 -2.046875 0.5q-1.53125 0.734375 -2.8125 1.921875l0 8.03125q0 0.71875 0.1875 1.0625q0.203125 0.328125 0.625 0.53125q0.421875 0.203125 1.15625 0.203125l0.578125 0l0 1.3125l-7.859375 0l0 -1.3125l0.421875 0q1.078125 0 1.421875 -0.171875q0.5 -0.234375 0.71875 -0.75q0.125 -0.28125 0.125 -1.453125l0 -9.140625l-2.6875 0zm33.96875 -9.671875q0.75 0 1.28125 0.53125q0.53125 0.515625 0.53125 1.265625q0 0.75 -0.53125 1.28125q-0.53125 0.53125 -1.28125 0.53125q-0.75 0 -1.28125 -0.53125q-0.53125 -0.53125 -0.53125 -1.28125q0 -0.75 0.53125 -1.265625q0.53125 -0.53125 1.28125 -0.53125zm-3.984375 9.671875l0 -1.296875q1.296875 -0.15625 2.171875 -0.4375q0.890625 -0.28125 2.015625 -0.890625l1.140625 0l0 12.53125q0 0.65625 0.1875 0.984375q0.1875 0.328125 0.515625 0.484375q0.34375 0.140625 1.234375 0.140625l0.734375 0l0 1.3125l-8.0 0l0 -1.3125l0.640625 0q1.046875 0 1.40625 -0.1875q0.359375 -0.1875 0.5 -0.53125q0.15625 -0.34375 0.15625 -1.609375l0 -9.1875l-2.703125 0zm9.546875 -7.5l0 -1.28125q2.125 -0.15625 4.140625 -1.3125l1.15625 0l0 19.234375q0 1.21875 0.15625 1.53125q0.203125 0.4375 0.59375 0.640625q0.390625 0.203125 1.5 0.203125l0.5 0l0 1.3125l-8.046875 0l0 -1.3125l0.8125 0q0.765625 0 1.140625 -0.234375q0.390625 -0.234375 0.546875 -0.640625q0.171875 -0.40625 0.171875 -1.625l0 -16.515625l-2.671875 0zm8.4375 5.25l7.59375 0l0 1.3125l-0.625 0q-0.890625 0 -1.0625 0.046875q-0.203125 0.0625 -0.34375 0.265625q-0.140625 0.1875 -0.140625 0.484375q0 0.421875 0.421875 1.421875l3.625 8.515625l3.359375 -8.140625q0.59375 -1.4375 0.59375 -1.90625q0 -0.359375 -0.265625 -0.515625q-0.265625 -0.171875 -1.203125 -0.171875l-0.734375 0l0 -1.3125l6.390625 0l0 1.3125l-0.375 0q-0.9375 0 -1.21875 0.125q-0.28125 0.125 -0.546875 0.515625q-0.265625 0.375 -0.84375 1.734375l-5.734375 13.359375q-0.625 1.4375 -1.390625 2.65625q-0.765625 1.234375 -1.921875 1.90625q-1.15625 0.671875 -2.546875 0.671875q-1.609375 0 -2.578125 -0.734375q-0.828125 -0.625 -0.828125 -1.5625q0 -0.578125 0.359375 -0.96875q0.359375 -0.375 0.84375 -0.375q0.375 0 0.703125 0.15625q0.203125 0.078125 0.84375 0.65625q0.78125 0.6875 1.09375 0.84375q0.328125 0.15625 0.640625 0.15625q0.640625 0 1.265625 -0.4375q0.625 -0.4375 1.0625 -1.234375q0.625 -1.140625 1.03125 -2.140625l0.640625 -1.5625l-5.15625 -11.546875q-0.546875 -1.21875 -0.921875 -1.640625q-0.375 -0.421875 -0.75 -0.515625q-0.203125 -0.0625 -1.28125 -0.0625l0 -1.3125z" fill-rule="nonzero"/><path fill="#000000" fill-opacity="0.0" d="m493.74014 427.62204l425.22836 0l0 35.18112l-425.22836 0z" fill-rule="evenodd"/><path fill="#000000" d="m572.9168 435.1357l1.125 0l1.984375 7.265625l-1.453125 0.40625q-1.171875 -2.515625 -1.78125 -3.375q-1.0 -1.390625 -2.5 -2.203125q-1.484375 -0.8125 -3.28125 -0.8125q-2.109375 0 -3.890625 1.140625q-1.765625 1.125 -2.875 3.3125q-1.09375 2.1875 -1.09375 4.921875q0 2.8125 1.109375 5.015625q1.125 2.203125 3.03125 3.390625q1.90625 1.1875 4.109375 1.1875q2.078125 0 4.25 -1.1875q2.171875 -1.1875 3.765625 -3.328125l1.25 0.859375q-0.96875 1.4375 -2.09375 2.4375q-1.78125 1.609375 -3.703125 2.375q-1.921875 0.765625 -4.21875 0.765625q-5.078125 0 -8.25 -3.765625q-2.625 -3.125 -2.625 -7.4375q0 -3.171875 1.453125 -5.734375q1.453125 -2.578125 4.0 -4.09375q2.5625 -1.515625 5.515625 -1.515625q1.578125 0 2.921875 0.4375q1.359375 0.421875 2.75 1.375l0.5 -1.4375zm5.953125 1.53125l0 -1.34375q1.515625 -0.203125 2.359375 -0.46875q0.84375 -0.28125 1.765625 -0.84375l1.21875 0l0 10.328125q1.765625 -1.484375 3.34375 -2.171875q1.578125 -0.6875 3.015625 -0.6875q2.09375 0 3.453125 1.25q1.34375 1.25 1.34375 3.046875l0 7.671875q0 1.140625 0.171875 1.5q0.1875 0.34375 0.609375 0.515625q0.421875 0.15625 1.890625 0.15625l0 1.3125l-8.0625 0l0 -1.3125l0.59375 0q1.140625 0 1.5 -0.171875q0.359375 -0.1875 0.515625 -0.59375q0.171875 -0.421875 0.171875 -1.71875l0 -5.328125q0 -1.765625 -0.125 -2.296875q-0.234375 -0.90625 -0.96875 -1.453125q-0.734375 -0.546875 -1.875 -0.546875q-1.28125 0 -2.6875 0.640625q-1.390625 0.625 -2.890625 1.890625l0 7.828125q0 0.875 0.15625 1.171875q0.15625 0.296875 0.515625 0.4375q0.359375 0.140625 1.4375 0.140625l0.640625 0l0 1.3125l-8.09375 0l0 -1.3125l0.484375 0q1.140625 0 1.65625 -0.28125q0.28125 -0.140625 0.40625 -0.546875q0.125 -0.40625 0.125 -2.25l0 -15.875l-2.671875 0zm32.359375 11.21875l0 -1.703125q0 -1.734375 -0.96875 -2.46875q-0.96875 -0.75 -2.734375 -0.75q-0.875 0 -1.53125 0.21875q-0.65625 0.203125 -1.0625 0.578125q-0.390625 0.359375 -0.578125 0.828125q-0.078125 0.171875 -0.375 1.328125q-0.359375 1.40625 -1.453125 1.40625q-0.625 0 -1.015625 -0.40625q-0.375 -0.421875 -0.375 -1.125q0 -1.03125 0.765625 -2.015625q0.765625 -1.0 2.328125 -1.640625q1.578125 -0.65625 3.71875 -0.65625q2.0 0 3.421875 0.625q1.421875 0.609375 2.09375 1.765625q0.46875 0.796875 0.46875 2.90625l0 6.015625q0 1.28125 0.078125 1.671875q0.171875 0.671875 0.59375 1.015625q0.4375 0.328125 1.125 0.328125q0.71875 0 1.71875 -0.34375l0 1.359375q-1.296875 0.375 -2.328125 0.375q-1.109375 0 -1.875 -0.3125q-0.75 -0.3125 -1.234375 -0.90625q-0.484375 -0.609375 -0.625 -1.4375q-1.875 1.46875 -3.390625 2.0625q-1.515625 0.59375 -3.0625 0.59375q-2.15625 0 -3.5 -1.171875q-1.34375 -1.171875 -1.34375 -2.75q0 -0.953125 0.484375 -1.8125q0.5 -0.859375 1.5 -1.515625q1.015625 -0.65625 3.171875 -1.15625q2.15625 -0.5 5.984375 -0.90625zm0 1.359375q-3.625 0.53125 -4.484375 0.734375q-1.703125 0.390625 -2.4375 0.859375q-0.734375 0.46875 -1.046875 1.015625q-0.3125 0.53125 -0.3125 1.140625q0 0.609375 0.34375 1.1875q0.359375 0.5625 1.0 0.890625q0.640625 0.328125 1.359375 0.328125q1.015625 0 2.296875 -0.484375q1.28125 -0.484375 3.28125 -1.890625l0 -3.78125zm7.34375 -5.140625l0 -1.3125q1.390625 -0.15625 2.078125 -0.375q0.6875 -0.21875 1.984375 -0.9375l1.125 0l0 2.96875q2.0625 -1.734375 3.515625 -2.34375q1.46875 -0.625 2.96875 -0.625q1.28125 0 2.265625 0.4375q0.984375 0.421875 1.59375 1.15625q0.625 0.734375 0.828125 1.671875q0.125 0.578125 0.125 1.75l0 6.875q0 1.234375 0.171875 1.59375q0.1875 0.34375 0.578125 0.5q0.390625 0.15625 1.921875 0.15625l0 1.3125l-8.046875 0l0 -1.3125l0.4375 0q1.125 0 1.53125 -0.203125q0.40625 -0.203125 0.578125 -0.59375q0.1875 -0.390625 0.1875 -1.59375l0 -5.75q0 -1.78125 -0.296875 -2.46875q-0.28125 -0.6875 -0.984375 -1.109375q-0.6875 -0.4375 -1.75 -0.4375q-1.265625 0 -2.703125 0.65625q-1.4375 0.640625 -2.78125 1.90625l0 7.203125q0 1.21875 0.171875 1.625q0.1875 0.40625 0.59375 0.609375q0.28125 0.15625 1.5 0.15625l0.453125 0l0 1.3125l-8.046875 0l0 -1.3125l0.390625 0q1.15625 0 1.578125 -0.1875q0.421875 -0.203125 0.59375 -0.703125q0.09375 -0.25 0.09375 -1.71875l0 -8.90625l-2.65625 0zm33.1875 -1.015625q0.703125 -0.828125 1.421875 -1.21875q0.734375 -0.390625 1.34375 -0.390625q0.5625 0 0.9375 0.34375q0.390625 0.328125 0.390625 0.8125q0 0.5 -0.34375 0.84375q-0.34375 0.34375 -0.875 0.34375q-0.21875 0 -0.59375 -0.078125q-0.4375 -0.109375 -0.734375 -0.109375q-0.390625 0 -0.8125 0.359375q0.96875 1.171875 0.96875 2.75q0 2.15625 -1.8125 3.734375q-1.8125 1.578125 -4.578125 1.578125q-1.53125 0 -3.078125 -0.640625q-1.03125 0.734375 -1.171875 0.90625q-0.21875 0.265625 -0.21875 0.5625q0 0.453125 0.46875 0.75q0.59375 0.390625 2.34375 0.65625l4.515625 0.671875q1.5 0.234375 3.015625 0.78125q1.515625 0.546875 2.1875 1.421875q0.6875 0.875 0.6875 2.09375q0 2.0625 -1.90625 3.296875q-2.421875 1.578125 -7.1875 1.578125q-2.5 0 -4.0625 -0.53125q-1.5625 -0.53125 -2.421875 -1.5q-0.625 -0.703125 -0.625 -1.453125q0 -0.96875 0.625 -1.890625q0.640625 -0.921875 2.9375 -2.625q-1.484375 -0.375 -2.125 -0.875q-0.8125 -0.640625 -0.8125 -1.453125q0 -0.40625 0.140625 -0.75q0.15625 -0.359375 0.484375 -0.703125q0.34375 -0.359375 1.234375 -0.984375q0.5625 -0.390625 0.796875 -0.578125q-1.140625 -0.8125 -1.71875 -1.8125q-0.578125 -1.015625 -0.578125 -2.21875q0 -1.984375 1.53125 -3.46875q1.859375 -1.8125 5.015625 -1.8125q1.40625 0 2.453125 0.359375q1.046875 0.34375 2.15625 1.25zm-4.75 -0.15625q-1.53125 0 -2.59375 1.109375q-1.0625 1.109375 -1.0625 2.75q0 1.09375 0.484375 1.984375q0.484375 0.875 1.359375 1.390625q0.875 0.5 1.84375 0.5q0.96875 0 1.84375 -0.515625q0.890625 -0.515625 1.359375 -1.390625q0.484375 -0.875 0.484375 -1.96875q0 -1.71875 -1.046875 -2.78125q-1.03125 -1.078125 -2.671875 -1.078125zm-2.484375 13.5625q-1.5 1.28125 -2.0 2.078125q-0.484375 0.796875 -0.484375 1.53125q0 0.625 0.484375 1.203125q0.5 0.59375 1.6875 0.96875q1.1875 0.375 2.984375 0.375q2.125 0 3.640625 -0.46875q1.53125 -0.453125 2.1875 -1.171875q0.484375 -0.5625 0.484375 -1.328125q0 -0.65625 -0.40625 -1.109375q-0.390625 -0.453125 -1.5 -0.796875q-1.09375 -0.328125 -2.046875 -0.484375l-5.03125 -0.796875zm25.8125 -3.59375l1.0 0.8125q-1.140625 1.359375 -2.21875 2.15625q-1.0625 0.796875 -2.015625 1.109375q-0.953125 0.328125 -2.234375 0.328125q-2.296875 0 -3.90625 -0.9375q-1.84375 -1.078125 -2.828125 -2.8125q-0.984375 -1.734375 -0.984375 -4.09375q0 -2.46875 0.953125 -4.21875q0.953125 -1.75 2.65625 -2.75q1.71875 -1.015625 3.96875 -1.015625q1.671875 0 2.90625 0.53125q1.234375 0.515625 2.09375 1.578125q0.859375 1.046875 1.25 2.40625q0.21875 0.796875 0.25 2.0625l-11.046875 0q-0.046875 0.765625 -0.046875 1.140625q0 1.96875 0.6875 3.515625q0.6875 1.53125 1.8125 2.265625q1.140625 0.71875 2.578125 0.71875q1.21875 0 2.359375 -0.5625q1.140625 -0.578125 2.765625 -2.234375zm-2.0 -6.3125q-0.234375 -1.4375 -0.671875 -2.125q-0.421875 -0.6875 -1.21875 -1.09375q-0.78125 -0.40625 -1.765625 -0.40625q-0.984375 0 -1.84375 0.40625q-0.859375 0.40625 -1.4375 1.125q-0.5625 0.71875 -0.984375 2.09375l7.921875 0zm15.84375 -4.734375l1.09375 0l1.40625 4.78125l-1.40625 0.46875q-0.84375 -1.921875 -2.375 -3.015625q-1.515625 -1.109375 -3.078125 -1.109375q-1.203125 0 -1.953125 0.59375q-0.75 0.578125 -0.75 1.34375q0 0.71875 0.546875 1.234375q0.53125 0.53125 2.390625 1.203125l3.046875 1.078125q2.578125 0.921875 3.515625 1.96875q0.921875 1.0625 0.921875 2.40625q0 1.140625 -0.6875 2.203125q-0.6875 1.046875 -2.0 1.671875q-1.296875 0.625 -2.984375 0.625q-2.625 0 -4.5 -1.5l-0.328125 1.125l-1.109375 0l-1.953125 -5.109375l1.421875 -0.5625q1.421875 2.25 2.6875 3.1875q1.765625 1.328125 3.8125 1.328125q1.359375 0 2.234375 -0.71875q0.875 -0.734375 0.875 -1.625q0 -0.734375 -0.546875 -1.34375q-0.5625 -0.59375 -2.15625 -1.15625l-3.609375 -1.3125q-2.328125 -0.84375 -3.234375 -1.84375q-0.90625 -1.0 -0.90625 -2.296875q0 -1.578125 1.46875 -2.78125q1.484375 -1.21875 3.765625 -1.21875q1.1875 0 2.125 0.3125q0.9375 0.296875 1.84375 1.0l0.421875 -0.9375zm28.25 -7.09375q2.984375 0 5.390625 1.4375q2.609375 1.546875 4.0 4.015625q1.40625 2.46875 1.40625 5.71875q0 5.03125 -3.125 8.203125q-3.125 3.171875 -7.96875 3.171875q-5.40625 0 -8.5625 -3.8125q-2.578125 -3.109375 -2.578125 -7.4375q0 -3.21875 1.453125 -5.765625q1.453125 -2.5625 4.125 -4.046875q2.671875 -1.484375 5.859375 -1.484375zm0 1.6875q-2.4375 0 -4.1875 1.125q-1.75 1.109375 -2.8125 3.28125q-1.046875 2.171875 -1.046875 5.359375q0 3.046875 1.03125 5.171875q1.046875 2.109375 2.796875 3.234375q1.75 1.125 3.9375 1.125q2.171875 0 3.84375 -1.09375q1.671875 -1.109375 2.765625 -3.46875q1.09375 -2.375 1.09375 -5.265625q0 -2.9375 -1.09375 -5.375q-0.9375 -2.09375 -2.484375 -3.09375q-1.546875 -1.0 -3.84375 -1.0zm12.484375 5.40625l7.15625 0l0 1.3125l-0.4375 0q-0.890625 0 -1.109375 0.0625q-0.3125 0.09375 -0.46875 0.296875q-0.15625 0.203125 -0.15625 0.484375q0 0.390625 0.34375 1.265625l3.5625 8.890625l3.453125 -8.890625q0.328125 -0.859375 0.328125 -1.25q0 -0.40625 -0.3125 -0.625q-0.3125 -0.234375 -1.125 -0.234375l-0.75 0l0 -1.3125l6.171875 0l0 1.3125q-0.640625 0.015625 -1.078125 0.203125q-0.421875 0.1875 -0.671875 0.484375q-0.234375 0.296875 -0.71875 1.421875l-4.984375 11.65625l-1.875 0l-5.015625 -11.921875q-0.3125 -0.734375 -0.6875 -1.203125q-0.25 -0.296875 -0.671875 -0.46875q-0.40625 -0.171875 -0.953125 -0.171875l0 -1.3125zm31.171875 11.046875l1.0 0.8125q-1.140625 1.359375 -2.21875 2.15625q-1.0625 0.796875 -2.015625 1.109375q-0.953125 0.328125 -2.234375 0.328125q-2.296875 0 -3.90625 -0.9375q-1.84375 -1.078125 -2.828125 -2.8125q-0.984375 -1.734375 -0.984375 -4.09375q0 -2.46875 0.953125 -4.21875q0.953125 -1.75 2.65625 -2.75q1.71875 -1.015625 3.96875 -1.015625q1.671875 0 2.90625 0.53125q1.234375 0.515625 2.09375 1.578125q0.859375 1.046875 1.25 2.40625q0.21875 0.796875 0.25 2.0625l-11.046875 0q-0.046875 0.765625 -0.046875 1.140625q0 1.96875 0.6875 3.515625q0.6875 1.53125 1.8125 2.265625q1.140625 0.71875 2.578125 0.71875q1.21875 0 2.359375 -0.5625q1.140625 -0.578125 2.765625 -2.234375zm-2.0 -6.3125q-0.234375 -1.4375 -0.671875 -2.125q-0.421875 -0.6875 -1.21875 -1.09375q-0.78125 -0.40625 -1.765625 -0.40625q-0.984375 0 -1.84375 0.40625q-0.859375 0.40625 -1.4375 1.125q-0.5625 0.71875 -0.984375 2.09375l7.921875 0zm5.234375 -2.5l0 -1.28125q1.140625 -0.09375 2.03125 -0.375q0.890625 -0.296875 2.03125 -0.953125l1.171875 0l0 2.953125q1.109375 -1.359375 2.578125 -2.15625q1.46875 -0.796875 2.640625 -0.796875q1.15625 0 1.828125 0.546875q0.671875 0.546875 0.671875 1.328125q0 0.5625 -0.453125 1.0q-0.4375 0.421875 -1.0625 0.421875q-0.28125 0 -0.484375 -0.078125q-0.203125 -0.078125 -0.59375 -0.34375q-0.859375 -0.5625 -1.4375 -0.5625q-0.78125 0 -1.71875 0.65625q-1.1875 0.84375 -1.859375 1.65625l0 7.203125q0 0.9375 0.09375 1.28125q0.109375 0.328125 0.34375 0.578125q0.234375 0.234375 0.578125 0.34375q0.34375 0.109375 1.203125 0.109375l0.515625 0l0 1.3125l-8.078125 0l0 -1.3125l0.671875 0q0.953125 0 1.25 -0.171875q0.40625 -0.234375 0.59375 -0.640625q0.203125 -0.421875 0.203125 -1.5l0 -9.21875l-2.71875 0zm25.140625 -9.6875l1.09375 0l0.15625 0.734375l13.375 0l0.125 -0.734375l1.140625 0l2.296875 6.40625l-1.40625 0.5q-1.015625 -2.5625 -2.40625 -3.59375q-1.390625 -1.046875 -3.5625 -1.046875q-0.90625 0 -1.078125 0.078125q-0.171875 0.0625 -0.25 0.234375q-0.0625 0.171875 -0.0625 1.09375l0 15.125q0 1.078125 0.109375 1.453125q0.125 0.375 0.34375 0.578125q0.21875 0.203125 0.59375 0.296875q0.390625 0.078125 1.71875 0.09375l0 1.3125l-8.40625 0l0 -1.3125q1.390625 -0.015625 1.703125 -0.09375q0.546875 -0.15625 0.78125 -0.59375q0.234375 -0.4375 0.234375 -1.609375l0 -15.453125q0 -0.71875 -0.078125 -0.875q-0.0625 -0.15625 -0.265625 -0.234375q-0.1875 -0.09375 -0.796875 -0.09375q-1.703125 0 -2.734375 0.4375q-1.015625 0.4375 -1.921875 1.484375q-0.90625 1.046875 -1.546875 2.71875l-1.40625 -0.5l2.25 -6.40625zm22.90625 0.03125q0.75 0 1.28125 0.53125q0.53125 0.515625 0.53125 1.265625q0 0.75 -0.53125 1.28125q-0.53125 0.53125 -1.28125 0.53125q-0.75 0 -1.28125 -0.53125q-0.53125 -0.53125 -0.53125 -1.28125q0 -0.75 0.53125 -1.265625q0.53125 -0.53125 1.28125 -0.53125zm-3.984375 9.671875l0 -1.296875q1.296875 -0.15625 2.171875 -0.4375q0.890625 -0.28125 2.015625 -0.890625l1.140625 0l0 12.53125q0 0.65625 0.1875 0.984375q0.1875 0.328125 0.515625 0.484375q0.34375 0.140625 1.234375 0.140625l0.734375 0l0 1.3125l-8.0 0l0 -1.3125l0.640625 0q1.046875 0 1.40625 -0.1875q0.359375 -0.1875 0.5 -0.53125q0.15625 -0.34375 0.15625 -1.609375l0 -9.1875l-2.703125 0zm9.6875 0l0 -1.328125q1.171875 -0.109375 2.046875 -0.375q0.875 -0.28125 2.0 -0.921875l1.15625 0l0 2.625q1.78125 -1.40625 2.78125 -1.890625q1.53125 -0.734375 2.921875 -0.734375q0.953125 0 1.859375 0.359375q0.921875 0.34375 1.46875 0.859375q0.5625 0.515625 0.953125 1.40625q1.640625 -1.453125 3.03125 -2.03125q1.40625 -0.59375 2.84375 -0.59375q1.375 0 2.421875 0.578125q1.0625 0.5625 1.53125 1.421875q0.484375 0.859375 0.484375 2.515625l0 7.25q0 1.140625 0.046875 1.328125q0.078125 0.296875 0.328125 0.5625q0.265625 0.265625 0.59375 0.375q0.328125 0.109375 1.21875 0.109375l0.5 0l0 1.3125l-7.859375 0l0 -1.3125q1.34375 -0.015625 1.734375 -0.1875q0.40625 -0.1875 0.59375 -0.59375q0.203125 -0.40625 0.203125 -1.59375l0 -6.890625q0 -1.3125 -0.234375 -1.8125q-0.234375 -0.5 -0.84375 -0.828125q-0.59375 -0.34375 -1.484375 -0.34375q-1.109375 0 -2.328125 0.59375q-1.625 0.8125 -2.5625 1.828125l0 7.453125q0 1.078125 0.09375 1.421875q0.109375 0.328125 0.34375 0.5625q0.25 0.21875 0.5625 0.3125q0.328125 0.078125 1.5625 0.078125l0 1.3125l-7.703125 0l0 -1.3125l0.4375 0q0.921875 0 1.296875 -0.21875q0.390625 -0.21875 0.609375 -0.671875q0.15625 -0.359375 0.15625 -1.484375l0 -6.65625q0 -1.46875 -0.234375 -1.984375q-0.21875 -0.515625 -0.859375 -0.875q-0.640625 -0.359375 -1.5 -0.359375q-1.015625 0 -2.046875 0.5q-1.53125 0.734375 -2.8125 1.921875l0 8.03125q0 0.71875 0.1875 1.0625q0.203125 0.328125 0.625 0.53125q0.421875 0.203125 1.15625 0.203125l0.578125 0l0 1.3125l-7.859375 0l0 -1.3125l0.421875 0q1.078125 0 1.421875 -0.171875q0.5 -0.234375 0.71875 -0.75q0.125 -0.28125 0.125 -1.453125l0 -9.140625l-2.6875 0zm43.484375 8.796875l1.0 0.8125q-1.140625 1.359375 -2.21875 2.15625q-1.0625 0.796875 -2.015625 1.109375q-0.953125 0.328125 -2.234375 0.328125q-2.296875 0 -3.90625 -0.9375q-1.84375 -1.078125 -2.828125 -2.8125q-0.984375 -1.734375 -0.984375 -4.09375q0 -2.46875 0.953125 -4.21875q0.953125 -1.75 2.65625 -2.75q1.71875 -1.015625 3.96875 -1.015625q1.671875 0 2.90625 0.53125q1.234375 0.515625 2.09375 1.578125q0.859375 1.046875 1.25 2.40625q0.21875 0.796875 0.25 2.0625l-11.046875 0q-0.046875 0.765625 -0.046875 1.140625q0 1.96875 0.6875 3.515625q0.6875 1.53125 1.8125 2.265625q1.140625 0.71875 2.578125 0.71875q1.21875 0 2.359375 -0.5625q1.140625 -0.578125 2.765625 -2.234375zm-2.0 -6.3125q-0.234375 -1.4375 -0.671875 -2.125q-0.421875 -0.6875 -1.21875 -1.09375q-0.78125 -0.40625 -1.765625 -0.40625q-0.984375 0 -1.84375 0.40625q-0.859375 0.40625 -1.4375 1.125q-0.5625 0.71875 -0.984375 2.09375l7.921875 0z" fill-rule="nonzero"/><path fill="#000000" fill-opacity="0.0" d="m592.14435 462.80316l425.22833 0l0 35.18109l-425.22833 0z" fill-rule="evenodd"/><path fill="#000000" d="m763.7976 470.31683l1.125 0l1.984375 7.265625l-1.453125 0.40625q-1.171875 -2.515625 -1.78125 -3.375q-1.0 -1.390625 -2.5 -2.203125q-1.484375 -0.8125 -3.28125 -0.8125q-2.109375 0 -3.890625 1.140625q-1.765625 1.125 -2.875 3.3125q-1.09375 2.1875 -1.09375 4.921875q0 2.8125 1.109375 5.015625q1.125 2.203125 3.03125 3.390625q1.90625 1.1875 4.109375 1.1875q2.078125 0 4.25 -1.1875q2.171875 -1.1875 3.765625 -3.328125l1.25 0.859375q-0.96875 1.4375 -2.09375 2.4375q-1.78125 1.609375 -3.703125 2.375q-1.921875 0.765625 -4.21875 0.765625q-5.078125 0 -8.25 -3.765625q-2.625 -3.125 -2.625 -7.4375q0 -3.171875 1.453125 -5.734375q1.453125 -2.578125 4.0 -4.09375q2.5625 -1.515625 5.515625 -1.515625q1.578125 0 2.921875 0.4375q1.359375 0.421875 2.75 1.375l0.5 -1.4375zm5.109375 6.71875l5.921875 -0.234375l0 10.0625q0 1.328125 0.359375 2.109375q0.375 0.78125 1.125 1.21875q0.765625 0.421875 1.78125 0.421875q1.25 0 2.828125 -0.671875q1.59375 -0.671875 3.171875 -2.0l0 -7.28125q0 -1.15625 -0.171875 -1.515625q-0.171875 -0.359375 -0.609375 -0.578125q-0.4375 -0.21875 -1.375 -0.21875l-1.140625 0l0 -1.3125l5.921875 -0.234375l0 11.65625q0 1.125 0.1875 1.5625q0.1875 0.421875 0.546875 0.609375q0.375 0.171875 1.484375 0.171875l0.484375 0l0 1.3125l-5.1875 0.265625l0 -2.890625q-2.140625 1.703125 -3.734375 2.359375q-1.59375 0.640625 -3.234375 0.640625q-1.21875 0 -2.125 -0.328125q-0.890625 -0.328125 -1.578125 -0.984375q-0.671875 -0.65625 -1.03125 -1.578125q-0.359375 -0.921875 -0.359375 -1.96875l0 -7.109375q0 -0.953125 -0.171875 -1.328125q-0.171875 -0.390625 -0.578125 -0.609375q-0.390625 -0.234375 -1.078125 -0.234375l-1.4375 0l0 -1.3125zm22.4375 -5.25l0 -1.28125q2.125 -0.15625 4.140625 -1.3125l1.15625 0l0 19.234375q0 1.21875 0.15625 1.53125q0.203125 0.4375 0.59375 0.640625q0.390625 0.203125 1.5 0.203125l0.5 0l0 1.3125l-8.046875 0l0 -1.3125l0.8125 0q0.765625 0 1.140625 -0.234375q0.390625 -0.234375 0.546875 -0.640625q0.171875 -0.40625 0.171875 -1.625l0 -16.515625l-2.671875 0zm13.875 -0.0625l1.109375 0l0 5.3125l4.640625 0l0 1.5625l-4.640625 0l0 9.421875q0 1.203125 0.203125 1.71875q0.21875 0.515625 0.71875 0.84375q0.515625 0.328125 1.140625 0.328125q1.484375 0 3.28125 -1.328125l0 1.515625q-2.046875 1.390625 -4.140625 1.390625q-1.1875 0 -2.15625 -0.53125q-0.953125 -0.53125 -1.3125 -1.25q-0.34375 -0.71875 -0.34375 -2.5l0 -9.609375l-2.734375 0l0 -1.3125q1.3125 -0.296875 2.109375 -0.921875q0.8125 -0.625 1.3125 -1.625q0.5 -1.0 0.8125 -3.015625zm7.203125 5.3125l5.921875 -0.234375l0 10.0625q0 1.328125 0.359375 2.109375q0.375 0.78125 1.125 1.21875q0.765625 0.421875 1.78125 0.421875q1.25 0 2.828125 -0.671875q1.59375 -0.671875 3.171875 -2.0l0 -7.28125q0 -1.15625 -0.171875 -1.515625q-0.171875 -0.359375 -0.609375 -0.578125q-0.4375 -0.21875 -1.375 -0.21875l-1.140625 0l0 -1.3125l5.921875 -0.234375l0 11.65625q0 1.125 0.1875 1.5625q0.1875 0.421875 0.546875 0.609375q0.375 0.171875 1.484375 0.171875l0.484375 0l0 1.3125l-5.1875 0.265625l0 -2.890625q-2.140625 1.703125 -3.734375 2.359375q-1.59375 0.640625 -3.234375 0.640625q-1.21875 0 -2.125 -0.328125q-0.890625 -0.328125 -1.578125 -0.984375q-0.671875 -0.65625 -1.03125 -1.578125q-0.359375 -0.921875 -0.359375 -1.96875l0 -7.109375q0 -0.953125 -0.171875 -1.328125q-0.171875 -0.390625 -0.578125 -0.609375q-0.390625 -0.234375 -1.078125 -0.234375l-1.4375 0l0 -1.3125zm22.578125 2.234375l0 -1.28125q1.140625 -0.09375 2.03125 -0.375q0.890625 -0.296875 2.03125 -0.953125l1.171875 0l0 2.953125q1.109375 -1.359375 2.578125 -2.15625q1.46875 -0.796875 2.640625 -0.796875q1.15625 0 1.828125 0.546875q0.671875 0.546875 0.671875 1.328125q0 0.5625 -0.453125 1.0q-0.4375 0.421875 -1.0625 0.421875q-0.28125 0 -0.484375 -0.078125q-0.203125 -0.078125 -0.59375 -0.34375q-0.859375 -0.5625 -1.4375 -0.5625q-0.78125 0 -1.71875 0.65625q-1.1875 0.84375 -1.859375 1.65625l0 7.203125q0 0.9375 0.09375 1.28125q0.109375 0.328125 0.34375 0.578125q0.234375 0.234375 0.578125 0.34375q0.34375 0.109375 1.203125 0.109375l0.515625 0l0 1.3125l-8.078125 0l0 -1.3125l0.671875 0q0.953125 0 1.25 -0.171875q0.40625 -0.234375 0.59375 -0.640625q0.203125 -0.421875 0.203125 -1.5l0 -9.21875l-2.71875 0zm27.484375 8.8125l1.0 0.8125q-1.140625 1.359375 -2.21875 2.15625q-1.0625 0.796875 -2.015625 1.109375q-0.953125 0.328125 -2.234375 0.328125q-2.296875 0 -3.90625 -0.9375q-1.84375 -1.078125 -2.828125 -2.8125q-0.984375 -1.734375 -0.984375 -4.09375q0 -2.46875 0.953125 -4.21875q0.953125 -1.75 2.65625 -2.75q1.71875 -1.015625 3.96875 -1.015625q1.671875 0 2.90625 0.53125q1.234375 0.515625 2.09375 1.578125q0.859375 1.046875 1.25 2.40625q0.21875 0.796875 0.25 2.0625l-11.046875 0q-0.046875 0.765625 -0.046875 1.140625q0 1.96875 0.6875 3.515625q0.6875 1.53125 1.8125 2.265625q1.140625 0.71875 2.578125 0.71875q1.21875 0 2.359375 -0.5625q1.140625 -0.578125 2.765625 -2.234375zm-2.0 -6.3125q-0.234375 -1.4375 -0.671875 -2.125q-0.421875 -0.6875 -1.21875 -1.09375q-0.78125 -0.40625 -1.765625 -0.40625q-0.984375 0 -1.84375 0.40625q-0.859375 0.40625 -1.4375 1.125q-0.5625 0.71875 -0.984375 2.09375l7.921875 0z" fill-rule="nonzero"/></g>
<style xmlns="http://www.w3.org/2000/svg">
    @keyframes alternateUp {
        50% {transform:translateY(20px);}
    }
    @keyframes alternateDown {
        50% {transform:translateY(-20px);}
    }
    @keyframes alternateLeft {
        50% {transform:translateX(20px);}
    }
    @keyframes alternateRight {
        50% {transform:translateX(-20px);}
    }
</style>
</svg>