<svg xmlns:xlink="http://www.w3.org/1999/xlink" xmlns="http://www.w3.org/2000/svg" version="1.1" viewBox="0.0 0.0 960.0 540.0" fill="none" stroke="none" stroke-linecap="square" stroke-miterlimit="10"><clipPath id="g64163215f9_0_84.0"><path d="m0 0l960.0 0l0 540.0l-960.0 0l0 -540.0z" clip-rule="nonzero"/></clipPath><g clip-path="url(#g64163215f9_0_84.0)"><path fill="#ffffff" d="m0 0l960.0 0l0 540.0l-960.0 0z" fill-rule="evenodd"/><path fill="#cccccc" d="m977.8911 280.8498l-1012.5039 -225.22835l7.0236225 -31.622046l1012.5039 225.22835z" fill-rule="evenodd"/><path stroke="#cccccc" stroke-width="1.0" stroke-linejoin="round" stroke-linecap="butt" d="m977.8911 280.8498l-1012.5039 -225.22835l7.0236225 -31.622046l1012.5039 225.22835z" fill-rule="evenodd"/><path fill="#cccccc" d="m977.89264 516.0008l-1012.50397 -225.22833l7.0236225 -31.62204l1012.50397 225.22836z" fill-rule="evenodd"/><path stroke="#cccccc" stroke-width="1.0" stroke-linejoin="round" stroke-linecap="butt" d="m977.89264 516.0008l-1012.50397 -225.22833l7.0236225 -31.62204l1012.50397 225.22836z" fill-rule="evenodd"/><path fill="#000000" fill-opacity="0.0" d="m0 211.46457l960.0 0l0 117.07086l-960.0 0z" fill-rule="evenodd"/><path fill="#000000" d="m238.39844 244.29999l2.8125 0l4.96875 18.171875l-3.640625 1.015625q-2.921875 -6.296875 -4.453125 -8.4375q-2.5 -3.484375 -6.234375 -5.515625q-3.71875 -2.03125 -8.21875 -2.03125q-5.265625 0 -9.703125 2.84375q-4.4375 2.828125 -7.1875 8.296875q-2.75 5.46875 -2.75 12.296875q0 7.03125 2.78125 12.546875q2.796875 5.5 7.5625 8.46875q4.765625 2.96875 10.28125 2.96875q5.1875 0 10.609375 -2.96875q5.4375 -2.96875 9.421875 -8.3125l3.125 2.140625q-2.421875 3.59375 -5.234375 6.09375q-4.453125 4.03125 -9.265625 5.953125q-4.796875 1.90625 -10.53125 1.90625q-12.703125 0 -20.625 -9.421875q-6.5625 -7.8125 -6.5625 -18.59375q0 -7.921875 3.625 -14.34375q3.640625 -6.4375 10.015625 -10.21875q6.390625 -3.796875 13.78125 -3.796875q3.9375 0 7.3125 1.078125q3.390625 1.078125 6.859375 3.453125l1.25 -3.59375zm12.7734375 16.796875l14.8125 -0.578125l0 25.15625q0 3.3125 0.90625 5.265625q0.921875 1.953125 2.8125 3.03125q1.90625 1.078125 4.4375 1.078125q3.125 0 7.09375 -1.671875q3.96875 -1.6875 7.90625 -5.015625l0 -18.203125q0 -2.890625 -0.4375 -3.78125q-0.421875 -0.90625 -1.515625 -1.453125q-1.09375 -0.546875 -3.4375 -0.546875l-2.84375 0l0 -3.28125l14.796875 -0.578125l0 29.140625q0 2.8125 0.46875 3.890625q0.46875 1.0625 1.390625 1.515625q0.921875 0.453125 3.6875 0.453125l1.21875 0l0 3.28125l-12.96875 0.671875l0 -7.234375q-5.359375 4.25 -9.34375 5.875q-3.984375 1.625 -8.078125 1.625q-3.046875 0 -5.296875 -0.828125q-2.25 -0.8125 -3.953125 -2.453125q-1.6875 -1.640625 -2.59375 -3.9375q-0.890625 -2.3125 -0.890625 -4.9375l0 -17.765625q0 -2.390625 -0.4375 -3.34375q-0.421875 -0.953125 -1.421875 -1.515625q-1.0 -0.578125 -2.71875 -0.578125l-3.59375 0l0 -3.28125zm56.101562 -13.125l0 -3.203125q5.3125 -0.390625 10.34375 -3.28125l2.890625 0l0 48.09375q0 3.046875 0.390625 3.828125q0.515625 1.09375 1.484375 1.609375q0.984375 0.5 3.75 0.5l1.25 0l0 3.28125l-20.109375 0l0 -3.28125l2.03125 0q1.90625 0 2.859375 -0.578125q0.96875 -0.59375 1.375 -1.609375q0.40625 -1.015625 0.40625 -4.0625l0 -41.296875l-6.671875 0zm34.6875 -0.15625l2.765625 0l0 13.28125l11.609375 0l0 3.90625l-11.609375 0l0 23.5625q0 3.0 0.53125 4.296875q0.53125 1.28125 1.796875 2.109375q1.265625 0.8125 2.828125 0.8125q3.71875 0 8.203125 -3.3125l0 3.78125q-5.109375 3.484375 -10.34375 3.484375q-2.96875 0 -5.375 -1.328125q-2.40625 -1.328125 -3.28125 -3.125q-0.875 -1.796875 -0.875 -6.25l0 -24.03125l-6.84375 0l0 -3.28125q3.28125 -0.734375 5.296875 -2.296875q2.015625 -1.5625 3.265625 -4.0625q1.25 -2.5 2.03125 -7.546875zm18.0 13.28125l14.8125 -0.578125l0 25.15625q0 3.3125 0.90625 5.265625q0.921875 1.953125 2.8125 3.03125q1.90625 1.078125 4.4375 1.078125q3.125 0 7.09375 -1.671875q3.96875 -1.6875 7.90625 -5.015625l0 -18.203125q0 -2.890625 -0.4375 -3.78125q-0.421875 -0.90625 -1.515625 -1.453125q-1.09375 -0.546875 -3.4375 -0.546875l-2.84375 0l0 -3.28125l14.796875 -0.578125l0 29.140625q0 2.8125 0.46875 3.890625q0.46875 1.0625 1.390625 1.515625q0.921875 0.453125 3.6875 0.453125l1.21875 0l0 3.28125l-12.96875 0.671875l0 -7.234375q-5.359375 4.25 -9.34375 5.875q-3.984375 1.625 -8.078125 1.625q-3.046875 0 -5.296875 -0.828125q-2.25 -0.8125 -3.953125 -2.453125q-1.6875 -1.640625 -2.59375 -3.9375q-0.890625 -2.3125 -0.890625 -4.9375l0 -17.765625q0 -2.390625 -0.4375 -3.34375q-0.421875 -0.953125 -1.421875 -1.515625q-1.0 -0.578125 -2.71875 -0.578125l-3.59375 0l0 -3.28125zm56.445312 5.59375l0 -3.203125q2.859375 -0.234375 5.078125 -0.953125q2.234375 -0.734375 5.078125 -2.375l2.9375 0l0 7.390625q2.765625 -3.40625 6.4375 -5.390625q3.671875 -2.0 6.609375 -2.0q2.890625 0 4.5625 1.375q1.6875 1.359375 1.6875 3.3125q0 1.40625 -1.125 2.484375q-1.109375 1.078125 -2.671875 1.078125q-0.703125 0 -1.21875 -0.1875q-0.5 -0.203125 -1.46875 -0.875q-2.15625 -1.40625 -3.59375 -1.40625q-1.953125 0 -4.296875 1.640625q-2.96875 2.109375 -4.65625 4.140625l0 18.015625q0 2.34375 0.25 3.1875q0.265625 0.828125 0.84375 1.4375q0.59375 0.609375 1.453125 0.890625q0.859375 0.265625 3.0 0.265625l1.296875 0l0 3.28125l-20.203125 0l0 -3.28125l1.6875 0q2.375 0 3.125 -0.4375q1.015625 -0.578125 1.5 -1.609375q0.484375 -1.046875 0.484375 -3.734375l0 -23.046875l-6.796875 0zm63.367188 9.484375l0 -4.25q0 -4.34375 -2.421875 -6.1875q-2.421875 -1.859375 -6.84375 -1.859375q-2.1875 0 -3.828125 0.53125q-1.640625 0.515625 -2.640625 1.4375q-0.984375 0.921875 -1.453125 2.09375q-0.203125 0.421875 -0.9375 3.3125q-0.90625 3.515625 -3.640625 3.515625q-1.5625 0 -2.515625 -1.03125q-0.953125 -1.03125 -0.953125 -2.796875q0 -2.578125 1.90625 -5.046875q1.921875 -2.484375 5.84375 -4.109375q3.921875 -1.625 9.28125 -1.625q5.0 0 8.546875 1.546875q3.5625 1.546875 5.234375 4.4375q1.171875 1.984375 1.171875 7.265625l0 15.03125q0 3.203125 0.203125 4.1875q0.421875 1.671875 1.5 2.515625q1.078125 0.84375 2.796875 0.84375q1.796875 0 4.296875 -0.859375l0 3.390625q-3.25 0.953125 -5.828125 0.953125q-2.765625 0 -4.671875 -0.78125q-1.890625 -0.796875 -3.109375 -2.296875q-1.203125 -1.5 -1.546875 -3.578125q-4.6875 3.671875 -8.484375 5.171875q-3.78125 1.484375 -7.65625 1.484375q-5.390625 0 -8.75 -2.9375q-3.359375 -2.9375 -3.359375 -6.875q0 -2.390625 1.234375 -4.53125q1.234375 -2.15625 3.75 -3.796875q2.515625 -1.640625 7.90625 -2.890625q5.390625 -1.25 14.96875 -2.265625zm0 3.40625q-9.0625 1.328125 -11.21875 1.828125q-4.25 0.984375 -6.09375 2.15625q-1.828125 1.171875 -2.609375 2.515625q-0.78125 1.34375 -0.78125 2.875q0 1.515625 0.875 2.953125q0.875 1.421875 2.46875 2.25q1.609375 0.8125 3.40625 0.8125q2.546875 0 5.75 -1.203125q3.203125 -1.21875 8.203125 -4.734375l0 -9.453125zm17.890625 -31.609375l0 -3.203125q5.3125 -0.390625 10.34375 -3.28125l2.890625 0l0 48.09375q0 3.046875 0.390625 3.828125q0.515625 1.09375 1.484375 1.609375q0.984375 0.5 3.75 0.5l1.25 0l0 3.28125l-20.109375 0l0 -3.28125l2.03125 0q1.90625 0 2.859375 -0.578125q0.96875 -0.59375 1.375 -1.609375q0.40625 -1.015625 0.40625 -4.0625l0 -41.296875l-6.671875 0zm50.929688 -3.671875l44.296875 0l5.125 14.34375l-3.4375 1.28125q-1.296875 -3.515625 -2.828125 -5.515625q-1.515625 -2.015625 -3.640625 -3.421875q-2.125 -1.40625 -4.296875 -1.875q-2.171875 -0.46875 -7.828125 -0.46875l-13.203125 0l0 19.953125l6.5625 0q3.625 0 5.484375 -1.21875q1.859375 -1.234375 2.5625 -3.078125q0.546875 -1.359375 0.546875 -4.765625l0 -0.890625l3.828125 0l0 23.90625l-3.828125 0l0 -2.078125q0 -2.734375 -0.421875 -3.9375q-0.40625 -1.21875 -1.5 -2.28125q-1.09375 -1.078125 -2.359375 -1.46875q-1.265625 -0.390625 -4.3125 -0.390625l-6.5625 0l0 17.734375q0 2.765625 0.25 3.375q0.25 0.609375 0.828125 0.890625q0.59375 0.265625 3.21875 0.265625l8.15625 0q6.84375 0 10.6875 -1.640625q3.84375 -1.640625 6.78125 -5.046875q2.296875 -2.65625 4.40625 -7.5l3.5625 1.25l-6.09375 17.078125l-45.984375 0l0 -3.28125l1.5625 0q2.734375 0 3.40625 -0.359375q1.015625 -0.5 1.5625 -1.640625q0.390625 -0.78125 0.390625 -3.390625l0 -37.5q0 -2.546875 -0.515625 -3.40625q-0.5 -0.859375 -1.75 -1.328125q-0.671875 -0.265625 -4.65625 -0.265625l0 -3.328125zm53.789062 16.796875l17.890625 0l0 3.28125l-1.09375 0q-2.21875 0 -2.765625 0.15625q-0.78125 0.234375 -1.171875 0.75q-0.390625 0.5 -0.390625 1.203125q0 0.984375 0.859375 3.171875l8.90625 22.21875l8.625 -22.21875q0.828125 -2.15625 0.828125 -3.125q0 -1.015625 -0.78125 -1.578125q-0.78125 -0.578125 -2.8125 -0.578125l-1.875 0l0 -3.28125l15.421875 0l0 3.28125q-1.59375 0.046875 -2.671875 0.515625q-1.078125 0.46875 -1.6875 1.21875q-0.59375 0.734375 -1.8125 3.546875l-12.453125 29.140625l-4.6875 0l-12.546875 -29.8125q-0.78125 -1.828125 -1.71875 -3.0q-0.625 -0.75 -1.65625 -1.171875q-1.03125 -0.4375 -2.40625 -0.4375l0 -3.28125zm77.92969 27.625l2.5 2.03125q-2.84375 3.390625 -5.53125 5.390625q-2.671875 1.984375 -5.0625 2.78125q-2.375 0.8125 -5.578125 0.8125q-5.734375 0 -9.765625 -2.34375q-4.609375 -2.703125 -7.078125 -7.03125q-2.453125 -4.34375 -2.453125 -10.234375q0 -6.171875 2.375 -10.546875q2.390625 -4.375 6.671875 -6.890625q4.28125 -2.53125 9.90625 -2.53125q4.171875 0 7.25 1.3125q3.09375 1.3125 5.234375 3.953125q2.15625 2.625 3.140625 6.03125q0.546875 1.984375 0.625 5.15625l-27.625 0q-0.109375 1.90625 -0.109375 2.84375q0 4.921875 1.71875 8.78125q1.71875 3.84375 4.546875 5.65625q2.828125 1.8125 6.421875 1.8125q3.046875 0 5.890625 -1.421875q2.859375 -1.421875 6.921875 -5.5625zm-5.0 -15.78125q-0.578125 -3.59375 -1.65625 -5.3125q-1.078125 -1.71875 -3.046875 -2.734375q-1.96875 -1.015625 -4.4375 -1.015625q-2.453125 0 -4.609375 1.015625q-2.140625 1.015625 -3.578125 2.8125q-1.421875 1.796875 -2.46875 5.234375l19.796875 0zm13.2109375 -6.21875l0 -3.28125q3.46875 -0.390625 5.1875 -0.9375q1.71875 -0.546875 4.96875 -2.34375l2.8125 0l0 7.421875q5.15625 -4.328125 8.796875 -5.875q3.65625 -1.546875 7.40625 -1.546875q3.203125 0 5.65625 1.078125q2.46875 1.078125 4.015625 2.921875q1.546875 1.828125 2.046875 4.171875q0.3125 1.4375 0.3125 4.375l0 17.1875q0 3.078125 0.453125 3.96875q0.453125 0.875 1.421875 1.265625q0.984375 0.390625 4.8125 0.390625l0 3.28125l-20.125 0l0 -3.28125l1.09375 0q2.8125 0 3.828125 -0.5q1.015625 -0.515625 1.46875 -1.484375q0.453125 -0.984375 0.453125 -4.0l0 -14.375q0 -4.453125 -0.734375 -6.171875q-0.71875 -1.71875 -2.453125 -2.78125q-1.734375 -1.078125 -4.390625 -1.078125q-3.171875 0 -6.765625 1.625q-3.59375 1.609375 -6.953125 4.78125l0 18.0q0 3.046875 0.453125 4.0625q0.453125 1.015625 1.46875 1.53125q0.703125 0.390625 3.75 0.390625l1.125 0l0 3.28125l-20.109375 0l0 -3.28125l0.96875 0q2.890625 0 3.9375 -0.484375q1.0625 -0.5 1.5 -1.75q0.234375 -0.625 0.234375 -4.296875l0 -22.265625l-6.640625 0zm63.046875 -18.90625l2.765625 0l0 13.28125l11.609375 0l0 3.90625l-11.609375 0l0 23.5625q0 3.0 0.53125 4.296875q0.53125 1.28125 1.796875 2.109375q1.265625 0.8125 2.828125 0.8125q3.71875 0 8.203125 -3.3125l0 3.78125q-5.109375 3.484375 -10.34375 3.484375q-2.96875 0 -5.375 -1.328125q-2.40625 -1.328125 -3.28125 -3.125q-0.875 -1.796875 -0.875 -6.25l0 -24.03125l-6.84375 0l0 -3.28125q3.28125 -0.734375 5.296875 -2.296875q2.015625 -1.5625 3.265625 -4.0625q1.25 -2.5 2.03125 -7.546875z" fill-rule="nonzero"/><path fill="#000000" d="m960.0 175.92389l0 364.063l-96.0 0l0 -364.063z" fill-rule="evenodd"/><path stroke="#000000" stroke-width="1.0" stroke-linejoin="round" stroke-linecap="butt" d="m960.0 175.92389l0 364.063l-96.0 0l0 -364.063z" fill-rule="evenodd"/><path fill="#000000" d="m96.0 0l0 364.063l-96.0 0l0 -364.063z" fill-rule="evenodd"/><path stroke="#000000" stroke-width="1.0" stroke-linejoin="round" stroke-linecap="butt" d="m96.0 0l0 364.063l-96.0 0l0 -364.063z" fill-rule="evenodd"/><path xmlns="http://www.w3.org/2000/svg" fill="#000000" d="m-5.0157483E-4 414.32956l150.04724 0.06298828l0 32.37796l-150.04724 -0.06298828z" fill-rule="evenodd" style="animation-name:alternateRight;animation-duration:1s;animation-iteration-count:infinite;animation-timing-function:ease-in-out;animation-delay:0.5s;"/><path xmlns="http://www.w3.org/2000/svg" stroke="#000000" stroke-width="1.0" stroke-linejoin="round" stroke-linecap="butt" d="m-5.0157483E-4 414.32956l150.04724 0.06298828l0 32.37796l-150.04724 -0.06298828z" fill-rule="evenodd" style="animation-name:alternateRight;animation-duration:1s;animation-iteration-count:infinite;animation-timing-function:ease-in-out;animation-delay:0.5s;"/><path xmlns="http://www.w3.org/2000/svg" fill="#000000" d="m0.47737586 483.59113l79.43307 0.03149414l0 32.37793l-79.43307 -0.03149414z" fill-rule="evenodd" style="animation-name:alternateRight;animation-duration:1s;animation-iteration-count:infinite;animation-timing-function:ease-in-out;"/><path xmlns="http://www.w3.org/2000/svg" stroke="#000000" stroke-width="1.0" stroke-linejoin="round" stroke-linecap="butt" d="m0.47737586 483.59113l79.43307 0.03149414l0 32.37793l-79.43307 -0.03149414z" fill-rule="evenodd" style="animation-name:alternateRight;animation-duration:1s;animation-iteration-count:infinite;animation-timing-function:ease-in-out;"/><path xmlns="http://www.w3.org/2000/svg" fill="#000000" d="m959.9995 23.998846l-150.04724 0.062992096l0 32.377953l150.04724 -0.062992096z" fill-rule="evenodd" style="animation-name:alternateLeft;animation-duration:1s;animation-iteration-count:infinite;animation-timing-function:ease-in-out;"/><path xmlns="http://www.w3.org/2000/svg" stroke="#000000" stroke-width="1.0" stroke-linejoin="round" stroke-linecap="butt" d="m959.9995 23.998846l-150.04724 0.062992096l0 32.377953l150.04724 -0.062992096z" fill-rule="evenodd" style="animation-name:alternateLeft;animation-duration:1s;animation-iteration-count:infinite;animation-timing-function:ease-in-out;"/><path xmlns="http://www.w3.org/2000/svg" fill="#000000" d="m959.5216 93.26042l-79.433044 0.03149414l0 32.377953l79.433044 -0.03149414z" fill-rule="evenodd" style="animation-name:alternateLeft;animation-duration:1s;animation-iteration-count:infinite;animation-timing-function:ease-in-out;animation-delay:0.5s;"/><path xmlns="http://www.w3.org/2000/svg" stroke="#000000" stroke-width="1.0" stroke-linejoin="round" stroke-linecap="butt" d="m959.5216 93.26042l-79.433044 0.03149414l0 32.377953l79.433044 -0.03149414z" fill-rule="evenodd" style="animation-name:alternateLeft;animation-duration:1s;animation-iteration-count:infinite;animation-timing-function:ease-in-out;animation-delay:0.5s;"/></g>
<style xmlns="http://www.w3.org/2000/svg">
    @keyframes alternateUp {
        50% {transform:translateY(20px);}
    }
    @keyframes alternateDown {
        50% {transform:translateY(-20px);}
    }
    @keyframes alternateLeft {
        50% {transform:translateX(20px);}
    }
    @keyframes alternateRight {
        50% {transform:translateX(-20px);}
    }
</style>
</svg>