<svg xmlns:xlink="http://www.w3.org/1999/xlink" xmlns="http://www.w3.org/2000/svg" version="1.1" viewBox="0.0 0.0 960.0 540.0" fill="none" stroke="none" stroke-linecap="square" stroke-miterlimit="10"><clipPath id="g64feb5357a_0_0.0"><path d="m0 0l960.0 0l0 540.0l-960.0 0l0 -540.0z" clip-rule="nonzero"/></clipPath><g clip-path="url(#g64feb5357a_0_0.0)"><path fill="#ffffff" d="m0 0l960.0 0l0 540.0l-960.0 0z" fill-rule="evenodd"/><path fill="#cccccc" d="m35.470036 143.18361l534.3937 499.0551l-22.141724 23.748047l-534.3937 -499.0551z" fill-rule="evenodd"/><path stroke="#cccccc" stroke-width="1.0" stroke-linejoin="round" stroke-linecap="butt" d="m35.470036 143.18361l534.3937 499.0551l-22.141724 23.748047l-534.3937 -499.0551z" fill-rule="evenodd"/><path fill="#cccccc" d="m-38.615276 165.2716l534.3937 499.0551l-22.141724 23.748047l-534.3937 -499.0551z" fill-rule="evenodd"/><path stroke="#cccccc" stroke-width="1.0" stroke-linejoin="round" stroke-linecap="butt" d="m-38.615276 165.2716l534.3937 499.0551l-22.141724 23.748047l-534.3937 -499.0551z" fill-rule="evenodd"/><path fill="#000000" fill-opacity="0.0" d="m123.19423 178.32152l834.92914 0l0 169.6693l-834.92914 0z" fill-rule="evenodd"/><path fill="#000000" d="m207.06505 237.45616l2.8125 0l4.96875 18.171875l-3.640625 1.0156403q-2.921875 -6.2968903 -4.453125 -8.437515q-2.5 -3.484375 -6.234375 -5.515625q-3.71875 -2.03125 -8.21875 -2.03125q-5.265625 0 -9.703125 2.84375q-4.4375 2.828125 -7.1875 8.296875q-2.75 5.4687653 -2.75 12.29689q0 7.03125 2.78125 12.546875q2.796875 5.5 7.5625 8.46875q4.765625 2.96875 10.28125 2.96875q5.1875 0 10.609375 -2.96875q5.4375 -2.96875 9.421875 -8.3125l3.125 2.140625q-2.421875 3.59375 -5.234375 6.09375q-4.453125 4.03125 -9.265625 5.953125q-4.796875 1.90625 -10.53125 1.90625q-12.703125 0 -20.625 -9.421875q-6.5625 -7.8125 -6.5625 -18.59375q0 -7.921875 3.625 -14.343765q3.640625 -6.4375 10.015625 -10.21875q6.390625 -3.796875 13.78125 -3.796875q3.9375 0 7.3125 1.078125q3.390625 1.078125 6.859375 3.453125l1.25 -3.59375zm14.8828125 3.828125l0 -3.359375q3.796875 -0.5 5.90625 -1.1875q2.109375 -0.6875 4.40625 -2.09375l3.046875 0l0 25.82814q4.421875 -3.71875 8.359375 -5.4375153q3.953125 -1.71875 7.546875 -1.71875q5.2343597 0 8.624985 3.1250153q3.359375 3.125 3.359375 7.625l0 19.171875q0 2.859375 0.453125 3.734375q0.453125 0.875 1.5 1.296875q1.0625 0.40625 4.734375 0.40625l0 3.28125l-20.156235 0l0 -3.28125l1.484375 0q2.84375 0 3.734375 -0.453125q0.90625 -0.453125 1.3124847 -1.484375q0.421875 -1.03125 0.421875 -4.28125l0 -13.3125q0 -4.421875 -0.3125 -5.75q-0.59373474 -2.265625 -2.4374847 -3.625q-1.828125 -1.375 -4.671875 -1.375q-3.203125 0 -6.703125 1.59375q-3.5 1.578125 -7.25 4.734375l0 19.578125q0 2.1875 0.390625 2.9375q0.390625 0.734375 1.28125 1.09375q0.90625 0.34375 3.609375 0.34375l1.59375 0l0 3.28125l-20.234375 0l0 -3.28125l1.21875 0q2.84375 0 4.140625 -0.703125q0.703125 -0.359375 1.015625 -1.375q0.3125 -1.015625 0.3125 -5.625l0 -39.687515l-6.6875 0zm80.906235 28.04689l0 -4.25q0 -4.34375 -2.421875 -6.1875q-2.421875 -1.859375 -6.84375 -1.859375q-2.1875 0 -3.828125 0.53125q-1.640625 0.515625 -2.640625 1.4375q-0.984375 0.921875 -1.453125 2.09375q-0.203125 0.421875 -0.9375 3.3125q-0.90625 3.515625 -3.640625 3.515625q-1.5625 0 -2.515625 -1.03125q-0.953125 -1.03125 -0.953125 -2.796875q0 -2.578125 1.90625 -5.046875q1.921875 -2.484375 5.84375 -4.1093903q3.921875 -1.625 9.28125 -1.625q5.0 0 8.546875 1.546875q3.5625 1.5468903 5.234375 4.4375153q1.171875 1.984375 1.171875 7.265625l0 15.03125q0 3.203125 0.203125 4.1875q0.421875 1.671875 1.5 2.515625q1.078125 0.84375 2.796875 0.84375q1.796875 0 4.296875 -0.859375l0 3.390625q-3.25 0.953125 -5.828125 0.953125q-2.765625 0 -4.671875 -0.78125q-1.890625 -0.796875 -3.109375 -2.296875q-1.203125 -1.5 -1.546875 -3.578125q-4.6875 3.671875 -8.484375 5.171875q-3.78125 1.484375 -7.65625 1.484375q-5.390625 0 -8.75 -2.9375q-3.359375 -2.9375 -3.359375 -6.875q0 -2.390625 1.234375 -4.53125q1.234375 -2.15625 3.75 -3.796875q2.515625 -1.640625 7.90625 -2.890625q5.390625 -1.25 14.96875 -2.265625zm0 3.40625q-9.0625 1.328125 -11.21875 1.828125q-4.25 0.984375 -6.09375 2.15625q-1.828125 1.171875 -2.609375 2.515625q-0.78125 1.34375 -0.78125 2.875q0 1.515625 0.875 2.953125q0.875 1.421875 2.46875 2.25q1.609375 0.8125 3.40625 0.8125q2.546875 0 5.75 -1.203125q3.203125 -1.21875 8.203125 -4.734375l0 -9.453125zm18.359375 -12.859375l0 -3.28125q3.46875 -0.390625 5.1875 -0.93751526q1.71875 -0.546875 4.96875 -2.34375l2.8125 0l0 7.4218903q5.15625 -4.328125 8.796875 -5.8750153q3.65625 -1.546875 7.40625 -1.546875q3.203125 0 5.65625 1.078125q2.46875 1.078125 4.015625 2.9218903q1.546875 1.828125 2.046875 4.171875q0.3125 1.4375 0.3125 4.375l0 17.1875q0 3.078125 0.453125 3.96875q0.453125 0.875 1.421875 1.265625q0.984375 0.390625 4.8125 0.390625l0 3.28125l-20.125 0l0 -3.28125l1.09375 0q2.8125 0 3.828125 -0.5q1.015625 -0.515625 1.46875 -1.484375q0.453125 -0.984375 0.453125 -4.0l0 -14.375q0 -4.453125 -0.734375 -6.171875q-0.71875 -1.71875 -2.453125 -2.78125q-1.734375 -1.078125 -4.390625 -1.078125q-3.171875 0 -6.765625 1.625q-3.59375 1.609375 -6.953125 4.78125l0 18.0q0 3.046875 0.453125 4.0625q0.453125 1.015625 1.46875 1.53125q0.703125 0.390625 3.75 0.390625l1.125 0l0 3.28125l-20.109375 0l0 -3.28125l0.96875 0q2.890625 0 3.9375 -0.484375q1.0625 -0.5 1.5 -1.75q0.234375 -0.625 0.234375 -4.296875l0 -22.265625l-6.640625 0zm82.96875 -2.53125q1.75 -2.0781403 3.5625 -3.0468903q1.828125 -0.984375 3.34375 -0.984375q1.40625 0 2.359375 0.84375q0.96875 0.84375 0.96875 2.0468903q0 1.25 -0.859375 2.109375q-0.859375 0.859375 -2.1875 0.859375q-0.546875 0 -1.484375 -0.1875q-1.09375 -0.28125 -1.84375 -0.28125q-0.96875 0 -2.03125 0.90625q2.421875 2.921875 2.421875 6.875q0 5.390625 -4.53125 9.34375q-4.53125 3.9375 -11.4375 3.9375q-3.828125 0 -7.703125 -1.609375q-2.578125 1.84375 -2.921875 2.265625q-0.546875 0.671875 -0.546875 1.40625q0 1.140625 1.171875 1.875q1.484375 0.984375 5.859375 1.640625l11.28125 1.6875q3.75 0.578125 7.53125 1.953125q3.796875 1.359375 5.5 3.546875q1.703125 2.203125 1.703125 5.25q0 5.15625 -4.765625 8.234375q-6.0625 3.953125 -17.96875 3.953125q-6.25 0 -10.15625 -1.328125q-3.90625 -1.328125 -6.0625 -3.75q-1.5625 -1.765625 -1.5625 -3.640625q0 -2.421875 1.578125 -4.734375q1.59375 -2.296875 7.328125 -6.5625q-3.703125 -0.9375 -5.3125 -2.1875q-2.03125 -1.59375 -2.03125 -3.625q0 -1.015625 0.375 -1.890625q0.375 -0.890625 1.203125 -1.765625q0.84375 -0.875 3.078125 -2.4375q1.40625 -0.984375 1.984375 -1.453125q-2.84375 -2.03125 -4.296875 -4.546875q-1.4375 -2.515625 -1.4375 -5.53125q0 -4.953125 3.828125 -8.671875q4.640625 -4.5312653 12.53125 -4.5312653q3.515625 0 6.125 0.890625q2.625 0.875 5.40625 3.1406403zm-11.875 -0.390625q-3.828125 0 -6.484375 2.78125q-2.65625 2.765625 -2.65625 6.859375q0 2.734375 1.203125 4.953125q1.21875 2.203125 3.40625 3.46875q2.1875 1.265625 4.609375 1.265625q2.421875 0 4.625 -1.28125q2.203125 -1.296875 3.390625 -3.484375q1.203125 -2.1875 1.203125 -4.921875q0 -4.296875 -2.609375 -6.96875q-2.59375 -2.671875 -6.6875 -2.671875zm-6.21875 33.90625q-3.75 3.203125 -4.984375 5.1875q-1.21875 2.0 -1.21875 3.84375q0 1.5625 1.21875 3.015625q1.234375 1.46875 4.203125 2.40625q2.96875 0.9375 7.46875 0.9375q5.3125 0 9.109375 -1.15625q3.8125 -1.140625 5.453125 -2.9375q1.21875 -1.40625 1.21875 -3.328125q0 -1.640625 -1.0 -2.78125q-1.0 -1.125 -3.75 -1.96875q-2.75 -0.828125 -5.140625 -1.21875l-12.578125 -2.0zm64.53125 -8.984375l2.5 2.03125q-2.84375 3.390625 -5.53125 5.390625q-2.671875 1.984375 -5.0625 2.78125q-2.375 0.8125 -5.578125 0.8125q-5.734375 0 -9.765625 -2.34375q-4.609375 -2.703125 -7.078125 -7.03125q-2.453125 -4.34375 -2.453125 -10.234375q0 -6.171875 2.375 -10.546875q2.390625 -4.375 6.671875 -6.8906403q4.28125 -2.53125 9.90625 -2.53125q4.171875 0 7.25 1.3125q3.09375 1.3125 5.234375 3.9531403q2.15625 2.625 3.140625 6.03125q0.546875 1.984375 0.625 5.15625l-27.625 0q-0.109375 1.90625 -0.109375 2.84375q0 4.921875 1.71875 8.78125q1.71875 3.84375 4.546875 5.65625q2.828125 1.8125 6.421875 1.8125q3.046875 0 5.890625 -1.421875q2.859375 -1.421875 6.921875 -5.5625zm-5.0 -15.78125q-0.578125 -3.59375 -1.65625 -5.3125q-1.078125 -1.71875 -3.046875 -2.734375q-1.96875 -1.015625 -4.4375 -1.015625q-2.453125 0 -4.609375 1.015625q-2.140625 1.015625 -3.578125 2.8125q-1.421875 1.796875 -2.46875 5.234375l19.796875 0zm39.617188 -11.843765l2.734375 0l3.515625 11.95314l-3.515625 1.171875q-2.109375 -4.796875 -5.921875 -7.546875q-3.8125 -2.765625 -7.71875 -2.765625q-3.0 0 -4.875 1.46875q-1.875 1.46875 -1.875 3.375q0 1.796875 1.359375 3.09375q1.328125 1.328125 5.984375 3.0l7.609375 2.703125q6.453125 2.296875 8.796875 4.921875q2.296875 2.65625 2.296875 6.015625q0 2.84375 -1.71875 5.484375q-1.71875 2.640625 -4.984375 4.203125q-3.25 1.5625 -7.46875 1.5625q-6.5625 0 -11.25 -3.75l-0.828125 2.8125l-2.765625 0l-4.890625 -12.78125l3.5625 -1.40625q3.546875 5.625 6.71875 7.96875q4.40625 3.328125 9.53125 3.328125q3.390625 0 5.578125 -1.8125q2.1875 -1.828125 2.1875 -4.046875q0 -1.84375 -1.359375 -3.359375q-1.40625 -1.484375 -5.390625 -2.890625l-9.03125 -3.28125q-5.8125 -2.109375 -8.078125 -4.609375q-2.265625 -2.5 -2.265625 -5.75q0 -3.9375 3.6875 -6.96875q3.6875 -3.0312653 9.390625 -3.0312653q2.96875 0 5.3125 0.765625q2.34375 0.765625 4.609375 2.5156403l1.0625 -2.3437653zm70.62503 -17.734375q7.453125 0 13.46875 3.59375q6.53125 3.875 10.015625 10.046875q3.5 6.1718903 3.5 14.29689q0 12.578125 -7.8125 20.515625q-7.8125 7.921875 -19.921875 7.921875q-13.515625 0 -21.40625 -9.53125q-6.4375 -7.78125 -6.4375 -18.59375q0 -8.046875 3.625 -14.437515q3.640625 -6.390625 10.3125 -10.09375q6.6875 -3.71875 14.65625 -3.71875zm0 4.21875q-6.09375 0 -10.46875 2.796875q-4.375 2.796875 -7.015625 8.234375q-2.640625 5.4218903 -2.640625 13.39064q0 7.609375 2.59375 12.90625q2.609375 5.296875 6.984375 8.109375q4.375 2.8125 9.84375 2.8125q5.421875 0 9.59375 -2.75q4.1875 -2.765625 6.921875 -8.671875q2.734375 -5.921875 2.734375 -13.15625q0 -7.34375 -2.734375 -13.437515q-2.34375 -5.234375 -6.21875 -7.734375q-3.859375 -2.5 -9.59375 -2.5zm31.203125 13.515625l17.890625 0l0 3.2812653l-1.09375 0q-2.21875 0 -2.765625 0.15625q-0.78125 0.234375 -1.171875 0.75q-0.390625 0.5 -0.390625 1.203125q0 0.984375 0.859375 3.171875l8.90625 22.21875l8.625 -22.21875q0.828125 -2.15625 0.828125 -3.125q0 -1.015625 -0.78125 -1.578125q-0.78125 -0.578125 -2.8125 -0.578125l-1.875 0l0 -3.2812653l15.421875 0l0 3.2812653q-1.59375 0.046875 -2.671875 0.515625q-1.078125 0.46875 -1.6875 1.21875q-0.59375 0.734375 -1.8125 3.546875l-12.453125 29.140625l-4.6875 0l-12.546875 -29.8125q-0.78125 -1.828125 -1.71875 -3.0q-0.625 -0.75 -1.65625 -1.171875q-1.03125 -0.4375 -2.40625 -0.4375l0 -3.2812653zm77.92969 27.625015l2.5 2.03125q-2.84375 3.390625 -5.53125 5.390625q-2.671875 1.984375 -5.0625 2.78125q-2.375 0.8125 -5.578125 0.8125q-5.734375 0 -9.765625 -2.34375q-4.609375 -2.703125 -7.078125 -7.03125q-2.453125 -4.34375 -2.453125 -10.234375q0 -6.171875 2.375 -10.546875q2.390625 -4.375 6.671875 -6.8906403q4.28125 -2.53125 9.90625 -2.53125q4.171875 0 7.25 1.3125q3.09375 1.3125 5.234375 3.9531403q2.15625 2.625 3.140625 6.03125q0.546875 1.984375 0.625 5.15625l-27.625 0q-0.109375 1.90625 -0.109375 2.84375q0 4.921875 1.71875 8.78125q1.71875 3.84375 4.546875 5.65625q2.828125 1.8125 6.421875 1.8125q3.046875 0 5.890625 -1.421875q2.859375 -1.421875 6.921875 -5.5625zm-5.0 -15.78125q-0.578125 -3.59375 -1.65625 -5.3125q-1.078125 -1.71875 -3.046875 -2.734375q-1.96875 -1.015625 -4.4375 -1.015625q-2.453125 0 -4.609375 1.015625q-2.140625 1.015625 -3.578125 2.8125q-1.421875 1.796875 -2.46875 5.234375l19.796875 0zm13.0859375 -6.25l0 -3.203125q2.859375 -0.234375 5.078125 -0.95314026q2.234375 -0.734375 5.078125 -2.375l2.9375 0l0 7.3906403q2.765625 -3.40625 6.4375 -5.3906403q3.671875 -2.0 6.609375 -2.0q2.890625 0 4.5625 1.375q1.6875 1.3593903 1.6875 3.3125153q0 1.40625 -1.125 2.484375q-1.109375 1.078125 -2.671875 1.078125q-0.703125 0 -1.21875 -0.1875q-0.5 -0.203125 -1.46875 -0.875q-2.15625 -1.40625 -3.59375 -1.40625q-1.953125 0 -4.296875 1.640625q-2.96875 2.109375 -4.65625 4.140625l0 18.015625q0 2.34375 0.25 3.1875q0.265625 0.828125 0.84375 1.4375q0.59375 0.609375 1.453125 0.890625q0.859375 0.265625 3.0 0.265625l1.296875 0l0 3.28125l-20.203125 0l0 -3.28125l1.6875 0q2.375 0 3.125 -0.4375q1.015625 -0.578125 1.5 -1.609375q0.484375 -1.046875 0.484375 -3.734375l0 -23.046875l-6.796875 0zm62.859375 -24.218765l2.734375 0l0.390625 1.828125l33.4375 0l0.3125 -1.828125l2.84375 0l5.75 16.015625l-3.515625 1.25q-2.546875 -6.40625 -6.03125 -9.0q-3.46875 -2.609375 -8.890625 -2.609375q-2.265625 0 -2.703125 0.1875q-0.421875 0.171875 -0.609375 0.609375q-0.171875 0.421875 -0.171875 2.71875l0 37.812515q0 2.703125 0.296875 3.640625q0.296875 0.9375 0.84375 1.453125q0.546875 0.5 1.5 0.71875q0.953125 0.203125 4.28125 0.25l0 3.28125l-21.015625 0l0 -3.28125q3.46875 -0.046875 4.25 -0.234375q1.375 -0.390625 1.953125 -1.484375q0.59375 -1.09375 0.59375 -4.03125l0 -38.625015q0 -1.796875 -0.1875 -2.1875q-0.171875 -0.390625 -0.65625 -0.609375q-0.484375 -0.21875 -2.015625 -0.21875q-4.25 0 -6.8125 1.09375q-2.5625 1.09375 -4.828125 3.71875q-2.265625 2.609375 -3.859375 6.796875l-3.53125 -1.25l5.640625 -16.015625zm57.265625 0.078125q1.875 0 3.203125 1.3125q1.328125 1.296875 1.328125 3.171875q0 1.875 -1.328125 3.203125q-1.328125 1.328125 -3.203125 1.328125q-1.875 0 -3.203125 -1.328125q-1.328125 -1.328125 -1.328125 -3.203125q0 -1.875 1.328125 -3.171875q1.328125 -1.3125 3.203125 -1.3125zm-9.96875 24.17189l0 -3.234375q3.25 -0.390625 5.453125 -1.0937653q2.203125 -0.703125 5.015625 -2.234375l2.859375 0l0 31.32814q0 1.640625 0.46875 2.46875q0.46875 0.8125 1.296875 1.1875q0.84375 0.375 3.078125 0.375l1.828125 0l0 3.28125l-20.0 0l0 -3.28125l1.609375 0q2.609375 0 3.5 -0.46875q0.90625 -0.46875 1.28125 -1.328125q0.375 -0.859375 0.375 -4.03125l0 -22.96875l-6.765625 0zm24.21875 0l0 -3.3125q2.9375 -0.28125 5.125 -0.95314026q2.1875 -0.6875 5.0 -2.296875l2.890625 0l0 6.5625153q4.453125 -3.515625 6.953125 -4.7187653q3.828125 -1.84375 7.296875 -1.84375q2.390625 0 4.671875 0.890625q2.28125 0.875 3.671875 2.1718903q1.390625 1.28125 2.359375 3.5q4.109375 -3.625 7.59375 -5.0937653q3.5 -1.46875 7.09375 -1.46875q3.4375 0 6.078125 1.4375q2.640625 1.4218903 3.828125 3.5781403q1.1875 2.140625 1.1875 6.28125l0 18.125q0 2.84375 0.125 3.3125q0.1875 0.75 0.828125 1.421875q0.65625 0.65625 1.46875 0.9375q0.828125 0.265625 3.046875 0.265625l1.25 0l0 3.28125l-19.640625 0l0 -3.28125q3.359375 -0.046875 4.34375 -0.484375q1.0 -0.453125 1.484375 -1.46875q0.5 -1.015625 0.5 -3.984375l0 -17.234375q0 -3.28125 -0.59375 -4.53125q-0.578125 -1.25 -2.09375 -2.078125q-1.5 -0.84375 -3.71875 -0.84375q-2.78125 0 -5.828125 1.484375q-4.0625 2.03125 -6.40625 4.5625l0 18.640625q0 2.6875 0.25 3.53125q0.265625 0.84375 0.859375 1.40625q0.609375 0.5625 1.40625 0.78125q0.8125 0.21875 3.890625 0.21875l0 3.28125l-19.25 0l0 -3.28125l1.09375 0q2.296875 0 3.25 -0.546875q0.96875 -0.546875 1.515625 -1.6875q0.390625 -0.890625 0.390625 -3.703125l0 -16.640625q0 -3.671875 -0.578125 -4.953125q-0.5625 -1.296875 -2.171875 -2.1875q-1.59375 -0.90625 -3.734375 -0.90625q-2.546875 0 -5.125 1.25q-3.828125 1.828125 -7.03125 4.796875l0 20.078125q0 1.796875 0.484375 2.640625q0.5 0.84375 1.546875 1.359375q1.0625 0.5 2.890625 0.5l1.453125 0l0 3.28125l-19.65625 0l0 -3.28125l1.0625 0q2.6875 0 3.546875 -0.4375q1.25 -0.578125 1.796875 -1.875q0.3125 -0.703125 0.3125 -3.625l0 -22.859375l-6.71875 0zm108.71094 22.0l2.5 2.03125q-2.84375 3.390625 -5.53125 5.390625q-2.671875 1.984375 -5.0625 2.78125q-2.375 0.8125 -5.578125 0.8125q-5.734375 0 -9.765625 -2.34375q-4.609375 -2.703125 -7.078125 -7.03125q-2.453125 -4.34375 -2.453125 -10.234375q0 -6.171875 2.375 -10.546875q2.390625 -4.375 6.671875 -6.8906403q4.28125 -2.53125 9.90625 -2.53125q4.171875 0 7.25 1.3125q3.09375 1.3125 5.234375 3.9531403q2.15625 2.625 3.140625 6.03125q0.546875 1.984375 0.625 5.15625l-27.625 0q-0.109375 1.90625 -0.109375 2.84375q0 4.921875 1.71875 8.78125q1.71875 3.84375 4.546875 5.65625q2.828125 1.8125 6.421875 1.8125q3.046875 0 5.890625 -1.421875q2.859375 -1.421875 6.921875 -5.5625zm-5.0 -15.78125q-0.578125 -3.59375 -1.65625 -5.3125q-1.078125 -1.71875 -3.046875 -2.734375q-1.96875 -1.015625 -4.4375 -1.015625q-2.453125 0 -4.609375 1.015625q-2.140625 1.015625 -3.578125 2.8125q-1.421875 1.796875 -2.46875 5.234375l19.796875 0z" fill-rule="nonzero"/><path fill="#000000" d="m-1.8740157 275.42914l412.0 103.8251l0 101.529236l-412.0 -103.8251z" fill-rule="evenodd"/><path stroke="#000000" stroke-width="1.0" stroke-linejoin="round" stroke-linecap="butt" d="m-1.8740157 275.42914l412.0 103.8251l0 101.529236l-412.0 -103.8251z" fill-rule="evenodd"/><path fill="#000000" d="m410.12598 379.25854l551.74805 0l0 101.51181l-551.74805 0z" fill-rule="evenodd"/><path stroke="#000000" stroke-width="1.0" stroke-linejoin="round" stroke-linecap="butt" d="m410.12598 379.25854l551.74805 0l0 101.51181l-551.74805 0z" fill-rule="evenodd"/><path xmlns="http://www.w3.org/2000/svg" fill="#000000" d="m22.125984 188.11679l25.007874 0l0 150.07874l-25.007874 0z" fill-rule="evenodd" style="animation-name:alternateUp;animation-duration:1s;animation-iteration-count:infinite;animation-timing-function:ease-in-out;animation-delay:0.5s;"/><path xmlns="http://www.w3.org/2000/svg" stroke="#000000" stroke-width="1.0" stroke-linejoin="round" stroke-linecap="butt" d="m22.125984 188.11679l25.007874 0l0 150.07874l-25.007874 0z" fill-rule="evenodd" style="animation-name:alternateUp;animation-duration:1s;animation-iteration-count:infinite;animation-timing-function:ease-in-out;animation-delay:0.5s;"/><path xmlns="http://www.w3.org/2000/svg" fill="#000000" d="m74.908134 221.94357l25.007874 0l0 116.25195l-25.007874 0z" fill-rule="evenodd" style="animation-name:alternateUp;animation-duration:1s;animation-iteration-count:infinite;animation-timing-function:ease-in-out;"/><path xmlns="http://www.w3.org/2000/svg" stroke="#000000" stroke-width="1.0" stroke-linejoin="round" stroke-linecap="butt" d="m74.908134 221.94357l25.007874 0l0 116.25195l-25.007874 0z" fill-rule="evenodd" style="animation-name:alternateUp;animation-duration:1s;animation-iteration-count:infinite;animation-timing-function:ease-in-out;"/></g>
<style xmlns="http://www.w3.org/2000/svg">
    @keyframes alternateUp {
        50% {transform:translateY(20px);}
    }
    @keyframes alternateDown {
        50% {transform:translateY(-20px);}
    }
    @keyframes alternateLeft {
        50% {transform:translateX(20px);}
    }
    @keyframes alternateRight {
        50% {transform:translateX(-20px);}
    }
</style>
</svg>