<svg xmlns:xlink="http://www.w3.org/1999/xlink" xmlns="http://www.w3.org/2000/svg" version="1.1" viewBox="0.0 0.0 960.0 540.0" fill="none" stroke="none" stroke-linecap="square" stroke-miterlimit="10"><clipPath id="g6f6a03f5b4_0_12.0"><path d="m0 0l960.0 0l0 540.0l-960.0 0l0 -540.0z" clip-rule="nonzero"/></clipPath><g clip-path="url(#g6f6a03f5b4_0_12.0)"><path fill="#ffffff" d="m0 0l960.0 0l0 540.0l-960.0 0z" fill-rule="evenodd"/><path xmlns="http://www.w3.org/2000/svg" fill="#000000" d="m720.9767 193.35957l0 -25.007874l77.29138 0l0 25.007874z" fill-rule="evenodd" style="animation-name:alternateRight;animation-duration:1s;animation-iteration-count:infinite;animation-timing-function:ease-in-out;animation-delay:0.5s;"/><path xmlns="http://www.w3.org/2000/svg" stroke="#000000" stroke-width="1.0" stroke-linejoin="round" stroke-linecap="butt" d="m720.9767 193.35957l0 -25.007874l77.29138 0l0 25.007874z" fill-rule="evenodd" style="animation-name:alternateRight;animation-duration:1s;animation-iteration-count:infinite;animation-timing-function:ease-in-out;animation-delay:0.5s;"/><path xmlns="http://www.w3.org/2000/svg" fill="#000000" d="m720.9764 142.07874l0 -25.007866l115.590576 0l0 25.007866z" fill-rule="evenodd" style="animation-name:alternateRight;animation-duration:1s;animation-iteration-count:infinite;animation-timing-function:ease-in-out;"/><path xmlns="http://www.w3.org/2000/svg" stroke="#000000" stroke-width="1.0" stroke-linejoin="round" stroke-linecap="butt" d="m720.9764 142.07874l0 -25.007866l115.590576 0l0 25.007866z" fill-rule="evenodd" style="animation-name:alternateRight;animation-duration:1s;animation-iteration-count:infinite;animation-timing-function:ease-in-out;"/><path fill="#000000" fill-opacity="0.0" d="m0 0l960.0 0l0 117.07087l-960.0 0z" fill-rule="evenodd"/><path fill="#000000" d="m145.60547 32.835426l2.8125 0l4.96875 18.171875l-3.640625 1.015625q-2.921875 -6.296875 -4.453125 -8.4375q-2.5 -3.484375 -6.234375 -5.515625q-3.71875 -2.03125 -8.21875 -2.03125q-5.265625 0 -9.703125 2.84375q-4.4375 2.828125 -7.1875 8.296875q-2.75 5.46875 -2.75 12.296875q0 7.03125 2.78125 12.546875q2.796875 5.5 7.5625 8.46875q4.765625 2.96875 10.28125 2.96875q5.1875 0 10.609375 -2.96875q5.4375 -2.96875 9.421875 -8.3125l3.125 2.140625q-2.421875 3.59375 -5.234375 6.09375q-4.453125 4.03125 -9.265625 5.953125q-4.796875 1.90625 -10.53125 1.90625q-12.703125 0 -20.625 -9.421875q-6.5625 -7.8125 -6.5625 -18.59375q0 -7.921875 3.625 -14.34375q3.640625 -6.4375 10.015625 -10.21875q6.390625 -3.796875 13.78125 -3.796875q3.9375 0 7.3125 1.078125q3.390625 1.078125 6.859375 3.453125l1.25 -3.59375zm34.617188 15.859375q5.734375 0 9.9375 2.390625q4.203125 2.375 6.625 6.953125q2.421875 4.5625 2.421875 10.421875q0 5.859375 -2.484375 10.4375q-2.484375 4.5625 -6.765625 6.96875q-4.265625 2.40625 -10.203125 2.40625q-9.453125 0 -14.203125 -5.890625q-4.75 -5.90625 -4.75 -13.875q0 -5.828125 2.453125 -10.328125q2.46875 -4.515625 6.90625 -7.0q4.4375 -2.484375 10.0625 -2.484375zm-0.3125 3.796875q-4.453125 0 -7.546875 3.515625q-3.90625 4.375 -3.90625 12.734375q0 8.046875 3.328125 12.265625q3.0 3.75 8.15625 3.75q3.328125 0 5.921875 -1.75q2.59375 -1.765625 4.1875 -5.609375q1.609375 -3.859375 1.609375 -9.046875q0 -5.078125 -1.71875 -9.109375q-1.328125 -3.203125 -4.0 -4.96875q-2.671875 -1.78125 -6.03125 -1.78125zm25.304688 2.765625l0 -3.3125q2.9375 -0.28125 5.125 -0.953125q2.1875 -0.6875 5.0 -2.296875l2.890625 0l0 6.5625q4.453125 -3.515625 6.953125 -4.71875q3.828125 -1.84375 7.296875 -1.84375q2.390625 0 4.671875 0.890625q2.28125 0.875 3.671875 2.171875q1.390625 1.28125 2.359375 3.5q4.109375 -3.625 7.59375 -5.09375q3.5 -1.46875 7.09375 -1.46875q3.4375 0 6.078125 1.4375q2.640625 1.421875 3.828125 3.578125q1.1875 2.140625 1.1875 6.28125l0 18.125q0 2.84375 0.125 3.3125q0.1875 0.75 0.828125 1.421875q0.65625 0.65625 1.46875 0.9375q0.828125 0.265625 3.046875 0.265625l1.25 0l0 3.28125l-19.640625 0l0 -3.28125q3.359375 -0.046875 4.34375 -0.484375q1.0 -0.453125 1.484375 -1.46875q0.5 -1.015625 0.5 -3.984375l0 -17.234375q0 -3.28125 -0.59375 -4.53125q-0.578125 -1.25 -2.09375 -2.078125q-1.5 -0.84375 -3.71875 -0.84375q-2.78125 0 -5.828125 1.484375q-4.0625 2.03125 -6.40625 4.5625l0 18.640625q0 2.6875 0.25 3.53125q0.265625 0.84375 0.859375 1.40625q0.609375 0.5625 1.40625 0.78125q0.8125 0.21875 3.890625 0.21875l0 3.28125l-19.25 0l0 -3.28125l1.09375 0q2.296875 0 3.25 -0.546875q0.96875 -0.546875 1.515625 -1.6875q0.390625 -0.890625 0.390625 -3.703125l0 -16.640625q0 -3.671875 -0.578125 -4.953125q-0.5625 -1.296875 -2.171875 -2.1875q-1.59375 -0.90625 -3.734375 -0.90625q-2.546875 0 -5.125 1.25q-3.828125 1.828125 -7.03125 4.796875l0 20.078125q0 1.796875 0.484375 2.640625q0.5 0.84375 1.546875 1.359375q1.0625 0.5 2.890625 0.5l1.453125 0l0 3.28125l-19.65625 0l0 -3.28125l1.0625 0q2.6875 0 3.546875 -0.4375q1.25 -0.578125 1.796875 -1.875q0.3125 -0.703125 0.3125 -3.625l0 -22.859375l-6.71875 0zm75.19531 0l0 -3.3125q2.9375 -0.28125 5.125 -0.953125q2.1875 -0.6875 5.0 -2.296875l2.890625 0l0 6.5625q4.453125 -3.515625 6.953125 -4.71875q3.828125 -1.84375 7.296875 -1.84375q2.390625 0 4.671875 0.890625q2.28125 0.875 3.671875 2.171875q1.390625 1.28125 2.359375 3.5q4.109375 -3.625 7.59375 -5.09375q3.5 -1.46875 7.09375 -1.46875q3.4375 0 6.078125 1.4375q2.640625 1.421875 3.828125 3.578125q1.1875 2.140625 1.1875 6.28125l0 18.125q0 2.84375 0.125 3.3125q0.1875 0.75 0.828125 1.421875q0.65625 0.65625 1.46875 0.9375q0.828125 0.265625 3.046875 0.265625l1.25 0l0 3.28125l-19.640625 0l0 -3.28125q3.359375 -0.046875 4.34375 -0.484375q1.0 -0.453125 1.484375 -1.46875q0.5 -1.015625 0.5 -3.984375l0 -17.234375q0 -3.28125 -0.59375 -4.53125q-0.578125 -1.25 -2.09375 -2.078125q-1.5 -0.84375 -3.71875 -0.84375q-2.78125 0 -5.828125 1.484375q-4.0625 2.03125 -6.40625 4.5625l0 18.640625q0 2.6875 0.25 3.53125q0.265625 0.84375 0.859375 1.40625q0.609375 0.5625 1.40625 0.78125q0.8125 0.21875 3.890625 0.21875l0 3.28125l-19.25 0l0 -3.28125l1.09375 0q2.296875 0 3.25 -0.546875q0.96875 -0.546875 1.515625 -1.6875q0.390625 -0.890625 0.390625 -3.703125l0 -16.640625q0 -3.671875 -0.578125 -4.953125q-0.5625 -1.296875 -2.171875 -2.1875q-1.59375 -0.90625 -3.734375 -0.90625q-2.546875 0 -5.125 1.25q-3.828125 1.828125 -7.03125 4.796875l0 20.078125q0 1.796875 0.484375 2.640625q0.5 0.84375 1.546875 1.359375q1.0625 0.5 2.890625 0.5l1.453125 0l0 3.28125l-19.65625 0l0 -3.28125l1.0625 0q2.6875 0 3.546875 -0.4375q1.25 -0.578125 1.796875 -1.875q0.3125 -0.703125 0.3125 -3.625l0 -22.859375l-6.71875 0zm73.16406 -5.625l14.8125 -0.578125l0 25.15625q0 3.3125 0.90625 5.265625q0.921875 1.953125 2.8125 3.03125q1.90625 1.078125 4.4375 1.078125q3.125 0 7.09375 -1.671875q3.96875 -1.6875 7.90625 -5.015625l0 -18.203125q0 -2.890625 -0.4375 -3.78125q-0.421875 -0.90625 -1.515625 -1.453125q-1.09375 -0.546875 -3.4375 -0.546875l-2.84375 0l0 -3.28125l14.796875 -0.578125l0 29.140625q0 2.8125 0.46875 3.890625q0.46875 1.0625 1.390625 1.515625q0.921875 0.453125 3.6875 0.453125l1.21875 0l0 3.28125l-12.96875 0.671875l0 -7.234375q-5.359375 4.25 -9.34375 5.875q-3.984375 1.625 -8.078125 1.625q-3.046875 0 -5.296875 -0.828125q-2.25 -0.8125 -3.953125 -2.453125q-1.6875 -1.640625 -2.59375 -3.9375q-0.890625 -2.3125 -0.890625 -4.9375l0 -17.765625q0 -2.390625 -0.4375 -3.34375q-0.421875 -0.953125 -1.421875 -1.515625q-1.0 -0.578125 -2.71875 -0.578125l-3.59375 0l0 -3.28125zm56.570312 5.625l0 -3.28125q3.46875 -0.390625 5.1875 -0.9375q1.71875 -0.546875 4.96875 -2.34375l2.8125 0l0 7.421875q5.15625 -4.328125 8.796875 -5.875q3.65625 -1.546875 7.40625 -1.546875q3.203125 0 5.65625 1.078125q2.46875 1.078125 4.015625 2.921875q1.546875 1.828125 2.046875 4.171875q0.3125 1.4375 0.3125 4.375l0 17.1875q0 3.078125 0.453125 3.96875q0.453125 0.875 1.421875 1.265625q0.984375 0.390625 4.8125 0.390625l0 3.28125l-20.125 0l0 -3.28125l1.09375 0q2.8125 0 3.828125 -0.5q1.015625 -0.515625 1.46875 -1.484375q0.453125 -0.984375 0.453125 -4.0l0 -14.375q0 -4.453125 -0.734375 -6.171875q-0.71875 -1.71875 -2.453125 -2.78125q-1.734375 -1.078125 -4.390625 -1.078125q-3.171875 0 -6.765625 1.625q-3.59375 1.609375 -6.953125 4.78125l0 18.0q0 3.046875 0.453125 4.0625q0.453125 1.015625 1.46875 1.53125q0.703125 0.390625 3.75 0.390625l1.125 0l0 3.28125l-20.109375 0l0 -3.28125l0.96875 0q2.890625 0 3.9375 -0.484375q1.0625 -0.5 1.5 -1.75q0.234375 -0.625 0.234375 -4.296875l0 -22.265625l-6.640625 0zm62.421875 -24.171875q1.875 0 3.203125 1.3125q1.328125 1.296875 1.328125 3.171875q0 1.875 -1.328125 3.203125q-1.328125 1.328125 -3.203125 1.328125q-1.875 0 -3.203125 -1.328125q-1.328125 -1.328125 -1.328125 -3.203125q0 -1.875 1.328125 -3.171875q1.328125 -1.3125 3.203125 -1.3125zm-9.96875 24.171875l0 -3.234375q3.25 -0.390625 5.453125 -1.09375q2.203125 -0.703125 5.015625 -2.234375l2.859375 0l0 31.328125q0 1.640625 0.46875 2.46875q0.46875 0.8125 1.296875 1.1875q0.84375 0.375 3.078125 0.375l1.828125 0l0 3.28125l-20.0 0l0 -3.28125l1.609375 0q2.609375 0 3.5 -0.46875q0.90625 -0.46875 1.28125 -1.328125q0.375 -0.859375 0.375 -4.03125l0 -22.96875l-6.765625 0zm34.578125 -18.90625l2.765625 0l0 13.28125l11.609375 0l0 3.90625l-11.609375 0l0 23.5625q0 3.0 0.53125 4.296875q0.53125 1.28125 1.796875 2.109375q1.265625 0.8125 2.828125 0.8125q3.71875 0 8.203125 -3.3125l0 3.78125q-5.109375 3.484375 -10.34375 3.484375q-2.96875 0 -5.375 -1.328125q-2.40625 -1.328125 -3.28125 -3.125q-0.875 -1.796875 -0.875 -6.25l0 -24.03125l-6.84375 0l0 -3.28125q3.28125 -0.734375 5.296875 -2.296875q2.015625 -1.5625 3.265625 -4.0625q1.25 -2.5 2.03125 -7.546875zm16.78125 13.28125l19.0 0l0 3.28125l-1.5625 0q-2.234375 0 -2.65625 0.125q-0.515625 0.15625 -0.875 0.640625q-0.34375 0.484375 -0.34375 1.234375q0 1.046875 1.0625 3.546875l9.0625 21.296875l8.390625 -20.359375q1.484375 -3.59375 1.484375 -4.765625q0 -0.890625 -0.671875 -1.296875q-0.65625 -0.421875 -3.0 -0.421875l-1.828125 0l0 -3.28125l15.96875 0l0 3.28125l-0.9375 0q-2.34375 0 -3.046875 0.3125q-0.703125 0.3125 -1.375 1.28125q-0.65625 0.953125 -2.09375 4.34375l-14.34375 33.40625q-1.5625 3.59375 -3.484375 6.65625q-1.90625 3.078125 -4.796875 4.75q-2.890625 1.6875 -6.359375 1.6875q-4.03125 0 -6.453125 -1.84375q-2.078125 -1.5625 -2.078125 -3.90625q0 -1.4375 0.90625 -2.40625q0.90625 -0.953125 2.109375 -0.953125q0.9375 0 1.765625 0.390625q0.5 0.203125 2.109375 1.640625q1.953125 1.71875 2.75 2.109375q0.796875 0.390625 1.578125 0.390625q1.609375 0 3.171875 -1.09375q1.5625 -1.09375 2.65625 -3.078125q1.5625 -2.859375 2.578125 -5.359375l1.59375 -3.90625l-12.890625 -28.875q-1.359375 -3.046875 -2.296875 -4.09375q-0.9375 -1.0625 -1.875 -1.296875q-0.515625 -0.15625 -3.21875 -0.15625l0 -3.28125zm109.69531 -16.796875l2.8125 0l4.1875 16.796875l-3.59375 1.09375q-3.4375 -7.0625 -9.140625 -11.125q-4.6875 -3.40625 -10.390625 -3.40625q-3.4375 0 -6.171875 1.234375q-2.734375 1.234375 -4.109375 3.1875q-1.359375 1.953125 -1.359375 3.984375q0 1.828125 1.046875 3.546875q1.0625 1.71875 3.203125 3.03125q2.15625 1.3125 7.03125 2.75l10.203125 3.015625q1.875 0.546875 5.4375 2.109375q3.578125 1.5625 5.5625 3.296875q2.0 1.734375 3.125 4.265625q1.140625 2.515625 1.140625 5.4375q0 6.484375 -5.6875 11.359375q-5.671875 4.859375 -14.703125 4.859375q-4.640625 0 -8.3125 -1.34375q-3.671875 -1.359375 -7.9375 -4.796875l-1.796875 5.203125l-2.734375 0l-3.625 -19.578125l3.625 -0.734375q2.0 5.421875 5.296875 9.21875q3.296875 3.78125 7.296875 5.71875q4.015625 1.9375 8.15625 1.9375q5.625 0 9.84375 -3.40625q3.515625 -2.84375 3.515625 -6.71875q0 -3.546875 -2.546875 -5.8125q-2.578125 -2.265625 -9.21875 -4.21875l-9.765625 -2.8125q-8.203125 -2.390625 -11.5625 -6.09375q-3.359375 -3.71875 -3.359375 -8.515625q0 -3.75 2.1875 -6.9375q2.1875 -3.1875 6.71875 -5.328125q4.53125 -2.15625 9.921875 -2.15625q4.53125 0 8.671875 1.5625q2.9375 1.09375 5.390625 3.125l1.640625 -3.75zm48.671875 44.421875l2.5 2.03125q-2.84375 3.390625 -5.53125 5.390625q-2.671875 1.984375 -5.0625 2.78125q-2.375 0.8125 -5.578125 0.8125q-5.734375 0 -9.765625 -2.34375q-4.609375 -2.703125 -7.078125 -7.03125q-2.453125 -4.34375 -2.453125 -10.234375q0 -6.171875 2.375 -10.546875q2.390625 -4.375 6.671875 -6.890625q4.28125 -2.53125 9.90625 -2.53125q4.171875 0 7.25 1.3125q3.09375 1.3125 5.234375 3.953125q2.15625 2.625 3.140625 6.03125q0.546875 1.984375 0.625 5.15625l-27.625 0q-0.109375 1.90625 -0.109375 2.84375q0 4.921875 1.71875 8.78125q1.71875 3.84375 4.546875 5.65625q2.828125 1.8125 6.421875 1.8125q3.046875 0 5.890625 -1.421875q2.859375 -1.421875 6.921875 -5.5625zm-5.0 -15.78125q-0.578125 -3.59375 -1.65625 -5.3125q-1.078125 -1.71875 -3.046875 -2.734375q-1.96875 -1.015625 -4.4375 -1.015625q-2.453125 0 -4.609375 1.015625q-2.140625 1.015625 -3.578125 2.8125q-1.421875 1.796875 -2.46875 5.234375l19.796875 0zm13.0859375 -6.25l0 -3.203125q2.859375 -0.234375 5.078125 -0.953125q2.234375 -0.734375 5.078125 -2.375l2.9375 0l0 7.390625q2.765625 -3.40625 6.4375 -5.390625q3.671875 -2.0 6.609375 -2.0q2.890625 0 4.5625 1.375q1.6875 1.359375 1.6875 3.3125q0 1.40625 -1.125 2.484375q-1.109375 1.078125 -2.671875 1.078125q-0.703125 0 -1.21875 -0.1875q-0.5 -0.203125 -1.46875 -0.875q-2.15625 -1.40625 -3.59375 -1.40625q-1.953125 0 -4.296875 1.640625q-2.96875 2.109375 -4.65625 4.140625l0 18.015625q0 2.34375 0.25 3.1875q0.265625 0.828125 0.84375 1.4375q0.59375 0.609375 1.453125 0.890625q0.859375 0.265625 3.0 0.265625l1.296875 0l0 3.28125l-20.203125 0l0 -3.28125l1.6875 0q2.375 0 3.125 -0.4375q1.015625 -0.578125 1.5 -1.609375q0.484375 -1.046875 0.484375 -3.734375l0 -23.046875l-6.796875 0zm32.382812 -5.59375l17.890625 0l0 3.28125l-1.09375 0q-2.21875 0 -2.765625 0.15625q-0.78125 0.234375 -1.171875 0.75q-0.390625 0.5 -0.390625 1.203125q0 0.984375 0.859375 3.171875l8.90625 22.21875l8.625 -22.21875q0.828125 -2.15625 0.828125 -3.125q0 -1.015625 -0.78125 -1.578125q-0.78125 -0.578125 -2.8125 -0.578125l-1.875 0l0 -3.28125l15.421875 0l0 3.28125q-1.59375 0.046875 -2.671875 0.515625q-1.078125 0.46875 -1.6875 1.21875q-0.59375 0.734375 -1.8125 3.546875l-12.453125 29.140625l-4.6875 0l-12.546875 -29.8125q-0.78125 -1.828125 -1.71875 -3.0q-0.625 -0.75 -1.65625 -1.171875q-1.03125 -0.4375 -2.40625 -0.4375l0 -3.28125zm54.148438 -18.546875q1.875 0 3.203125 1.3125q1.328125 1.296875 1.328125 3.171875q0 1.875 -1.328125 3.203125q-1.328125 1.328125 -3.203125 1.328125q-1.875 0 -3.203125 -1.328125q-1.328125 -1.328125 -1.328125 -3.203125q0 -1.875 1.328125 -3.171875q1.328125 -1.3125 3.203125 -1.3125zm-9.96875 24.171875l0 -3.234375q3.25 -0.390625 5.453125 -1.09375q2.203125 -0.703125 5.015625 -2.234375l2.859375 0l0 31.328125q0 1.640625 0.46875 2.46875q0.46875 0.8125 1.296875 1.1875q0.84375 0.375 3.078125 0.375l1.828125 0l0 3.28125l-20.0 0l0 -3.28125l1.609375 0q2.609375 0 3.5 -0.46875q0.90625 -0.46875 1.28125 -1.328125q0.375 -0.859375 0.375 -4.03125l0 -22.96875l-6.765625 0zm58.828125 21.171875l2.5 2.03125q-7.34375 9.8125 -17.609375 9.8125q-8.015625 0 -13.53125 -5.703125q-5.5 -5.703125 -5.5 -14.1875q0 -5.65625 2.5625 -10.171875q2.5625 -4.515625 7.109375 -7.015625q4.546875 -2.5 10.453125 -2.5q6.71875 0 11.203125 3.3125q4.5 3.296875 4.5 6.65625q0 1.796875 -1.0625 2.78125q-1.046875 0.96875 -2.375 0.96875q-0.703125 0 -1.375 -0.34375q-0.65625 -0.359375 -1.359375 -1.140625q-0.3125 -0.359375 -1.140625 -2.1875q-1.046875 -2.265625 -1.640625 -3.046875q-1.203125 -1.5625 -2.984375 -2.453125q-1.78125 -0.90625 -3.96875 -0.90625q-3.3125 0 -6.15625 1.84375q-2.828125 1.828125 -4.484375 5.40625q-1.65625 3.5625 -1.65625 8.53125q0 7.6875 4.09375 12.21875q3.5625 3.90625 8.484375 3.90625q2.265625 0 4.578125 -0.75q2.328125 -0.765625 4.40625 -2.25q1.515625 -1.0625 4.953125 -4.8125zm40.507812 0.828125l2.5 2.03125q-2.84375 3.390625 -5.53125 5.390625q-2.671875 1.984375 -5.0625 2.78125q-2.375 0.8125 -5.578125 0.8125q-5.734375 0 -9.765625 -2.34375q-4.609375 -2.703125 -7.078125 -7.03125q-2.453125 -4.34375 -2.453125 -10.234375q0 -6.171875 2.375 -10.546875q2.390625 -4.375 6.671875 -6.890625q4.28125 -2.53125 9.90625 -2.53125q4.171875 0 7.25 1.3125q3.09375 1.3125 5.234375 3.953125q2.15625 2.625 3.140625 6.03125q0.546875 1.984375 0.625 5.15625l-27.625 0q-0.109375 1.90625 -0.109375 2.84375q0 4.921875 1.71875 8.78125q1.71875 3.84375 4.546875 5.65625q2.828125 1.8125 6.421875 1.8125q3.046875 0 5.890625 -1.421875q2.859375 -1.421875 6.921875 -5.5625zm-5.0 -15.78125q-0.578125 -3.59375 -1.65625 -5.3125q-1.078125 -1.71875 -3.046875 -2.734375q-1.96875 -1.015625 -4.4375 -1.015625q-2.453125 0 -4.609375 1.015625q-2.140625 1.015625 -3.578125 2.8125q-1.421875 1.796875 -2.46875 5.234375l19.796875 0z" fill-rule="nonzero"/><path fill="#000000" d="m0 508.44095l720.9764 0l0 32.37796l-720.9764 0z" fill-rule="evenodd"/><path stroke="#000000" stroke-width="1.0" stroke-linejoin="round" stroke-linecap="butt" d="m0 508.44095l720.9764 0l0 32.37796l-720.9764 0z" fill-rule="evenodd"/><path fill="#ffffff" d="m573.8268 117.07087l114.77167 0l0 117.07087l-114.77167 0z" fill-rule="evenodd"/><path stroke="#ffffff" stroke-width="1.0" stroke-linejoin="round" stroke-linecap="butt" d="m573.8268 117.07087l114.77167 0l0 117.07087l-114.77167 0z" fill-rule="evenodd"/><path fill="#000000" d="m720.9764 117.07087l0 391.3701l-32.37793 0l0 -391.3701z" fill-rule="evenodd"/><path stroke="#000000" stroke-width="1.0" stroke-linejoin="round" stroke-linecap="butt" d="m720.9764 117.07087l0 391.3701l-32.37793 0l0 -391.3701z" fill-rule="evenodd"/><path xmlns="http://www.w3.org/2000/svg" fill="#000000" d="m65.20735 358.3622l0 150.07874l-32.377956 0l0 -150.07874z" fill-rule="evenodd" style="animation-name:alternateUp;animation-duration:1s;animation-iteration-count:infinite;animation-timing-function:ease-in-out;"/><path xmlns="http://www.w3.org/2000/svg" stroke="#000000" stroke-width="1.0" stroke-linejoin="round" stroke-linecap="butt" d="m65.20735 358.3622l0 150.07874l-32.377956 0l0 -150.07874z" fill-rule="evenodd" style="animation-name:alternateUp;animation-duration:1s;animation-iteration-count:infinite;animation-timing-function:ease-in-out;"/><path xmlns="http://www.w3.org/2000/svg" fill="#000000" d="m134.1811 429.00787l0 79.433075l-32.37796 0l0 -79.433075z" fill-rule="evenodd" style="animation-name:alternateUp;animation-duration:1s;animation-iteration-count:infinite;animation-timing-function:ease-in-out;animation-delay:0.5s;"/><path xmlns="http://www.w3.org/2000/svg" stroke="#000000" stroke-width="1.0" stroke-linejoin="round" stroke-linecap="butt" d="m134.1811 429.00787l0 79.433075l-32.37796 0l0 -79.433075z" fill-rule="evenodd" style="animation-name:alternateUp;animation-duration:1s;animation-iteration-count:infinite;animation-timing-function:ease-in-out;animation-delay:0.5s;"/><path fill="#000000" fill-opacity="0.0" d="m0 151.74803l688.59845 0l0 150.07875l-688.59845 0z" fill-rule="evenodd"/><path fill="#000000" d="m241.0961 167.63365l16.8125 0l0 2.65625l-1.15625 0q-2.0 0 -2.859375 0.375q-0.859375 0.375 -1.203125 1.3125q-0.28125 0.6875 -0.28125 2.90625l0 12.15625l22.59375 0l0 -11.84375q0 -2.40625 -0.15625 -2.90625q-0.25 -1.0 -1.078125 -1.5q-0.828125 -0.5 -2.515625 -0.5l-1.71875 0l0 -2.65625l16.6875 0l0 2.65625l-1.5 0q-1.75 0 -2.484375 0.390625q-0.734375 0.390625 -1.03125 1.0625q-0.296875 0.671875 -0.296875 2.890625l0 29.6875q0 2.46875 0.3125 3.140625q0.3125 0.671875 1.25 0.953125q0.5625 0.1875 3.75 0.1875l0 2.625l-16.6875 0l0 -2.625l1.21875 0q2.3125 0 3.078125 -0.3125q0.765625 -0.3125 0.984375 -1.0q0.1875 -0.53125 0.1875 -3.34375l0 -13.53125l-22.59375 0l0 13.90625q0 2.46875 0.328125 3.15625q0.328125 0.6875 1.265625 0.9375q0.6875 0.1875 3.90625 0.1875l0 2.625l-16.8125 0l0 -2.625l1.0625 0q2.4375 0 3.046875 -0.265625q0.609375 -0.265625 0.96875 -1.015625q0.359375 -0.75 0.359375 -2.65625l0 -30.03125q0 -2.03125 -0.328125 -2.8125q-0.328125 -0.78125 -1.03125 -1.15625q-0.703125 -0.375 -2.328125 -0.375l-1.75 0l0 -2.65625zm66.25 12.6875q4.59375 0 7.953125 1.90625q3.359375 1.90625 5.296875 5.5625q1.9375 3.65625 1.9375 8.34375q0 4.6875 -1.984375 8.34375q-1.984375 3.65625 -5.40625 5.578125q-3.421875 1.921875 -8.171875 1.921875q-7.5625 0 -11.359375 -4.71875q-3.796875 -4.71875 -3.796875 -11.09375q0 -4.65625 1.96875 -8.265625q1.96875 -3.609375 5.515625 -5.59375q3.546875 -1.984375 8.046875 -1.984375zm-0.25 3.03125q-3.5625 0 -6.03125 2.8125q-3.125 3.5 -3.125 10.1875q0 6.4375 2.65625 9.8125q2.40625 3.0 6.53125 3.0q2.65625 0 4.734375 -1.40625q2.078125 -1.40625 3.359375 -4.484375q1.28125 -3.078125 1.28125 -7.234375q0 -4.0625 -1.375 -7.28125q-1.0625 -2.5625 -3.203125 -3.984375q-2.140625 -1.421875 -4.828125 -1.421875zm18.625 -2.28125l11.84375 -0.46875l0 20.125q0 2.65625 0.734375 4.21875q0.734375 1.5625 2.25 2.421875q1.515625 0.859375 3.546875 0.859375q2.5 0 5.671875 -1.34375q3.171875 -1.34375 6.328125 -4.0l0 -14.5625q0 -2.3125 -0.34375 -3.03125q-0.34375 -0.71875 -1.21875 -1.15625q-0.875 -0.4375 -2.75 -0.4375l-2.28125 0l0 -2.625l11.84375 -0.46875l0 23.3125q0 2.25 0.375 3.109375q0.375 0.859375 1.109375 1.21875q0.734375 0.359375 2.953125 0.359375l0.96875 0l0 2.625l-10.375 0.53125l0 -5.78125q-4.28125 3.40625 -7.46875 4.703125q-3.1875 1.296875 -6.46875 1.296875q-2.4375 0 -4.234375 -0.65625q-1.796875 -0.65625 -3.15625 -1.96875q-1.359375 -1.3125 -2.078125 -3.15625q-0.71875 -1.84375 -0.71875 -3.9375l0 -14.21875q0 -1.90625 -0.34375 -2.671875q-0.34375 -0.765625 -1.140625 -1.21875q-0.796875 -0.453125 -2.171875 -0.453125l-2.875 0l0 -2.625zm45.15625 4.46875l0 -2.5625q2.28125 -0.1875 4.0625 -0.765625q1.78125 -0.578125 4.0625 -1.890625l2.34375 0l0 5.90625q2.21875 -2.71875 5.15625 -4.3125q2.9375 -1.59375 5.28125 -1.59375q2.3125 0 3.65625 1.09375q1.34375 1.09375 1.34375 2.65625q0 1.125 -0.890625 1.984375q-0.890625 0.859375 -2.140625 0.859375q-0.5625 0 -0.96875 -0.15625q-0.40625 -0.15625 -1.1875 -0.6875q-1.71875 -1.125 -2.875 -1.125q-1.5625 0 -3.4375 1.3125q-2.375 1.6875 -3.71875 3.3125l0 14.40625q0 1.875 0.203125 2.546875q0.203125 0.671875 0.671875 1.15625q0.46875 0.484375 1.15625 0.703125q0.6875 0.21875 2.40625 0.21875l1.03125 0l0 2.625l-16.15625 0l0 -2.625l1.34375 0q1.90625 0 2.5 -0.34375q0.8125 -0.46875 1.203125 -1.296875q0.390625 -0.828125 0.390625 -2.984375l0 -18.4375l-5.4375 0zm49.375 -4.46875l2.1875 0l2.8125 9.5625l-2.8125 0.9375q-1.6875 -3.84375 -4.734375 -6.046875q-3.046875 -2.203125 -6.171875 -2.203125q-2.40625 0 -3.90625 1.171875q-1.5 1.171875 -1.5 2.703125q0 1.4375 1.09375 2.46875q1.0625 1.0625 4.78125 2.40625l6.09375 2.15625q5.15625 1.84375 7.03125 3.9375q1.84375 2.125 1.84375 4.8125q0 2.28125 -1.375 4.390625q-1.375 2.109375 -3.984375 3.359375q-2.609375 1.25 -5.984375 1.25q-5.25 0 -9.0 -3.0l-0.65625 2.25l-2.21875 0l-3.90625 -10.21875l2.84375 -1.125q2.84375 4.5 5.375 6.375q3.53125 2.65625 7.625 2.65625q2.71875 0 4.46875 -1.453125q1.75 -1.453125 1.75 -3.234375q0 -1.46875 -1.09375 -2.6875q-1.125 -1.1875 -4.3125 -2.3125l-7.21875 -2.625q-4.65625 -1.6875 -6.46875 -3.6875q-1.8125 -2.0 -1.8125 -4.59375q0 -3.15625 2.953125 -5.578125q2.953125 -2.421875 7.515625 -2.421875q2.375 0 4.25 0.609375q1.875 0.609375 3.6875 2.015625l0.84375 -1.875zm20.03125 -0.75q1.625 0 2.78125 1.15625q1.15625 1.15625 1.15625 2.78125q0 1.65625 -1.15625 2.8125q-1.15625 1.15625 -2.78125 1.15625q-1.59375 0 -2.75 -1.140625q-1.15625 -1.140625 -1.15625 -2.765625q0 -1.625 1.1875 -2.8125q1.1875 -1.1875 2.71875 -1.1875zm0 23.625q1.65625 0 2.796875 1.140625q1.140625 1.140625 1.140625 2.765625q0 1.625 -1.15625 2.765625q-1.15625 1.140625 -2.78125 1.140625q-1.59375 0 -2.75 -1.140625q-1.15625 -1.140625 -1.15625 -2.765625q0 -1.625 1.140625 -2.765625q1.140625 -1.140625 2.765625 -1.140625z" fill-rule="nonzero"/><path fill="#000000" d="m285.50235 243.88365q4.8125 0 8.40625 2.453125q3.59375 2.453125 5.84375 7.703125q2.25 5.2499847 2.25 12.718735q0 11.0625 -5.53125 17.21875q-4.5 5.0 -11.375 5.0q-4.65625 0 -8.25 -2.484375q-3.59375 -2.484375 -5.8125 -7.453125q-2.21875 -4.96875 -2.21875 -12.625q0 -7.71875 2.171875 -12.593735q2.171875 -4.875 5.921875 -7.40625q3.75 -2.53125 8.59375 -2.53125zm-0.15625 3.09375q-3.25 0 -5.71875 2.375q-2.15625 2.0625 -3.40625 6.5q-1.4375 5.0624847 -1.4375 11.187485q0 4.75 0.890625 8.609375q0.890625 3.859375 2.359375 6.0q1.46875 2.140625 3.328125 3.171875q1.859375 1.03125 3.921875 1.03125q3.09375 0 5.78125 -2.40625q2.15625 -1.96875 3.40625 -5.875q1.5 -4.75 1.5 -11.15625q0 -6.625 -1.53125 -11.249985q-1.53125 -4.625 -3.765625 -6.40625q-2.234375 -1.78125 -5.328125 -1.78125zm51.1875 -4.59375l-21.34375 59.781235l-4.625 0l21.21875 -59.781235l4.75 0zm28.625 2.25l2.34375 0l0 36.187485q0 2.5625 0.328125 3.296875q0.328125 0.734375 1.078125 1.109375q0.75 0.375 2.96875 0.375l3.0625 0l0 2.625l-20.59375 0l0 -2.625l3.40625 0q2.21875 0 2.953125 -0.390625q0.734375 -0.390625 1.140625 -1.25q0.40625 -0.859375 0.40625 -3.140625l0 -29.749985l-7.90625 0l0 -2.6875q6.46875 -0.90625 10.8125 -3.75zm38.125 -0.75q4.8125 0 8.40625 2.453125q3.59375 2.453125 5.84375 7.703125q2.25 5.2499847 2.25 12.718735q0 11.0625 -5.53125 17.21875q-4.5 5.0 -11.375 5.0q-4.65625 0 -8.25 -2.484375q-3.59375 -2.484375 -5.8125 -7.453125q-2.21875 -4.96875 -2.21875 -12.625q0 -7.71875 2.171875 -12.593735q2.171875 -4.875 5.921875 -7.40625q3.75 -2.53125 8.59375 -2.53125zm-0.15625 3.09375q-3.25 0 -5.71875 2.375q-2.15625 2.0625 -3.40625 6.5q-1.4375 5.0624847 -1.4375 11.187485q0 4.75 0.890625 8.609375q0.890625 3.859375 2.359375 6.0q1.46875 2.140625 3.328125 3.171875q1.859375 1.03125 3.921875 1.03125q3.09375 0 5.78125 -2.40625q2.15625 -1.96875 3.40625 -5.875q1.5 -4.75 1.5 -11.15625q0 -6.625 -1.53125 -11.249985q-1.53125 -4.625 -3.765625 -6.40625q-2.234375 -1.78125 -5.328125 -1.78125z" fill-rule="nonzero"/></g>
<style xmlns="http://www.w3.org/2000/svg">
    @keyframes alternateUp {
        50% {transform:translateY(20px);}
    }
    @keyframes alternateDown {
        50% {transform:translateY(-20px);}
    }
    @keyframes alternateLeft {
        50% {transform:translateX(20px);}
    }
    @keyframes alternateRight {
        50% {transform:translateX(-20px);}
    }
</style>
</svg>