<svg xmlns:xlink="http://www.w3.org/1999/xlink" xmlns="http://www.w3.org/2000/svg" version="1.1" viewBox="0.0 0.0 960.0 540.0" fill="none" stroke="none" stroke-linecap="square" stroke-miterlimit="10"><clipPath id="g6415e53f0f_0_11.0"><path d="m0 0l960.0 0l0 540.0l-960.0 0l0 -540.0z" clip-rule="nonzero"/></clipPath><g clip-path="url(#g6415e53f0f_0_11.0)"><path fill="#ffffff" d="m0 0l960.0 0l0 540.0l-960.0 0z" fill-rule="evenodd"/><path fill="#cccccc" d="m63.852654 726.403l496.5669 -910.6456l28.440979 15.496063l-496.56696 910.6457z" fill-rule="evenodd"/><path stroke="#cccccc" stroke-width="1.0" stroke-linejoin="round" stroke-linecap="butt" d="m63.852654 726.403l496.5669 -910.6456l28.440979 15.496063l-496.56696 910.6457z" fill-rule="evenodd"/><path fill="#cccccc" d="m6.653177 688.1432l496.56693 -910.6457l28.440979 15.496063l-496.56696 910.6456z" fill-rule="evenodd"/><path stroke="#cccccc" stroke-width="1.0" stroke-linejoin="round" stroke-linecap="butt" d="m6.653177 688.1432l496.56693 -910.6457l28.440979 15.496063l-496.56696 910.6456z" fill-rule="evenodd"/><path fill="#000000" fill-opacity="0.0" d="m492.31497 6.9013186l467.68503 0l0 321.0709l-467.68503 0z" fill-rule="evenodd"/><path fill="#000000" d="m592.3137 99.85362l2.46875 0l0.34375 1.65625l30.09375 0l0.28125 -1.65625l2.578125 0l5.15625 14.421875l-3.15625 1.125q-2.28125 -5.765625 -5.421875 -8.09375q-3.125 -2.34375 -8.015625 -2.34375q-2.03125 0 -2.421875 0.15625q-0.390625 0.15625 -0.546875 0.546875q-0.15625 0.375 -0.15625 2.453125l0 34.03125q0 2.421875 0.265625 3.265625q0.265625 0.84375 0.75 1.3125q0.5 0.453125 1.359375 0.65625q0.859375 0.1875 3.84375 0.21875l0 2.953125l-18.90625 0l0 -2.953125q3.125 -0.03125 3.828125 -0.21875q1.234375 -0.34375 1.75 -1.328125q0.53125 -0.984375 0.53125 -3.625l0 -34.765625q0 -1.625 -0.15625 -1.96875q-0.15625 -0.359375 -0.59375 -0.546875q-0.4375 -0.1875 -1.8125 -0.1875q-3.828125 0 -6.140625 0.984375q-2.296875 0.984375 -4.34375 3.34375q-2.03125 2.34375 -3.46875 6.109375l-3.171875 -1.125l5.0625 -14.421875zm68.13281 30.34375l0 -3.828125q0 -3.90625 -2.1875 -5.578125q-2.171875 -1.671875 -6.140625 -1.671875q-1.96875 0 -3.453125 0.484375q-1.46875 0.46875 -2.375 1.296875q-0.890625 0.828125 -1.3125 1.875q-0.171875 0.390625 -0.84375 3.0q-0.796875 3.15625 -3.265625 3.15625q-1.40625 0 -2.265625 -0.921875q-0.859375 -0.9375 -0.859375 -2.515625q0 -2.328125 1.71875 -4.5625q1.71875 -2.234375 5.25 -3.6875q3.546875 -1.453125 8.359375 -1.453125q4.5 0 7.6875 1.390625q3.203125 1.375 4.71875 3.984375q1.0625 1.796875 1.0625 6.53125l0 13.546875q0 2.875 0.171875 3.75q0.390625 1.515625 1.34375 2.28125q0.96875 0.75 2.515625 0.75q1.625 0 3.875 -0.78125l0 3.0625q-2.921875 0.84375 -5.234375 0.84375q-2.5 0 -4.203125 -0.703125q-1.703125 -0.703125 -2.796875 -2.046875q-1.09375 -1.359375 -1.40625 -3.21875q-4.21875 3.296875 -7.640625 4.640625q-3.40625 1.328125 -6.875 1.328125q-4.859375 0 -7.890625 -2.625q-3.015625 -2.640625 -3.015625 -6.203125q0 -2.140625 1.109375 -4.0625q1.109375 -1.9375 3.375 -3.40625q2.265625 -1.484375 7.109375 -2.609375q4.859375 -1.125 13.46875 -2.046875zm0 3.0625q-8.15625 1.1875 -10.078125 1.65625q-3.84375 0.875 -5.5 1.9375q-1.640625 1.046875 -2.34375 2.265625q-0.703125 1.203125 -0.703125 2.578125q0 1.375 0.78125 2.65625q0.796875 1.28125 2.234375 2.015625q1.453125 0.734375 3.0625 0.734375q2.28125 0 5.15625 -1.078125q2.890625 -1.09375 7.390625 -4.265625l0 -8.5zm15.890625 -28.40625l0 -2.921875q2.328125 -0.171875 4.484375 -0.84375q2.171875 -0.671875 4.84375 -2.109375l2.5625 0l0 21.453125q3.09375 -2.328125 6.359375 -3.484375q3.265625 -1.15625 6.6875 -1.15625q3.9375 0 7.265625 2.109375q3.34375 2.109375 5.25 5.953125q1.921875 3.84375 1.921875 9.09375q0 8.21875 -4.8125 13.53125q-4.46875 4.921875 -11.3125 4.921875q-4.125 0 -7.359375 -1.71875q-2.390625 -1.265625 -4.640625 -3.90625l-1.921875 4.78125l-3.28125 0l0 -45.703125l-6.046875 0zm11.890625 19.046875l0 13.546875q0 3.1875 0.453125 4.484375q0.453125 1.28125 1.875 2.640625q1.4375 1.34375 3.34375 2.140625q1.921875 0.78125 3.953125 0.78125q3.140625 0 5.703125 -1.640625q2.5625 -1.65625 4.03125 -4.890625q1.484375 -3.234375 1.484375 -7.78125q0 -6.359375 -3.125 -10.1875q-2.5 -3.171875 -7.0 -3.171875q-2.3125 0 -4.703125 0.875q-2.390625 0.859375 -6.015625 3.203125zm32.976562 -19.078125l0 -2.890625q4.78125 -0.34375 9.3125 -2.953125l2.609375 0l0 43.28125q0 2.734375 0.34375 3.4375q0.453125 0.984375 1.328125 1.453125q0.890625 0.453125 3.390625 0.453125l1.125 0l0 2.953125l-18.109375 0l0 -2.953125l1.828125 0q1.71875 0 2.578125 -0.53125q0.859375 -0.53125 1.234375 -1.4375q0.375 -0.921875 0.375 -3.65625l0 -37.15625l-6.015625 0zm52.070312 36.65625l2.25 1.828125q-2.578125 3.0625 -4.984375 4.859375q-2.40625 1.796875 -4.546875 2.515625q-2.140625 0.71875 -5.03125 0.71875q-5.171875 0 -8.78125 -2.109375q-4.15625 -2.421875 -6.375 -6.328125q-2.203125 -3.90625 -2.203125 -9.21875q0 -5.546875 2.140625 -9.484375q2.140625 -3.9375 5.984375 -6.203125q3.859375 -2.265625 8.921875 -2.265625q3.765625 0 6.53125 1.171875q2.78125 1.171875 4.71875 3.546875q1.9375 2.375 2.8125 5.4375q0.484375 1.796875 0.5625 4.640625l-24.859375 0q-0.109375 1.71875 -0.109375 2.5625q0 4.4375 1.546875 7.90625q1.546875 3.453125 4.09375 5.09375q2.5625 1.625 5.796875 1.625q2.734375 0 5.296875 -1.28125q2.578125 -1.28125 6.234375 -5.015625zm-4.5 -14.203125q-0.53125 -3.234375 -1.5 -4.78125q-0.96875 -1.546875 -2.75 -2.453125q-1.765625 -0.921875 -3.984375 -0.921875q-2.21875 0 -4.15625 0.921875q-1.921875 0.90625 -3.203125 2.53125q-1.28125 1.609375 -2.234375 4.703125l17.828125 0zm52.625 -11.484375q5.171875 0 8.9375 2.140625q3.78125 2.140625 5.953125 6.265625q2.1875 4.109375 2.1875 9.375q0 5.28125 -2.234375 9.390625q-2.21875 4.109375 -6.078125 6.28125q-3.84375 2.15625 -9.1875 2.15625q-8.515625 0 -12.78125 -5.3125q-4.265625 -5.3125 -4.265625 -12.484375q0 -5.234375 2.203125 -9.296875q2.21875 -4.0625 6.203125 -6.28125q4.0 -2.234375 9.0625 -2.234375zm-0.28125 3.40625q-4.015625 0 -6.78125 3.15625q-3.515625 3.9375 -3.515625 11.46875q0 7.234375 2.984375 11.03125q2.703125 3.375 7.34375 3.375q2.984375 0 5.328125 -1.578125q2.34375 -1.578125 3.78125 -5.03125q1.4375 -3.46875 1.4375 -8.15625q0 -4.5625 -1.546875 -8.1875q-1.1875 -2.875 -3.609375 -4.46875q-2.40625 -1.609375 -5.421875 -1.609375zm22.636719 -2.5625l6.015625 0l0 -5.28125q0 -5.453125 3.59375 -8.90625q3.609375 -3.46875 9.40625 -3.46875q3.875 0 6.03125 1.625q2.171875 1.609375 2.171875 3.515625q0 1.265625 -0.875 2.125q-0.859375 0.859375 -2.15625 0.859375q-1.15625 0 -2.0 -0.421875q-0.84375 -0.421875 -2.609375 -2.109375q-1.859375 -1.765625 -3.546875 -1.765625q-1.15625 0 -2.09375 0.734375q-0.921875 0.71875 -1.4375 2.109375q-0.515625 1.375 -0.515625 4.265625l0 6.71875l6.609375 0l0 3.578125l-6.609375 0l0 22.8125q0 2.359375 0.34375 3.15625q0.359375 0.78125 1.0625 1.109375q0.703125 0.3125 3.28125 0.3125l1.4375 0l0 2.953125l-18.109375 0l0 -2.953125l1.09375 0q2.78125 0 3.53125 -0.34375q0.75 -0.359375 1.078125 -1.140625q0.34375 -0.796875 0.3125 -3.609375l0 -22.296875l-6.015625 0l0 -3.578125z" fill-rule="nonzero"/><path fill="#000000" d="m609.50903 187.50987l2.53125 0l4.46875 16.34375l-3.265625 0.921875q-2.640625 -5.65625 -4.015625 -7.59375q-2.25 -3.125 -5.609375 -4.953125q-3.359375 -1.828125 -7.390625 -1.828125q-4.75 0 -8.75 2.546875q-3.984375 2.546875 -6.46875 7.46875q-2.46875 4.921875 -2.46875 11.078125q0 6.328125 2.515625 11.28125q2.515625 4.953125 6.796875 7.625q4.296875 2.671875 9.25 2.671875q4.671875 0 9.5625 -2.671875q4.890625 -2.671875 8.46875 -7.484375l2.8125 1.9375q-2.171875 3.234375 -4.703125 5.484375q-4.015625 3.609375 -8.34375 5.34375q-4.3125 1.71875 -9.484375 1.71875q-11.421875 0 -18.5625 -8.46875q-5.90625 -7.03125 -5.90625 -16.734375q0 -7.140625 3.265625 -12.921875q3.265625 -5.78125 9.015625 -9.1875q5.75 -3.421875 12.390625 -3.421875q3.5625 0 6.59375 0.96875q3.046875 0.96875 6.171875 3.109375l1.125 -3.234375zm31.152344 14.28125q5.171875 0 8.9375 2.140625q3.78125 2.140625 5.953125 6.265625q2.1875 4.109375 2.1875 9.375q0 5.28125 -2.234375 9.390625q-2.21875 4.109375 -6.078125 6.28125q-3.84375 2.15625 -9.1875 2.15625q-8.515625 0 -12.78125 -5.3125q-4.265625 -5.3125 -4.265625 -12.484375q0 -5.234375 2.203125 -9.296875q2.21875 -4.0625 6.203125 -6.28125q4.0 -2.234375 9.0625 -2.234375zm-0.28125 3.40625q-4.015625 0 -6.78125 3.15625q-3.515625 3.9375 -3.515625 11.46875q0 7.234375 2.984375 11.03125q2.703125 3.375 7.34375 3.375q2.984375 0 5.328125 -1.578125q2.34375 -1.578125 3.78125 -5.03125q1.4375 -3.46875 1.4375 -8.15625q0 -4.5625 -1.546875 -8.1875q-1.1875 -2.875 -3.609375 -4.46875q-2.40625 -1.609375 -5.421875 -1.609375zm22.886719 2.5l0 -2.953125q3.125 -0.359375 4.671875 -0.84375q1.546875 -0.5 4.46875 -2.109375l2.53125 0l0 6.671875q4.640625 -3.90625 7.921875 -5.28125q3.296875 -1.390625 6.671875 -1.390625q2.875 0 5.09375 0.96875q2.21875 0.953125 3.59375 2.609375q1.390625 1.65625 1.859375 3.765625q0.28125 1.296875 0.28125 3.9375l0 15.46875q0 2.78125 0.390625 3.578125q0.40625 0.78125 1.28125 1.140625q0.890625 0.34375 4.328125 0.34375l0 2.953125l-18.09375 0l0 -2.953125l0.984375 0q2.53125 0 3.4375 -0.453125q0.921875 -0.46875 1.3125 -1.34375q0.40625 -0.875 0.40625 -3.578125l0 -12.9375q0 -4.015625 -0.65625 -5.5625q-0.640625 -1.546875 -2.203125 -2.515625q-1.5625 -0.96875 -3.953125 -0.96875q-2.84375 0 -6.078125 1.46875q-3.234375 1.453125 -6.265625 4.296875l0 16.21875q0 2.734375 0.40625 3.65625q0.40625 0.90625 1.3125 1.359375q0.640625 0.359375 3.375 0.359375l1.03125 0l0 2.953125l-18.109375 0l0 -2.953125l0.875 0q2.609375 0 3.546875 -0.4375q0.953125 -0.4375 1.34375 -1.5625q0.203125 -0.5625 0.203125 -3.875l0 -20.03125l-5.96875 0zm56.734375 -17.015625l2.5 0l0 11.953125l10.4375 0l0 3.515625l-10.4375 0l0 21.1875q0 2.71875 0.46875 3.875q0.484375 1.15625 1.625 1.90625q1.140625 0.734375 2.546875 0.734375q3.34375 0 7.390625 -3.0l0 3.421875q-4.609375 3.125 -9.328125 3.125q-2.671875 0 -4.828125 -1.1875q-2.15625 -1.203125 -2.953125 -2.8125q-0.796875 -1.625 -0.796875 -5.640625l0 -21.609375l-6.140625 0l0 -2.953125q2.953125 -0.671875 4.75 -2.078125q1.8125 -1.40625 2.9375 -3.65625q1.125 -2.25 1.828125 -6.78125zm48.210938 36.796875l2.25 1.828125q-2.578125 3.0625 -4.984375 4.859375q-2.40625 1.796875 -4.546875 2.515625q-2.140625 0.71875 -5.03125 0.71875q-5.171875 0 -8.78125 -2.109375q-4.15625 -2.421875 -6.375 -6.328125q-2.203125 -3.90625 -2.203125 -9.21875q0 -5.546875 2.140625 -9.484375q2.140625 -3.9375 5.984375 -6.203125q3.859375 -2.265625 8.921875 -2.265625q3.765625 0 6.53125 1.171875q2.78125 1.171875 4.71875 3.546875q1.9375 2.375 2.8125 5.4375q0.484375 1.796875 0.5625 4.640625l-24.859375 0q-0.109375 1.71875 -0.109375 2.5625q0 4.4375 1.546875 7.90625q1.546875 3.453125 4.09375 5.09375q2.5625 1.625 5.796875 1.625q2.734375 0 5.296875 -1.28125q2.578125 -1.28125 6.234375 -5.015625zm-4.5 -14.203125q-0.53125 -3.234375 -1.5 -4.78125q-0.96875 -1.546875 -2.75 -2.453125q-1.765625 -0.921875 -3.984375 -0.921875q-2.21875 0 -4.15625 0.921875q-1.921875 0.90625 -3.203125 2.53125q-1.28125 1.609375 -2.234375 4.703125l17.828125 0zm11.878906 -5.578125l0 -2.953125q3.125 -0.359375 4.671875 -0.84375q1.546875 -0.5 4.46875 -2.109375l2.53125 0l0 6.671875q4.640625 -3.90625 7.921875 -5.28125q3.296875 -1.390625 6.671875 -1.390625q2.875 0 5.09375 0.96875q2.21875 0.953125 3.59375 2.609375q1.390625 1.65625 1.859375 3.765625q0.28125 1.296875 0.28125 3.9375l0 15.46875q0 2.78125 0.390625 3.578125q0.40625 0.78125 1.28125 1.140625q0.890625 0.34375 4.328125 0.34375l0 2.953125l-18.09375 0l0 -2.953125l0.984375 0q2.53125 0 3.4375 -0.453125q0.921875 -0.46875 1.3125 -1.34375q0.40625 -0.875 0.40625 -3.578125l0 -12.9375q0 -4.015625 -0.65625 -5.5625q-0.640625 -1.546875 -2.203125 -2.515625q-1.5625 -0.96875 -3.953125 -0.96875q-2.84375 0 -6.078125 1.46875q-3.234375 1.453125 -6.265625 4.296875l0 16.21875q0 2.734375 0.40625 3.65625q0.40625 0.90625 1.3125 1.359375q0.640625 0.359375 3.375 0.359375l1.03125 0l0 2.953125l-18.109375 0l0 -2.953125l0.875 0q2.609375 0 3.546875 -0.4375q0.953125 -0.4375 1.34375 -1.5625q0.203125 -0.5625 0.203125 -3.875l0 -20.03125l-5.96875 0zm56.734375 -17.015625l2.5 0l0 11.953125l10.4375 0l0 3.515625l-10.4375 0l0 21.1875q0 2.71875 0.46875 3.875q0.484375 1.15625 1.625 1.90625q1.140625 0.734375 2.546875 0.734375q3.34375 0 7.390625 -3.0l0 3.421875q-4.609375 3.125 -9.328125 3.125q-2.671875 0 -4.828125 -1.1875q-2.15625 -1.203125 -2.953125 -2.8125q-0.796875 -1.625 -0.796875 -5.640625l0 -21.609375l-6.140625 0l0 -2.953125q2.953125 -0.671875 4.75 -2.078125q1.8125 -1.40625 2.9375 -3.65625q1.125 -2.25 1.828125 -6.78125zm41.914062 11.953125l2.453125 0l3.171875 10.75l-3.171875 1.0625q-1.890625 -4.328125 -5.328125 -6.796875q-3.421875 -2.484375 -6.9375 -2.484375q-2.703125 0 -4.390625 1.3125q-1.6875 1.3125 -1.6875 3.046875q0 1.609375 1.234375 2.765625q1.1875 1.203125 5.375 2.71875l6.859375 2.421875q5.796875 2.078125 7.90625 4.421875q2.078125 2.390625 2.078125 5.421875q0 2.5625 -1.546875 4.9375q-1.546875 2.375 -4.484375 3.78125q-2.9375 1.40625 -6.734375 1.40625q-5.90625 0 -10.125 -3.375l-0.734375 2.53125l-2.5 0l-4.390625 -11.5l3.1875 -1.265625q3.203125 5.0625 6.046875 7.171875q3.984375 2.984375 8.578125 2.984375q3.0625 0 5.03125 -1.625q1.96875 -1.640625 1.96875 -3.640625q0 -1.65625 -1.234375 -3.03125q-1.265625 -1.328125 -4.84375 -2.59375l-8.125 -2.953125q-5.234375 -1.90625 -7.28125 -4.15625q-2.03125 -2.25 -2.03125 -5.15625q0 -3.5625 3.3125 -6.28125q3.328125 -2.71875 8.46875 -2.71875q2.671875 0 4.78125 0.6875q2.109375 0.671875 4.140625 2.265625l0.953125 -2.109375z" fill-rule="nonzero"/><path fill="#000000" d="m511.96588 424.32547l0 -96.0l450.3307 0l0 96.0z" fill-rule="evenodd"/><path stroke="#000000" stroke-width="1.0" stroke-linejoin="round" stroke-linecap="butt" d="m511.96588 424.32547l0 -96.0l450.3307 0l0 96.0z" fill-rule="evenodd"/><path fill="#000000" d="m-1.3569553E-4 205.45995l0 -95.99999l192.0 0l0 95.99999z" fill-rule="evenodd"/><path stroke="#000000" stroke-width="1.0" stroke-linejoin="round" stroke-linecap="butt" d="m-1.3569553E-4 205.45995l0 -95.99999l192.0 0l0 95.99999z" fill-rule="evenodd"/><path fill="#000000" d="m512.69293 424.58792l-320.69293 -220.70872l0 -94.40938l320.69293 220.70871z" fill-rule="evenodd"/><path stroke="#000000" stroke-width="1.0" stroke-linejoin="round" stroke-linecap="butt" d="m512.69293 424.58792l-320.69293 -220.70872l0 -94.40938l320.69293 220.70871z" fill-rule="evenodd"/><path fill="#000000" d="m269.79266 302.74417l-25.007889 0l0 -224.75592l25.007889 0z" fill-rule="evenodd" style="animation-name:alternateUp;animation-duration:1s;animation-iteration-count:infinite;animation-timing-function:ease-in-out;"/><path stroke="#000000" stroke-width="1.0" stroke-linejoin="round" stroke-linecap="butt" d="m269.79266 302.74417l-25.007889 0l0 -224.75592l25.007889 0z" fill-rule="evenodd" style="animation-name:alternateUp;animation-duration:1s;animation-iteration-count:infinite;animation-timing-function:ease-in-out;"/><path fill="#000000" d="m217.00874 330.42914l-25.007874 0l0 -126.80315l25.007874 0z" fill-rule="evenodd" style="animation-name:alternateDown;animation-duration:1s;animation-iteration-count:infinite;animation-timing-function:ease-in-out;"/><path stroke="#000000" stroke-width="1.0" stroke-linejoin="round" stroke-linecap="butt" d="m217.00874 330.42914l-25.007874 0l0 -126.80315l25.007874 0z" fill-rule="evenodd" style="animation-name:alternateDown;animation-duration:1s;animation-iteration-count:infinite;animation-timing-function:ease-in-out;"/><path xmlns="http://www.w3.org/2000/svg" fill="#000000" d="m322.5783 207.01935l-25.007874 0l0 -99.1181l25.007874 0z" fill-rule="evenodd" style="animation-name:alternateUp;animation-duration:1s;animation-iteration-count:infinite;animation-timing-function:ease-in-out;animation-delay: 0.5s;"/><path xmlns="http://www.w3.org/2000/svg" stroke="#000000" stroke-width="1.0" stroke-linejoin="round" stroke-linecap="butt" d="m322.5783 207.01935l-25.007874 0l0 -99.1181l25.007874 0z" fill-rule="evenodd" style="animation-name:alternateUp;animation-duration:1s;animation-iteration-count:infinite;animation-timing-function:ease-in-out;animation-delay:0.5s"/><path xmlns="http://www.w3.org/2000/svg" fill="#000000" d="m961.34656 444.54855l0 25.007874l-153.73224 0l0 -25.007874z" fill-rule="evenodd" style="animation-name:alternateLeft;animation-duration:1s;animation-iteration-count:infinite;animation-timing-function:ease-in-out;animation-delay: 0.5s;"/><path xmlns="http://www.w3.org/2000/svg" stroke="#000000" stroke-width="1.0" stroke-linejoin="round" stroke-linecap="butt" d="m961.34656 444.54855l0 25.007874l-153.73224 0l0 -25.007874z" fill-rule="evenodd" style="animation-name:alternateLeft;animation-duration:1s;animation-iteration-count:infinite;animation-timing-function:ease-in-out;animation-delay: 0.5s;"/><path xmlns="http://www.w3.org/2000/svg" fill="#000000" d="m962.2963 498.34094l0 25.007874l-86.74017 0l0 -25.007874z" fill-rule="evenodd" style="animation-name:alternateLeft;animation-duration:1s;animation-iteration-count:infinite;animation-timing-function:ease-in-out;"/><path xmlns="http://www.w3.org/2000/svg" stroke="#000000" stroke-width="1.0" stroke-linejoin="round" stroke-linecap="butt" d="m962.2963 498.34094l0 25.007874l-86.74017 0l0 -25.007874z" fill-rule="evenodd" style="animation-name:alternateLeft;animation-duration:1s;animation-iteration-count:infinite;animation-timing-function:ease-in-out;"/><path fill="#000000" fill-opacity="0.0" d="m0 203.05511l192.0 0l0 336.9449l-192.0 0z" fill-rule="evenodd"/><path fill="#000000" fill-opacity="0.0" d="m9.0 212.63449l167.03125 0l0 37.5625l-167.03125 0l0 -37.5625z" fill-rule="nonzero"/><path fill="#000000" d="m9.40625 220.97824l7.8125 0l0 1.328125l-0.828125 0q-0.8125 0 -1.109375 0.15625q-0.453125 0.25 -0.453125 0.75q0 0.359375 0.25 1.140625l4.46875 14.53125l3.875 -11.9375l-0.90625 -2.890625q-0.328125 -1.03125 -1.0 -1.484375q-0.40625 -0.265625 -1.421875 -0.265625l0 -1.328125l7.75 0l0 1.328125l-0.734375 0q-0.953125 0 -1.28125 0.234375q-0.328125 0.234375 -0.328125 0.640625q0 0.34375 0.25 1.171875l4.484375 14.625l4.515625 -14.625q0.234375 -0.765625 0.234375 -1.15625q0 -0.453125 -0.3125 -0.671875q-0.3125 -0.21875 -1.234375 -0.21875l-0.78125 0l0 -1.328125l6.65625 0l0 1.328125q-0.84375 -0.015625 -1.265625 0.171875q-0.40625 0.171875 -0.671875 0.515625q-0.265625 0.328125 -0.578125 1.359375l-6.015625 18.421875l-2.265625 0l-4.203125 -13.03125l-4.21875 13.03125l-2.25 0l-5.90625 -18.421875q-0.421875 -1.328125 -1.046875 -1.75q-0.46875 -0.296875 -1.484375 -0.296875l0 -1.328125zm31.46875 1.53125l0 -1.34375q1.515625 -0.203125 2.359375 -0.46875q0.84375 -0.28125 1.765625 -0.84375l1.21875 0l0 10.328125q1.765625 -1.484375 3.34375 -2.171875q1.578125 -0.6875 3.015625 -0.6875q2.09375 0 3.453125 1.25q1.34375 1.25 1.34375 3.046875l0 7.671875q0 1.140625 0.171875 1.5q0.1875 0.34375 0.609375 0.515625q0.421875 0.15625 1.890625 0.15625l0 1.3125l-8.0625 0l0 -1.3125l0.59375 0q1.140625 0 1.5 -0.171875q0.359375 -0.1875 0.515625 -0.59375q0.171875 -0.421875 0.171875 -1.71875l0 -5.328125q0 -1.765625 -0.125 -2.296875q-0.234375 -0.90625 -0.96875 -1.453125q-0.734375 -0.546875 -1.875 -0.546875q-1.28125 0 -2.6875 0.640625q-1.390625 0.625 -2.890625 1.890625l0 7.828125q0 0.875 0.15625 1.171875q0.15625 0.296875 0.515625 0.4375q0.359375 0.140625 1.4375 0.140625l0.640625 0l0 1.3125l-8.09375 0l0 -1.3125l0.484375 0q1.140625 0 1.65625 -0.28125q0.28125 -0.140625 0.40625 -0.546875q0.125 -0.40625 0.125 -2.25l0 -15.875l-2.671875 0zm29.015625 4.8125q2.296875 0 3.96875 0.953125q1.6875 0.953125 2.65625 2.78125q0.96875 1.828125 0.96875 4.171875q0 2.34375 -1.0 4.171875q-0.984375 1.828125 -2.703125 2.796875q-1.703125 0.953125 -4.078125 0.953125q-3.78125 0 -5.6875 -2.359375q-1.890625 -2.359375 -1.890625 -5.546875q0 -2.328125 0.984375 -4.125q0.984375 -1.8125 2.75 -2.796875q1.78125 -1.0 4.03125 -1.0zm-0.125 1.515625q-1.78125 0 -3.015625 1.40625q-1.5625 1.75 -1.5625 5.09375q0 3.21875 1.328125 4.90625q1.203125 1.5 3.265625 1.5q1.328125 0 2.359375 -0.703125q1.046875 -0.703125 1.6875 -2.234375q0.640625 -1.546875 0.640625 -3.625q0 -2.03125 -0.6875 -3.640625q-0.53125 -1.28125 -1.609375 -1.984375q-1.0625 -0.71875 -2.40625 -0.71875zm31.625 4.890625l0 -1.703125q0 -1.734375 -0.96875 -2.46875q-0.96875 -0.75 -2.734375 -0.75q-0.875 0 -1.53125 0.21875q-0.65625 0.203125 -1.0625 0.578125q-0.390625 0.359375 -0.578125 0.828125q-0.078125 0.171875 -0.375 1.328125q-0.359375 1.40625 -1.453125 1.40625q-0.625 0 -1.015625 -0.40625q-0.375 -0.421875 -0.375 -1.125q0 -1.03125 0.765625 -2.015625q0.765625 -1.0 2.328125 -1.640625q1.578125 -0.65625 3.71875 -0.65625q2.0 0 3.421875 0.625q1.421875 0.609375 2.09375 1.765625q0.46875 0.796875 0.46875 2.90625l0 6.015625q0 1.28125 0.078125 1.671875q0.171875 0.671875 0.59375 1.015625q0.4375 0.328125 1.125 0.328125q0.71875 0 1.71875 -0.34375l0 1.359375q-1.296875 0.375 -2.328125 0.375q-1.109375 0 -1.875 -0.3125q-0.75 -0.3125 -1.234375 -0.90625q-0.484375 -0.609375 -0.625 -1.4375q-1.875 1.46875 -3.390625 2.0625q-1.515625 0.59375 -3.0625 0.59375q-2.15625 0 -3.5 -1.171875q-1.34375 -1.171875 -1.34375 -2.75q0 -0.953125 0.484375 -1.8125q0.5 -0.859375 1.5 -1.515625q1.015625 -0.65625 3.171875 -1.15625q2.15625 -0.5 5.984375 -0.90625zm0 1.359375q-3.625 0.53125 -4.484375 0.734375q-1.703125 0.390625 -2.4375 0.859375q-0.734375 0.46875 -1.046875 1.015625q-0.3125 0.53125 -0.3125 1.140625q0 0.609375 0.34375 1.1875q0.359375 0.5625 1.0 0.890625q0.640625 0.328125 1.359375 0.328125q1.015625 0 2.296875 -0.484375q1.28125 -0.484375 3.28125 -1.890625l0 -3.78125zm7.296875 -5.140625l0 -1.328125q1.171875 -0.109375 2.046875 -0.375q0.875 -0.28125 2.0 -0.921875l1.15625 0l0 2.625q1.78125 -1.40625 2.78125 -1.890625q1.53125 -0.734375 2.921875 -0.734375q0.953125 0 1.859375 0.359375q0.921875 0.34375 1.46875 0.859375q0.5625 0.515625 0.953125 1.40625q1.640625 -1.453125 3.03125 -2.03125q1.40625 -0.59375 2.84375 -0.59375q1.375 0 2.421875 0.578125q1.0625 0.5625 1.53125 1.421875q0.484375 0.859375 0.484375 2.515625l0 7.25q0 1.140625 0.046875 1.328125q0.078125 0.296875 0.328125 0.5625q0.265625 0.265625 0.59375 0.375q0.328125 0.109375 1.21875 0.109375l0.5 0l0 1.3125l-7.859375 0l0 -1.3125q1.34375 -0.015625 1.734375 -0.1875q0.40625 -0.1875 0.59375 -0.59375q0.203125 -0.40625 0.203125 -1.59375l0 -6.890625q0 -1.3125 -0.234375 -1.8125q-0.234375 -0.5 -0.84375 -0.828125q-0.59375 -0.34375 -1.484375 -0.34375q-1.109375 0 -2.328125 0.59375q-1.625 0.8125 -2.5625 1.828125l0 7.453125q0 1.078125 0.09375 1.421875q0.109375 0.328125 0.34375 0.5625q0.25 0.21875 0.5625 0.3125q0.328125 0.078125 1.5625 0.078125l0 1.3125l-7.703125 0l0 -1.3125l0.4375 0q0.921875 0 1.296875 -0.21875q0.390625 -0.21875 0.609375 -0.671875q0.15625 -0.359375 0.15625 -1.484375l0 -6.65625q0 -1.46875 -0.234375 -1.984375q-0.21875 -0.515625 -0.859375 -0.875q-0.640625 -0.359375 -1.5 -0.359375q-1.015625 0 -2.046875 0.5q-1.53125 0.734375 -2.8125 1.921875l0 8.03125q0 0.71875 0.1875 1.0625q0.203125 0.328125 0.625 0.53125q0.421875 0.203125 1.15625 0.203125l0.578125 0l0 1.3125l-7.859375 0l0 -1.3125l0.421875 0q1.078125 0 1.421875 -0.171875q0.5 -0.234375 0.71875 -0.75q0.125 -0.28125 0.125 -1.453125l0 -9.140625l-2.6875 0zm40.453125 -8.96875l8.34375 0l0 1.328125l-0.640625 0q-0.90625 0 -1.3125 0.25q-0.40625 0.25 -0.59375 0.71875q-0.1875 0.453125 -0.1875 1.78125l0 14.046875q0 1.0625 0.203125 1.515625q0.203125 0.4375 0.5625 0.640625q0.375 0.203125 1.328125 0.203125l0.640625 0l0 1.3125l-8.34375 0l0 -1.3125l0.6875 0q0.921875 0 1.296875 -0.203125q0.390625 -0.21875 0.5625 -0.609375q0.171875 -0.40625 0.171875 -1.546875l0 -14.375q0 -1.203125 -0.171875 -1.609375q-0.171875 -0.421875 -0.5625 -0.609375q-0.375 -0.203125 -1.296875 -0.203125l-0.6875 0l0 -1.328125zm15.15625 16.5625l0 -5.546875q3.109375 0.03125 4.625 -0.515625q1.53125 -0.546875 2.328125 -1.671875q0.8125 -1.140625 0.8125 -2.546875q0 -1.28125 -0.71875 -2.515625q-0.703125 -1.25 -1.875 -1.9375q-1.171875 -0.6875 -2.5 -0.6875q-1.0625 0 -1.828125 0.40625q-0.765625 0.390625 -1.4375 1.34375q-0.65625 0.953125 -0.9375 1.171875q-0.546875 0.421875 -1.09375 0.421875q-0.375 0 -0.75 -0.1875q-0.359375 -0.203125 -0.5 -0.453125q-0.203125 -0.375 -0.203125 -0.75q0 -1.234375 1.4375 -2.171875q2.0 -1.296875 4.8125 -1.296875q2.53125 0 4.46875 0.953125q1.9375 0.9375 2.9375 2.5q1.0 1.5625 1.0 3.53125q0 3.078125 -2.453125 4.78125q-2.4375 1.703125 -6.5 1.71875l0 3.453125l-1.625 0zm0.796875 1.59375q0.8125 0 1.375 0.578125q0.578125 0.5625 0.578125 1.375q0 0.8125 -0.578125 1.390625q-0.578125 0.5625 -1.375 0.5625q-0.8125 0 -1.390625 -0.5625q-0.578125 -0.578125 -0.578125 -1.390625q0 -0.8125 0.5625 -1.375q0.578125 -0.578125 1.40625 -0.578125z" fill-rule="nonzero"/><path fill="#010000" fill-opacity="0.0" d="m176.03125 212.63449l0 0l0 37.5625l0 0l0 -37.5625z" fill-rule="nonzero"/><path fill="#000000" d="m9.0 244.85512l167.03125 0l0 2.880005l-167.03125 0l0 -2.880005z" fill-rule="nonzero"/><path fill="#000000" fill-opacity="0.0" d="m9.0 250.63449l49.921875 0l0 37.5625l-49.921875 0l0 -37.5625z" fill-rule="nonzero"/><path fill="#000000" d="m10.46875 258.97824l8.453125 0l0 1.328125l-0.78125 0q-0.90625 0 -1.28125 0.171875q-0.375 0.171875 -0.546875 0.5q-0.171875 0.328125 -0.171875 1.171875l0 15.203125q0 1.046875 0.078125 1.25q0.09375 0.28125 0.40625 0.40625q0.21875 0.09375 1.265625 0.09375l1.171875 0q2.015625 0 3.5 -0.578125q1.484375 -0.59375 2.5625 -1.703125q1.078125 -1.125 2.078125 -3.34375l1.390625 0.46875l-2.4375 6.828125l-15.6875 0l0 -1.3125l0.6875 0q1.0 0 1.34375 -0.171875q0.34375 -0.171875 0.53125 -0.5625q0.1875 -0.40625 0.1875 -1.375l0 -14.828125q0 -1.125 -0.171875 -1.5q-0.171875 -0.390625 -0.5 -0.546875q-0.328125 -0.171875 -1.390625 -0.171875l-0.6875 0l0 -1.328125zm19.6875 -0.734375l1.09375 0l0.15625 0.734375l13.375 0l0.125 -0.734375l1.140625 0l2.296875 6.40625l-1.40625 0.5q-1.015625 -2.5625 -2.40625 -3.59375q-1.390625 -1.046875 -3.5625 -1.046875q-0.90625 0 -1.078125 0.078125q-0.171875 0.0625 -0.25 0.234375q-0.0625 0.171875 -0.0625 1.09375l0 15.125q0 1.078125 0.109375 1.453125q0.125 0.375 0.34375 0.578125q0.21875 0.203125 0.59375 0.296875q0.390625 0.078125 1.71875 0.09375l0 1.3125l-8.40625 0l0 -1.3125q1.390625 -0.015625 1.703125 -0.09375q0.546875 -0.15625 0.78125 -0.59375q0.234375 -0.4375 0.234375 -1.609375l0 -15.453125q0 -0.71875 -0.078125 -0.875q-0.0625 -0.15625 -0.265625 -0.234375q-0.1875 -0.09375 -0.796875 -0.09375q-1.703125 0 -2.734375 0.4375q-1.015625 0.4375 -1.921875 1.484375q-0.90625 1.046875 -1.546875 2.71875l-1.40625 -0.5l2.25 -6.40625zm19.15625 0.734375l8.34375 0l0 1.328125l-0.640625 0q-0.90625 0 -1.3125 0.25q-0.40625 0.25 -0.59375 0.71875q-0.1875 0.453125 -0.1875 1.78125l0 14.046875q0 1.0625 0.203125 1.515625q0.203125 0.4375 0.5625 0.640625q0.375 0.203125 1.328125 0.203125l0.640625 0l0 1.3125l-8.34375 0l0 -1.3125l0.6875 0q0.921875 0 1.296875 -0.203125q0.390625 -0.21875 0.5625 -0.609375q0.171875 -0.40625 0.171875 -1.546875l0 -14.375q0 -1.203125 -0.171875 -1.609375q-0.171875 -0.421875 -0.5625 -0.609375q-0.375 -0.203125 -1.296875 -0.203125l-0.6875 0l0 -1.328125z" fill-rule="nonzero"/><path fill="#010000" fill-opacity="0.0" d="m58.921875 250.63449l0 0l0 37.5625l0 0l0 -37.5625z" fill-rule="nonzero"/><path fill="#000000" d="m9.0 282.85513l49.921875 0l0 2.8799744l-49.921875 0l0 -2.8799744z" fill-rule="nonzero"/><path fill="#000000" fill-opacity="0.0" d="m9.0 288.6345l128.0 0l0 37.5625l-128.0 0l0 -37.5625z" fill-rule="nonzero"/><path xmlns="http://www.w3.org/2000/svg" fill="#000000" d="m10.5 296.97824l6.890625 0l6.4375 17.265625l6.265625 -17.265625l6.65625 0l0 1.328125l-0.5625 0q-1.015625 0 -1.375 0.171875q-0.34375 0.171875 -0.546875 0.609375q-0.203125 0.421875 -0.203125 1.40625l0 14.375q0 1.359375 0.15625 1.765625q0.171875 0.40625 0.546875 0.625q0.390625 0.203125 1.421875 0.203125l0.5625 0l0 1.3125l-8.328125 0l0 -1.3125l0.59375 0q0.796875 0 1.15625 -0.125q0.375 -0.125 0.609375 -0.40625q0.25 -0.296875 0.28125 -0.609375q0.078125 -0.640625 0.078125 -1.0l0 -16.046875l-7.109375 19.5l-1.546875 0l-7.171875 -19.21875l0 15.453125q0 1.171875 0.203125 1.59375q0.203125 0.40625 0.625 0.640625q0.4375 0.21875 1.546875 0.21875l0.5 0l0 1.3125l-7.6875 0l0 -1.3125l0.4375 0q1.109375 0 1.578125 -0.234375q0.484375 -0.234375 0.6875 -0.65625q0.203125 -0.4375 0.203125 -1.703125l0 -14.234375q0 -1.1875 -0.171875 -1.5625q-0.171875 -0.390625 -0.578125 -0.578125q-0.390625 -0.1875 -1.40625 -0.1875l-0.75 0l0 -1.328125zm42.46875 17.765625l1.0 0.8125q-1.140625 1.359375 -2.21875 2.15625q-1.0625 0.796875 -2.015625 1.109375q-0.953125 0.328125 -2.234375 0.328125q-2.296875 0 -3.90625 -0.9375q-1.84375 -1.078125 -2.828125 -2.8125q-0.984375 -1.734375 -0.984375 -4.09375q0 -2.46875 0.953125 -4.21875q0.953125 -1.75 2.65625 -2.75q1.71875 -1.015625 3.96875 -1.015625q1.671875 0 2.90625 0.53125q1.234375 0.515625 2.09375 1.578125q0.859375 1.046875 1.25 2.40625q0.21875 0.796875 0.25 2.0625l-11.046875 0q-0.046875 0.765625 -0.046875 1.140625q0 1.96875 0.6875 3.515625q0.6875 1.53125 1.8125 2.265625q1.140625 0.71875 2.578125 0.71875q1.21875 0 2.359375 -0.5625q1.140625 -0.578125 2.765625 -2.234375zm-2.0 -6.3125q-0.234375 -1.4375 -0.671875 -2.125q-0.421875 -0.6875 -1.21875 -1.09375q-0.78125 -0.40625 -1.765625 -0.40625q-0.984375 0 -1.84375 0.40625q-0.859375 0.40625 -1.4375 1.125q-0.5625 0.71875 -0.984375 2.09375l7.921875 0zm9.375 -10.046875l1.109375 0l0 5.3125l4.640625 0l0 1.5625l-4.640625 0l0 9.421875q0 1.203125 0.203125 1.71875q0.21875 0.515625 0.71875 0.84375q0.515625 0.328125 1.140625 0.328125q1.484375 0 3.28125 -1.328125l0 1.515625q-2.046875 1.390625 -4.140625 1.390625q-1.1875 0 -2.15625 -0.53125q-0.953125 -0.53125 -1.3125 -1.25q-0.34375 -0.71875 -0.34375 -2.5l0 -9.609375l-2.734375 0l0 -1.3125q1.3125 -0.296875 2.109375 -0.921875q0.8125 -0.625 1.3125 -1.625q0.5 -1.0 0.8125 -3.015625zm27.875 -1.40625l1.171875 0l0 18.09375q0 1.28125 0.15625 1.65625q0.171875 0.359375 0.546875 0.546875q0.375 0.1875 1.484375 0.1875l1.53125 0l0 1.3125l-10.296875 0l0 -1.3125l1.703125 0q1.109375 0 1.46875 -0.1875q0.375 -0.203125 0.578125 -0.625q0.203125 -0.4375 0.203125 -1.578125l0 -14.875l-3.953125 0l0 -1.34375q3.234375 -0.453125 5.40625 -1.875zm19.0625 -0.375q2.40625 0 4.203125 1.234375q1.796875 1.21875 2.921875 3.84375q1.125 2.625 1.125 6.359375q0 5.53125 -2.765625 8.609375q-2.25 2.5 -5.6875 2.5q-2.328125 0 -4.125 -1.234375q-1.796875 -1.25 -2.90625 -3.734375q-1.109375 -2.484375 -1.109375 -6.3125q0 -3.859375 1.078125 -6.296875q1.09375 -2.4375 2.96875 -3.703125q1.875 -1.265625 4.296875 -1.265625zm-0.078125 1.546875q-1.625 0 -2.859375 1.1875q-1.078125 1.03125 -1.703125 3.25q-0.71875 2.53125 -0.71875 5.59375q0 2.375 0.4375 4.3125q0.453125 1.921875 1.1875 3.0q0.734375 1.0625 1.65625 1.578125q0.9375 0.515625 1.96875 0.515625q1.546875 0 2.890625 -1.203125q1.078125 -0.984375 1.703125 -2.9375q0.75 -2.375 0.75 -5.578125q0 -3.3125 -0.765625 -5.625q-0.765625 -2.3125 -1.890625 -3.203125q-1.109375 -0.890625 -2.65625 -0.890625zm20.703125 -1.171875l1.171875 0l0 18.09375q0 1.28125 0.15625 1.65625q0.171875 0.359375 0.546875 0.546875q0.375 0.1875 1.484375 0.1875l1.53125 0l0 1.3125l-10.296875 0l0 -1.3125l1.703125 0q1.109375 0 1.46875 -0.1875q0.375 -0.203125 0.578125 -0.625q0.203125 -0.4375 0.203125 -1.578125l0 -14.875l-3.953125 0l0 -1.34375q3.234375 -0.453125 5.40625 -1.875z" fill-rule="nonzero"/>
<path xmlns="http://www.w3.org/2000/svg" fill="#000000" d="m9.40625 334.97824l7.8125 0l0 1.328125l-0.828125 0q-0.8125 0 -1.109375 0.15625q-0.453125 0.25 -0.453125 0.75q0 0.359375 0.25 1.140625l4.46875 14.53125l3.875 -11.9375l-0.90625 -2.890625q-0.328125 -1.03125 -1.0 -1.484375q-0.40625 -0.265625 -1.421875 -0.265625l0 -1.328125l7.75 0l0 1.328125l-0.734375 0q-0.953125 0 -1.28125 0.234375q-0.328125 0.234375 -0.328125 0.640625q0 0.34375 0.25 1.171875l4.484375 14.625l4.515625 -14.625q0.234375 -0.765625 0.234375 -1.15625q0 -0.453125 -0.3125 -0.671875q-0.3125 -0.21875 -1.234375 -0.21875l-0.78125 0l0 -1.328125l6.65625 0l0 1.328125q-0.84375 -0.015625 -1.265625 0.171875q-0.40625 0.171875 -0.671875 0.515625q-0.265625 0.328125 -0.578125 1.359375l-6.015625 18.421875l-2.265625 0l-4.203125 -13.03125l-4.21875 13.03125l-2.25 0l-5.90625 -18.421875q-0.421875 -1.328125 -1.046875 -1.75q-0.46875 -0.296875 -1.484375 -0.296875l0 -1.328125zm39.359375 6.34375q2.296875 0 3.96875 0.953125q1.6875 0.953125 2.65625 2.78125q0.96875 1.828125 0.96875 4.171875q0 2.34375 -1.0 4.171875q-0.984375 1.828125 -2.703125 2.796875q-1.703125 0.953125 -4.078125 0.953125q-3.78125 0 -5.6875 -2.359375q-1.890625 -2.359375 -1.890625 -5.546875q0 -2.328125 0.984375 -4.125q0.984375 -1.8125 2.75 -2.796875q1.78125 -1.0 4.03125 -1.0zm-0.125 1.515625q-1.78125 0 -3.015625 1.40625q-1.5625 1.75 -1.5625 5.09375q0 3.21875 1.328125 4.90625q1.203125 1.5 3.265625 1.5q1.328125 0 2.359375 -0.703125q1.046875 -0.703125 1.6875 -2.234375q0.640625 -1.546875 0.640625 -3.625q0 -2.03125 -0.6875 -3.640625q-0.53125 -1.28125 -1.609375 -1.984375q-1.0625 -0.71875 -2.40625 -0.71875zm10.125 1.09375l0 -1.28125q1.140625 -0.09375 2.03125 -0.375q0.890625 -0.296875 2.03125 -0.953125l1.171875 0l0 2.953125q1.109375 -1.359375 2.578125 -2.15625q1.46875 -0.796875 2.640625 -0.796875q1.15625 0 1.828125 0.546875q0.671875 0.546875 0.671875 1.328125q0 0.5625 -0.453125 1.0q-0.4375 0.421875 -1.0625 0.421875q-0.28125 0 -0.484375 -0.078125q-0.203125 -0.078125 -0.59375 -0.34375q-0.859375 -0.5625 -1.4375 -0.5625q-0.78125 0 -1.71875 0.65625q-1.1875 0.84375 -1.859375 1.65625l0 7.203125q0 0.9375 0.09375 1.28125q0.109375 0.328125 0.34375 0.578125q0.234375 0.234375 0.578125 0.34375q0.34375 0.109375 1.203125 0.109375l0.515625 0l0 1.3125l-8.078125 0l0 -1.3125l0.671875 0q0.953125 0 1.25 -0.171875q0.40625 -0.234375 0.59375 -0.640625q0.203125 -0.421875 0.203125 -1.5l0 -9.21875l-2.71875 0zm13.890625 -7.484375l0 -1.28125q2.0 -0.15625 4.140625 -1.3125l1.203125 0l0 15.59375l5.734375 -4.5625q1.375 -1.09375 1.375 -1.453125q0 -0.21875 -0.296875 -0.34375q-0.1875 -0.078125 -0.921875 -0.078125l-0.828125 0l0 -1.3125l7.921875 0l0 1.3125q-1.328125 0 -2.125 0.28125q-0.796875 0.265625 -1.84375 1.0625l-4.53125 3.453125l5.34375 5.84375q0.765625 0.84375 1.25 1.1875q0.484375 0.34375 0.96875 0.484375q0.484375 0.125 1.515625 0.140625l0 1.3125l-8.3125 0l0 -1.3125l0.640625 0q0.953125 0 1.203125 -0.140625q0.25 -0.15625 0.25 -0.40625q0 -0.25 -0.46875 -0.71875q-0.078125 -0.078125 -0.171875 -0.1875l-4.15625 -4.78125l-2.546875 1.953125l0 2.046875q0 1.140625 0.171875 1.5q0.171875 0.359375 0.53125 0.546875q0.375 0.1875 1.421875 0.1875l0.578125 0l0 1.3125l-8.046875 0l0 -1.3125q1.359375 -0.015625 1.671875 -0.109375q0.546875 -0.171875 0.78125 -0.609375q0.25 -0.4375 0.25 -1.6875l0 -16.609375l-2.703125 0zm30.640625 5.25l1.09375 0l1.40625 4.78125l-1.40625 0.46875q-0.84375 -1.921875 -2.375 -3.015625q-1.515625 -1.109375 -3.078125 -1.109375q-1.203125 0 -1.953125 0.59375q-0.75 0.578125 -0.75 1.34375q0 0.71875 0.546875 1.234375q0.53125 0.53125 2.390625 1.203125l3.046875 1.078125q2.578125 0.921875 3.515625 1.96875q0.921875 1.0625 0.921875 2.40625q0 1.140625 -0.6875 2.203125q-0.6875 1.046875 -2.0 1.671875q-1.296875 0.625 -2.984375 0.625q-2.625 0 -4.5 -1.5l-0.328125 1.125l-1.109375 0l-1.953125 -5.109375l1.421875 -0.5625q1.421875 2.25 2.6875 3.1875q1.765625 1.328125 3.8125 1.328125q1.359375 0 2.234375 -0.71875q0.875 -0.734375 0.875 -1.625q0 -0.734375 -0.546875 -1.34375q-0.5625 -0.59375 -2.15625 -1.15625l-3.609375 -1.3125q-2.328125 -0.84375 -3.234375 -1.84375q-0.90625 -1.0 -0.90625 -2.296875q0 -1.578125 1.46875 -2.78125q1.484375 -1.21875 3.765625 -1.21875q1.1875 0 2.125 0.3125q0.9375 0.296875 1.84375 1.0l0.421875 -0.9375zm6.0625 -5.1875l0 -1.34375q1.515625 -0.203125 2.359375 -0.46875q0.84375 -0.28125 1.765625 -0.84375l1.21875 0l0 10.328125q1.765625 -1.484375 3.34375 -2.171875q1.578125 -0.6875 3.015625 -0.6875q2.09375 0 3.453125 1.25q1.34375 1.25 1.34375 3.046875l0 7.671875q0 1.140625 0.171875 1.5q0.1875 0.34375 0.609375 0.515625q0.421875 0.15625 1.890625 0.15625l0 1.3125l-8.0625 0l0 -1.3125l0.59375 0q1.140625 0 1.5 -0.171875q0.359375 -0.1875 0.515625 -0.59375q0.171875 -0.421875 0.171875 -1.71875l0 -5.328125q0 -1.765625 -0.125 -2.296875q-0.234375 -0.90625 -0.96875 -1.453125q-0.734375 -0.546875 -1.875 -0.546875q-1.28125 0 -2.6875 0.640625q-1.390625 0.625 -2.890625 1.890625l0 7.828125q0 0.875 0.15625 1.171875q0.15625 0.296875 0.515625 0.4375q0.359375 0.140625 1.4375 0.140625l0.640625 0l0 1.3125l-8.09375 0l0 -1.3125l0.484375 0q1.140625 0 1.65625 -0.28125q0.28125 -0.140625 0.40625 -0.546875q0.125 -0.40625 0.125 -2.25l0 -15.875l-2.671875 0zm29.015625 4.8125q2.296875 0 3.96875 0.953125q1.6875 0.953125 2.65625 2.78125q0.96875 1.828125 0.96875 4.171875q0 2.34375 -1.0 4.171875q-0.984375 1.828125 -2.703125 2.796875q-1.703125 0.953125 -4.078125 0.953125q-3.78125 0 -5.6875 -2.359375q-1.890625 -2.359375 -1.890625 -5.546875q0 -2.328125 0.984375 -4.125q0.984375 -1.8125 2.75 -2.796875q1.78125 -1.0 4.03125 -1.0zm-0.125 1.515625q-1.78125 0 -3.015625 1.40625q-1.5625 1.75 -1.5625 5.09375q0 3.21875 1.328125 4.90625q1.203125 1.5 3.265625 1.5q1.328125 0 2.359375 -0.703125q1.046875 -0.703125 1.6875 -2.234375q0.640625 -1.546875 0.640625 -3.625q0 -2.03125 -0.6875 -3.640625q-0.53125 -1.28125 -1.609375 -1.984375q-1.0625 -0.71875 -2.40625 -0.71875zm10.0 1.09375l0 -1.28125q1.171875 0 2.078125 -0.296875q0.90625 -0.296875 1.984375 -1.03125l1.234375 0l0 2.609375q1.953125 -1.546875 3.25 -2.078125q1.296875 -0.53125 2.59375 -0.53125q2.671875 0 4.546875 2.09375q1.890625 2.09375 1.890625 5.453125q0 3.71875 -2.140625 6.09375q-1.953125 2.1875 -5.03125 2.1875q-1.53125 0 -2.875 -0.578125q-0.96875 -0.40625 -2.234375 -1.453125l0 5.140625q0 1.15625 0.0625 1.359375q0.078125 0.296875 0.3125 0.5q0.234375 0.203125 0.59375 0.265625q0.265625 0.046875 1.78125 0.046875l0 1.3125l-8.046875 0l0 -1.3125l0.703125 0q1.078125 0 1.390625 -0.171875q0.328125 -0.15625 0.484375 -0.5q0.09375 -0.265625 0.09375 -1.625l0 -16.203125l-2.671875 0zm5.296875 1.609375l0 5.375q0 1.0625 0.125 1.578125q0.1875 0.796875 0.71875 1.4375q0.546875 0.640625 1.46875 1.09375q0.9375 0.453125 1.953125 0.453125q2.03125 0 3.515625 -1.53125q1.5 -1.53125 1.5 -4.640625q0 -2.90625 -1.234375 -4.484375q-1.234375 -1.59375 -2.921875 -1.59375q-1.09375 0 -2.375 0.578125q-1.28125 0.578125 -2.75 1.734375zm25.28125 -3.84375l1.09375 0l1.40625 4.78125l-1.40625 0.46875q-0.84375 -1.921875 -2.375 -3.015625q-1.515625 -1.109375 -3.078125 -1.109375q-1.203125 0 -1.953125 0.59375q-0.75 0.578125 -0.75 1.34375q0 0.71875 0.546875 1.234375q0.53125 0.53125 2.390625 1.203125l3.046875 1.078125q2.578125 0.921875 3.515625 1.96875q0.921875 1.0625 0.921875 2.40625q0 1.140625 -0.6875 2.203125q-0.6875 1.046875 -2.0 1.671875q-1.296875 0.625 -2.984375 0.625q-2.625 0 -4.5 -1.5l-0.328125 1.125l-1.109375 0l-1.953125 -5.109375l1.421875 -0.5625q1.421875 2.25 2.6875 3.1875q1.765625 1.328125 3.8125 1.328125q1.359375 0 2.234375 -0.71875q0.875 -0.734375 0.875 -1.625q0 -0.734375 -0.546875 -1.34375q-0.5625 -0.59375 -2.15625 -1.15625l-3.609375 -1.3125q-2.328125 -0.84375 -3.234375 -1.84375q-0.90625 -1.0 -0.90625 -2.296875q0 -1.578125 1.46875 -2.78125q1.484375 -1.21875 3.765625 -1.21875q1.1875 0 2.125 0.3125q0.9375 0.296875 1.84375 1.0l0.421875 -0.9375z" fill-rule="nonzero"/><path xmlns="http://www.w3.org/2000/svg" fill="#000000" d="m10.546875 372.97824l11.25 0q3.203125 0 4.84375 0.671875q1.640625 0.65625 2.515625 1.921875q0.890625 1.25 0.890625 2.90625q0 1.703125 -0.859375 3.03125q-0.859375 1.3125 -2.484375 2.078125q-1.609375 0.75 -4.28125 0.78125l5.75 7.03125q0.703125 0.875 0.921875 1.078125q0.546875 0.484375 1.140625 0.734375q0.609375 0.25 1.359375 0.25l0.390625 0l0 1.3125l-4.96875 0l-8.0 -10.40625l-2.796875 0l0 6.71875q0 1.125 0.078125 1.40625q0.171875 0.53125 0.546875 0.75q0.390625 0.21875 1.5 0.21875l0.5625 0l0 1.3125l-8.359375 0l0 -1.3125l0.75 0q0.84375 0 1.125 -0.109375q0.296875 -0.109375 0.515625 -0.375q0.234375 -0.28125 0.328125 -0.703125q0.03125 -0.171875 0.046875 -1.578125l0 -14.28125q0 -0.9375 -0.1875 -1.34375q-0.1875 -0.40625 -0.53125 -0.578125q-0.328125 -0.1875 -1.15625 -0.1875l-0.890625 0l0 -1.328125zm5.671875 1.703125l0 8.203125l4.484375 0q2.28125 0 3.203125 -0.28125q1.3125 -0.375 2.0625 -1.375q0.765625 -1.0 0.765625 -2.546875q0 -1.3125 -0.546875 -2.203125q-0.546875 -0.90625 -1.5 -1.34375q-0.9375 -0.453125 -2.8125 -0.453125l-5.65625 0zm30.359375 16.0625l1.0 0.8125q-1.140625 1.359375 -2.21875 2.15625q-1.0625 0.796875 -2.015625 1.109375q-0.953125 0.328125 -2.234375 0.328125q-2.296875 0 -3.90625 -0.9375q-1.84375 -1.078125 -2.828125 -2.8125q-0.984375 -1.734375 -0.984375 -4.09375q0 -2.46875 0.953125 -4.21875q0.953125 -1.75 2.65625 -2.75q1.71875 -1.015625 3.96875 -1.015625q1.671875 0 2.90625 0.53125q1.234375 0.515625 2.09375 1.578125q0.859375 1.046875 1.25 2.40625q0.21875 0.796875 0.25 2.0625l-11.046875 0q-0.046875 0.765625 -0.046875 1.140625q0 1.96875 0.6875 3.515625q0.6875 1.53125 1.8125 2.265625q1.140625 0.71875 2.578125 0.71875q1.21875 0 2.359375 -0.5625q1.140625 -0.578125 2.765625 -2.234375zm-2.0 -6.3125q-0.234375 -1.4375 -0.671875 -2.125q-0.421875 -0.6875 -1.21875 -1.09375q-0.78125 -0.40625 -1.765625 -0.40625q-0.984375 0 -1.84375 0.40625q-0.859375 0.40625 -1.4375 1.125q-0.5625 0.71875 -0.984375 2.09375l7.921875 0zm5.171875 -4.734375l2.671875 0l0 -2.34375q0 -2.421875 1.59375 -3.953125q1.609375 -1.546875 4.1875 -1.546875q1.71875 0 2.671875 0.71875q0.96875 0.71875 0.96875 1.5625q0 0.5625 -0.390625 0.953125q-0.375 0.375 -0.953125 0.375q-0.515625 0 -0.890625 -0.1875q-0.375 -0.1875 -1.15625 -0.9375q-0.828125 -0.78125 -1.578125 -0.78125q-0.515625 0 -0.9375 0.328125q-0.40625 0.3125 -0.640625 0.9375q-0.21875 0.609375 -0.21875 1.890625l0 2.984375l2.9375 0l0 1.59375l-2.9375 0l0 10.140625q0 1.046875 0.15625 1.40625q0.15625 0.34375 0.46875 0.484375q0.3125 0.140625 1.453125 0.140625l0.640625 0l0 1.3125l-8.046875 0l0 -1.3125l0.484375 0q1.234375 0 1.5625 -0.15625q0.34375 -0.15625 0.484375 -0.5q0.15625 -0.359375 0.140625 -1.609375l0 -9.90625l-2.671875 0l0 -1.59375zm10.15625 -5.25l0 -1.28125q2.125 -0.15625 4.140625 -1.3125l1.15625 0l0 19.234375q0 1.21875 0.15625 1.53125q0.203125 0.4375 0.59375 0.640625q0.390625 0.203125 1.5 0.203125l0.5 0l0 1.3125l-8.046875 0l0 -1.3125l0.8125 0q0.765625 0 1.140625 -0.234375q0.390625 -0.234375 0.546875 -0.640625q0.171875 -0.40625 0.171875 -1.625l0 -16.515625l-2.671875 0zm23.140625 16.296875l1.0 0.8125q-1.140625 1.359375 -2.21875 2.15625q-1.0625 0.796875 -2.015625 1.109375q-0.953125 0.328125 -2.234375 0.328125q-2.296875 0 -3.90625 -0.9375q-1.84375 -1.078125 -2.828125 -2.8125q-0.984375 -1.734375 -0.984375 -4.09375q0 -2.46875 0.953125 -4.21875q0.953125 -1.75 2.65625 -2.75q1.71875 -1.015625 3.96875 -1.015625q1.671875 0 2.90625 0.53125q1.234375 0.515625 2.09375 1.578125q0.859375 1.046875 1.25 2.40625q0.21875 0.796875 0.25 2.0625l-11.046875 0q-0.046875 0.765625 -0.046875 1.140625q0 1.96875 0.6875 3.515625q0.6875 1.53125 1.8125 2.265625q1.140625 0.71875 2.578125 0.71875q1.21875 0 2.359375 -0.5625q1.140625 -0.578125 2.765625 -2.234375zm-2.0 -6.3125q-0.234375 -1.4375 -0.671875 -2.125q-0.421875 -0.6875 -1.21875 -1.09375q-0.78125 -0.40625 -1.765625 -0.40625q-0.984375 0 -1.84375 0.40625q-0.859375 0.40625 -1.4375 1.125q-0.5625 0.71875 -0.984375 2.09375l7.921875 0zm19.078125 5.984375l1.0 0.8125q-2.9375 3.921875 -7.046875 3.921875q-3.203125 0 -5.40625 -2.28125q-2.203125 -2.28125 -2.203125 -5.671875q0 -2.265625 1.015625 -4.0625q1.03125 -1.8125 2.84375 -2.8125q1.828125 -1.0 4.1875 -1.0q2.6875 0 4.484375 1.328125q1.796875 1.3125 1.796875 2.65625q0 0.71875 -0.421875 1.109375q-0.421875 0.390625 -0.953125 0.390625q-0.28125 0 -0.546875 -0.140625q-0.265625 -0.140625 -0.546875 -0.453125q-0.125 -0.140625 -0.453125 -0.875q-0.421875 -0.90625 -0.65625 -1.21875q-0.484375 -0.625 -1.203125 -0.984375q-0.703125 -0.359375 -1.578125 -0.359375q-1.328125 0 -2.46875 0.734375q-1.125 0.734375 -1.796875 2.171875q-0.65625 1.421875 -0.65625 3.40625q0 3.078125 1.640625 4.890625q1.421875 1.5625 3.390625 1.5625q0.90625 0 1.828125 -0.296875q0.9375 -0.3125 1.765625 -0.90625q0.609375 -0.421875 1.984375 -1.921875zm6.9375 -16.03125l1.109375 0l0 5.3125l4.640625 0l0 1.5625l-4.640625 0l0 9.421875q0 1.203125 0.203125 1.71875q0.21875 0.515625 0.71875 0.84375q0.515625 0.328125 1.140625 0.328125q1.484375 0 3.28125 -1.328125l0 1.515625q-2.046875 1.390625 -4.140625 1.390625q-1.1875 0 -2.15625 -0.53125q-0.953125 -0.53125 -1.3125 -1.25q-0.34375 -0.71875 -0.34375 -2.5l0 -9.609375l-2.734375 0l0 -1.3125q1.3125 -0.296875 2.109375 -0.921875q0.8125 -0.625 1.3125 -1.625q0.5 -1.0 0.8125 -3.015625zm11.90625 -2.109375q0.75 0 1.28125 0.53125q0.53125 0.515625 0.53125 1.265625q0 0.75 -0.53125 1.28125q-0.53125 0.53125 -1.28125 0.53125q-0.75 0 -1.28125 -0.53125q-0.53125 -0.53125 -0.53125 -1.28125q0 -0.75 0.53125 -1.265625q0.53125 -0.53125 1.28125 -0.53125zm-3.984375 9.671875l0 -1.296875q1.296875 -0.15625 2.171875 -0.4375q0.890625 -0.28125 2.015625 -0.890625l1.140625 0l0 12.53125q0 0.65625 0.1875 0.984375q0.1875 0.328125 0.515625 0.484375q0.34375 0.140625 1.234375 0.140625l0.734375 0l0 1.3125l-8.0 0l0 -1.3125l0.640625 0q1.046875 0 1.40625 -0.1875q0.359375 -0.1875 0.5 -0.53125q0.15625 -0.34375 0.15625 -1.609375l0 -9.1875l-2.703125 0zm17.609375 -2.625q2.296875 0 3.96875 0.953125q1.6875 0.953125 2.65625 2.78125q0.96875 1.828125 0.96875 4.171875q0 2.34375 -1.0 4.171875q-0.984375 1.828125 -2.703125 2.796875q-1.703125 0.953125 -4.078125 0.953125q-3.78125 0 -5.6875 -2.359375q-1.890625 -2.359375 -1.890625 -5.546875q0 -2.328125 0.984375 -4.125q0.984375 -1.8125 2.75 -2.796875q1.78125 -1.0 4.03125 -1.0zm-0.125 1.515625q-1.78125 0 -3.015625 1.40625q-1.5625 1.75 -1.5625 5.09375q0 3.21875 1.328125 4.90625q1.203125 1.5 3.265625 1.5q1.328125 0 2.359375 -0.703125q1.046875 -0.703125 1.6875 -2.234375q0.640625 -1.546875 0.640625 -3.625q0 -2.03125 -0.6875 -3.640625q-0.53125 -1.28125 -1.609375 -1.984375q-1.0625 -0.71875 -2.40625 -0.71875zm10.171875 1.109375l0 -1.3125q1.390625 -0.15625 2.078125 -0.375q0.6875 -0.21875 1.984375 -0.9375l1.125 0l0 2.96875q2.0625 -1.734375 3.515625 -2.34375q1.46875 -0.625 2.96875 -0.625q1.28125 0 2.265625 0.4375q0.984375 0.421875 1.59375 1.15625q0.625 0.734375 0.828125 1.671875q0.125 0.578125 0.125 1.75l0 6.875q0 1.234375 0.171875 1.59375q0.1875 0.34375 0.578125 0.5q0.390625 0.15625 1.921875 0.15625l0 1.3125l-8.046875 0l0 -1.3125l0.4375 0q1.125 0 1.53125 -0.203125q0.40625 -0.203125 0.578125 -0.59375q0.1875 -0.390625 0.1875 -1.59375l0 -5.75q0 -1.78125 -0.296875 -2.46875q-0.28125 -0.6875 -0.984375 -1.109375q-0.6875 -0.4375 -1.75 -0.4375q-1.265625 0 -2.703125 0.65625q-1.4375 0.640625 -2.78125 1.90625l0 7.203125q0 1.21875 0.171875 1.625q0.1875 0.40625 0.59375 0.609375q0.28125 0.15625 1.5 0.15625l0.453125 0l0 1.3125l-8.046875 0l0 -1.3125l0.390625 0q1.15625 0 1.578125 -0.1875q0.421875 -0.203125 0.59375 -0.703125q0.09375 -0.25 0.09375 -1.71875l0 -8.90625l-2.65625 0z" fill-rule="nonzero"/><path fill="#010000" fill-opacity="0.0" d="m137.0 288.6345l0 0l0 37.5625l0 0l0 -37.5625z" fill-rule="nonzero"/><path xmlns="http://www.w3.org/2000/svg" fill="#000000" d="m9.0 320.85513l128.0 0l0 2.8799744l-128.0 0l0 -2.8799744z" fill-rule="nonzero"/>
<path xmlns="http://www.w3.org/2000/svg" fill="#000000" d="m9.0 358.85513l174.73438 0l0 2.8799744l-174.73438 0l0 -2.8799744z" fill-rule="nonzero"/>
<path xmlns="http://www.w3.org/2000/svg" fill="#000000" fill-opacity="0.0" d="m9.0 364.6345l153.59375 0l0 37.5625l-153.59375 0l0 -37.5625z" fill-rule="nonzero"/>
<path xmlns="http://www.w3.org/2000/svg" fill="#000000" fill-opacity="0.0" d="m9.0 364.6345l153.59375 0l0 37.5625l-153.59375 0l0 -37.5625z" fill-rule="nonzero"/><path xmlns="http://www.w3.org/2000/svg" fill="#000000" d="m9.0 396.85513l153.59375 0l0 2.8799744l-153.59375 0l0 -2.8799744z" fill-rule="nonzero"/>
<a xlink:href="#slide=id.g64dfe0b81a_0_0" target="_blank" rel="noreferrer"><path fill="transparent" fill-opacity="0" d="m9.0 212.05511l167.03125 0l0 38.40001l-167.03125 0l0 -38.40001z" fill-rule="nonzero"/></a><a xlink:href="#slide=id.g63cf9909f2_0_20" target="_blank" rel="noreferrer"><path fill="transparent" fill-opacity="0" d="m9.0 250.05511l49.921875 0l0 38.399994l-49.921875 0l0 -38.399994z" fill-rule="nonzero"/></a><a xlink:href="#slide=id.g63cf9909f2_0_0" target="_blank" rel="noreferrer"><path fill="transparent" fill-opacity="0" d="m9.0 288.0551l128.0 0l0 38.399994l-128.0 0l0 -38.399994z" fill-rule="nonzero"/></a></g>
<style xmlns="http://www.w3.org/2000/svg">
    @keyframes alternateUp {
        50% {transform:translateY(20px);}
    }
    @keyframes alternateDown {
        50% {transform:translateY(-20px);}
    }
    @keyframes alternateLeft {
        50% {transform:translateX(20px);}
    }
    @keyframes alternateRight {
        50% {transform:translateX(-20px);}
    }
</style>
</svg>