<svg version="1.1" viewBox="0.0 0.0 960.0 540.0" fill="none" stroke="none" stroke-linecap="square" stroke-miterlimit="10" xmlns:xlink="http://www.w3.org/1999/xlink" xmlns="http://www.w3.org/2000/svg"><clipPath id="g6f5a830e83_0_12.0"><path d="m0 0l960.0 0l0 540.0l-960.0 0l0 -540.0z" clip-rule="nonzero"/></clipPath><g clip-path="url(#g6f5a830e83_0_12.0)"><path fill="#ffffff" d="m0 0l960.0 0l0 540.0l-960.0 0z" fill-rule="evenodd"/><path fill="#000000" d="m-67.60104 8.201832l1018.8976 -179.52756l61.858276 351.40158l-1018.89764 179.52754z" fill-rule="evenodd"/><path stroke="#000000" stroke-width="1.0" stroke-linejoin="round" stroke-linecap="butt" d="m-67.60104 8.201832l1018.8976 -179.52756l61.858276 351.40158l-1018.89764 179.52754z" fill-rule="evenodd"/><path fill="#000000" fill-opacity="0.0" d="m21.401564 156.59908l887.9055 -156.59842l29.29132 166.20471l-887.9055 156.59843z" fill-rule="evenodd"/><path fill="#ffffff" d="m196.10834 155.92749l16.972427 -2.993393l23.342133 39.72136l7.925293 -45.235947l16.38771 -2.890274l0.5776367 3.2776184l-1.3848877 0.24424744q-2.4927673 0.43963623 -3.2939148 1.0251923q-0.7884979 0.56744385 -1.1091614 1.7187653q-0.3079834 1.1332245 0.1204834 3.564499l6.2373962 35.392075q0.58847046 3.3391724 1.1648254 4.2688293q0.59173584 0.92692566 1.6225586 1.2845764q1.0308533 0.3576355 3.5697937 -0.090148926l1.3848877 -0.24424744l0.5694885 3.2314453l-20.49617 3.6148682l-0.5694885 -3.2314453l1.4618073 -0.2578125q1.9542084 -0.34466553 2.807846 -0.8125458q0.85362244 -0.467865 1.3135986 -1.2788391q0.47265625 -0.82907104 0.41400146 -1.61203q-0.07658386 -1.6048431 -0.23387146 -2.497345l-6.9614563 -39.500626l-9.04985 51.098495l-3.8007202 0.67033386l-26.003967 -44.20215l6.703827 38.038788q0.5098419 2.8929138 1.1812286 3.8216705q0.6867676 0.92604065 1.8488464 1.308136q1.1593628 0.36671448 3.882965 -0.11364746l1.2309875 -0.21710205l0.5695038 3.2314453l-18.926636 3.3380585l-0.5695038 -3.2314453l1.0771332 -0.18997192q2.738968 -0.483078 3.8080902 -1.2586823q1.066391 -0.7909851 1.3716736 -1.9395905q0.32066345 -1.1513214 -0.22714233 -4.259674l-6.177719 -35.053543q-0.5152588 -2.9236908 -1.1115265 -3.7863617q-0.58088684 -0.86538696 -1.647049 -1.1533356q-1.050766 -0.29066467 -3.5589294 0.15170288l-1.8465118 0.32566833l-0.5776367 -3.2776184zm93.81589 -0.44200134q5.647217 -0.9960022 10.2013855 0.62831116q4.5514526 1.6089325 7.731079 5.6969147q3.176941 4.0726166 4.1939087 9.843063q1.0169678 5.770447 -0.6350708 10.710587q-1.6547241 4.924759 -5.4532776 8.038101q-3.783142 3.110611 -9.630402 4.141876q-9.309448 1.6418915 -15.009644 -3.3343048q-5.7029114 -4.9916077 -7.085968 -12.839401q-1.0115356 -5.739685 0.6232605 -10.597458q1.6474915 -4.875885 5.5863647 -8.093292q3.9388428 -3.2174072 9.478363 -4.194397zm0.3512268 3.793518q-4.385437 0.77345276 -6.821991 4.7730713q-3.0875244 4.9870605 -1.6366577 13.219574q1.3966064 7.9247437 5.406372 11.501419q3.6052551 3.1720123 8.683136 2.2764435q3.2775574 -0.57806396 5.528137 -2.751999q2.2478943 -2.189331 3.1502686 -6.2515564q0.9151001 -4.0803375 0.01473999 -9.189102q-0.8813782 -5.001053 -3.2736816 -8.672592q-1.8638611 -2.9238434 -4.8015747 -4.198593q-2.9404297 -1.2901459 -6.248749 -0.70666504zm50.55182 -11.819244l2.69281 -0.4749298l5.5367737 11.161102l-3.258789 1.7647095q-2.909851 -4.3576965 -7.1417236 -6.403778q-4.234558 -2.0614777 -8.081421 -1.3829956q-2.9544067 0.5210571 -4.54599 2.2931824q-1.5915833 1.7721252 -1.2607422 3.6494446q0.31188965 1.7695923 1.8756714 2.8106842q1.5384521 1.0772858 6.4141235 1.9150543l7.96286 1.3404541q6.7536926 1.1411743 9.517426 3.3192596q2.722992 2.2169952 3.3060608 5.5253906q0.4935608 2.800583 -0.7407532 5.6996613q-1.234314 2.8990784 -4.179138 5.0050507q-2.9294128 2.1032715 -7.084015 2.836029q-6.4627686 1.1398163 -11.729889 -1.7391052l-0.32739258 2.9136505l-2.7235718 0.48034668l-7.0346375 -11.7378235l3.2642822 -2.003662q4.4692383 4.9235687 7.999695 6.680832q4.916931 2.5123138 9.96402 1.6221619q3.3390808 -0.58891296 5.178772 -2.7538452q1.8369446 -2.180313 1.4518738 -4.365402q-0.32000732 -1.8157654 -1.9217834 -3.072281q-1.6425171 -1.2175903 -5.8103943 -1.9104614l-9.46347 -1.6628418q-6.090271 -1.0677948 -8.755371 -3.1363373q-2.6651 -2.0685577 -3.2291565 -5.269226q-0.68341064 -3.8777466 2.421936 -7.5034637q3.1053467 -3.6257172 8.721771 -4.616272q2.923645 -0.51564026 5.3646545 -0.16871643q2.4410095 0.34692383 4.9759216 1.6768494l0.6395874 -2.4927216zm22.738037 -17.496506l2.7236023 -0.48034668l2.3051147 13.079681l11.432922 -2.0164032l0.6779785 3.8469543l-11.432922 2.0164185l4.0895386 23.20488q0.5206909 2.9544678 1.2689514 4.139389q0.74554443 1.1695404 2.1356812 1.765274q1.3873901 0.5803375 2.9261475 0.30895996q3.6622314 -0.64590454 7.5035095 -4.6870117l0.6562805 3.7238617q-4.426941 4.318924 -9.581757 5.228073q-2.923645 0.51564026 -5.523834 -0.37438965q-2.6001892 -0.89004517 -3.7737427 -2.50766q-1.173584 -1.61763 -1.9464722 -6.003174l-4.1708984 -23.66652l-6.739746 1.1886749l-0.5694885 -3.2314606q3.1039124 -1.2931366 4.8177185 -3.1820068q1.7138062 -1.8888855 2.5108948 -4.568054q0.7970886 -2.6791687 0.69052124 -7.785141zm45.08304 -11.521095l21.20401 -3.7397156q9.647949 -1.7015991 13.52713 -1.1164703q4.8277283 0.6558304 8.4366455 3.668541q3.6089172 3.0127182 4.5716553 8.47541q0.8216858 4.662529 -0.8590393 8.449501q-2.0049438 4.558136 -5.612335 6.9555206q-3.6074219 2.3973694 -11.993622 3.8764343l-9.801819 1.7287292l2.4271545 13.7721405q0.5423584 3.0775604 1.0246277 3.8334198q0.65689087 1.0265045 1.535675 1.3316345q0.89419556 0.30241394 3.3561707 -0.13180542l1.8465271 -0.32566833l0.5694885 3.2314606l-20.773132 3.6637115l-0.56951904 -3.2314453l1.2771606 -0.22525024q2.6466675 -0.46678162 3.5220337 -1.0812988q0.8907776 -0.617218 1.1716003 -1.6345825q0.28079224 -1.0173645 -0.18023682 -3.6333008l-6.467865 -36.700035q-0.44747925 -2.5390015 -1.014801 -3.327446q-0.554657 -0.8065491 -1.5638123 -1.0410843q-1.0091248 -0.23453522 -3.7789001 0.25395966l-1.2771606 0.22525024l-0.5776367 -3.2776108zm14.789154 1.7231216l3.9648132 22.49704l8.263092 -1.4573364q6.2781067 -1.1072693 8.591003 -2.657547q2.325592 -1.5683899 3.4893188 -4.597809q1.1764221 -3.0475311 0.52557373 -6.740616q-0.7132263 -4.0470047 -3.1139526 -6.4160385q-2.4007568 -2.3690262 -5.8799133 -2.754982q-2.4220276 -0.23921204 -9.115601 0.9413223l-6.7243347 1.1859665zm37.182983 11.846832l-0.5559387 -3.1545105q2.775238 -0.72746277 4.8355103 -1.8206635q2.0729675 -1.1113129 4.588745 -3.2209625l2.8928528 -0.51020813l1.2827148 7.2784576q2.1324158 -3.8349075 5.4040527 -6.4269257q3.2689514 -2.6074066 6.161804 -3.1176147q2.8466797 -0.50206757 4.7318115 0.56168365q1.8977661 1.045639 2.2367554 2.9691238q0.24407959 1.3849106 -0.6766968 2.642067q-0.9053955 1.2544479 -2.4441528 1.5258408q-0.69244385 0.12211609 -1.2327576 0.027023315q-0.5276489 -0.113204956 -1.5982971 -0.60661316q-2.3675537 -1.0103989 -3.7832031 -0.7607193q-1.9234314 0.3392334 -3.9468079 2.3620377q-2.5575256 2.5930023 -3.8668213 4.8865204l3.1268005 17.742203q0.40679932 2.3081665 0.7994385 3.0957031q0.40533447 0.7694092 1.0804138 1.2691345q0.6904907 0.49699402 1.5856323 0.6247101q0.892395 0.112335205 3.0004883 -0.2594757l1.2771606 -0.22525024l0.56951904 3.2314606l-19.896057 3.5090332l-0.5694885 -3.2314606l1.6618347 -0.29309082q2.3388977 -0.4125061 3.0015564 -0.9736328q0.8998718 -0.74575806 1.197876 -1.8454895q0.2953186 -1.1151123 -0.17111206 -3.7618256l-4.000061 -22.697083l-6.693573 1.1805267zm53.038147 -15.986305q5.647217 -0.99598694 10.201416 0.6283188q4.5514526 1.6089249 7.731079 5.6969223q3.176941 4.0726013 4.1939087 9.843056q1.0169678 5.770447 -0.6350708 10.710587q-1.6547241 4.924759 -5.453308 8.038101q-3.783142 3.110611 -9.630371 4.141876q-9.309448 1.6418915 -15.009644 -3.3343048q-5.7029114 -4.9916077 -7.085968 -12.839401q-1.0115356 -5.739685 0.6232605 -10.597458q1.6474915 -4.875885 5.5863647 -8.093292q3.9388428 -3.2174072 9.4783325 -4.1944046zm0.35125732 3.7935257q-4.385437 0.77345276 -6.821991 4.7730713q-3.087555 4.9870605 -1.6366882 13.219574q1.396637 7.9247437 5.4064026 11.501419q3.6052551 3.1720123 8.683136 2.2764435q3.2775269 -0.57806396 5.528137 -2.751999q2.2478638 -2.189331 3.1502686 -6.2515564q0.9151001 -4.0803375 0.014709473 -9.189102q-0.88134766 -5.001053 -3.2736206 -8.6726q-1.8638916 -2.9238281 -4.8016357 -4.1985855q-2.9404297 -1.2901459 -6.2487183 -0.70666504zm22.4234 -6.858284l14.487061 -3.1420975l4.36615 24.774445q0.5749512 3.2622375 1.8063965 5.028305q1.2468262 1.7633667 3.2958374 2.4967499q2.064392 0.7306671 4.55719 0.29103088q3.0775146 -0.54278564 6.6957397 -2.878601q3.6155396 -2.3512115 6.9155884 -6.312729l-3.1593628 -17.92685q-0.501709 -2.846756 -1.0871582 -3.647873q-0.5727539 -0.8192215 -1.744812 -1.1678238q-1.1719971 -0.34860992 -3.4801636 0.05847168l-2.800476 0.493927l-0.56951904 -3.231453l14.471619 -3.1393814l5.057678 28.698357q0.48815918 2.769806 1.1369019 3.7501526q0.6460571 0.9649658 1.6325684 1.2510986q0.98651123 0.2861328 3.710083 -0.19422913l1.2002563 -0.21168518l0.569458 3.2314606l-12.655029 2.9141846l-1.2556152 -7.1245728q-4.540283 5.1163483 -8.182007 7.408722q-3.6417847 2.2923737 -7.67334 3.0034027q-3.0005493 0.5292053 -5.3601074 0.10444641q-2.3568115 -0.4093628 -4.3187866 -1.7292786q-1.9465942 -1.3226318 -3.237732 -3.427246q-1.2784424 -2.1227112 -1.7340698 -4.7078705l-3.083435 -17.495995q-0.414917 -2.3543396 -1.0111694 -3.2170105q-0.5808716 -0.86538696 -1.6633301 -1.2456589q-1.085144 -0.39566803 -2.777771 -0.09713745l-3.5391235 0.6241913l-0.56951904 -3.231453zm77.381775 -26.848335l-0.5776367 -3.2776108q2.5751953 -0.6921768 4.628235 -1.7365112q2.050354 -1.0597229 5.034973 -3.2996674l2.8774414 -0.50749207l8.22522 46.67138q0.56951904 3.231453 0.84539795 3.8967667q0.642334 1.3940048 1.6686401 1.8159103q1.0236206 0.4065094 3.685608 -0.06298828l1.6464844 -0.29039l0.56951904 3.2314606l-13.232483 2.9684296l-1.0793457 -6.124359q-3.2285767 4.186905 -6.3408203 6.243088q-3.1122437 2.0561829 -6.4974976 2.6532288q-6.955139 1.2266693 -12.543152 -3.5630646q-5.5880127 -4.789734 -6.9765015 -12.66832q-0.9898071 -5.616562 0.63238525 -10.725983q1.6221924 -5.109413 5.189026 -8.277077q3.5668335 -3.1676636 8.336975 -4.0089645q3.6468506 -0.6431885 6.9802246 0.0858078q3.3460083 0.7108841 6.378601 2.793953l-2.9885254 -16.95742l-6.4627686 1.1398239zm13.622192 39.484123l-2.5627441 -14.541527q-0.5505371 -3.1237335 -2.0824585 -4.8844147q-1.5192871 -1.7787781 -4.4543457 -2.7684097q-2.9196777 -0.9923477 -5.7355957 -0.49571228q-3.3391113 0.58891296 -5.8476562 2.9194183q-2.5113525 2.315117 -3.5041504 6.044243q-0.977478 3.72641 -0.11779785 8.6043625q0.81359863 4.616356 2.8847046 7.7257614q2.071106 3.1094208 4.873047 4.4239807q2.8145752 1.296463 5.430481 0.8351135q2.585083 -0.45593262 5.586914 -2.5084991q3.0171509 -2.0552979 5.529602 -5.3543167zm65.071106 -58.17057q7.3398438 -1.2945099 13.887756 1.199852q7.104553 2.6817932 11.607117 8.154808q4.5180054 5.470299 5.9282227 13.471985q2.1831055 12.387222 -4.1330566 21.561188q-6.3187866 9.158585 -18.24414 11.261833q-13.310181 2.347496 -22.735107 -5.6685944q-7.6901855 -6.5450363 -9.5668335 -17.193436q-1.3966064 -7.9247513 1.0640869 -14.848q2.4761353 -6.9259644 8.40387 -11.731712q5.9404297 -4.823845 13.788086 -6.207924zm0.73217773 4.154724q-6.0010986 1.0584106 -9.824158 4.5727234q-3.82312 3.514305 -5.4798584 9.327927q-1.6594238 5.798233 -0.2763672 13.646042q1.3206787 7.493889 4.7943726 12.259865q3.4890137 4.7632675 8.285645 6.773201q4.796692 2.0099335 10.182312 1.0600739q5.3394775 -0.9417114 8.970642 -4.3745728q3.6438599 -3.4509735 5.3115234 -9.742508q1.6650391 -6.3069305 0.40942383 -13.431503q-1.2745972 -7.2323 -5.0250854 -12.758636q-3.2166138 -4.7478485 -7.466614 -6.536865q-4.234619 -1.7917328 -9.881836 -0.79574585zm35.69055 7.4295425l6.5858765 -1.1615372l-1.0169678 -5.770447q-1.0494995 -5.955101 2.2225342 -10.435265q3.2694092 -4.495552 9.624451 -5.616379q4.2315674 -0.746315 6.897705 0.60806656q2.6815186 1.3516655 3.0476685 3.4290276q0.24401855 1.3849068 -0.5264282 2.5045013q-0.7732544 1.1042061 -2.2042847 1.3565941q-1.2617798 0.222538 -2.2663574 -0.07626343q-1.0046387 -0.29880524 -3.253479 -1.8061142q-2.385559 -1.5625381 -4.2320557 -1.2368736q-1.2617798 0.222538 -2.154419 1.189148q-0.8772583 0.9638939 -1.1627197 2.5849915q-0.28552246 1.6211014 0.27044678 4.775612l1.2935791 7.340004l7.2321167 -1.2755127l0.6915283 3.9239044l-7.2321167 1.2755127l4.401428 24.974495q0.45288086 2.5697784 0.99212646 3.379036q0.53656006 0.79387665 1.3683472 1.0121002q0.8290405 0.20284271 3.6295166 -0.2910843l1.5849609 -0.27952576l0.569458 3.2314453l-19.819092 3.4954681l-0.56951904 -3.231453l1.2002563 -0.21167755q3.031311 -0.53463745 3.7944336 -1.0658798q0.76312256 -0.5312424 0.96520996 -1.4553833q0.21472168 -0.9422455 -0.35845947 -4.014389l-4.29834 -24.389755l-6.5858765 1.1615372l-0.6915283 -3.9239044z" fill-rule="nonzero"/><path fill="#ffffff" d="m177.8999 247.5597l1.66185 -0.29310608l4.8319244 10.222366l-2.0484924 0.980072q-2.3796844 -3.4198914 -3.5099182 -4.521576q-1.8405914 -1.8014526 -4.252533 -2.613617q-2.4119415 -0.8121643 -5.07399 -0.34266663q-3.1082764 0.5482025 -5.443939 2.6895447q-2.320282 2.1386414 -3.3818665 5.6577606q-1.0461884 3.516388 -0.33566284 7.5480347q0.73220825 4.1546936 2.953598 7.1265564q2.2186737 2.9564514 5.34375 4.21402q3.1250763 1.2575989 6.3872223 0.682251q3.0621185 -0.5400696 5.9535675 -2.8587646q2.9068298 -2.3214111 4.7051697 -5.891144l2.0688782 0.9361267q-1.0567932 2.3759155 -2.4582977 4.14624q-2.2109222 2.8492126 -4.8569336 4.4899597q-2.6333313 1.6226807 -6.018585 2.2197266q-7.5091095 1.3243713 -13.16861 -3.4210205q-4.691223 -3.9324646 -5.813965 -10.30304q-0.8244171 -4.6779175 0.64460754 -8.8559265q1.4844208 -4.1807556 4.8611298 -7.076889q3.3740082 -2.9115295 7.7440643 -3.6822662q2.3235016 -0.40979004 4.43779 -0.11630249q2.111557 0.27809143 4.4048767 1.3174438l0.36436462 -2.2537842zm22.109238 5.7631073q3.385254 -0.5970459 6.112137 0.3816986q2.739563 0.9606476 4.6479034 3.4165344q1.9056244 2.4404907 2.5157928 5.9027405q0.6101837 3.4622803 -0.38972473 6.431061q-0.9872284 2.950714 -3.2585754 4.8268433q-2.274063 1.8607483 -5.7824097 2.4795227q-5.585663 0.98513794 -9.014465 -1.9958801q-3.4161377 -2.999115 -4.2459717 -7.707794q-0.60746765 -3.4468994 0.36979675 -6.364105q0.99264526 -2.9199219 3.3509064 -4.843109q2.3709106 -1.9413147 5.6946106 -2.5275116zm0.21128845 2.2792053q-2.631256 0.46406555 -4.0962677 2.8643646q-1.8525238 2.9922485 -0.9820099 7.9317627q0.8379822 4.7548523 3.2469177 6.900299q2.16008 1.9037476 5.2068024 1.3664246q1.9696045 -0.3473816 3.311264 -1.6470337q1.3543396 -1.3177795 1.8916168 -3.7607117q0.55267334 -2.4456787 0.013000488 -5.5078735q-0.52882385 -3.0006104 -1.9647369 -5.2066345q-1.1183319 -1.7542725 -2.8876495 -2.5211182q-1.7539368 -0.769577 -3.7389374 -0.41947937zm15.236435 -1.0054169l-0.34440613 -1.9542542q1.7089539 -0.4759369 2.9309998 -1.1039886q1.2220306 -0.62805176 2.715744 -1.8751984l1.7080231 -0.301239l0.6833954 3.8777466q2.265152 -2.5414276 3.6176147 -3.5098114q2.0694122 -1.4914703 4.1159515 -1.852417q1.4156494 -0.24967957 2.8465729 0.037399292q1.4463043 0.28437805 2.3974457 0.90992737q0.96380615 0.6074524 1.7636566 1.8150177q2.0542755 -2.5677032 3.964325 -3.7930908q1.9073486 -1.2407684 4.0308228 -1.6152802q2.0311584 -0.3582306 3.7344513 0.21400452q1.7186737 0.56951904 2.6362 1.7245789q0.9302063 1.1369781 1.3614044 3.5836487l1.8874817 10.70993q0.29559326 1.6772766 0.42134094 1.9407043q0.18637085 0.4272461 0.64157104 0.75949097q0.45248413 0.3168335 0.95932007 0.40197754q0.51953125 0.06704712 1.8274536 -0.16363525l0.73861694 -0.13027954l0.3416748 1.9388733l-11.602173 2.0462646l-0.34170532 -1.9388733q1.9795685 -0.38085938 2.5181885 -0.74557495q0.53863525 -0.36471558 0.725235 -1.0164185q0.18659973 -0.6517029 -0.122558594 -2.4059143l-1.7952881 -10.186752q-0.34169006 -1.9388733 -0.82577515 -2.6150665q-0.46870422 -0.67892456 -1.4479523 -1.0139313q-0.9792633 -0.3350067 -2.287201 -0.10432434q-1.6464691 0.29039 -3.292221 1.4850159q-2.1889343 1.6236115 -3.3107452 3.360489l1.9417114 11.017715q0.2793274 1.5849304 0.5227051 2.0656128q0.24064636 0.465271 0.6542206 0.7413635q0.4108734 0.2607422 0.9122925 0.315094q0.498703 0.038970947 2.3144226 -0.28125l0.34170532 1.9388733l-11.371368 2.0055237l-0.34170532 -1.9388428l0.646286 -0.113983154q1.3540955 -0.23883057 1.8664856 -0.66238403q0.51239014 -0.42355347 0.7162018 -1.1576233q0.13861084 -0.5639038 -0.15428162 -2.225769l-1.7329102 -9.832855q-0.38237 -2.169693 -0.853775 -2.8639832q-0.4741211 -0.70970154 -1.5203552 -1.064621q-1.0335541 -0.37303162 -2.2953339 -0.15049744q-1.5079803 0.2659607 -2.9011688 1.2732544q-2.0721283 1.4760895 -3.6556396 3.5641174l2.0908813 11.864044q0.18711853 1.0617371 0.5689697 1.5179749q0.3791504 0.44085693 1.0488892 0.6400757q0.6824188 0.18109131 1.7595367 -0.008880615l0.8617096 -0.15197754l0.34169006 1.9388733l-11.617569 2.0489807l-0.34170532 -1.9388733l0.6308899 -0.11126709q1.5849152 -0.27954102 2.0466003 -0.6307068q0.6789398 -0.46878052 0.8664856 -1.295166q0.11143494 -0.44802856 -0.19230652 -2.1714783l-2.3810425 -13.510544l-3.969986 0.70018005zm44.244095 -7.8191223l-0.33358765 -1.8927002q1.7388 -0.30667114 3.001587 -0.9736328q1.2600708 -0.6823578 2.6524353 -2.054428l1.8311157 -0.32295227l0.68066406 3.8623505q2.4734192 -2.8002777 4.243164 -3.921585q1.7851257 -1.1240082 3.7085571 -1.4632416q3.939209 -0.6947479 7.2694397 1.9069977q3.3302307 2.6017456 4.2061768 7.5720215q0.96813965 5.493469 -1.583374 9.560944q-2.307953 3.7389526 -6.862671 4.542267q-2.261963 0.39892578 -4.3988037 -0.112701416q-1.5368042 -0.3477173 -3.6698914 -1.558136l1.3396912 7.601593q0.3010254 1.7080688 0.44485474 1.9841614q0.18637085 0.4272461 0.576416 0.6599121q0.4081421 0.24533081 0.9629822 0.24267578q0.39553833 -0.0063171387 2.6421204 -0.40252686l0.34170532 1.9388733l-11.894562 2.0978088l-0.34170532 -1.9388733l1.0463562 -0.1845398q1.5849304 -0.2795105 2.0185547 -0.6098633q0.4363098 -0.3149414 0.5776367 -0.86343384q0.067993164 -0.42453003 -0.28457642 -2.4249573l-4.219696 -23.943497l-3.9545898 0.697464zm8.249847 0.9883728l1.399353 7.94014q0.27661133 1.5695648 0.5968628 2.3063812q0.48309326 1.120636 1.4359741 1.9362793q0.9655762 0.79751587 2.4544067 1.2330627q1.5014648 0.41741943 2.9940796 0.1541748q3.0005493 -0.5292053 4.802307 -3.1792908q1.8171692 -2.6528168 1.0090027 -7.2384033q-0.7566223 -4.293213 -2.999939 -6.3092194q-2.2306519 -2.0341034 -4.723419 -1.5944519q-1.6156921 0.2849579 -3.3564758 1.480484q-1.7435303 1.18013 -3.612152 3.2708435zm19.098114 -17.219452l-0.33358765 -1.8927002q3.0983887 -0.78445435 5.767151 -3.0162811l1.7080078 -0.301239l5.0088806 28.421371q0.31732178 1.8003845 0.6294861 2.2213135q0.42163086 0.5920105 1.045227 0.7993469q0.63623047 0.1892395 2.2673035 -0.09841919l0.73861694 -0.13027954l0.34170532 1.9388733l-11.879181 2.0951233l-0.3416748 -1.9388733l1.2002258 -0.21170044q1.123291 -0.1980896 1.6329651 -0.63705444q0.506958 -0.4543152 0.6319885 -1.0951538q0.1404419 -0.6435547 -0.17684937 -2.4439392l-4.3010864 -24.405136l-3.9391785 0.6947479zm38.41977 18.05449l1.6887512 0.9397278q-1.324707 2.2962341 -2.7008057 3.76062q-1.3788147 1.4490051 -2.7103882 2.175705q-1.3161926 0.723999 -3.2088623 1.0578003q-3.385254 0.5970459 -6.014374 -0.36721802q-3.0056458 -1.1199646 -4.917633 -3.4165344q-1.899292 -2.3146667 -2.512207 -5.792328q-0.6427002 -3.6469269 0.30194092 -6.4790497q0.9600525 -2.8348389 3.2205505 -4.772537q2.2759094 -1.9403992 5.5996094 -2.526596q2.4620056 -0.43421936 4.4160156 0.030319214q1.9667358 0.44644165 3.502411 1.7780762q1.5510559 1.3289337 2.4910278 3.2416077q0.52926636 1.1124878 0.9062805 2.981659l-16.326172 2.879425q0.13641357 1.1341705 0.23406982 1.6881256q0.5125427 2.90831 1.9294739 5.006592q1.4169312 2.098297 3.2686157 2.8823395q1.8643799 0.7659607 3.987854 0.39144897q1.8003235 -0.3175354 3.3311157 -1.4442902q1.5434875 -1.1448517 3.5127258 -4.0148926zm-4.597809 -8.80397q-0.71276855 -2.0638275 -1.5380249 -2.9654388q-0.8098755 -0.9043274 -2.085083 -1.2982025q-1.2598267 -0.3965912 -2.7216492 -0.13876343q-1.4464111 0.25509644 -2.6178284 1.0804749q-1.1560059 0.82266235 -1.8151855 2.0336914q-0.6592102 1.211029 -0.9167175 3.350769l11.694489 -2.0625305zm11.239471 -17.293121l1.631073 -0.28767395l1.3830872 7.847809l6.8628235 -1.2103882l0.4067688 2.3081818l-6.8628235 1.2103882l2.4542847 13.92601q0.31185913 1.7695923 0.7552185 2.4847107q0.45602417 0.6970215 1.2814026 1.0591583q0.8380432 0.34405518 1.7612915 0.18121338q2.200409 -0.38807678 4.502655 -2.8091278l0.393219 2.231247q-2.6525574 2.5938873 -5.7454224 3.1393738q-1.7541809 0.3093872 -3.3235474 -0.2230072q-1.5539551 -0.5351105 -2.2642517 -1.5045929q-0.69488525 -0.97221375 -1.1586304 -3.603531l-2.5030823 -14.202988l-4.046936 0.7137451l-0.3416748 -1.9388733q1.8628845 -0.7728119 2.8850098 -1.9050446q1.0375061 -1.1349487 1.5157776 -2.7424622q0.47824097 -1.6074982 0.41375732 -4.6741486zm17.04013 -6.210312q1.1079102 -0.1953888 2.0282593 0.43559265q0.9203491 0.63098145 1.1156006 1.7389069q0.19528198 1.1079254 -0.4512024 2.0311127q-0.64645386 0.92318726 -1.7543335 1.1185913q-1.1079102 0.19540405 -2.0309753 -0.4509735q-0.9230652 -0.64637756 -1.1183472 -1.754303q-0.19525146 -1.1079254 0.45391846 -2.0157166q0.6491699 -0.9078064 1.7570801 -1.1032104zm-3.37677 15.319351l-0.3362732 -1.9080963q1.8827515 -0.5700531 3.1020813 -1.2134857q1.2347107 -0.6461487 2.7365723 -1.8471375l1.692627 -0.29852295l3.2624207 18.511597q0.1708374 0.96943665 0.53460693 1.4129944q0.36102295 0.42817688 0.894104 0.57214355q0.530365 0.12858582 1.8536987 -0.10479736l1.0771179 -0.18997192l0.34170532 1.9388733l-11.817596 2.0842438l-0.34170532 -1.9388733l0.95401 -0.16825867q1.5387573 -0.27137756 2.0131226 -0.64064026q0.4897461 -0.3719635 0.61569214 -0.9177551q0.1413269 -0.5485077 -0.18954468 -2.425827l-2.3919067 -13.572098l-4.0007324 0.7056122zm14.387329 -2.5374756l-0.34170532 -1.938858q2.0058594 -0.59176636 2.9644775 -1.0940247q0.95861816 -0.5022583 2.6949463 -1.9032593l1.6618652 -0.29310608l0.7728882 4.385544q2.596527 -3.0917358 4.59079 -4.379547q1.9915466 -1.3032227 4.2073364 -1.6940155q1.8926697 -0.33380127 3.453003 0.057373047q1.572998 0.37309265 2.6734009 1.3055115q1.1130981 0.9143219 1.6495056 2.2476654q0.3338318 0.8137665 0.6402588 2.5525818l1.789856 10.155991q0.32000732 1.8157654 0.6737976 2.2928162q0.36917114 0.47434998 0.979187 0.6047516q0.62542725 0.12768555 2.8873901 -0.2712555l0.34170532 1.9388733l-11.894562 2.097824l-0.34170532 -1.9388733l0.64627075 -0.113983154q1.6618652 -0.29309082 2.2104492 -0.69129944q0.5458679 -0.41360474 0.7071228 -1.0290985q0.17391968 -0.63357544 -0.14065552 -2.418579l-1.4969788 -8.494095q-0.46374512 -2.6313171 -1.0735779 -3.570938q-0.60983276 -0.9396057 -1.7519836 -1.3886719q-1.12677 -0.4517975 -2.696289 -0.17497253q-1.8772583 0.3310852 -3.832611 1.6596527q-1.9553223 1.3285522 -3.6094666 3.5559692l1.8739319 10.633011q0.31729126 1.8003693 0.68463135 2.35437q0.38275146 0.55126953 1.0370789 0.7531891q0.45614624 0.157547 2.2565002 -0.15997314l0.6616516 -0.11669922l0.34170532 1.9388733l-11.87915 2.095108l-0.34170532 -1.9388733l0.56933594 -0.10041809q1.7080078 -0.301239 2.2719727 -0.7021637q0.5793762 -0.40364075 0.7107849 -1.188385q0.073394775 -0.3937378 -0.30895996 -2.5634308l-2.318695 -13.156616l-3.9237976 0.69203186zm48.761536 -10.139008q0.8140259 -1.412857 1.790802 -2.1721802q0.9740906 -0.774704 1.8665466 -0.93211365q0.8309326 -0.14654541 1.4897766 0.26083374q0.6560974 0.3919983 0.7808533 1.0998383q0.13018799 0.73861694 -0.28811646 1.3359833q-0.41830444 0.5973511 -1.203064 0.73576355q-0.32315063 0.056991577 -0.8960571 0.046966553q-0.67611694 -0.055282593 -1.122345 0.023422241q-0.56933594 0.10041809 -1.1053162 0.7502594q1.7347717 1.4710541 2.1469727 3.8100128q0.56137085 3.1852722 -1.7038574 5.9964447q-2.2679138 2.7957764 -6.3456116 3.5149536q-2.261963 0.39894104 -4.7228394 -0.15074158q-1.3308105 1.3612213 -1.4874573 1.6427002q-0.25265503 0.45707703 -0.17669678 0.88793945q0.11932373 0.677063 0.8876953 0.98579407q0.98013306 0.4300537 3.6330261 0.35882568l6.839081 -0.17489624q2.2754517 -0.052261353 4.65036 0.3697815q2.3876038 0.40394592 3.6156006 1.5201111q1.2460938 1.1288605 1.563385 2.929245q0.5369568 3.0467834 -1.9589539 5.359192q-3.1730957 2.971283 -10.2052 4.2115326q-3.6929932 0.6513214 -6.139435 0.2736206q-2.4464111 -0.3777008 -3.9757996 -1.5835114q-1.107666 -0.8835449 -1.3029175 -1.9914703q-0.25219727 -1.431076 0.44506836 -2.9661407q0.7000122 -1.5196838 3.640503 -4.640335q-2.2826538 -0.16859436 -3.3668518 -0.73895264q-1.3656616 -0.7269745 -1.577179 -1.9272308q-0.105773926 -0.6001282 0.017456055 -1.1613007q0.13861084 -0.5639038 0.5415039 -1.1585388q0.40020752 -0.6100311 1.5608215 -1.7667084q0.72787476 -0.73127747 1.0175781 -1.0679626q-1.8887634 -0.90444946 -3.0108032 -2.2297058q-1.109375 -1.3433533 -1.4239502 -3.1283417q-0.5152588 -2.923706 1.3588867 -5.523102q2.2671204 -3.160553 6.929535 -3.9828644q2.077301 -0.36636353 3.7082825 -0.11456299q1.6463318 0.24908447 3.528717 1.2974396zm-7.057373 1.0067139q-2.261963 0.39892578 -3.5413208 2.3222504q-1.282074 1.9079285 -0.8562927 4.323822q0.28475952 1.6157227 1.2230835 2.7988586q0.95373535 1.1804047 2.3791504 1.7064514q1.4227295 0.51065063 2.8537903 0.258255q1.4310303 -0.25238037 2.5906982 -1.2343597q1.1723328 -1.000061 1.6523743 -2.4174805q0.480011 -1.4174194 0.19525146 -3.033142q-0.44744873 -2.5390015 -2.2628174 -3.8371735q-1.8180847 -1.3135681 -4.233917 -0.8874817zm-0.14672852 20.683609q-1.8822327 2.283493 -2.3993225 3.5805206q-0.5144043 1.3124237 -0.3218689 2.404953q0.16271973 0.9232788 1.0378113 1.6574402q0.87506104 0.73417664 2.7268677 0.97875977q1.8518066 0.24458313 4.513855 -0.22491455q3.139038 -0.55363464 5.2662964 -1.6269226q2.1272583 -1.073288 2.909546 -2.3060303q0.5767822 -0.9584961 0.37609863 -2.0971985q-0.17086792 -0.96943665 -0.8902893 -1.5406647q-0.701355 -0.558548 -2.4191895 -0.7632904q-1.7024841 -0.2074585 -3.1588135 -0.18859863l-7.640991 0.12594604zm34.372986 -36.46187l1.631073 -0.2876587l1.3830872 7.847809l6.8628235 -1.2103882l0.40679932 2.3081818l-6.862854 1.2103729l2.4542847 13.926025q0.31185913 1.7695923 0.7552185 2.4847107q0.45602417 0.6970215 1.2814026 1.0591583q0.8380432 0.34403992 1.7612915 0.18121338q2.2004395 -0.38807678 4.502655 -2.8091278l0.3932495 2.231247q-2.6525574 2.5938873 -5.745453 3.1393738q-1.7541809 0.3093872 -3.3235168 -0.2230072q-1.5539856 -0.5351105 -2.2642822 -1.5045929q-0.69488525 -0.97221375 -1.1586304 -3.603531l-2.5030823 -14.203003l-4.0469055 0.7137604l-0.34170532 -1.9388733q1.8628845 -0.7728119 2.8850098 -1.9050446q1.0375061 -1.134964 1.5157776 -2.7424622q0.47824097 -1.6074982 0.41375732 -4.674164zm11.911713 -1.9104462l-0.349823 -1.9850311q2.1950378 -0.68859863 3.3709106 -1.3085022q1.1731567 -0.6352997 2.3808289 -1.7050629l1.800354 -0.31752014l2.6901855 15.264755q2.2280884 -2.6618195 4.3726196 -4.087219q2.159912 -1.4281006 4.283386 -1.8026276q3.0928955 -0.54548645 5.418701 0.94825745q2.3104248 1.49646 2.7795715 4.158554l1.9959717 11.32547q0.29830933 1.6926575 0.6520996 2.1697083q0.36645508 0.45895386 1.0253601 0.5966034q0.6742554 0.13493347 2.8439026 -0.24771118l0.34170532 1.938858l-11.909943 2.1005402l-0.34170532 -1.9388733l0.8771057 -0.1546936q1.6772461 -0.29580688 2.1542969 -0.64967346q0.4897461 -0.3719635 0.630188 -1.0155182q0.13772583 -0.65893555 -0.20126343 -2.5824127l-1.3857727 -7.8631897q-0.46102905 -2.6159363 -0.7839966 -3.368164q-0.58984375 -1.2763214 -1.8233643 -1.8838043q-1.2208557 -0.62557983 -2.8981018 -0.32977295q-1.8926697 0.33380127 -3.8045654 1.6388397q-1.8964844 1.3023224 -3.7841492 3.5550537l2.0393372 11.571671q0.22781372 1.292572 0.53726196 1.6981201q0.3067627 0.39015198 0.8678894 0.51330566q0.573822 0.10505676 2.1741333 -0.17718506l0.93862915 -0.1655426l0.34170532 1.938858l-11.956085 2.1086884l-0.34170532 -1.9388733l0.72320557 -0.12754822q1.6772461 -0.29582214 2.3733826 -0.84698486q0.37750244 -0.2886963 0.45639038 -0.921402q0.07888794 -0.6326904 -0.40112305 -3.3563385l-4.1329346 -23.451096l-3.9545898 0.697464zm36.33429 -9.803574q1.1079102 -0.19540405 2.0282593 0.4355774q0.9203491 0.6309967 1.1156311 1.7389221q0.19525146 1.1079254 -0.4512024 2.0311127q-0.64645386 0.92318726 -1.754364 1.118576q-1.1079102 0.19540405 -2.0309753 -0.4509735q-0.9230652 -0.6463623 -1.1183167 -1.7542877q-0.19525146 -1.1079254 0.45388794 -2.0157318q0.6491699 -0.9078064 1.7570801 -1.1031952zm-3.37677 15.319336l-0.3362732 -1.9080963q1.8827515 -0.57003784 3.1020813 -1.2134857q1.2347107 -0.6461487 2.7365723 -1.8471222l1.692627 -0.2985382l3.2624207 18.511597q0.1708374 0.96943665 0.53460693 1.4129944q0.36105347 0.42817688 0.8941345 0.5721588q0.530365 0.12858582 1.8536682 -0.10481262l1.0771484 -0.18997192l0.3416748 1.9388733l-11.817596 2.084259l-0.34170532 -1.9388733l0.9540405 -0.16825867q1.5387573 -0.27139282 2.013092 -0.64064026q0.4897461 -0.37197876 0.61569214 -0.9177704q0.1413269 -0.5485077 -0.18954468 -2.425827l-2.3918762 -13.5720825l-4.000763 0.7055969zm29.40448 -8.613098l1.6156921 -0.2849579l3.322113 6.6966553l-1.9553223 1.0588226q-1.7453613 -2.6115417 -4.2948 -3.8437195q-2.534027 -1.2348938 -4.842163 -0.82780457q-1.7695618 0.312088 -2.7228699 1.3845978q-0.9560547 1.0571136 -0.75808716 2.1804352q0.18713379 1.0617676 1.1228943 1.690033q0.9230652 0.64637756 3.8509827 1.1454163l4.7752075 0.80789185q4.0547485 0.6810913 5.713501 1.9910126q1.6307373 1.3307343 1.9805908 3.3157654q0.29559326 1.6772766 -0.4434204 3.4259644q-0.7416382 1.7332916 -2.5023804 2.9957886q-1.7607422 1.2625122 -4.253479 1.7021484q-3.877655 0.6838989 -7.0379333 -1.043457l-0.19952393 1.7487335l-1.631073 0.28767395l-4.2243958 -7.045227l1.9616394 -1.2027435q2.6784973 2.9546814 4.799835 4.008499q2.9476013 1.5110016 5.978943 0.97636414q2.0003967 -0.35279846 3.103119 -1.6579132q1.1027222 -1.3051147 0.8721924 -2.613083q-0.19256592 -1.0925446 -1.1499634 -1.8439178q-0.98553467 -0.7305603 -3.486267 -1.1462708l-5.6811523 -0.99716187q-3.6510925 -0.6412201 -5.2501526 -1.8823547q-1.59906 -1.2411194 -1.9380188 -3.1646118q-0.40951538 -2.3235626 1.4455566 -4.491211q1.8677368 -2.1857452 5.2375793 -2.7800903q1.7541809 -0.30937195 3.2204285 -0.09199524q1.463501 0.20201111 2.9839172 0.9968872l0.3868103 -1.49617zm24.418335 -0.895401l-0.33355713 -1.8927002q1.7387695 -0.30667114 3.0015259 -0.9736481q1.2600708 -0.6823425 2.6524658 -2.0544128l1.8311157 -0.32295227l0.68066406 3.8623505q2.4733887 -2.8002777 4.243164 -3.921585q1.7851562 -1.1240082 3.7085571 -1.4632416q3.939209 -0.6947632 7.26947 1.9069977q3.3302002 2.6017456 4.2061768 7.5720215q0.96813965 5.493469 -1.583374 9.560959q-2.3079834 3.7389374 -6.862671 4.5422516q-2.261963 0.39894104 -4.3988647 -0.112701416q-1.5368042 -0.34773254 -3.6698608 -1.558136l1.3396606 7.601593q0.3010254 1.7080536 0.44488525 1.9841461q0.18640137 0.4272461 0.576416 0.6599121q0.4081421 0.24534607 0.9630127 0.24267578q0.3955078 -0.006286621 2.6420898 -0.4025116l0.3416748 1.9388733l-11.894531 2.0978088l-0.3416748 -1.938858l1.0463257 -0.18455505q1.5848999 -0.27952576 2.0185547 -0.6098633q0.43634033 -0.3149414 0.5776367 -0.8634491q0.067993164 -0.42451477 -0.2845459 -2.4249268l-4.2197266 -23.943512l-3.9545898 0.697464zm8.249878 0.9883728l1.399353 7.94014q0.27661133 1.5695496 0.5968628 2.3063812q0.48303223 1.1206207 1.4359741 1.936264q0.9655762 0.7975464 2.4543457 1.233078q1.5015259 0.41741943 2.9940796 0.1541748q3.0006104 -0.5292053 4.802368 -3.179306q1.8171387 -2.6528015 1.0089722 -7.238388q-0.7565918 -4.293213 -2.999939 -6.3092194q-2.2306519 -2.0341034 -4.7233887 -1.5944519q-1.6157227 0.2849579 -3.3565063 1.480484q-1.7435303 1.18013 -3.6121216 3.2708435zm21.247986 -6.190857l-0.33355713 -1.8927155q1.6682129 -0.43701172 2.9002075 -1.0985565q1.2473755 -0.6642456 2.7537842 -1.9294891l1.7387695 -0.30667114l0.77020264 4.3701477q1.2758179 -2.303482 3.2393188 -3.855606q1.9608765 -1.5675201 3.699646 -1.8741913q1.7080078 -0.301239 2.8365479 0.34062195q1.1411743 0.6237793 1.3446045 1.7778625q0.14642334 0.8309479 -0.40130615 1.5939331q-0.5504761 0.7475891 -1.4737549 0.9104309q-0.4154663 0.073272705 -0.7421875 0.019836426q-0.3140869 -0.07154846 -0.95391846 -0.37121582q-1.423584 -0.60569763 -2.2698975 -0.4564209q-1.1540527 0.20353699 -2.368103 1.4172211q-1.5345459 1.5558014 -2.3231812 2.9324493l1.876648 10.648392q0.24407959 1.3849182 0.4847412 1.8501892q0.24066162 0.465271 0.6442261 0.7748718q0.4163208 0.2915039 0.95391846 0.37121582q0.5349121 0.064315796 1.7966919 -0.15821838l0.76934814 -0.13569641l0.34173584 1.9388733l-11.940735 2.105957l-0.3416748 -1.9388733l1.0001831 -0.1763916q1.4002686 -0.2469635 1.800415 -0.587265q0.5404053 -0.44436646 0.70892334 -1.1087341q0.18389893 -0.66708374 -0.095458984 -2.2520294l-2.4000244 -13.618256l-4.0161133 0.70832825zm42.894226 5.8575745l1.6887207 0.9397278q-1.324707 2.2962341 -2.7008057 3.76062q-1.3787842 1.4490051 -2.7103882 2.175705q-1.3161621 0.72398376 -3.2088623 1.0578003q-3.385254 0.5970459 -6.0144043 -0.36720276q-3.0056152 -1.1199951 -4.9176025 -3.4165497q-1.899292 -2.314682 -2.512207 -5.792328q-0.6427002 -3.6469269 0.30194092 -6.4790497q0.960083 -2.8348389 3.220581 -4.772537q2.275879 -1.9404144 5.5995483 -2.526596q2.4620361 -0.43421936 4.4160767 0.030319214q1.9666748 0.44644165 3.5023804 1.7780762q1.5510864 1.3289185 2.4910278 3.2416077q0.52923584 1.1124878 0.90625 2.981659l-16.32611 2.879425q0.13641357 1.1341705 0.23400879 1.6881256q0.51257324 2.90831 1.9295044 5.006592q1.4169312 2.098297 3.2686157 2.8823395q1.8643799 0.7659607 3.987854 0.39143372q1.800354 -0.31752014 3.3311157 -1.4442749q1.543457 -1.1448517 3.5127563 -4.0148926zm-4.5978394 -8.80397q-0.71276855 -2.0638275 -1.5380249 -2.9654388q-0.8098755 -0.9043274 -2.085083 -1.2982025q-1.2598267 -0.3965912 -2.7216187 -0.13877869q-1.4464722 0.2551117 -2.617859 1.0804901q-1.1560059 0.82266235 -1.8151855 2.0336914q-0.6591797 1.2110138 -0.91674805 3.350769l11.694519 -2.0625305zm22.178223 -11.1306305l1.6156616 -0.2849579l3.3220825 6.6966553l-1.9552612 1.0588226q-1.7454224 -2.6115417 -4.2948 -3.8437195q-2.5340576 -1.2348785 -4.842224 -0.82780457q-1.7695312 0.312088 -2.7228394 1.3845978q-0.9560547 1.0571289 -0.75805664 2.1804352q0.18707275 1.0617676 1.1228638 1.690033q0.92303467 0.64637756 3.8509521 1.1454163l4.7752075 0.80789185q4.0547485 0.6810913 5.713562 1.9910126q1.6306763 1.3307343 1.9805298 3.3157806q0.29559326 1.6772766 -0.44335938 3.425949q-0.7416992 1.7332916 -2.5024414 2.9957886q-1.7606812 1.2625122 -4.253479 1.7021484q-3.8776245 0.6838989 -7.037903 -1.043457l-0.19952393 1.7487335l-1.6311035 0.28767395l-4.224365 -7.045227l1.9616699 -1.2027435q2.6784668 2.9546814 4.7998047 4.008499q2.9475708 1.5110016 5.978943 0.97636414q2.0003662 -0.35279846 3.1030884 -1.6579132q1.1027222 -1.3051147 0.8721924 -2.613083q-0.19250488 -1.0925293 -1.1499634 -1.8439178q-0.98553467 -0.73054504 -3.486267 -1.1462708l-5.6811523 -0.99716187q-3.651062 -0.6412201 -5.250122 -1.8823547q-1.59906 -1.2411194 -1.9380493 -3.1646118q-0.40948486 -2.3235626 1.4455566 -4.491211q1.8677368 -2.1857452 5.23761 -2.7800903q1.7541504 -0.30937195 3.220398 -0.09197998q1.463501 0.20199585 2.9839478 0.99687195l0.38684082 -1.49617zm31.582703 11.263794l1.6887207 0.9397125q-1.324707 2.2962341 -2.7008057 3.7606354q-1.3787842 1.4490051 -2.7103882 2.175705q-1.3161621 0.72398376 -3.2088623 1.057785q-3.385254 0.59706116 -6.0143433 -0.36720276q-3.0056763 -1.1199799 -4.9176636 -3.4165497q-1.899292 -2.3146667 -2.512146 -5.792328q-0.64276123 -3.6469269 0.30194092 -6.4790497q0.960022 -2.8348236 3.22052 -4.772522q2.275879 -1.9404144 5.5996094 -2.5266113q2.461975 -0.43421936 4.4160156 0.030319214q1.9667358 0.44644165 3.5023804 1.7780914q1.5510864 1.3289185 2.4910278 3.2415924q0.5292969 1.1124878 0.90631104 2.9816742l-16.326172 2.8794098q0.13641357 1.1341705 0.23406982 1.6881409q0.5125122 2.9082947 1.9294434 5.006592q1.4169312 2.0982819 3.2686157 2.8823395q1.8643799 0.76594543 3.987854 0.39143372q1.800354 -0.31752014 3.3311157 -1.4442749q1.5435181 -1.144867 3.5127563 -4.0148926zm-4.5978394 -8.803986q-0.71276855 -2.0638123 -1.5380249 -2.9654388q-0.8098755 -0.9043274 -2.085083 -1.2982025q-1.2598267 -0.39657593 -2.7216187 -0.13876343q-1.4464111 0.25509644 -2.617859 1.0804749q-1.1560059 0.82266235 -1.8151855 2.0336914q-0.6591797 1.211029 -0.916687 3.3507843l11.694458 -2.0625458zm7.161072 -5.0549927l-0.34173584 -1.938858q2.0058594 -0.59176636 2.9644775 -1.0940247q0.95861816 -0.5022583 2.6949463 -1.9032593l1.6618652 -0.29310608l0.7728882 4.385544q2.5965576 -3.0917358 4.5908203 -4.379547q1.9915161 -1.3032227 4.2073364 -1.6940155q1.8926392 -0.33380127 3.453003 0.057373047q1.572998 0.37309265 2.6734009 1.3055115q1.1130371 0.9143219 1.6494751 2.2476654q0.33380127 0.8137665 0.6402588 2.5525818l1.789856 10.155991q0.32000732 1.8157654 0.6738281 2.2928162q0.36914062 0.47434998 0.979187 0.6047516q0.62542725 0.12768555 2.8873901 -0.2712555l0.3416748 1.9388733l-11.894531 2.097824l-0.34173584 -1.9388733l0.64630127 -0.113983154q1.6618652 -0.29309082 2.2104492 -0.69129944q0.5458374 -0.41360474 0.7070923 -1.0290985q0.1739502 -0.63357544 -0.140625 -2.418579l-1.4970093 -8.494095q-0.46374512 -2.6313171 -1.0735474 -3.570938q-0.6098633 -0.9396057 -1.7520142 -1.3886719q-1.12677 -0.4517975 -2.696289 -0.17497253q-1.8772583 0.3310852 -3.8325806 1.6596527q-1.9553833 1.3285522 -3.609497 3.5559692l1.8739014 10.633011q0.31732178 1.8003693 0.6846924 2.35437q0.38269043 0.55126953 1.0370483 0.7531891q0.45617676 0.157547 2.2565308 -0.15997314l0.6616211 -0.11669922l0.34173584 1.9388733l-11.87915 2.095108l-0.34173584 -1.9388733l0.56933594 -0.10041809q1.7080078 -0.301239 2.2719727 -0.7021637q0.57940674 -0.40364075 0.7108154 -1.188385q0.07336426 -0.3937378 -0.30895996 -2.5634308l-2.3187256 -13.156616l-3.923767 0.69203186zm35.2843 -17.741867l1.6310425 -0.2876587l1.3831177 7.847809l6.862793 -1.2103882l0.40679932 2.3081818l-6.862854 1.2103882l2.4542847 13.92601q0.31188965 1.7695923 0.755249 2.4847107q0.45599365 0.6970215 1.2813721 1.0591583q0.83807373 0.34405518 1.7612915 0.18121338q2.2004395 -0.38807678 4.5026855 -2.8091278l0.3932495 2.231247q-2.652588 2.5938873 -5.7454834 3.1393738q-1.7541504 0.3093872 -3.3234863 -0.2230072q-1.5539551 -0.5351105 -2.2642822 -1.5045929q-0.69488525 -0.97221375 -1.1586304 -3.603531l-2.5031128 -14.202988l-4.046875 0.7137451l-0.34173584 -1.9388733q1.862915 -0.7728119 2.8850098 -1.9050446q1.0375366 -1.134964 1.5158081 -2.7424622q0.47821045 -1.6074982 0.41375732 -4.674164zm31.435547 11.734009l-0.4420166 -2.5082245q-0.4529419 -2.5697632 -2.076477 -3.409912q-1.6235962 -0.8401489 -4.239502 -0.37878418q-1.2925415 0.22795105 -2.2077026 0.70669556q-0.91516113 0.47872925 -1.4022827 1.1358185q-0.48980713 0.6416931 -0.64471436 1.3829956q-0.079711914 0.26792908 -0.20959473 2.0519562q-0.17242432 2.172348 -1.788147 2.457306q-0.9232178 0.1628418 -1.5983276 -0.33688354q-0.66241455 -0.517807 -0.84680176 -1.5641785q-0.26849365 -1.523407 0.59716797 -3.1833649q0.8810425 -1.662674 3.020996 -3.0238037q2.15271 -1.3792267 5.32251 -1.9382782q2.9544067 -0.5210724 5.209839 0.03312683q2.2680664 0.5360718 3.553894 2.0704346q0.8985596 1.0473633 1.4490356 4.171097l1.5648193 8.878799q0.33355713 1.8927002 0.5596924 2.4557343q0.41973877 0.941391 1.1401367 1.3379211q0.7330322 0.37843323 1.7486572 0.19932556q1.0617065 -0.18727112 2.4494019 -0.9555969l0.35253906 2.0004272q-1.8230591 0.9085846 -3.3464355 1.1772461q-1.6311035 0.28767395 -2.8356934 0.024154663q-1.2073975 -0.2789154 -2.085205 -1.0284729q-0.8651123 -0.7676544 -1.2821045 -1.9633942q-2.387329 2.6581726 -4.4766235 3.9468994q-2.0765991 1.2706146 -4.369385 1.6749878q-3.1851807 0.5617676 -5.4766235 -0.82696533q-2.2914429 -1.3887482 -2.7009277 -3.7123108q-0.24951172 -1.4156799 0.25134277 -2.8050385q0.51348877 -1.4074554 1.8198853 -2.6374207q1.3217163 -1.2326813 4.37677 -2.533081q3.0550537 -1.3003845 8.611877 -2.8992157zm0.3552246 2.015808q-5.2164917 1.7292175 -6.4421387 2.2468262q-2.4051514 1.0270996 -3.3756104 1.9122467q-0.9550781 0.8824158 -1.2756958 1.7640076q-0.32330322 0.8661957 -0.16333008 1.7740784q0.1572876 0.89250183 0.81427 1.6492767q0.67230225 0.75405884 1.6977539 1.0809174q1.0380859 0.3087616 2.0997925 0.12150574q1.5079956 -0.2659607 3.275879 -1.3076019q1.7652588 -1.0570374 4.3535156 -3.6554565l-0.98443604 -5.5858zm13.586975 -21.753006l1.6311035 -0.28767395l1.3830566 7.847809l6.862854 -1.2103882l0.40679932 2.3081818l-6.862854 1.2103882l2.4542847 13.92601q0.3118286 1.7696075 0.755188 2.4847107q0.4560547 0.6970215 1.2814331 1.0591583q0.8380127 0.34405518 1.7612915 0.18121338q2.2003784 -0.38807678 4.5026245 -2.8091278l0.3932495 2.231247q-2.652588 2.5938873 -5.7454224 3.1393738q-1.7542114 0.3093872 -3.3235474 -0.2230072q-1.5539551 -0.5351105 -2.2642822 -1.5045929q-0.69488525 -0.9721985 -1.1586304 -3.603531l-2.5030518 -14.202988l-4.046936 0.7137451l-0.3416748 -1.9388733q1.862854 -0.7728119 2.8850098 -1.9050446q1.0374756 -1.1349487 1.5157471 -2.7424622q0.47827148 -1.6074982 0.41375732 -4.6741486zm17.040161 -6.210312q1.1079102 -0.1953888 2.0282593 0.43559265q0.9203491 0.63098145 1.1156006 1.7389069q0.19525146 1.1079254 -0.45117188 2.0311127q-0.6464844 0.92318726 -1.7543945 1.1185913q-1.1079102 0.19540405 -2.0309448 -0.4509735q-0.9230957 -0.64637756 -1.1183472 -1.754303q-0.19525146 -1.1079254 0.45391846 -2.0157166q0.6491699 -0.9078064 1.7570801 -1.1032104zm-3.37677 15.319351l-0.3363037 -1.9080963q1.8827515 -0.5700531 3.1021118 -1.2134857q1.2346802 -0.6461487 2.7365723 -1.8471375l1.692627 -0.29852295l3.2623901 18.511597q0.1708374 0.96943665 0.53460693 1.4129944q0.36102295 0.42817688 0.894104 0.57214355q0.5303955 0.12858582 1.8536987 -0.10479736l1.0771484 -0.18997192l0.3416748 1.9388733l-11.817566 2.0842438l-0.34173584 -1.9388733l0.9540405 -0.16825867q1.5387573 -0.27137756 2.0131226 -0.64064026q0.4897461 -0.3719635 0.6156616 -0.9177551q0.14135742 -0.5485077 -0.18951416 -2.425827l-2.3919067 -13.572098l-4.0007324 0.7056122zm25.336853 -8.466888q3.385254 -0.59706116 6.1121216 0.3816986q2.739563 0.9606476 4.647949 3.4165192q1.9055786 2.4404755 2.515747 5.9027557q0.6102295 3.462265 -0.38970947 6.431061q-0.98724365 2.9506836 -3.258545 4.826828q-2.274109 1.8607635 -5.7824097 2.4795227q-5.5856934 0.98513794 -9.014526 -1.9958801q-3.4160767 -2.999115 -4.2459717 -7.7078094q-0.6074219 -3.446869 0.369812 -6.3640747q0.9926758 -2.9199219 3.350891 -4.8431244q2.3709717 -1.9413147 5.694641 -2.5274963zm0.21130371 2.27919q-2.6312866 0.46406555 -4.0962524 2.86438q-1.8525391 2.9922485 -0.98205566 7.9317474q0.8380127 4.7548523 3.2469482 6.900299q2.1600342 1.9037628 5.206787 1.3664093q1.9696045 -0.34736633 3.3112793 -1.6470337q1.3543091 -1.3177643 1.8916016 -3.7607117q0.55267334 -2.4456635 0.013000488 -5.507843q-0.5288086 -3.0006256 -1.9647217 -5.2066345q-1.1183472 -1.754303 -2.8876953 -2.5211487q-1.7539062 -0.76956177 -3.7388916 -0.4194641zm15.3133545 -1.0189819l-0.3416748 -1.9388733q2.0058594 -0.59176636 2.9644775 -1.0940247q0.95861816 -0.5022583 2.6949463 -1.9032593l1.6618652 -0.29309082l0.7728882 4.385544q2.5965576 -3.0917358 4.5907593 -4.3795624q1.9915771 -1.3032074 4.2073364 -1.6940155q1.8927002 -0.33380127 3.453003 0.057388306q1.572998 0.3730774 2.6734009 1.3054962q1.1130981 0.9143219 1.6495361 2.2476654q0.33380127 0.8137665 0.6402588 2.552597l1.789856 10.155991q0.32000732 1.8157654 0.6737671 2.2928162q0.36920166 0.47433472 0.97924805 0.6047363q0.6253662 0.1277008 2.887329 -0.27124023l0.34173584 1.938858l-11.894592 2.097824l-0.3416748 -1.938858l0.64630127 -0.113983154q1.6618042 -0.29310608 2.2103882 -0.6913147q0.54589844 -0.41360474 0.7071533 -1.0290833q0.17388916 -0.6335907 -0.14068604 -2.418579l-1.4969482 -8.494095q-0.46374512 -2.6313324 -1.0735474 -3.570938q-0.6098633 -0.9396057 -1.7520142 -1.3886871q-1.12677 -0.45178223 -2.696289 -0.17497253q-1.8772583 0.33110046 -3.8326416 1.6596527q-1.9553223 1.3285675 -3.609436 3.5559692l1.8739014 10.633011q0.31732178 1.8003845 0.68463135 2.35437q0.38275146 0.5512848 1.0371094 0.7531891q0.45611572 0.157547 2.2564697 -0.15997314l0.6616821 -0.11669922l0.3416748 1.9388733l-11.87915 2.095108l-0.3416748 -1.9388733l0.56933594 -0.10040283q1.7080078 -0.30125427 2.2719727 -0.7021637q0.5793457 -0.40364075 0.7107544 -1.1884003q0.07342529 -0.3937378 -0.30895996 -2.5634155l-2.3186646 -13.156616l-3.9238281 0.69203186z" fill-rule="nonzero"/><path fill="#ffffff" d="m-67.60104 372.9236l1018.8976 -179.52756l61.858276 351.40155l-1018.89764 179.52759z" fill-rule="evenodd"/><path stroke="#ffffff" stroke-width="1.0" stroke-linejoin="round" stroke-linecap="butt" d="m-67.60104 372.9236l1018.8976 -179.52756l61.858276 351.40155l-1018.89764 179.52759z" fill-rule="evenodd"/><path fill="#000000" fill-opacity="0.0" d="m14.178467 373.79593l887.9055 -156.59843l29.29132 166.20473l-887.9055 156.59845z" fill-rule="evenodd"/><path fill="#000000" d="m180.13359 374.66785l20.819305 -3.671875l0.5776367 3.2776184l-1.9234314 0.3392334q-2.231186 0.39352417 -3.0785065 0.98721313q-0.8500366 0.5783081 -1.137146 1.4698486q-0.27444458 0.8734436 0.091659546 2.9508057l6.595337 37.42328q0.45561218 2.585144 0.7270355 3.0450134q0.35284424 0.6517334 1.1764679 0.8237915q0.5792389 0.13583374 3.1643372 -0.32009888l2.877472 -0.5074768q4.970154 -0.8765869 8.364792 -2.9508362q3.407318 -2.0923767 5.568527 -5.3135986q2.1766205 -3.2239075 3.675888 -9.120819l3.6194305 0.5516052l-3.037033 17.87735l-38.62265 6.811798l-0.5695038 -3.2314453l1.692627 -0.29852295q2.4620056 -0.43423462 3.2350922 -0.9989624q0.77038574 -0.58010864 1.0584564 -1.6463623q0.28805542 -1.0662231 -0.1322937 -3.451355l-6.4326324 -36.5q-0.48814392 -2.769806 -1.0844116 -3.6324768q-0.5836029 -0.8807678 -1.4696503 -1.1370239q-0.8706665 -0.25897217 -3.4865417 0.20239258l-1.692627 0.29852295l-0.5776367 -3.2776184zm87.147964 29.737335l2.8145752 1.5661926q-2.2120667 3.8330994 -4.5115967 6.2695312q-2.2868347 2.418335 -4.502838 3.6183472q-2.197876 1.212677 -5.35231 1.7690125q-5.647217 0.9959717 -10.023987 -0.61203q-5.0084686 -1.8614807 -8.190887 -5.6951294q-3.169754 -3.8517456 -4.1921387 -9.652985q-1.0711975 -6.078186 0.5083618 -10.799316q1.5949554 -4.723816 5.374527 -7.9448547q3.7768402 -3.2364502 9.316345 -4.21344q4.1084747 -0.7246094 7.3676147 0.033355713q3.2745361 0.7552185 5.840912 2.9839783q2.5791016 2.2106323 4.1397095 5.394226q0.8829651 1.8592834 1.5104065 4.969452l-27.205109 4.7980957q0.22312927 1.8963318 0.385849 2.8196106q0.85424805 4.847168 3.2167206 8.349426q2.3597565 3.486908 5.4594727 4.78067q3.0997162 1.2937927 6.6388397 0.6696167q3.0005646 -0.5292053 5.554306 -2.4234314q2.5691528 -1.8969421 5.851227 -6.6803284zm-7.663025 -14.673309q-1.1930542 -3.4387817 -2.5531006 -4.9441833q-1.3600616 -1.5054016 -3.4751587 -2.1636658q-2.115097 -0.65826416 -4.5463257 -0.22949219q-2.4158325 0.42608643 -4.363037 1.8008118q-1.9318237 1.3720093 -3.0355988 3.3912964q-1.0883942 2.016571 -1.5227509 5.5837097l19.495972 -3.4384766zm41.19211 -3.9806824l-0.7376404 -4.185486q-0.75390625 -4.277832 -3.4589844 -5.672943q-2.7077637 -1.4105225 -7.062439 -0.6424866q-2.1542664 0.37994385 -3.6777344 1.1880798q-1.5262146 0.7927551 -2.3510132 1.8743286q-0.8093872 1.0788574 -1.067627 2.3143616q-0.12683105 0.45074463 -0.34832764 3.4250793q-0.2822876 3.6196594 -2.9751282 4.094574q-1.5387268 0.27139282 -2.656372 -0.5786438q-1.1176147 -0.85006714 -1.4240723 -2.5888977q-0.44744873 -2.5390015 1.0013428 -5.301361q1.4614868 -2.780487 5.041687 -5.0620117q3.5802307 -2.2814941 8.858154 -3.2123718q4.924011 -0.8684387 8.685455 0.038909912q3.776825 0.90463257 5.924988 3.461029q1.4984741 1.7507019 2.4151 6.9518127l2.6088562 14.803101q0.5559387 3.1545105 0.92681885 4.088684q0.70565796 1.5732117 1.9138184 2.216919q1.2081909 0.64367676 2.9008179 0.3451538q1.7695618 -0.31210327 4.0823975 -1.5926514l0.588501 3.3391724q-3.0351868 1.5031433 -5.574127 1.9509277q-2.7236023 0.48034668 -4.73645 0.042053223q-2.0002136 -0.45639038 -3.460785 -1.7219543q-1.4451599 -1.26828 -2.1443787 -3.2551575q-3.9789429 4.4303284 -7.457794 6.5670166q-3.4661255 2.1186218 -7.2822266 2.7916565q-5.3086853 0.9362793 -9.126862 -1.373169q-3.8181458 -2.3094177 -4.5015564 -6.1871643q-0.414917 -2.3543396 0.4291687 -4.67688q0.8413696 -2.3379211 3.034027 -4.390564q2.192627 -2.0526733 7.284363 -4.2199707q5.091736 -2.167328 14.348022 -4.8311462zm0.5911865 3.3545532q-8.694244 2.882019 -10.7309265 3.748932q-4.014557 1.7076111 -5.626892 3.1819458q-1.5969543 1.4716187 -2.1331177 2.930664q-0.5361328 1.4590454 -0.27038574 2.9670715q0.26306152 1.4926147 1.3742676 2.7563171q1.10849 1.2483215 2.8217468 1.7870483q1.7259216 0.5206604 3.4954834 0.20855713q2.5081787 -0.4423523 5.4537964 -2.1835632q2.9429016 -1.7565918 7.2567444 -6.087311l-1.6407166 -9.309662zm40.877045 -25.979065l2.69281 -0.47494507l5.536804 11.161102l-3.258789 1.7647095q-2.9098816 -4.3576965 -7.1417236 -6.403778q-4.234558 -2.0614624 -8.081451 -1.3829956q-2.9544067 0.5210571 -4.54599 2.2931824q-1.5915833 1.7721252 -1.2607117 3.6494446q0.31185913 1.7695923 1.8756714 2.8106995q1.5384521 1.0772705 6.414093 1.9150391l7.9628906 1.3404541q6.7536926 1.1411743 9.517395 3.319275q2.722992 2.21698 3.3060608 5.5253906q0.4935608 2.8005676 -0.7407532 5.699646q-1.234314 2.8990784 -4.1791077 5.005066q-2.9294128 2.1032715 -7.0840454 2.8359985q-6.462738 1.1398315 -11.729858 -1.7390747l-0.32739258 2.9136353l-2.7236023 0.48034668l-7.0346375 -11.7378235l3.2642822 -2.003662q4.469269 4.923584 7.9997253 6.680847q4.9169006 2.5122986 9.96402 1.6221619q3.3390808 -0.5889282 5.1787415 -2.7538452q1.8369751 -2.1803284 1.4518738 -4.3654175q-0.32000732 -1.8157654 -1.9217834 -3.0722656q-1.6424866 -1.2175903 -5.8103943 -1.9104614l-9.46347 -1.6628418q-6.090271 -1.06781 -8.755341 -3.1363525q-2.6651 -2.0685425 -3.229187 -5.269226q-0.6833801 -3.8777466 2.421936 -7.5034485q3.1053467 -3.6257324 8.721802 -4.616272q2.9236145 -0.5156555 5.364624 -0.16873169q2.4410095 0.34692383 4.975952 1.6768494l0.6395569 -2.4927063zm22.738068 -17.496521l2.7235718 -0.48034668l2.3051147 13.079681l11.432922 -2.016388l0.6779785 3.8469543l-11.432922 2.016388l4.089569 23.204895q0.5206604 2.9544678 1.2689514 4.1394043q0.74554443 1.1695251 2.1356506 1.7652588q1.3874207 0.5803528 2.926178 0.30895996q3.662201 -0.64590454 7.5035095 -4.6870117l0.6562805 3.723877q-4.4269714 4.3189087 -9.581787 5.228058q-2.9236145 0.5156555 -5.5238037 -0.37438965q-2.6001892 -0.89004517 -3.7737732 -2.50766q-1.1735535 -1.6176147 -1.9464417 -6.003174l-4.170929 -23.666534l-6.7397156 1.1886902l-0.5694885 -3.2314453q3.1039124 -1.2931519 4.817688 -3.1820374q1.7138062 -1.888855 2.5109253 -4.5680237q0.7970886 -2.6791687 0.69052124 -7.7851562zm45.08304 -11.521088l21.20398 -3.7397156q9.64798 -1.7015991 13.527161 -1.1164856q4.8277283 0.6558533 8.4366455 3.6685486q3.6088867 3.0127258 4.5716248 8.475403q0.8217163 4.6625366 -0.8590393 8.449524q-2.0049133 4.558136 -5.612335 6.9555054q-3.6073914 2.3973694 -11.993591 3.8764343l-9.801849 1.7287292l2.4271545 13.772156q0.5423889 3.0775452 1.0246277 3.8334045q0.65689087 1.0265198 1.535675 1.3316345q0.89419556 0.3024292 3.3562012 -0.13180542l1.8464966 -0.32565308l0.5694885 3.2314453l-20.773132 3.6637268l-0.5694885 -3.2314453l1.2771606 -0.22525024q2.646637 -0.46679688 3.5220337 -1.0812988q0.8907471 -0.617218 1.1715698 -1.6345825q0.28082275 -1.0173645 -0.1802063 -3.6333008l-6.4678955 -36.700043q-0.44744873 -2.5390015 -1.014801 -3.3274536q-0.55462646 -0.8065491 -1.5637817 -1.0410767q-1.0091553 -0.23452759 -3.7789001 0.2539673l-1.2771606 0.22525024l-0.5776367 -3.2776184zm14.789154 1.723114l3.9647827 22.49704l8.263092 -1.4573364q6.2781067 -1.1072693 8.591034 -2.6575317q2.3255615 -1.5683899 3.4893188 -4.5978394q1.1764221 -3.0475159 0.52557373 -6.7406006q-0.71325684 -4.046997 -3.1139832 -6.416046q-2.4007263 -2.3690186 -5.879883 -2.7549744q-2.4220276 -0.23919678 -9.115601 0.9413452l-6.7243347 1.1859436zm37.182983 11.846832l-0.5559387 -3.1545105q2.7752075 -0.7274475 4.8355103 -1.8206482q2.072937 -1.1113281 4.5887146 -3.2209778l2.8928528 -0.5101929l1.2827454 7.2784424q2.1323853 -3.8349 5.4040527 -6.4269104q3.268921 -2.6074219 6.1617737 -3.1176147q2.8467102 -0.5020752 4.7318115 0.561676q1.8977966 1.0456543 2.236786 2.9691162q0.24404907 1.3849182 -0.6767273 2.6420898q-0.9053955 1.254425 -2.4441223 1.5258179q-0.69244385 0.12213135 -1.2327881 0.027038574q-0.5276489 -0.113220215 -1.5982971 -0.6066284q-2.3675537 -1.010376 -3.7832031 -0.76071167q-1.9234314 0.3392334 -3.9468079 2.36203q-2.5575256 2.592987 -3.8668213 4.8865356l3.126831 17.742188q0.4067688 2.3081665 0.79940796 3.0957031q0.40533447 0.7694092 1.0804443 1.2691345q0.6904907 0.49700928 1.5856018 0.62472534q0.89242554 0.112335205 3.0005188 -0.25949097l1.2771606 -0.22525024l0.5694885 3.2314758l-19.896057 3.5090332l-0.5694885 -3.2314758l1.6618652 -0.29309082q2.3388977 -0.4125061 3.0015564 -0.9736328q0.8998413 -0.74575806 1.197876 -1.8454895q0.2953186 -1.1151123 -0.17114258 -3.7618103l-4.000061 -22.697113l-6.6935425 1.180542zm53.038177 -15.986298q5.647217 -0.9960022 10.201355 0.6283264q4.5514526 1.6089172 7.731079 5.6968994q3.176941 4.0726013 4.1939087 9.843079q1.0169678 5.770447 -0.6350708 10.710571q-1.6547241 4.924774 -5.453247 8.038086q-3.7832031 3.1106262 -9.630432 4.1419067q-9.309448 1.6418762 -15.009644 -3.33432q-5.702881 -4.9916077 -7.085968 -12.8394165q-1.0115356 -5.7396545 0.623291 -10.597443q1.6474609 -4.875885 5.586334 -8.093292q3.9388733 -3.2174072 9.478394 -4.194397zm0.3511963 3.793518q-4.385437 0.773468 -6.8219604 4.7730713q-3.087555 4.9870605 -1.6366882 13.219574q1.396637 7.9247437 5.4064026 11.501404q3.6052246 3.1720276 8.683105 2.2764587q3.2775269 -0.57806396 5.528137 -2.7519836q2.2478638 -2.189331 3.1502686 -6.2515564q0.9151001 -4.080353 0.014770508 -9.189117q-0.8814087 -5.0010376 -3.2736816 -8.672577q-1.8638916 -2.9238586 -4.8015747 -4.1986084q-2.9404297 -1.2901306 -6.2487793 -0.70666504zm22.423462 -6.8582764l14.4869995 -3.1420898l4.36615 24.774445q0.5749512 3.2622375 1.8063965 5.02829q1.2468262 1.7633667 3.2958374 2.4967651q2.0644531 0.73065186 4.55719 0.29101562q3.0775146 -0.54278564 6.6957397 -2.878601q3.6156006 -2.3511963 6.9155884 -6.3127136l-3.1593628 -17.92685q-0.501709 -2.8467712 -1.0871582 -3.6478882q-0.5727539 -0.81921387 -1.744751 -1.1678162q-1.1720581 -0.3486023 -3.4801636 0.05847168l-2.800537 0.493927l-0.56951904 -3.2314453l14.471619 -3.1394043l5.0577393 28.698364q0.48809814 2.769806 1.1368408 3.7501526q0.6460571 0.9649658 1.6325684 1.2510986q0.98651123 0.2861328 3.710083 -0.19421387l1.2002563 -0.21170044l0.569458 3.2314453l-12.654968 2.914215l-1.2556152 -7.1246033q-4.540283 5.1163635 -8.182068 7.4087524q-3.6417847 2.2923584 -7.67334 3.0033875q-3.0005493 0.5292053 -5.3601074 0.10446167q-2.3568115 -0.4093628 -4.3187866 -1.7292786q-1.9465942 -1.3226318 -3.237732 -3.427246q-1.2784424 -2.1227112 -1.7340088 -4.7078857l-3.083435 -17.495972q-0.414917 -2.35437 -1.0112305 -3.217041q-0.5808716 -0.86538696 -1.6633301 -1.245636q-1.085144 -0.3956604 -2.777771 -0.09713745l-3.5391235 0.624176l-0.569458 -3.2314453zm77.381714 -26.848328l-0.5775757 -3.2776184q2.5751953 -0.6921692 4.628174 -1.7365112q2.050354 -1.0597229 5.034973 -3.299652l2.8775024 -0.5075073l8.225159 46.671387q0.56951904 3.2314453 0.845459 3.896759q0.64227295 1.3939819 1.6685791 1.8158875q1.0236206 0.40652466 3.685669 -0.06295776l1.6464233 -0.29040527l0.56951904 3.2314758l-13.232483 2.9684143l-1.0793457 -6.124359q-3.2285767 4.1868896 -6.3408203 6.2430725q-3.1122437 2.0562134 -6.4974976 2.6532593q-6.955139 1.226654 -12.543152 -3.5630798q-5.5879517 -4.789734 -6.9764404 -12.668304q-0.98986816 -5.616577 0.6323242 -10.725983q1.6221924 -5.109436 5.189026 -8.2771q3.5668945 -3.1676636 8.336975 -4.0089417q3.6468506 -0.6431885 6.9802246 0.08578491q3.3460693 0.710907 6.378601 2.7939758l-2.9885254 -16.957428l-6.4627686 1.1398315zm13.622192 39.4841l-2.5627441 -14.541504q-0.5504761 -3.1237488 -2.0824585 -4.88443q-1.5192871 -1.7787781 -4.4543457 -2.768402q-2.9196777 -0.9923401 -5.7355957 -0.49572754q-3.3391113 0.5889282 -5.8476562 2.9194336q-2.5112915 2.3151245 -3.5041504 6.0442505q-0.977417 3.72641 -0.11779785 8.60434q0.81359863 4.6163635 2.8847046 7.725769q2.071106 3.1094055 4.873047 4.4239807q2.8145752 1.2964783 5.430481 0.8351135q2.585083 -0.45593262 5.586914 -2.5085144q3.017212 -2.0552673 5.529602 -5.354309zm65.071106 -58.170563q7.3398438 -1.2944946 13.887756 1.1998596q7.104553 2.6817932 11.607178 8.154816q4.5180054 5.470276 5.9281616 13.471985q2.1831055 12.387207 -4.1329956 21.561188q-6.3188477 9.158569 -18.24414 11.26181q-13.310242 2.3475037 -22.735168 -5.668579q-7.6901855 -6.545044 -9.5668335 -17.19345q-1.3966064 -7.9247437 1.0640869 -14.847992q2.4761353 -6.9259644 8.40387 -11.73172q5.9404297 -4.823822 13.788086 -6.2079163zm0.73223877 4.154724q-6.0011597 1.0584106 -9.824219 4.5727234q-3.823059 3.5143127 -5.4798584 9.327942q-1.6594238 5.798218 -0.2763672 13.646027q1.3206787 7.4938965 4.7943726 12.259888q3.4890137 4.7632446 8.285706 6.7731934q4.796631 2.0099182 10.182251 1.0600586q5.3394775 -0.9417114 8.970642 -4.3745728q3.6438599 -3.4509583 5.3115845 -9.742493q1.664978 -6.306946 0.4093628 -13.431519q-1.2745972 -7.2323 -5.0250244 -12.758636q-3.2166138 -4.7478333 -7.466614 -6.536865q-4.234619 -1.7917175 -9.881836 -0.79574585zm35.69049 7.429535l6.5858765 -1.1615295l-1.0169678 -5.770447q-1.0494995 -5.9551086 2.2225952 -10.435272q3.2693481 -4.4955444 9.62439 -5.6163635q4.2315674 -0.7463074 6.897705 0.60806274q2.6815796 1.351654 3.0476685 3.429016q0.24407959 1.3849182 -0.5264282 2.5045166q-0.77319336 1.1042175 -2.2042847 1.3565979q-1.2617798 0.22253418 -2.2663574 -0.07626343q-1.0046387 -0.2987976 -3.253479 -1.8061218q-2.385498 -1.5625305 -4.2320557 -1.2368774q-1.2617188 0.22253418 -2.154419 1.189148q-0.8772583 0.9638977 -1.1627197 2.5849915q-0.28546143 1.6210938 0.27044678 4.7756042l1.2935791 7.340027l7.2321167 -1.2755127l0.69158936 3.9238892l-7.2321777 1.2755127l4.401428 24.974518q0.45288086 2.5697632 0.9921875 3.3790283q0.53656006 0.79385376 1.3682861 1.012085q0.8290405 0.20285034 3.6295776 -0.29107666l1.5848999 -0.27954102l0.56951904 3.2314758l-19.819153 3.495453l-0.569458 -3.2314453l1.2001953 -0.21170044q3.031311 -0.53460693 3.7944946 -1.0658569q0.76312256 -0.53125 0.9651489 -1.4553833q0.21472168 -0.94226074 -0.35845947 -4.0144043l-4.29834 -24.38974l-6.5858765 1.1615295l-0.6915283 -3.9239197z" fill-rule="nonzero"/><path fill="#000000" d="m63.129635 483.72446l12.725468 -2.2443848q5.7857056 -1.0204163 8.116295 -0.66986084q2.8935547 0.39404297 5.0527496 2.2027588q2.1745834 1.8059998 2.7522125 5.083618q0.49356842 2.8005676 -0.51795197 5.073303q-1.1998825 2.7343445 -3.3724747 4.180542q-2.159912 1.4281311 -7.1916275 2.3155518l-5.878029 1.0367126l1.4562912 8.263275q0.3254242 1.8465271 0.61224365 2.3036804q0.3935852 0.6128235 0.9194107 0.80566406q0.53850555 0.17474365 2.015709 -0.08578491l1.1079025 -0.19540405l0.3416977 1.9389038l-12.463882 2.1982422l-0.34170532 -1.9389038l0.76937866 -0.13568115q1.5849152 -0.27954102 2.1081467 -0.6415405q0.53591156 -0.38012695 0.6998749 -0.9802246q0.17663574 -0.6181946 -0.099983215 -2.1877441l-3.8807297 -22.02002q-0.2684784 -1.523407 -0.6068878 -2.0031738q-0.3384018 -0.47976685 -0.94841766 -0.61016846q-0.59734344 -0.14849854 -2.2591934 0.14459229l-0.76937485 0.13568115l-0.3471222 -1.969635zm8.87711 1.0364075l2.378334 13.495148l4.9547806 -0.87387085q3.7699432 -0.6648865 5.1613083 -1.5925293q1.388649 -0.9430237 2.0832748 -2.763214q0.71001434 -1.8229065 0.31950378 -4.0387573q-0.42848206 -2.4312744 -1.8672943 -3.8434448q-1.4415283 -1.4275818 -3.529564 -1.6622314q-1.4526749 -0.1404419 -5.4688187 0.5678711l-4.0315247 0.71102905zm22.30671 7.1086426l-0.33356476 -1.8927002q1.6682205 -0.43701172 2.9002228 -1.0985718q1.2473984 -0.6642456 2.7537842 -1.9294739l1.7387924 -0.30667114l0.77017975 4.3701477q1.2758179 -2.3034973 3.2393494 -3.8556213q1.960823 -1.5675049 3.6996155 -1.874176q1.7080078 -0.301239 2.8365402 0.3406067q1.1412125 0.6237793 1.3446045 1.7778625q0.1464386 0.83096313 -0.4013214 1.5939331q-0.5504761 0.7475891 -1.4737244 0.9104309q-0.4154663 0.073272705 -0.74220276 0.019836426q-0.3140564 -0.0715332 -0.9539032 -0.37121582q-1.4236069 -0.6056824 -2.2699203 -0.4564209q-1.1540604 0.20355225 -2.3680878 1.4172363q-1.5345154 1.5557861 -2.3231735 2.932434l1.8766403 10.648407q0.24407196 1.3849182 0.48472595 1.8501892q0.24065399 0.465271 0.6442642 0.7748718q0.41629028 0.2915039 0.9539108 0.37121582q0.5349045 0.06430054 1.7966766 -0.15823364l0.76937866 -0.13568115l0.3416977 1.9388733l-11.940704 2.105957l-0.34170532 -1.9388733l1.0001907 -0.1763916q1.4002609 -0.24697876 1.8003998 -0.5872803q0.54045105 -0.44436646 0.7089462 -1.1087341q0.1838913 -0.66708374 -0.095436096 -2.2520142l-2.400032 -13.618256l-4.016144 0.708313zm31.825432 -9.595398q3.385254 -0.5970459 6.112137 0.38168335q2.739563 0.96066284 4.647888 3.4165344q1.9056244 2.4404907 2.515808 5.9027405q0.6101837 3.4622803 -0.38972473 6.431061q-0.9872284 2.950714 -3.2585754 4.8268433q-2.274063 1.8607788 -5.7824097 2.4795227q-5.5856705 0.98513794 -9.014481 -1.9958801q-3.4161224 -2.999115 -4.245964 -7.707794q-0.60746765 -3.4468994 0.36979675 -6.364105q0.9926529 -2.9198914 3.3508987 -4.843109q2.370926 -1.9413147 5.694626 -2.5274963zm0.21128845 2.2792053q-2.6312637 0.4640503 -4.0962677 2.86438q-1.8525314 2.992218 -0.9820099 7.931732q0.83797455 4.7548523 3.24691 6.900299q2.1600723 1.9037781 5.20681 1.3664246q1.9695892 -0.3473816 3.311264 -1.6470337q1.3543396 -1.3177795 1.8916168 -3.7607117q0.5526581 -2.4456787 0.013000488 -5.507843q-0.52882385 -3.0006409 -1.9647522 -5.2066345q-1.1183167 -1.754303 -2.8876495 -2.5211487q-1.7539368 -0.76956177 -3.738922 -0.4194641zm37.891205 7.898163l1.688736 0.9397278q-3.3168945 6.5665283 -9.379578 7.635803q-4.7393494 0.83587646 -8.595413 -1.9587402q-3.8406677 -2.7973022 -4.7247467 -7.813751q-0.5884857 -3.3391724 0.45033264 -6.267212q1.0514984 -2.946167 3.4685822 -4.89563q2.4324646 -1.9521484 5.9254303 -2.5682068q3.969986 -0.7001648 6.9610443 0.7872925q3.0064545 1.4847717 3.3562927 3.4697876q0.18711853 1.0617676 -0.3407135 1.757782q-0.51516724 0.6779175 -1.2999268 0.8163147q-0.4154663 0.073272705 -0.85079956 -0.05621338q-0.4226532 -0.14758301 -0.9194641 -0.5359497q-0.22262573 -0.18286133 -0.90486145 -1.1731567q-0.8514252 -1.2301941 -1.2866974 -1.6293945q-0.87054443 -0.7984314 -2.0244904 -1.1343689q-1.1412659 -0.35403442 -2.4338074 -0.12606812q-1.9542236 0.34466553 -3.438919 1.7330017q-1.4873962 1.3729553 -2.1006622 3.6547852q-0.59788513 2.2791138 -0.07991028 5.2182007q0.80000305 4.5394287 3.6877136 6.7908325q2.5148773 1.9363708 5.423111 1.4234619q1.3387146 -0.2361145 2.6295624 -0.92388916q1.2908478 -0.6878052 2.3672638 -1.7820129q0.7812958 -0.78829956 2.4219208 -3.3623962zm1.9240723 -13.254395l-0.3335724 -1.8927002q1.6682129 -0.43701172 2.9002228 -1.0985413q1.2473907 -0.6642761 2.7537842 -1.9295044l1.7387848 -0.30667114l0.7701874 4.3701477q1.2758179 -2.3034668 3.2393494 -3.8556213q1.9608154 -1.5675049 3.6996155 -1.874176q1.7080078 -0.301239 2.8365479 0.3406372q1.1412048 0.6237488 1.3445892 1.777832q0.14645386 0.83096313 -0.4013214 1.5939331q-0.5504761 0.7476196 -1.4737244 0.9104309q-0.4154663 0.073272705 -0.7421875 0.019836426q-0.3140564 -0.0715332 -0.9539032 -0.3711853q-1.4236145 -0.6057129 -2.269928 -0.45645142q-1.154068 0.20355225 -2.3680878 1.4172363q-1.5345154 1.5557861 -2.323166 2.932434l1.8766327 10.648407q0.24406433 1.3849182 0.48472595 1.8501892q0.24064636 0.465271 0.64427185 0.7748718q0.41627502 0.2915039 0.9539032 0.37121582q0.53489685 0.064331055 1.7966766 -0.15823364l0.76937866 -0.13568115l0.34170532 1.9388733l-11.94072 2.105957l-0.34169006 -1.9388733l1.0001831 -0.1763916q1.4002686 -0.24697876 1.8003998 -0.58724976q0.54045105 -0.44439697 0.70895386 -1.1087341q0.18388367 -0.66708374 -0.095443726 -2.2520447l-2.4000397 -13.618256l-4.0161285 0.708313zm38.432632 -1.0030212l-0.44203186 -2.5082092q-0.45289612 -2.5697632 -2.076477 -3.409912q-1.6235809 -0.8401489 -4.239456 -0.3788147q-1.2925568 0.22796631 -2.2077332 0.70669556q-0.9151764 0.47875977 -1.4022675 1.1358337q-0.48980713 0.6416931 -0.6447449 1.3829956q-0.079711914 0.26791382 -0.20954895 2.0519714q-0.17245483 2.1723328 -1.788147 2.457306q-0.9232483 0.16281128 -1.5983429 -0.33688354q-0.6624298 -0.51782227 -0.8468323 -1.5641785q-0.2684784 -1.523407 0.59716797 -3.1833801q0.8810425 -1.6626587 3.0210419 -3.0238037q2.1526642 -1.3792114 5.3224945 -1.9382629q2.9543915 -0.52108765 5.2098083 0.033111572q2.268097 0.5360718 3.5539246 2.0704346q0.89852905 1.0473633 1.4490509 4.171112l1.5647736 8.878784q0.33355713 1.8927002 0.55970764 2.455719q0.4197693 0.94140625 1.140152 1.3379517q0.7330475 0.37841797 1.7486267 0.1993103q1.0617371 -0.18725586 2.4494476 -0.9555969l0.35255432 2.0004272q-1.8231049 0.90859985 -3.346466 1.1772461q-1.631073 0.2876892 -2.8357239 0.024169922q-1.2073517 -0.27893066 -2.085144 -1.0284729q-0.86512756 -0.7676697 -1.2821198 -1.9634094q-2.3873596 2.6581726 -4.476654 3.9468994q-2.0766144 1.2706299 -4.3693542 1.6749878q-3.1852112 0.5617676 -5.476639 -0.82696533q-2.2914429 -1.3887329 -2.700943 -3.7123108q-0.2494812 -1.4156799 0.25134277 -2.8050232q0.5135193 -1.4074707 1.81987 -2.6374207q1.3217316 -1.2326965 4.3767853 -2.533081q3.0550385 -1.3003845 8.611877 -2.899231zm0.3552704 2.015808q-5.2165527 1.7292175 -6.4421997 2.2468262q-2.4051056 1.0270996 -3.3755798 1.912262q-0.9550934 0.8824158 -1.2756958 1.7640076q-0.32331848 0.8661804 -0.16331482 1.7740784q0.1572876 0.8924866 0.81422424 1.6492615q0.67233276 0.75405884 1.6977539 1.0809326q1.0381012 0.30874634 2.0998383 0.12149048q1.5079651 -0.2659607 3.2758942 -1.3075867q1.7651978 -1.0570374 4.353485 -3.6554565l-0.9844055 -5.5858154zm24.52568 -15.590515l1.6156769 -0.28494263l3.3220825 6.6966553l-1.9552765 1.0588074q-1.7453766 -2.6115417 -4.2948 -3.8437195q-2.5340424 -1.2348633 -4.842163 -0.8277893q-1.769577 0.31207275 -2.7229004 1.3845825q-0.95602417 1.0571289 -0.75805664 2.1804504q0.18711853 1.0617676 1.1228638 1.690033q0.9230652 0.6463623 3.850998 1.1454163l4.7751923 0.80789185q4.0547485 0.6810913 5.7135315 1.9909973q1.6307068 1.3307495 1.980545 3.315796q0.29559326 1.6772766 -0.44335938 3.4259338q-0.74168396 1.7333069 -2.5023956 2.9957886q-1.7607269 1.2625122 -4.2535095 1.702179q-3.877655 0.6838684 -7.037918 -1.0434875l-0.19950867 1.7487488l-1.6310883 0.2876587l-4.2243958 -7.045227l1.9616547 -1.2027283q2.6784668 2.9546814 4.79982 4.008484q2.9476166 1.5110168 5.978943 0.9763794q2.0003815 -0.35281372 3.1031036 -1.6579285q1.1027222 -1.3051147 0.87220764 -2.6130676q-0.19255066 -1.0925293 -1.1499939 -1.8439026q-0.98550415 -0.7305603 -3.4862366 -1.1463013l-5.6811676 -0.99716187q-3.6510773 -0.64120483 -5.250122 -1.8823547q-1.59906 -1.2411194 -1.9380493 -3.1646118q-0.40950012 -2.3235474 1.4455566 -4.491211q1.8677368 -2.18573 5.2375946 -2.7800903q1.7541809 -0.3093567 3.2204132 -0.09197998q1.4635315 0.20199585 2.9839325 0.9968872l0.38682556 -1.4961853zm13.642838 -10.497894l1.631073 -0.2876892l1.3830719 7.847809l6.8628235 -1.2103577l0.40678406 2.3081665l-6.8628235 1.2103882l2.4542694 13.925995q0.3118744 1.7696228 0.7552185 2.4847412q0.4560089 0.69699097 1.2814026 1.0591431q0.8380432 0.34405518 1.7613068 0.18121338q2.200409 -0.38809204 4.50264 -2.8091125l0.3932495 2.2312317q-2.6525726 2.5939026 -5.745468 3.1393738q-1.7541656 0.3093872 -3.3235168 -0.22299194q-1.5539551 -0.53512573 -2.2642517 -1.5046082q-0.6949158 -0.9721985 -1.1586456 -3.6035156l-2.5030823 -14.203003l-4.046921 0.7137451l-0.34170532 -1.9388733q1.8628998 -0.77279663 2.885025 -1.9050598q1.0375061 -1.1349487 1.5157623 -2.7424316q0.47827148 -1.6075134 0.41378784 -4.674164zm17.040115 -6.2102966q1.1079102 -0.19540405 2.0282593 0.4355774q0.9203491 0.63098145 1.1156006 1.7389221q0.19528198 1.1079102 -0.45117188 2.0310974q-0.6464844 0.92318726 -1.754364 1.1185913q-1.1079102 0.19540405 -2.0309753 -0.45095825q-0.9230652 -0.6463928 -1.1183167 -1.754303q-0.19528198 -1.1079407 0.45388794 -2.015747q0.6491699 -0.9077759 1.7570801 -1.1031799zm-3.37677 15.319336l-0.3362732 -1.908081q1.8827515 -0.57006836 3.1020813 -1.213501q1.2347107 -0.6461487 2.7365723 -1.8471375l1.692627 -0.29852295l3.2624207 18.511597q0.1708374 0.9694214 0.53460693 1.4129944q0.36105347 0.42816162 0.894104 0.57214355q0.5303955 0.12860107 1.8536987 -0.10479736l1.0771484 -0.18997192l0.3416748 1.9388733l-11.817596 2.084259l-0.34170532 -1.9388733l0.9540405 -0.16827393q1.5387268 -0.27139282 2.013092 -0.640625q0.4897461 -0.37197876 0.61569214 -0.91778564q0.1413269 -0.54849243 -0.18954468 -2.4258118l-2.3918762 -13.5720825l-4.000763 0.7055969zm14.387329 -2.5374756l-0.34170532 -1.9388733q2.0058594 -0.59176636 2.9644775 -1.0940247q0.95861816 -0.5022583 2.6949463 -1.9032593l1.6618652 -0.29309082l0.7728882 4.385559q2.5965576 -3.0917358 4.59079 -4.3795776q1.9915466 -1.3031921 4.2073364 -1.6940002q1.8926697 -0.33380127 3.453003 0.057373047q1.572998 0.3730774 2.6734009 1.3055115q1.1130981 0.91430664 1.6495361 2.2476501q0.33380127 0.81378174 0.6402283 2.5526123l1.789856 10.155975q0.32000732 1.8157654 0.6737976 2.2928162q0.36920166 0.47433472 0.9792175 0.6047363q0.6253967 0.12771606 2.8873596 -0.27124023l0.34170532 1.9388733l-11.894562 2.0978088l-0.34170532 -1.9388428l0.64627075 -0.113983154q1.6618652 -0.29312134 2.2104492 -0.6913147q0.5458679 -0.41360474 0.7071228 -1.0290833q0.17391968 -0.63360596 -0.14065552 -2.418579l-1.4969788 -8.49411q-0.4637146 -2.6313171 -1.0735474 -3.5709229q-0.6098633 -0.9396057 -1.7520142 -1.3887024q-1.1267395 -0.45178223 -2.696289 -0.17495728q-1.8772583 0.3310852 -3.832611 1.6596375q-1.9553223 1.3285828 -3.6094666 3.5559692l1.8739319 10.633026q0.31729126 1.8003845 0.68463135 2.35437q0.38275146 0.55126953 1.0371094 0.75320435q0.45611572 0.15753174 2.2564697 -0.16000366l0.6616516 -0.11669922l0.34170532 1.9388733l-11.87915 2.0951233l-0.34170532 -1.9388733l0.56933594 -0.10040283q1.7080078 -0.301239 2.2720032 -0.70217896q0.5793457 -0.4036255 0.7107544 -1.188385q0.07342529 -0.3937378 -0.30895996 -2.5634155l-2.318695 -13.156616l-3.9237976 0.6920166zm48.762634 -2.8407593l-0.44204712 -2.5082397q-0.45288086 -2.5697632 -2.0764465 -3.409912q-1.6235962 -0.8401489 -4.2394714 -0.37878418q-1.2925415 0.22796631 -2.2077332 0.70669556q-0.91516113 0.47872925 -1.4022827 1.1358337q-0.48980713 0.6416931 -0.6447449 1.3829956q-0.079711914 0.26791382 -0.20953369 2.051941q-0.17245483 2.1723633 -1.788147 2.457306q-0.9232483 0.1628418 -1.5983582 -0.33688354q-0.66241455 -0.51779175 -0.8468323 -1.5641785q-0.26846313 -1.523407 0.5971985 -3.1833496q0.8810425 -1.6626892 3.0210266 -3.0238037q2.152649 -1.379242 5.3224792 -1.9382935q2.9544067 -0.5210571 5.209839 0.033111572q2.268097 0.5361023 3.553894 2.070465q0.8985596 1.0473633 1.4490662 4.1710815l1.5647583 8.878784q0.33358765 1.8927307 0.5597229 2.4557495q0.4197693 0.94140625 1.1401367 1.3379211q0.73306274 0.3784485 1.7486572 0.1993103q1.0617371 -0.18725586 2.4494324 -0.9555664l0.35253906 2.0003967q-1.8230896 0.90859985 -3.346466 1.1772766q-1.631073 0.2876587 -2.8357239 0.024139404q-1.2073364 -0.27890015 -2.085144 -1.0284729q-0.8651123 -0.76763916 -1.2821045 -1.9634094q-2.3873596 2.6582031 -4.476654 3.94693q-2.0765991 1.2705994 -4.3693542 1.6749878q-3.1852112 0.5617676 -5.476654 -0.82699585q-2.2914124 -1.3887329 -2.7009277 -3.7122803q-0.2494812 -1.4156799 0.25134277 -2.8050537q0.5135193 -1.4074402 1.8198853 -2.6374207q1.3217163 -1.2326965 4.37677 -2.533081q3.0550537 -1.3003845 8.611877 -2.8992004zm0.35525513 2.015808q-5.2165527 1.729187 -6.442169 2.2468262q-2.4051208 1.0270996 -3.3756104 1.9122314q-0.9550781 0.8824158 -1.2756958 1.7640076q-0.32330322 0.86621094 -0.16329956 1.7740784q0.1572876 0.8925171 0.8142395 1.649292q0.67233276 0.75405884 1.6977539 1.0809021q1.0380859 0.30877686 2.099823 0.121520996q1.5079651 -0.2659607 3.275879 -1.3076172q1.7652283 -1.0570374 4.3535156 -3.6554565l-0.98443604 -5.585785zm13.586975 -21.753021l1.631073 -0.2876587l1.3830872 7.847809l6.8628235 -1.2103882l0.4067688 2.3081665l-6.8628235 1.2103882l2.4542847 13.926025q0.31185913 1.7695923 0.7552185 2.4847107q0.45599365 0.6970215 1.2814026 1.0591431q0.8380432 0.34405518 1.7612915 0.18121338q2.200409 -0.38806152 4.502655 -2.8091125l0.393219 2.2312317q-2.6525574 2.5939026 -5.745453 3.1393738q-1.7541504 0.3093872 -3.3235168 -0.22299194q-1.5539551 -0.53512573 -2.2642517 -1.5046082q-0.6949158 -0.9721985 -1.1586304 -3.6035156l-2.5030823 -14.203003l-4.046936 0.7137451l-0.34170532 -1.9388733q1.862915 -0.77279663 2.8850403 -1.9050293q1.0375061 -1.1349792 1.5157471 -2.7424622q0.47827148 -1.6075134 0.41378784 -4.674164zm17.04013 -6.2102966q1.1078796 -0.19540405 2.0282593 0.4355774q0.9203491 0.63098145 1.1156006 1.7389221q0.19525146 1.1079102 -0.4512024 2.0310974q-0.64645386 0.92318726 -1.7543335 1.1185913q-1.1079102 0.19540405 -2.0309753 -0.45095825q-0.9230652 -0.6463928 -1.1183472 -1.754303q-0.19525146 -1.1079407 0.45391846 -2.015747q0.6491699 -0.9077759 1.7570801 -1.1031799zm-3.37677 15.319336l-0.3362732 -1.908081q1.8827515 -0.57006836 3.1020813 -1.213501q1.2347107 -0.6461487 2.7365723 -1.8471375l1.692627 -0.29852295l3.2624207 18.511597q0.1708374 0.9694519 0.53460693 1.4129944q0.36102295 0.42819214 0.894104 0.57214355q0.530365 0.12860107 1.8536987 -0.10479736l1.0771179 -0.18997192l0.34170532 1.9388733l-11.817596 2.084259l-0.34170532 -1.9388733l0.95401 -0.16827393q1.5387573 -0.27139282 2.0131226 -0.640625q0.4897461 -0.37197876 0.61569214 -0.9177551q0.14129639 -0.54852295 -0.18954468 -2.4258423l-2.3919067 -13.5720825l-4.0007324 0.7055969zm14.387329 -2.5374756l-0.34170532 -1.9388733q2.0058594 -0.59173584 2.9644775 -1.0940247q0.95861816 -0.5022583 2.6949463 -1.9032288l1.6618347 -0.29312134l0.7729187 4.385559q2.596527 -3.0917358 4.59079 -4.3795776q1.9915466 -1.3031921 4.2073364 -1.6940002q1.8926697 -0.33380127 3.453003 0.057373047q1.572998 0.3731079 2.6734009 1.3055115q1.1130676 0.91430664 1.6495056 2.2476501q0.33380127 0.81378174 0.6402588 2.5526123l1.789856 10.155975q0.32000732 1.8157654 0.6737976 2.2928162q0.36917114 0.47433472 0.979187 0.60476685q0.62542725 0.12768555 2.8873901 -0.27127075l0.3416748 1.9388733l-11.894531 2.0978394l-0.34170532 -1.9388733l0.64627075 -0.113983154q1.6618652 -0.29312134 2.2104492 -0.6913147q0.5458679 -0.41360474 0.7071228 -1.0290833q0.17391968 -0.63360596 -0.14065552 -2.418579l-1.4969788 -8.49411q-0.46374512 -2.6313171 -1.0735779 -3.5709229q-0.60983276 -0.9396057 -1.7519836 -1.3887024q-1.12677 -0.45178223 -2.696289 -0.17495728q-1.8772583 0.3310852 -3.832611 1.659668q-1.9553528 1.3285522 -3.6094666 3.5559692l1.8739014 10.632996q0.31732178 1.8003845 0.68466187 2.35437q0.38275146 0.55126953 1.0370789 0.75320435q0.45614624 0.15753174 2.2565002 -0.16000366l0.6616516 -0.1166687l0.34170532 1.9388428l-11.87915 2.0951233l-0.34170532 -1.9388733l0.56933594 -0.10040283q1.7080078 -0.301239 2.2719727 -0.70217896q0.5793762 -0.4036255 0.7107849 -1.188385q0.073394775 -0.3937378 -0.30895996 -2.5634155l-2.318695 -13.156616l-3.9237976 0.6920166zm48.761536 -10.139008q0.8140259 -1.4128418 1.790802 -2.1721802q0.9740906 -0.7746887 1.8665466 -0.9320984q0.8309326 -0.14654541 1.4897766 0.26083374q0.6560974 0.3919983 0.7808533 1.099823q0.13015747 0.73861694 -0.28811646 1.3359985q-0.41830444 0.5973511 -1.203064 0.7357483q-0.32315063 0.057006836 -0.89608765 0.046966553q-0.6760864 -0.055267334 -1.1223145 0.0234375q-0.56936646 0.10040283 -1.1053162 0.75024414q1.7347717 1.4710693 2.1469727 3.8099976q0.56137085 3.1853027 -1.7038574 5.99646q-2.2679138 2.7957764 -6.3456116 3.5149536q-2.261963 0.3989563 -4.7228394 -0.15072632q-1.3308411 1.361206 -1.4874878 1.6427002q-0.2526245 0.45706177 -0.17666626 0.88793945q0.11932373 0.677063 0.8876648 0.9857788q0.9801636 0.4300537 3.6330566 0.35882568l6.8390503 -0.17489624q2.2754822 -0.05227661 4.6503906 0.3697815q2.3876038 0.40393066 3.6156006 1.5201111q1.2460938 1.1288757 1.563385 2.9292297q0.5369568 3.046814 -1.9589539 5.3592224q-3.1730957 2.971283 -10.2052 4.2115173q-3.6929932 0.65133667 -6.139435 0.2736206q-2.4464111 -0.37768555 -3.9757996 -1.5835266q-1.107666 -0.8835144 -1.3029175 -1.9914551q-0.25219727 -1.4310608 0.44506836 -2.9661255q0.7000122 -1.5196838 3.640503 -4.6403503q-2.2826538 -0.1685791 -3.3668518 -0.73895264q-1.3656616 -0.7269592 -1.577179 -1.9272156q-0.105773926 -0.6001282 0.017456055 -1.1613159q0.13861084 -0.5639038 0.5415039 -1.1585388q0.40020752 -0.6100464 1.5608215 -1.7666931q0.72787476 -0.7312927 1.0175781 -1.0679932q-1.8887634 -0.90441895 -3.0108032 -2.2296753q-1.109375 -1.3433533 -1.4239502 -3.128357q-0.5152588 -2.923706 1.3588867 -5.523102q2.2671204 -3.160553 6.929535 -3.9828491q2.077301 -0.36639404 3.708252 -0.114593506q1.6463623 0.24911499 3.5287476 1.2974548zm-7.057373 1.0067139q-2.261963 0.39892578 -3.5413208 2.3222656q-1.282074 1.9079285 -0.8562927 4.323822q0.28475952 1.6157227 1.2230835 2.7988281q0.95373535 1.1804199 2.3791504 1.7064819q1.4227295 0.51065063 2.8537598 0.25823975q1.4310608 -0.25238037 2.5907288 -1.2343445q1.1723328 -1.0000916 1.6523743 -2.4174805q0.480011 -1.4174194 0.19525146 -3.0331726q-0.44744873 -2.538971 -2.2628174 -3.8371582q-1.8180847 -1.3135681 -4.233917 -0.8874817zm-0.14672852 20.683594q-1.8822327 2.2835083 -2.3993225 3.580536q-0.5144043 1.312439 -0.3218689 2.4049683q0.16271973 0.9232788 1.0378113 1.6574402q0.87506104 0.7341614 2.7268677 0.97875977q1.8518066 0.24456787 4.513855 -0.22494507q3.139038 -0.5536194 5.2662964 -1.6268921q2.1272583 -1.0733032 2.909546 -2.3060303q0.5767822 -0.9584961 0.37609863 -2.0971985q-0.17086792 -0.9694519 -0.8902893 -1.5406799q-0.701355 -0.5585327 -2.4191895 -0.76327515q-1.7024841 -0.2074585 -3.1588135 -0.18859863l-7.640991 0.12591553zm41.24411 -30.153137q3.385254 -0.5970459 6.1121216 0.38171387q2.739563 0.9606323 4.647888 3.416504q1.9056396 2.4404907 2.515808 5.902771q0.61016846 3.4622498 -0.38974 6.431061q-0.98721313 2.9506836 -3.2585754 4.8268433q-2.2740479 1.8607483 -5.7824097 2.4795227q-5.585663 0.9851074 -9.014465 -1.9959106q-3.4161072 -2.999115 -4.2459717 -7.707794q-0.6074524 -3.446869 0.369812 -6.3640747q0.99264526 -2.9199219 3.350891 -4.8431396q2.3709412 -1.9412842 5.694641 -2.5274963zm0.2112732 2.2792053q-2.631256 0.4640503 -4.0962524 2.86438q-1.8525391 2.9922485 -0.98202515 7.931732q0.8379822 4.7548523 3.2469177 6.9003296q2.1600647 1.9037476 5.206787 1.366394q1.9696045 -0.3473816 3.3112793 -1.6470337q1.3543396 -1.317749 1.8916321 -3.7607117q0.5526428 -2.4456482 0.012969971 -5.507843q-0.5288086 -3.0006409 -1.9647217 -5.2066345q-1.1183472 -1.754303 -2.8876648 -2.5211487q-1.7539368 -0.76956177 -3.738922 -0.4194641zm15.313385 -1.0189819l-0.34170532 -1.9388733q2.0058594 -0.59176636 2.9644775 -1.0940247q0.95861816 -0.5022583 2.6949463 -1.9032593l1.6618652 -0.29309082l0.7728882 4.3855286q2.596527 -3.0917358 4.59079 -4.379547q1.9915466 -1.3032227 4.2073364 -1.6940002q1.8926697 -0.3338318 3.453003 0.057373047q1.572998 0.3730774 2.6734009 1.3055115q1.1130981 0.91430664 1.6495056 2.2476501q0.3338318 0.8137512 0.6402588 2.5525818l1.789856 10.156006q0.32000732 1.8157654 0.6737976 2.2928162q0.36917114 0.47433472 0.979187 0.6047363q0.62542725 0.12768555 2.8873901 -0.27124023l0.3416748 1.9388733l-11.894531 2.0978088l-0.34170532 -1.9388733l0.64627075 -0.113983154q1.6618652 -0.29309082 2.2104492 -0.6913147q0.5458679 -0.41357422 0.7071228 -1.0290833q0.17391968 -0.63357544 -0.14065552 -2.418579l-1.4969788 -8.49408q-0.46374512 -2.6313477 -1.0735779 -3.5709534q-0.60983276 -0.9396057 -1.7519836 -1.3886719q-1.12677 -0.45178223 -2.696289 -0.1749878q-1.8772583 0.33111572 -3.832611 1.659668q-1.9553223 1.3285522 -3.6094666 3.5559692l1.8739319 10.632996q0.31729126 1.8003845 0.68463135 2.35437q0.38275146 0.55130005 1.0370789 0.75320435q0.45614624 0.15756226 2.2565002 -0.15997314l0.6616516 -0.11669922l0.34170532 1.9388733l-11.87915 2.0950928l-0.34170532 -1.9388733l0.56933594 -0.10040283q1.7080078 -0.301239 2.2719727 -0.70214844q0.5793762 -0.403656 0.7107849 -1.1884155q0.073394775 -0.39370728 -0.30895996 -2.5634155l-2.318695 -13.156616l-3.9237976 0.6920471zm50.402557 -20.408234l1.6310425 -0.2876892l1.3831177 7.847809l6.862793 -1.2103882l0.40679932 2.308197l-6.862854 1.2103882l2.4542847 13.925995q0.31188965 1.7695923 0.755249 2.4847107q0.45599365 0.6970215 1.2813721 1.0591736q0.83807373 0.34405518 1.7612915 0.18121338q2.2004395 -0.38809204 4.5026855 -2.809143l0.39318848 2.2312622q-2.6525269 2.593872 -5.7454224 3.1393738q-1.7541504 0.3093872 -3.3235474 -0.22302246q-1.5539551 -0.5350952 -2.2642212 -1.5045776q-0.6949463 -0.972229 -1.1586304 -3.6035461l-2.5031128 -14.202972l-4.0469055 0.7137451l-0.34170532 -1.9388733q1.8628845 -0.77282715 2.8850098 -1.9050598q1.0375061 -1.1349487 1.5157776 -2.7424622q0.47827148 -1.6074829 0.41378784 -4.6741333zm11.911682 -1.9104614l-0.34985352 -1.9850464q2.1950684 -0.68859863 3.3709717 -1.3085022q1.1731567 -0.6352844 2.3807983 -1.7050476l1.800354 -0.3175354l2.6901855 15.2647705q2.2280884 -2.6618347 4.3726196 -4.087219q2.159912 -1.4281006 4.283386 -1.8026123q3.0928955 -0.5455017 5.418701 0.9482422q2.3104248 1.49646 2.779602 4.158539l1.9959106 11.32547q0.29833984 1.6926575 0.6520996 2.1697083q0.3665161 0.45895386 1.0253906 0.59661865q0.6742554 0.13491821 2.843933 -0.24771118l0.3416748 1.9388733l-11.909912 2.100525l-0.34173584 -1.9388733l0.87713623 -0.1546936q1.677185 -0.29580688 2.1542969 -0.6496887q0.4897461 -0.37194824 0.630188 -1.0155029q0.13769531 -0.65893555 -0.20129395 -2.582428l-1.3857422 -7.8631897q-0.46105957 -2.6159363 -0.7839966 -3.3681335q-0.58984375 -1.2763367 -1.8233643 -1.8838196q-1.2208862 -0.62557983 -2.8981323 -0.32977295q-1.8926392 0.33380127 -3.8045654 1.6388245q-1.8964844 1.3023376 -3.7841187 3.5550537l2.0393066 11.571686q0.22784424 1.292572 0.5372925 1.6981201q0.3067627 0.39013672 0.8678589 0.51330566q0.57385254 0.105041504 2.1741333 -0.17718506l0.93865967 -0.16555786l0.3416748 1.9388733l-11.956116 2.108673l-0.3416748 -1.9388733l0.72320557 -0.12753296q1.6772461 -0.2958374 2.373413 -0.84698486q0.37750244 -0.2886963 0.45635986 -0.9213867q0.07891846 -0.63272095 -0.40112305 -3.3563538l-4.1329346 -23.45111l-3.9545898 0.69747925zm36.33429 -9.803589q1.1079102 -0.19540405 2.0282593 0.4356079q0.9203491 0.63098145 1.1156006 1.7388916q0.1953125 1.1079407 -0.45117188 2.031128q-0.6464844 0.92318726 -1.7543335 1.1185913q-1.1079102 0.19537354 -2.0310059 -0.45098877q-0.92303467 -0.6463623 -1.1182861 -1.754303q-0.1953125 -1.1079102 0.45385742 -2.0157166q0.6491699 -0.9078064 1.7570801 -1.1032104zm-3.37677 15.319366l-0.33624268 -1.9081116q1.8827515 -0.57003784 3.1020508 -1.213501q1.2347412 -0.6461487 2.7365723 -1.8471069l1.692627 -0.29852295l3.2624512 18.511566q0.1708374 0.9694519 0.53460693 1.4130249q0.36102295 0.42816162 0.894104 0.57214355q0.5303345 0.12857056 1.8536987 -0.10482788l1.0770874 -0.18997192l0.34173584 1.9388733l-11.817627 2.084259l-0.3416748 -1.9388733l0.9540405 -0.16824341q1.5386963 -0.27139282 2.0130615 -0.6406555q0.4897461 -0.37194824 0.61572266 -0.9177551q0.14129639 -0.54849243 -0.1895752 -2.4258118l-2.3918457 -13.572113l-4.0007935 0.70562744zm29.40448 -8.613129l1.6157227 -0.28494263l3.3220825 6.6966553l-1.9553223 1.0588074q-1.7453613 -2.6115417 -4.2948 -3.8437195q-2.5339966 -1.2348633 -4.842163 -0.8277893q-1.7695312 0.31207275 -2.7228394 1.3845825q-0.9560547 1.0571289 -0.7581177 2.1804504q0.18713379 1.0617676 1.1228638 1.690033q0.9230957 0.6463623 3.8510132 1.1454163l4.7752075 0.80789185q4.0547485 0.6810913 5.713501 1.9909973q1.6307373 1.3307495 1.9805908 3.315796q0.29559326 1.6772766 -0.44335938 3.4259338q-0.7416992 1.7333069 -2.5024414 2.9957886q-1.7606812 1.2625122 -4.253479 1.702179q-3.8776855 0.6838684 -7.037903 -1.0434875l-0.19952393 1.7487488l-1.6311035 0.2876587l-4.224365 -7.045227l1.9616089 -1.2027283q2.6784668 2.9546814 4.7998657 4.008484q2.9475708 1.5110168 5.978943 0.9763794q2.0003662 -0.35281372 3.1030884 -1.6579285q1.1027222 -1.3051147 0.8721924 -2.6130676q-0.19256592 -1.0925293 -1.1499634 -1.8439026q-0.98553467 -0.7305603 -3.486267 -1.1463013l-5.6811523 -0.99716187q-3.651062 -0.64120483 -5.250122 -1.8823547q-1.59906 -1.2411194 -1.9380493 -3.1646118q-0.40948486 -2.3235474 1.4455566 -4.491211q1.8677368 -2.18573 5.23761 -2.7800598q1.7541504 -0.3093872 3.220398 -0.0920105q1.463501 0.20199585 2.9839478 0.9968872l0.3867798 -1.4961853zm24.418335 -0.89538574l-0.33355713 -1.8927002q1.7387695 -0.30667114 3.001587 -0.9736328q1.2600708 -0.68237305 2.6524048 -2.0544434l1.8311157 -0.322937l0.6807251 3.8623352q2.4733887 -2.8002625 4.243103 -3.9215698q1.7851562 -1.1240234 3.7085571 -1.4632568q3.939209 -0.69473267 7.26947 1.9070129q3.3302002 2.6017456 4.2061768 7.5720215q0.96813965 5.493469 -1.583374 9.560944q-2.3079834 3.7389526 -6.862671 4.542267q-2.261963 0.39892578 -4.3988037 -0.112701416q-1.5368042 -0.3477478 -3.6699219 -1.558136l1.3397217 7.601593q0.3010254 1.7080688 0.44482422 1.9841309q0.18640137 0.4272461 0.576416 0.6599121q0.4081421 0.24536133 0.9630127 0.2427063q0.3955078 -0.0063171387 2.6420898 -0.40252686l0.34173584 1.9388733l-11.894592 2.0978088l-0.3416748 -1.9388733l1.0463257 -0.1845398q1.5849609 -0.27954102 2.0185547 -0.6098633q0.43634033 -0.3149414 0.5776367 -0.86346436q0.067993164 -0.4244995 -0.2845459 -2.4249268l-4.2197266 -23.943512l-3.9545898 0.69747925zm8.249878 0.9883728l1.399353 7.9401245q0.27661133 1.5695496 0.5968628 2.3063965q0.48309326 1.120636 1.4359741 1.9362488q0.9655762 0.7975464 2.4544067 1.2330933q1.5014648 0.41741943 2.9940796 0.1541748q3.0005493 -0.5292053 4.802307 -3.1792908q1.8171387 -2.652832 1.0089722 -7.2384033q-0.7565918 -4.293213 -2.999939 -6.3092346q-2.2306519 -2.0340881 -4.7233887 -1.5944519q-1.6157227 0.28497314 -3.3565063 1.4804993q-1.7435303 1.1801147 -3.6121216 3.2708435zm21.247986 -6.190857l-0.33355713 -1.8927307q1.6682129 -0.43701172 2.9002075 -1.0985413q1.2473755 -0.6642456 2.7537842 -1.9295044l1.7387695 -0.30667114l0.77020264 4.3701477q1.2758179 -2.3034668 3.23938 -3.8555908q1.9608154 -1.5675354 3.699585 -1.8742065q1.7080078 -0.301239 2.8365479 0.3406372q1.1412354 0.6237793 1.3446045 1.7778625q0.14642334 0.8309326 -0.40130615 1.5939331q-0.5504761 0.7475891 -1.4737549 0.9104309q-0.4154663 0.073272705 -0.7421875 0.019836426q-0.3140869 -0.0715332 -0.95391846 -0.37121582q-1.423584 -0.6056824 -2.2698975 -0.4564209q-1.1540527 0.20352173 -2.368103 1.4172058q-1.5344849 1.5558167 -2.3231812 2.9324646l1.876648 10.648407q0.24407959 1.3848877 0.4847412 1.8501587q0.24066162 0.465271 0.6442261 0.7748718q0.4163208 0.2915039 0.95391846 0.37121582q0.5349121 0.064331055 1.7966919 -0.15820312l0.7694092 -0.13571167l0.3416748 1.9388733l-11.940735 2.105957l-0.3416748 -1.9388428l1.0001831 -0.17642212q1.4002686 -0.24694824 1.800415 -0.58724976q0.5404663 -0.44436646 0.70892334 -1.1087341q0.18389893 -0.66708374 -0.09539795 -2.2520447l-2.4000854 -13.618256l-4.0161133 0.7083435zm42.894226 5.8575745l1.6887207 0.9397278q-1.324707 2.2962341 -2.7008057 3.76062q-1.3787842 1.4490051 -2.7103882 2.1756897q-1.3161621 0.723999 -3.2088623 1.0578003q-3.385254 0.5970459 -6.0143433 -0.3671875q-3.0056763 -1.1199951 -4.9176636 -3.416565q-1.899292 -2.3146667 -2.512207 -5.792328q-0.6427002 -3.6469116 0.30194092 -6.4790344q0.960083 -2.8348389 3.220581 -4.7725525q2.275879 -1.9403992 5.5996094 -2.5265808q2.461975 -0.43423462 4.4160156 0.030303955q1.9666748 0.44644165 3.5023804 1.7780762q1.5510864 1.328949 2.4910278 3.2416077q0.52923584 1.1124878 0.90625 2.981659l-16.32611 2.879425q0.13641357 1.1341858 0.23400879 1.6881409q0.51257324 2.9082947 1.9295044 5.006592q1.4169312 2.098297 3.2686157 2.8823242q1.8643799 0.7659607 3.987854 0.39144897q1.800354 -0.3175354 3.3311157 -1.4442749q1.5435181 -1.144867 3.5127563 -4.0148926zm-4.5978394 -8.803986q-0.71276855 -2.0638123 -1.5380249 -2.9654236q-0.8098755 -0.9043274 -2.085083 -1.2982178q-1.2598267 -0.39657593 -2.7216187 -0.13876343q-1.4464111 0.25509644 -2.617859 1.0804749q-1.1560059 0.82266235 -1.8151855 2.0336914q-0.6591797 1.211029 -0.91674805 3.350769l11.694519 -2.0625305zm22.178223 -11.130615l1.6156616 -0.28497314l3.3220825 6.6966553l-1.9552612 1.0588379q-1.7454224 -2.6115417 -4.2948 -3.8437195q-2.5340576 -1.2348938 -4.842163 -0.8278198q-1.7695923 0.31210327 -2.7229004 1.384613q-0.9560547 1.0571289 -0.75805664 2.18042q0.18713379 1.0617676 1.1228638 1.690033q0.92303467 0.6463928 3.8509521 1.1454163l4.7752075 0.80789185q4.0547485 0.6810913 5.713562 1.9910278q1.6306763 1.3307495 1.9805298 3.3157654q0.29559326 1.6772766 -0.44335938 3.4259644q-0.7416992 1.7332764 -2.5023804 2.9957886q-1.7607422 1.2625122 -4.25354 1.7021484q-3.8776245 0.6838989 -7.037903 -1.043457l-0.19952393 1.7487183l-1.6310425 0.2876892l-4.2244263 -7.045227l1.9616699 -1.2027588q2.6784668 2.9546814 4.7998047 4.0085144q2.9476318 1.5109863 5.978943 0.9763794q2.0003662 -0.35281372 3.1030884 -1.6579285q1.1027222 -1.3051147 0.8721924 -2.6130981q-0.19250488 -1.0925293 -1.1499634 -1.8439026q-0.98547363 -0.7305603 -3.486206 -1.1462708l-5.6812134 -0.99716187q-3.651062 -0.64123535 -5.250122 -1.8823547q-1.59906 -1.2411194 -1.9380493 -3.1646118q-0.40948486 -2.323578 1.4455566 -4.491211q1.8677368 -2.1857605 5.23761 -2.7800903q1.7542114 -0.3093872 3.220398 -0.09197998q1.463562 0.20199585 2.9839478 0.9968567l0.38684082 -1.4961548zm31.582703 11.263794l1.6887207 0.93969727q-1.324646 2.2962341 -2.7007446 3.7606506q-1.3788452 1.4490051 -2.7103882 2.1756897q-1.3162231 0.723999 -3.2088623 1.0578003q-3.385254 0.5970459 -6.0144043 -0.36721802q-3.0056152 -1.1199646 -4.9176025 -3.4165344q-1.899353 -2.3146667 -2.512207 -5.792328q-0.64276123 -3.6469116 0.30194092 -6.4790344q0.960022 -2.8348389 3.22052 -4.7725525q2.275879 -1.9403992 5.5996094 -2.5266113q2.461975 -0.4342041 4.4160156 0.030334473q1.9667358 0.44644165 3.5023804 1.7780762q1.5510864 1.3289185 2.4910889 3.2416077q0.52923584 1.1124878 0.90625 2.981659l-16.326172 2.879425q0.13641357 1.1341553 0.23406982 1.6881409q0.5125122 2.9082947 1.9294434 5.006592q1.4169922 2.0982666 3.2686768 2.8823242q1.8643188 0.7659607 3.987793 0.39144897q1.800354 -0.3175354 3.3311768 -1.4442749q1.543457 -1.144867 3.5126953 -4.0148926zm-4.5977783 -8.803986q-0.71276855 -2.0638123 -1.5380859 -2.965454q-0.80981445 -0.9043274 -2.085083 -1.2981873q-1.2598267 -0.39657593 -2.7216187 -0.13876343q-1.4464111 0.25509644 -2.6177979 1.0804749q-1.1560669 0.82266235 -1.8152466 2.0336914q-0.6591797 1.211029 -0.916687 3.350769l11.694519 -2.0625305zm7.1610107 -5.0549927l-0.34173584 -1.9388733q2.0058594 -0.59176636 2.9644775 -1.0940247q0.9586792 -0.5022583 2.6949463 -1.9032593l1.6618652 -0.29309082l0.7728882 4.3855286q2.5965576 -3.0917053 4.5908203 -4.379547q1.9915161 -1.3032227 4.2073364 -1.6940002q1.8926392 -0.33380127 3.453003 0.057373047q1.572998 0.3730774 2.6734009 1.3055115q1.1130981 0.91430664 1.6495361 2.2476501q0.33380127 0.81378174 0.64019775 2.5526123l1.789856 10.155975q0.32000732 1.8157654 0.6738281 2.2928162q0.36920166 0.47433472 0.979187 0.6047363q0.62542725 0.12768555 2.8873901 -0.27124023l0.3416748 1.9388733l-11.894531 2.0978088l-0.34173584 -1.9388733l0.64630127 -0.113983154q1.6618652 -0.29309082 2.2104492 -0.6912842q0.5458374 -0.41360474 0.7070923 -1.0290833q0.1739502 -0.63360596 -0.140625 -2.418579l-1.4970093 -8.49411q-0.46368408 -2.6313171 -1.0735474 -3.5709229q-0.6098633 -0.93963623 -1.7520142 -1.3887024q-1.126709 -0.45178223 -2.696289 -0.17495728q-1.8772583 0.3310852 -3.8325806 1.6596375q-1.9553223 1.3285828 -3.609497 3.5559692l1.8739624 10.633026q0.31726074 1.8003845 0.68463135 2.35437q0.38275146 0.55126953 1.0371094 0.7531738q0.45611572 0.15756226 2.2564697 -0.15997314l0.6616211 -0.11669922l0.34173584 1.9388733l-11.87915 2.0951233l-0.34173584 -1.9388733l0.56933594 -0.10043335q1.7080078 -0.301239 2.2720337 -0.70214844q0.5793457 -0.403656 0.7107544 -1.188385q0.07342529 -0.3937378 -0.30895996 -2.563446l-2.3187256 -13.156616l-3.923767 0.6920471zm35.2843 -17.741852l1.6311035 -0.2876892l1.3830566 7.847809l6.862793 -1.2103882l0.40679932 2.308197l-6.862793 1.2103882l2.4542236 13.925995q0.31188965 1.7696228 0.755249 2.4847107q0.45599365 0.6970215 1.2813721 1.0591736q0.83807373 0.34405518 1.7613525 0.18121338q2.2003784 -0.38809204 4.5026245 -2.809143l0.3932495 2.2312622q-2.652588 2.593872 -5.7454834 3.1393738q-1.7541504 0.3093872 -3.3234863 -0.22302246q-1.5539551 -0.5350952 -2.2642822 -1.5045776q-0.69488525 -0.9721985 -1.1586304 -3.6035461l-2.5031128 -14.202972l-4.046875 0.7137451l-0.34173584 -1.9388733q1.862915 -0.77282715 2.8850098 -1.9050598q1.0375366 -1.1349487 1.5158081 -2.7424622q0.47827148 -1.6074829 0.41375732 -4.6741333zm31.435547 11.733978l-0.4420166 -2.5082092q-0.45288086 -2.5697632 -2.076477 -3.409912q-1.6235962 -0.8401489 -4.239502 -0.37878418q-1.2925415 0.22796631 -2.2077026 0.70669556q-0.91516113 0.47872925 -1.4022827 1.1358032q-0.48980713 0.64172363 -0.64471436 1.3830261q-0.079711914 0.26791382 -0.20953369 2.051941q-0.17248535 2.1723633 -1.788147 2.457306q-0.9232788 0.1628418 -1.5983887 -0.33688354q-0.66241455 -0.51782227 -0.84680176 -1.5641785q-0.26849365 -1.523407 0.59716797 -3.1833801q0.8810425 -1.6626587 3.020996 -3.0237732q2.15271 -1.379242 5.32251 -1.9382935q2.9544067 -0.5210571 5.209839 0.033111572q2.2680664 0.5360718 3.553894 2.070465q0.8985596 1.0473328 1.4490967 4.1710815l1.5647583 8.878784q0.33355713 1.8927002 0.5596924 2.4557495q0.41973877 0.94137573 1.1401367 1.3379211q0.73309326 0.37841797 1.7486572 0.1993103q1.0617065 -0.18725586 2.4494019 -0.9555969l0.3526001 2.0004272q-1.8231201 0.90859985 -3.3464966 1.1772766q-1.6310425 0.2876587 -2.8356934 0.024139404q-1.2073975 -0.27893066 -2.085144 -1.0284729q-0.8651123 -0.7676697 -1.2821045 -1.9634094q-2.3873901 2.6582031 -4.4766846 3.9468994q-2.0765991 1.2706299 -4.3693237 1.6749878q-3.1852417 0.5617676 -5.4766846 -0.82696533q-2.2914429 -1.3887329 -2.7009277 -3.7123108q-0.24951172 -1.4156799 0.25134277 -2.8050232q0.51348877 -1.4074707 1.8198853 -2.6374207q1.3217163 -1.2326965 4.37677 -2.533081q3.0550537 -1.3003845 8.611877 -2.899231zm0.35528564 2.0158386q-5.2165527 1.729187 -6.4421997 2.2468262q-2.4050903 1.0270996 -3.3756104 1.9122314q-0.9550781 0.8824158 -1.2756958 1.7640076q-0.32330322 0.8661804 -0.16333008 1.7740784q0.1572876 0.8924866 0.81427 1.6492615q0.67230225 0.75405884 1.6977539 1.0809326q1.0380859 0.30877686 2.0997925 0.121520996q1.5079956 -0.2659607 3.27594 -1.3076172q1.7651978 -1.0570374 4.3534546 -3.6554565l-0.984375 -5.585785zm13.586975 -21.753021l1.6310425 -0.2876892l1.3830566 7.847809l6.862854 -1.2103882l0.40679932 2.308197l-6.862854 1.2103882l2.4542847 13.925995q0.3118286 1.7696228 0.755188 2.4847412q0.4560547 0.69699097 1.2814331 1.0591431q0.8380127 0.34405518 1.7612915 0.18121338q2.2004395 -0.38809204 4.5026855 -2.8091125l0.39318848 2.2312317q-2.6525269 2.593872 -5.7454224 3.1393738q-1.7542114 0.3093872 -3.3235474 -0.22302246q-1.5539551 -0.5350952 -2.2642212 -1.5045776q-0.6949463 -0.9721985 -1.1586914 -3.6035461l-2.5030518 -14.202972l-4.046936 0.7137451l-0.3416748 -1.9388733q1.862854 -0.77282715 2.8850098 -1.9050598q1.0374756 -1.1349487 1.5157471 -2.7424316q0.47827148 -1.6075134 0.41381836 -4.674164zm17.0401 -6.210327q1.1079102 -0.19537354 2.0282593 0.4356079q0.9203491 0.63098145 1.1156006 1.7388916q0.19525146 1.1079407 -0.45117188 2.031128q-0.6464844 0.92318726 -1.7543945 1.1185913q-1.1079102 0.19540405 -2.0309448 -0.45098877q-0.9230957 -0.6463623 -1.1183472 -1.754303q-0.19525146 -1.1079102 0.45391846 -2.0157166q0.6491699 -0.9078064 1.7570801 -1.1032104zm-3.37677 15.319366l-0.3363037 -1.9081116q1.8827515 -0.57003784 3.1021118 -1.2134705q1.2347412 -0.6461487 2.7365723 -1.8471375l1.692627 -0.29852295l3.2623901 18.511597q0.17089844 0.9694214 0.53460693 1.4129944q0.36108398 0.42816162 0.89416504 0.57214355q0.5303345 0.12860107 1.8536987 -0.10479736l1.0770874 -0.18997192l0.34173584 1.9388733l-11.817627 2.0842285l-0.34173584 -1.9388428l0.9540405 -0.16827393q1.5387573 -0.27139282 2.0131226 -0.6406555q0.4897461 -0.37194824 0.6156616 -0.9177551q0.14135742 -0.54849243 -0.18951416 -2.4258118l-2.3919067 -13.5720825l-4.0007324 0.7055969zm25.336853 -8.466888q3.385254 -0.5970764 6.1121826 0.38168335q2.739563 0.96066284 4.647888 3.4165344q1.9055786 2.4404907 2.515808 5.9027405q0.61016846 3.4622803 -0.3897705 6.431061q-0.98724365 2.950714 -3.258545 4.8268433q-2.2740479 1.8607483 -5.7824097 2.4795227q-5.5856934 0.98513794 -9.014465 -1.9958801q-3.4161377 -2.999115 -4.2459717 -7.707794q-0.6074829 -3.4468994 0.36975098 -6.364105q0.9926758 -2.9199219 3.3509521 -4.843109q2.3709106 -1.9413147 5.69458 -2.5274963zm0.21130371 2.2791748q-2.6312866 0.4640808 -4.0962524 2.86438q-1.8525391 2.9922485 -0.9819946 7.9317627q0.83795166 4.7548523 3.2468872 6.900299q2.1600952 1.9037476 5.206787 1.366394q1.9696045 -0.34735107 3.3112793 -1.6470337q1.3543701 -1.317749 1.8916016 -3.7607117q0.55267334 -2.4456482 0.013000488 -5.507843q-0.5288086 -3.0006104 -1.9647217 -5.2066345q-1.1183472 -1.754303 -2.8876343 -2.5211487q-1.7539673 -0.76953125 -3.7389526 -0.4194641zm15.3133545 -1.0189819l-0.3416748 -1.9388733q2.0058594 -0.59176636 2.9644775 -1.0940247q0.95861816 -0.5022583 2.6949463 -1.9032593l1.6618652 -0.29309082l0.7728882 4.385559q2.5965576 -3.0917358 4.5908203 -4.3795776q1.9915161 -1.3031921 4.2073364 -1.6940002q1.8926392 -0.33380127 3.452942 0.057373047q1.572998 0.3730774 2.6734009 1.3055115q1.1130981 0.91430664 1.6495361 2.2476501q0.33380127 0.81378174 0.6402588 2.5526123l1.789856 10.155975q0.32000732 1.8157654 0.6738281 2.2928162q0.36914062 0.47433472 0.979187 0.6047363q0.6253662 0.12771606 2.887329 -0.27124023l0.34173584 1.9388733l-11.894592 2.0978088l-0.3416748 -1.9388428l0.64630127 -0.113983154q1.6618042 -0.29312134 2.2103882 -0.6913147q0.54589844 -0.41360474 0.7071533 -1.0290833q0.1739502 -0.63360596 -0.14068604 -2.418579l-1.4969482 -8.49411q-0.46374512 -2.6313171 -1.0735474 -3.5709229q-0.6098633 -0.9396057 -1.7520142 -1.3887024q-1.12677 -0.45178223 -2.696289 -0.17495728q-1.8772583 0.3310852 -3.8325806 1.6596375q-1.9553833 1.3285828 -3.609497 3.5559692l1.8739014 10.633026q0.31732178 1.8003845 0.68463135 2.35437q0.38275146 0.55126953 1.0371094 0.75320435q0.45617676 0.15753174 2.2564697 -0.16000366l0.6616821 -0.11669922l0.3416748 1.9388733l-11.87915 2.0951233l-0.3416748 -1.9388733l0.56933594 -0.10040283q1.7080078 -0.301239 2.2719727 -0.70217896q0.5793457 -0.4036255 0.7108154 -1.188385q0.07336426 -0.3937378 -0.309021 -2.5634155l-2.3186646 -13.156616l-3.9238281 0.6920166z" fill-rule="nonzero"/></g></svg>