<svg xmlns:xlink="http://www.w3.org/1999/xlink" xmlns="http://www.w3.org/2000/svg" version="1.1" viewBox="0.0 0.0 960.0 540.0" fill="none" stroke="none" stroke-linecap="square" stroke-miterlimit="10"><clipPath id="g64163215f9_0_0.0"><path d="m0 0l960.0 0l0 540.0l-960.0 0l0 -540.0z" clip-rule="nonzero"/></clipPath><g clip-path="url(#g64163215f9_0_0.0)"><path fill="#ffffff" d="m0 0l960.0 0l0 540.0l-960.0 0z" fill-rule="evenodd"/><path fill="#000000" fill-opacity="0.0" d="m157.02362 75.16535l645.95276 0l0 194.83466l-645.95276 0z" fill-rule="evenodd"/><path fill="#000000" d="m402.0703 50.882675l21.140625 0l0 3.328125l-1.953125 0q-2.265625 0 -3.203125 0.4375q-0.9375 0.421875 -1.375 1.25q-0.421875 0.8125 -0.421875 2.921875l0 38.0q0 2.625 0.1875 3.125q0.234375 0.703125 1.015625 1.015625q0.546875 0.234375 3.171875 0.234375l2.921875 0q5.046875 0 8.75 -1.453125q3.71875 -1.46875 6.40625 -4.265625q2.703125 -2.796875 5.203125 -8.34375l3.46875 1.171875l-6.09375 17.078125l-39.21875 0l0 -3.28125l1.71875 0q2.5 0 3.359375 -0.421875q0.859375 -0.4375 1.328125 -1.4375q0.46875 -1.0 0.46875 -3.421875l0 -37.0625q0 -2.8125 -0.4375 -3.765625q-0.421875 -0.96875 -1.25 -1.375q-0.8125 -0.40625 -3.46875 -0.40625l-1.71875 0l0 -3.328125zm56.882812 -1.75q1.875 0 3.203125 1.3125q1.328125 1.296875 1.328125 3.171875q0 1.875 -1.328125 3.203125q-1.328125 1.328125 -3.203125 1.328125q-1.875 0 -3.203125 -1.328125q-1.328125 -1.328125 -1.328125 -3.203125q0 -1.875 1.328125 -3.171875q1.328125 -1.3125 3.203125 -1.3125zm-9.96875 24.171875l0 -3.234375q3.25 -0.390625 5.453125 -1.09375q2.203125 -0.703125 5.015625 -2.234375l2.859375 0l0 31.328125q0 1.640625 0.46875 2.46875q0.46875 0.8125 1.296875 1.1875q0.84375 0.375 3.078125 0.375l1.828125 0l0 3.28125l-20.0 0l0 -3.28125l1.609375 0q2.609375 0 3.5 -0.46875q0.90625 -0.46875 1.28125 -1.328125q0.375 -0.859375 0.375 -4.03125l0 -22.96875l-6.765625 0zm23.75 -18.75l0 -3.203125q5.0 -0.390625 10.359375 -3.28125l3.0 0l0 38.984375l14.34375 -11.40625q3.4375 -2.734375 3.4375 -3.625q0 -0.546875 -0.75 -0.859375q-0.46875 -0.203125 -2.296875 -0.203125l-2.078125 0l0 -3.28125l19.8125 0l0 3.28125q-3.328125 0 -5.328125 0.6875q-1.984375 0.6875 -4.59375 2.671875l-11.328125 8.640625l13.359375 14.609375q1.90625 2.109375 3.109375 2.96875q1.21875 0.859375 2.421875 1.1875q1.21875 0.328125 3.796875 0.375l0 3.28125l-20.78125 0l0 -3.28125l1.609375 0q2.375 0 3.0 -0.375q0.625 -0.375 0.625 -1.0q0 -0.625 -1.171875 -1.796875q-0.1875 -0.1875 -0.421875 -0.46875l-10.390625 -11.953125l-6.375 4.890625l0 5.109375q0 2.859375 0.421875 3.765625q0.4375 0.890625 1.359375 1.359375q0.921875 0.46875 3.53125 0.46875l1.453125 0l0 3.28125l-20.125 0l0 -3.28125q3.40625 -0.046875 4.1875 -0.28125q1.359375 -0.421875 1.96875 -1.515625q0.609375 -1.09375 0.609375 -4.21875l0 -41.53125l-6.765625 0zm83.59375 40.75l2.5 2.03125q-2.84375 3.390625 -5.53125 5.390625q-2.671875 1.984375 -5.0625 2.78125q-2.375 0.8125 -5.578125 0.8125q-5.734375 0 -9.765625 -2.34375q-4.609375 -2.703125 -7.078125 -7.03125q-2.453125 -4.34375 -2.453125 -10.234375q0 -6.171875 2.375 -10.546875q2.390625 -4.375 6.671875 -6.890625q4.28125 -2.53125 9.90625 -2.53125q4.171875 0 7.25 1.3125q3.09375 1.3125 5.234375 3.953125q2.15625 2.625 3.140625 6.03125q0.546875 1.984375 0.625 5.15625l-27.625 0q-0.109375 1.90625 -0.109375 2.84375q0 4.921875 1.71875 8.78125q1.71875 3.84375 4.546875 5.65625q2.828125 1.8125 6.421875 1.8125q3.046875 0 5.890625 -1.421875q2.859375 -1.421875 6.921875 -5.5625zm-5.0 -15.78125q-0.578125 -3.59375 -1.65625 -5.3125q-1.078125 -1.71875 -3.046875 -2.734375q-1.96875 -1.015625 -4.4375 -1.015625q-2.453125 0 -4.609375 1.015625q-2.140625 1.015625 -3.578125 2.8125q-1.421875 1.796875 -2.46875 5.234375l19.796875 0z" fill-rule="nonzero"/><path fill="#000000" d="m425.60547 163.67955l17.890625 0l0 3.28125l-1.09375 0q-2.21875 0 -2.765625 0.15625q-0.78125 0.234375 -1.171875 0.75q-0.390625 0.5 -0.390625 1.203125q0 0.984375 0.859375 3.171875l8.90625 22.21875l8.625 -22.21875q0.828125 -2.15625 0.828125 -3.125q0 -1.015625 -0.78125 -1.578125q-0.78125 -0.578125 -2.8125 -0.578125l-1.875 0l0 -3.28125l15.421875 0l0 3.28125q-1.59375 0.046875 -2.671875 0.515625q-1.078125 0.46875 -1.6875 1.21875q-0.59375 0.734375 -1.8125 3.546875l-12.453125 29.140625l-4.6875 0l-12.546875 -29.8125q-0.78125 -1.828125 -1.71875 -3.0q-0.625 -0.75 -1.65625 -1.171875q-1.03125 -0.4375 -2.40625 -0.4375l0 -3.28125zm70.94531 0l2.734375 0l3.515625 11.953125l-3.515625 1.171875q-2.109375 -4.796875 -5.921875 -7.546875q-3.8125 -2.765625 -7.71875 -2.765625q-3.0 0 -4.875 1.46875q-1.875 1.46875 -1.875 3.375q0 1.796875 1.359375 3.09375q1.328125 1.328125 5.984375 3.0l7.609375 2.703125q6.453125 2.296875 8.796875 4.921875q2.296875 2.65625 2.296875 6.015625q0 2.84375 -1.71875 5.484375q-1.71875 2.640625 -4.984375 4.203125q-3.25 1.5625 -7.46875 1.5625q-6.5625 0 -11.25 -3.75l-0.828125 2.8125l-2.765625 0l-4.890625 -12.78125l3.5625 -1.40625q3.546875 5.625 6.71875 7.96875q4.40625 3.328125 9.53125 3.328125q3.390625 0 5.578125 -1.8125q2.1875 -1.828125 2.1875 -4.046875q0 -1.84375 -1.359375 -3.359375q-1.40625 -1.484375 -5.390625 -2.890625l-9.03125 -3.28125q-5.8125 -2.109375 -8.078125 -4.609375q-2.265625 -2.5 -2.265625 -5.75q0 -3.9375 3.6875 -6.96875q3.6875 -3.03125 9.390625 -3.03125q2.96875 0 5.3125 0.765625q2.34375 0.765625 4.609375 2.515625l1.0625 -2.34375zm25.039062 28.59375q2.0625 0 3.484375 1.4375q1.4375 1.421875 1.4375 3.453125q0 2.03125 -1.453125 3.46875q-1.4375 1.421875 -3.46875 1.421875q-2.0 0 -3.453125 -1.421875q-1.4375 -1.4375 -1.4375 -3.46875q0 -2.03125 1.421875 -3.453125q1.4375 -1.4375 3.46875 -1.4375z" fill-rule="nonzero"/><path fill="#000000" d="m395.66406 242.88268l21.140625 0l0 3.328125l-1.953125 0q-2.265625 0 -3.203125 0.4375q-0.9375 0.421875 -1.375 1.25q-0.421875 0.8125 -0.421875 2.921875l0 37.999985q0 2.625 0.1875 3.125q0.234375 0.703125 1.015625 1.015625q0.546875 0.234375 3.171875 0.234375l2.921875 0q5.046875 0 8.75 -1.453125q3.71875 -1.46875 6.40625 -4.265625q2.703125 -2.796875 5.203125 -8.34375l3.46875 1.171875l-6.09375 17.078125l-39.21875 0l0 -3.28125l1.71875 0q2.5 0 3.359375 -0.421875q0.859375 -0.4375 1.328125 -1.4375q0.46875 -1.0 0.46875 -3.421875l0 -37.062485q0 -2.8125 -0.4375 -3.765625q-0.421875 -0.96875 -1.25 -1.375q-0.8125 -0.40625 -3.46875 -0.40625l-1.71875 0l0 -3.328125zm66.96094 15.85936q5.734375 0 9.9375 2.390625q4.203125 2.375 6.625 6.953125q2.421875 4.5625 2.421875 10.421875q0 5.859375 -2.484375 10.4375q-2.484375 4.5625 -6.765625 6.96875q-4.265625 2.40625 -10.203125 2.40625q-9.453125 0 -14.203125 -5.890625q-4.75 -5.90625 -4.75 -13.875q0 -5.828125 2.453125 -10.328125q2.46875 -4.515625 6.90625 -7.0q4.4375 -2.484375 10.0625 -2.484375zm-0.3125 3.796875q-4.453125 0 -7.546875 3.515625q-3.90625 4.375 -3.90625 12.734375q0 8.046875 3.328125 12.265625q3.0 3.75 8.15625 3.75q3.328125 0 5.921875 -1.75q2.59375 -1.765625 4.1875 -5.609375q1.609375 -3.859375 1.609375 -9.046875q0 -5.078125 -1.71875 -9.109375q-1.328125 -3.203125 -4.0 -4.96875q-2.671875 -1.78125 -6.03125 -1.78125zm22.492188 -2.859375l17.890625 0l0 3.28125l-1.09375 0q-2.21875 0 -2.765625 0.15625q-0.78125 0.234375 -1.171875 0.75q-0.390625 0.5 -0.390625 1.203125q0 0.984375 0.859375 3.171875l8.90625 22.21875l8.625 -22.21875q0.828125 -2.15625 0.828125 -3.125q0 -1.015625 -0.78125 -1.578125q-0.78125 -0.578125 -2.8125 -0.578125l-1.875 0l0 -3.28125l15.421875 0l0 3.28125q-1.59375 0.046875 -2.671875 0.515625q-1.078125 0.46875 -1.6875 1.21875q-0.59375 0.734375 -1.8125 3.546875l-12.453125 29.140625l-4.6875 0l-12.546875 -29.8125q-0.78125 -1.828125 -1.71875 -3.0q-0.625 -0.75 -1.65625 -1.171875q-1.03125 -0.4375 -2.40625 -0.4375l0 -3.28125zm77.92969 27.625l2.5 2.03125q-2.84375 3.390625 -5.53125 5.390625q-2.671875 1.984375 -5.0625 2.78125q-2.375 0.8125 -5.578125 0.8125q-5.734375 0 -9.765625 -2.34375q-4.609375 -2.703125 -7.078125 -7.03125q-2.453125 -4.34375 -2.453125 -10.234375q0 -6.171875 2.375 -10.546875q2.390625 -4.375 6.671875 -6.890625q4.28125 -2.53125 9.90625 -2.53125q4.171875 0 7.25 1.3125q3.09375 1.3125 5.234375 3.953125q2.15625 2.625 3.140625 6.03125q0.546875 1.984375 0.625 5.15625l-27.625 0q-0.109375 1.90625 -0.109375 2.84375q0 4.921875 1.71875 8.78125q1.71875 3.84375 4.546875 5.65625q2.828125 1.8125 6.421875 1.8125q3.046875 0 5.890625 -1.421875q2.859375 -1.421875 6.921875 -5.5625zm-5.0 -15.78125q-0.578125 -3.59375 -1.65625 -5.3125q-1.078125 -1.71875 -3.046875 -2.734375q-1.96875 -1.015625 -4.4375 -1.015625q-2.453125 0 -4.609375 1.015625q-2.140625 1.015625 -3.578125 2.8125q-1.421875 1.796875 -2.46875 5.234375l19.796875 0z" fill-rule="nonzero"/><path fill="#000000" d="m103.18898 539.99994l216.75246 -200.66138l119.18454 0l-216.75244 200.66138z" fill-rule="evenodd"/><path stroke="#000000" stroke-width="1.0" stroke-linejoin="round" stroke-linecap="butt" d="m103.18898 539.99994l216.75246 -200.66138l119.18454 0l-216.75244 200.66138z" fill-rule="evenodd"/><path fill="#000000" d="m221.35695 539.9994l-221.35432 0l0 -75.1496l221.35432 0z" fill-rule="evenodd"/><path stroke="#000000" stroke-width="1.0" stroke-linejoin="round" stroke-linecap="butt" d="m221.35695 539.9994l-221.35432 0l0 -75.1496l221.35432 0z" fill-rule="evenodd"/><path fill="#000000" d="m959.99475 414.48758l-640.063 0l0 -75.1496l640.063 0z" fill-rule="evenodd"/><path stroke="#000000" stroke-width="1.0" stroke-linejoin="round" stroke-linecap="butt" d="m959.99475 414.48758l-640.063 0l0 -75.1496l640.063 0z" fill-rule="evenodd"/><path xmlns="http://www.w3.org/2000/svg" fill="#000000" d="m28.921227 344.18835l25.007874 0l0 120.66141l-25.007874 0z" fill-rule="evenodd" style="animation-name:alternateUp;animation-duration:1s;animation-iteration-count:infinite;animation-timing-function:ease-in-out;"/><path xmlns="http://www.w3.org/2000/svg" stroke="#000000" stroke-width="1.0" stroke-linejoin="round" stroke-linecap="butt" d="m28.921227 344.18835l25.007874 0l0 120.66141l-25.007874 0z" fill-rule="evenodd" style="animation-name:alternateUp;animation-duration:1s;animation-iteration-count:infinite;animation-timing-function:ease-in-out;"/><path xmlns="http://www.w3.org/2000/svg" fill="#000000" d="m78.18107 300.04666l25.007874 0l0 164.78741l-25.007874 0z" fill-rule="evenodd" style="animation-name:alternateUp;animation-duration:1s;animation-iteration-count:infinite;animation-timing-function:ease-in-out;animation-delay:0.5s;"/><path xmlns="http://www.w3.org/2000/svg" stroke="#000000" stroke-width="1.0" stroke-linejoin="round" stroke-linecap="butt" d="m78.18107 300.04666l25.007874 0l0 164.78741l-25.007874 0z" fill-rule="evenodd" style="animation-name:alternateUp;animation-duration:1s;animation-iteration-count:infinite;animation-timing-function:ease-in-out;animation-delay:0.5s;"/></g>
<style xmlns="http://www.w3.org/2000/svg">
    @keyframes alternateUp {
        50% {transform:translateY(20px);}
    }
    @keyframes alternateDown {
        50% {transform:translateY(-20px);}
    }
    @keyframes alternateLeft {
        50% {transform:translateX(20px);}
    }
    @keyframes alternateRight {
        50% {transform:translateX(-20px);}
    }
</style>
</svg>