<svg xmlns:xlink="http://www.w3.org/1999/xlink" xmlns="http://www.w3.org/2000/svg" version="1.1" viewBox="0.0 0.0 960.0 540.0" fill="none" stroke="none" stroke-linecap="square" stroke-miterlimit="10"><clipPath id="g64dfe0b81a_0_67.0"><path d="m0 0l960.0 0l0 540.0l-960.0 0l0 -540.0z" clip-rule="nonzero"/></clipPath><g clip-path="url(#g64dfe0b81a_0_67.0)"><path fill="#ffffff" d="m0 0l960.0 0l0 540.0l-960.0 0z" fill-rule="evenodd"/><path fill="#cccccc" d="m439.92868 226.77187l-687.0236 250.20473l-11.149597 -30.551178l687.0236 -250.20473z" fill-rule="evenodd"/><path stroke="#cccccc" stroke-width="1.0" stroke-linejoin="round" stroke-linecap="butt" d="m439.92868 226.77187l-687.0236 250.20473l-11.149597 -30.551178l687.0236 -250.20473z" fill-rule="evenodd"/><path fill="#cccccc" d="m486.5191 297.52457l-687.0236 250.20474l-11.149612 -30.551208l687.0236 -250.20471z" fill-rule="evenodd"/><path stroke="#cccccc" stroke-width="1.0" stroke-linejoin="round" stroke-linecap="butt" d="m486.5191 297.52457l-687.0236 250.20474l-11.149612 -30.551208l687.0236 -250.20471z" fill-rule="evenodd"/><path fill="#cccccc" d="m1201.3641 40.21951l-365.44885 633.2914l-28.125977 -16.220459l365.44885 -633.2914z" fill-rule="evenodd"/><path stroke="#cccccc" stroke-width="1.0" stroke-linejoin="round" stroke-linecap="butt" d="m1201.3641 40.21951l-365.44885 633.2914l-28.125977 -16.220459l365.44885 -633.2914z" fill-rule="evenodd"/><path fill="#cccccc" d="m1163.1122 -26.961592l-365.44885 633.2914l-28.125977 -16.22052l365.44885 -633.2913z" fill-rule="evenodd"/><path stroke="#cccccc" stroke-width="1.0" stroke-linejoin="round" stroke-linecap="butt" d="m1163.1122 -26.961592l-365.44885 633.2914l-28.125977 -16.22052l365.44885 -633.2913z" fill-rule="evenodd"/><path fill="#000000" d="m326.91077 169.66872l216.75244 200.66142l119.18457 0l-216.75247 -200.66142z" fill-rule="evenodd"/><path stroke="#000000" stroke-width="1.0" stroke-linejoin="round" stroke-linecap="butt" d="m326.91077 169.66872l216.75244 200.66142l119.18457 0l-216.75247 -200.66142z" fill-rule="evenodd"/><path fill="#000000" d="m445.07086 169.6693l-445.07086 0l0 75.1496l445.07086 0z" fill-rule="evenodd"/><path stroke="#000000" stroke-width="1.0" stroke-linejoin="round" stroke-linecap="butt" d="m445.07086 169.6693l-445.07086 0l0 75.1496l445.07086 0z" fill-rule="evenodd"/><path fill="#000000" d="m544.66406 370.33072l118.17322 0l0 169.66928l-118.17322 0z" fill-rule="evenodd"/><path stroke="#000000" stroke-width="1.0" stroke-linejoin="round" stroke-linecap="butt" d="m544.66406 370.33072l118.17322 0l0 169.66928l-118.17322 0z" fill-rule="evenodd"/><path fill="#000000" d="m662.8478 -30.961203l-216.71844 200.62991l-119.0296 0l216.71844 -200.62991z" fill-rule="evenodd"/><path stroke="#000000" stroke-width="1.0" stroke-linejoin="round" stroke-linecap="butt" d="m662.8478 -30.961203l-216.71844 200.62991l-119.0296 0l216.71844 -200.62991z" fill-rule="evenodd"/><path fill="#000000" fill-opacity="0.0" d="m0 0l401.70078 0l0 169.6693l-401.70078 0z" fill-rule="evenodd"/><path fill="#000000" d="m73.123825 59.134644l41.671875 0l5.046875 14.296875l-3.40625 1.296875q-2.140625 -5.0 -4.21875 -7.1875q-2.0625 -2.1875 -4.796875 -3.125q-2.734375 -0.9375 -8.59375 -0.9375l-11.765625 0l0 20.9375l5.359375 0q4.21875 0 6.046875 -0.8125q1.84375 -0.828125 2.8125 -2.609375q0.984375 -1.78125 0.984375 -5.0625l0 -1.4375l3.828125 0l0 23.90625l-3.828125 0l0 -2.109375q0 -3.09375 -0.9375 -4.8125q-0.9375 -1.71875 -2.5625 -2.46875q-1.625 -0.765625 -5.765625 -0.765625l-5.9375 0l0 16.953125q0 2.34375 0.484375 3.265625q0.5 0.90625 1.453125 1.40625q0.953125 0.484375 3.421875 0.484375l1.4375 0l0 3.28125l-20.734375 0l0 -3.28125l1.328125 0q2.5 0 3.453125 -0.46875q0.953125 -0.46875 1.40625 -1.46875q0.453125 -1.0 0.453125 -3.609375l0 -37.078125q0 -2.421875 -0.4375 -3.390625q-0.421875 -0.984375 -1.3125 -1.421875q-0.875 -0.453125 -3.0625 -0.453125l-1.828125 0l0 -3.328125zm77.92969 31.875l0 -4.25q0 -4.34375 -2.421875 -6.1875q-2.421875 -1.859375 -6.84375 -1.859375q-2.1875 0 -3.828125 0.53125q-1.640625 0.515625 -2.640625 1.4375q-0.984375 0.921875 -1.453125 2.09375q-0.203125 0.421875 -0.9375 3.3125q-0.90625 3.515625 -3.640625 3.515625q-1.5625 0 -2.515625 -1.03125q-0.953125 -1.03125 -0.953125 -2.796875q0 -2.578125 1.90625 -5.046875q1.921875 -2.484375 5.84375 -4.109375q3.921875 -1.625 9.28125 -1.625q5.0 0 8.546875 1.546875q3.5625 1.546875 5.234375 4.4375q1.171875 1.984375 1.171875 7.265625l0 15.03125q0 3.203125 0.203125 4.1875q0.421875 1.671875 1.5 2.515625q1.078125 0.84375 2.796875 0.84375q1.796875 0 4.296875 -0.859375l0 3.390625q-3.25 0.953125 -5.828125 0.953125q-2.765625 0 -4.671875 -0.78125q-1.890625 -0.796875 -3.109375 -2.296875q-1.203125 -1.5 -1.546875 -3.578125q-4.6875 3.671875 -8.484375 5.171875q-3.78125 1.484375 -7.65625 1.484375q-5.390625 0 -8.75 -2.9375q-3.359375 -2.9375 -3.359375 -6.875q0 -2.390625 1.234375 -4.53125q1.234375 -2.15625 3.75 -3.796875q2.515625 -1.640625 7.90625 -2.890625q5.390625 -1.25 14.96875 -2.265625zm0 3.40625q-9.0625 1.328125 -11.21875 1.828125q-4.25 0.984375 -6.09375 2.15625q-1.828125 1.171875 -2.609375 2.515625q-0.78125 1.34375 -0.78125 2.875q0 1.515625 0.875 2.953125q0.875 1.421875 2.46875 2.25q1.609375 0.8125 3.40625 0.8125q2.546875 0 5.75 -1.203125q3.203125 -1.21875 8.203125 -4.734375l0 -9.453125zm18.234375 -12.859375l0 -3.3125q2.9375 -0.28125 5.125 -0.953125q2.1875 -0.6875 5.0 -2.296875l2.890625 0l0 6.5625q4.453125 -3.515625 6.953125 -4.71875q3.828125 -1.84375 7.296875 -1.84375q2.390625 0 4.671875 0.890625q2.28125 0.875 3.671875 2.171875q1.390625 1.28125 2.359375 3.5q4.109375 -3.625 7.59375 -5.09375q3.5 -1.46875 7.09375 -1.46875q3.4375 0 6.078125 1.4375q2.640625 1.421875 3.828125 3.578125q1.1875 2.140625 1.1875 6.28125l0 18.125q0 2.84375 0.125 3.3125q0.1875 0.75 0.828125 1.421875q0.65625 0.65625 1.46875 0.9375q0.828125 0.265625 3.046875 0.265625l1.25 0l0 3.28125l-19.640625 0l0 -3.28125q3.359375 -0.046875 4.34375 -0.484375q1.0 -0.453125 1.484375 -1.46875q0.5 -1.015625 0.5 -3.984375l0 -17.234375q0 -3.28125 -0.59375 -4.53125q-0.578125 -1.25 -2.09375 -2.078125q-1.5 -0.84375 -3.71875 -0.84375q-2.78125 0 -5.828125 1.484375q-4.0625 2.03125 -6.40625 4.5625l0 18.640625q0 2.6875 0.25 3.53125q0.265625 0.84375 0.859375 1.40625q0.609375 0.5625 1.40625 0.78125q0.8125 0.21875 3.890625 0.21875l0 3.28125l-19.25 0l0 -3.28125l1.09375 0q2.296875 0 3.25 -0.546875q0.96875 -0.546875 1.515625 -1.6875q0.390625 -0.890625 0.390625 -3.703125l0 -16.640625q0 -3.671875 -0.578125 -4.953125q-0.5625 -1.296875 -2.171875 -2.1875q-1.59375 -0.90625 -3.734375 -0.90625q-2.546875 0 -5.125 1.25q-3.828125 1.828125 -7.03125 4.796875l0 20.078125q0 1.796875 0.484375 2.640625q0.5 0.84375 1.546875 1.359375q1.0625 0.5 2.890625 0.5l1.453125 0l0 3.28125l-19.65625 0l0 -3.28125l1.0625 0q2.6875 0 3.546875 -0.4375q1.25 -0.578125 1.796875 -1.875q0.3125 -0.703125 0.3125 -3.625l0 -22.859375l-6.71875 0zm84.92969 -24.171875q1.8750153 0 3.2031403 1.3125q1.328125 1.296875 1.328125 3.171875q0 1.875 -1.328125 3.203125q-1.328125 1.328125 -3.2031403 1.328125q-1.875 0 -3.203125 -1.328125q-1.328125 -1.328125 -1.328125 -3.203125q0 -1.875 1.328125 -3.171875q1.328125 -1.3125 3.203125 -1.3125zm-9.96875 24.171875l0 -3.234375q3.25 -0.390625 5.453125 -1.09375q2.203125 -0.703125 5.015625 -2.234375l2.8593903 0l0 31.328125q0 1.640625 0.46875 2.46875q0.46875 0.8125 1.296875 1.1875q0.84375 0.375 3.078125 0.375l1.828125 0l0 3.28125l-20.000015 0l0 -3.28125l1.609375 0q2.609375 0 3.5 -0.46875q0.90625 -0.46875 1.28125 -1.328125q0.375 -0.859375 0.375 -4.03125l0 -22.96875l-6.765625 0zm23.875015 -18.75l0 -3.203125q5.3125 -0.390625 10.34375 -3.28125l2.890625 0l0 48.09375q0 3.046875 0.390625 3.828125q0.515625 1.09375 1.484375 1.609375q0.984375 0.5 3.75 0.5l1.25 0l0 3.28125l-20.109375 0l0 -3.28125l2.03125 0q1.90625 0 2.859375 -0.578125q0.96875 -0.59375 1.375 -1.609375q0.40625 -1.015625 0.40625 -4.0625l0 -41.296875l-6.671875 0zm21.078125 13.125l19.0 0l0 3.28125l-1.5625 0q-2.234375 0 -2.65625 0.125q-0.515625 0.15625 -0.875 0.640625q-0.34375 0.484375 -0.34375 1.234375q0 1.046875 1.0625 3.546875l9.0625 21.296875l8.390625 -20.359375q1.484375 -3.59375 1.484375 -4.765625q0 -0.890625 -0.671875 -1.296875q-0.65625 -0.421875 -3.0 -0.421875l-1.828125 0l0 -3.28125l15.96875 0l0 3.28125l-0.9375 0q-2.34375 0 -3.046875 0.3125q-0.703125 0.3125 -1.375 1.28125q-0.65625 0.953125 -2.09375 4.34375l-14.34375 33.40625q-1.5625 3.59375 -3.484375 6.65625q-1.90625 3.078125 -4.796875 4.75q-2.890625 1.6875 -6.359375 1.6875q-4.03125 0 -6.453125 -1.84375q-2.078125 -1.5625 -2.078125 -3.90625q0 -1.4375 0.90625 -2.40625q0.90625 -0.953125 2.109375 -0.953125q0.9375 0 1.765625 0.390625q0.5 0.203125 2.109375 1.640625q1.953125 1.71875 2.75 2.109375q0.796875 0.390625 1.578125 0.390625q1.609375 0 3.171875 -1.09375q1.5625 -1.09375 2.65625 -3.078125q1.5625 -2.859375 2.578125 -5.359375l1.59375 -3.90625l-12.890625 -28.875q-1.359375 -3.046875 -2.296875 -4.09375q-0.9375 -1.0625 -1.875 -1.296875q-0.515625 -0.15625 -3.21875 -0.15625l0 -3.28125z" fill-rule="nonzero"/><path xmlns="http://www.w3.org/2000/svg" fill="#000000" d="m731.2775 442.6614l0 25.007874l-68.44092 0l0 -25.007874z" fill-rule="evenodd" style="animation-name:alternateRight;animation-duration:1s;animation-iteration-count:infinite;animation-timing-function:ease-in-out;"/><path xmlns="http://www.w3.org/2000/svg" stroke="#000000" stroke-width="1.0" stroke-linejoin="round" stroke-linecap="butt" d="m731.2775 442.6614l0 25.007874l-68.44092 0l0 -25.007874z" fill-rule="evenodd" style="animation-name:alternateRight;animation-duration:1s;animation-iteration-count:infinite;animation-timing-function:ease-in-out;"/><path xmlns="http://www.w3.org/2000/svg" fill="#000000" d="m769.5376 490.99213l0 25.007874l-106.677185 0l0 -25.007874z" fill-rule="evenodd" style="animation-name:alternateRight;animation-duration:1s;animation-iteration-count:infinite;animation-timing-function:ease-in-out;animation-delay:0.5s;"/><path xmlns="http://www.w3.org/2000/svg" stroke="#000000" stroke-width="1.0" stroke-linejoin="round" stroke-linecap="butt" d="m769.5376 490.99213l0 25.007874l-106.677185 0l0 -25.007874z" fill-rule="evenodd" style="animation-name:alternateRight;animation-duration:1s;animation-iteration-count:infinite;animation-timing-function:ease-in-out;animation-delay:0.5s;"/><path xmlns="http://www.w3.org/2000/svg" fill="#000000" d="m959.9995 24.0l0 25.007874l-106.677185 0l0 -25.007874z" fill-rule="evenodd" style="animation-name:alternateLeft;animation-duration:1s;animation-iteration-count:infinite;animation-timing-function:ease-in-out;"/><path xmlns="http://www.w3.org/2000/svg" stroke="#000000" stroke-width="1.0" stroke-linejoin="round" stroke-linecap="butt" d="m959.9995 24.0l0 25.007874l-106.677185 0l0 -25.007874z" fill-rule="evenodd" style="animation-name:alternateLeft;animation-duration:1s;animation-iteration-count:infinite;animation-timing-function:ease-in-out;"/><path xmlns="http://www.w3.org/2000/svg" fill="#000000" d="m960.0 72.33071l0 25.007874l-159.55908 0l0 -25.007874z" fill-rule="evenodd" style="animation-name:alternateLeft;animation-duration:1s;animation-iteration-count:infinite;animation-timing-function:ease-in-out;animation-delay:0.5s;"/><path xmlns="http://www.w3.org/2000/svg" stroke="#000000" stroke-width="1.0" stroke-linejoin="round" stroke-linecap="butt" d="m960.0 72.33071l0 25.007874l-159.55908 0l0 -25.007874z" fill-rule="evenodd" style="animation-name:alternateLeft;animation-duration:1s;animation-iteration-count:infinite;animation-timing-function:ease-in-out;animation-delay:0.5s;"/><path xmlns="http://www.w3.org/2000/svg" fill="#000000" d="m120.65361 269.07086l0 25.007874l-120.66142 0l0 -25.007874z" fill-rule="evenodd" style="animation-name:alternateRight;animation-duration:1s;animation-iteration-count:infinite;animation-timing-function:ease-in-out;animation-delay:0.5s;"/><path xmlns="http://www.w3.org/2000/svg" stroke="#000000" stroke-width="1.0" stroke-linejoin="round" stroke-linecap="butt" d="m120.65361 269.07086l0 25.007874l-120.66142 0l0 -25.007874z" fill-rule="evenodd" style="animation-name:alternateRight;animation-duration:1s;animation-iteration-count:infinite;animation-timing-function:ease-in-out;animation-delay:0.5s;"/><path xmlns="http://www.w3.org/2000/svg" fill="#000000" d="m164.79527 318.33072l0 25.007874l-164.7874 0l0 -25.007874z" fill-rule="evenodd" style="animation-name:alternateRight;animation-duration:1s;animation-iteration-count:infinite;animation-timing-function:ease-in-out;"/><path xmlns="http://www.w3.org/2000/svg" stroke="#000000" stroke-width="1.0" stroke-linejoin="round" stroke-linecap="butt" d="m164.79527 318.33072l0 25.007874l-164.7874 0l0 -25.007874z" fill-rule="evenodd" style="animation-name:alternateRight;animation-duration:1s;animation-iteration-count:infinite;animation-timing-function:ease-in-out;"/><path xmlns="http://www.w3.org/2000/svg" fill="#000000" d="m72.09715 367.59055l0 25.007874l-72.09449 0l0 -25.007874z" fill-rule="evenodd" style="animation-name:alternateRight;animation-duration:1s;animation-iteration-count:infinite;animation-timing-function:ease-in-out;animation-delay:0.5s;"/><path xmlns="http://www.w3.org/2000/svg" stroke="#000000" stroke-width="1.0" stroke-linejoin="round" stroke-linecap="butt" d="m72.09715 367.59055l0 25.007874l-72.09449 0l0 -25.007874z" fill-rule="evenodd" style="animation-name:alternateRight;animation-duration:1s;animation-iteration-count:infinite;animation-timing-function:ease-in-out;animation-delay:0.5s;"/><path fill="#000000" fill-opacity="0.0" d="m472.31497 1.472441l375.21262 0l0 366.3622l-375.21262 0z" fill-rule="evenodd"/><path fill="#000000" d="m630.06885 21.574942q1.296875 0 2.53125 0.671875q1.25 0.671875 1.9375 1.921875q0.6875 1.234375 0.6875 2.5625q0 2.15625 -1.515625 3.671875q-1.5 1.5 -3.640625 1.5q-2.140625 0 -3.65625 -1.5q-1.5 -1.515625 -1.5 -3.671875q0 -1.34375 0.6875 -2.578125q0.6875 -1.234375 1.921875 -1.90625q1.25 -0.671875 2.546875 -0.671875z" fill-rule="nonzero"/><path fill="#000000" d="m662.43994 17.168692l5.171875 0l4.828125 12.9375l4.703125 -12.9375l4.984375 0l0 0.984375l-0.421875 0q-0.765625 0 -1.03125 0.140625q-0.25 0.125 -0.40625 0.453125q-0.15625 0.3125 -0.15625 1.046875l0 10.78125q0 1.03125 0.125 1.34375q0.125 0.2968769 0.40625 0.4531269q0.296875 0.15625 1.0625 0.15625l0.421875 0l0 0.984375l-6.25 0l0 -0.984375l0.453125 0q0.59375 0 0.859375 -0.09375q0.28125 -0.09375 0.46875 -0.3125q0.1875 -0.2187519 0.203125 -0.4531269q0.0625 -0.484375 0.0625 -0.75l0 -12.03125l-5.328125 14.625002l-1.171875 0l-5.375 -14.421877l0 11.59375q0 0.875 0.15625 1.1875q0.15625 0.3125019 0.46875 0.4843769q0.328125 0.171875 1.15625 0.171875l0.375 0l0 0.984375l-5.765625 0l0 -0.984375l0.328125 0q0.828125 0 1.1875 -0.171875q0.359375 -0.1875 0.515625 -0.5000019q0.15625 -0.328125 0.15625 -1.28125l0 -10.671875q0 -0.890625 -0.140625 -1.171875q-0.125 -0.296875 -0.421875 -0.4375q-0.296875 -0.140625 -1.0625 -0.140625l-0.5625 0l0 -0.984375zm27.734375 4.75q1.734375 0 2.984375 0.71875q1.265625 0.71875 1.984375 2.09375q0.734375 1.359375 0.734375 3.125q0 1.75 -0.75 3.125q-0.734375 1.3750019 -2.03125 2.093752q-1.28125 0.71875 -3.0625 0.71875q-2.828125 0 -4.25 -1.765625q-1.421875 -1.7812519 -1.421875 -4.171877q0 -1.734375 0.734375 -3.09375q0.734375 -1.359375 2.0625 -2.09375q1.328125 -0.75 3.015625 -0.75zm-0.09375 1.140625q-1.328125 0 -2.25 1.046875q-1.171875 1.3125 -1.171875 3.828125q0 2.40625 0.984375 3.671875q0.90625 1.1250019 2.453125 1.1250019q1.0 0 1.78125 -0.515625q0.78125 -0.5312519 1.25 -1.6875019q0.484375 -1.15625 0.484375 -2.71875q0 -1.515625 -0.515625 -2.71875q-0.390625 -0.96875 -1.203125 -1.5q-0.796875 -0.53125 -1.8125 -0.53125zm7.5976562 0.828125l0 -1.0q0.875 -0.078125 1.53125 -0.28125q0.65625 -0.203125 1.5 -0.6875l0.875 0l0 1.96875q1.328125 -1.046875 2.078125 -1.421875q1.15625 -0.546875 2.203125 -0.546875q0.703125 0 1.390625 0.265625q0.6875 0.265625 1.09375 0.65625q0.421875 0.375 0.71875 1.046875q1.234375 -1.09375 2.28125 -1.53125q1.046875 -0.4375 2.125 -0.4375q1.03125 0 1.8125 0.4375q0.796875 0.421875 1.15625 1.0625q0.359375 0.640625 0.359375 1.890625l0 5.4375q0 0.859375 0.03125 1.0q0.0625 0.21875 0.25 0.4218769q0.203125 0.1875 0.4375 0.28125q0.25 0.078125 0.921875 0.078125l0.375 0l0 0.984375l-5.890625 0l0 -0.984375q1.0 -0.015625 1.296875 -0.140625q0.3125 -0.140625 0.453125 -0.4375019q0.140625 -0.3125 0.140625 -1.203125l0 -5.171875q0 -0.984375 -0.171875 -1.359375q-0.171875 -0.375 -0.625 -0.625q-0.453125 -0.25 -1.125 -0.25q-0.828125 0 -1.734375 0.4375q-1.21875 0.609375 -1.921875 1.375l0 5.59375q0 0.8125 0.0625 1.0625q0.078125 0.2500019 0.265625 0.4218769q0.1875 0.171875 0.421875 0.234375q0.234375 0.0625 1.171875 0.0625l0 0.984375l-5.78125 0l0 -0.984375l0.328125 0q0.6875 0 0.96875 -0.15625q0.296875 -0.171875 0.453125 -0.5156269q0.125 -0.265625 0.125 -1.109375l0 -5.0q0 -1.09375 -0.171875 -1.484375q-0.171875 -0.390625 -0.65625 -0.65625q-0.46875 -0.265625 -1.125 -0.265625q-0.75 0 -1.53125 0.375q-1.140625 0.546875 -2.109375 1.4375l0 6.03125q0 0.53125 0.140625 0.78125q0.15625 0.2500019 0.46875 0.4062519q0.3125 0.15625 0.875 0.15625l0.421875 0l0 0.984375l-5.890625 0l0 -0.984375l0.3125 0q0.8125 0 1.078125 -0.125q0.375 -0.1875 0.53125 -0.5625019q0.09375 -0.21875 0.09375 -1.09375l0 -6.859375l-2.015625 0z" fill-rule="nonzero"/><path fill="#000000" d="m600.06885 50.574944q1.296875 0 2.53125 0.671875q1.25 0.671875 1.9375 1.921875q0.6875 1.234375 0.6875 2.5625q0 2.15625 -1.515625 3.671875q-1.5 1.5 -3.640625 1.5q-2.140625 0 -3.65625 -1.5q-1.5 -1.515625 -1.5 -3.671875q0 -1.34375 0.6875 -2.578125q0.6875 -1.234375 1.921875 -1.90625q1.25 -0.671875 2.546875 -0.671875z" fill-rule="nonzero"/><path fill="#000000" d="m632.45557 47.15307l0 -0.984375l5.828125 0q4.015625 0 5.59375 0.5q2.328125 0.734375 3.78125 2.75q1.609375 2.234375 1.609375 5.125q0 1.96875 -0.796875 3.671875q-0.78125 1.6875 -2.078125 2.71875q-1.0625 0.859375 -2.5625 1.21875q-1.5 0.359375 -3.015625 0.359375l-8.359375 0l0 -0.984375l0.671875 0l0.234375 0.015625q0.421875 0 0.703125 -0.171875q0.28125 -0.1875 0.390625 -0.484375q0.078125 -0.21875 0.078125 -1.03125l0 -10.921875q0 -0.9375 -0.109375 -1.203125q-0.171875 -0.359375 -0.53125 -0.5q-0.203125 -0.078125 -1.4375 -0.078125zm4.265625 14.09375l3.53125 0q0.53125 0 1.75 -0.1875q1.234375 -0.1875 1.765625 -0.453125q0.765625 -0.40625 1.484375 -1.28125q0.734375 -0.890625 1.125 -2.125q0.390625 -1.234375 0.390625 -2.828125q0 -1.59375 -0.390625 -2.75q-0.390625 -1.15625 -1.1875 -2.078125q-0.78125 -0.9375 -1.75 -1.421875q-0.96875 -0.484375 -2.15625 -0.609375q-0.65625 -0.0625 -2.15625 -0.0625l-2.40625 0l0 13.796875zm23.085938 -5.515625l0 -1.28125q0 -1.296875 -0.734375 -1.859375q-0.71875 -0.5625 -2.046875 -0.5625q-0.65625 0 -1.15625 0.171875q-0.484375 0.15625 -0.78125 0.4375q-0.296875 0.265625 -0.4375 0.609375q-0.0625 0.140625 -0.28125 1.0q-0.265625 1.0625 -1.09375 1.0625q-0.46875 0 -0.765625 -0.3125q-0.28125 -0.3125 -0.28125 -0.84375q0 -0.765625 0.578125 -1.515625q0.578125 -0.75 1.75 -1.234375q1.1875 -0.484375 2.78125 -0.484375q1.5 0 2.5625 0.46875q1.078125 0.453125 1.578125 1.328125q0.359375 0.59375 0.359375 2.171875l0 4.515625q0 0.96875 0.046875 1.25q0.140625 0.515625 0.453125 0.765625q0.328125 0.25 0.84375 0.25q0.53125 0 1.28125 -0.265625l0 1.03125q-0.96875 0.28125 -1.734375 0.28125q-0.84375 0 -1.40625 -0.234375q-0.5625 -0.234375 -0.9375 -0.6875q-0.359375 -0.453125 -0.46875 -1.078125q-1.40625 1.109375 -2.546875 1.5625q-1.125 0.4375 -2.28125 0.4375q-1.625 0 -2.640625 -0.875q-1.0 -0.890625 -1.0 -2.078125q0 -0.703125 0.359375 -1.34375q0.375 -0.65625 1.125 -1.140625q0.765625 -0.5 2.375 -0.875q1.625 -0.375 4.5 -0.671875zm0 1.015625q-2.71875 0.390625 -3.359375 0.546875q-1.28125 0.296875 -1.84375 0.65625q-0.546875 0.34375 -0.78125 0.75q-0.234375 0.40625 -0.234375 0.859375q0 0.453125 0.265625 0.890625q0.265625 0.421875 0.75 0.671875q0.484375 0.234375 1.015625 0.234375q0.765625 0 1.71875 -0.359375q0.96875 -0.359375 2.46875 -1.421875l0 -2.828125zm12.796875 -9.453125l0 -0.984375q0.796875 -0.078125 1.453125 -0.28125q0.671875 -0.203125 1.65625 -0.703125l0.890625 0l0 14.203125q0 0.984375 0.046875 1.203125q0.109375 0.4375 0.390625 0.625q0.28125 0.171875 1.09375 0.171875l0.5 0l0 0.984375l-4.0625 0.1875l0 -1.859375q-1.171875 1.0625 -2.203125 1.515625q-1.015625 0.4375 -2.046875 0.4375q-2.125 0 -3.53125 -1.703125q-1.390625 -1.703125 -1.390625 -4.109375q0 -1.71875 0.734375 -3.140625q0.75 -1.421875 1.96875 -2.171875q1.21875 -0.75 2.671875 -0.75q1.109375 0 2.0625 0.390625q0.953125 0.390625 1.734375 1.15625l0 -5.171875l-1.96875 0zm1.96875 12.375l0 -4.421875q0 -0.953125 -0.359375 -1.546875q-0.359375 -0.609375 -1.171875 -1.046875q-0.8125 -0.453125 -1.671875 -0.453125q-1.015625 0 -1.875 0.5625q-0.859375 0.546875 -1.359375 1.59375q-0.484375 1.046875 -0.484375 2.546875q0 1.40625 0.453125 2.4375q0.453125 1.015625 1.21875 1.546875q0.765625 0.53125 1.5625 0.53125q0.78125 0 1.765625 -0.453125q1.0 -0.453125 1.921875 -1.296875z" fill-rule="nonzero"/><path fill="#000000" d="m570.06885 79.57494q1.296875 0 2.53125 0.671875q1.25 0.671875 1.9375 1.921875q0.6875 1.234375 0.6875 2.5625q0 2.15625 -1.515625 3.671875q-1.5 1.5 -3.640625 1.5q-2.140625 0 -3.65625 -1.5q-1.5 -1.515625 -1.5 -3.671875q0 -1.34375 0.6875 -2.578125q0.6875 -1.234375 1.921875 -1.90625q1.25 -0.671875 2.546875 -0.671875z" fill-rule="nonzero"/><path fill="#000000" d="m615.3462 75.16869l0.859375 0l1.328125 5.03125l-1.046875 0.359375q-1.0625 -2.390625 -2.4375 -3.40625q-1.359375 -1.015625 -3.09375 -1.015625q-2.5 0 -4.1875 2.078125q-1.6875 2.0625 -1.6875 4.9375q0 2.0625 0.859375 3.796875q0.859375 1.71875 2.296875 2.625q1.453125 0.890625 3.0625 0.890625q1.046875 0 1.984375 -0.375q0.953125 -0.390625 1.53125 -0.90625q0.4375 -0.40625 0.578125 -0.875q0.15625 -0.484375 0.15625 -1.34375l0 -0.78125q0 -0.921875 -0.21875 -1.296875q-0.21875 -0.390625 -0.625 -0.5625q-0.296875 -0.125 -1.640625 -0.125l0 -0.984375l6.640625 0l0 0.984375l-0.546875 0q-0.6875 0 -0.9375 0.140625q-0.25 0.125 -0.375 0.40625q-0.109375 0.28125 -0.109375 1.109375l0 5.65625l-1.15625 0l-0.625 -1.4375q-0.984375 0.71875 -2.09375 1.125q-1.671875 0.59375 -3.296875 0.59375q-3.296875 0 -5.65625 -2.421875q-2.34375 -2.421875 -2.34375 -6.03125q0 -3.578125 2.375 -6.015625q2.390625 -2.4375 5.703125 -2.4375q0.828125 0 1.640625 0.171875q0.8125 0.15625 1.484375 0.453125q0.5 0.21875 1.171875 0.734375l0.40625 -1.078125zm6.0078125 6.703125l0 -0.953125q0.859375 -0.078125 1.515625 -0.28125q0.671875 -0.21875 1.53125 -0.71875l0.875 0l0 2.21875q0.84375 -1.015625 1.9375 -1.609375q1.109375 -0.609375 1.984375 -0.609375q0.859375 0 1.359375 0.421875q0.515625 0.40625 0.515625 0.984375q0 0.421875 -0.34375 0.75q-0.328125 0.3125 -0.796875 0.3125q-0.203125 0 -0.359375 -0.046875q-0.15625 -0.0625 -0.453125 -0.265625q-0.640625 -0.421875 -1.078125 -0.421875q-0.578125 0 -1.28125 0.5q-0.890625 0.625 -1.390625 1.234375l0 5.40625q0 0.703125 0.0625 0.953125q0.078125 0.25 0.25 0.4375q0.1875 0.171875 0.4375 0.265625q0.265625 0.078125 0.90625 0.078125l0.390625 0l0 0.984375l-6.0625 0l0 -0.984375l0.5 0q0.71875 0 0.9375 -0.125q0.3125 -0.1875 0.453125 -0.484375q0.15625 -0.3125 0.15625 -1.125l0 -6.921875l-2.046875 0zm19.011719 2.859375l0 -1.28125q0 -1.296875 -0.734375 -1.859375q-0.71875 -0.5625 -2.046875 -0.5625q-0.65625 0 -1.15625 0.171875q-0.484375 0.15625 -0.78125 0.4375q-0.296875 0.265625 -0.4375 0.609375q-0.0625 0.140625 -0.28125 1.0q-0.265625 1.0625 -1.09375 1.0625q-0.46875 0 -0.765625 -0.3125q-0.28125 -0.3125 -0.28125 -0.84375q0 -0.765625 0.578125 -1.515625q0.578125 -0.75 1.75 -1.234375q1.1875 -0.484375 2.78125 -0.484375q1.5 0 2.5625 0.46875q1.078125 0.453125 1.578125 1.328125q0.359375 0.59375 0.359375 2.171875l0 4.515625q0 0.96875 0.046875 1.25q0.140625 0.515625 0.453125 0.765625q0.328125 0.25 0.84375 0.25q0.53125 0 1.28125 -0.265625l0 1.03125q-0.96875 0.28125 -1.734375 0.28125q-0.84375 0 -1.40625 -0.234375q-0.5625 -0.234375 -0.9375 -0.6875q-0.359375 -0.453125 -0.46875 -1.078125q-1.40625 1.109375 -2.546875 1.5625q-1.125 0.4375 -2.28125 0.4375q-1.625 0 -2.640625 -0.875q-1.0 -0.890625 -1.0 -2.078125q0 -0.703125 0.359375 -1.34375q0.375 -0.65625 1.125 -1.140625q0.765625 -0.5 2.375 -0.875q1.625 -0.375 4.5 -0.671875zm0 1.015625q-2.71875 0.390625 -3.359375 0.546875q-1.28125 0.296875 -1.84375 0.65625q-0.546875 0.34375 -0.78125 0.75q-0.234375 0.40625 -0.234375 0.859375q0 0.453125 0.265625 0.890625q0.265625 0.421875 0.75 0.671875q0.484375 0.234375 1.015625 0.234375q0.765625 0 1.71875 -0.359375q0.96875 -0.359375 2.46875 -1.421875l0 -2.828125zm5.5 -3.859375l0 -0.984375q1.046875 -0.109375 1.5625 -0.265625q0.515625 -0.171875 1.484375 -0.71875l0.84375 0l0 2.234375q1.546875 -1.3125 2.640625 -1.765625q1.109375 -0.46875 2.234375 -0.46875q0.953125 0 1.6875 0.328125q0.75 0.3125 1.203125 0.875q0.46875 0.546875 0.625 1.25q0.09375 0.4375 0.09375 1.3125l0 5.15625q0 0.921875 0.125 1.1875q0.140625 0.265625 0.421875 0.390625q0.296875 0.109375 1.453125 0.109375l0 0.984375l-6.03125 0l0 -0.984375l0.328125 0q0.84375 0 1.140625 -0.15625q0.3125 -0.15625 0.4375 -0.4375q0.140625 -0.296875 0.140625 -1.203125l0 -4.3125q0 -1.328125 -0.21875 -1.84375q-0.21875 -0.515625 -0.75 -0.84375q-0.515625 -0.328125 -1.3125 -0.328125q-0.9375 0 -2.015625 0.5q-1.078125 0.484375 -2.09375 1.421875l0 5.40625q0 0.921875 0.125 1.234375q0.140625 0.296875 0.453125 0.4375q0.203125 0.125 1.125 0.125l0.34375 0l0 0.984375l-6.046875 0l0 -0.984375l0.296875 0q0.875 0 1.1875 -0.140625q0.3125 -0.15625 0.4375 -0.53125q0.078125 -0.1875 0.078125 -1.28125l0 -6.6875l-2.0 0zm23.140625 -5.59375l0 -0.984375q0.796875 -0.078125 1.453125 -0.28125q0.671875 -0.203125 1.65625 -0.703125l0.890625 0l0 14.203125q0 0.984375 0.046875 1.203125q0.109375 0.4375 0.390625 0.625q0.28125 0.171875 1.09375 0.171875l0.5 0l0 0.984375l-4.0625 0.1875l0 -1.859375q-1.171875 1.0625 -2.203125 1.515625q-1.015625 0.4375 -2.046875 0.4375q-2.125 0 -3.53125 -1.703125q-1.390625 -1.703125 -1.390625 -4.109375q0 -1.71875 0.734375 -3.140625q0.75 -1.421875 1.96875 -2.171875q1.21875 -0.75 2.671875 -0.75q1.109375 0 2.0625 0.390625q0.953125 0.390625 1.734375 1.15625l0 -5.171875l-1.96875 0zm1.96875 12.375l0 -4.421875q0 -0.953125 -0.359375 -1.546875q-0.359375 -0.609375 -1.171875 -1.046875q-0.8125 -0.453125 -1.671875 -0.453125q-1.015625 0 -1.875 0.5625q-0.859375 0.546875 -1.359375 1.59375q-0.484375 1.046875 -0.484375 2.546875q0 1.40625 0.453125 2.4375q0.453125 1.015625 1.21875 1.546875q0.765625 0.53125 1.5625 0.53125q0.78125 0 1.765625 -0.453125q1.0 -0.453125 1.921875 -1.296875zm5.4921875 -6.796875l0 -0.953125q0.875 0 1.546875 -0.21875q0.6875 -0.234375 1.5 -0.78125l0.921875 0l0 1.953125q1.46875 -1.15625 2.4375 -1.546875q0.984375 -0.40625 1.953125 -0.40625q2.0 0 3.40625 1.578125q1.421875 1.5625 1.421875 4.078125q0 2.796875 -1.609375 4.578125q-1.46875 1.640625 -3.765625 1.640625q-1.15625 0 -2.15625 -0.4375q-0.734375 -0.296875 -1.6875 -1.09375l0 3.859375q0 0.875 0.046875 1.03125q0.0625 0.21875 0.234375 0.359375q0.1875 0.15625 0.453125 0.203125q0.203125 0.046875 1.328125 0.046875l0 0.984375l-6.03125 0l0 -0.984375l0.53125 0q0.8125 0 1.046875 -0.125q0.234375 -0.125 0.359375 -0.390625q0.0625 -0.1875 0.0625 -1.21875l0 -12.15625l-2.0 0zm3.96875 1.21875l0 4.03125q0 0.796875 0.09375 1.171875q0.140625 0.609375 0.546875 1.09375q0.40625 0.46875 1.09375 0.8125q0.703125 0.34375 1.46875 0.34375q1.53125 0 2.640625 -1.140625q1.125 -1.15625 1.125 -3.5q0 -2.171875 -0.9375 -3.359375q-0.921875 -1.1875 -2.1875 -1.1875q-0.8125 0 -1.78125 0.4375q-0.953125 0.421875 -2.0625 1.296875zm19.460938 1.640625l0 -1.28125q0 -1.296875 -0.734375 -1.859375q-0.71875 -0.5625 -2.046875 -0.5625q-0.65625 0 -1.15625 0.171875q-0.484375 0.15625 -0.78125 0.4375q-0.296875 0.265625 -0.4375 0.609375q-0.0625 0.140625 -0.28125 1.0q-0.265625 1.0625 -1.09375 1.0625q-0.46875 0 -0.765625 -0.3125q-0.28125 -0.3125 -0.28125 -0.84375q0 -0.765625 0.578125 -1.515625q0.578125 -0.75 1.75 -1.234375q1.1875 -0.484375 2.78125 -0.484375q1.5 0 2.5625 0.46875q1.078125 0.453125 1.578125 1.328125q0.359375 0.59375 0.359375 2.171875l0 4.515625q0 0.96875 0.046875 1.25q0.140625 0.515625 0.453125 0.765625q0.328125 0.25 0.84375 0.25q0.53125 0 1.28125 -0.265625l0 1.03125q-0.96875 0.28125 -1.734375 0.28125q-0.84375 0 -1.40625 -0.234375q-0.5625 -0.234375 -0.9375 -0.6875q-0.359375 -0.453125 -0.46875 -1.078125q-1.40625 1.109375 -2.546875 1.5625q-1.125 0.4375 -2.28125 0.4375q-1.625 0 -2.640625 -0.875q-1.0 -0.890625 -1.0 -2.078125q0 -0.703125 0.359375 -1.34375q0.375 -0.65625 1.125 -1.140625q0.765625 -0.5 2.375 -0.875q1.625 -0.375 4.5 -0.671875zm0 1.015625q-2.71875 0.390625 -3.359375 0.546875q-1.28125 0.296875 -1.84375 0.65625q-0.546875 0.34375 -0.78125 0.75q-0.234375 0.40625 -0.234375 0.859375q0 0.453125 0.265625 0.890625q0.265625 0.421875 0.75 0.671875q0.484375 0.234375 1.015625 0.234375q0.765625 0 1.71875 -0.359375q0.96875 -0.359375 2.46875 -1.421875l0 -2.828125zm13.441406 -9.59375l0 -0.984375l5.828125 0q4.015625 0 5.59375 0.5q2.328125 0.734375 3.78125 2.75q1.609375 2.234375 1.609375 5.125q0 1.96875 -0.796875 3.671875q-0.78125 1.6875 -2.078125 2.71875q-1.0625 0.859375 -2.5625 1.21875q-1.5 0.359375 -3.015625 0.359375l-8.359375 0l0 -0.984375l0.671875 0l0.234375 0.015625q0.421875 0 0.703125 -0.171875q0.28125 -0.1875 0.390625 -0.484375q0.078125 -0.21875 0.078125 -1.03125l0 -10.921875q0 -0.9375 -0.109375 -1.203125q-0.171875 -0.359375 -0.53125 -0.5q-0.203125 -0.078125 -1.4375 -0.078125zm4.265625 14.09375l3.53125 0q0.53125 0 1.75 -0.1875q1.234375 -0.1875 1.765625 -0.453125q0.765625 -0.40625 1.484375 -1.28125q0.734375 -0.890625 1.125 -2.125q0.390625 -1.234375 0.390625 -2.828125q0 -1.59375 -0.390625 -2.75q-0.390625 -1.15625 -1.1875 -2.078125q-0.78125 -0.9375 -1.75 -1.421875q-0.96875 -0.484375 -2.15625 -0.609375q-0.65625 -0.0625 -2.15625 -0.0625l-2.40625 0l0 13.796875zm23.085938 -5.515625l0 -1.28125q0 -1.296875 -0.734375 -1.859375q-0.71875 -0.5625 -2.046875 -0.5625q-0.65625 0 -1.15625 0.171875q-0.484375 0.15625 -0.78125 0.4375q-0.296875 0.265625 -0.4375 0.609375q-0.0625 0.140625 -0.28125 1.0q-0.265625 1.0625 -1.09375 1.0625q-0.46875 0 -0.765625 -0.3125q-0.28125 -0.3125 -0.28125 -0.84375q0 -0.765625 0.578125 -1.515625q0.578125 -0.75 1.75 -1.234375q1.1875 -0.484375 2.78125 -0.484375q1.5 0 2.5625 0.46875q1.078125 0.453125 1.578125 1.328125q0.359375 0.59375 0.359375 2.171875l0 4.515625q0 0.96875 0.046875 1.25q0.140625 0.515625 0.453125 0.765625q0.328125 0.25 0.84375 0.25q0.53125 0 1.28125 -0.265625l0 1.03125q-0.96875 0.28125 -1.734375 0.28125q-0.84375 0 -1.40625 -0.234375q-0.5625 -0.234375 -0.9375 -0.6875q-0.359375 -0.453125 -0.46875 -1.078125q-1.40625 1.109375 -2.546875 1.5625q-1.125 0.4375 -2.28125 0.4375q-1.625 0 -2.640625 -0.875q-1.0 -0.890625 -1.0 -2.078125q0 -0.703125 0.359375 -1.34375q0.375 -0.65625 1.125 -1.140625q0.765625 -0.5 2.375 -0.875q1.625 -0.375 4.5 -0.671875zm0 1.015625q-2.71875 0.390625 -3.359375 0.546875q-1.28125 0.296875 -1.84375 0.65625q-0.546875 0.34375 -0.78125 0.75q-0.234375 0.40625 -0.234375 0.859375q0 0.453125 0.265625 0.890625q0.265625 0.421875 0.75 0.671875q0.484375 0.234375 1.015625 0.234375q0.765625 0 1.71875 -0.359375q0.96875 -0.359375 2.46875 -1.421875l0 -2.828125zm5.5 -3.859375l0 -0.984375q1.046875 -0.109375 1.5625 -0.265625q0.515625 -0.171875 1.484375 -0.71875l0.84375 0l0 2.234375q1.546875 -1.3125 2.640625 -1.765625q1.109375 -0.46875 2.234375 -0.46875q0.953125 0 1.6875 0.328125q0.75 0.3125 1.203125 0.875q0.46875 0.546875 0.625 1.25q0.09375 0.4375 0.09375 1.3125l0 5.15625q0 0.921875 0.125 1.1875q0.140625 0.265625 0.421875 0.390625q0.296875 0.109375 1.453125 0.109375l0 0.984375l-6.03125 0l0 -0.984375l0.328125 0q0.84375 0 1.140625 -0.15625q0.3125 -0.15625 0.4375 -0.4375q0.140625 -0.296875 0.140625 -1.203125l0 -4.3125q0 -1.328125 -0.21875 -1.84375q-0.21875 -0.515625 -0.75 -0.84375q-0.515625 -0.328125 -1.3125 -0.328125q-0.9375 0 -2.015625 0.5q-1.078125 0.484375 -2.09375 1.421875l0 5.40625q0 0.921875 0.125 1.234375q0.140625 0.296875 0.453125 0.4375q0.203125 0.125 1.125 0.125l0.34375 0l0 0.984375l-6.046875 0l0 -0.984375l0.296875 0q0.875 0 1.1875 -0.140625q0.3125 -0.15625 0.4375 -0.53125q0.078125 -0.1875 0.078125 -1.28125l0 -6.6875l-2.0 0z" fill-rule="nonzero"/><path fill="#000000" d="m540.06885 108.57494q1.296875 0 2.53125 0.671875q1.25 0.671875 1.9375 1.921875q0.6875 1.234375 0.6875 2.5625q0 2.15625 -1.515625 3.671875q-1.5 1.5 -3.640625 1.5q-2.140625 0 -3.65625 -1.5q-1.5 -1.515625 -1.5 -3.671875q0 -1.34375 0.6875 -2.578125q0.6875 -1.234375 1.921875 -1.90625q1.25 -0.671875 2.546875 -0.671875z" fill-rule="nonzero"/><path fill="#000000" d="m571.37744 104.16869l6.109375 0l0 0.984375l-0.6875 0q-0.625 0 -0.8125 0.125q-0.1875 0.109375 -0.1875 0.390625q0 0.234375 0.234375 0.625q0.046875 0.09375 0.140625 0.265625l3.1875 5.90625l3.53125 -6.125q0.21875 -0.375 0.25 -0.484375q0.046875 -0.109375 0.046875 -0.234375q0 -0.15625 -0.09375 -0.265625q-0.078125 -0.109375 -0.265625 -0.171875q-0.125 -0.03125 -0.65625 -0.03125l-0.609375 0l0 -0.984375l5.046875 0l0 0.984375q-0.671875 0 -1.0 0.09375q-0.3125 0.09375 -0.515625 0.28125q-0.203125 0.1875 -0.578125 0.8125l-4.4375 7.390625l0 4.109375q0 0.90625 0.140625 1.171875q0.15625 0.265625 0.46875 0.390625q0.3125 0.125 1.484375 0.125l0 0.984375l-6.390625 0l0 -0.984375l0.484375 0q0.796875 0 1.046875 -0.140625q0.265625 -0.140625 0.421875 -0.453125q0.109375 -0.234375 0.109375 -1.09375l0 -3.6875l-4.328125 -7.6875q-0.515625 -0.921875 -0.859375 -1.09375q-0.34375 -0.1875 -1.28125 -0.21875l0 -0.984375zm15.300781 5.03125l5.375 0l0 0.984375l-0.328125 0q-0.671875 0 -0.84375 0.046875q-0.234375 0.078125 -0.359375 0.234375q-0.109375 0.140625 -0.109375 0.359375q0 0.28125 0.265625 0.9375l2.671875 6.671875l2.59375 -6.671875q0.234375 -0.640625 0.234375 -0.9375q0 -0.296875 -0.234375 -0.46875q-0.234375 -0.171875 -0.84375 -0.171875l-0.5625 0l0 -0.984375l4.640625 0l0 0.984375q-0.484375 0.015625 -0.8125 0.15625q-0.3125 0.140625 -0.5 0.359375q-0.1875 0.21875 -0.546875 1.0625l-3.734375 8.75l-1.40625 0l-3.765625 -8.9375q-0.234375 -0.5625 -0.515625 -0.90625q-0.1875 -0.21875 -0.5 -0.34375q-0.3125 -0.140625 -0.71875 -0.140625l0 -0.984375zm19.261719 -0.28125q1.734375 0 2.984375 0.71875q1.265625 0.71875 1.984375 2.09375q0.734375 1.359375 0.734375 3.125q0 1.75 -0.75 3.125q-0.734375 1.375 -2.03125 2.09375q-1.28125 0.71875 -3.0625 0.71875q-2.828125 0 -4.25 -1.765625q-1.421875 -1.78125 -1.421875 -4.171875q0 -1.734375 0.734375 -3.09375q0.734375 -1.359375 2.0625 -2.09375q1.328125 -0.75 3.015625 -0.75zm-0.09375 1.140625q-1.328125 0 -2.25 1.046875q-1.171875 1.3125 -1.171875 3.828125q0 2.40625 0.984375 3.671875q0.90625 1.125 2.453125 1.125q1.0 0 1.78125 -0.515625q0.78125 -0.53125 1.25 -1.6875q0.484375 -1.15625 0.484375 -2.71875q0 -1.515625 -0.515625 -2.71875q-0.390625 -0.96875 -1.203125 -1.5q-0.796875 -0.53125 -1.8125 -0.53125zm7.6289062 0.828125l0 -0.984375q1.046875 -0.109375 1.5625 -0.265625q0.515625 -0.171875 1.484375 -0.71875l0.84375 0l0 2.234375q1.546875 -1.3125 2.640625 -1.765625q1.109375 -0.46875 2.234375 -0.46875q0.953125 0 1.6875 0.328125q0.75 0.3125 1.203125 0.875q0.46875 0.546875 0.625 1.25q0.09375 0.4375 0.09375 1.3125l0 5.15625q0 0.921875 0.125 1.1875q0.140625 0.265625 0.421875 0.390625q0.296875 0.109375 1.453125 0.109375l0 0.984375l-6.03125 0l0 -0.984375l0.328125 0q0.84375 0 1.140625 -0.15625q0.3125 -0.15625 0.4375 -0.4375q0.140625 -0.296875 0.140625 -1.203125l0 -4.3125q0 -1.328125 -0.21875 -1.84375q-0.21875 -0.515625 -0.75 -0.84375q-0.515625 -0.328125 -1.3125 -0.328125q-0.9375 0 -2.015625 0.5q-1.078125 0.484375 -2.09375 1.421875l0 5.40625q0 0.921875 0.125 1.234375q0.140625 0.296875 0.453125 0.4375q0.203125 0.125 1.125 0.125l0.34375 0l0 0.984375l-6.046875 0l0 -0.984375l0.296875 0q0.875 0 1.1875 -0.140625q0.3125 -0.15625 0.4375 -0.53125q0.078125 -0.1875 0.078125 -1.28125l0 -6.6875l-2.0 0zm15.84375 0l0 -0.984375q1.046875 -0.109375 1.5625 -0.265625q0.515625 -0.171875 1.484375 -0.71875l0.84375 0l0 2.234375q1.546875 -1.3125 2.640625 -1.765625q1.109375 -0.46875 2.234375 -0.46875q0.953125 0 1.6875 0.328125q0.75 0.3125 1.203125 0.875q0.46875 0.546875 0.625 1.25q0.09375 0.4375 0.09375 1.3125l0 5.15625q0 0.921875 0.125 1.1875q0.140625 0.265625 0.421875 0.390625q0.296875 0.109375 1.453125 0.109375l0 0.984375l-6.03125 0l0 -0.984375l0.328125 0q0.84375 0 1.140625 -0.15625q0.3125 -0.15625 0.4375 -0.4375q0.140625 -0.296875 0.140625 -1.203125l0 -4.3125q0 -1.328125 -0.21875 -1.84375q-0.21875 -0.515625 -0.75 -0.84375q-0.515625 -0.328125 -1.3125 -0.328125q-0.9375 0 -2.015625 0.5q-1.078125 0.484375 -2.09375 1.421875l0 5.40625q0 0.921875 0.125 1.234375q0.140625 0.296875 0.453125 0.4375q0.203125 0.125 1.125 0.125l0.34375 0l0 0.984375l-6.046875 0l0 -0.984375l0.296875 0q0.875 0 1.1875 -0.140625q0.3125 -0.15625 0.4375 -0.53125q0.078125 -0.1875 0.078125 -1.28125l0 -6.6875l-2.0 0zm25.875 6.59375l0.75 0.609375q-0.859375 1.03125 -1.671875 1.625q-0.796875 0.59375 -1.515625 0.828125q-0.703125 0.25 -1.671875 0.25q-1.71875 0 -2.921875 -0.703125q-1.390625 -0.8125 -2.125 -2.109375q-0.734375 -1.296875 -0.734375 -3.078125q0 -1.84375 0.703125 -3.15625q0.71875 -1.3125 2.0 -2.0625q1.28125 -0.765625 2.96875 -0.765625q1.265625 0 2.1875 0.390625q0.921875 0.390625 1.5625 1.1875q0.65625 0.796875 0.9375 1.8125q0.171875 0.59375 0.1875 1.546875l-8.28125 0q-0.03125 0.578125 -0.03125 0.859375q0 1.46875 0.515625 2.625q0.515625 1.15625 1.359375 1.703125q0.859375 0.546875 1.9375 0.546875q0.90625 0 1.765625 -0.421875q0.859375 -0.4375 2.078125 -1.6875zm-1.5 -4.734375q-0.1875 -1.078125 -0.515625 -1.59375q-0.3125 -0.515625 -0.90625 -0.8125q-0.59375 -0.3125 -1.328125 -0.3125q-0.734375 0 -1.390625 0.3125q-0.640625 0.296875 -1.0625 0.84375q-0.421875 0.53125 -0.75 1.5625l5.953125 0z" fill-rule="nonzero"/><path fill="#000000" d="m510.06888 137.57494q1.296875 0 2.5312195 0.671875q1.25 0.671875 1.9375 1.921875q0.6875 1.234375 0.6875 2.5625q0 2.15625 -1.515625 3.671875q-1.5 1.5 -3.6405945 1.5q-2.140625 0 -3.65625 -1.5q-1.5 -1.515625 -1.5 -3.671875q0 -1.34375 0.6875 -2.578125q0.6875 -1.234375 1.921875 -1.90625q1.25 -0.671875 2.546875 -0.671875z" fill-rule="nonzero"/><path fill="#000000" d="m542.43994 133.16869l5.171875 0l4.828125 12.9375l4.703125 -12.9375l4.984375 0l0 0.984375l-0.421875 0q-0.765625 0 -1.03125 0.140625q-0.25 0.125 -0.40625 0.453125q-0.15625 0.3125 -0.15625 1.046875l0 10.78125q0 1.03125 0.125 1.34375q0.125 0.296875 0.40625 0.453125q0.296875 0.15625 1.0625 0.15625l0.421875 0l0 0.984375l-6.25 0l0 -0.984375l0.453125 0q0.59375 0 0.859375 -0.09375q0.28125 -0.09375 0.46875 -0.3125q0.1875 -0.21875 0.203125 -0.453125q0.0625 -0.484375 0.0625 -0.75l0 -12.03125l-5.328125 14.625l-1.171875 0l-5.375 -14.421875l0 11.59375q0 0.875 0.15625 1.1875q0.15625 0.3125 0.46875 0.484375q0.328125 0.171875 1.15625 0.171875l0.375 0l0 0.984375l-5.765625 0l0 -0.984375l0.328125 0q0.828125 0 1.1875 -0.171875q0.359375 -0.1875 0.515625 -0.5q0.15625 -0.328125 0.15625 -1.28125l0 -10.671875q0 -0.890625 -0.140625 -1.171875q-0.125 -0.296875 -0.421875 -0.4375q-0.296875 -0.140625 -1.0625 -0.140625l-0.5625 0l0 -0.984375zm20.828125 5.03125l5.6875 0l0 0.984375l-0.46875 0q-0.65625 0 -0.796875 0.03125q-0.140625 0.046875 -0.25 0.203125q-0.109375 0.140625 -0.109375 0.359375q0 0.328125 0.3125 1.078125l2.71875 6.375l2.53125 -6.09375q0.4375 -1.078125 0.4375 -1.4375q0 -0.265625 -0.203125 -0.390625q-0.1875 -0.125 -0.890625 -0.125l-0.5625 0l0 -0.984375l4.796875 0l0 0.984375l-0.28125 0q-0.703125 0 -0.921875 0.09375q-0.203125 0.09375 -0.40625 0.390625q-0.1875 0.28125 -0.625 1.296875l-4.296875 10.03125q-0.46875 1.078125 -1.046875 1.984375q-0.578125 0.921875 -1.453125 1.421875q-0.859375 0.515625 -1.90625 0.515625q-1.203125 0 -1.921875 -0.546875q-0.625 -0.46875 -0.625 -1.171875q0 -0.4375 0.265625 -0.734375q0.265625 -0.28125 0.640625 -0.28125q0.28125 0 0.515625 0.125q0.15625 0.046875 0.640625 0.484375q0.578125 0.515625 0.8125 0.625q0.25 0.125 0.484375 0.125q0.484375 0 0.953125 -0.328125q0.46875 -0.328125 0.796875 -0.921875q0.46875 -0.859375 0.765625 -1.609375l0.484375 -1.171875l-3.859375 -8.65625q-0.421875 -0.921875 -0.703125 -1.234375q-0.28125 -0.3125 -0.5625 -0.390625q-0.140625 -0.046875 -0.953125 -0.046875l0 -0.984375zm31.996094 8.046875l0.75 0.609375q-2.203125 2.9375 -5.296875 2.9375q-2.390625 0 -4.046875 -1.703125q-1.65625 -1.71875 -1.65625 -4.265625q0 -1.703125 0.765625 -3.046875q0.765625 -1.359375 2.125 -2.109375q1.375 -0.75 3.140625 -0.75q2.015625 0 3.359375 1.0q1.359375 0.984375 1.359375 1.984375q0 0.546875 -0.328125 0.84375q-0.3125 0.28125 -0.703125 0.28125q-0.21875 0 -0.421875 -0.09375q-0.1875 -0.109375 -0.40625 -0.34375q-0.09375 -0.109375 -0.328125 -0.65625q-0.328125 -0.6875 -0.5 -0.921875q-0.359375 -0.46875 -0.890625 -0.734375q-0.53125 -0.265625 -1.1875 -0.265625q-1.0 0 -1.859375 0.546875q-0.84375 0.546875 -1.34375 1.625q-0.5 1.078125 -0.5 2.5625q0 2.3125 1.234375 3.671875q1.0625 1.171875 2.546875 1.171875q0.671875 0 1.375 -0.234375q0.703125 -0.234375 1.3125 -0.671875q0.46875 -0.3125 1.5 -1.4375zm10.542969 -3.515625l0 -1.28125q0 -1.296875 -0.734375 -1.859375q-0.71875 -0.5625 -2.046875 -0.5625q-0.65625 0 -1.15625 0.171875q-0.484375 0.15625 -0.78125 0.4375q-0.296875 0.265625 -0.4375 0.609375q-0.0625 0.140625 -0.28125 1.0q-0.265625 1.0625 -1.09375 1.0625q-0.46875 0 -0.765625 -0.3125q-0.28125 -0.3125 -0.28125 -0.84375q0 -0.765625 0.578125 -1.515625q0.578125 -0.75 1.75 -1.234375q1.1875 -0.484375 2.78125 -0.484375q1.5 0 2.5625 0.46875q1.078125 0.453125 1.578125 1.328125q0.359375 0.59375 0.359375 2.171875l0 4.515625q0 0.96875 0.046875 1.25q0.140625 0.515625 0.453125 0.765625q0.328125 0.25 0.84375 0.25q0.53125 0 1.28125 -0.265625l0 1.03125q-0.96875 0.28125 -1.734375 0.28125q-0.84375 0 -1.40625 -0.234375q-0.5625 -0.234375 -0.9375 -0.6875q-0.359375 -0.453125 -0.46875 -1.078125q-1.40625 1.109375 -2.546875 1.5625q-1.125 0.4375 -2.28125 0.4375q-1.625 0 -2.640625 -0.875q-1.0 -0.890625 -1.0 -2.078125q0 -0.703125 0.359375 -1.34375q0.375 -0.65625 1.125 -1.140625q0.765625 -0.5 2.375 -0.875q1.625 -0.375 4.5 -0.671875zm0 1.015625q-2.71875 0.390625 -3.359375 0.546875q-1.28125 0.296875 -1.84375 0.65625q-0.546875 0.34375 -0.78125 0.75q-0.234375 0.40625 -0.234375 0.859375q0 0.453125 0.265625 0.890625q0.265625 0.421875 0.75 0.671875q0.484375 0.234375 1.015625 0.234375q0.765625 0 1.71875 -0.359375q0.96875 -0.359375 2.46875 -1.421875l0 -2.828125zm8.578125 -9.53125l0.828125 0l0 3.984375l3.484375 0l0 1.171875l-3.484375 0l0 7.0625q0 0.90625 0.15625 1.296875q0.15625 0.390625 0.53125 0.640625q0.390625 0.234375 0.859375 0.234375q1.109375 0 2.46875 -1.0l0 1.140625q-1.546875 1.046875 -3.109375 1.046875q-0.890625 0 -1.609375 -0.390625q-0.71875 -0.40625 -0.984375 -0.9375q-0.265625 -0.546875 -0.265625 -1.890625l0 -7.203125l-2.046875 0l0 -0.984375q0.984375 -0.21875 1.578125 -0.6875q0.609375 -0.46875 0.984375 -1.21875q0.375 -0.75 0.609375 -2.265625zm13.9609375 3.984375l0.828125 0l1.046875 3.59375l-1.046875 0.34375q-0.640625 -1.4375 -1.78125 -2.265625q-1.140625 -0.828125 -2.3125 -0.828125q-0.90625 0 -1.46875 0.4375q-0.5625 0.4375 -0.5625 1.015625q0 0.546875 0.421875 0.921875q0.390625 0.40625 1.78125 0.90625l2.296875 0.8125q1.921875 0.6875 2.625 1.46875q0.703125 0.796875 0.703125 1.8125q0 0.859375 -0.515625 1.65625q-0.515625 0.78125 -1.5 1.25q-0.984375 0.46875 -2.25 0.46875q-1.96875 0 -3.375 -1.125l-0.234375 0.84375l-0.84375 0l-1.453125 -3.828125l1.0625 -0.421875q1.0625 1.6875 2.015625 2.390625q1.328125 0.984375 2.859375 0.984375q1.015625 0 1.671875 -0.53125q0.65625 -0.546875 0.65625 -1.21875q0 -0.546875 -0.40625 -1.015625q-0.421875 -0.4375 -1.625 -0.859375l-2.703125 -0.984375q-1.75 -0.640625 -2.421875 -1.390625q-0.6875 -0.75 -0.6875 -1.71875q0 -1.1875 1.109375 -2.09375q1.109375 -0.90625 2.828125 -0.90625q0.890625 0 1.59375 0.234375q0.703125 0.21875 1.375 0.75l0.3125 -0.703125z" fill-rule="nonzero"/></g>
<style xmlns="http://www.w3.org/2000/svg">
    @keyframes alternateUp {
        50% {transform:translateY(20px);}
    }
    @keyframes alternateDown {
        50% {transform:translateY(-20px);}
    }
    @keyframes alternateLeft {
        50% {transform:translateX(20px);}
    }
    @keyframes alternateRight {
        50% {transform:translateX(-20px);}
    }
</style>
</svg>