<svg version="1.1" viewBox="0.0 0.0 960.0 540.0" fill="none" stroke="none" stroke-linecap="square" stroke-miterlimit="10" xmlns:xlink="http://www.w3.org/1999/xlink" xmlns="http://www.w3.org/2000/svg"><clipPath id="g6f5a830e83_0_32.0"><path d="m0 0l960.0 0l0 540.0l-960.0 0l0 -540.0z" clip-rule="nonzero"/></clipPath><g clip-path="url(#g6f5a830e83_0_32.0)"><path fill="#ffffff" d="m0 0l960.0 0l0 540.0l-960.0 0z" fill-rule="evenodd"/><path fill="#ffffff" d="m1013.15485 8.201832l-1018.89764 -179.52756l-61.85827 351.40158l1018.8976 179.52754z" fill-rule="evenodd"/><path stroke="#ffffff" stroke-width="1.0" stroke-linejoin="round" stroke-linecap="butt" d="m1013.15485 8.201832l-1018.89764 -179.52756l-61.85827 351.40158l1018.8976 179.52754z" fill-rule="evenodd"/><path fill="#000000" fill-opacity="0.0" d="m924.1523 156.59908l-887.9055 -156.59842l-29.29134 166.20471l887.9055 156.59843z" fill-rule="evenodd"/><path fill="#000000" d="m91.92396 69.409096l6.3550415 1.1208267l8.744095 47.792015q0.6343765 3.6024399 1.6855087 4.930191q1.0692291 1.3150711 3.1773224 1.6868744l0.8463135 0.14926147l-0.5695038 3.231453l-19.11129 -3.3706284l0.5695038 -3.231453q0.9368057 0.08589172 1.8138962 0.24058533q1.8465042 0.32566833 2.4990234 0.0440979q1.2380753 -0.5432205 1.4333344 -1.6511459q0.14373016 -0.8155594 -0.37745667 -4.160042l-1.7085953 -11.010994l-19.465202 -3.4330444l-6.202118 10.885086q-0.9662781 1.7017899 -1.0883102 2.3942413q-0.13559723 0.7693939 0.16142273 1.4246902q0.29973602 0.63991547 0.94065094 1.0544052q0.64362335 0.3991089 2.182373 0.6704941q1.0463486 0.1845398 1.684494 0.34468842l-0.5695038 3.231453l-16.033787 -2.827858l0.56949997 -3.2314453q2.2311897 0.3935089 3.2792473 0.11823273q1.063446 -0.27256012 1.9575081 -1.1144409q0.9121628 -0.8545532 2.6683273 -3.7973862l24.558205 -41.490158zm-12.012558 28.820358l16.572357 2.922844l-4.2414093 -24.54728l-12.330948 21.624435zm68.06425 -15.07914l0.57762146 -3.2776184q2.6565552 0.23053741 4.94281 -0.048484802q2.288971 -0.29440308 5.8593903 -1.3782425l2.877472 0.50749207l-8.225204 46.67138q-0.5695038 3.231453 -0.5376587 3.9510422q0.12705994 1.5296936 0.94725037 2.2772675q0.8229065 0.73217773 3.4849548 1.2016754l1.6464539 0.29039l-0.5694885 3.2314453l-13.449448 -1.7374115l1.0793304 -6.124359q-4.4651947 2.829956 -8.092682 3.697464q-3.6275024 0.86750793 -7.0127563 0.27046204q-6.9551544 -1.2266693 -10.568886 -7.6392975q-3.6137314 -6.412628 -2.2252426 -14.291206q0.9898453 -5.6165695 4.2608795 -9.862976q3.2710342 -4.2464066 7.7056885 -6.0028534q4.434662 -1.7564545 9.204788 -0.9151535q3.6468353 0.6431885 6.5300293 2.4685822q2.901291 1.8127213 5.038925 4.8076477l2.9885254 -16.95742l-6.4627533 -1.1398239zm-0.69667053 41.76377l2.5627441 -14.541527q0.55052185 -3.1237335 -0.28720093 -5.302353q-0.8196106 -2.1912842 -3.2394104 -4.1253433q-2.4044037 -1.9313507 -5.2203217 -2.4279861q-3.339096 -0.58891296 -6.4931183 0.74289703q-3.1513062 1.3164139 -5.35907 4.4810486q-2.1923752 3.1673508 -3.0520477 8.045303q-0.81357574 4.616356 0.06972504 8.246834q0.88329315 3.6304703 3.0669174 5.824333q2.201706 2.1811905 4.8175964 2.64254q2.5850983 0.45593262 6.1075897 -0.44595337q3.5378876 -0.8991852 7.026596 -3.1397934zm36.5121 -41.07955q1.8465118 0.32566833 2.926651 1.8489227q1.08284 1.5078735 0.7574158 3.354416q-0.3254242 1.8465424 -1.8638763 2.9238358q-1.5384521 1.0772858 -3.3849487 0.75162506q-1.8465118 -0.32566833 -2.908554 -1.8616028q-1.062027 -1.5359268 -0.7366028 -3.3824692q0.3254242 -1.84655 1.8430634 -2.8957748q1.5203552 -1.0646133 3.3668518 -0.73895264zm-14.012543 22.07357l0.5559387 -3.1545105q2.9389496 0.24861145 5.1301727 -0.031303406q2.193924 -0.29530334 5.8086853 -1.4506531l2.8005219 0.493927l-7.384506 41.90114q-0.8000183 4.5394135 -3.0811768 7.310318q-2.2657928 2.7736206 -5.7067413 4.0230865q-3.4282837 1.2675629 -7.736786 0.5076904q-4.1546326 -0.73275757 -6.3101807 -2.9057922q-2.1582794 -2.157669 -1.83284 -4.0042114q0.2711792 -1.5387878 1.432251 -2.3653107q1.1456909 -0.8292389 2.730606 -0.5496979q0.9232483 0.16282654 1.5406342 0.6207733q0.59928894 0.47061157 1.6287384 1.921463q1.5210724 2.1722107 2.5204926 2.9831238q0.73417664 0.60546875 1.734375 0.7818756q2.3850555 0.4206543 4.176712 -1.64328q1.3292847 -1.5108337 1.999115 -5.3116455l6.687561 -37.946457l-6.693573 -1.1805344zm22.36493 -1.7673492l14.687698 2.0034027l-4.366165 24.774452q-0.57492065 3.2622223 -0.021438599 5.343109q0.5688782 2.083603 2.2436523 3.4737396q1.690155 1.3928528 4.1829376 1.8325043q3.0774994 0.5427704 7.2760925 -0.4143982q4.2013245 -0.9725647 8.656601 -3.5662842l3.159378 -17.926865q0.5016937 -2.8467484 0.22541809 -3.7998505q-0.25816345 -0.9657669 -1.2403717 -1.694313q-0.98220825 -0.72854614 -3.2903442 -1.1356277l-2.8005219 -0.493927l0.5695038 -3.2314453l14.672302 2.000679l-5.0576935 28.698357q-0.48814392 2.7698212 -0.2136383 3.9129944q0.27722168 1.1277924 1.10643 1.7341614q0.82922363 0.606369 3.5528107 1.0867157l1.2002258 0.21168518l-0.5695038 3.2314453l-12.888245 -1.5908356l1.2556152 -7.1245728q-6.0155487 3.2546387 -10.221405 4.1629486q-4.2058563 0.9082947 -8.237381 0.19726562q-3.0005646 -0.5292053 -5.072632 -1.7355652q-2.0747833 -1.1909637 -3.4672852 -3.1025085q-1.3770905 -1.9088135 -1.8709259 -4.328232q-0.47572327 -2.4320984 -0.020126343 -5.0172577l3.083435 -17.495995q0.414917 -2.3543472 0.14950562 -3.3689957q-0.25004578 -1.0119324 -1.1372223 -1.7395782q-0.88446045 -0.743042 -2.5770874 -1.041565l-3.5391235 -0.6241913l0.5695038 -3.231453zm81.71539 14.41201l2.69281 0.47492218l1.3875732 12.382332l-3.6655884 0.5434723q-1.244751 -5.0904465 -4.522003 -8.460892q-3.2745361 -3.3858337 -7.1214294 -4.0643005q-2.9544067 -0.52106476 -5.0558167 0.59973145q-2.1014252 1.1207886 -2.4322815 2.998108q-0.31185913 1.7696075 0.8017578 3.2829056q1.0774231 1.5386505 5.3727417 3.9938736l7.0245667 3.9837646q5.9563904 3.382843 7.808899 6.3750763q1.8009338 3.0148773 1.2178955 6.3232727q-0.4935608 2.800583 -2.6445007 5.1026154q-2.15094 2.3020172 -5.6381226 3.2736053q-3.4718018 0.9743042 -7.6264343 0.24156189q-6.4627533 -1.1398315 -10.428146 -5.6470795l-1.3036804 2.6259766l-2.723587 -0.48034668l-2.5979614 -13.436722l3.7524261 -0.7661438q2.5166779 6.1556854 5.2335663 9.0147705q3.7616272 4.042938 8.808746 4.933075q3.3390808 0.58891296 5.8079224 -0.8161316q2.471527 -1.4204407 2.8566284 -3.6055145q0.32000732 -1.8157654 -0.75564575 -3.5444946q-1.1272583 -1.7061005 -4.807007 -3.7830353l-8.324463 -4.8000793q-5.3580627 -3.086914 -7.1553345 -5.9424896q-1.797287 -2.8555603 -1.2332153 -6.0562363q0.6833954 -3.877739 4.8409576 -6.2225113q4.1575775 -2.3447723 9.774002 -1.3542099q2.923645 0.5156326 5.098877 1.6767197q2.175232 1.161087 4.1026917 3.278038l1.4531555 -2.1236343zm27.348297 -8.662857l2.7235718 0.4803543l-2.3051147 13.079681l11.432922 2.0164032l-0.6779785 3.846962l-11.432922 -2.0164032l-4.0895386 23.204895q-0.5206909 2.9544678 -0.22259521 4.323929q0.30078125 1.3540802 1.4034424 2.38945q1.1053772 1.0200043 2.6441345 1.2913818q3.6622314 0.64590454 8.653351 -1.8374329l-0.6562805 3.7238617q-5.6364746 2.5440521 -10.79129 1.634903q-2.9236145 -0.51564026 -5.0627747 -2.2415314q-2.1391602 -1.7259064 -2.6889954 -3.6474915q-0.5498352 -1.9215851 0.22305298 -6.3071136l4.1708984 -23.666534l-6.7397156 -1.1886749l0.5694885 -3.231453q3.3588257 -0.15331268 5.6150208 -1.3420105q2.2561646 -1.1886978 3.9210815 -3.4336472q1.664917 -2.2449493 3.3102417 -7.079529zm30.227112 -0.015785217q1.8464966 0.3256607 2.9266357 1.8489227q1.0828552 1.5078659 0.7574158 3.354416q-0.32540894 1.8465424 -1.8638611 2.9238281q-1.5384521 1.0772934 -3.3849487 0.75162506q-1.8465271 -0.3256607 -2.9239502 -1.8643112q-1.0774231 -1.5386505 -0.75198364 -3.3851929q0.32540894 -1.8465424 1.8584595 -2.8930511q1.5357361 -1.0619049 3.3822327 -0.7362366zm-14.012543 22.07357l0.56137085 -3.1852875q3.2683716 0.17977905 5.5600586 -0.13002014q2.291687 -0.30978394 5.3272095 -1.3293076l2.8158875 0.49664307l-5.4373474 30.852654q-0.28475952 1.6157227 0.03314209 2.5126953q0.32061768 0.8815918 1.0710449 1.3947296q0.7658386 0.51586914 2.966278 0.9039459l1.8003235 0.31752014l-0.5694885 3.2314453l-19.696014 -3.4737396l0.5694885 -3.2314606l1.5849304 0.27952576q2.5697021 0.45321655 3.5281372 0.14627075q0.97384644 -0.30422974 1.4923096 -1.0854187q0.5184326 -0.7812042 1.0689697 -3.9049377l3.9864807 -22.620163l-6.662781 -1.1750946zm23.973724 4.2282104l0.56951904 -3.2314606q3.4838257 0.2177887 5.2713623 -0.022262573q1.7875366 -0.24005127 5.3000183 -1.4451599l2.7697449 0.48849487l-1.288147 7.3092346q5.829071 -3.366867 9.682831 -4.2579346q3.8691711 -0.88835144 7.5621643 -0.23701477q3.1544495 0.55633545 5.383148 2.0441742q2.24411 1.4905548 3.4474792 3.574997q1.2060852 2.069046 1.291687 4.464081q0.058258057 1.4699554 -0.45159912 4.3628693l-2.9830627 16.926651q-0.53427124 3.0314026 -0.24261475 3.9872131q0.29437256 0.9404297 1.180603 1.4933777q0.90164185 0.5556793 4.67157 1.2205658l-0.5694885 3.2314606l-19.819122 -3.4954681l0.5694885 -3.2314453l1.0771179 0.18997192q2.7697754 0.48849487 3.85672 0.17248535q1.0896912 -0.33140564 1.704071 -1.2067413q0.61709595 -0.8907471 1.1404724 -3.8605957l2.4949646 -14.15683q0.7728882 -4.385544 0.34799194 -6.205765q-0.40951538 -1.8174896 -1.933136 -3.1651154q-1.520874 -1.3629913 -4.1367493 -1.8243561q-3.1236877 -0.5509186 -6.9448547 0.42523193q-3.818451 0.9607544 -7.6772766 3.501007l-3.124115 17.726822q-0.5288086 3.0006256 -0.2588501 4.079544q0.2699585 1.0789185 1.1806641 1.7631073q0.6246338 0.5068207 3.6252136 1.036026l1.1078796 0.19540405l-0.5694885 3.2314453l-19.803741 -3.4927368l0.56951904 -3.2314606l0.95401 0.16825867q2.8467102 0.5020752 3.961731 0.20687866q1.1331177 -0.3078766 1.7809448 -1.4629059q0.33926392 -0.57481384 0.9765625 -4.1909637l3.8644714 -21.927689l-6.5397034 -1.1533966zm82.14703 11.917816q2.084076 -1.74263 4.0371704 -2.3818817q1.9711914 -0.65190125 3.4637756 -0.38865662q1.3848877 0.24424744 2.177063 1.2407379q0.80758667 0.99920654 0.5987854 2.1840668q-0.21694946 1.2310333 -1.2124329 1.9281006q-0.9954529 0.69706726 -2.3034058 0.4663849q-0.5385742 -0.09498596 -1.4292603 -0.44247437q-1.0283203 -0.46694946 -1.7669067 -0.59721375q-0.9540405 -0.16825867 -2.1576843 0.5396881q1.8779297 3.2981873 1.1918335 7.1913147q-0.9356079 5.3088074 -6.0841064 8.414917q-5.1457825 3.0907135 -11.947052 1.8911896q-3.769928 -0.66490173 -7.3067017 -2.922882q-2.8589478 1.3679657 -3.270691 1.7237396q-0.6551819 0.56669617 -0.7826538 1.289917q-0.19796753 1.1233215 0.8286438 2.0500946q1.2909546 1.2272491 5.485565 2.6334229l10.816895 3.621292q3.592682 1.2206879 7.0777893 3.2315826q3.5032349 1.9981995 4.800812 4.4483185q1.2948608 2.4654999 0.76605225 5.4661407q-0.894928 5.0779877 -6.1223755 7.281662q-6.6564636 2.840149 -18.381744 0.7721863q-6.154999 -1.085556 -9.771393 -3.071991q-3.6163635 -1.9864349 -5.3194885 -4.746063q-1.2322998 -2.0102234 -0.90686035 -3.8567657q0.4203186 -2.3851166 2.375824 -4.3884125q1.9681702 -1.985199 8.355743 -5.190094q-3.4841309 -1.5664673 -4.8520813 -3.0770264q-1.7237549 -1.9223633 -1.3712158 -3.9227753q0.17626953 -1.0002136 0.69744873 -1.7967987q0.52386475 -0.8119812 1.491272 -1.5298615q0.9827881 -0.71517944 3.4544067 -1.8658752q1.5557251 -0.7251892 2.206421 -1.0864105q-2.447998 -2.4943542 -3.4424133 -5.224182q-0.9790344 -2.727127 -0.45562744 -5.6969757q0.8596802 -4.87796 5.275055 -7.875366q5.356537 -3.6564636 13.127228 -2.2859497q3.4621887 0.61061096 5.8773193 1.9409332q2.4332275 1.3176575 4.7789917 4.031967zm-11.626709 -2.447235q-3.7699585 -0.66490173 -6.8685303 1.6127777q-3.0958862 2.2622986 -3.806427 6.293915q-0.47457886 2.692871 0.3251648 5.086914q0.8178711 2.3813782 2.7524414 4.007736q1.9346008 1.626358 4.3196716 2.046997q2.3850403 0.4206543 4.777069 -0.4584961q2.3947144 -0.89453125 3.9438477 -2.842575q1.5645142 -1.945343 2.039093 -4.638214q0.74575806 -4.231659 -1.3602295 -7.316208q-2.0905762 -3.0818176 -6.122101 -3.7928467zm-12.009064 32.311523q-4.248932 2.503189 -5.80896 4.243042q-1.5473633 1.7579651 -1.8673706 3.5737457q-0.2711792 1.5387726 0.67684937 3.1815338q0.96069336 1.6608582 3.7215881 3.099762q2.7609253 1.4389038 7.1925354 2.2205048q5.2317505 0.92271423 9.1716 0.44348145q3.9525146 -0.46113586 5.880066 -1.9457855q1.4443054 -1.1732178 1.7778625 -3.0659332q0.28475952 -1.6157227 -0.5020752 -2.9127197q-0.7895508 -1.2816162 -3.3513184 -2.5901947q-2.5644531 -1.2931976 -4.850952 -2.0931244l-12.039825 -4.154312zm74.602295 -37.503143l2.7235718 0.48036194l-2.3051147 13.079681l11.432922 2.0164032l-0.6779785 3.8469696l-11.432922 -2.0164185l-4.0895386 23.204895q-0.5206909 2.9544678 -0.22259521 4.323929q0.30081177 1.3540802 1.4034424 2.3894653q1.1053772 1.019989 2.6441345 1.2913818q3.6622314 0.6458893 8.653381 -1.8374481l-0.6562805 3.7238617q-5.6364746 2.5440521 -10.79129 1.634903q-2.923645 -0.515625 -5.062805 -2.2415314q-2.1391602 -1.7259064 -2.6889954 -3.6474915q-0.5498352 -1.9215698 0.22305298 -6.3071136l4.1708984 -23.666534l-6.7397156 -1.1886749l0.5694885 -3.2314453q3.3588562 -0.15332031 5.6150208 -1.3420105q2.256195 -1.1887054 3.9210815 -3.4336548q1.664917 -2.244934 3.3102417 -7.079529zm37.095734 19.076782q5.647217 0.99598694 9.371521 4.080368q3.7270508 3.068985 5.317566 7.9982758q1.5931396 4.9138947 0.5761719 10.684341q-1.0169678 5.770462 -4.2581177 9.847595q-3.2385254 4.0617523 -7.8723145 5.6878815q-4.6184387 1.6288452 -10.465698 0.5975647q-9.309448 -1.6418915 -12.964844 -8.268127q-3.65271 -6.641632 -2.2696533 -14.489441q1.0115356 -5.73967 4.2084045 -9.745285q3.2149658 -4.0183105 8.016235 -5.6942444q4.801239 -1.6759186 10.340729 -0.69892883zm-0.96673584 3.684967q-4.385437 -0.77345276 -8.042328 2.151474q-4.6062317 3.630127 -6.0570984 11.86264q-1.396637 7.9247437 1.1487122 12.6575165q2.3035278 4.214157 7.3814087 5.109726q3.2775574 0.57806396 6.13562 -0.69488525q2.8607483 -1.2883148 5.0974426 -4.796921q2.2546997 -3.5212708 3.1550903 -8.630035q0.88134766 -5.001053 -0.111572266 -9.269653q-0.75201416 -3.3851929 -3.0768433 -5.588089q-2.3220825 -2.2182922 -5.630432 -2.801773zm55.892517 -11.958282l2.69281 0.4749298l0.06744385 1.8682251l32.92926 5.807678l0.62506104 -1.7460938l2.800476 0.49391174l2.8829346 16.77127l-3.6791382 0.6204071q-1.3963013 -6.7513885 -4.3775024 -9.910965q-2.9631958 -3.1722565 -8.302612 -4.113968q-2.2312012 -0.3935089 -2.69458 -0.28483582q-0.4453125 0.09599304 -0.7059326 0.49427795q-0.24243164 0.38562012 -0.6411133 2.647644l-6.562805 37.238617q-0.46917725 2.662094 -0.33947754 3.6369324q0.12963867 0.97483826 0.5786743 1.5776215q0.45178223 0.5873871 1.352478 0.96836853q0.90338135 0.36558533 4.1727905 0.9898071l-0.56951904 3.2314453l-20.696167 -3.6501465l0.569458 -3.2314606q3.4241943 0.5563202 4.226074 0.50735474q1.421936 -0.14587402 2.1810913 -1.1226044q0.77453613 -0.97402954 1.2844238 -3.8669434l6.7037964 -38.038788q0.31188965 -1.7696075 0.19500732 -2.1868744q-0.10144043 -0.41453552 -0.54052734 -0.71409607q-0.43902588 -0.29956055 -1.9470215 -0.56552124q-4.185364 -0.73817444 -6.8987427 -0.10609436q-2.713379 0.6320648 -5.4002075 2.8237152q-2.684082 2.1762695 -4.9804077 6.0233917l-3.26062 -1.8443604l8.334595 -14.792847zm45.904053 13.839569l0.58306885 -3.3083954q3.8259277 0.16706848 6.022583 -0.14363098q2.1966553 -0.31069946 4.7026978 -1.2966614l3.0005493 0.5292053l-4.482788 25.436127q5.000122 -2.894287 9.176086 -3.9030457q4.191345 -1.0060577 7.7304688 -0.38186646q5.154785 0.90914917 7.951538 4.5756226q2.7659302 3.6610565 1.9848633 8.092758l-3.3274536 18.880905q-0.4963379 2.815979 -0.20196533 3.7563934q0.29437256 0.9404297 1.2521362 1.537735q0.9758301 0.58462524 4.591919 1.2223816l-0.56951904 3.2314453l-19.849854 -3.500885l0.569458 -3.2314453l1.461853 0.2578125q2.800476 0.493927 3.7562256 0.20236206q0.9711304 -0.28883362 1.5501709 -1.2338715q0.5944824 -0.94233704 1.1585693 -4.1430054l2.3105469 -13.110458q0.76745605 -4.354767 0.69018555 -5.7170105q-0.19146729 -2.3343658 -1.7713013 -3.9933472q-1.5616455 -1.6716461 -4.3621826 -2.1655731q-3.154419 -0.5563507 -6.8778687 0.40530396q-3.7207031 0.9462738 -7.961487 3.4032898l-3.3980103 19.28099q-0.3796997 2.1542969 -0.1251831 2.9607544q0.25726318 0.79107666 1.0719604 1.2996979q0.8328247 0.49594116 3.494873 0.96543884l1.569519 0.2768097l-0.56951904 3.2314453l-19.926819 -3.51445l0.569458 -3.2314606l1.2002563 0.21168518q2.800537 0.493927 4.199707 0.02671814q0.7548218 -0.23179626 1.2388306 -1.1777191q0.48406982 -0.9459381 1.2840576 -5.485367l6.8882446 -39.08516l-6.5858765 -1.1615295zm77.893555 54.95822l2.109436 2.4346313q-3.388977 2.8452454 -6.3827515 4.348114q-2.975708 1.4901733 -5.4682617 1.8597412q-2.4799194 0.3876648 -5.6343994 -0.16868591q-5.647217 -0.99598694 -9.210388 -4.0043488q-4.0701904 -3.4626923 -5.750183 -8.153915q-1.6619263 -4.703903 -0.63952637 -10.505127q1.071167 -6.0782013 4.1694336 -9.974304q3.1135864 -3.8933716 7.7664185 -5.6272125q4.6554565 -1.7492371 10.195007 -0.7722473q4.1084595 0.7246094 6.9119873 2.5518188q2.8189087 1.8299255 4.468689 4.8022766q1.6679077 2.959671 2.0460815 6.485199q0.19415283 2.04924 -0.27941895 5.186554l-27.205078 -4.798126q-0.43859863 1.8583221 -0.60131836 2.7815857q-0.85424805 4.847183 0.16851807 8.946503q1.0255127 4.083954 3.4960938 6.360153q2.470581 2.2761993 6.0097046 2.9003906q3.0005493 0.5292053 6.0478516 -0.37716675q3.062683 -0.903656 7.7821045 -4.275833zm-2.1849976 -16.410187q0.05444336 -3.639618 -0.7089844 -5.5195312q-0.76348877 -1.8799286 -2.526001 -3.2220764q-1.7625732 -1.3421631 -4.1937866 -1.7709503q-2.4158325 -0.42608643 -4.715576 0.19961548q-2.2843628 0.6284027 -4.011902 2.1483307q-1.7121582 1.522644 -3.3397217 4.7261505l19.495972 3.4384613zm43.97827 -21.326279l16.972412 2.993393l8.35614 45.31195l22.911316 -39.797363l16.387695 2.890274l-0.5776367 3.2776184l-1.3848877 -0.24424744q-2.4927979 -0.4396515 -3.4458008 -0.16348267q-0.9349365 0.26348877 -1.6298218 1.2357025q-0.67681885 0.9595337 -1.1052856 3.390808l-6.2373657 35.392075q-0.588501 3.3391724 -0.36468506 4.4099426q0.23919678 1.0734863 1.0856323 1.7622223q0.84643555 0.6887207 3.385376 1.1365204l1.3848267 0.24424744l-0.569458 3.2314453l-20.496155 -3.6148682l0.569458 -3.2314606l1.461853 0.25782776q1.9541626 0.34465027 2.9162598 0.19702148q0.9621582 -0.14764404 1.6716309 -0.75234985q0.72753906 -0.6174011 0.9400635 -1.3732147q0.47668457 -1.5342865 0.63397217 -2.4267883l6.961426 -39.500626l-25.972107 44.921738l-3.8007202 -0.67033386l-9.325745 -50.43318l-6.7038574 38.038788q-0.50982666 2.8929138 -0.19641113 3.9953613q0.3287964 1.1051483 1.2902222 1.8617554q0.9641113 0.7412262 3.687683 1.2215729l1.2310181 0.21711731l-0.56951904 3.2314453l-18.926636 -3.3380585l0.56951904 -3.2314453l1.0770874 0.18997192q2.7390137 0.48306274 4.008789 0.1199646q1.272522 -0.378479 1.9520264 -1.3533936q0.69488525 -0.97221375 1.2426758 -4.080551l6.1777344 -35.053543q0.5152588 -2.923706 0.2498169 -3.9383545q-0.25 -1.0119324 -1.1534424 -1.6472473q-0.8880615 -0.63261414 -3.3962402 -1.0749664l-1.8464966 -0.32566833l0.5776367 -3.2776184zm96.848206 62.18843l2.109436 2.4346466q-3.388977 2.84523 -6.3827515 4.3480988q-2.975708 1.4901886 -5.4682617 1.8597412q-2.4799194 0.3876648 -5.6343994 -0.16868591q-5.647217 -0.99598694 -9.210388 -4.0043488q-4.0701904 -3.4626923 -5.750183 -8.153915q-1.6619263 -4.703903 -0.63952637 -10.505127q1.071167 -6.0782013 4.1694336 -9.974289q3.1135864 -3.8933868 7.7664185 -5.627228q4.6554565 -1.7492371 10.195007 -0.7722473q4.1084595 0.7246094 6.9119873 2.5518188q2.8189087 1.8299255 4.468689 4.8022766q1.6679077 2.959671 2.0460815 6.485199q0.19415283 2.0492554 -0.27941895 5.186554l-27.205078 -4.798126q-0.43859863 1.8583221 -0.60131836 2.781601q-0.85424805 4.847168 0.1685791 8.946503q1.0254517 4.0839386 3.4960327 6.360138q2.470581 2.2761993 6.0097046 2.9003906q3.0005493 0.5292053 6.0478516 -0.37716675q3.062683 -0.903656 7.7821045 -4.275833zm-2.1849976 -16.410172q0.05444336 -3.639618 -0.7089844 -5.5195465q-0.76342773 -1.8799286 -2.526001 -3.2220764q-1.7625732 -1.3421631 -4.1937866 -1.7709503q-2.4158325 -0.42608643 -4.715576 0.19961548q-2.2843628 0.62841797 -4.011902 2.148346q-1.7120972 1.5226288 -3.3397217 4.7261353l19.495972 3.4384766zm27.449707 -20.671524l2.7236328 0.48036194l-2.3051147 13.079681l11.432922 2.0164032l-0.6779785 3.8469696l-11.432922 -2.0164185l-4.0895996 23.204895q-0.5206909 2.9544678 -0.22259521 4.323944q0.3008423 1.354065 1.4035034 2.38945q1.1053467 1.019989 2.644104 1.2913818q3.6622314 0.64590454 8.653381 -1.8374481l-0.65631104 3.7238617q-5.6364746 2.5440674 -10.79126 1.6349182q-2.923645 -0.5156555 -5.062805 -2.2415466q-2.1391602 -1.7259064 -2.6890259 -3.6474915q-0.5498047 -1.9215698 0.2230835 -6.3071136l4.1708984 -23.666534l-6.739746 -1.1886749l0.56951904 -3.2314453q3.3588257 -0.15332031 5.61499 -1.3420105q2.2562256 -1.1887054 3.9211426 -3.4336395q1.664856 -2.2449493 3.3101807 -7.079544z" fill-rule="nonzero"/><path fill="#000000" d="m1017.6325 347.4905l-1018.8976 -179.52757l-66.3307 376.8504l1018.89764 179.52753z" fill-rule="evenodd"/><path stroke="#000000" stroke-width="1.0" stroke-linejoin="round" stroke-linecap="butt" d="m1017.6325 347.4905l-1018.8976 -179.52757l-66.3307 376.8504l1018.89764 179.52753z" fill-rule="evenodd"/><path fill="#000000" fill-opacity="0.0" d="m931.37537 373.79593l-887.9055 -156.59843l-29.291338 166.20473l887.9055 156.59845z" fill-rule="evenodd"/><path fill="#ffffff" d="m120.795906 241.68329l20.542336 3.6230164l-0.5776367 3.2776184l-1.5849152 -0.27954102q-2.231186 -0.3935089 -3.339859 0.04560852q-1.1086578 0.43911743 -1.7709656 1.4963989q-0.6595917 1.0419006 -1.2372284 4.319504l-6.093643 34.576538q-0.46102905 2.6159363 -0.1638794 3.8106995q0.31523895 1.1820984 1.1336136 1.8500061q0.82108307 0.65252686 3.1599808 1.065033l1.5849152 0.27954102l-0.5695038 3.2314453l-20.542328 -3.6230164l0.5695038 -3.2314453l1.692627 0.29852295q2.261963 0.39892578 3.292801 0.041290283q1.0462341 -0.35491943 1.6325455 -1.2510681q0.6044159 -0.908844 1.1006927 -3.724823l6.2373734 -35.392075q0.5206833 -2.954483 0.26882172 -4.0460663q-0.23376465 -1.1042633 -1.1037216 -1.7495422q-0.8545685 -0.64256287 -3.1165314 -1.0415039l-1.692627 -0.29852295l0.5776291 -3.2776184zm49.633064 25.809814l2.69281 0.47491455l1.3875885 12.382355l-3.6655884 0.54345703q-1.244751 -5.090454 -4.5220184 -8.460876q-3.2745361 -3.3858643 -7.121414 -4.064331q-2.9544067 -0.5210571 -5.055832 0.59973145q-2.10141 1.1208191 -2.4322662 2.9981384q-0.3118744 1.7695923 0.8017578 3.282898q1.0774231 1.5386353 5.3727264 3.993866l7.0245667 3.9837646q5.9563904 3.382843 7.808914 6.3750916q1.8009491 3.014862 1.2178802 6.323242q-0.4935608 2.8005981 -2.6445007 5.1026306q-2.15094 2.3020325 -5.6381226 3.27359q-3.4717865 0.9743042 -7.626419 0.24157715q-6.4627533 -1.1398315 -10.428146 -5.647064l-1.3036804 2.6259766l-2.723587 -0.4803772l-2.5979614 -13.436707l3.7524261 -0.7661438q2.5166779 6.15567 5.233551 9.0147705q3.7616425 4.042938 8.808746 4.933075q3.339096 0.5889282 5.8079376 -0.8161316q2.4715424 -1.4204407 2.8566284 -3.6055298q0.32000732 -1.8157654 -0.755661 -3.5444946q-1.127243 -1.7060852 -4.8069916 -3.78302l-8.324478 -4.8000793q-5.3580475 -3.086914 -7.1553345 -5.9424744q-1.797287 -2.8555908 -1.2332001 -6.056244q0.6833954 -3.8777466 4.8409576 -6.222534q4.1575623 -2.344757 9.774002 -1.354187q2.9236298 0.515625 5.098877 1.6767273q2.175232 1.1610718 4.1026917 3.2780151l1.4531403 -2.1236267zm45.31743 -10.919891l2.6928253 0.47491455l0.06738281 1.8682251l32.929276 5.807678l0.6250458 -1.7460938l2.800537 0.493927l2.8828888 16.77127l-3.6791382 0.62039185q-1.396286 -6.7513733 -4.3775177 -9.91095q-2.9631348 -3.1722412 -8.302612 -4.1139526q-2.231186 -0.39352417 -2.69458 -0.28485107q-0.44529724 0.09597778 -0.7058716 0.4942627q-0.24249268 0.38562012 -0.6411438 2.647644l-6.56279 37.238617q-0.469162 2.6621094 -0.33952332 3.6369324q0.12965393 0.9748535 0.5787201 1.5776367q0.45178223 0.58740234 1.3524628 0.9683533q0.90338135 0.3656006 4.1727753 0.9898071l-0.5694885 3.2314758l-20.696213 -3.650177l0.5695038 -3.2314453q3.4241638 0.55630493 4.2260895 0.50735474q1.4218903 -0.14587402 2.1810608 -1.1226196q0.77456665 -0.973999 1.2843933 -3.8669434l6.703827 -38.038788q0.3118744 -1.7695923 0.19502258 -2.1868591q-0.10147095 -0.41455078 -0.5405121 -0.7141113q-0.4390564 -0.29956055 -1.9470215 -0.56552124q-4.1854095 -0.7381592 -6.8987885 -0.1060791q-2.7133942 0.6320801 -5.400177 2.8237305q-2.684082 2.176239 -4.9803925 6.0233765l-3.2606354 -1.8443604l8.334595 -14.792847zm45.904053 13.839569l0.58303833 -3.3083801q3.8259583 0.16705322 6.022583 -0.14364624q2.1966553 -0.31069946 4.7026978 -1.2966614l3.0005493 0.5292053l-4.4827576 25.436127q5.0000916 -2.894287 9.176056 -3.9030457q4.191345 -1.006073 7.7304688 -0.38186646q5.1548157 0.90914917 7.951538 4.5756226q2.7659302 3.6610413 1.9848938 8.092743l-3.3275146 18.88092q-0.49627686 2.815979 -0.2019043 3.7564087q0.29437256 0.94039917 1.2521362 1.5377197q0.9758301 0.58462524 4.5918884 1.2223816l-0.5694885 3.2314453l-19.849884 -3.500885l0.5694885 -3.2314453l1.4618225 0.2578125q2.8005066 0.493927 3.756256 0.20236206q0.9711304 -0.28884888 1.5501709 -1.2338867q0.5944519 -0.9423218 1.1585388 -4.1430054l2.3105469 -13.110443q0.76745605 -4.354767 0.69021606 -5.7170105q-0.1914978 -2.334381 -1.7713013 -3.9933472q-1.561676 -1.6716614 -4.362213 -2.1655884q-3.1544495 -0.55633545 -6.877838 0.40533447q-3.7207336 0.94625854 -7.9615173 3.4032593l-3.3980103 19.281006q-0.3796692 2.1542969 -0.12515259 2.9607544q0.25723267 0.79107666 1.0719299 1.2996826q0.8328247 0.49594116 3.4948425 0.9654541l1.5695496 0.27679443l-0.56951904 3.2314758l-19.926819 -3.5144653l0.5695038 -3.2314453l1.2002258 0.21166992q2.8005219 0.493927 4.1997223 0.026733398q0.7548218 -0.23181152 1.2388306 -1.1777344q0.4840393 -0.94595337 1.2840271 -5.4853516l6.8882446 -39.085175l-6.585846 -1.1615295zm77.893524 54.95822l2.1094666 2.4346313q-3.3890076 2.8452454 -6.382782 4.348114q-2.9756775 1.4901733 -5.4682617 1.8597412q-2.4799194 0.3876648 -5.634369 -0.16870117q-5.647217 -0.9959717 -9.210419 -4.0043335q-4.07016 -3.462677 -5.750183 -8.153931q-1.6619263 -4.703888 -0.6395569 -10.505127q1.071228 -6.078186 4.169464 -9.974274q3.113617 -3.893402 7.766388 -5.627228q4.6555176 -1.7492371 10.195038 -0.7722473q4.1084595 0.7246094 6.9119873 2.5518188q2.8189392 1.8299255 4.4687195 4.8022766q1.6678772 2.9596558 2.0460815 6.485199q0.19415283 2.0492554 -0.27941895 5.186554l-27.20514 -4.798126q-0.4385376 1.8583069 -0.6012573 2.7815857q-0.85424805 4.847168 0.16851807 8.946503q1.0255127 4.083954 3.4960632 6.360138q2.470581 2.2762146 6.0097046 2.9003906q3.0005493 0.5292053 6.0478516 -0.37716675q3.0627136 -0.903656 7.7821045 -4.275818zm-2.184967 -16.410187q0.05441284 -3.639618 -0.7090454 -5.5195312q-0.76342773 -1.8799133 -2.5259705 -3.2220764q-1.7625427 -1.3421631 -4.1937866 -1.7709656q-2.4158325 -0.42608643 -4.715576 0.19961548q-2.2843628 0.62841797 -4.011902 2.148346q-1.7121277 1.522644 -3.3396912 4.7261353l19.495972 3.4384766zm43.97827 -21.326294l16.972412 2.9934082l8.35614 45.31195l22.911285 -39.797363l16.387695 2.8902588l-0.5776367 3.2776184l-1.3848572 -0.24423218q-2.4927979 -0.43966675 -3.4458008 -0.16348267q-0.9349365 0.26348877 -1.6298523 1.2356873q-0.67678833 0.9595337 -1.1052856 3.390808l-6.2373657 35.39209q-0.58847046 3.3391724 -0.36468506 4.4099426q0.23919678 1.0734863 1.0856323 1.762207q0.84643555 0.6887512 3.385376 1.1365356l1.3848572 0.24423218l-0.5694885 3.2314453l-20.496155 -3.6148682l0.5694885 -3.2314453l1.4618225 0.2578125q1.9541931 0.34466553 2.9162903 0.19702148q0.9621277 -0.14764404 1.6716003 -0.75234985q0.7275696 -0.6173706 0.940094 -1.3731995q0.47665405 -1.5343018 0.63394165 -2.4267883l6.9614563 -39.50064l-25.972137 44.921753l-3.8007202 -0.6703186l-9.325745 -50.433197l-6.703827 38.038788q-0.50982666 2.8929138 -0.19641113 3.9953613q0.3287964 1.1051636 1.2901917 1.8617554q0.9641113 0.74121094 3.687683 1.2215881l1.2310181 0.21710205l-0.56951904 3.2314453l-18.926636 -3.3380737l0.56951904 -3.2314453l1.0771179 0.18997192q2.7389832 0.48306274 4.0087585 0.11999512q1.272522 -0.37850952 1.9520264 -1.3534241q0.6949158 -0.9721985 1.2427063 -4.080536l6.1777344 -35.05356q0.5152588 -2.9236755 0.2498169 -3.938324q-0.25003052 -1.0119324 -1.1534729 -1.6472778q-0.8880615 -0.6325989 -3.3962097 -1.0749512l-1.8464966 -0.3256836l0.5776367 -3.2776184zm96.848206 62.188446l2.109436 2.4346313q-3.3890076 2.8452454 -6.382782 4.348114q-2.9756775 1.4901733 -5.4682617 1.8597412q-2.4799194 0.3876648 -5.634369 -0.16867065q-5.647217 -0.9960022 -9.210419 -4.004364q-4.07016 -3.462677 -5.750183 -8.153931q-1.6619263 -4.703888 -0.63952637 -10.505096q1.0711975 -6.0782166 4.1694336 -9.974304q3.113617 -3.8933716 7.7664185 -5.627228q4.655487 -1.7492371 10.195007 -0.7722473q4.1084595 0.7246094 6.9119873 2.5518188q2.8189392 1.8299255 4.4687195 4.8022766q1.6678772 2.9596863 2.0460815 6.485199q0.19415283 2.0492554 -0.27941895 5.186554l-27.205109 -4.798126q-0.43856812 1.8583374 -0.60128784 2.7815857q-0.85424805 4.8471985 0.16854858 8.946503q1.0254822 4.083954 3.4960327 6.360138q2.470581 2.2762146 6.0097046 2.9003906q3.0005493 0.5292053 6.047882 -0.37716675q3.062683 -0.903656 7.7821045 -4.275818zm-2.1849976 -16.410187q0.05441284 -3.639618 -0.7090149 -5.5195312q-0.76342773 -1.8799133 -2.526001 -3.2220764q-1.7625427 -1.3421631 -4.193756 -1.7709656q-2.415863 -0.4260559 -4.7156067 0.19961548q-2.2843628 0.62841797 -4.0118713 2.148346q-1.7121277 1.522644 -3.3397217 4.7261353l19.495972 3.4384766zm27.449707 -20.671509l2.7236023 0.48034668l-2.3051453 13.079681l11.432922 2.0164185l-0.6779785 3.8469543l-11.432892 -2.016388l-4.089569 23.204895q-0.5206909 2.9544678 -0.22259521 4.3239136q0.30081177 1.3540955 1.4034729 2.3894653q1.1053467 1.019989 2.644104 1.2913818q3.6622314 0.64590454 8.653381 -1.8374634l-0.6562805 3.723877q-5.6364746 2.5440674 -10.79129 1.6349182q-2.923645 -0.5156555 -5.062805 -2.2415466q-2.1391602 -1.7259216 -2.6889954 -3.6474915q-0.5498352 -1.9215698 0.22305298 -6.307129l4.170929 -23.666504l-6.739746 -1.1886902l0.56951904 -3.2314453q3.3588257 -0.15332031 5.61499 -1.3420105q2.256195 -1.1886902 3.9210815 -3.4336548q1.664917 -2.244934 3.3102417 -7.079529zm39.802795 20.506195l17.71106 3.1236572l-0.56951904 3.2314453l-1.2310181 -0.21710205q-2.2773438 -0.40164185 -3.0629272 -0.17529297q-1.2489624 0.3350525 -1.4523926 1.4891357q-0.18981934 1.0771484 0.26690674 3.6169434l4.263611 22.44101l11.214783 -18.172089l-0.37512207 -1.9225159q-0.64971924 -3.3354187 -2.010437 -4.7970886q-0.9107666 -0.95391846 -2.920227 -1.4352722l0.56951904 -3.2314453l17.618713 3.1073914l-0.56951904 3.2314453l-1.5079956 -0.2659607q-2.1080933 -0.37179565 -2.7859497 -0.12643433q-1.1856079 0.4255371 -1.4215088 1.7642822q-0.20343018 1.1540833 0.23608398 3.3417969l4.26355 22.440979l11.5321045 -19.972443q0.92193604 -1.6302795 0.9934082 -1.8556519q0.19628906 -0.3937683 0.27764893 -0.8554077q0.18981934 -1.0771484 -0.5452881 -1.8573303q-0.7324219 -0.7955322 -3.0097656 -1.1972046l-1.4156494 -0.2496643l0.56951904 -3.2314453l14.925842 2.6324463l-0.569458 3.2314453q-1.675415 -0.216156 -2.8112793 0.1071167q-1.1177368 0.3105774 -1.8769531 1.0175781q-0.75653076 0.6916199 -2.3607178 3.3121948l-16.236328 26.409454l-4.616272 -0.81414795l-4.9888306 -23.727142l-12.676025 20.611633l-4.5700684 -0.8060303l-6.352539 -30.393433q-0.5944214 -2.929016 -1.1322632 -3.9282532q-0.53515625 -1.0146179 -1.4639893 -1.6861572q-0.9260254 -0.68688965 -2.4801636 -0.96099854l0.569458 -3.2314453zm83.92462 13.84967q5.647217 0.9960022 9.371582 4.080353q3.7269897 3.0690002 5.317505 7.998291q1.5932007 4.91391 0.5762329 10.684357q-1.0169678 5.770447 -4.2581787 9.847595q-3.2385254 4.061737 -7.8723145 5.687866q-4.618408 1.6288452 -10.465698 0.5975647q-9.309448 -1.6418762 -12.964844 -8.268127q-3.65271 -6.641632 -2.2696533 -14.489441q1.0115967 -5.7396545 4.208435 -9.7453q3.2149658 -4.01828 8.016235 -5.694214q4.8012085 -1.6759338 10.340698 -0.6989441zm-0.96673584 3.684967q-4.385437 -0.7734375 -8.042297 2.1514893q-4.606262 3.630127 -6.057129 11.86264q-1.3966064 7.9247437 1.1487427 12.657501q2.3035278 4.214142 7.3814087 5.109741q3.2775269 0.57803345 6.13562 -0.69488525q2.8607178 -1.2883301 5.097412 -4.796936q2.2547607 -3.5212708 3.1550903 -8.630035q0.88134766 -5.001068 -0.111572266 -9.269653q-0.75201416 -3.3851929 -3.0768433 -5.5880737q-2.3220825 -2.2182922 -5.630432 -2.8017883zm24.445496 7.087982l0.55596924 -3.1545105q2.8565674 0.26583862 5.166382 -0.056640625q2.3278198 -0.33514404 5.413147 -1.4569397l2.8928223 0.5101929l-1.2827148 7.278473q3.3147583 -2.8742065 7.2752686 -4.1907043q3.9631958 -1.3318787 6.856018 -0.8216858q2.8466797 0.5020752 4.2545166 2.146576q1.4259033 1.6318665 1.0869141 3.5553284q-0.24407959 1.3849182 -1.5390625 2.2512817q-1.2796631 0.8690796 -2.8184204 0.59768677q-0.69244385 -0.12213135 -1.1676636 -0.3963318q-0.45715332 -0.28689575 -1.2945557 -1.1168213q-1.8793945 -1.7594299 -3.295044 -2.0090942q-1.9234619 -0.3392334 -4.5163574 0.8694153q-3.289734 1.5617065 -5.304138 3.269043l-3.12677 17.742188q-0.40679932 2.308197 -0.30706787 3.1825562q0.11785889 0.86169434 0.5814209 1.5622253q0.4790039 0.7032471 1.2764893 1.1295166q0.80023193 0.41082764 2.9083252 0.7826538l1.2771606 0.22525024l-0.56951904 3.2314453l-19.896057 -3.5090332l0.56951904 -3.2314453l1.6618042 0.29309082q2.3389282 0.4125061 3.1534424 0.11190796q1.1005249 -0.39294434 1.7565308 -1.3244019q0.65875244 -0.9468689 1.1251831 -3.5935974l4.000061 -22.697083l-6.6936035 -1.180542zm37.44763 -12.403076l0.5559082 -3.1545105q4.9918213 0.48376465 10.771423 -1.4321594l2.9544067 0.52108765l-6.7661743 38.3927l16.105408 -8.741791q3.8598633 -2.0958252 4.0144043 -2.9729614q0.09490967 -0.5385742 -0.5894165 -0.976593q-0.4263916 -0.28146362 -2.2267456 -0.5989685l-2.0465088 -0.3609619l0.56951904 -3.2314453l19.511353 3.4411926l-0.56951904 3.2314453q-3.2775269 -0.57803345 -5.366455 -0.24835205q-2.0735474 0.33239746 -4.987671 1.833435l-12.65564 6.541931l10.620728 16.708008q1.5111694 2.4084473 2.546814 3.463745q1.0510864 1.0580139 2.178955 1.5901489q1.1433105 0.53482056 3.6741333 1.0287781l-0.56951904 3.2314453l-20.465393 -3.609436l0.56951904 -3.2314758l1.5848999 0.27954102q2.3388672 0.4125061 3.0194702 0.15176392q0.680603 -0.2607727 0.7890625 -0.87628174q0.10845947 -0.61550903 -0.8421631 -1.9731445q-0.15209961 -0.21722412 -0.33410645 -0.5349121l-8.158081 -13.576416l-7.126953 3.709137l-0.8867798 5.03183q-0.49627686 2.815979 -0.23809814 3.7817383q0.27624512 0.9530945 1.1027222 1.5748596q0.8265381 0.6217346 3.3962402 1.0749512l1.4310303 0.2524109l-0.569458 3.2314453l-19.819153 -3.4954834l0.56951904 -3.2314453q3.3626099 0.5454712 4.1726685 0.4503479q1.4119263 -0.17938232 2.2018433 -1.1506653q0.789978 -0.9713135 1.3323364 -4.048889l7.208252 -40.90094l-6.662781 -1.1751099zm59.84442 5.049103q1.8464966 0.3256836 2.9266357 1.848938q1.0828247 1.5078735 0.7574463 3.3544006q-0.32543945 1.8465576 -1.8638916 2.9238586q-1.5384521 1.0772705 -3.3849487 0.75161743q-1.8464966 -0.3256836 -2.9239502 -1.8643188q-1.0773926 -1.5386353 -0.75201416 -3.3851929q0.32543945 -1.8465271 1.8584595 -2.8930664q1.5357666 -1.0618896 3.3822632 -0.7362366zm-14.012573 22.073578l0.56140137 -3.1852722q3.2683716 0.17977905 5.5600586 -0.13000488q2.291687 -0.30981445 5.3272095 -1.3293152l2.815918 0.49664307l-5.437378 30.85263q-0.284729 1.6157532 0.03314209 2.5127258q0.32061768 0.8815613 1.0710449 1.3947144q0.76586914 0.51586914 2.9662476 0.90393066l1.800354 0.3175354l-0.56951904 3.2314453l-19.695984 -3.473755l0.56951904 -3.2314453l1.5848999 0.27954102q2.5697021 0.45321655 3.5281372 0.14627075q0.9738159 -0.30426025 1.4923096 -1.0854492q0.5184326 -0.78118896 1.0689697 -3.9049377l3.9865112 -22.620148l-6.662842 -1.1751099zm23.973755 4.2282104l0.56951904 -3.2314453q3.4838257 0.21777344 5.2713623 -0.022277832q1.7875366 -0.24005127 5.299988 -1.4451599l2.7697754 0.48849487l-1.288147 7.3092346q5.8291016 -3.3668518 9.682861 -4.2579346q3.8691406 -0.8883362 7.562134 -0.23699951q3.154419 0.55633545 5.3831787 2.044159q2.2440796 1.4905701 3.4474487 3.5750122q1.2060547 2.0690613 1.291687 4.464081q0.05822754 1.4699402 -0.45159912 4.362854l-2.9830933 16.926666q-0.5342407 3.0314026 -0.24255371 3.9872131q0.29437256 0.9404297 1.180603 1.4933777q0.9016113 0.55566406 4.67157 1.220581l-0.56951904 3.2314453l-19.819153 -3.4954834l0.56951904 -3.2314453l1.0771484 0.18997192q2.7697144 0.48849487 3.8566895 0.17248535q1.0897217 -0.33139038 1.7041016 -1.2067261q0.6170654 -0.8907471 1.1404419 -3.8605957l2.494995 -14.15683q0.7728882 -4.385559 0.34796143 -6.2057495q-0.4095459 -1.8175049 -1.9331055 -3.1651306q-1.520935 -1.3630066 -4.13678 -1.8243713q-3.1236572 -0.5509033 -6.944824 0.42523193q-3.8184814 0.9607849 -7.677307 3.5010376l-3.1240845 17.726807q-0.5288696 3.0006409 -0.2588501 4.079529q0.2699585 1.0789185 1.1806641 1.7631226q0.6246338 0.50683594 3.625183 1.0360413l1.1079102 0.19537354l-0.56951904 3.2314758l-19.80371 -3.4927673l0.569458 -3.2314453l0.9540405 0.16824341q2.8466797 0.5020752 3.961731 0.20687866q1.1331177 -0.30786133 1.7809448 -1.4628906q0.33929443 -0.5748291 0.9765625 -4.190979l3.864502 -21.927673l-6.539734 -1.1534119zm82.14703 11.917816q2.0841064 -1.7426147 4.0371704 -2.3818665q1.9711914 -0.6519165 3.4638062 -0.38867188q1.3848267 0.2442627 2.177063 1.2407532q0.80755615 0.99920654 0.5987549 2.1840515q-0.21697998 1.2310486 -1.2124023 1.9281006q-0.9954834 0.6970825 -2.3034058 0.46640015q-0.5385742 -0.09500122 -1.4293213 -0.44247437q-1.0282593 -0.46694946 -1.7669067 -0.597229q-0.9539795 -0.16824341 -2.1576538 0.53970337q1.8779297 3.2981873 1.1918335 7.1913147q-0.9356079 5.3088074 -6.0841064 8.414917q-5.145752 3.0906982 -11.9470215 1.8911743q-3.7699585 -0.6648865 -7.3067627 -2.922882q-2.8589478 1.367981 -3.270691 1.7237549q-0.65515137 0.5666809 -0.7825928 1.289917q-0.19799805 1.1233215 0.8286133 2.0500793q1.2909546 1.2272644 5.4855957 2.6334229l10.816895 3.6213074q3.5926514 1.2206726 7.077759 3.2315674q3.5032349 1.99823 4.8008423 4.4483337q1.2948608 2.4654846 0.7659912 5.4661255q-0.89489746 5.078003 -6.1223145 7.2816772q-6.656494 2.840149 -18.381775 0.7721863q-6.1550293 -1.0855713 -9.771362 -3.071991q-3.616394 -1.9864502 -5.319519 -4.746063q-1.2322998 -2.0102234 -0.90686035 -3.856781q0.42034912 -2.3851013 2.3758545 -4.388397q1.9681396 -1.985199 8.355713 -5.190094q-3.4841309 -1.5664673 -4.852051 -3.0770264q-1.7238159 -1.9223633 -1.3712158 -3.9227905q0.17626953 -1.0002136 0.6973877 -1.7967834q0.5239258 -0.8119812 1.491333 -1.5298767q0.9827881 -0.71517944 3.4543457 -1.8658752q1.5557251 -0.7251892 2.206421 -1.0863953q-2.447937 -2.4943542 -3.4423828 -5.224182q-0.9790039 -2.7271423 -0.45562744 -5.696991q0.8596802 -4.87796 5.2750244 -7.875366q5.3565674 -3.6564636 13.127258 -2.2859497q3.4621582 0.6106262 5.8773193 1.9409485q2.4332275 1.3176575 4.7789917 4.031952zm-11.626709 -2.447235q-3.7699585 -0.6648865 -6.8685303 1.612793q-3.0958862 2.2622986 -3.8063965 6.293915q-0.47460938 2.692871 0.32513428 5.086914q0.8178711 2.3813782 2.7524414 4.007721q1.9345703 1.6263733 4.319641 2.046997q2.3850708 0.4206543 4.7770996 -0.4584961q2.3947144 -0.89453125 3.9438477 -2.8425598q1.5645142 -1.945343 2.0390625 -4.638214q0.7457886 -4.231659 -1.3601685 -7.3161926q-2.0905762 -3.0818481 -6.1221313 -3.7928772zm-12.009033 32.311523q-4.2489624 2.5032043 -5.809021 4.2430725q-1.5473022 1.7579651 -1.8673096 3.5737305q-0.2711792 1.5387878 0.67681885 3.1815186q0.96069336 1.6608582 3.7216187 3.099762q2.7608643 1.4389038 7.192505 2.22052q5.2317505 0.922699 9.17157 0.44348145q3.9525146 -0.46115112 5.880127 -1.9457703q1.4442749 -1.1732483 1.777832 -3.0659485q0.284729 -1.6157227 -0.5020752 -2.9127197q-0.7895508 -1.2816162 -3.3513184 -2.59021q-2.5644531 -1.2931824 -4.850952 -2.0931091l-12.039795 -4.1543274z" fill-rule="nonzero"/><path fill="#ffffff" d="m325.23395 392.27744l6.585846 1.16156l1.0169678 -5.770447q1.0494995 -5.9551086 5.6558228 -9.045776q4.6090393 -3.1060486 10.964081 -1.9852295q4.2315674 0.7463379 6.273987 2.9311523q2.0578308 2.1875305 1.6917114 4.2648926q-0.24407959 1.3849182 -1.3508606 2.1734009q-1.1040344 0.7731323 -2.5350952 0.52072144q-1.2617798 -0.22253418 -2.1036682 -0.84698486q-0.8418884 -0.6244812 -2.439911 -2.8102417q-1.70755 -2.2844238 -3.5540466 -2.6101074q-1.2617798 -0.22253418 -2.4310303 0.38043213q-1.1539001 0.60565186 -1.9763184 2.0313416q-0.8224182 1.4257202 -1.3783875 4.5802307l-1.2935486 7.3399963l7.2321167 1.2755127l-0.6915283 3.9239197l-7.232147 -1.2755127l-4.4013977 24.974487q-0.45291138 2.5697632 -0.22277832 3.5147095q0.2328186 0.92959595 0.93981934 1.4191895q0.7097168 0.47424316 3.5102234 0.96817017l1.5849304 0.2795105l-0.56951904 3.2314453l-19.819092 -3.495453l0.5694885 -3.2314453l1.2002258 0.21166992q3.0313416 0.53463745 3.9300537 0.29647827q0.8987427 -0.23812866 1.4045105 -1.0374451q0.52389526 -0.8119812 1.035492 -3.8949585l4.2983704 -24.38977l-6.5858765 -1.1615295l0.69155884 -3.9239197zm45.024994 6.989044q5.647217 0.9959717 9.3715515 4.080353q3.7270203 3.0689697 5.317505 7.998291q1.5931702 4.9138794 0.5762024 10.684326q-1.0169373 5.770447 -4.258148 9.847595q-3.2384949 4.061737 -7.8723145 5.687866q-4.618408 1.6288452 -10.465668 0.5975952q-9.309448 -1.6419067 -12.964874 -8.268127q-3.6526794 -6.641632 -2.2696228 -14.489441q1.0115356 -5.739685 4.2084045 -9.7453q3.2149658 -4.0183105 8.016205 -5.6942444q4.8012695 -1.6759338 10.340759 -0.6989136zm-0.96673584 3.684967q-4.385437 -0.773468 -8.042358 2.1514587q-4.606201 3.630127 -6.057068 11.86264q-1.396637 7.9247437 1.1486816 12.657532q2.3035583 4.214142 7.381439 5.1097107q3.2775269 0.57806396 6.1355896 -0.69488525q2.8607788 -1.2883301 5.0974426 -4.7969055q2.2547302 -3.5212708 3.1550903 -8.630066q0.8813782 -5.0010376 -0.111572266 -9.269623q-0.75201416 -3.3851929 -3.0768433 -5.5881042q-2.3220825 -2.2182922 -5.6304016 -2.8017578zm24.445496 7.087982l0.5559387 -3.1545105q2.856598 0.2658081 5.1663513 -0.056640625q2.3278809 -0.33517456 5.413147 -1.4569702l2.8928528 0.5102234l-1.2827148 7.2784424q3.3147888 -2.874176 7.2752686 -4.190674q3.9631653 -1.3319092 6.856018 -0.8216858q2.8467102 0.5020447 4.2545166 2.146576q1.4259033 1.6318359 1.0869446 3.5553284q-0.24407959 1.3848877 -1.539093 2.2512512q-1.2796631 0.8690796 -2.81839 0.5977173q-0.69244385 -0.12213135 -1.1676941 -0.3963623q-0.45715332 -0.28686523 -1.2945557 -1.1168213q-1.8793945 -1.7593994 -3.2950745 -2.0090942q-1.9234314 -0.3392334 -4.5162964 0.8694153q-3.289734 1.5617371 -5.304138 3.269043l-3.126831 17.742218q-0.4067688 2.3081665 -0.30700684 3.1825256q0.11782837 0.86169434 0.5814209 1.5622559q0.47894287 0.7032471 1.2764587 1.1294861q0.8002014 0.41085815 2.9082947 0.7826538l1.2771606 0.22525024l-0.5694885 3.2314453l-19.896057 -3.5090332l0.5694885 -3.2314453l1.6618652 0.29309082q2.3388977 0.4125061 3.1534424 0.11193848q1.1005249 -0.39297485 1.7565308 -1.3244324q0.6586914 -0.9468689 1.1251526 -3.593567l4.000061 -22.697083l-6.693573 -1.180542zm59.85199 10.587738l0.57492065 -3.2622375q2.941681 0.23321533 5.2125244 -0.04852295q2.27359 -0.29711914 5.3226624 -1.3935547l2.8466797 0.5020447l-1.138977 6.462921q4.9956055 -2.6888123 7.6664124 -3.4394531q4.089966 -1.1508789 7.5059814 -0.5484009q2.3542786 0.41522217 4.446289 1.6885376q2.0947266 1.2579651 3.2391052 2.7766724q1.1471252 1.5033569 1.7160645 3.8566895q4.676056 -2.8562317 8.362396 -3.6975098q3.7017212 -0.8385315 7.2408447 -0.21435547q3.385254 0.5970459 5.736267 2.4713745q2.3536987 1.8589478 3.1489258 4.1887207q0.7979126 2.314392 0.07922363 6.3921814l-3.145813 17.849915q-0.49353027 2.8005981 -0.45178223 3.2839355q0.05444336 0.7711792 0.5687256 1.5441284q0.53240967 0.7602844 1.2837524 1.1783752q0.7694092 0.40542603 2.9544678 0.790802l1.230957 0.21710205l-0.569458 3.2314453l-19.342133 -3.411316l0.56951904 -3.2314758q3.3164368 0.537323 4.361786 0.2774353q1.063446 -0.2725525 1.7167358 -1.1886292q0.66867065 -0.9133606 1.1839294 -3.8370667l2.9912415 -16.972809q0.5694885 -3.2314453 0.20172119 -4.565613q-0.35238647 -1.3314209 -1.7012634 -2.4102173q-1.3307495 -1.0914917 -3.5157776 -1.4768677q-2.7389832 -0.48306274 -5.997162 0.44958496q-4.353302 1.2947998 -7.100769 3.3805542l-3.2352905 18.357727q-0.46646118 2.646698 -0.36669922 3.5210876q0.11514282 0.8770752 0.6022339 1.5341492q0.50250244 0.65982056 1.2492981 1.0136414q0.7621765 0.35656738 3.793518 0.89120483l-0.5694885 3.2314453l-18.957428 -3.3435059l0.56951904 -3.2314453l1.0771179 0.18997192q2.261963 0.3989563 3.2955017 0.025909424q1.0489502 -0.3703003 1.785492 -1.3986511q0.5392456 -0.8092346 1.0274048 -3.579071l2.8881836 -16.388062q0.6372986 -3.61615 0.29031372 -4.978363q-0.32885742 -1.3748779 -1.7591858 -2.5315247q-1.4122314 -1.1693115 -3.5203247 -1.5411072q-2.5081787 -0.4423828 -5.2640686 0.34088135q-4.087219 1.1354675 -7.7569275 3.5028076l-3.4848022 19.773407q-0.31185913 1.7696228 0.018707275 2.6846924q0.34597778 0.91778564 1.2874451 1.6074219q0.9595642 0.6769409 2.7598877 0.9944763l1.4310608 0.25238037l-0.56951904 3.2314453l-19.357483 -3.414032l0.5694885 -3.2314758l1.0463562 0.18457031q2.6466675 0.46676636 3.5689087 0.18518066q1.3313293 -0.3522339 2.0950012 -1.5344543q0.42977905 -0.6381836 0.93688965 -3.5157166l3.9675293 -22.51242l-6.616638 -1.1669617zm103.240265 40.54785l2.109436 2.4346313q-3.388977 2.8452454 -6.3827515 4.348114q-2.975708 1.4901733 -5.4683228 1.8597412q-2.4799194 0.3876648 -5.6343384 -0.16870117q-5.647217 -0.9959717 -9.210388 -4.0043335q-4.0701904 -3.462677 -5.750183 -8.153931q-1.6619263 -4.703888 -0.6395874 -10.505127q1.071228 -6.078186 4.1694336 -9.974274q3.1136475 -3.893402 7.7664185 -5.627228q4.6555176 -1.7492371 10.195007 -0.7722473q4.1085205 0.7246094 6.9120483 2.5518188q2.8189087 1.8299255 4.468689 4.8022766q1.6679077 2.9596863 2.0460815 6.485199q0.19415283 2.0492554 -0.27941895 5.186554l-27.20514 -4.798126q-0.4385376 1.8583069 -0.6012573 2.7815857q-0.85424805 4.847168 0.16851807 8.946503q1.0255127 4.083954 3.4960938 6.360138q2.47052 2.2762146 6.0096436 2.9003906q3.0006104 0.5292053 6.0479126 -0.37716675q3.062683 -0.903656 7.7821045 -4.275818zm-2.1849976 -16.410187q0.054382324 -3.639618 -0.7090454 -5.5195312q-0.76342773 -1.8799133 -2.52594 -3.2220764q-1.7625732 -1.3421631 -4.1937866 -1.7709656q-2.4158325 -0.4260559 -4.715576 0.19961548q-2.2843628 0.62841797 -4.011902 2.148346q-1.7121582 1.522644 -3.3397217 4.7261353l19.495972 3.4384766zm21.565796 16.766174l2.4054565 -13.649017q7.634033 1.4257202 11.624512 0.7491455q3.993225 -0.69192505 6.4536743 -3.1297607q2.4785156 -2.4505005 3.088745 -5.912781q0.5559082 -3.1545105 -0.6613159 -6.510681q-1.1990967 -3.3688354 -3.7936401 -5.5717163q-2.5791626 -2.2001648 -5.8566895 -2.7782288q-2.6159058 -0.46133423 -4.682129 0.18966675q-2.0480957 0.6383362 -4.109497 2.702301q-2.027893 2.054016 -2.8152466 2.470459q-1.5385132 0.80755615 -2.8772583 0.57144165q-0.9232178 -0.1628418 -1.7470093 -0.7999878q-0.82110596 -0.65252686 -1.0511475 -1.3277283q-0.34509277 -1.0128479 -0.18237305 -1.9360962q0.5342407 -3.031433 4.4801636 -4.7154236q5.488098 -2.3322144 12.412476 -1.1109924q6.2319336 1.0991211 10.589844 4.2793884q4.3606567 3.164856 6.1446533 7.446045q1.7840576 4.281189 0.9298096 9.128357q-1.3342896 7.5708313 -8.0911255 10.710602q-6.7541504 3.1243591 -16.76416 1.4065247l-1.4970093 8.49408l-4.0007324 -0.7055969zm1.2626953 4.2685547q2.0003662 0.35281372 3.151123 2.0154724q1.1688843 1.6499634 0.8163452 3.6503906q-0.3526001 2.0003967 -2.033081 3.1636963q-1.6624756 1.1506348 -3.63208 0.8032532q-2.0003662 -0.35281372 -3.1846313 -2.0054932q-1.1661377 -1.6653442 -0.81359863 -3.6657715q0.35253906 -2.0004272 1.9995728 -3.1537476q1.6651611 -1.1660156 3.69635 -0.8078003z" fill-rule="nonzero"/></g></svg>