<svg xmlns:xlink="http://www.w3.org/1999/xlink" xmlns="http://www.w3.org/2000/svg" version="1.1" viewBox="0.0 0.0 960.0 540.0" fill="none" stroke="none" stroke-linecap="square" stroke-miterlimit="10"><clipPath id="g6415e4c532_1_0.0"><path d="m0 0l960.0 0l0 540.0l-960.0 0l0 -540.0z" clip-rule="nonzero"/></clipPath><g clip-path="url(#g6415e4c532_1_0.0)"><path fill="#ffffff" d="m0 0l960.0 0l0 540.0l-960.0 0z" fill-rule="evenodd"/><path fill="#cccccc" d="m1042.189 384.0l-591.0236 -196.06299l10.204712 -30.740158l591.0236 196.063z" fill-rule="evenodd"/><path stroke="#cccccc" stroke-width="1.0" stroke-linejoin="round" stroke-linecap="butt" d="m1042.189 384.0l-591.0236 -196.06299l10.204712 -30.740158l591.0236 196.063z" fill-rule="evenodd"/><path fill="#000000" d="m837.6352 178.83464l0 -179.46457l27.968506 0l0 179.46457z" fill-rule="evenodd"/><path stroke="#000000" stroke-width="1.0" stroke-linejoin="round" stroke-linecap="butt" d="m837.6352 178.83464l0 -179.46457l27.968506 0l0 179.46457z" fill-rule="evenodd"/><path xmlns="http://www.w3.org/2000/svg" fill="#ffffff" d="m428.17322 123.5958l192.75592 0l0 55.244087l-192.75592 0z" fill-rule="evenodd" style="animation-name:alternateDown;animation-duration:1s;animation-iteration-count:infinite;animation-timing-function:ease-in-out;"/><path xmlns="http://www.w3.org/2000/svg" fill="#000000" fill-opacity="0.0" d="m24.0 0l384.0 0l0 384.0l-384.0 0z" fill-rule="evenodd" style="animation-name:alternateDown;animation-duration:1s;animation-iteration-count:infinite;animation-timing-function:ease-in-out;"/><path xmlns="http://www.w3.org/2000/svg" fill="#000000" d="m123.56641 166.29999l2.84375 0l4.453125 16.796875l-3.515625 1.21875q-3.515625 -7.96875 -8.09375 -11.359375q-4.5625 -3.40625 -10.34375 -3.40625q-8.3125 0 -13.9375 6.921875q-5.625 6.90625 -5.625 16.46875q0 6.875 2.859375 12.625q2.875 5.734375 7.671875 8.75q4.8125 3.0 10.203125 3.0q3.484375 0 6.625 -1.265625q3.140625 -1.265625 5.09375 -3.03125q1.453125 -1.328125 1.953125 -2.921875q0.515625 -1.609375 0.46875 -4.453125l0 -2.578125q0 -3.09375 -0.71875 -4.375q-0.71875 -1.296875 -2.046875 -1.84375q-1.015625 -0.421875 -5.46875 -0.421875l0 -3.28125l22.109375 0l0 3.28125l-1.796875 0q-2.3125 0 -3.15625 0.453125q-0.828125 0.4375 -1.21875 1.375q-0.390625 0.9375 -0.390625 3.671875l0 18.875l-3.875 0l-2.0625 -4.765625q-3.28125 2.375 -7.0 3.703125q-5.546875 2.0 -10.96875 2.0q-10.984375 0 -18.8125 -8.0625q-7.828125 -8.078125 -7.828125 -20.109375q0 -11.953125 7.921875 -20.078125q7.9375 -8.125 18.984375 -8.125q2.78125 0 5.46875 0.546875q2.703125 0.546875 4.921875 1.5625q1.6875 0.75 3.90625 2.421875l1.375 -3.59375zm20.03125 22.390625l0 -3.203125q2.859375 -0.234375 5.078125 -0.953125q2.234375 -0.734375 5.078125 -2.375l2.9375 0l0 7.390625q2.765625 -3.40625 6.4375 -5.390625q3.671875 -2.0 6.609375 -2.0q2.890625 0 4.5625 1.375q1.6875 1.359375 1.6875 3.3125q0 1.40625 -1.125 2.484375q-1.109375 1.078125 -2.671875 1.078125q-0.703125 0 -1.21875 -0.1875q-0.5 -0.203125 -1.46875 -0.875q-2.15625 -1.40625 -3.59375 -1.40625q-1.953125 0 -4.296875 1.640625q-2.96875 2.109375 -4.65625 4.140625l0 18.015625q0 2.34375 0.25 3.1875q0.265625 0.828125 0.84375 1.4375q0.59375 0.609375 1.453125 0.890625q0.859375 0.265625 3.0 0.265625l1.296875 0l0 3.28125l-20.203125 0l0 -3.28125l1.6875 0q2.375 0 3.125 -0.4375q1.015625 -0.578125 1.5 -1.609375q0.484375 -1.046875 0.484375 -3.734375l0 -23.046875l-6.796875 0zm63.367188 9.484375l0 -4.25q0 -4.34375 -2.421875 -6.1875q-2.421875 -1.859375 -6.84375 -1.859375q-2.1875 0 -3.828125 0.53125q-1.640625 0.515625 -2.640625 1.4375q-0.984375 0.921875 -1.453125 2.09375q-0.203125 0.421875 -0.9375 3.3125q-0.90625 3.515625 -3.640625 3.515625q-1.5625 0 -2.515625 -1.03125q-0.953125 -1.03125 -0.953125 -2.796875q0 -2.578125 1.90625 -5.046875q1.921875 -2.484375 5.84375 -4.109375q3.921875 -1.625 9.28125 -1.625q5.0 0 8.546875 1.546875q3.5625 1.546875 5.234375 4.4375q1.171875 1.984375 1.171875 7.265625l0 15.03125q0 3.203125 0.203125 4.1875q0.421875 1.671875 1.5 2.515625q1.078125 0.84375 2.796875 0.84375q1.796875 0 4.296875 -0.859375l0 3.390625q-3.25 0.953125 -5.828125 0.953125q-2.765625 0 -4.671875 -0.78125q-1.890625 -0.796875 -3.109375 -2.296875q-1.203125 -1.5 -1.546875 -3.578125q-4.6875 3.671875 -8.484375 5.171875q-3.78125 1.484375 -7.65625 1.484375q-5.390625 0 -8.75 -2.9375q-3.359375 -2.9375 -3.359375 -6.875q0 -2.390625 1.234375 -4.53125q1.234375 -2.15625 3.75 -3.796875q2.515625 -1.640625 7.90625 -2.890625q5.390625 -1.25 14.96875 -2.265625zm0 3.40625q-9.0625 1.328125 -11.21875 1.828125q-4.25 0.984375 -6.09375 2.15625q-1.828125 1.171875 -2.609375 2.515625q-0.78125 1.34375 -0.78125 2.875q0 1.515625 0.875 2.953125q0.875 1.421875 2.46875 2.25q1.609375 0.8125 3.40625 0.8125q2.546875 0 5.75 -1.203125q3.203125 -1.21875 8.203125 -4.734375l0 -9.453125zm42.65625 -31.484375l0 -3.328125q2.65625 -0.234375 4.859375 -0.90625q2.203125 -0.6875 5.53125 -2.375l2.921875 0l0 47.390625q0 3.28125 0.15625 3.984375q0.390625 1.484375 1.328125 2.078125q0.9375 0.578125 3.640625 0.578125l1.671875 0l0 3.28125l-13.546875 0.625l0 -6.21875q-3.90625 3.5625 -7.328125 5.046875q-3.421875 1.484375 -6.859375 1.484375q-7.0625 0 -11.734375 -5.6875q-4.671875 -5.6875 -4.671875 -13.6875q0 -5.703125 2.484375 -10.453125q2.484375 -4.75 6.546875 -7.25q4.0625 -2.5 8.90625 -2.5q3.703125 0 6.859375 1.296875q3.171875 1.28125 5.796875 3.859375l0 -17.21875l-6.5625 0zm6.5625 41.25l0 -14.765625q0 -3.171875 -1.203125 -5.171875q-1.1875 -2.015625 -3.90625 -3.5q-2.703125 -1.484375 -5.5625 -1.484375q-3.390625 0 -6.265625 1.859375q-2.875 1.84375 -4.5 5.34375q-1.609375 3.5 -1.609375 8.453125q0 4.6875 1.5 8.109375q1.5 3.421875 4.03125 5.203125q2.546875 1.765625 5.203125 1.765625q2.625 0 5.9375 -1.5q3.328125 -1.5 6.375 -4.3125zm52.140625 -0.625l2.5 2.03125q-2.84375 3.390625 -5.53125 5.390625q-2.671875 1.984375 -5.0625 2.78125q-2.375 0.8125 -5.578125 0.8125q-5.734375 0 -9.765625 -2.34375q-4.609375 -2.703125 -7.078125 -7.03125q-2.453125 -4.34375 -2.453125 -10.234375q0 -6.171875 2.375 -10.546875q2.390625 -4.375 6.671875 -6.890625q4.28125 -2.53125 9.90625 -2.53125q4.171875 0 7.25 1.3125q3.09375 1.3125 5.234375 3.953125q2.15625 2.625 3.140625 6.03125q0.546875 1.984375 0.625 5.15625l-27.625 0q-0.109375 1.90625 -0.109375 2.84375q0 4.921875 1.71875 8.78125q1.71875 3.84375 4.546875 5.65625q2.828125 1.8125 6.421875 1.8125q3.046875 0 5.890625 -1.421875q2.859375 -1.421875 6.921875 -5.5625zm-5.0 -15.78125q-0.578125 -3.59375 -1.65625 -5.3125q-1.078125 -1.71875 -3.046875 -2.734375q-1.96875 -1.015625 -4.4375 -1.015625q-2.453125 0 -4.609375 1.015625q-2.140625 1.015625 -3.578125 2.8125q-1.421875 1.796875 -2.46875 5.234375l19.796875 0zm39.617188 -11.84375l2.734375 0l3.515625 11.953125l-3.515625 1.171875q-2.109375 -4.796875 -5.921875 -7.546875q-3.8125 -2.765625 -7.71875 -2.765625q-3.0 0 -4.875 1.46875q-1.875 1.46875 -1.875 3.375q0 1.796875 1.359375 3.09375q1.328125 1.328125 5.984375 3.0l7.609375 2.703125q6.453125 2.296875 8.796875 4.921875q2.296875 2.65625 2.296875 6.015625q0 2.84375 -1.71875 5.484375q-1.71875 2.640625 -4.984375 4.203125q-3.25 1.5625 -7.46875 1.5625q-6.5625 0 -11.25 -3.75l-0.828125 2.8125l-2.765625 0l-4.890625 -12.78125l3.5625 -1.40625q3.546875 5.625 6.71875 7.96875q4.40625 3.328125 9.53125 3.328125q3.390625 0 5.578125 -1.8125q2.1875 -1.828125 2.1875 -4.046875q0 -1.84375 -1.359375 -3.359375q-1.40625 -1.484375 -5.390625 -2.890625l-9.03125 -3.28125q-5.8125 -2.109375 -8.078125 -4.609375q-2.265625 -2.5 -2.265625 -5.75q0 -3.9375 3.6875 -6.96875q3.6875 -3.03125 9.390625 -3.03125q2.96875 0 5.3125 0.765625q2.34375 0.765625 4.609375 2.515625l1.0625 -2.34375z" fill-rule="nonzero" style="animation-name:alternateDown;animation-duration:1s;animation-iteration-count:infinite;animation-timing-function:ease-in-out;"/><path xmlns="http://www.w3.org/2000/svg" fill="#000000" d="m408.02887 178.83464l457.57483 0l0 27.968506l-457.57483 0z" fill-rule="evenodd" style="animation-name:alternateDown;animation-duration:1s;animation-iteration-count:infinite;animation-timing-function:ease-in-out;"/><path xmlns="http://www.w3.org/2000/svg" stroke="#000000" stroke-width="1.0" stroke-linejoin="round" stroke-linecap="butt" d="m408.02887 178.83464l457.57483 0l0 27.968506l-457.57483 0z" fill-rule="evenodd" style="animation-name:alternateDown;animation-duration:1s;animation-iteration-count:infinite;animation-timing-function:ease-in-out;"/><path xmlns="http://www.w3.org/2000/svg" fill="#000000" d="m24.45407 192.8189l0 0c0 -106.038666 85.96133 -192.0 192.0 -192.0l0 0c50.92157 0 99.75751 20.228514 135.7645 56.235497c36.00699 36.006985 56.235504 84.84294 56.235504 135.7645l0 0c0 106.03868 -85.961334 192.00002 -192.0 192.00002l0 0c-106.03867 0 -192.0 -85.961334 -192.0 -192.00002zm33.83808 0l0 0c0 87.35042 70.81151 158.16191 158.16193 158.16191c87.3504 0 158.16193 -70.81149 158.16193 -158.16191l0 0c0 -87.35041 -70.81152 -158.16191 -158.16193 -158.16191l0 0c-87.35042 0 -158.16193 70.81151 -158.16193 158.16191z" fill-rule="evenodd" style="animation-name:alternateDown;animation-duration:1s;animation-iteration-count:infinite;animation-timing-function:ease-in-out;"/><path xmlns="http://www.w3.org/2000/svg" stroke="#000000" stroke-width="1.0" stroke-linejoin="round" stroke-linecap="butt" d="m24.45407 192.8189l0 0c0 -106.038666 85.96133 -192.0 192.0 -192.0l0 0c50.92157 0 99.75751 20.228514 135.7645 56.235497c36.00699 36.006985 56.235504 84.84294 56.235504 135.7645l0 0c0 106.03868 -85.961334 192.00002 -192.0 192.00002l0 0c-106.03867 0 -192.0 -85.961334 -192.0 -192.00002zm33.83808 0l0 0c0 87.35042 70.81151 158.16191 158.16193 158.16191c87.3504 0 158.16193 -70.81149 158.16193 -158.16191l0 0c0 -87.35041 -70.81152 -158.16191 -158.16193 -158.16191l0 0c-87.35042 0 -158.16193 70.81151 -158.16193 158.16191z" fill-rule="evenodd" style="animation-name:alternateDown;animation-duration:1s;animation-iteration-count:infinite;animation-timing-function:ease-in-out;"/><path fill="#000000" fill-opacity="0.0" d="m449.20996 270.0l375.2126 0l0 245.7323l-375.2126 0z" fill-rule="evenodd"/><path fill="#000000" d="m465.4287 285.69626l1.9375 0l5.078125 13.65625q0.375 1.03125 0.75 1.375q0.375 0.328125 1.03125 0.328125l0.25 0l0 0.984375l-5.828125 0l0 -0.984375q0.28125 -0.03125 0.5625 -0.03125q0.5625 0 0.734375 -0.109375q0.34375 -0.21875 0.34375 -0.5625q0 -0.25 -0.328125 -1.203125l-1.078125 -3.171875l-5.9375 0l-1.265625 3.546875q-0.203125 0.546875 -0.203125 0.75q0 0.234375 0.125 0.421875q0.125 0.171875 0.328125 0.265625q0.21875 0.078125 0.6875 0.078125q0.3125 0 0.515625 0.015625l0 0.984375l-4.890625 0l0 -0.984375q0.6875 0 0.984375 -0.125q0.296875 -0.140625 0.515625 -0.4375q0.234375 -0.3125 0.59375 -1.265625l5.09375 -13.53125zm-2.046875 9.140625l5.046875 0l-2.53125 -7.03125l-2.515625 7.03125zm19.324219 -8.015625l0 -0.984375q0.796875 -0.078125 1.453125 -0.28125q0.671875 -0.203125 1.65625 -0.703125l0.890625 0l0 14.203125q0 0.984375 0.046875 1.203125q0.109375 0.4375 0.390625 0.625q0.28125 0.171875 1.09375 0.171875l0.5 0l0 0.984375l-4.0625 0.1875l0 -1.859375q-1.171875 1.0625 -2.203125 1.515625q-1.015625 0.4375 -2.046875 0.4375q-2.125 0 -3.53125 -1.703125q-1.390625 -1.703125 -1.390625 -4.109375q0 -1.71875 0.734375 -3.140625q0.75 -1.421875 1.96875 -2.171875q1.21875 -0.75 2.671875 -0.75q1.109375 0 2.0625 0.390625q0.953125 0.390625 1.734375 1.15625l0 -5.171875l-1.96875 0zm1.96875 12.375l0 -4.421875q0 -0.953125 -0.359375 -1.546875q-0.359375 -0.609375 -1.171875 -1.046875q-0.8125 -0.453125 -1.671875 -0.453125q-1.015625 0 -1.875 0.5625q-0.859375 0.546875 -1.359375 1.59375q-0.484375 1.046875 -0.484375 2.546875q0 1.40625 0.453125 2.4375q0.453125 1.015625 1.21875 1.546875q0.765625 0.53125 1.5625 0.53125q0.78125 0 1.765625 -0.453125q1.0 -0.453125 1.921875 -1.296875zm4.7421875 -8.46875l5.375 0l0 0.984375l-0.328125 0q-0.671875 0 -0.84375 0.046875q-0.234375 0.078125 -0.359375 0.234375q-0.109375 0.140625 -0.109375 0.359375q0 0.28125 0.265625 0.9375l2.671875 6.671875l2.59375 -6.671875q0.234375 -0.640625 0.234375 -0.9375q0 -0.296875 -0.234375 -0.46875q-0.234375 -0.171875 -0.84375 -0.171875l-0.5625 0l0 -0.984375l4.640625 0l0 0.984375q-0.484375 0.015625 -0.8125 0.15625q-0.3125 0.140625 -0.5 0.359375q-0.1875 0.21875 -0.546875 1.0625l-3.734375 8.75l-1.40625 0l-3.765625 -8.9375q-0.234375 -0.5625 -0.515625 -0.90625q-0.1875 -0.21875 -0.5 -0.34375q-0.3125 -0.140625 -0.71875 -0.140625l0 -0.984375zm16.246094 -5.5625q0.5625 0 0.953125 0.390625q0.40625 0.390625 0.40625 0.953125q0 0.5625 -0.40625 0.96875q-0.390625 0.390625 -0.953125 0.390625q-0.5625 0 -0.96875 -0.390625q-0.390625 -0.40625 -0.390625 -0.96875q0 -0.5625 0.390625 -0.953125q0.40625 -0.390625 0.96875 -0.390625zm-2.984375 7.25l0 -0.96875q0.96875 -0.125 1.625 -0.328125q0.671875 -0.21875 1.515625 -0.671875l0.84375 0l0 9.40625q0 0.484375 0.140625 0.734375q0.140625 0.25 0.390625 0.359375q0.265625 0.109375 0.921875 0.109375l0.5625 0l0 0.984375l-6.0 0l0 -0.984375l0.46875 0q0.796875 0 1.0625 -0.140625q0.265625 -0.140625 0.375 -0.390625q0.109375 -0.265625 0.109375 -1.21875l0 -6.890625l-2.015625 0zm15.2109375 -1.6875l0.828125 0l1.046875 3.59375l-1.046875 0.34375q-0.640625 -1.4375 -1.78125 -2.265625q-1.140625 -0.828125 -2.3125 -0.828125q-0.90625 0 -1.46875 0.4375q-0.5625 0.4375 -0.5625 1.015625q0 0.546875 0.421875 0.921875q0.390625 0.40625 1.78125 0.90625l2.296875 0.8125q1.921875 0.6875 2.625 1.46875q0.703125 0.796875 0.703125 1.8125q0 0.859375 -0.515625 1.65625q-0.515625 0.78125 -1.5 1.25q-0.984375 0.46875 -2.25 0.46875q-1.96875 0 -3.375 -1.125l-0.234375 0.84375l-0.84375 0l-1.453125 -3.828125l1.0625 -0.421875q1.0625 1.6875 2.015625 2.390625q1.328125 0.984375 2.859375 0.984375q1.015625 0 1.671875 -0.53125q0.65625 -0.546875 0.65625 -1.21875q0 -0.546875 -0.40625 -1.015625q-0.421875 -0.4375 -1.625 -0.859375l-2.703125 -0.984375q-1.75 -0.640625 -2.421875 -1.390625q-0.6875 -0.75 -0.6875 -1.71875q0 -1.1875 1.109375 -2.09375q1.109375 -0.90625 2.828125 -0.90625q0.890625 0 1.59375 0.234375q0.703125 0.21875 1.375 0.75l0.3125 -0.703125zm10.464844 -0.28125q1.734375 0 2.984375 0.71875q1.265625 0.71875 1.984375 2.09375q0.734375 1.359375 0.734375 3.125q0 1.75 -0.75 3.125q-0.734375 1.375 -2.03125 2.09375q-1.28125 0.71875 -3.0625 0.71875q-2.828125 0 -4.25 -1.765625q-1.421875 -1.78125 -1.421875 -4.171875q0 -1.734375 0.734375 -3.09375q0.734375 -1.359375 2.0625 -2.09375q1.328125 -0.75 3.015625 -0.75zm-0.09375 1.140625q-1.328125 0 -2.25 1.046875q-1.171875 1.3125 -1.171875 3.828125q0 2.40625 0.984375 3.671875q0.90625 1.125 2.453125 1.125q1.0 0 1.78125 -0.515625q0.78125 -0.53125 1.25 -1.6875q0.484375 -1.15625 0.484375 -2.71875q0 -1.515625 -0.515625 -2.71875q-0.390625 -0.96875 -1.203125 -1.5q-0.796875 -0.53125 -1.8125 -0.53125zm7.5976562 0.8125l0 -0.953125q0.859375 -0.078125 1.515625 -0.28125q0.671875 -0.21875 1.53125 -0.71875l0.875 0l0 2.21875q0.84375 -1.015625 1.9375 -1.609375q1.109375 -0.609375 1.984375 -0.609375q0.859375 0 1.359375 0.421875q0.515625 0.40625 0.515625 0.984375q0 0.421875 -0.34375 0.75q-0.328125 0.3125 -0.796875 0.3125q-0.203125 0 -0.359375 -0.046875q-0.15625 -0.0625 -0.453125 -0.265625q-0.640625 -0.421875 -1.078125 -0.421875q-0.578125 0 -1.28125 0.5q-0.890625 0.625 -1.390625 1.234375l0 5.40625q0 0.703125 0.0625 0.953125q0.078125 0.25 0.25 0.4375q0.1875 0.171875 0.4375 0.265625q0.265625 0.078125 0.90625 0.078125l0.390625 0l0 0.984375l-6.0625 0l0 -0.984375l0.5 0q0.71875 0 0.9375 -0.125q0.3125 -0.1875 0.453125 -0.484375q0.15625 -0.3125 0.15625 -1.125l0 -6.921875l-2.046875 0zm9.589844 -1.671875l5.6875 0l0 0.984375l-0.46875 0q-0.65625 0 -0.796875 0.03125q-0.140625 0.046875 -0.25 0.203125q-0.109375 0.140625 -0.109375 0.359375q0 0.328125 0.3125 1.078125l2.71875 6.375l2.53125 -6.09375q0.4375 -1.078125 0.4375 -1.4375q0 -0.265625 -0.203125 -0.390625q-0.1875 -0.125 -0.890625 -0.125l-0.5625 0l0 -0.984375l4.796875 0l0 0.984375l-0.28125 0q-0.703125 0 -0.921875 0.09375q-0.203125 0.09375 -0.40625 0.390625q-0.1875 0.28125 -0.625 1.296875l-4.296875 10.03125q-0.46875 1.078125 -1.046875 1.984375q-0.578125 0.921875 -1.453125 1.421875q-0.859375 0.515625 -1.90625 0.515625q-1.203125 0 -1.921875 -0.546875q-0.625 -0.46875 -0.625 -1.171875q0 -0.4375 0.265625 -0.734375q0.265625 -0.28125 0.640625 -0.28125q0.28125 0 0.515625 0.125q0.15625 0.046875 0.640625 0.484375q0.578125 0.515625 0.8125 0.625q0.25 0.125 0.484375 0.125q0.484375 0 0.953125 -0.328125q0.46875 -0.328125 0.796875 -0.921875q0.46875 -0.859375 0.765625 -1.609375l0.484375 -1.171875l-3.859375 -8.65625q-0.421875 -0.921875 -0.703125 -1.234375q-0.28125 -0.3125 -0.5625 -0.390625q-0.140625 -0.046875 -0.953125 -0.046875l0 -0.984375zm22.074219 4.625l6.96875 0l0 1.453125l-6.96875 0l0 -1.453125zm25.242188 -2.390625q1.390625 0.53125 2.109375 1.0q1.0625 0.6875 1.59375 1.609375q0.546875 0.90625 0.546875 1.984375q0 1.9375 -1.671875 3.359375q-1.65625 1.40625 -4.46875 1.40625q-3.0 0 -4.6875 -1.59375q-1.359375 -1.28125 -1.359375 -2.890625q0 -1.3125 0.921875 -2.34375q1.09375 -1.21875 3.140625 -1.921875q-1.59375 -0.75 -2.296875 -1.515625q-0.90625 -1.015625 -0.90625 -2.453125q0 -1.765625 1.34375 -2.859375q1.640625 -1.328125 4.09375 -1.328125q2.25 0 3.640625 1.15625q1.390625 1.140625 1.390625 2.640625q0 0.734375 -0.34375 1.40625q-0.34375 0.671875 -1.0625 1.25q-0.71875 0.578125 -1.984375 1.09375zm-1.0625 -0.421875q1.328125 -1.015625 1.71875 -1.40625q0.40625 -0.40625 0.625 -0.90625q0.21875 -0.515625 0.21875 -1.0q0 -0.6875 -0.40625 -1.3125q-0.40625 -0.625 -1.203125 -1.015625q-0.796875 -0.390625 -1.78125 -0.390625q-1.453125 0 -2.421875 0.8125q-0.953125 0.796875 -0.953125 1.84375q0 0.84375 0.59375 1.515625q0.609375 0.671875 2.234375 1.3125l1.375 0.546875zm-1.65625 1.5q-1.65625 0.71875 -2.609375 1.875q-0.75 0.921875 -0.75 1.90625q0 1.328125 1.171875 2.375q1.1875 1.03125 3.0625 1.03125q1.921875 0 3.1875 -1.1875q1.046875 -0.953125 1.046875 -2.0625q0 -0.859375 -0.6875 -1.640625q-0.6875 -0.796875 -2.546875 -1.546875l-1.875 -0.75zm11.0390625 -2.1875l-1.140625 0.140625q-0.09375 -0.828125 -0.09375 -1.359375q0 -1.375 0.75 -2.609375q0.75 -1.234375 2.09375 -1.921875q1.34375 -0.6875 3.078125 -0.6875q1.671875 0 2.9375 0.65625q1.265625 0.640625 1.9375 1.78125q0.6875 1.125 0.6875 2.578125q0 1.21875 -0.453125 2.28125q-0.4375 1.046875 -1.40625 2.109375q-0.71875 0.796875 -2.9375 2.4375q-2.796875 2.078125 -4.28125 3.015625l6.09375 0q1.078125 0 1.40625 -0.1875q0.453125 -0.265625 0.625 -1.203125l0.109375 -0.671875l0.984375 0l-0.796875 4.421875l-0.75 0l-0.125 -0.59375l-10.234375 0l0 -0.984375l1.875 -1.421875q2.125 -1.578125 3.125 -2.421875q1.890625 -1.59375 2.84375 -2.71875q0.953125 -1.140625 1.3125 -2.046875q0.359375 -0.90625 0.359375 -1.90625q0 -1.65625 -1.0625 -2.703125q-1.0625 -1.0625 -2.765625 -1.0625q-1.21875 0 -2.171875 0.53125q-0.953125 0.53125 -1.515625 1.484375q-0.546875 0.9375 -0.546875 2.046875q0 0.40625 0.0625 1.015625zm15.9921875 7.453125q0.625 0 1.046875 0.4375q0.4375 0.421875 0.4375 1.03125q0 0.609375 -0.4375 1.046875q-0.4375 0.421875 -1.046875 0.421875q-0.59375 0 -1.03125 -0.421875q-0.421875 -0.4375 -0.421875 -1.046875q0 -0.609375 0.421875 -1.03125q0.421875 -0.4375 1.03125 -0.4375zm7.0664062 -13.609375l7.296875 0q0.671875 0 0.8125 -0.078125q0.1875 -0.109375 0.234375 -0.5l0.84375 0l0 2.46875l-8.09375 0l-0.203125 4.125q0.515625 -0.140625 1.28125 -0.234375q1.0 -0.109375 1.78125 -0.109375q1.953125 0 3.40625 0.703125q1.453125 0.703125 2.203125 1.921875q0.765625 1.21875 0.765625 2.734375q0 2.34375 -1.765625 3.96875q-1.75 1.625 -4.46875 1.625q-1.5625 0 -2.84375 -0.5625q-1.265625 -0.5625 -1.984375 -1.484375q-0.71875 -0.921875 -0.71875 -1.609375q0 -0.453125 0.296875 -0.78125q0.3125 -0.34375 0.796875 -0.34375q0.5 0 0.875 0.40625q0.203125 0.21875 0.5 1.03125q0.390625 1.15625 1.1875 1.6875q0.765625 0.546875 1.9375 0.546875q1.171875 0 2.078125 -0.5q0.921875 -0.515625 1.453125 -1.46875q0.53125 -0.953125 0.53125 -2.125q0 -1.234375 -0.578125 -2.1875q-0.5625 -0.96875 -1.625 -1.484375q-1.0625 -0.53125 -2.578125 -0.53125q-0.9375 0 -2.0 0.203125q-1.046875 0.1875 -1.8125 0.5l0.390625 -7.921875zm16.335938 -0.28125q1.734375 0 2.71875 1.109375q1.078125 1.234375 1.078125 3.34375q0 2.015625 -1.078125 3.1875q-1.078125 1.15625 -2.8125 1.15625q-1.78125 0 -2.859375 -1.375q-0.875 -1.140625 -0.875 -3.03125q0 -2.09375 1.046875 -3.234375q1.0625 -1.15625 2.78125 -1.15625zm-0.015625 0.75q-0.625 0 -1.09375 0.359375q-0.46875 0.34375 -0.796875 1.265625q-0.3125 0.90625 -0.3125 2.125q0 1.1875 0.28125 1.984375q0.296875 0.796875 0.796875 1.1875q0.5 0.375 1.09375 0.375q0.59375 0 1.109375 -0.375q0.515625 -0.390625 0.8125 -1.21875q0.3125 -0.828125 0.3125 -2.0625q0 -1.640625 -0.5625 -2.640625q-0.546875 -1.0 -1.640625 -1.0zm12.296875 -0.75l-10.890625 16.90625l-1.40625 0l10.875 -16.90625l1.421875 0zm0.015625 8.109375q1.71875 0 2.703125 1.125q1.078125 1.21875 1.078125 3.34375q0 2.0 -1.078125 3.171875q-1.078125 1.15625 -2.8125 1.15625q-1.78125 0 -2.84375 -1.359375q-0.875 -1.140625 -0.875 -3.046875q0 -2.09375 1.046875 -3.234375q1.046875 -1.15625 2.78125 -1.15625zm-0.03125 0.75q-0.609375 0 -1.09375 0.359375q-0.46875 0.34375 -0.796875 1.265625q-0.3125 0.90625 -0.3125 2.125q0 1.1875 0.296875 2.0q0.296875 0.796875 0.796875 1.171875q0.5 0.375 1.078125 0.375q0.609375 0 1.109375 -0.375q0.515625 -0.390625 0.8125 -1.21875q0.3125 -0.828125 0.3125 -2.046875q0 -1.65625 -0.5625 -2.65625q-0.546875 -1.0 -1.640625 -1.0zm18.117188 -9.3125l0.734375 0.734375q-0.625 0.65625 -1.046875 1.640625q-0.625 1.453125 -0.90625 3.4375q-0.265625 1.96875 -0.265625 5.5625q0 3.703125 0.25 5.5625q0.265625 1.859375 0.875 3.296875q0.421875 1.0 1.09375 1.71875l-0.734375 0.671875q-1.140625 -1.015625 -2.0 -2.546875q-0.84375 -1.53125 -1.265625 -3.546875q-0.40625 -2.015625 -0.40625 -5.390625q0 -3.359375 0.453125 -5.375q0.46875 -2.03125 1.515625 -3.78125q0.78125 -1.328125 1.703125 -1.984375zm2.3828125 0.734375l7.78125 0q2.84375 0 3.890625 0.25q1.5625 0.375 2.46875 1.359375q0.90625 0.984375 0.90625 2.375q0 0.984375 -0.484375 1.78125q-0.46875 0.796875 -1.390625 1.359375q-0.578125 0.359375 -1.59375 0.609375q1.28125 0.234375 1.953125 0.5625q1.0 0.5 1.578125 1.421875q0.59375 0.90625 0.59375 2.046875q0 1.125 -0.578125 2.078125q-0.5625 0.9375 -1.609375 1.546875q-1.046875 0.609375 -2.453125 0.78125q-1.390625 0.171875 -2.859375 0.171875l-8.203125 0l0 -0.984375l0.5625 0q0.796875 0 1.078125 -0.25q0.421875 -0.34375 0.421875 -1.125l0 -11.359375q0 -0.796875 -0.125 -1.078125q-0.125 -0.296875 -0.390625 -0.421875q-0.25 -0.140625 -0.984375 -0.140625l-0.5625 0l0 -0.984375zm4.265625 1.296875l0 5.984375l2.984375 0q2.09375 0 2.875 -0.203125q1.203125 -0.3125 1.84375 -1.0625q0.640625 -0.765625 0.640625 -1.96875q0 -1.0 -0.59375 -1.671875q-0.578125 -0.6875 -1.546875 -0.921875q-0.625 -0.15625 -2.625 -0.15625l-3.578125 0zm0 7.109375l0 5.375q0 0.796875 0.0625 0.953125q0.09375 0.21875 0.375 0.296875q0.203125 0.0625 1.125 0.0625l1.59375 0q2.375 0 3.375 -0.265625q1.015625 -0.265625 1.734375 -1.109375q0.71875 -0.859375 0.71875 -2.046875q0 -1.015625 -0.578125 -1.796875q-0.578125 -0.78125 -1.609375 -1.125q-1.03125 -0.34375 -3.640625 -0.34375l-3.15625 0zm13.832031 1.25l6.96875 0l0 1.453125l-6.96875 0l0 -1.453125zm9.722656 12.234375l-0.75 -0.734375q0.65625 -0.65625 1.0625 -1.640625q0.625 -1.453125 0.890625 -3.421875q0.28125 -1.984375 0.28125 -5.59375q0 -3.703125 -0.265625 -5.546875q-0.25 -1.859375 -0.859375 -3.296875q-0.4375 -1.0 -1.109375 -1.71875l0.75 -0.671875q1.125 1.0 1.96875 2.546875q0.859375 1.53125 1.265625 3.546875q0.421875 2.0 0.421875 5.375q0 3.375 -0.453125 5.390625q-0.453125 2.015625 -1.5 3.765625q-0.796875 1.34375 -1.703125 2.0z" fill-rule="nonzero"/><path fill="#000000" d="m470.3506 314.69626l0.84375 0l1.25 5.03125l-1.078125 0.328125q-1.03125 -2.125 -2.734375 -3.34375q-1.40625 -1.015625 -3.125 -1.015625q-1.03125 0 -1.859375 0.375q-0.8125 0.359375 -1.21875 0.953125q-0.40625 0.578125 -0.40625 1.1875q0 0.5625 0.3125 1.078125q0.3125 0.515625 0.953125 0.90625q0.65625 0.390625 2.125 0.828125l3.046875 0.890625q0.5625 0.171875 1.640625 0.640625q1.078125 0.46875 1.671875 1.0q0.59375 0.515625 0.9375 1.265625q0.34375 0.75 0.34375 1.640625q0 1.9375 -1.71875 3.40625q-1.703125 1.453125 -4.40625 1.453125q-1.390625 0 -2.5 -0.40625q-1.09375 -0.40625 -2.375 -1.4375l-0.53125 1.5625l-0.828125 0l-1.09375 -5.875l1.09375 -0.21875q0.59375 1.625 1.578125 2.765625q1.0 1.140625 2.203125 1.71875q1.203125 0.578125 2.4375 0.578125q1.6875 0 2.953125 -1.015625q1.0625 -0.859375 1.0625 -2.015625q0 -1.078125 -0.765625 -1.75q-0.765625 -0.6875 -2.765625 -1.265625l-2.921875 -0.84375q-2.46875 -0.71875 -3.46875 -1.828125q-1.015625 -1.109375 -1.015625 -2.5625q0 -1.125 0.65625 -2.078125q0.65625 -0.953125 2.015625 -1.59375q1.359375 -0.640625 2.984375 -0.640625q1.359375 0 2.59375 0.46875q0.875 0.328125 1.625 0.9375l0.484375 -1.125zm14.9375 13.078125l0.75 0.609375q-2.203125 2.9375 -5.296875 2.9375q-2.390625 0 -4.046875 -1.703125q-1.65625 -1.71875 -1.65625 -4.265625q0 -1.703125 0.765625 -3.046875q0.765625 -1.359375 2.125 -2.109375q1.375 -0.75 3.140625 -0.75q2.015625 0 3.359375 1.0q1.359375 0.984375 1.359375 1.984375q0 0.546875 -0.328125 0.84375q-0.3125 0.28125 -0.703125 0.28125q-0.21875 0 -0.421875 -0.09375q-0.1875 -0.109375 -0.40625 -0.34375q-0.09375 -0.109375 -0.328125 -0.65625q-0.328125 -0.6875 -0.5 -0.921875q-0.359375 -0.46875 -0.890625 -0.734375q-0.53125 -0.265625 -1.1875 -0.265625q-1.0 0 -1.859375 0.546875q-0.84375 0.546875 -1.34375 1.625q-0.5 1.078125 -0.5 2.5625q0 2.3125 1.234375 3.671875q1.0625 1.171875 2.546875 1.171875q0.671875 0 1.375 -0.234375q0.703125 -0.234375 1.3125 -0.671875q0.46875 -0.3125 1.5 -1.4375zm5.0117188 -13.609375q0.5625 0 0.953125 0.390625q0.40625 0.390625 0.40625 0.953125q0 0.5625 -0.40625 0.96875q-0.390625 0.390625 -0.953125 0.390625q-0.5625 0 -0.96875 -0.390625q-0.390625 -0.40625 -0.390625 -0.96875q0 -0.5625 0.390625 -0.953125q0.40625 -0.390625 0.96875 -0.390625zm-2.984375 7.25l0 -0.96875q0.96875 -0.125 1.625 -0.328125q0.671875 -0.21875 1.515625 -0.671875l0.84375 0l0 9.40625q0 0.484375 0.140625 0.734375q0.140625 0.25 0.390625 0.359375q0.265625 0.109375 0.921875 0.109375l0.5625 0l0 0.984375l-6.0 0l0 -0.984375l0.46875 0q0.796875 0 1.0625 -0.140625q0.265625 -0.140625 0.375 -0.390625q0.109375 -0.265625 0.109375 -1.21875l0 -6.890625l-2.015625 0zm17.320312 6.59375l0.75 0.609375q-0.859375 1.03125 -1.671875 1.625q-0.796875 0.59375 -1.515625 0.828125q-0.703125 0.25 -1.671875 0.25q-1.71875 0 -2.921875 -0.703125q-1.390625 -0.8125 -2.125 -2.109375q-0.734375 -1.296875 -0.734375 -3.078125q0 -1.84375 0.703125 -3.15625q0.71875 -1.3125 2.0 -2.0625q1.28125 -0.765625 2.96875 -0.765625q1.265625 0 2.1875 0.390625q0.921875 0.390625 1.5625 1.1875q0.65625 0.796875 0.9375 1.8125q0.171875 0.59375 0.1875 1.546875l-8.28125 0q-0.03125 0.578125 -0.03125 0.859375q0 1.46875 0.515625 2.625q0.515625 1.15625 1.359375 1.703125q0.859375 0.546875 1.9375 0.546875q0.90625 0 1.765625 -0.421875q0.859375 -0.4375 2.078125 -1.6875zm-1.5 -4.734375q-0.1875 -1.078125 -0.515625 -1.59375q-0.3125 -0.515625 -0.90625 -0.8125q-0.59375 -0.3125 -1.328125 -0.3125q-0.734375 0 -1.390625 0.3125q-0.640625 0.296875 -1.0625 0.84375q-0.421875 0.53125 -0.75 1.5625l5.953125 0zm3.9492188 -1.859375l0 -0.984375q1.046875 -0.109375 1.5625 -0.265625q0.515625 -0.171875 1.484375 -0.71875l0.84375 0l0 2.234375q1.546875 -1.3125 2.640625 -1.765625q1.109375 -0.46875 2.234375 -0.46875q0.953125 0 1.6875 0.328125q0.75 0.3125 1.203125 0.875q0.46875 0.546875 0.625 1.25q0.09375 0.4375 0.09375 1.3125l0 5.15625q0 0.921875 0.125 1.1875q0.140625 0.265625 0.421875 0.390625q0.296875 0.109375 1.453125 0.109375l0 0.984375l-6.03125 0l0 -0.984375l0.328125 0q0.84375 0 1.140625 -0.15625q0.3125 -0.15625 0.4375 -0.4375q0.140625 -0.296875 0.140625 -1.203125l0 -4.3125q0 -1.328125 -0.21875 -1.84375q-0.21875 -0.515625 -0.75 -0.84375q-0.515625 -0.328125 -1.3125 -0.328125q-0.9375 0 -2.015625 0.5q-1.078125 0.484375 -2.09375 1.421875l0 5.40625q0 0.921875 0.125 1.234375q0.140625 0.296875 0.453125 0.4375q0.203125 0.125 1.125 0.125l0.34375 0l0 0.984375l-6.046875 0l0 -0.984375l0.296875 0q0.875 0 1.1875 -0.140625q0.3125 -0.15625 0.4375 -0.53125q0.078125 -0.1875 0.078125 -1.28125l0 -6.6875l-2.0 0zm26.203125 6.359375l0.75 0.609375q-2.203125 2.9375 -5.296875 2.9375q-2.390625 0 -4.046875 -1.703125q-1.65625 -1.71875 -1.65625 -4.265625q0 -1.703125 0.765625 -3.046875q0.765625 -1.359375 2.125 -2.109375q1.375 -0.75 3.140625 -0.75q2.015625 0 3.359375 1.0q1.359375 0.984375 1.359375 1.984375q0 0.546875 -0.328125 0.84375q-0.3125 0.28125 -0.703125 0.28125q-0.21875 0 -0.421875 -0.09375q-0.1875 -0.109375 -0.40625 -0.34375q-0.09375 -0.109375 -0.328125 -0.65625q-0.328125 -0.6875 -0.5 -0.921875q-0.359375 -0.46875 -0.890625 -0.734375q-0.53125 -0.265625 -1.1875 -0.265625q-1.0 0 -1.859375 0.546875q-0.84375 0.546875 -1.34375 1.625q-0.5 1.078125 -0.5 2.5625q0 2.3125 1.234375 3.671875q1.0625 1.171875 2.546875 1.171875q0.671875 0 1.375 -0.234375q0.703125 -0.234375 1.3125 -0.671875q0.46875 -0.3125 1.5 -1.4375zm12.152344 0.234375l0.75 0.609375q-0.859375 1.03125 -1.671875 1.625q-0.796875 0.59375 -1.515625 0.828125q-0.703125 0.25 -1.671875 0.25q-1.71875 0 -2.921875 -0.703125q-1.390625 -0.8125 -2.125 -2.109375q-0.734375 -1.296875 -0.734375 -3.078125q0 -1.84375 0.703125 -3.15625q0.71875 -1.3125 2.0 -2.0625q1.28125 -0.765625 2.96875 -0.765625q1.265625 0 2.1875 0.390625q0.921875 0.390625 1.5625 1.1875q0.65625 0.796875 0.9375 1.8125q0.171875 0.59375 0.1875 1.546875l-8.28125 0q-0.03125 0.578125 -0.03125 0.859375q0 1.46875 0.515625 2.625q0.515625 1.15625 1.359375 1.703125q0.859375 0.546875 1.9375 0.546875q0.90625 0 1.765625 -0.421875q0.859375 -0.4375 2.078125 -1.6875zm-1.5 -4.734375q-0.1875 -1.078125 -0.515625 -1.59375q-0.3125 -0.515625 -0.90625 -0.8125q-0.59375 -0.3125 -1.328125 -0.3125q-0.734375 0 -1.390625 0.3125q-0.640625 0.296875 -1.0625 0.84375q-0.421875 0.53125 -0.75 1.5625l5.953125 0zm12.0625 1.078125l6.96875 0l0 1.453125l-6.96875 0l0 -1.453125zm25.242188 -2.390625q1.390625 0.53125 2.109375 1.0q1.0625 0.6875 1.59375 1.609375q0.546875 0.90625 0.546875 1.984375q0 1.9375 -1.671875 3.359375q-1.65625 1.40625 -4.46875 1.40625q-3.0 0 -4.6875 -1.59375q-1.359375 -1.28125 -1.359375 -2.890625q0 -1.3125 0.921875 -2.34375q1.09375 -1.21875 3.140625 -1.921875q-1.59375 -0.75 -2.296875 -1.515625q-0.90625 -1.015625 -0.90625 -2.453125q0 -1.765625 1.34375 -2.859375q1.640625 -1.328125 4.09375 -1.328125q2.25 0 3.640625 1.15625q1.390625 1.140625 1.390625 2.640625q0 0.734375 -0.34375 1.40625q-0.34375 0.671875 -1.0625 1.25q-0.71875 0.578125 -1.984375 1.09375zm-1.0625 -0.421875q1.328125 -1.015625 1.71875 -1.40625q0.40625 -0.40625 0.625 -0.90625q0.21875 -0.515625 0.21875 -1.0q0 -0.6875 -0.40625 -1.3125q-0.40625 -0.625 -1.203125 -1.015625q-0.796875 -0.390625 -1.78125 -0.390625q-1.453125 0 -2.421875 0.8125q-0.953125 0.796875 -0.953125 1.84375q0 0.84375 0.59375 1.515625q0.609375 0.671875 2.234375 1.3125l1.375 0.546875zm-1.65625 1.5q-1.65625 0.71875 -2.609375 1.875q-0.75 0.921875 -0.75 1.90625q0 1.328125 1.171875 2.375q1.1875 1.03125 3.0625 1.03125q1.921875 0 3.1875 -1.1875q1.046875 -0.953125 1.046875 -2.0625q0 -0.859375 -0.6875 -1.640625q-0.6875 -0.796875 -2.546875 -1.546875l-1.875 -0.75zm11.5390625 -8.34375l7.296875 0q0.671875 0 0.8125 -0.078125q0.1875 -0.109375 0.234375 -0.5l0.84375 0l0 2.46875l-8.09375 0l-0.203125 4.125q0.515625 -0.140625 1.28125 -0.234375q1.0 -0.109375 1.78125 -0.109375q1.953125 0 3.40625 0.703125q1.453125 0.703125 2.203125 1.921875q0.765625 1.21875 0.765625 2.734375q0 2.34375 -1.765625 3.96875q-1.75 1.625 -4.46875 1.625q-1.5625 0 -2.84375 -0.5625q-1.265625 -0.5625 -1.984375 -1.484375q-0.71875 -0.921875 -0.71875 -1.609375q0 -0.453125 0.296875 -0.78125q0.3125 -0.34375 0.796875 -0.34375q0.5 0 0.875 0.40625q0.203125 0.21875 0.5 1.03125q0.390625 1.15625 1.1875 1.6875q0.765625 0.546875 1.9375 0.546875q1.171875 0 2.078125 -0.5q0.921875 -0.515625 1.453125 -1.46875q0.53125 -0.953125 0.53125 -2.125q0 -1.234375 -0.578125 -2.1875q-0.5625 -0.96875 -1.625 -1.484375q-1.0625 -0.53125 -2.578125 -0.53125q-0.9375 0 -2.0 0.203125q-1.046875 0.1875 -1.8125 0.5l0.390625 -7.921875zm15.4921875 13.609375q0.625 0 1.046875 0.4375q0.4375 0.421875 0.4375 1.03125q0 0.609375 -0.4375 1.046875q-0.4375 0.421875 -1.046875 0.421875q-0.59375 0 -1.03125 -0.421875q-0.421875 -0.4375 -0.421875 -1.046875q0 -0.609375 0.421875 -1.03125q0.421875 -0.4375 1.03125 -0.4375zm6.5976562 3.015625l0 -1.09375q2.90625 -0.03125 4.6875 -0.828125q1.796875 -0.8125 2.625 -2.421875q0.84375 -1.625 0.953125 -3.96875q-0.59375 0.921875 -1.21875 1.421875q-0.625 0.5 -1.46875 0.78125q-0.84375 0.28125 -1.828125 0.28125q-1.59375 0 -2.84375 -0.703125q-1.234375 -0.703125 -1.9375 -1.890625q-0.6875 -1.203125 -0.6875 -2.8125q0 -2.578125 1.5625 -4.0625q1.71875 -1.609375 4.46875 -1.609375q1.984375 0 3.34375 0.828125q1.359375 0.8125 2.15625 2.5q0.796875 1.6875 0.796875 4.140625q0 2.46875 -0.828125 4.40625q-0.828125 1.921875 -2.328125 3.09375q-1.5 1.15625 -3.296875 1.546875q-1.78125 0.390625 -3.234375 0.390625l-0.921875 0zm4.296875 -7.078125q1.671875 0 2.75 -1.265625q1.09375 -1.28125 1.09375 -3.078125q0 -1.265625 -0.53125 -2.328125q-0.53125 -1.078125 -1.359375 -1.59375q-0.8125 -0.53125 -1.875 -0.53125q-1.609375 0 -2.6875 1.234375q-1.078125 1.21875 -1.078125 3.28125q0 1.96875 1.046875 3.125q1.0625 1.15625 2.640625 1.15625zm10.5546875 -3.390625l-1.140625 0.140625q-0.09375 -0.828125 -0.09375 -1.359375q0 -1.375 0.75 -2.609375q0.75 -1.234375 2.09375 -1.921875q1.34375 -0.6875 3.078125 -0.6875q1.671875 0 2.9375 0.65625q1.265625 0.640625 1.9375 1.78125q0.6875 1.125 0.6875 2.578125q0 1.21875 -0.453125 2.28125q-0.4375 1.046875 -1.40625 2.109375q-0.71875 0.796875 -2.9375 2.4375q-2.796875 2.078125 -4.28125 3.015625l6.09375 0q1.078125 0 1.40625 -0.1875q0.453125 -0.265625 0.625 -1.203125l0.109375 -0.671875l0.984375 0l-0.796875 4.421875l-0.75 0l-0.125 -0.59375l-10.234375 0l0 -0.984375l1.875 -1.421875q2.125 -1.578125 3.125 -2.421875q1.890625 -1.59375 2.84375 -2.71875q0.953125 -1.140625 1.3125 -2.046875q0.359375 -0.90625 0.359375 -1.90625q0 -1.65625 -1.0625 -2.703125q-1.0625 -1.0625 -2.765625 -1.0625q-1.21875 0 -2.171875 0.53125q-0.953125 0.53125 -1.515625 1.484375q-0.546875 0.9375 -0.546875 2.046875q0 0.40625 0.0625 1.015625zm16.835938 -6.4375q1.734375 0 2.71875 1.109375q1.078125 1.234375 1.078125 3.34375q0 2.015625 -1.078125 3.1875q-1.078125 1.15625 -2.8125 1.15625q-1.78125 0 -2.859375 -1.375q-0.875 -1.140625 -0.875 -3.03125q0 -2.09375 1.046875 -3.234375q1.0625 -1.15625 2.78125 -1.15625zm-0.015625 0.75q-0.625 0 -1.09375 0.359375q-0.46875 0.34375 -0.796875 1.265625q-0.3125 0.90625 -0.3125 2.125q0 1.1875 0.28125 1.984375q0.296875 0.796875 0.796875 1.1875q0.5 0.375 1.09375 0.375q0.59375 0 1.109375 -0.375q0.515625 -0.390625 0.8125 -1.21875q0.3125 -0.828125 0.3125 -2.0625q0 -1.640625 -0.5625 -2.640625q-0.546875 -1.0 -1.640625 -1.0zm12.296875 -0.75l-10.890625 16.90625l-1.40625 0l10.875 -16.90625l1.421875 0zm0.015625 8.109375q1.71875 0 2.703125 1.125q1.078125 1.21875 1.078125 3.34375q0 2.0 -1.078125 3.171875q-1.078125 1.15625 -2.8125 1.15625q-1.78125 0 -2.84375 -1.359375q-0.875 -1.140625 -0.875 -3.046875q0 -2.09375 1.046875 -3.234375q1.046875 -1.15625 2.78125 -1.15625zm-0.03125 0.75q-0.609375 0 -1.09375 0.359375q-0.46875 0.34375 -0.796875 1.265625q-0.3125 0.90625 -0.3125 2.125q0 1.1875 0.296875 2.0q0.296875 0.796875 0.796875 1.171875q0.5 0.375 1.078125 0.375q0.609375 0 1.109375 -0.375q0.515625 -0.390625 0.8125 -1.21875q0.3125 -0.828125 0.3125 -2.046875q0 -1.65625 -0.5625 -2.65625q-0.546875 -1.0 -1.640625 -1.0zm18.117188 -9.3125l0.734375 0.734375q-0.625 0.65625 -1.046875 1.640625q-0.625 1.453125 -0.90625 3.4375q-0.265625 1.96875 -0.265625 5.5625q0 3.703125 0.25 5.5625q0.265625 1.859375 0.875 3.296875q0.421875 1.0 1.09375 1.71875l-0.734375 0.671875q-1.140625 -1.015625 -2.0 -2.546875q-0.84375 -1.53125 -1.265625 -3.546875q-0.40625 -2.015625 -0.40625 -5.390625q0 -3.359375 0.453125 -5.375q0.46875 -2.03125 1.515625 -3.78125q0.78125 -1.328125 1.703125 -1.984375zm2.3828125 0.734375l7.78125 0q2.84375 0 3.890625 0.25q1.5625 0.375 2.46875 1.359375q0.90625 0.984375 0.90625 2.375q0 0.984375 -0.484375 1.78125q-0.46875 0.796875 -1.390625 1.359375q-0.578125 0.359375 -1.59375 0.609375q1.28125 0.234375 1.953125 0.5625q1.0 0.5 1.578125 1.421875q0.59375 0.90625 0.59375 2.046875q0 1.125 -0.578125 2.078125q-0.5625 0.9375 -1.609375 1.546875q-1.046875 0.609375 -2.453125 0.78125q-1.390625 0.171875 -2.859375 0.171875l-8.203125 0l0 -0.984375l0.5625 0q0.796875 0 1.078125 -0.25q0.421875 -0.34375 0.421875 -1.125l0 -11.359375q0 -0.796875 -0.125 -1.078125q-0.125 -0.296875 -0.390625 -0.421875q-0.25 -0.140625 -0.984375 -0.140625l-0.5625 0l0 -0.984375zm4.265625 1.296875l0 5.984375l2.984375 0q2.09375 0 2.875 -0.203125q1.203125 -0.3125 1.84375 -1.0625q0.640625 -0.765625 0.640625 -1.96875q0 -1.0 -0.59375 -1.671875q-0.578125 -0.6875 -1.546875 -0.921875q-0.625 -0.15625 -2.625 -0.15625l-3.578125 0zm0 7.109375l0 5.375q0 0.796875 0.0625 0.953125q0.09375 0.21875 0.375 0.296875q0.203125 0.0625 1.125 0.0625l1.59375 0q2.375 0 3.375 -0.265625q1.015625 -0.265625 1.734375 -1.109375q0.71875 -0.859375 0.71875 -2.046875q0 -1.015625 -0.578125 -1.796875q-0.578125 -0.78125 -1.609375 -1.125q-1.03125 -0.34375 -3.640625 -0.34375l-3.15625 0zm13.957031 13.484375l-0.75 -0.734375q0.65625 -0.65625 1.0625 -1.640625q0.625 -1.453125 0.890625 -3.421875q0.28125 -1.984375 0.28125 -5.59375q0 -3.703125 -0.265625 -5.546875q-0.25 -1.859375 -0.859375 -3.296875q-0.4375 -1.0 -1.109375 -1.71875l0.75 -0.671875q1.125 1.0 1.96875 2.546875q0.859375 1.53125 1.265625 3.546875q0.421875 2.0 0.421875 5.375q0 3.375 -0.453125 5.390625q-0.453125 2.015625 -1.5 3.765625q-0.796875 1.34375 -1.703125 2.0z" fill-rule="nonzero"/><path fill="#000000" d="m459.3662 343.69626l13.28125 0l1.53125 4.296875l-1.03125 0.390625q-0.375 -1.0625 -0.84375 -1.65625q-0.453125 -0.609375 -1.09375 -1.03125q-0.640625 -0.421875 -1.296875 -0.5625q-0.640625 -0.140625 -2.34375 -0.140625l-3.953125 0l0 5.984375l1.96875 0q1.09375 0 1.640625 -0.359375q0.5625 -0.375 0.765625 -0.921875q0.171875 -0.421875 0.171875 -1.4375l0 -0.265625l1.140625 0l0 7.171875l-1.140625 0l0 -0.625q0 -0.8125 -0.125 -1.171875q-0.125 -0.375 -0.453125 -0.6875q-0.328125 -0.328125 -0.71875 -0.4375q-0.375 -0.125 -1.28125 -0.125l-1.96875 0l0 5.3125q0 0.84375 0.078125 1.03125q0.078125 0.171875 0.25 0.25q0.171875 0.078125 0.953125 0.078125l2.453125 0q2.046875 0 3.203125 -0.484375q1.15625 -0.5 2.03125 -1.515625q0.703125 -0.796875 1.328125 -2.25l1.0625 0.375l-1.828125 5.125l-13.78125 0l0 -0.984375l0.46875 0q0.8125 0 1.015625 -0.109375q0.296875 -0.15625 0.46875 -0.484375q0.109375 -0.234375 0.109375 -1.03125l0 -11.25q0 -0.75 -0.15625 -1.0q-0.140625 -0.265625 -0.515625 -0.40625q-0.203125 -0.09375 -1.390625 -0.09375l0 -0.984375zm17.003906 6.71875l0 -0.984375q1.046875 -0.109375 1.5625 -0.265625q0.515625 -0.171875 1.484375 -0.71875l0.84375 0l0 2.234375q1.546875 -1.3125 2.640625 -1.765625q1.109375 -0.46875 2.234375 -0.46875q0.953125 0 1.6875 0.328125q0.75 0.3125 1.203125 0.875q0.46875 0.546875 0.625 1.25q0.09375 0.4375 0.09375 1.3125l0 5.15625q0 0.921875 0.125 1.1875q0.140625 0.265625 0.421875 0.390625q0.296875 0.109375 1.453125 0.109375l0 0.984375l-6.03125 0l0 -0.984375l0.328125 0q0.84375 0 1.140625 -0.15625q0.3125 -0.15625 0.4375 -0.4375q0.140625 -0.296875 0.140625 -1.203125l0 -4.3125q0 -1.328125 -0.21875 -1.84375q-0.21875 -0.515625 -0.75 -0.84375q-0.515625 -0.328125 -1.3125 -0.328125q-0.9375 0 -2.015625 0.5q-1.078125 0.484375 -2.09375 1.421875l0 5.40625q0 0.921875 0.125 1.234375q0.140625 0.296875 0.453125 0.4375q0.203125 0.125 1.125 0.125l0.34375 0l0 0.984375l-6.046875 0l0 -0.984375l0.296875 0q0.875 0 1.1875 -0.140625q0.3125 -0.15625 0.4375 -0.53125q0.078125 -0.1875 0.078125 -1.28125l0 -6.6875l-2.0 0zm24.890625 -0.765625q0.53125 -0.609375 1.078125 -0.90625q0.546875 -0.296875 1.0 -0.296875q0.421875 0 0.703125 0.25q0.296875 0.25 0.296875 0.625q0 0.375 -0.265625 0.640625q-0.25 0.25 -0.65625 0.25q-0.15625 0 -0.4375 -0.0625q-0.328125 -0.078125 -0.546875 -0.078125q-0.296875 0 -0.609375 0.265625q0.71875 0.875 0.71875 2.0625q0 1.609375 -1.359375 2.796875q-1.359375 1.1875 -3.4375 1.1875q-1.140625 0 -2.296875 -0.484375q-0.78125 0.546875 -0.890625 0.6875q-0.15625 0.1875 -0.15625 0.421875q0 0.328125 0.34375 0.5625q0.453125 0.28125 1.765625 0.484375l3.390625 0.5q1.125 0.1875 2.25 0.59375q1.140625 0.40625 1.640625 1.0625q0.515625 0.65625 0.515625 1.578125q0 1.546875 -1.421875 2.46875q-1.8125 1.1875 -5.390625 1.1875q-1.875 0 -3.046875 -0.40625q-1.171875 -0.390625 -1.8125 -1.125q-0.46875 -0.515625 -0.46875 -1.078125q0 -0.734375 0.46875 -1.421875q0.46875 -0.6875 2.203125 -1.96875q-1.125 -0.28125 -1.59375 -0.65625q-0.609375 -0.484375 -0.609375 -1.09375q0 -0.3125 0.109375 -0.5625q0.109375 -0.265625 0.359375 -0.53125q0.25 -0.265625 0.921875 -0.734375q0.421875 -0.296875 0.59375 -0.4375q-0.859375 -0.609375 -1.296875 -1.359375q-0.421875 -0.765625 -0.421875 -1.65625q0 -1.5 1.140625 -2.609375q1.40625 -1.359375 3.765625 -1.359375q1.0625 0 1.84375 0.265625q0.78125 0.265625 1.609375 0.9375zm-3.5625 -0.109375q-1.140625 0 -1.9375 0.828125q-0.796875 0.828125 -0.796875 2.0625q0 0.828125 0.359375 1.484375q0.359375 0.65625 1.015625 1.046875q0.65625 0.375 1.390625 0.375q0.71875 0 1.375 -0.375q0.671875 -0.390625 1.03125 -1.046875q0.359375 -0.65625 0.359375 -1.484375q0 -1.28125 -0.78125 -2.078125q-0.78125 -0.8125 -2.015625 -0.8125zm-1.859375 10.171875q-1.125 0.96875 -1.5 1.5625q-0.359375 0.59375 -0.359375 1.140625q0 0.46875 0.359375 0.90625q0.375 0.453125 1.265625 0.734375q0.890625 0.28125 2.234375 0.28125q1.59375 0 2.734375 -0.359375q1.15625 -0.34375 1.640625 -0.875q0.359375 -0.421875 0.359375 -1.0q0 -0.484375 -0.296875 -0.828125q-0.296875 -0.34375 -1.125 -0.59375q-0.828125 -0.25 -1.53125 -0.375l-3.78125 -0.59375zm9.1953125 -14.921875l0 -0.953125q1.59375 -0.125 3.109375 -0.984375l0.875 0l0 14.421875q0 0.90625 0.109375 1.140625q0.15625 0.328125 0.4375 0.484375q0.296875 0.15625 1.140625 0.15625l0.375 0l0 0.984375l-6.046875 0l0 -0.984375l0.609375 0q0.578125 0 0.859375 -0.171875q0.296875 -0.1875 0.421875 -0.484375q0.125 -0.3125 0.125 -1.21875l0 -12.390625l-2.015625 0zm10.2265625 -1.625q0.5625 0 0.953125 0.390625q0.40625 0.390625 0.40625 0.953125q0 0.5625 -0.40625 0.96875q-0.390625 0.390625 -0.953125 0.390625q-0.5625 0 -0.96875 -0.390625q-0.390625 -0.40625 -0.390625 -0.96875q0 -0.5625 0.390625 -0.953125q0.40625 -0.390625 0.96875 -0.390625zm-2.984375 7.25l0 -0.96875q0.96875 -0.125 1.625 -0.328125q0.671875 -0.21875 1.515625 -0.671875l0.84375 0l0 9.40625q0 0.484375 0.140625 0.734375q0.140625 0.25 0.390625 0.359375q0.265625 0.109375 0.921875 0.109375l0.5625 0l0 0.984375l-6.0 0l0 -0.984375l0.46875 0q0.796875 0 1.0625 -0.140625q0.265625 -0.140625 0.375 -0.390625q0.109375 -0.265625 0.109375 -1.21875l0 -6.890625l-2.015625 0zm15.2109375 -1.6875l0.828125 0l1.046875 3.59375l-1.046875 0.34375q-0.640625 -1.4375 -1.78125 -2.265625q-1.140625 -0.828125 -2.3125 -0.828125q-0.90625 0 -1.46875 0.4375q-0.5625 0.4375 -0.5625 1.015625q0 0.546875 0.421875 0.921875q0.390625 0.40625 1.78125 0.90625l2.296875 0.8125q1.921875 0.6875 2.625 1.46875q0.703125 0.796875 0.703125 1.8125q0 0.859375 -0.515625 1.65625q-0.515625 0.78125 -1.5 1.25q-0.984375 0.46875 -2.25 0.46875q-1.96875 0 -3.375 -1.125l-0.234375 0.84375l-0.84375 0l-1.453125 -3.828125l1.0625 -0.421875q1.0625 1.6875 2.015625 2.390625q1.328125 0.984375 2.859375 0.984375q1.015625 0 1.671875 -0.53125q0.65625 -0.546875 0.65625 -1.21875q0 -0.546875 -0.40625 -1.015625q-0.421875 -0.4375 -1.625 -0.859375l-2.703125 -0.984375q-1.75 -0.640625 -2.421875 -1.390625q-0.6875 -0.75 -0.6875 -1.71875q0 -1.1875 1.109375 -2.09375q1.109375 -0.90625 2.828125 -0.90625q0.890625 0 1.59375 0.234375q0.703125 0.21875 1.375 0.75l0.3125 -0.703125zm4.5585938 -3.890625l0 -1.0q1.125 -0.15625 1.75 -0.359375q0.640625 -0.203125 1.34375 -0.625l0.90625 0l0 7.734375q1.328125 -1.109375 2.5 -1.625q1.1875 -0.515625 2.265625 -0.515625q1.578125 0 2.59375 0.9375q1.015625 0.9375 1.015625 2.28125l0 5.765625q0 0.84375 0.125 1.109375q0.140625 0.265625 0.453125 0.390625q0.3125 0.125 1.421875 0.125l0 0.984375l-6.046875 0l0 -0.984375l0.4375 0q0.859375 0 1.125 -0.125q0.28125 -0.140625 0.390625 -0.453125q0.125 -0.3125 0.125 -1.28125l0 -4.0q0 -1.328125 -0.09375 -1.71875q-0.171875 -0.6875 -0.71875 -1.09375q-0.546875 -0.40625 -1.40625 -0.40625q-0.96875 0 -2.015625 0.46875q-1.046875 0.46875 -2.171875 1.421875l0 5.875q0 0.65625 0.109375 0.875q0.125 0.21875 0.390625 0.328125q0.28125 0.109375 1.078125 0.109375l0.484375 0l0 0.984375l-6.0625 0l0 -0.984375l0.359375 0q0.859375 0 1.234375 -0.21875q0.21875 -0.09375 0.3125 -0.390625q0.09375 -0.3125 0.09375 -1.703125l0 -11.90625l-2.0 0zm23.957031 8.515625l6.96875 0l0 1.453125l-6.96875 0l0 -1.453125zm18.570312 -10.265625l0.765625 0l0.140625 0.609375l10.25 0l0 0.984375q-1.84375 2.125 -3.34375 4.84375q-1.484375 2.703125 -2.3125 5.515625q-0.59375 2.03125 -0.96875 5.0l-2.40625 0q0.359375 -2.609375 1.15625 -4.875q0.796875 -2.28125 2.3125 -4.765625q1.53125 -2.484375 3.6875 -4.953125l-7.296875 0q-0.796875 0 -1.09375 0.09375q-0.28125 0.078125 -0.453125 0.25q-0.15625 0.171875 -0.28125 0.625l-0.0625 0.21875l-0.390625 1.375l-1.0 -0.203125l1.296875 -4.71875zm15.4453125 4.96875l-1.125 -0.171875q0.15625 -1.265625 0.65625 -2.09375q0.671875 -1.125 1.890625 -1.75q1.21875 -0.625 2.796875 -0.625q1.5625 0 2.75 0.5625q1.1875 0.546875 1.78125 1.46875q0.609375 0.921875 0.609375 1.984375q0 0.9375 -0.46875 1.671875q-0.453125 0.734375 -1.34375 1.328125q-0.640625 0.40625 -1.65625 0.71875q1.09375 0.140625 1.78125 0.5q1.125 0.578125 1.765625 1.59375q0.640625 1.0 0.640625 2.203125q0 1.9375 -1.703125 3.40625q-1.6875 1.46875 -4.390625 1.46875q-2.65625 0 -4.46875 -1.421875q-1.53125 -1.203125 -1.53125 -2.421875q0 -0.484375 0.3125 -0.796875q0.3125 -0.328125 0.78125 -0.328125q0.515625 0 0.875 0.390625q0.203125 0.234375 0.46875 1.078125q0.359375 1.171875 1.21875 1.796875q0.875 0.625 2.15625 0.625q1.15625 0 2.0625 -0.5q0.90625 -0.515625 1.4375 -1.4375q0.53125 -0.921875 0.53125 -2.03125q0 -0.890625 -0.390625 -1.59375q-0.375 -0.703125 -1.078125 -1.203125q-0.546875 -0.390625 -1.390625 -0.53125q-0.828125 -0.15625 -1.5 -0.15625l-1.078125 0l0 -1.140625l0.6875 0q1.03125 0 1.96875 -0.234375q0.9375 -0.25 1.5 -1.0q0.5625 -0.75 0.5625 -1.6875q0 -0.828125 -0.390625 -1.484375q-0.390625 -0.65625 -1.15625 -1.03125q-0.765625 -0.390625 -1.765625 -0.390625q-0.96875 0 -1.78125 0.40625q-0.8125 0.390625 -1.3125 1.0625q-0.484375 0.65625 -0.703125 1.765625zm16.382812 -4.640625q1.734375 0 2.71875 1.109375q1.078125 1.234375 1.078125 3.34375q0 2.015625 -1.078125 3.1875q-1.078125 1.15625 -2.8125 1.15625q-1.78125 0 -2.859375 -1.375q-0.875 -1.140625 -0.875 -3.03125q0 -2.09375 1.046875 -3.234375q1.0625 -1.15625 2.78125 -1.15625zm-0.015625 0.75q-0.625 0 -1.09375 0.359375q-0.46875 0.34375 -0.796875 1.265625q-0.3125 0.90625 -0.3125 2.125q0 1.1875 0.28125 1.984375q0.296875 0.796875 0.796875 1.1875q0.5 0.375 1.09375 0.375q0.59375 0 1.109375 -0.375q0.515625 -0.390625 0.8125 -1.21875q0.3125 -0.828125 0.3125 -2.0625q0 -1.640625 -0.5625 -2.640625q-0.546875 -1.0 -1.640625 -1.0zm12.296875 -0.75l-10.890625 16.90625l-1.40625 0l10.875 -16.90625l1.421875 0zm0.015625 8.109375q1.71875 0 2.703125 1.125q1.078125 1.21875 1.078125 3.34375q0 2.0 -1.078125 3.171875q-1.078125 1.15625 -2.8125 1.15625q-1.78125 0 -2.84375 -1.359375q-0.875 -1.140625 -0.875 -3.046875q0 -2.09375 1.046875 -3.234375q1.046875 -1.15625 2.78125 -1.15625zm-0.03125 0.75q-0.609375 0 -1.09375 0.359375q-0.46875 0.34375 -0.796875 1.265625q-0.3125 0.90625 -0.3125 2.125q0 1.1875 0.296875 2.0q0.296875 0.796875 0.796875 1.171875q0.5 0.375 1.078125 0.375q0.609375 0 1.109375 -0.375q0.515625 -0.390625 0.8125 -1.21875q0.3125 -0.828125 0.3125 -2.046875q0 -1.65625 -0.5625 -2.65625q-0.546875 -1.0 -1.640625 -1.0zm18.117188 -9.3125l0.734375 0.734375q-0.625 0.65625 -1.046875 1.640625q-0.625 1.453125 -0.90625 3.4375q-0.265625 1.96875 -0.265625 5.5625q0 3.703125 0.25 5.5625q0.265625 1.859375 0.875 3.296875q0.421875 1.0 1.09375 1.71875l-0.734375 0.671875q-1.140625 -1.015625 -2.0 -2.546875q-0.84375 -1.53125 -1.265625 -3.546875q-0.40625 -2.015625 -0.40625 -5.390625q0 -3.359375 0.453125 -5.375q0.46875 -2.03125 1.515625 -3.78125q0.78125 -1.328125 1.703125 -1.984375zm15.5703125 0.734375l0.84375 0l1.484375 5.4375l-1.078125 0.3125q-0.890625 -1.890625 -1.34375 -2.53125q-0.75 -1.046875 -1.875 -1.65625q-1.109375 -0.609375 -2.453125 -0.609375q-1.59375 0 -2.921875 0.859375q-1.328125 0.84375 -2.15625 2.484375q-0.828125 1.640625 -0.828125 3.6875q0 2.109375 0.84375 3.765625q0.84375 1.65625 2.265625 2.546875q1.4375 0.890625 3.078125 0.890625q1.5625 0 3.1875 -0.890625q1.640625 -0.890625 2.828125 -2.5l0.9375 0.640625q-0.71875 1.078125 -1.5625 1.828125q-1.34375 1.203125 -2.78125 1.78125q-1.4375 0.578125 -3.171875 0.578125q-3.796875 0 -6.1875 -2.828125q-1.96875 -2.34375 -1.96875 -5.578125q0 -2.375 1.09375 -4.296875q1.09375 -1.9375 3.0 -3.0625q1.921875 -1.140625 4.140625 -1.140625q1.1875 0 2.1875 0.328125q1.015625 0.3125 2.0625 1.03125l0.375 -1.078125zm5.0351562 21.890625l-0.75 -0.734375q0.65625 -0.65625 1.0625 -1.640625q0.625 -1.453125 0.890625 -3.421875q0.28125 -1.984375 0.28125 -5.59375q0 -3.703125 -0.265625 -5.546875q-0.25 -1.859375 -0.859375 -3.296875q-0.4375 -1.0 -1.109375 -1.71875l0.75 -0.671875q1.125 1.0 1.96875 2.546875q0.859375 1.53125 1.265625 3.546875q0.421875 2.0 0.421875 5.375q0 3.375 -0.453125 5.390625q-0.453125 2.015625 -1.5 3.765625q-0.796875 1.34375 -1.703125 2.0z" fill-rule="nonzero"/><path xmlns="http://www.w3.org/2000/svg" fill="#000000" d="m459.3662 372.69626l13.28125 0l1.53125 4.296875l-1.03125 0.390625q-0.375 -1.0625 -0.84375 -1.65625q-0.453125 -0.609375 -1.09375 -1.03125q-0.640625 -0.421875 -1.296875 -0.5625q-0.640625 -0.140625 -2.34375 -0.140625l-3.953125 0l0 5.984375l1.96875 0q1.09375 0 1.640625 -0.359375q0.5625 -0.375 0.765625 -0.921875q0.171875 -0.421875 0.171875 -1.4375l0 -0.265625l1.140625 0l0 7.171875l-1.140625 0l0 -0.625q0 -0.8125 -0.125 -1.171875q-0.125 -0.375 -0.453125 -0.6875q-0.328125 -0.328125 -0.71875 -0.4375q-0.375 -0.125 -1.28125 -0.125l-1.96875 0l0 5.3125q0 0.84375 0.078125 1.03125q0.078125 0.171875 0.25 0.25q0.171875 0.078125 0.953125 0.078125l2.453125 0q2.046875 0 3.203125 -0.484375q1.15625 -0.5 2.03125 -1.515625q0.703125 -0.796875 1.328125 -2.25l1.0625 0.375l-1.828125 5.125l-13.78125 0l0 -0.984375l0.46875 0q0.8125 0 1.015625 -0.109375q0.296875 -0.15625 0.46875 -0.484375q0.109375 -0.234375 0.109375 -1.03125l0 -11.25q0 -0.75 -0.15625 -1.0q-0.140625 -0.265625 -0.515625 -0.40625q-0.203125 -0.09375 -1.390625 -0.09375l0 -0.984375zm20.082031 1.046875l0.828125 0l0 3.984375l3.484375 0l0 1.171875l-3.484375 0l0 7.0625q0 0.90625 0.15625 1.296875q0.15625 0.390625 0.53125 0.640625q0.390625 0.234375 0.859375 0.234375q1.109375 0 2.46875 -1.0l0 1.140625q-1.546875 1.046875 -3.109375 1.046875q-0.890625 0 -1.609375 -0.390625q-0.71875 -0.40625 -0.984375 -0.9375q-0.265625 -0.546875 -0.265625 -1.890625l0 -7.203125l-2.046875 0l0 -0.984375q0.984375 -0.21875 1.578125 -0.6875q0.609375 -0.46875 0.984375 -1.21875q0.375 -0.75 0.609375 -2.265625zm6.0390625 0.09375l0 -1.0q1.125 -0.15625 1.75 -0.359375q0.640625 -0.203125 1.34375 -0.625l0.90625 0l0 7.734375q1.328125 -1.109375 2.5 -1.625q1.1875 -0.515625 2.265625 -0.515625q1.578125 0 2.59375 0.9375q1.015625 0.9375 1.015625 2.28125l0 5.765625q0 0.84375 0.125 1.109375q0.140625 0.265625 0.453125 0.390625q0.3125 0.125 1.421875 0.125l0 0.984375l-6.046875 0l0 -0.984375l0.4375 0q0.859375 0 1.125 -0.125q0.28125 -0.140625 0.390625 -0.453125q0.125 -0.3125 0.125 -1.28125l0 -4.0q0 -1.328125 -0.09375 -1.71875q-0.171875 -0.6875 -0.71875 -1.09375q-0.546875 -0.40625 -1.40625 -0.40625q-0.96875 0 -2.015625 0.46875q-1.046875 0.46875 -2.171875 1.421875l0 5.875q0 0.65625 0.109375 0.875q0.125 0.21875 0.390625 0.328125q0.28125 0.109375 1.078125 0.109375l0.484375 0l0 0.984375l-6.0625 0l0 -0.984375l0.359375 0q0.859375 0 1.234375 -0.21875q0.21875 -0.09375 0.3125 -0.390625q0.09375 -0.3125 0.09375 -1.703125l0 -11.90625l-2.0 0zm15.84375 5.578125l0 -0.984375q1.046875 -0.109375 1.5625 -0.265625q0.515625 -0.171875 1.484375 -0.71875l0.84375 0l0 2.234375q1.546875 -1.3125 2.640625 -1.765625q1.109375 -0.46875 2.234375 -0.46875q0.953125 0 1.6875 0.328125q0.75 0.3125 1.203125 0.875q0.46875 0.546875 0.625 1.25q0.09375 0.4375 0.09375 1.3125l0 5.15625q0 0.921875 0.125 1.1875q0.140625 0.265625 0.421875 0.390625q0.296875 0.109375 1.453125 0.109375l0 0.984375l-6.03125 0l0 -0.984375l0.328125 0q0.84375 0 1.140625 -0.15625q0.3125 -0.15625 0.4375 -0.4375q0.140625 -0.296875 0.140625 -1.203125l0 -4.3125q0 -1.328125 -0.21875 -1.84375q-0.21875 -0.515625 -0.75 -0.84375q-0.515625 -0.328125 -1.3125 -0.328125q-0.9375 0 -2.015625 0.5q-1.078125 0.484375 -2.09375 1.421875l0 5.40625q0 0.921875 0.125 1.234375q0.140625 0.296875 0.453125 0.4375q0.203125 0.125 1.125 0.125l0.34375 0l0 0.984375l-6.046875 0l0 -0.984375l0.296875 0q0.875 0 1.1875 -0.140625q0.3125 -0.15625 0.4375 -0.53125q0.078125 -0.1875 0.078125 -1.28125l0 -6.6875l-2.0 0zm18.734375 -7.25q0.5625 0 0.953125 0.390625q0.40625 0.390625 0.40625 0.953125q0 0.5625 -0.40625 0.96875q-0.390625 0.390625 -0.953125 0.390625q-0.5625 0 -0.96875 -0.390625q-0.390625 -0.40625 -0.390625 -0.96875q0 -0.5625 0.390625 -0.953125q0.40625 -0.390625 0.96875 -0.390625zm-2.984375 7.25l0 -0.96875q0.96875 -0.125 1.625 -0.328125q0.671875 -0.21875 1.515625 -0.671875l0.84375 0l0 9.40625q0 0.484375 0.140625 0.734375q0.140625 0.25 0.390625 0.359375q0.265625 0.109375 0.921875 0.109375l0.5625 0l0 0.984375l-6.0 0l0 -0.984375l0.46875 0q0.796875 0 1.0625 -0.140625q0.265625 -0.140625 0.375 -0.390625q0.109375 -0.265625 0.109375 -1.21875l0 -6.890625l-2.015625 0zm17.648438 6.359375l0.75 0.609375q-2.203125 2.9375 -5.296875 2.9375q-2.390625 0 -4.046875 -1.703125q-1.65625 -1.71875 -1.65625 -4.265625q0 -1.703125 0.765625 -3.046875q0.765625 -1.359375 2.125 -2.109375q1.375 -0.75 3.140625 -0.75q2.015625 0 3.359375 1.0q1.359375 0.984375 1.359375 1.984375q0 0.546875 -0.328125 0.84375q-0.3125 0.28125 -0.703125 0.28125q-0.21875 0 -0.421875 -0.09375q-0.1875 -0.109375 -0.40625 -0.34375q-0.09375 -0.109375 -0.328125 -0.65625q-0.328125 -0.6875 -0.5 -0.921875q-0.359375 -0.46875 -0.890625 -0.734375q-0.53125 -0.265625 -1.1875 -0.265625q-1.0 0 -1.859375 0.546875q-0.84375 0.546875 -1.34375 1.625q-0.5 1.078125 -0.5 2.5625q0 2.3125 1.234375 3.671875q1.0625 1.171875 2.546875 1.171875q0.671875 0 1.375 -0.234375q0.703125 -0.234375 1.3125 -0.671875q0.46875 -0.3125 1.5 -1.4375zm21.0625 -13.078125l0.84375 0l1.25 5.03125l-1.078125 0.328125q-1.03125 -2.125 -2.734375 -3.34375q-1.40625 -1.015625 -3.125 -1.015625q-1.03125 0 -1.859375 0.375q-0.8125 0.359375 -1.21875 0.953125q-0.40625 0.578125 -0.40625 1.1875q0 0.5625 0.3125 1.078125q0.3125 0.515625 0.953125 0.90625q0.65625 0.390625 2.125 0.828125l3.046875 0.890625q0.5625 0.171875 1.640625 0.640625q1.078125 0.46875 1.671875 1.0q0.59375 0.515625 0.9375 1.265625q0.34375 0.75 0.34375 1.640625q0 1.9375 -1.71875 3.40625q-1.703125 1.453125 -4.40625 1.453125q-1.390625 0 -2.5 -0.40625q-1.09375 -0.40625 -2.375 -1.4375l-0.53125 1.5625l-0.828125 0l-1.09375 -5.875l1.09375 -0.21875q0.59375 1.625 1.578125 2.765625q1.0 1.140625 2.203125 1.71875q1.203125 0.578125 2.4375 0.578125q1.6875 0 2.953125 -1.015625q1.0625 -0.859375 1.0625 -2.015625q0 -1.078125 -0.765625 -1.75q-0.765625 -0.6875 -2.765625 -1.265625l-2.921875 -0.84375q-2.46875 -0.71875 -3.46875 -1.828125q-1.015625 -1.109375 -1.015625 -2.5625q0 -1.125 0.65625 -2.078125q0.65625 -0.953125 2.015625 -1.59375q1.359375 -0.640625 2.984375 -0.640625q1.359375 0 2.59375 0.46875q0.875 0.328125 1.625 0.9375l0.484375 -1.125zm7.65625 1.046875l0.828125 0l0 3.984375l3.484375 0l0 1.171875l-3.484375 0l0 7.0625q0 0.90625 0.15625 1.296875q0.15625 0.390625 0.53125 0.640625q0.390625 0.234375 0.859375 0.234375q1.109375 0 2.46875 -1.0l0 1.140625q-1.546875 1.046875 -3.109375 1.046875q-0.890625 0 -1.609375 -0.390625q-0.71875 -0.40625 -0.984375 -0.9375q-0.265625 -0.546875 -0.265625 -1.890625l0 -7.203125l-2.046875 0l0 -0.984375q0.984375 -0.21875 1.578125 -0.6875q0.609375 -0.46875 0.984375 -1.21875q0.375 -0.75 0.609375 -2.265625zm5.3984375 3.984375l4.4375 -0.171875l0 7.546875q0 1.0 0.28125 1.59375q0.28125 0.578125 0.84375 0.90625q0.5625 0.3125 1.328125 0.3125q0.9375 0 2.125 -0.5q1.1875 -0.515625 2.375 -1.5l0 -5.46875q0 -0.859375 -0.125 -1.125q-0.125 -0.28125 -0.453125 -0.4375q-0.328125 -0.171875 -1.03125 -0.171875l-0.859375 0l0 -0.984375l4.4375 -0.171875l0 8.734375q0 0.84375 0.140625 1.171875q0.140625 0.328125 0.40625 0.46875q0.28125 0.125 1.125 0.125l0.359375 0l0 0.984375l-3.890625 0.203125l0 -2.171875q-1.609375 1.28125 -2.8125 1.765625q-1.1875 0.484375 -2.421875 0.484375q-0.90625 0 -1.578125 -0.25q-0.671875 -0.25 -1.1875 -0.734375q-0.515625 -0.5 -0.78125 -1.1875q-0.265625 -0.6875 -0.265625 -1.46875l0 -5.34375q0 -0.703125 -0.140625 -0.984375q-0.125 -0.296875 -0.421875 -0.46875q-0.296875 -0.171875 -0.8125 -0.171875l-1.078125 0l0 -0.984375zm24.261719 -3.90625l0 -0.984375q0.796875 -0.078125 1.453125 -0.28125q0.671875 -0.203125 1.65625 -0.703125l0.890625 0l0 14.203125q0 0.984375 0.046875 1.203125q0.109375 0.4375 0.390625 0.625q0.28125 0.171875 1.09375 0.171875l0.5 0l0 0.984375l-4.0625 0.1875l0 -1.859375q-1.171875 1.0625 -2.203125 1.515625q-1.015625 0.4375 -2.046875 0.4375q-2.125 0 -3.53125 -1.703125q-1.390625 -1.703125 -1.390625 -4.109375q0 -1.71875 0.734375 -3.140625q0.75 -1.421875 1.96875 -2.171875q1.21875 -0.75 2.671875 -0.75q1.109375 0 2.0625 0.390625q0.953125 0.390625 1.734375 1.15625l0 -5.171875l-1.96875 0zm1.96875 12.375l0 -4.421875q0 -0.953125 -0.359375 -1.546875q-0.359375 -0.609375 -1.171875 -1.046875q-0.8125 -0.453125 -1.671875 -0.453125q-1.015625 0 -1.875 0.5625q-0.859375 0.546875 -1.359375 1.59375q-0.484375 1.046875 -0.484375 2.546875q0 1.40625 0.453125 2.4375q0.453125 1.015625 1.21875 1.546875q0.765625 0.53125 1.5625 0.53125q0.78125 0 1.765625 -0.453125q1.0 -0.453125 1.921875 -1.296875zm8.5078125 -14.03125q0.5625 0 0.953125 0.390625q0.40625 0.390625 0.40625 0.953125q0 0.5625 -0.40625 0.96875q-0.390625 0.390625 -0.953125 0.390625q-0.5625 0 -0.96875 -0.390625q-0.390625 -0.40625 -0.390625 -0.96875q0 -0.5625 0.390625 -0.953125q0.40625 -0.390625 0.96875 -0.390625zm-2.984375 7.25l0 -0.96875q0.96875 -0.125 1.625 -0.328125q0.671875 -0.21875 1.515625 -0.671875l0.84375 0l0 9.40625q0 0.484375 0.140625 0.734375q0.140625 0.25 0.390625 0.359375q0.265625 0.109375 0.921875 0.109375l0.5625 0l0 0.984375l-6.0 0l0 -0.984375l0.46875 0q0.796875 0 1.0625 -0.140625q0.265625 -0.140625 0.375 -0.390625q0.109375 -0.265625 0.109375 -1.21875l0 -6.890625l-2.015625 0zm17.320312 6.59375l0.75 0.609375q-0.859375 1.03125 -1.671875 1.625q-0.796875 0.59375 -1.515625 0.828125q-0.703125 0.25 -1.671875 0.25q-1.71875 0 -2.921875 -0.703125q-1.390625 -0.8125 -2.125 -2.109375q-0.734375 -1.296875 -0.734375 -3.078125q0 -1.84375 0.703125 -3.15625q0.71875 -1.3125 2.0 -2.0625q1.28125 -0.765625 2.96875 -0.765625q1.265625 0 2.1875 0.390625q0.921875 0.390625 1.5625 1.1875q0.65625 0.796875 0.9375 1.8125q0.171875 0.59375 0.1875 1.546875l-8.28125 0q-0.03125 0.578125 -0.03125 0.859375q0 1.46875 0.515625 2.625q0.515625 1.15625 1.359375 1.703125q0.859375 0.546875 1.9375 0.546875q0.90625 0 1.765625 -0.421875q0.859375 -0.4375 2.078125 -1.6875zm-1.5 -4.734375q-0.1875 -1.078125 -0.515625 -1.59375q-0.3125 -0.515625 -0.90625 -0.8125q-0.59375 -0.3125 -1.328125 -0.3125q-0.734375 0 -1.390625 0.3125q-0.640625 0.296875 -1.0625 0.84375q-0.421875 0.53125 -0.75 1.5625l5.953125 0zm11.871094 -3.546875l0.828125 0l1.046875 3.59375l-1.046875 0.34375q-0.640625 -1.4375 -1.78125 -2.265625q-1.140625 -0.828125 -2.3125 -0.828125q-0.90625 0 -1.46875 0.4375q-0.5625 0.4375 -0.5625 1.015625q0 0.546875 0.421875 0.921875q0.390625 0.40625 1.78125 0.90625l2.296875 0.8125q1.921875 0.6875 2.625 1.46875q0.703125 0.796875 0.703125 1.8125q0 0.859375 -0.515625 1.65625q-0.515625 0.78125 -1.5 1.25q-0.984375 0.46875 -2.25 0.46875q-1.96875 0 -3.375 -1.125l-0.234375 0.84375l-0.84375 0l-1.453125 -3.828125l1.0625 -0.421875q1.0625 1.6875 2.015625 2.390625q1.328125 0.984375 2.859375 0.984375q1.015625 0 1.671875 -0.53125q0.65625 -0.546875 0.65625 -1.21875q0 -0.546875 -0.40625 -1.015625q-0.421875 -0.4375 -1.625 -0.859375l-2.703125 -0.984375q-1.75 -0.640625 -2.421875 -1.390625q-0.6875 -0.75 -0.6875 -1.71875q0 -1.1875 1.109375 -2.09375q1.109375 -0.90625 2.828125 -0.90625q0.890625 0 1.59375 0.234375q0.703125 0.21875 1.375 0.75l0.3125 -0.703125zm12.671875 4.625l6.96875 0l0 1.453125l-6.96875 0l0 -1.453125zm28.101562 -9.96875l0 1.0625q-2.890625 0.046875 -4.6875 0.859375q-1.78125 0.796875 -2.625 2.40625q-0.84375 1.609375 -0.953125 3.96875q0.609375 -0.90625 1.234375 -1.421875q0.625 -0.515625 1.453125 -0.78125q0.84375 -0.28125 1.84375 -0.28125q1.59375 0 2.828125 0.703125q1.25 0.703125 1.9375 1.90625q0.6875 1.203125 0.6875 2.828125q0 2.59375 -1.546875 4.0625q-1.734375 1.625 -4.46875 1.625q-1.984375 0 -3.34375 -0.8125q-1.359375 -0.828125 -2.171875 -2.515625q-0.796875 -1.6875 -0.796875 -4.171875q0 -2.5 0.84375 -4.421875q0.859375 -1.9375 2.359375 -3.109375q1.5 -1.171875 3.28125 -1.53125q1.796875 -0.375 3.21875 -0.375l0.90625 0zm-4.28125 7.0625q-1.6875 0 -2.765625 1.28125q-1.078125 1.265625 -1.078125 3.0625q0 1.265625 0.515625 2.34375q0.53125 1.0625 1.359375 1.59375q0.84375 0.515625 1.875 0.515625q1.625 0 2.6875 -1.21875q1.078125 -1.234375 1.078125 -3.296875q0 -1.96875 -1.046875 -3.125q-1.03125 -1.15625 -2.625 -1.15625zm19.164062 -7.0625l0 1.0625q-2.890625 0.046875 -4.6875 0.859375q-1.78125 0.796875 -2.625 2.40625q-0.84375 1.609375 -0.953125 3.96875q0.609375 -0.90625 1.234375 -1.421875q0.625 -0.515625 1.453125 -0.78125q0.84375 -0.28125 1.84375 -0.28125q1.59375 0 2.828125 0.703125q1.25 0.703125 1.9375 1.90625q0.6875 1.203125 0.6875 2.828125q0 2.59375 -1.546875 4.0625q-1.734375 1.625 -4.46875 1.625q-1.984375 0 -3.34375 -0.8125q-1.359375 -0.828125 -2.171875 -2.515625q-0.796875 -1.6875 -0.796875 -4.171875q0 -2.5 0.84375 -4.421875q0.859375 -1.9375 2.359375 -3.109375q1.5 -1.171875 3.28125 -1.53125q1.796875 -0.375 3.21875 -0.375l0.90625 0zm-4.28125 7.0625q-1.6875 0 -2.765625 1.28125q-1.078125 1.265625 -1.078125 3.0625q0 1.265625 0.515625 2.34375q0.53125 1.0625 1.359375 1.59375q0.84375 0.515625 1.875 0.515625q1.625 0 2.6875 -1.21875q1.078125 -1.234375 1.078125 -3.296875q0 -1.96875 -1.046875 -3.125q-1.03125 -1.15625 -2.625 -1.15625zm10.8515625 6.859375q0.625 0 1.046875 0.4375q0.4375 0.421875 0.4375 1.03125q0 0.609375 -0.4375 1.046875q-0.4375 0.421875 -1.046875 0.421875q-0.59375 0 -1.03125 -0.421875q-0.421875 -0.4375 -0.421875 -1.046875q0 -0.609375 0.421875 -1.03125q0.421875 -0.4375 1.03125 -0.4375zm13.128906 -6.34375q1.390625 0.53125 2.109375 1.0q1.0625 0.6875 1.59375 1.609375q0.546875 0.90625 0.546875 1.984375q0 1.9375 -1.671875 3.359375q-1.65625 1.40625 -4.46875 1.40625q-3.0 0 -4.6875 -1.59375q-1.359375 -1.28125 -1.359375 -2.890625q0 -1.3125 0.921875 -2.34375q1.09375 -1.21875 3.140625 -1.921875q-1.59375 -0.75 -2.296875 -1.515625q-0.90625 -1.015625 -0.90625 -2.453125q0 -1.765625 1.34375 -2.859375q1.640625 -1.328125 4.09375 -1.328125q2.25 0 3.640625 1.15625q1.390625 1.140625 1.390625 2.640625q0 0.734375 -0.34375 1.40625q-0.34375 0.671875 -1.0625 1.25q-0.71875 0.578125 -1.984375 1.09375zm-1.0625 -0.421875q1.328125 -1.015625 1.71875 -1.40625q0.40625 -0.40625 0.625 -0.90625q0.21875 -0.515625 0.21875 -1.0q0 -0.6875 -0.40625 -1.3125q-0.40625 -0.625 -1.203125 -1.015625q-0.796875 -0.390625 -1.78125 -0.390625q-1.453125 0 -2.421875 0.8125q-0.953125 0.796875 -0.953125 1.84375q0 0.84375 0.59375 1.515625q0.609375 0.671875 2.234375 1.3125l1.375 0.546875zm-1.65625 1.5q-1.65625 0.71875 -2.609375 1.875q-0.75 0.921875 -0.75 1.90625q0 1.328125 1.171875 2.375q1.1875 1.03125 3.0625 1.03125q1.921875 0 3.1875 -1.1875q1.046875 -0.953125 1.046875 -2.0625q0 -0.859375 -0.6875 -1.640625q-0.6875 -0.796875 -2.546875 -1.546875l-1.875 -0.75zm17.601562 -1.078125q1.390625 0.53125 2.109375 1.0q1.0625 0.6875 1.59375 1.609375q0.546875 0.90625 0.546875 1.984375q0 1.9375 -1.671875 3.359375q-1.65625 1.40625 -4.46875 1.40625q-3.0 0 -4.6875 -1.59375q-1.359375 -1.28125 -1.359375 -2.890625q0 -1.3125 0.921875 -2.34375q1.09375 -1.21875 3.140625 -1.921875q-1.59375 -0.75 -2.296875 -1.515625q-0.90625 -1.015625 -0.90625 -2.453125q0 -1.765625 1.34375 -2.859375q1.640625 -1.328125 4.09375 -1.328125q2.25 0 3.640625 1.15625q1.390625 1.140625 1.390625 2.640625q0 0.734375 -0.34375 1.40625q-0.34375 0.671875 -1.0625 1.25q-0.71875 0.578125 -1.984375 1.09375zm-1.0625 -0.421875q1.328125 -1.015625 1.71875 -1.40625q0.40625 -0.40625 0.625 -0.90625q0.21875 -0.515625 0.21875 -1.0q0 -0.6875 -0.40625 -1.3125q-0.40625 -0.625 -1.203125 -1.015625q-0.796875 -0.390625 -1.78125 -0.390625q-1.453125 0 -2.421875 0.8125q-0.953125 0.796875 -0.953125 1.84375q0 0.84375 0.59375 1.515625q0.609375 0.671875 2.234375 1.3125l1.375 0.546875zm-1.65625 1.5q-1.65625 0.71875 -2.609375 1.875q-0.75 0.921875 -0.75 1.90625q0 1.328125 1.171875 2.375q1.1875 1.03125 3.0625 1.03125q1.921875 0 3.1875 -1.1875q1.046875 -0.953125 1.046875 -2.0625q0 -0.859375 -0.6875 -1.640625q-0.6875 -0.796875 -2.546875 -1.546875l-1.875 -0.75zm12.9921875 -8.625q1.734375 0 2.71875 1.109375q1.078125 1.234375 1.078125 3.34375q0 2.015625 -1.078125 3.1875q-1.078125 1.15625 -2.8125 1.15625q-1.78125 0 -2.859375 -1.375q-0.875 -1.140625 -0.875 -3.03125q0 -2.09375 1.046875 -3.234375q1.0625 -1.15625 2.78125 -1.15625zm-0.015625 0.75q-0.625 0 -1.09375 0.359375q-0.46875 0.34375 -0.796875 1.265625q-0.3125 0.90625 -0.3125 2.125q0 1.1875 0.28125 1.984375q0.296875 0.796875 0.796875 1.1875q0.5 0.375 1.09375 0.375q0.59375 0 1.109375 -0.375q0.515625 -0.390625 0.8125 -1.21875q0.3125 -0.828125 0.3125 -2.0625q0 -1.640625 -0.5625 -2.640625q-0.546875 -1.0 -1.640625 -1.0zm12.296875 -0.75l-10.890625 16.90625l-1.40625 0l10.875 -16.90625l1.421875 0zm0.015625 8.109375q1.71875 0 2.703125 1.125q1.078125 1.21875 1.078125 3.34375q0 2.0 -1.078125 3.171875q-1.078125 1.15625 -2.8125 1.15625q-1.78125 0 -2.84375 -1.359375q-0.875 -1.140625 -0.875 -3.046875q0 -2.09375 1.046875 -3.234375q1.046875 -1.15625 2.78125 -1.15625zm-0.03125 0.75q-0.609375 0 -1.09375 0.359375q-0.46875 0.34375 -0.796875 1.265625q-0.3125 0.90625 -0.3125 2.125q0 1.1875 0.296875 2.0q0.296875 0.796875 0.796875 1.171875q0.5 0.375 1.078125 0.375q0.609375 0 1.109375 -0.375q0.515625 -0.390625 0.8125 -1.21875q0.3125 -0.828125 0.3125 -2.046875q0 -1.65625 -0.5625 -2.65625q-0.546875 -1.0 -1.640625 -1.0zm18.117188 -9.3125l0.734375 0.734375q-0.625 0.65625 -1.046875 1.640625q-0.625 1.453125 -0.90625 3.4375q-0.265625 1.96875 -0.265625 5.5625q0 3.703125 0.25 5.5625q0.265625 1.859375 0.875 3.296875q0.421875 1.0 1.09375 1.71875l-0.734375 0.671875q-1.140625 -1.015625 -2.0 -2.546875q-0.84375 -1.53125 -1.265625 -3.546875q-0.40625 -2.015625 -0.40625 -5.390625q0 -3.359375 0.453125 -5.375q0.46875 -2.03125 1.515625 -3.78125q0.78125 -1.328125 1.703125 -1.984375zm2.5546875 1.71875l0 -0.984375l5.828125 0q4.015625 0 5.59375 0.5q2.328125 0.734375 3.78125 2.75q1.609375 2.234375 1.609375 5.125q0 1.96875 -0.796875 3.671875q-0.78125 1.6875 -2.078125 2.71875q-1.0625 0.859375 -2.5625 1.21875q-1.5 0.359375 -3.015625 0.359375l-8.359375 0l0 -0.984375l0.671875 0l0.234375 0.015625q0.421875 0 0.703125 -0.171875q0.28125 -0.1875 0.390625 -0.484375q0.078125 -0.21875 0.078125 -1.03125l0 -10.921875q0 -0.9375 -0.109375 -1.203125q-0.171875 -0.359375 -0.53125 -0.5q-0.203125 -0.078125 -1.4375 -0.078125zm4.265625 14.09375l3.53125 0q0.53125 0 1.75 -0.1875q1.234375 -0.1875 1.765625 -0.453125q0.765625 -0.40625 1.484375 -1.28125q0.734375 -0.890625 1.125 -2.125q0.390625 -1.234375 0.390625 -2.828125q0 -1.59375 -0.390625 -2.75q-0.390625 -1.15625 -1.1875 -2.078125q-0.78125 -0.9375 -1.75 -1.421875q-0.96875 -0.484375 -2.15625 -0.609375q-0.65625 -0.0625 -2.15625 -0.0625l-2.40625 0l0 13.796875zm15.2265625 6.8125l-0.75 -0.734375q0.65625 -0.65625 1.0625 -1.640625q0.625 -1.453125 0.890625 -3.421875q0.28125 -1.984375 0.28125 -5.59375q0 -3.703125 -0.265625 -5.546875q-0.25 -1.859375 -0.859375 -3.296875q-0.4375 -1.0 -1.109375 -1.71875l0.75 -0.671875q1.125 1.0 1.96875 2.546875q0.859375 1.53125 1.265625 3.546875q0.421875 2.0 0.421875 5.375q0 3.375 -0.453125 5.390625q-0.453125 2.015625 -1.5 3.765625q-0.796875 1.34375 -1.703125 2.0z" fill-rule="nonzero"/><path fill="#000000" d="m459.33496 401.69623l5.171875 0l4.828125 12.9375l4.703125 -12.9375l4.984375 0l0 0.984375l-0.421875 0q-0.765625 0 -1.03125 0.140625q-0.25 0.125 -0.40625 0.453125q-0.15625 0.3125 -0.15625 1.046875l0 10.78125q0 1.03125 0.125 1.34375q0.125 0.296875 0.40625 0.453125q0.296875 0.15625 1.0625 0.15625l0.421875 0l0 0.984375l-6.25 0l0 -0.984375l0.453125 0q0.59375 0 0.859375 -0.09375q0.28125 -0.09375 0.46875 -0.3125q0.1875 -0.21875 0.203125 -0.453125q0.0625 -0.484375 0.0625 -0.75l0 -12.03125l-5.328125 14.625l-1.171875 0l-5.375 -14.421875l0 11.59375q0 0.875 0.15625 1.1875q0.15625 0.3125 0.46875 0.484375q0.328125 0.171875 1.15625 0.171875l0.375 0l0 0.984375l-5.765625 0l0 -0.984375l0.328125 0q0.828125 0 1.1875 -0.171875q0.359375 -0.1875 0.515625 -0.5q0.15625 -0.328125 0.15625 -1.28125l0 -10.671875q0 -0.890625 -0.140625 -1.171875q-0.125 -0.296875 -0.421875 -0.4375q-0.296875 -0.140625 -1.0625 -0.140625l-0.5625 0l0 -0.984375zm30.25 9.5625l0 -1.28125q0 -1.296875 -0.734375 -1.859375q-0.71875 -0.5625 -2.046875 -0.5625q-0.65625 0 -1.15625 0.171875q-0.484375 0.15625 -0.78125 0.4375q-0.296875 0.265625 -0.4375 0.609375q-0.0625 0.140625 -0.28125 1.0q-0.265625 1.0625 -1.09375 1.0625q-0.46875 0 -0.765625 -0.3125q-0.28125 -0.3125 -0.28125 -0.84375q0 -0.765625 0.578125 -1.515625q0.578125 -0.75 1.75 -1.234375q1.1875 -0.484375 2.78125 -0.484375q1.5 0 2.5625 0.46875q1.078125 0.453125 1.578125 1.328125q0.359375 0.59375 0.359375 2.171875l0 4.515625q0 0.96875 0.046875 1.25q0.140625 0.515625 0.453125 0.765625q0.328125 0.25 0.84375 0.25q0.53125 0 1.28125 -0.265625l0 1.03125q-0.96875 0.28125 -1.734375 0.28125q-0.84375 0 -1.40625 -0.234375q-0.5625 -0.234375 -0.9375 -0.6875q-0.359375 -0.453125 -0.46875 -1.078125q-1.40625 1.109375 -2.546875 1.5625q-1.125 0.4375 -2.28125 0.4375q-1.625 0 -2.640625 -0.875q-1.0 -0.890625 -1.0 -2.078125q0 -0.703125 0.359375 -1.34375q0.375 -0.65625 1.125 -1.140625q0.765625 -0.5 2.375 -0.875q1.625 -0.375 4.5 -0.671875zm0 1.015625q-2.71875 0.390625 -3.359375 0.546875q-1.28125 0.296875 -1.84375 0.65625q-0.546875 0.34375 -0.78125 0.75q-0.234375 0.40625 -0.234375 0.859375q0 0.453125 0.265625 0.890625q0.265625 0.421875 0.75 0.671875q0.484375 0.234375 1.015625 0.234375q0.765625 0 1.71875 -0.359375q0.96875 -0.359375 2.46875 -1.421875l0 -2.828125zm8.578125 -9.53125l0.828125 0l0 3.984375l3.484375 0l0 1.171875l-3.484375 0l0 7.0625q0 0.90625 0.15625 1.296875q0.15625 0.390625 0.53125 0.640625q0.390625 0.234375 0.859375 0.234375q1.109375 0 2.46875 -1.0l0 1.140625q-1.546875 1.046875 -3.109375 1.046875q-0.890625 0 -1.609375 -0.390625q-0.71875 -0.40625 -0.984375 -0.9375q-0.265625 -0.546875 -0.265625 -1.890625l0 -7.203125l-2.046875 0l0 -0.984375q0.984375 -0.21875 1.578125 -0.6875q0.609375 -0.46875 0.984375 -1.21875q0.375 -0.75 0.609375 -2.265625zm6.0390625 0.09375l0 -1.0q1.125 -0.15625 1.75 -0.359375q0.640625 -0.203125 1.34375 -0.625l0.90625 0l0 7.734375q1.328125 -1.109375 2.5 -1.625q1.1875 -0.515625 2.265625 -0.515625q1.578125 0 2.59375 0.9375q1.015625 0.9375 1.015625 2.28125l0 5.765625q0 0.84375 0.125 1.109375q0.140625 0.265625 0.453125 0.390625q0.3125 0.125 1.421875 0.125l0 0.984375l-6.046875 0l0 -0.984375l0.4375 0q0.859375 0 1.125 -0.125q0.28125 -0.140625 0.390625 -0.453125q0.125 -0.3125 0.125 -1.28125l0 -4.0q0 -1.328125 -0.09375 -1.71875q-0.171875 -0.6875 -0.71875 -1.09375q-0.546875 -0.40625 -1.40625 -0.40625q-0.96875 0 -2.015625 0.46875q-1.046875 0.46875 -2.171875 1.421875l0 5.875q0 0.65625 0.109375 0.875q0.125 0.21875 0.390625 0.328125q0.28125 0.109375 1.078125 0.109375l0.484375 0l0 0.984375l-6.0625 0l0 -0.984375l0.359375 0q0.859375 0 1.234375 -0.21875q0.21875 -0.09375 0.3125 -0.390625q0.09375 -0.3125 0.09375 -1.703125l0 -11.90625l-2.0 0zm23.957031 8.515625l6.96875 0l0 1.453125l-6.96875 0l0 -1.453125zm18.710938 6.96875l0 -1.09375q2.90625 -0.03125 4.6875 -0.828125q1.796875 -0.8125 2.625 -2.421875q0.84375 -1.625 0.953125 -3.96875q-0.59375 0.921875 -1.21875 1.421875q-0.625 0.5 -1.46875 0.78125q-0.84375 0.28125 -1.828125 0.28125q-1.59375 0 -2.84375 -0.703125q-1.234375 -0.703125 -1.9375 -1.890625q-0.6875 -1.203125 -0.6875 -2.8125q0 -2.578125 1.5625 -4.0625q1.71875 -1.609375 4.46875 -1.609375q1.984375 0 3.34375 0.828125q1.359375 0.8125 2.15625 2.5q0.796875 1.6875 0.796875 4.140625q0 2.46875 -0.828125 4.40625q-0.828125 1.921875 -2.328125 3.09375q-1.5 1.15625 -3.296875 1.546875q-1.78125 0.390625 -3.234375 0.390625l-0.921875 0zm4.296875 -7.078125q1.671875 0 2.75 -1.265625q1.09375 -1.28125 1.09375 -3.078125q0 -1.265625 -0.53125 -2.328125q-0.53125 -1.078125 -1.359375 -1.59375q-0.8125 -0.53125 -1.875 -0.53125q-1.609375 0 -2.6875 1.234375q-1.078125 1.21875 -1.078125 3.28125q0 1.96875 1.046875 3.125q1.0625 1.15625 2.640625 1.15625zm10.5546875 -3.390625l-1.140625 0.140625q-0.09375 -0.828125 -0.09375 -1.359375q0 -1.375 0.75 -2.609375q0.75 -1.234375 2.09375 -1.921875q1.34375 -0.6875 3.078125 -0.6875q1.671875 0 2.9375 0.65625q1.265625 0.640625 1.9375 1.78125q0.6875 1.125 0.6875 2.578125q0 1.21875 -0.453125 2.28125q-0.4375 1.046875 -1.40625 2.109375q-0.71875 0.796875 -2.9375 2.4375q-2.796875 2.078125 -4.28125 3.015625l6.09375 0q1.078125 0 1.40625 -0.1875q0.453125 -0.265625 0.625 -1.203125l0.109375 -0.671875l0.984375 0l-0.796875 4.421875l-0.75 0l-0.125 -0.59375l-10.234375 0l0 -0.984375l1.875 -1.421875q2.125 -1.578125 3.125 -2.421875q1.890625 -1.59375 2.84375 -2.71875q0.953125 -1.140625 1.3125 -2.046875q0.359375 -0.90625 0.359375 -1.90625q0 -1.65625 -1.0625 -2.703125q-1.0625 -1.0625 -2.765625 -1.0625q-1.21875 0 -2.171875 0.53125q-0.953125 0.53125 -1.515625 1.484375q-0.546875 0.9375 -0.546875 2.046875q0 0.40625 0.0625 1.015625zm16.835938 -6.4375q1.734375 0 2.71875 1.109375q1.078125 1.234375 1.078125 3.34375q0 2.015625 -1.078125 3.1875q-1.078125 1.15625 -2.8125 1.15625q-1.78125 0 -2.859375 -1.375q-0.875 -1.140625 -0.875 -3.03125q0 -2.09375 1.046875 -3.234375q1.0625 -1.15625 2.78125 -1.15625zm-0.015625 0.75q-0.625 0 -1.09375 0.359375q-0.46875 0.34375 -0.796875 1.265625q-0.3125 0.90625 -0.3125 2.125q0 1.1875 0.28125 1.984375q0.296875 0.796875 0.796875 1.1875q0.5 0.375 1.09375 0.375q0.59375 0 1.109375 -0.375q0.515625 -0.390625 0.8125 -1.21875q0.3125 -0.828125 0.3125 -2.0625q0 -1.640625 -0.5625 -2.640625q-0.546875 -1.0 -1.640625 -1.0zm12.296875 -0.75l-10.890625 16.90625l-1.40625 0l10.875 -16.90625l1.421875 0zm0.015625 8.109375q1.71875 0 2.703125 1.125q1.078125 1.21875 1.078125 3.34375q0 2.0 -1.078125 3.171875q-1.078125 1.15625 -2.8125 1.15625q-1.78125 0 -2.84375 -1.359375q-0.875 -1.140625 -0.875 -3.046875q0 -2.09375 1.046875 -3.234375q1.046875 -1.15625 2.78125 -1.15625zm-0.03125 0.75q-0.609375 0 -1.09375 0.359375q-0.46875 0.34375 -0.796875 1.265625q-0.3125 0.90625 -0.3125 2.125q0 1.1875 0.296875 2.0q0.296875 0.796875 0.796875 1.171875q0.5 0.375 1.078125 0.375q0.609375 0 1.109375 -0.375q0.515625 -0.390625 0.8125 -1.21875q0.3125 -0.828125 0.3125 -2.046875q0 -1.65625 -0.5625 -2.65625q-0.546875 -1.0 -1.640625 -1.0zm18.117188 -9.3125l0.734375 0.734375q-0.625 0.65625 -1.046875 1.640625q-0.625 1.453125 -0.90625 3.4375q-0.265625 1.96875 -0.265625 5.5625q0 3.703125 0.25 5.5625q0.265625 1.859375 0.875 3.296875q0.421875 1.0 1.09375 1.71875l-0.734375 0.671875q-1.140625 -1.015625 -2.0 -2.546875q-0.84375 -1.53125 -1.265625 -3.546875q-0.40625 -2.015625 -0.40625 -5.390625q0 -3.359375 0.453125 -5.375q0.46875 -2.03125 1.515625 -3.78125q0.78125 -1.328125 1.703125 -1.984375zm8.6328125 0.734375l1.9375 0l5.078125 13.65625q0.375 1.03125 0.75 1.375q0.375 0.328125 1.03125 0.328125l0.25 0l0 0.984375l-5.828125 0l0 -0.984375q0.28125 -0.03125 0.5625 -0.03125q0.5625 0 0.734375 -0.109375q0.34375 -0.21875 0.34375 -0.5625q0 -0.25 -0.328125 -1.203125l-1.078125 -3.171875l-5.9375 0l-1.265625 3.546875q-0.203125 0.546875 -0.203125 0.75q0 0.234375 0.125 0.421875q0.125 0.171875 0.328125 0.265625q0.21875 0.078125 0.6875 0.078125q0.3125 0 0.515625 0.015625l0 0.984375l-4.890625 0l0 -0.984375q0.6875 0 0.984375 -0.125q0.296875 -0.140625 0.515625 -0.4375q0.234375 -0.3125 0.59375 -1.265625l5.09375 -13.53125zm-2.046875 9.140625l5.046875 0l-2.53125 -7.03125l-2.515625 7.03125zm12.464844 0.515625l6.96875 0l0 1.453125l-6.96875 0l0 -1.453125zm9.722656 12.234375l-0.75 -0.734375q0.65625 -0.65625 1.0625 -1.640625q0.625 -1.453125 0.890625 -3.421875q0.28125 -1.984375 0.28125 -5.59375q0 -3.703125 -0.265625 -5.546875q-0.25 -1.859375 -0.859375 -3.296875q-0.4375 -1.0 -1.109375 -1.71875l0.75 -0.671875q1.125 1.0 1.96875 2.546875q0.859375 1.53125 1.265625 3.546875q0.421875 2.0 0.421875 5.375q0 3.375 -0.453125 5.390625q-0.453125 2.015625 -1.5 3.765625q-0.796875 1.34375 -1.703125 2.0z" fill-rule="nonzero"/></g>
<style xmlns="http://www.w3.org/2000/svg">
    @keyframes alternateUp {
        50% {transform:translateY(20px);}
    }
    @keyframes alternateDown {
        50% {transform:translateY(-20px);}
    }
    @keyframes alternateLeft {
        50% {transform:translateX(20px);}
    }
    @keyframes alternateRight {
        50% {transform:translateX(-20px);}
    }
</style>
</svg>