<?xml version="1.0" encoding="UTF-8"?>
<svg version="1.1" xmlns="http://www.w3.org/2000/svg" width="140" height="61" >
<path d="M44.813,18.324c5.008-2.66,11.258-8.604,8.967-14.885c-2.11-5.785-12.405-0.663-15.321,1.119 c-8.756,5.349-19.063,14.903-21.02,25.446c-1.582,8.521,9.315,2.368,11.806,0.27c-0.475-0.211-0.949-0.422-1.424-0.633 c-3.522,4.516-7.158,8.945-10.862,13.313c-2.863,3.376-5.798,6.693-8.867,9.885c-1.89,1.965-4.552,5.396-7.343,6.039 c-1.199,0.275-0.861,1.479,0.323,1.205c2.165-0.498,3.947-2.294,5.537-3.736c3.561-3.229,6.743-6.899,9.894-10.519 c4.448-5.107,8.747-10.36,12.912-15.701c0.701-0.898-0.892-1.082-1.424-0.633c-1.649,1.389-5.949,5.435-8.161,3.161 c-1.784-1.833,0.5-6.139,1.314-7.833c3.48-7.248,9.844-13.532,16.361-18.087c2.996-2.094,13.328-8.223,14.697-1.516 c1.047,5.132-4.144,9.918-8.213,12.08C42.82,17.919,43.881,18.819,44.813,18.324L44.813,18.324z"/>
<path d="M36.443,32.38c-3.095,0.094-5.987,1.669-8.441,3.414c-1.027,0.731-6.189,5.09-4.449,7.165 c4.348,5.188,11.581-8.834,13.628-10.247c-0.53-0.087-1.061-0.174-1.591-0.262c-0.43,1.313-5.644,9.107-2.731,9.846 c3.263,0.826,7.844-6.87,9.301-8.744c4.82-6.196,9.396-12.683,13.38-19.452c0.315-0.535,3.444-6.849,0.083-4.314 c-3.324,2.507-5.739,7.425-8,10.803c-3.647,5.446-7.265,11.021-10.154,16.914c-1.151,2.35-2.714,5.695,1.303,4.938 c4.467-0.844,11.59-9.151,11.978-13.617c0.024-0.277-0.162-0.4-0.396-0.486c-0.019-0.007-0.038-0.014-0.057-0.021 c-0.419-0.154-1.072,0.043-1.366,0.366c-1.123,1.231-6.001,11.11-3.351,11.91c3.619,1.092,9.31-7.414,11.041-9.452 c5.611-6.604,11.731-14.146,14.706-22.384c1.04-2.88-0.638-3.455-2.431-1.234c-3.885,4.813-6.858,10.56-9.883,15.926 c-2.824,5.01-6.269,10.375-7.803,15.974c-1.608,5.864,6.652,1.312,8.162-0.062c2.058-1.871,8.325-14.483,2.352-14.338 c-3.553,0.086-5.551,7.655-5.338,10.231c0.186,2.248,1.61,3.806,3.925,3.797c2.775-0.012,3.556-2.643,6.663-1.498 c5.172,1.904,6.522-5.461,4.849-8.9c-2.062-4.237-7.092,6.493-7.347,7.561c-0.199,0.83,1.764,0.552,1.943-0.197 c0.572-2.392,1.691-4.663,3.343-6.496c-0.312,0.345,2.528,8.64-2.564,6.501c-2.429-1.021-3.621-0.188-5.657,1.341 c-3.417,2.565-3.155-3.744-2.972-4.757c0.328-1.81,1.133-3.526,2.076-5.09c1.725-2.86,1.278,3.188,1.141,4.134 c-0.478,3.306-2.688,6.319-5.244,8.341c-4.767,3.771-2.974-2.169-1.989-4.356c1.472-3.269,3.189-6.434,4.907-9.578 c3.261-5.971,6.634-12.003,10.604-17.539c0.272-0.379,0.561-0.743,0.865-1.096c0.541-0.628-0.943-0.642-1.043-0.046 c-0.231,1.382-0.958,2.721-1.544,3.975c-2.138,4.571-5.144,8.773-8.125,12.821c-2.899,3.936-6.043,7.706-9.388,11.271 c-1.137,1.211-2.323,2.397-3.618,3.441c-1.451,1.169-0.134-1.611,0.199-2.733c0.537-1.815,1.329-3.566,2.135-5.275 c1.07-2.267-0.446-2.054-1.331-0.149c-1.01,2.175-2.634,4.135-4.164,5.945c-0.704,0.833-6.026,5.305-6.019,4.461 c0.018-1.942,1.597-4.213,2.475-5.861c1.702-3.191,3.615-6.273,5.545-9.331c3.047-4.827,6.194-9.667,9.729-14.157 c0.35-0.444,0.714-0.878,1.11-1.282c-2.145,2.191-0.861-1.29-1.474,0.239c-0.196,0.49-0.449,0.959-0.689,1.428 c-1.418,2.768-3.173,5.381-4.882,7.974c-4.208,6.385-8.686,12.728-13.765,18.453c-0.707,0.797-1.45,1.589-2.277,2.264 c-0.396,0.323,0.158,0.268,0.252-0.643c0.081-0.785,0.465-1.652,0.747-2.359c0.761-1.913,2.098-3.656,2.735-5.601 c0.255-0.777-1.33-0.442-1.591-0.262c-2.387,1.646-4.012,5.586-5.919,7.688c-0.692,0.763-5.964,4.147-4.224,0.551 c0.894-1.849,3.059-3.444,4.643-4.571c1.601-1.139,3.788-1.985,5.781-2.045C37.252,33.583,37.768,32.34,36.443,32.38 L36.443,32.38z"/>
<path d="M58.461,16.264c0.026-0.011,0.053-0.021,0.08-0.031c-0.083,0.031-0.233,0.072,0.009,0.001 c0.079-0.023,0.452-0.1,0.119-0.038c0.061-0.012,0.122-0.02,0.184-0.027c0.162-0.02-0.195-0.005,0.072-0.002 c0.211,0.002-0.173-0.032,0.032,0.002c0.191,0.031-0.123-0.059,0.053,0.011c0.092,0.036,0.143,0.057,0.198,0.153 c0.209,0.365,0.1,0.832,0.008,1.211c-0.174,0.72,1.772,0.419,1.932-0.241c0.246-1.015,0.071-2.059-1.132-2.203 c-0.782-0.094-1.594,0.069-2.32,0.367c-0.231,0.095-0.819,0.458-0.515,0.777C57.483,16.558,58.121,16.403,58.461,16.264 L58.461,16.264z"/>
<path d="M104.292,10.698c-0.032-3.044-0.911-8.905-5.311-6.955c-2.669,1.182-4.822,4.118-6.704,6.232 c-3.048,3.421-5.863,7.065-8.427,10.861c-1.508,2.232-8.205,12.053-2.376,13.559c5.322,1.375,8.993-4.616,10.831-8.739 c0.429-0.961-1.469-0.661-1.816-0.107c-2.966,4.716-6.043,9.366-9.274,13.905c-2.679,3.762-5.758,7.201-8.707,10.749 c-1.294,1.557-3.72,3.749-3.826,5.877c-0.044,0.881,1.905,0.521,1.941-0.207c0.156-3.127,4.752-6.815,6.651-9.059 c2.277-2.688,4.44-5.403,6.483-8.274c2.987-4.195,5.805-8.523,8.547-12.884c-0.605-0.036-1.211-0.071-1.816-0.107 c-0.97,2.175-6.669,11.736-9.158,6.469c-1.598-3.381,3.245-9.457,4.968-12.009c2.983-4.417,6.442-8.549,10.113-12.409 c1.768-1.859,4.296-4.263,5.451-0.478c0.364,1.194,0.475,2.54,0.488,3.785C102.36,11.797,104.3,11.414,104.292,10.698 L104.292,10.698z"/>
<path d="M99.041,24.28c-1.329,1.022-13.273,10.698-9.585,12.632c3.925,2.059,9.316-7.375,10.906-9.738 c-0.599-0.011-1.198-0.022-1.797-0.033c-0.772,1.408-4.465,10.735,0.185,8.652c5.367-2.404,9.494-9.816,12.632-14.396 c2.682-3.916,5.104-8.014,7.199-12.272c0.884-1.796,2.429-4.327,2.426-6.436c-0.003-2.292-3.502,1.798-3.633,1.995 c-5.913,8.833-11.936,19.442-14.956,29.682c-0.928,3.146,1.406,3.3,3.712,1.8c4.202-2.732,7.323-7.989,10.015-12.105 c-0.599-0.011-1.198-0.022-1.797-0.033c-0.905,1.594-6.202,12.19-1.146,11.479c3.967-0.559,6.984-6.964,8.827-9.857 c4.064-6.384,7.738-13.083,10.956-19.932c0.382-0.813,3.602-7.458-0.051-5.278c-1.305,0.779-2.15,2.776-2.88,4.013 c-1.948,3.304-3.672,6.745-5.361,10.187c-2.834,5.777-6.381,12.173-7.394,18.604c-0.815,5.176,6.626,1.123,8.067-0.305 c1.471-1.457,7.152-14.439,2.166-12.352c-2.328,0.975-6.582,8.521-4.673,10.744c1.31,1.526,6.279-0.74,7.586-1.297 c1.531-0.65,2.862-1.604,4.038-2.764c0.28-0.276,1.333-2.392,0.956-1.987c-0.58-0.01-1.159-0.021-1.739-0.03 c-0.443,2.838-2.049,5.765-3.293,8.289c-3.383,6.865-7.974,13.091-12.901,18.914c-0.611,0.723,1.377,0.386,1.672,0.17 c0.122,0.295,0.243,0.589,0.365,0.884c0.021,0.606,1.957,0.223,1.932-0.518c-0.087-2.534-2.349-1.766-3.843-0.673 c0.558,0.057,1.115,0.113,1.672,0.17c5.182-6.125,9.812-12.646,13.365-19.854c1.145-2.322,2.558-5.027,2.963-7.628 c0.119-0.763-1.478-0.312-1.738-0.031c-0.114,0.123-0.177,0.209-0.226,0.367c-0.753,2.43-2.934,3.466-5.092,4.384 c-5.162,2.195-4.274-0.902-2.957-4.011c0.446-1.054,1.014-2.048,1.621-3.015c1.06-1.688,0.496-0.298,0.373,1.076 c-0.197,2.206-0.964,4.305-1.957,6.266c-0.528,1.043-4.859,6.885-6.38,4.079c-1.327-2.448,2.621-9.317,3.539-11.466 c2.464-5.766,5.258-11.414,8.309-16.892c0.846-1.519,1.72-3.044,2.763-4.438c0.63-0.842-0.894-0.512-1.059,0.238 c-0.155,0.702-0.462,1.383-0.73,2.047c-2,4.951-4.68,9.68-7.292,14.326c-2.669,4.748-5.475,9.486-8.791,13.815 c-1.741,2.273-3.614,3.715-2.858-0.561c0.438-2.481,1.761-4.963,2.991-7.131c0.459-0.809-1.472-0.529-1.797-0.033 c-1.886,2.884-3.933,5.67-6.142,8.314c-0.332,0.397-4.193,4.558-4.142,3.175c0.042-1.118,0.546-2.28,0.92-3.316 c2.855-7.901,7.132-15.461,11.3-22.732c1.22-2.128,2.424-4.697,4.159-6.472c-1.608,1.645-1.179-0.729-1.449,0.519 c-0.116,0.535-0.323,1.056-0.506,1.57c-1.194,3.348-2.915,6.495-4.676,9.571c-3.105,5.421-6.747,10.58-10.721,15.396 c-0.501,0.607-4.378,5.091-4.769,4.396c-1.022-1.815,1.203-5.746,2.039-7.272c0.453-0.826-1.473-0.516-1.797-0.033 c-0.796,1.184-1.637,2.336-2.491,3.479c-0.738,0.985-1.519,1.937-2.318,2.873c-0.296,0.348-3.497,3.738-2.727,0.957 c1.072-3.872,6.484-7.497,9.559-9.862C101.458,23.917,99.521,23.91,99.041,24.28L99.041,24.28z"/>
<path d="M119.986,15.818c0.022-0.021,0.045-0.042,0.068-0.063c0.026-0.023,0.052-0.046,0.079-0.069 c0.114-0.099-0.123,0.101,0.01-0.007c0.088-0.072,0.179-0.14,0.272-0.206c0.05-0.036,0.102-0.069,0.153-0.103 c0.176-0.115-0.15,0.082,0.032-0.017c0.187-0.101-0.198,0.075-0.008,0c-0.193,0.076-0.413,0.11-0.619,0.101 c-0.174-0.007-0.092-0.053-0.034,0.057c0.195,0.368,0.043,0.914-0.037,1.288c-0.113,0.526,1.801,0.209,1.913-0.313 c0.097-0.451,0.29-1.156,0.003-1.58c-0.328-0.484-1.09-0.32-1.563-0.205c-0.768,0.187-1.464,0.673-2.031,1.21 c-0.334,0.316,0.289,0.396,0.475,0.386C119.142,16.274,119.656,16.13,119.986,15.818L119.986,15.818z"/>
<path d="M137.807,20.069c0.049-0.067,0.105-0.13,0.164-0.19c-0.231,0.241-0.024,0.029,0.046-0.023 c0.14-0.104-0.219,0.123-0.065,0.042c0.158-0.084-0.261,0.08-0.091,0.034c-0.003,0-0.447,0.009-0.304,0.027 c-0.021-0.003-0.326-0.146-0.204-0.063c0.142,0.098-0.103-0.129,0.02,0.028c-0.001-0.002,0.113,0.19,0.067,0.093 c0.225,0.477,0.282,1.041,0.338,1.558c0.053,0.491,0.814,0.528,1.152,0.438c0.455-0.122,0.833-0.461,0.779-0.955 c-0.124-1.147-0.426-2.639-1.875-2.576c-0.644,0.027-1.284,0.457-1.657,0.969C135.445,20.455,137.259,20.821,137.807,20.069 L137.807,20.069z"/>
</svg>